<?xml version="1.0" encoding="UTF-8" standalone="no"?>
<svg width="153px" height="152px" viewBox="0 0 153 152" version="1.1" xmlns="http://www.w3.org/2000/svg" xmlns:xlink="http://www.w3.org/1999/xlink" xmlns:sketch="http://www.bohemiancoding.com/sketch/ns">
    <!-- Generator: Sketch 3.4.3 (16618) - http://www.bohemiancoding.com/sketch -->
    <title>Group</title>
    <desc>Created with Sketch.</desc>
    <defs>
        <linearGradient x1="91.4062108%" y1="-32.8762273%" x2="16.3354027%" y2="123.196752%" id="linearGradient-1">
            <stop stop-color="#FFFFFF" offset="0%"></stop>
            <stop stop-color="#D5DCE9" offset="100%"></stop>
        </linearGradient>
        <path id="path-2" d="M0.00731707317,0.0486618005 L50,0.0486618005 L50,49.9270073 L0.00731707317,49.9270073 L0.00731707317,0.0486618005 Z"></path>
        <rect id="path-4" x="0.968937126" y="0" width="28" height="72"></rect>
    </defs>
    <g id="Page-1" stroke="none" stroke-width="1" fill="none" fill-rule="evenodd" sketch:type="MSPage">
        <g id="6-Shares" sketch:type="MSArtboardGroup" transform="translate(-712.000000, -440.000000)">
            <g id="Group" sketch:type="MSLayerGroup" transform="translate(712.000000, 429.000000)">
                <ellipse id="Oval-298-Copy-2" fill="url(#linearGradient-1)" sketch:type="MSShapeGroup" cx="76.4420629" cy="86.7294124" rx="76.4420629" ry="75.7294124"></ellipse>
                <path d="M28.2471384,77.3903363 L42.0676016,76.9612806 L42.0676016,115.650143 L28.2471384,114.936586 L28.2471384,77.3903363 Z" id="Rectangle-255" fill="#4D73AE" sketch:type="MSShapeGroup"></path>
                <path d="M103.089783,64.6224153 L116.910246,63.9858014 L116.910246,121.390625 L103.089783,120.331881 L103.089783,64.6224153 Z" id="Rectangle-255-Copy-2" fill="#4D73AE" sketch:type="MSShapeGroup"></path>
                <path d="M77.7954721,75.0140051 L91.6159352,74.5100191 L91.6159352,119.955504 L77.7954721,119.117332 L77.7954721,75.0140051 Z" id="Rectangle-255-Copy-4" fill="#4D73AE" sketch:type="MSShapeGroup"></path>
                <path d="M50.6807928,80.7226978 L42.0676016,76.9612806 L42.0676016,115.650143 L50.6807928,111.888725 L50.6807928,80.7226978 Z" id="Rectangle-255-Copy" fill="#204581" sketch:type="MSShapeGroup"></path>
                <path d="M125.523437,69.5668259 L116.910246,63.9858014 L116.910246,121.390625 L125.523437,115.8096 L125.523437,69.5668259 Z" id="Rectangle-255-Copy-3" fill="#204581" sketch:type="MSShapeGroup"></path>
                <path d="M100.304234,78.9283301 L91.6820553,74.5100191 L91.6820553,119.955504 L100.304234,115.537193 L100.304234,78.9283301 Z" id="Rectangle-255-Copy-5" fill="#204581" sketch:type="MSShapeGroup"></path>
                <path d="M53.2372566,47.1863924 L67.0577198,46.390625 L67.0577198,118.146654 L53.2372566,116.823225 L53.2372566,47.1863924 Z" id="Rectangle-255-Copy-2" fill="#4D73AE" sketch:type="MSShapeGroup"></path>
                <path d="M75.4690738,53.3669056 L66.8558826,46.390625 L66.8558826,118.146654 L75.4690738,111.170374 L75.4690738,53.3669056 Z" id="Rectangle-255-Copy-3" fill="#204581" sketch:type="MSShapeGroup"></path>
                <g id="dollar103" transform="translate(101.000000, 13.000000)">
                    <mask id="mask-3" sketch:name="Clip 2" fill="white">
                        <use xlink:href="#path-2"></use>
                    </mask>
                    <g id="Clip-2"></g>
                    <path d="M24.9757317,0.0486618005 C11.1828049,0.0486618005 0,11.2042579 0,24.9636253 C0,38.7223844 11.1828049,49.8785888 24.9757317,49.8785888 C38.7714634,49.8785888 49.9514634,38.7223844 49.9514634,24.9636253 C49.9514634,11.2042579 38.7714634,0.0486618005 24.9757317,0.0486618005 L24.9757317,0.0486618005 Z M31.7868293,34.5833333 C30.5578049,35.9581509 28.7837805,36.76691 26.4634146,37.010219 L26.4634146,40.5354015 L23.5060976,40.5354015 L23.5060976,37.0288321 C19.6369512,36.633455 17.2436585,34.3884428 16.32,30.3012165 L20.8931707,29.1116788 C21.3171951,31.6816302 22.7196341,32.9652068 25.1004878,32.9652068 C26.2132927,32.9652068 27.0364634,32.6914842 27.5609756,32.1412409 C28.0854878,31.5903893 28.347439,30.9274939 28.347439,30.1491484 C28.347439,29.3431873 28.0854878,28.7315085 27.5609756,28.3181265 C27.0364634,27.9013382 25.8689024,27.3753041 24.0610976,26.736618 C22.4362195,26.1739659 21.1647561,25.6203163 20.250122,25.0666667 C19.3354878,24.5192214 18.5913415,23.7498783 18.0210976,22.7614355 C17.4509756,21.769708 17.1646341,20.6139903 17.1646341,19.3004866 C17.1646341,17.5759124 17.6767073,16.0215328 18.6952439,14.6409976 C19.7136585,13.263382 21.3171951,12.4208029 23.5060976,12.113382 L23.5060976,9.39184915 L26.4634146,9.39184915 L26.4634146,12.1138686 C29.7685366,12.5092457 31.9087805,14.3734793 32.8810976,17.7099757 L28.8081707,19.3765207 C28.0120732,17.0892944 26.7868293,15.9459854 25.1219512,15.9459854 C24.2868293,15.9459854 23.6160976,16.2010949 23.1130488,16.7125304 C22.6067073,17.2233577 22.3537805,17.8434307 22.3537805,18.5705596 C22.3537805,19.3128954 22.5976829,19.8816302 23.0854878,20.279927 C23.5703659,20.6753041 24.6160976,21.1647202 26.2137805,21.7520681 C27.9697561,22.3907543 29.3478049,22.9957421 30.344878,23.5645985 C31.3447561,24.133455 32.1403659,24.9212895 32.7381707,25.9216545 C33.3326829,26.9253041 33.6313415,28.0962287 33.6313415,29.4372263 C33.6308537,31.4963504 33.0154878,33.2119221 31.7868293,34.5833333 L31.7868293,34.5833333 Z" id="Fill-1" fill="#F58C23" sketch:type="MSShapeGroup" mask="url(#mask-3)"></path>
                </g>
                <g id="dollar103-copy" transform="translate(97.000000, 0.000000)">
                    <mask id="mask-5" sketch:name="Mask" fill="white">
                        <use xlink:href="#path-4"></use>
                    </mask>
                    <use id="Mask" sketch:type="MSShapeGroup" xlink:href="#path-4"></use>
                    <g mask="url(#mask-5)" id="Fill-1" fill="#EB7626" sketch:type="MSShapeGroup">
                        <g transform="translate(3.968937, 13.000000)">
                            <path d="M24.9757317,0.0486618005 C11.1828049,0.0486618005 0,11.2042579 0,24.9636253 C0,38.7223844 11.1828049,49.8785888 24.9757317,49.8785888 C38.7714634,49.8785888 49.9514634,38.7223844 49.9514634,24.9636253 C49.9514634,11.2042579 38.7714634,0.0486618005 24.9757317,0.0486618005 L24.9757317,0.0486618005 Z M31.7868293,34.5833333 C30.5578049,35.9581509 28.7837805,36.76691 26.4634146,37.010219 L26.4634146,40.5354015 L23.5060976,40.5354015 L23.5060976,37.0288321 C19.6369512,36.633455 17.2436585,34.3884428 16.32,30.3012165 L20.8931707,29.1116788 C21.3171951,31.6816302 22.7196341,32.9652068 25.1004878,32.9652068 C26.2132927,32.9652068 27.0364634,32.6914842 27.5609756,32.1412409 C28.0854878,31.5903893 28.347439,30.9274939 28.347439,30.1491484 C28.347439,29.3431873 28.0854878,28.7315085 27.5609756,28.3181265 C27.0364634,27.9013382 25.8689024,27.3753041 24.0610976,26.736618 C22.4362195,26.1739659 21.1647561,25.6203163 20.250122,25.0666667 C19.3354878,24.5192214 18.5913415,23.7498783 18.0210976,22.7614355 C17.4509756,21.769708 17.1646341,20.6139903 17.1646341,19.3004866 C17.1646341,17.5759124 17.6767073,16.0215328 18.6952439,14.6409976 C19.7136585,13.263382 21.3171951,12.4208029 23.5060976,12.113382 L23.5060976,9.39184915 L26.4634146,9.39184915 L26.4634146,12.1138686 C29.7685366,12.5092457 31.9087805,14.3734793 32.8810976,17.7099757 L28.8081707,19.3765207 C28.0120732,17.0892944 26.7868293,15.9459854 25.1219512,15.9459854 C24.2868293,15.9459854 23.6160976,16.2010949 23.1130488,16.7125304 C22.6067073,17.2233577 22.3537805,17.8434307 22.3537805,18.5705596 C22.3537805,19.3128954 22.5976829,19.8816302 23.0854878,20.279927 C23.5703659,20.6753041 24.6160976,21.1647202 26.2137805,21.7520681 C27.9697561,22.3907543 29.3478049,22.9957421 30.344878,23.5645985 C31.3447561,24.133455 32.1403659,24.9212895 32.7381707,25.9216545 C33.3326829,26.9253041 33.6313415,28.0962287 33.6313415,29.4372263 C33.6308537,31.4963504 33.0154878,33.2119221 31.7868293,34.5833333 L31.7868293,34.5833333 Z"></path>
                        </g>
                    </g>
                </g>
            </g>
        </g>
    </g>
</svg>