<?xml version="1.0" encoding="UTF-8" standalone="no"?>
<svg width="192px" height="152px" viewBox="0 0 192 152" version="1.1" xmlns="http://www.w3.org/2000/svg" xmlns:xlink="http://www.w3.org/1999/xlink" xmlns:sketch="http://www.bohemiancoding.com/sketch/ns">
    <!-- Generator: Sketch 3.4.3 (16618) - http://www.bohemiancoding.com/sketch -->
    <title>Group</title>
    <desc>Created with Sketch.</desc>
    <defs>
        <linearGradient x1="91.4062108%" y1="-32.8762273%" x2="16.3354027%" y2="123.196752%" id="linearGradient-1">
            <stop stop-color="#FFFFFF" offset="0%"></stop>
            <stop stop-color="#D5DCE9" offset="100%"></stop>
        </linearGradient>
        <path d="M70.6991081,22.7371511 L70.6991081,12.8321163 L73.6664118,13.3884111 L73.6664118,7.683589 L37.4451004,0.0858710141 L0.247160657,7.82919637 L0.247160657,13.5788208 L4.57276355,12.7761135 L4.57276355,90.5939198 L37.2991674,94.5626541 L43.1477118,93.7599468 L43.1477118,76.4065349 L52.2965865,75.8801082 L52.2965865,92.6510906 L57.9842304,91.967856 L57.9842304,75.4432861 L66.1976373,74.9616617 L66.1976373,90.9896732 L70.6991081,90.4483125 L93.764001,87.707907 L93.764001,30.6708861 L96.0465423,30.9621008 L96.0465423,26.4856076 L70.6991081,22.7371511 Z M29.5684619,27.3443177 L35.2112034,26.6722837 L35.2112034,31.3839889 L29.5684619,31.9514843 L29.5684619,27.3443177 Z M6.97130287,30.0585884 L11.7197372,29.4873595 L11.7197372,33.8033114 L6.97130287,34.2700017 L6.97130287,30.0585884 Z M11.7197372,70.6307758 L6.97130287,70.4403662 L6.97130287,66.2102854 L11.7197372,66.3260245 L11.7197372,70.6307758 Z M11.7197372,63.1786652 L6.97130287,63.1189288 L6.97130287,58.888848 L11.7197372,58.8589798 L11.7197372,63.1786652 Z M11.7646396,55.872162 L7.01620532,55.9430989 L7.01620532,51.698084 L11.7646396,51.5524766 L11.7646396,55.872162 Z M11.7646396,48.6515297 L7.01620532,48.8568735 L7.01620532,44.6267926 L11.7646396,44.3355779 L11.7646396,48.6515297 Z M11.7646396,41.0687459 L7.01620532,41.419697 L7.01620532,37.174682 L11.7646396,36.752794 L11.7646396,41.0687459 Z M11.8095421,26.5864127 L7.04239842,27.1987103 L7.04239842,22.9686295 L11.8095421,22.2853949 L11.8095421,26.5864127 Z M11.8095421,19.6009923 L7.04239842,20.3439633 L7.04239842,16.1138825 L11.8095421,15.2962411 L11.8095421,19.6009923 Z M14.2642095,29.0804056 L19.3082516,28.483042 L19.3082516,32.914733 L14.2642095,33.4262256 L14.2642095,29.0804056 Z M19.2932841,70.8211855 L14.2642095,70.6307758 L14.2642095,66.2700217 L19.2932841,66.3857609 L19.2932841,70.8211855 Z M19.2932841,63.148797 L14.2642095,63.0890607 L14.2642095,58.7432407 L19.2932841,58.7133725 L19.2932841,63.148797 Z M19.3381866,55.622016 L14.3091119,55.7116205 L14.3091119,51.3508664 L19.3381866,51.1903249 L19.3381866,55.622016 Z M19.3381866,48.1997735 L14.3091119,48.4200514 L14.3091119,44.0704978 L19.3381866,43.764349 L19.3381866,48.1997735 Z M19.3381866,40.3967118 L14.3091119,40.762597 L14.3091119,36.416777 L19.3381866,35.9650208 L19.3381866,40.3967118 Z M19.3793471,25.4924906 L14.3540144,26.1495905 L14.3540144,21.7888364 L19.3793471,21.0570661 L19.3793471,25.4924906 Z M19.3793471,18.3017266 L14.3540144,19.0894998 L14.3540144,14.7436798 L19.3793471,13.8700355 L19.3793471,18.3017266 Z M21.6319535,28.2478301 L26.9528941,27.6355324 L26.9528941,32.1866962 L21.6319535,32.7243234 L21.6319535,28.2478301 Z M26.9528941,71.1833371 L21.6319535,70.9667928 L21.6319535,66.486566 L26.9528941,66.6209728 L26.9528941,71.1833371 Z M26.9528941,63.2794703 L21.6319535,63.219734 L21.6319535,58.7432407 L26.9528941,58.7133725 L26.9528941,63.2794703 Z M27.0090221,55.551079 L21.676856,55.6369501 L21.676856,51.1604568 L27.0090221,50.9849812 L27.0090221,55.551079 Z M27.0090221,47.9085588 L21.676856,48.1400372 L21.676856,43.6635439 L27.0090221,43.342461 L27.0090221,47.9085588 Z M27.0090221,39.8852193 L21.676856,40.2660385 L21.676856,35.7895452 L27.0090221,35.322855 L27.0090221,39.8852193 Z M27.0539246,24.55911 L21.7180165,25.2460781 L21.7180165,20.7658513 L27.0539246,19.9930122 L27.0539246,24.55911 Z M27.0539246,17.1630022 L21.7180165,17.9806436 L21.7180165,13.5190844 L27.0539246,12.6006379 L27.0539246,17.1630022 Z M35.2112034,71.5342882 L29.5684619,71.2990763 L29.5684619,66.7068438 L35.2112034,66.8375171 L35.2112034,71.5342882 Z M35.2112034,63.4101436 L29.5684619,63.3392067 L29.5684619,58.7283066 L35.2112034,58.7133725 L35.2112034,63.4101436 Z M35.2673315,55.4316063 L29.6133644,55.5212109 L29.6133644,50.9140443 L35.2673315,50.7385687 L35.2673315,55.4316063 Z M35.2673315,47.5725418 L29.6133644,47.8189543 L29.6133644,43.2117877 L35.2673315,42.8608366 L35.2673315,47.5725418 Z M35.2673315,39.3027898 L29.6133644,39.7134772 L29.6133644,35.1025771 L35.2673315,34.5910846 L35.2673315,39.3027898 Z M35.3122339,23.5249243 L29.6694924,24.2380271 L29.6694924,19.6308605 L35.3122339,18.8132191 L35.3122339,23.5249243 Z M35.3122339,15.8973382 L29.6694924,16.7709824 L29.6694924,12.1638158 L35.3122339,11.2005671 L35.3122339,15.8973382 Z M63.5221995,22.0053807 L68.2294732,22.6774148 L68.2294732,27.1240399 L63.5221995,26.5117422 L63.5221995,22.0053807 Z M63.5221995,36.7378599 L68.2294732,37.1597479 L68.2294732,41.5802384 L63.5221995,41.2442214 L63.5221995,36.7378599 Z M56.3003884,20.8405218 L61.2845606,21.5685586 L61.2845606,26.1197224 L56.3003884,25.4775565 L56.3003884,20.8405218 Z M56.3003884,35.9799549 L61.2845606,36.4317111 L61.2845606,40.9791413 L56.3003884,40.6169896 L56.3003884,35.9799549 Z M48.8166464,19.7465997 L54.0814589,20.5045047 L54.0814589,25.1863418 L48.8166464,24.5143078 L48.8166464,19.7465997 Z M48.8166464,35.3079209 L54.0814589,35.7746112 L54.0814589,40.4564482 L48.8166464,40.0756289 L48.8166464,35.3079209 Z M40.3562761,18.4473339 L45.9241801,19.2649753 L45.9241801,24.0774856 L40.3562761,23.3643829 L40.3562761,18.4473339 Z M46.0252106,27.2285785 L46.0252106,32.0410888 L40.4423391,31.484794 L40.4423391,26.5714786 L46.0252106,27.2285785 Z M40.3562761,34.4753454 L45.9241801,34.9868379 L45.9241801,39.7993483 L40.3562761,39.4035949 L40.3562761,34.4753454 Z M45.8942452,71.4334831 L40.3113736,71.6500274 L40.3113736,66.736712 L45.8942452,66.6060387 L45.8942452,71.4334831 Z M45.9690826,63.5258828 L40.3974366,63.6005532 L40.3974366,58.6872378 L45.9690826,58.7133725 L45.9690826,63.5258828 Z M45.9840501,55.4614745 L40.3974366,55.3606694 L40.3974366,50.447354 L45.9840501,50.6340301 L45.9840501,55.4614745 Z M46.0701131,47.7928196 L40.502209,47.5426736 L40.502209,42.6293582 L46.0701131,42.9653752 L46.0701131,47.7928196 Z M46.129983,16.4349654 L40.5471115,15.5762552 L40.5471115,10.6592063 L46.129983,11.6224551 L46.129983,16.4349654 Z M53.9504934,71.1273343 L48.6856809,71.3438786 L48.6856809,66.5761705 L53.9504934,66.4454973 L53.9504934,71.1273343 Z M54.0365565,63.484814 L48.7754858,63.555751 L48.7754858,58.7731088 L54.0365565,58.802977 L54.0365565,63.484814 Z M54.0365565,55.6369501 L48.7754858,55.5660131 L48.7754858,50.7796375 L54.0365565,50.9700471 L54.0365565,55.6369501 Z M54.1226195,48.1139025 L48.8765163,47.8786906 L48.8765163,43.0960485 L54.1226195,43.4320655 L54.1226195,48.1139025 Z M54.167522,32.914733 L48.9214188,32.3920399 L48.9214188,27.6205983 L54.167522,28.2478301 L54.167522,32.914733 Z M54.167522,17.6595607 L48.9214188,16.8456528 L48.9214188,12.0742113 L54.167522,12.9777237 L54.167522,17.6595607 Z M60.9926947,70.8473201 L56.0085225,71.0526638 L56.0085225,66.400695 L60.9926947,66.2849558 L60.9926947,70.8473201 Z M61.2434,63.3952095 L56.2592279,63.46988 L56.2592279,58.8179111 L61.2434,58.8477793 L61.2434,63.3952095 Z M61.2434,55.7676233 L56.2592279,55.6966864 L56.2592279,51.0447176 L61.2434,51.2201931 L61.2434,55.7676233 Z M61.3294631,48.4312519 L56.3452909,48.2147076 L56.3452909,43.5776729 L61.3294631,43.8838217 L61.3294631,48.4312519 Z M61.3743655,33.657704 L56.3901933,33.1499449 L56.3901933,28.5129102 L61.3743655,29.0953397 L61.3743655,33.657704 Z M61.3743655,18.798285 L56.3901933,18.0254459 L56.3901933,13.3884111 L61.3743655,14.2471213 L61.3743655,18.798285 Z M68.1546358,70.6009076 L63.4361365,70.7913173 L63.4361365,66.2849558 L68.1546358,66.1654831 L68.1546358,70.6009076 Z M68.1845708,63.4101436 L63.477297,63.46988 L63.477297,58.9485844 L68.1845708,58.9635185 L68.1845708,63.4101436 Z M68.1845708,55.9729671 L63.477297,55.8982966 L63.477297,51.3919351 L68.1845708,51.5375425 L68.1845708,55.9729671 Z M68.2743757,48.8419394 L63.5671019,48.6365957 L63.5671019,44.1153001 L68.2743757,44.4065148 L68.2743757,48.8419394 Z M68.3155363,34.4454772 L63.6120044,33.9787869 L63.6120044,29.4574913 L68.3155363,30.0137862 L68.3155363,34.4454772 Z M68.3155363,19.9930122 L63.6120044,19.2500412 L63.6120044,14.7436798 L68.3155363,15.5613212 L68.3155363,19.9930122 Z M87.2007593,38.8809018 L91.1184982,39.2729216 L91.1184982,43.3125928 L87.2007593,42.9915099 L87.2007593,38.8809018 Z M81.3559567,38.2835382 L85.4607892,38.6904921 L85.4607892,42.8309684 L81.3559567,42.4986849 L81.3559567,38.2835382 Z M74.8525849,30.6111497 L79.1781878,31.1637111 L79.1781878,35.4236601 L74.8525849,34.9420357 L74.8525849,30.6111497 Z M74.7777475,37.581636 L79.1033504,38.003524 L79.1033504,42.263473 L74.7777475,41.9125219 L74.7777475,37.581636 Z M79.0734154,70.1342173 L74.7478125,70.2798247 L74.7478125,65.9489388 L79.0734154,65.8892024 L79.0734154,70.1342173 Z M79.1332854,63.1786652 L74.8076825,63.1935993 L74.8076825,58.8589798 L79.1332854,58.9336503 L79.1332854,63.1786652 Z M79.1332854,56.0588381 L74.8076825,55.9430989 L74.8076825,51.6271471 L79.1332854,51.8175567 L79.1332854,56.0588381 Z M79.2081228,49.3086297 L74.8937455,49.0734178 L74.8937455,44.7425318 L79.2081228,45.0486807 L79.2081228,49.3086297 Z M85.3597587,69.9736759 L81.2511844,70.1043492 L81.2511844,65.8892024 L85.3597587,65.8331996 L85.3597587,69.9736759 Z M85.4196287,63.2047999 L81.3260218,63.219734 L81.3260218,59.0045872 L85.4196287,59.0792577 L85.4196287,63.2047999 Z M85.4196287,56.2791159 L81.3260218,56.1633767 L81.3260218,51.9631641 L85.4196287,52.1386396 L85.4196287,56.2791159 Z M85.4907242,49.6147785 L81.4008592,49.3795666 L81.4008592,45.179354 L85.4907242,45.4705687 L85.4907242,49.6147785 Z M85.5356267,36.166631 L81.4270523,35.7148748 L81.4270523,31.5146622 L85.5356267,32.0261547 L85.5356267,36.166631 Z M90.9014697,69.8131344 L86.9837308,69.9288736 L86.9837308,65.8182655 L90.9014697,65.7585292 L90.9014697,69.8131344 Z M91.0735958,63.2047999 L87.1595987,63.219734 L87.1595987,59.1091258 L91.0735958,59.1651287 L91.0735958,63.2047999 Z M91.0735958,56.4247233 L87.1708243,56.3388523 L87.1708243,52.2245106 L91.0735958,52.3850521 L91.0735958,56.4247233 Z M91.1484332,49.9209273 L87.2306942,49.7155836 L87.2306942,45.6049755 L91.1484332,45.8812562 L91.1484332,49.9209273 Z M91.1783682,36.8087968 L87.2755967,36.3719747 L87.2755967,32.2576331 L91.1783682,32.7541916 L91.1783682,36.8087968 Z" id="path-2"></path>
    </defs>
    <g id="Page-1" stroke="none" stroke-width="1" fill="none" fill-rule="evenodd" sketch:type="MSPage">
        <g id="5-Property" sketch:type="MSArtboardGroup" transform="translate(-131.000000, -442.000000)">
            <g id="Group" sketch:type="MSLayerGroup" transform="translate(131.000000, 442.000000)">
                <path d="M109.229305,151.881375 C139.675485,151.881375 165.964358,134.247766 178.257554,108.727197 C183.010552,98.8600129 185.671368,87.8138243 185.671368,76.1519627 C185.671368,34.3277632 151.44709,0.422550355 109.229305,0.422550355 C67.0115193,0.422550355 32.787242,34.3277632 32.787242,76.1519627 C32.787242,117.976162 67.0115193,151.881375 109.229305,151.881375 Z" id="Oval-298" fill="url(#linearGradient-1)" sketch:type="MSShapeGroup"></path>
                <g transform="translate(0.000000, 37.000000)" sketch:type="MSShapeGroup">
                    <rect id="Rectangle-193" fill="#FFFFFF" x="14" y="35" width="56" height="28"></rect>
                    <path d="M13,28 L59.0108683,28 L64,26 L52,4 L17,23 L13,28 Z" id="Path-604" fill="#FFFFFF"></path>
                    <g id="Group-Copy-2">
                        <g id="money146-copy-2" fill="#A6B7C2">
                            <path d="M15.3487714,36.4639077 L66.8767898,36.4639077 L66.8767898,63.4736345 L15.3487714,63.4736345 L15.3487714,36.4639077 Z M10.9599821,67.886831 L71.2655792,67.886831 L71.2655792,32.0472661 L10.9599821,32.0472661 L10.9599821,67.886831 Z" id="Fill-1"></path>
                            <path d="M54.8170409,32.0472661 L60.987384,38.2657045 C60.9462712,38.4965274 60.8537675,38.6963443 60.8537675,38.9375025 C60.8537675,40.9184455 62.4468877,42.5204255 64.4134491,42.5204255 C64.6532736,42.5204255 64.8554115,42.4239622 65.0815318,42.3826208 L71.2655792,48.5872787 L71.2655792,32.0472661 L54.8170409,32.0472661 Z" id="Fill-2"></path>
                            <path d="M62.4845744,49.9756613 C62.4845744,51.9393787 60.8914542,53.5413587 58.9248929,53.5413587 C56.9583315,53.5413587 55.3652113,51.9393787 55.3652113,49.9756613 C55.3652113,47.9947183 56.9583315,46.3961835 58.9248929,46.3961835 C60.8914542,46.3961835 62.4845744,47.9947183 62.4845744,49.9756613 L62.4845744,49.9756613 Z" id="Fill-3"></path>
                            <path d="M51.874051,49.9756613 C51.874051,55.1674545 47.0535774,59.3808341 41.1127806,59.3808341 C35.1719838,59.3808341 30.3515103,55.1674545 30.3515103,49.9756613 C30.3515103,44.7666426 35.1719838,40.553263 41.1127806,40.553263 C47.0535774,40.553263 51.874051,44.7666426 51.874051,49.9756613 L51.874051,49.9756613 Z" id="Fill-4"></path>
                            <path d="M26.8466458,49.9756613 C26.8466458,51.9393787 25.2672298,53.5413587 23.3006684,53.5413587 C21.3341071,53.5413587 19.7409868,51.9393787 19.7409868,49.9756613 C19.7409868,47.9947183 21.3341071,46.3961835 23.3006684,46.3961835 C25.2672298,46.3961835 26.8466458,47.9947183 26.8466458,49.9756613 L26.8466458,49.9756613 Z" id="Fill-5"></path>
                            <path d="M10.9599821,48.5872787 L17.1303253,42.3826208 C17.3564456,42.4239622 17.5722877,42.5204255 17.8121122,42.5204255 C19.7786736,42.5204255 21.3717938,40.9184455 21.3717938,38.9375025 C21.3717938,38.6963443 21.27929,38.4965274 21.2381773,38.2657045 L27.4085204,32.0472661 L10.9599821,32.0472661 L10.9599821,48.5872787 Z" id="Fill-6"></path>
                            <path d="M21.3717938,60.9965945 C21.3717938,59.0190967 19.7786736,57.4171167 17.8121122,57.4171167 C17.5722877,57.4171167 17.3701498,57.5101349 17.1440295,57.5514763 L10.9599821,51.3468184 L10.9599821,67.886831 L27.4085204,67.886831 L21.2381773,61.6821731 C21.27929,61.4547953 21.3717938,61.2377528 21.3717938,60.9965945 L21.3717938,60.9965945 Z" id="Fill-7"></path>
                            <path d="M64.4134491,57.4171167 C62.4468877,57.4171167 60.8537675,59.0190967 60.8537675,60.9965945 C60.8537675,61.2377528 60.9462712,61.4410148 60.987384,61.6683926 L54.8170409,67.886831 L71.2655792,67.886831 L71.2655792,51.3468184 L65.095236,57.5514763 C64.8691157,57.5101349 64.6532736,57.4171167 64.4134491,57.4171167 L64.4134491,57.4171167 Z" id="Fill-8"></path>
                            <path d="M54.8170409,22.0770939 C54.8170409,24.0408113 53.2239206,25.6427913 51.2573593,25.6427913 C49.2907979,25.6427913 47.7113819,24.0408113 47.7113819,22.0770939 C47.7113819,20.0995961 49.2907979,18.4976161 51.2573593,18.4976161 C53.2239206,18.4976161 54.8170409,20.0995961 54.8170409,22.0770939 L54.8170409,22.0770939 Z" id="Fill-9"></path>
                            <path d="M6.85213011,32.0472661 C6.85213011,29.7734881 8.69877917,27.9165693 10.9599821,27.9165693 L13.2074808,27.9165693 L13.3171149,27.5686124 L45.0459033,10.0984179 L47.4681313,10.8115574 C47.5366526,11.0285998 47.5640611,11.2559776 47.6839734,11.4730201 C48.6192892,13.2093596 50.7879884,13.8398163 52.5147251,12.8855185 C52.716863,12.7787199 52.8641838,12.6030188 53.035487,12.4410983 L55.4611411,13.1542377 L60.987384,23.3138914 L60.2781885,25.74959 C60.0623465,25.8184923 59.8362262,25.8460533 59.6203841,25.9528519 C58.8186848,26.3972722 58.2842187,27.1241921 58.0032814,27.9165693 L68.5075968,27.9165693 L61.4156421,14.9043578 L53.5185622,0.39696496 L39.0914023,8.35174294 L0.63039597,29.5185493 L6.85213011,40.9563418 L6.85213011,32.0472661 Z" id="Fill-10"></path>
                            <path d="M31.1429313,22.4250509 C28.7481119,23.7307507 27.0350793,25.7254741 26.068929,27.9165693 L45.8921414,27.9165693 C45.7311163,27.0828507 45.4878657,26.2629126 45.0733118,25.4808708 C42.5859886,20.9195342 36.3471242,19.5587125 31.1429313,22.4250509 L31.1429313,22.4250509 Z" id="Fill-11"></path>
                        </g>
                        <path d="M15.3487714,36.4639077 L66.8767898,36.4639077 L66.8767898,63.4736345 L15.3487714,63.4736345 L15.3487714,36.4639077 Z M10.9599821,67.886831 L71.2655792,67.886831 L71.2655792,32.0472661 L10.9599821,32.0472661 L10.9599821,67.886831 Z" id="Fill-1" fill="#279EEE"></path>
                        <path d="M54.8170409,32.0472661 L60.987384,38.2657045 C60.9462712,38.4965274 60.8537675,38.6963443 60.8537675,38.9375025 C60.8537675,40.9184455 62.4468877,42.5204255 64.4134491,42.5204255 C64.6532736,42.5204255 64.8554115,42.4239622 65.0815318,42.3826208 L71.2655792,48.5872787 L71.2655792,32.0472661 L54.8170409,32.0472661 Z" id="Fill-2" fill="#279EEE"></path>
                        <path d="M62.4845744,49.9756613 C62.4845744,51.9393787 60.8914542,53.5413587 58.9248929,53.5413587 C56.9583315,53.5413587 55.3652113,51.9393787 55.3652113,49.9756613 C55.3652113,47.9947183 56.9583315,46.3961835 58.9248929,46.3961835 C60.8914542,46.3961835 62.4845744,47.9947183 62.4845744,49.9756613 L62.4845744,49.9756613 Z" id="Fill-3" fill="#279EEE"></path>
                        <path d="M51.874051,49.9756613 C51.874051,55.1674545 47.0535774,59.3808341 41.1127806,59.3808341 C35.1719838,59.3808341 30.3515103,55.1674545 30.3515103,49.9756613 C30.3515103,44.7666426 35.1719838,40.553263 41.1127806,40.553263 C47.0535774,40.553263 51.874051,44.7666426 51.874051,49.9756613 L51.874051,49.9756613 Z" id="Fill-4" fill="#279EEE"></path>
                        <path d="M26.8466458,49.9756613 C26.8466458,51.9393787 25.2672298,53.5413587 23.3006684,53.5413587 C21.3341071,53.5413587 19.7409868,51.9393787 19.7409868,49.9756613 C19.7409868,47.9947183 21.3341071,46.3961835 23.3006684,46.3961835 C25.2672298,46.3961835 26.8466458,47.9947183 26.8466458,49.9756613 L26.8466458,49.9756613 Z" id="Fill-5" fill="#279EEE"></path>
                        <path d="M10.9599821,48.5872787 L17.1303253,42.3826208 C17.3564456,42.4239622 17.5722877,42.5204255 17.8121122,42.5204255 C19.7786736,42.5204255 21.3717938,40.9184455 21.3717938,38.9375025 C21.3717938,38.6963443 21.27929,38.4965274 21.2381773,38.2657045 L27.4085204,32.0472661 L10.9599821,32.0472661 L10.9599821,48.5872787 Z" id="Fill-6" fill="#279EEE"></path>
                        <path d="M21.3717938,60.9965945 C21.3717938,59.0190967 19.7786736,57.4171167 17.8121122,57.4171167 C17.5722877,57.4171167 17.3701498,57.5101349 17.1440295,57.5514763 L10.9599821,51.3468184 L10.9599821,67.886831 L27.4085204,67.886831 L21.2381773,61.6821731 C21.27929,61.4547953 21.3717938,61.2377528 21.3717938,60.9965945 L21.3717938,60.9965945 Z" id="Fill-7" fill="#279EEE"></path>
                        <path d="M64.4134491,57.4171167 C62.4468877,57.4171167 60.8537675,59.0190967 60.8537675,60.9965945 C60.8537675,61.2377528 60.9462712,61.4410148 60.987384,61.6683926 L54.8170409,67.886831 L71.2655792,67.886831 L71.2655792,51.3468184 L65.095236,57.5514763 C64.8691157,57.5101349 64.6532736,57.4171167 64.4134491,57.4171167 L64.4134491,57.4171167 Z" id="Fill-8" fill="#279EEE"></path>
                        <path d="M54.8170409,22.0770939 C54.8170409,24.0408113 53.2239206,25.6427913 51.2573593,25.6427913 C49.2907979,25.6427913 47.7113819,24.0408113 47.7113819,22.0770939 C47.7113819,20.0995961 49.2907979,18.4976161 51.2573593,18.4976161 C53.2239206,18.4976161 54.8170409,20.0995961 54.8170409,22.0770939 L54.8170409,22.0770939 Z" id="Fill-9" fill="#1C82C6"></path>
                        <path d="M6.85213011,32.0472661 C6.85213011,29.7734881 8.69877917,27.9165693 10.9599821,27.9165693 L13.2074808,27.9165693 L13.3171149,27.5686124 L45.0459033,10.0984179 L47.4681313,10.8115574 C47.5366526,11.0285998 47.5640611,11.2559776 47.6839734,11.4730201 C48.6192892,13.2093596 50.7879884,13.8398163 52.5147251,12.8855185 C52.716863,12.7787199 52.8641838,12.6030188 53.035487,12.4410983 L55.4611411,13.1542377 L60.987384,23.3138914 L60.2781885,25.74959 C60.0623465,25.8184923 59.8362262,25.8460533 59.6203841,25.9528519 C58.8186848,26.3972722 58.2842187,27.1241921 58.0032814,27.9165693 L68.5075968,27.9165693 L61.4156421,14.9043578 L53.5185622,0.39696496 L39.0914023,8.35174294 L0.63039597,29.5185493 L6.85213011,40.9563418 L6.85213011,32.0472661 Z" id="Fill-10" fill="#1C82C6"></path>
                        <path d="M31.1429313,22.4250509 C28.7481119,23.7307507 27.0350793,25.7254741 26.068929,27.9165693 L45.8921414,27.9165693 C45.7311163,27.0828507 45.4878657,26.2629126 45.0733118,25.4808708 C42.5859886,20.9195342 36.3471242,19.5587125 31.1429313,22.4250509 L31.1429313,22.4250509 Z" id="Fill-11" fill="#1C82C6"></path>
                    </g>
                </g>
                <g id="Rectangle-267-+-Path-1096-Copy" transform="translate(95.000000, 26.000000)">
                    <path d="M5,9 L37,9 L37,76 L5,76 L5,9 Z M37,5 L70,9 L69,72 L38,76 L37,5 Z M73,28 L92,30.7042254 L91.4242424,73.2957746 L73.5757576,76 L73,28 Z" id="Rectangle-267" fill="#FFFFFF" sketch:type="MSShapeGroup"></path>
                    <g id="Path-1096-Copy">
                        <g id="Path-1096">
                            <g>
                                <mask id="mask-3" sketch:name="Mask" fill="white">
                                    <use xlink:href="#path-2"></use>
                                </mask>
                                <use id="Mask" fill="#204581" sketch:type="MSShapeGroup" xlink:href="#path-2"></use>
                                <path d="M80.2903226,7 C80.2903226,7 79.049173,1.74864643 76,7 C75.9523988,7.08197976 37,-7 37,-7 L37,103 L94.7419355,102 L99.9032258,79.5268817 L103,11.0860215 L80.2903226,7 Z" fill="#4D73AE" sketch:type="MSShapeGroup" mask="url(#mask-3)"></path>
                            </g>
                        </g>
                    </g>
                </g>
                <ellipse id="Oval-77-Copy-6" fill="#EB7626" sketch:type="MSShapeGroup" cx="85.5034179" cy="76.6346135" rx="3.00011854" ry="3.01300565"></ellipse>
                <ellipse id="Oval-77-Copy-4" fill="#EB7626" sketch:type="MSShapeGroup" cx="94.0037537" cy="76.6346135" rx="3.00011854" ry="3.01300565"></ellipse>
                <ellipse id="Oval-77-Copy-5" fill="#EB7626" sketch:type="MSShapeGroup" cx="76.9998815" cy="76.6346135" rx="3.00011854" ry="3.01300565"></ellipse>
                <g id="Oval-77-Copy-9-+-Oval-77-Copy-7-+-Oval-77-Copy-8" transform="translate(73.000000, 73.000000)" fill="#F58C23" sketch:type="MSShapeGroup">
                    <ellipse id="Oval-77-Copy-9" cx="12.5034179" cy="3.63461346" rx="3.00011854" ry="3.01300565"></ellipse>
                    <ellipse id="Oval-77-Copy-7" cx="21.0037537" cy="3.63461346" rx="3.00011854" ry="3.01300565"></ellipse>
                    <ellipse id="Oval-77-Copy-8" cx="3.99988146" cy="3.63461346" rx="3.00011854" ry="3.01300565"></ellipse>
                </g>
            </g>
        </g>
    </g>
</svg>