<?xml version="1.0" encoding="UTF-8" standalone="no"?>
<svg width="161px" height="153px" viewBox="0 0 161 153" version="1.1" xmlns="http://www.w3.org/2000/svg" xmlns:xlink="http://www.w3.org/1999/xlink" xmlns:sketch="http://www.bohemiancoding.com/sketch/ns">
    <!-- Generator: Sketch 3.4.3 (16618) - http://www.bohemiancoding.com/sketch -->
    <title>Group</title>
    <desc>Created with Sketch.</desc>
    <defs>
        <linearGradient x1="91.4062108%" y1="-32.8762273%" x2="16.3354027%" y2="123.196752%" id="linearGradient-1">
            <stop stop-color="#FFFFFF" offset="0%"></stop>
            <stop stop-color="#D5DCE9" offset="100%"></stop>
        </linearGradient>
        <path d="M50.6348933,14.8571429 L58.9572849,14.8571429 L58.9572849,103.825575 L36.4198351,103.825575 L36.4198351,83.9535959 L22.8740052,83.9535959 L22.8740052,103.825575 L0.33655544,103.825575 L0.33655544,14.8571429 L8.61855341,14.8571429 L29.6267233,0 L50.6348933,14.8571429 Z" id="path-2"></path>
        <path id="path-4" d="M47.9855989,0.48419207 L37.325678,0.48419207 C35.7686369,0.48419207 34.2912939,1.17491316 33.2843737,2.37268507 L25.7542021,11.335849 L25.7542021,11.0160402 C25.7542021,8.55771599 23.7782353,6.56577969 21.3402924,6.56577969 C18.9024857,6.56577969 16.9265189,8.55771599 16.9265189,11.0160402 L16.9265189,21.5509105 C16.9265189,21.6415779 16.9477717,21.7248271 16.95254,21.8116481 L14.2060225,25.081858 L6.2563803,25.0936722 C3.33275605,25.0979309 0.963476027,27.4934747 0.96878923,30.4416778 C0.974102434,33.3898809 3.34338246,35.7751216 6.26550811,35.7751216 L6.27395474,35.7751216 L16.67312,35.7590487 C18.2266189,35.7574002 19.7006923,35.0657175 20.7059776,33.8701436 L39.7806504,11.1650919 L47.9855989,11.1650919 C50.9115392,11.1650919 53.2817728,8.77339462 53.2817728,5.824642 C53.2817728,2.87492777 50.9109942,0.48419207 47.9855989,0.48419207 L47.9855989,0.48419207 Z"></path>
    </defs>
    <g id="Page-1" stroke="none" stroke-width="1" fill="none" fill-rule="evenodd" sketch:type="MSPage">
        <g id="5-Property" sketch:type="MSArtboardGroup" transform="translate(-434.000000, -441.000000)">
            <g id="Group" sketch:type="MSLayerGroup" transform="translate(422.000000, 441.000000)">
                <ellipse id="Oval-298-Copy" fill="url(#linearGradient-1)" sketch:type="MSShapeGroup" cx="88.9939273" cy="76.4163645" rx="76.4420629" ry="75.7294124"></ellipse>
                <g transform="translate(64.500000, 68.000000) scale(-1, 1) translate(-64.500000, -68.000000) translate(0.000000, 16.000000)">
                    <g id="building78-copy" transform="translate(0.726218, 0.000000)">
                        <g id="Rectangle-270" transform="translate(34.147059, 0.000000)">
                            <mask id="mask-3" sketch:name="Mask" fill="white">
                                <use xlink:href="#path-2"></use>
                            </mask>
                            <use id="Mask" fill="#204581" sketch:type="MSShapeGroup" xlink:href="#path-2"></use>
                            <rect fill="#4D73AE" sketch:type="MSShapeGroup" mask="url(#mask-3)" x="29.0882353" y="-3.42857143" width="31.6176471" height="112"></rect>
                        </g>
                        <path d="M0,103.825575 L20.5182917,103.825575 L20.5182917,86.4534105 L29.2216955,86.4534105 L29.2216955,26.0466612 L0,26.0466612 L0,103.825575 Z" id="Fill-4" fill="#204581" sketch:type="MSShapeGroup"></path>
                    </g>
                    <path d="M13.9117647,33.1428571 L21.2347522,33.1428571 L21.2347522,39.2061926 L13.9117647,39.2061926 L13.9117647,33.1428571 Z M13.9117647,60.5714286 L21.2347522,60.5714286 L21.2347522,66.634764 L13.9117647,66.634764 L13.9117647,60.5714286 Z M13.9117647,69.7142857 L21.2347522,69.7142857 L21.2347522,75.7776212 L13.9117647,75.7776212 L13.9117647,69.7142857 Z M13.9117647,42.2857143 L21.2347522,42.2857143 L21.2347522,48.348888 L13.9117647,48.348888 L13.9117647,42.2857143 Z M13.9117647,51.4285714 L21.2347522,51.4285714 L21.2347522,57.4917451 L13.9117647,57.4917451 L13.9117647,51.4285714 Z" id="Path-Copy-4" fill="#FFFFFF" sketch:type="MSShapeGroup"></path>
                    <path d="M48.0588235,25.1428571 L55.381811,25.1428571 L55.381811,31.2061926 L48.0588235,31.2061926 L48.0588235,25.1428571 Z M60.7058824,25.1428571 L68.0288699,25.1428571 L68.0288699,31.2061926 L60.7058824,31.2061926 L60.7058824,25.1428571 Z M73.3529412,25.1428571 L80.6759287,25.1428571 L80.6759287,31.2061926 L73.3529412,31.2061926 L73.3529412,25.1428571 Z M48.0588235,52.5714286 L55.381811,52.5714286 L55.381811,58.634764 L48.0588235,58.634764 L48.0588235,52.5714286 Z M60.7058824,52.5714286 L68.0288699,52.5714286 L68.0288699,58.634764 L60.7058824,58.634764 L60.7058824,52.5714286 Z M73.3529412,52.5714286 L80.6759287,52.5714286 L80.6759287,58.634764 L73.3529412,58.634764 L73.3529412,52.5714286 Z M48.0588235,61.7142857 L55.381811,61.7142857 L55.381811,67.7776212 L48.0588235,67.7776212 L48.0588235,61.7142857 Z M60.7058824,61.7142857 L68.0288699,61.7142857 L68.0288699,67.7776212 L60.7058824,67.7776212 L60.7058824,61.7142857 Z M73.3529412,61.7142857 L80.6759287,61.7142857 L80.6759287,67.7776212 L73.3529412,67.7776212 L73.3529412,61.7142857 Z M48.0588235,34.2857143 L55.381811,34.2857143 L55.381811,40.348888 L48.0588235,40.348888 L48.0588235,34.2857143 Z M60.7058824,34.2857143 L68.0288699,34.2857143 L68.0288699,40.348888 L60.7058824,40.348888 L60.7058824,34.2857143 Z M73.3529412,34.2857143 L80.6759287,34.2857143 L80.6759287,40.348888 L73.3529412,40.348888 L73.3529412,34.2857143 Z M48.0588235,43.4285714 L55.381811,43.4285714 L55.381811,49.4917451 L48.0588235,49.4917451 L48.0588235,43.4285714 Z M60.7058824,43.4285714 L68.0288699,43.4285714 L68.0288699,49.4917451 L60.7058824,49.4917451 L60.7058824,43.4285714 Z M73.3529412,43.4285714 L80.6759287,43.4285714 L80.6759287,49.4917451 L73.3529412,49.4917451 L73.3529412,43.4285714 Z" id="Path-Copy-11" fill="#FFFFFF" sketch:type="MSShapeGroup"></path>
                </g>
                <g id="purse10-(1)-copy" transform="translate(144.216591, 31.549949) rotate(1.000000) translate(-144.216591, -31.549949) translate(117.385758, 3.466951)" sketch:type="MSShapeGroup">
                    <path d="M17.3184474,23.700433 C18.5498987,23.700433 19.5526319,22.6806571 19.5526319,21.428276 L19.5526319,12.5807631 C19.5526319,8.61938076 22.7170295,5.39978247 26.6066304,5.39978247 C30.4962314,5.39978247 33.6620236,8.61938076 33.6620236,12.5807631 L33.6620236,21.428276 C33.6620236,22.6806571 34.6633622,23.700433 35.8948135,23.700433 C37.1262648,23.700433 38.1289981,22.6806571 38.1289981,21.428276 L38.1289981,12.5807631 C38.1289981,6.12029169 32.959134,0.862560044 26.6066304,0.862560044 C20.2541268,0.862560044 15.0898413,6.12029169 15.0898413,12.5807631 L15.0898413,21.428276 C15.0898413,22.6806571 16.0869961,23.700433 17.3184474,23.700433 L17.3184474,23.700433 Z" id="Fill-1" fill="#1D82C6"></path>
                    <path d="M52.2063134,18.5972988 L40.3576042,18.5972988 L40.3576042,21.428276 C40.3576042,23.9330383 38.3577161,25.9654984 35.8948135,25.9654984 C33.4333055,25.9654984 31.4334175,23.9330383 31.4334175,21.428276 L31.4334175,18.5972988 L21.7854219,18.5972988 L21.7854219,21.428276 C21.7854219,23.9330383 19.78135,25.9654984 17.3240259,25.9654984 C14.8611232,25.9654984 12.8570513,23.9330383 12.8570513,21.428276 L12.8570513,18.5972988 L0.882826098,18.5972988 C0.266403137,18.5972988 -0.114328692,19.090876 0.0321066269,19.6993375 L7.83920105,52.0328979 C8.30779408,53.8497725 10.1933231,55.3234124 12.0398028,55.3234124 L41.0493367,55.3234124 C42.8958164,55.3234124 44.7743723,53.8497725 45.2485438,52.0328979 L53.0556383,19.6993375 C53.1978897,19.090876 52.8213418,18.5972988 52.2063134,18.5972988 L52.2063134,18.5972988 Z" id="Fill-3" fill="#279EEE"></path>
                </g>
                <g id="escalator6" transform="translate(118.893644, 72.000000)">
                    <path d="M21.3402924,8.78581287 C23.7159755,8.78581287 25.6434422,6.84168304 25.6434422,4.44613922 C25.6434422,2.05128227 23.7159755,0.107015061 21.3402924,0.107015061 C18.9647455,0.107015061 17.0371425,2.05128227 17.0371425,4.44613922 C17.0371425,6.84168304 18.9647455,8.78581287 21.3402924,8.78581287 L21.3402924,8.78581287 Z" id="Fill-5" fill="#EB7626" sketch:type="MSShapeGroup"></path>
                    <g id="Path-909" transform="translate(0.000000, 4.000000)">
                        <mask id="mask-5" sketch:name="Mask" fill="white">
                            <use xlink:href="#path-4"></use>
                        </mask>
                        <use id="Mask" fill="#F58C23" sketch:type="MSShapeGroup" xlink:href="#path-4"></use>
                        <path d="M26.1063557,5 L17.1063557,6 L15.1063557,15 L14.1063557,25 L35.1063557,0 L26.1063557,5 Z" fill="#EB7626" sketch:type="MSShapeGroup" mask="url(#mask-5)"></path>
                    </g>
                </g>
            </g>
        </g>
    </g>
</svg>