<?xml version="1.0" encoding="UTF-8" standalone="no"?>
<svg width="192px" height="152px" viewBox="0 0 192 152" version="1.1" xmlns="http://www.w3.org/2000/svg" xmlns:xlink="http://www.w3.org/1999/xlink" xmlns:sketch="http://www.bohemiancoding.com/sketch/ns">
    <!-- Generator: Sketch 3.5.2 (25235) - http://www.bohemiancoding.com/sketch -->
    <title>Group 2</title>
    <desc>Created with Sketch.</desc>
    <defs>
        <linearGradient x1="91.4062108%" y1="-32.8762273%" x2="16.3354027%" y2="123.196752%" id="linearGradient-1">
            <stop stop-color="#FFFFFF" offset="0%"></stop>
            <stop stop-color="#D5DCE9" offset="100%"></stop>
        </linearGradient>
        <path id="path-2" d="M0.0102061856,0.15308094 L66,0.15308094 L66,64.9833681 L0.0102061856,64.9833681 L0.0102061856,0.15308094 Z"></path>
        <path id="path-4" d="M0.031875,34 L17,34 L17,51 L0.031875,51 L0.031875,34 Z"></path>
    </defs>
    <g id="Page-1" stroke="none" stroke-width="1" fill="none" fill-rule="evenodd" sketch:type="MSPage">
        <g id="17-Transition-to-Retirement-Overview-Copy" sketch:type="MSArtboardGroup" transform="translate(-443.000000, -339.000000)">
            <g id="Group-2" sketch:type="MSLayerGroup" transform="translate(443.000000, 339.000000)">
                <ellipse id="Oval-298-Copy" fill="url(#linearGradient-1)" sketch:type="MSShapeGroup" cx="76.4420629" cy="75.7294124" rx="76.4420629" ry="75.7294124"></ellipse>
                <g id="Group-5" transform="translate(47.000000, 38.000000)">
                    <mask id="mask-3" sketch:name="Clip 3" fill="white">
                        <use xlink:href="#path-2"></use>
                    </mask>
                    <g id="Clip-3"></g>
                </g>
                <path d="M108.770046,43.4844386 L102.102856,43.4844386 L102.102856,51.2520235 C102.102856,53.842859 99.9898351,55.2721802 97.3930412,55.2721802 L96.448799,55.2721802 C93.8521753,55.2721802 91.7391546,53.1640078 91.7391546,50.5731723 L91.7391546,43.4844386 L68.7805103,43.4844386 L68.7805103,50.6374935 C68.7805103,53.228329 66.6674897,55.3365013 64.0706959,55.3365013 L63.1266237,55.3365013 C60.5298299,55.3365013 58.4168093,53.228329 58.4168093,50.6374935 L58.4168093,43.4844386 L51.2233196,43.4844386 C48.8944381,43.4844386 47,45.3750392 47,47.6987467 L47,98.6164883 C47,100.940196 48.8944381,102.830117 51.2233196,102.830117 L108.770046,102.830117 C111.098928,102.830117 112.993366,100.940196 112.993366,98.6164883 L112.993366,47.6987467 C112.993366,45.3750392 111.098928,43.4844386 108.770046,43.4844386 L108.770046,43.4844386 Z M108.770046,98.6164883 L51.2233196,98.6164883 L51.2233196,60.1646606 L108.770727,60.1646606 L108.772598,98.6164883 L108.770046,98.6164883 L108.770046,98.6164883 Z" id="Fill-4" fill="#204581" sketch:type="MSShapeGroup"></path>
                <path d="M102.264354,43.4844386 L102.264354,51.2520235 C102.264354,53.842859 100.182668,55.2721802 97.6243831,55.2721802 L96.6941433,55.2721802 C94.1360257,55.2721802 92.0543397,53.1640078 92.0543397,50.5731723 L92.0543397,43.4844386 L80.0051031,43.4844386 L80.0051031,102.830119 L108.832675,102.830117 C111.127021,102.830117 112.993366,100.940196 112.993366,98.6164883 L112.993366,47.6987467 C112.993366,45.3750392 111.127021,43.4844386 108.832675,43.4844386 L102.264354,43.4844386 Z" id="Fill-4" fill="#4D73AE" sketch:type="MSShapeGroup"></path>
                <g id="calendar" transform="translate(51.000000, 38.000000)" sketch:type="MSShapeGroup">
                    <path d="M57.7700464,60.6164883 L0.223319588,60.6164883 L0.223319588,22.1646606 L57.7707268,22.1646606 L57.7725979,60.6164883 L57.7700464,60.6164883 L57.7700464,60.6164883 Z" id="Path" stroke="#FFFFFF" fill="#FFFFFF"></path>
                    <path d="M12.1266237,15.2296867 L13.0706959,15.2296867 C14.5053454,15.2296867 15.6688505,14.0688512 15.6688505,12.6374935 L15.6688505,2.80942559 C15.6688505,1.37806789 14.5053454,0.217402089 13.0706959,0.217402089 L12.1266237,0.217402089 C10.6919742,0.217402089 9.52846907,1.37806789 9.52846907,2.80942559 L9.52846907,12.6374935 C9.52846907,14.0688512 10.6919742,15.2296867 12.1266237,15.2296867 L12.1266237,15.2296867 Z" id="Fill-1" fill="#204581"></path>
                    <path d="M31.1768093,35.062154 L38.7603454,35.062154 C39.0607474,35.062154 39.3045052,34.8194648 39.3045052,34.5192428 L39.3045052,27.9679896 C39.3045052,27.6677676 39.0607474,27.4243995 38.7603454,27.4243995 L31.1768093,27.4243995 C30.8764072,27.4243995 30.6326495,27.6677676 30.6326495,27.9679896 L30.6326495,34.5192428 C30.6326495,34.8194648 30.8764072,35.062154 31.1768093,35.062154 L31.1768093,35.062154 Z" id="Fill-6" fill="#4D73AE"></path>
                    <path d="M43.5531701,35.062154 L51.1367062,35.062154 C51.4369381,35.062154 51.680866,34.8194648 51.680866,34.5192428 L51.680866,27.9679896 C51.680866,27.6677676 51.4369381,27.4243995 51.1367062,27.4243995 L43.5531701,27.4243995 C43.252768,27.4243995 43.0088402,27.6677676 43.0088402,27.9679896 L43.0088402,34.5192428 C43.0088402,34.8194648 43.252768,35.062154 43.5531701,35.062154 L43.5531701,35.062154 Z" id="Fill-7" fill="#4D73AE"></path>
                    <path d="M6.42544845,45.7885117 L14.0089845,45.7885117 C14.3093866,45.7885117 14.5531443,45.5451436 14.5531443,45.2449217 L14.5531443,38.6936684 C14.5531443,38.3934465 14.3093866,38.1507572 14.0089845,38.1507572 L6.42544845,38.1507572 C6.12504639,38.1507572 5.88128866,38.3934465 5.88128866,38.6936684 L5.88128866,45.2449217 C5.88128866,45.5451436 6.12504639,45.7885117 6.42544845,45.7885117 L6.42544845,45.7885117 Z" id="Fill-8" fill="#204581"></path>
                    <path d="M18.8011289,45.7885117 L26.3846649,45.7885117 C26.685067,45.7885117 26.9288247,45.5451436 26.9288247,45.2449217 L26.9288247,38.6936684 C26.9288247,38.3934465 26.685067,38.1507572 26.3846649,38.1507572 L18.8011289,38.1507572 C18.5007268,38.1507572 18.2569691,38.3934465 18.2569691,38.6936684 L18.2569691,45.2449217 C18.2569691,45.5451436 18.5007268,45.7885117 18.8011289,45.7885117 L18.8011289,45.7885117 Z" id="Fill-9" fill="#204581"></path>
                    <path d="M43.5531701,45.7885117 L51.1367062,45.7885117 C51.4369381,45.7885117 51.680866,45.5451436 51.680866,45.2449217 L51.680866,38.6936684 C51.680866,38.3934465 51.4369381,38.1507572 51.1367062,38.1507572 L43.5531701,38.1507572 C43.252768,38.1507572 43.0088402,38.3934465 43.0088402,38.6936684 L43.0088402,45.2449217 C43.0088402,45.5451436 43.252768,45.7885117 43.5531701,45.7885117 L43.5531701,45.7885117 Z" id="Fill-11" fill="#4D73AE"></path>
                    <path d="M31.1774897,45.7885117 L38.7603454,45.7885117 C39.0612577,45.7885117 39.3045052,45.5451436 39.3045052,45.2449217 L39.3045052,38.6936684 C39.3045052,38.3934465 39.0612577,38.1507572 38.7603454,38.1507572 L31.1774897,38.1507572 C30.8764072,38.1507572 30.6326495,38.3934465 30.6326495,38.6936684 L30.6326495,45.2449217 C30.6326495,45.5451436 30.8764072,45.7885117 31.1774897,45.7885117 L31.1774897,45.7885117 Z" id="Fill-10" fill="#4D73AE"></path>
                    <path d="M14.0089845,48.876436 L6.42544845,48.876436 C6.12504639,48.876436 5.88128866,49.1198042 5.88128866,49.419517 L5.88128866,55.9712794 C5.88128866,56.2709922 6.12504639,56.5141906 6.42544845,56.5141906 L14.0089845,56.5141906 C14.3093866,56.5141906 14.5531443,56.2709922 14.5531443,55.9712794 L14.5531443,49.419517 C14.5531443,49.1198042 14.3093866,48.876436 14.0089845,48.876436 L14.0089845,48.876436 Z" id="Fill-12" fill="#204581"></path>
                    <path d="M26.3846649,48.876436 L18.8011289,48.876436 C18.5007268,48.876436 18.2569691,49.1198042 18.2569691,49.419517 L18.2569691,55.9712794 C18.2569691,56.2709922 18.5007268,56.5141906 18.8011289,56.5141906 L26.3846649,56.5141906 C26.6857474,56.5141906 26.9288247,56.2709922 26.9288247,55.9712794 L26.9288247,49.419517 C26.9288247,49.1198042 26.6857474,48.876436 26.3846649,48.876436 L26.3846649,48.876436 Z" id="Fill-13" fill="#204581"></path>
                    <path d="M38.7603454,48.876436 L31.1774897,48.876436 C30.8764072,48.876436 30.6333299,49.1198042 30.6333299,49.419517 L30.6333299,55.9712794 C30.6333299,56.2709922 30.8764072,56.5141906 31.1774897,56.5141906 L38.7603454,56.5141906 C39.0612577,56.5141906 39.3051856,56.2709922 39.3051856,55.9712794 L39.3051856,49.419517 C39.3051856,49.1198042 39.0612577,48.876436 38.7603454,48.876436 L38.7603454,48.876436 Z" id="Fill-14" fill="#4D73AE"></path>
                    <path d="M51.1367062,48.876436 L43.5531701,48.876436 C43.252768,48.876436 43.0088402,49.1198042 43.0088402,49.419517 L43.0088402,55.9712794 C43.0088402,56.2709922 43.252768,56.5141906 43.5531701,56.5141906 L51.1367062,56.5141906 C51.4369381,56.5141906 51.680866,56.2709922 51.680866,55.9712794 L51.680866,49.419517 C51.680866,49.1198042 51.4369381,48.876436 51.1367062,48.876436 L51.1367062,48.876436 Z" id="Fill-15" fill="#4D73AE"></path>
                </g>
                <g id="up-arrow" transform="translate(90.000000, 38.000000)">
                    <path d="M6.44879897,15.1653655 L7.39304124,15.1653655 C8.82769072,15.1653655 9.99051546,14.00453 9.99051546,12.5731723 L9.99051546,2.74442559 C9.99051546,1.31374674 8.82769072,0.15308094 7.39304124,0.15308094 L6.44879897,0.15308094 C5.01363918,0.15308094 3.85081443,1.31374674 3.85081443,2.74442559 L3.85081443,12.5731723 C3.85081443,14.00453 5.01431959,15.1653655 6.44879897,15.1653655 L6.44879897,15.1653655 Z" id="Fill-2" fill="#4D73AE" sketch:type="MSShapeGroup"></path>
                    <mask id="mask-5" sketch:name="Clip 2" fill="white">
                        <use xlink:href="#path-4"></use>
                    </mask>
                    <g id="Clip-2"></g>
                    <path d="M15.8625937,38.1239419 C13.5155312,34.1814874 8.31725,32.8292147 4.252125,35.1051541 C0.187,37.3810934 -1.20753125,42.4239116 1.141125,46.3663662 C3.4860625,50.3083056 8.687,51.6585177 12.752125,49.3825783 C16.81725,47.1066389 18.2096562,42.0658813 15.8625937,38.1239419 L15.8625937,38.1239419 Z M3.21896905,44.9669163 C1.53333245,42.1366131 2.5332702,38.5170064 5.45249714,36.8824497 C8.37124725,35.2474306 12.1058741,36.2175296 13.7896033,39.0478327 C15.4752399,41.8799854 14.4748253,45.4977426 11.5560752,47.1327617 C8.6373251,48.7673184 4.90460564,47.7972194 3.21896905,44.9669163 Z" id="Fill-1" fill="#F58C23" sketch:type="MSShapeGroup" mask="url(#mask-5)"></path>
                </g>
                <g id="Group-Copy" transform="translate(129.500000, 67.426152) rotate(-22.000000) translate(-129.500000, -67.426152) translate(113.000000, 63.926152)" sketch:type="MSShapeGroup">
                    <ellipse id="Oval-77" fill="#FCA63A" cx="12.5034179" cy="3.63461346" rx="3.00011854" ry="3.01300565"></ellipse>
                    <ellipse id="Oval-77-Copy" fill="#FCA63A" cx="21.0037537" cy="3.63461346" rx="3.00011854" ry="3.01300565"></ellipse>
                    <ellipse id="Oval-77-Copy-3" fill="#FCA63A" cx="3.99988146" cy="3.63461346" rx="3.00011854" ry="3.01300565"></ellipse>
                    <ellipse id="Oval-77-Copy-2" fill="#FCA63B" cx="29.5040896" cy="3.63461346" rx="3.00011854" ry="3.01300565"></ellipse>
                </g>
                <g id="Group-Copy-5" transform="translate(137.890343, 22.000000)" sketch:type="MSShapeGroup">
                    <g id="money146-copy-2" fill="#A6B7C2">
                        <path d="M11.6203499,27.3239197 L50.6315243,27.3239197 L50.6315243,47.5634292 L11.6203499,47.5634292 L11.6203499,27.3239197 Z M8.29765607,50.8704205 L53.9542181,50.8704205 L53.9542181,24.0143468 L8.29765607,24.0143468 L8.29765607,50.8704205 Z" id="Fill-1"></path>
                        <path d="M41.5012495,24.0143468 L46.1727339,28.6740808 C46.1416079,28.847046 46.0715746,28.9967771 46.0715746,29.177487 C46.0715746,30.6618898 47.2777046,31.8623199 48.766562,31.8623199 C48.9481299,31.8623199 49.1011658,31.7900359 49.2723584,31.7590571 L53.9542181,36.4084649 L53.9542181,24.0143468 L41.5012495,24.0143468 Z" id="Fill-2"></path>
                        <path d="M47.3062367,37.4488376 C47.3062367,38.9203326 46.1001067,40.1207627 44.6112493,40.1207627 C43.122392,40.1207627 41.916262,38.9203326 41.916262,37.4488376 C41.916262,35.9644348 43.122392,34.7665863 44.6112493,34.7665863 C46.1001067,34.7665863 47.3062367,35.9644348 47.3062367,37.4488376 L47.3062367,37.4488376 Z" id="Fill-3"></path>
                        <path d="M39.2731511,37.4488376 C39.2731511,41.3392637 35.623635,44.496524 31.1259371,44.496524 C26.6282392,44.496524 22.9787231,41.3392637 22.9787231,37.4488376 C22.9787231,33.5455036 26.6282392,30.3882434 31.1259371,30.3882434 C35.623635,30.3882434 39.2731511,33.5455036 39.2731511,37.4488376 L39.2731511,37.4488376 Z" id="Fill-4"></path>
                        <path d="M20.3252369,37.4488376 C20.3252369,38.9203326 19.1294822,40.1207627 17.6406249,40.1207627 C16.1517675,40.1207627 14.9456375,38.9203326 14.9456375,37.4488376 C14.9456375,35.9644348 16.1517675,34.7665863 17.6406249,34.7665863 C19.1294822,34.7665863 20.3252369,35.9644348 20.3252369,37.4488376 L20.3252369,37.4488376 Z" id="Fill-5"></path>
                        <path d="M8.29765607,36.4084649 L12.9691405,31.7590571 C13.1403331,31.7900359 13.3037443,31.8623199 13.4853122,31.8623199 C14.9741696,31.8623199 16.1802996,30.6618898 16.1802996,29.177487 C16.1802996,28.9967771 16.1102663,28.847046 16.0791403,28.6740808 L20.7506247,24.0143468 L8.29765607,24.0143468 L8.29765607,36.4084649 Z" id="Fill-6"></path>
                        <path d="M16.1802996,45.7072803 C16.1802996,44.2254591 14.9741696,43.025029 13.4853122,43.025029 C13.3037443,43.025029 13.1507084,43.0947314 12.9795158,43.1257102 L8.29765607,38.4763025 L8.29765607,50.8704205 L20.7506247,50.8704205 L16.0791403,46.2210128 C16.1102663,46.0506292 16.1802996,45.8879903 16.1802996,45.7072803 L16.1802996,45.7072803 Z" id="Fill-7"></path>
                        <path d="M48.766562,43.025029 C47.2777046,43.025029 46.0715746,44.2254591 46.0715746,45.7072803 C46.0715746,45.8879903 46.1416079,46.0403029 46.1727339,46.2106865 L41.5012495,50.8704205 L53.9542181,50.8704205 L53.9542181,38.4763025 L49.2827337,43.1257102 C49.1115411,43.0947314 48.9481299,43.025029 48.766562,43.025029 L48.766562,43.025029 Z" id="Fill-8"></path>
                        <path d="M41.5012495,16.5432829 C41.5012495,18.0147779 40.2951194,19.215208 38.8062621,19.215208 C37.3174048,19.215208 36.12165,18.0147779 36.12165,16.5432829 C36.12165,15.0614617 37.3174048,13.8610316 38.8062621,13.8610316 C40.2951194,13.8610316 41.5012495,15.0614617 41.5012495,16.5432829 L41.5012495,16.5432829 Z" id="Fill-9"></path>
                        <path d="M5.18765618,24.0143468 C5.18765618,22.3105105 6.58572952,20.9190443 8.29765607,20.9190443 L9.99920729,20.9190443 L10.0822098,20.6583057 L34.1036517,7.56716372 L35.9374882,8.10154873 C35.9893648,8.26418765 36.0101154,8.43457127 36.1008994,8.59721019 C36.8090144,9.89832152 38.4509076,10.3707488 39.758197,9.65565393 C39.9112328,9.57562526 40.0227675,9.44396518 40.1524589,9.32263139 L41.9888891,9.8570164 L46.1727339,17.4700666 L45.6358114,19.2952367 C45.4724003,19.3468681 45.3012076,19.3675206 45.1377965,19.4475493 C44.5308407,19.7805719 44.1262035,20.3252831 43.9135096,20.9190443 L51.8661865,20.9190443 L46.4969624,11.168454 L40.5181886,0.297462324 L29.5955785,6.25830768 L0.477264369,22.1194744 L5.18765618,30.6902871 L5.18765618,24.0143468 Z" id="Fill-10"></path>
                        <path d="M23.5778974,16.8040215 C21.7648115,17.7824366 20.4678975,19.2771657 19.7364379,20.9190443 L34.7443273,20.9190443 C34.6224174,20.2943043 34.4382556,19.6798906 34.1244024,19.0938742 C32.2412832,15.6758754 27.5179222,14.6561552 23.5778974,16.8040215 L23.5778974,16.8040215 Z" id="Fill-11"></path>
                    </g>
                    <path d="M11.6203499,27.3239197 L50.6315243,27.3239197 L50.6315243,47.5634292 L11.6203499,47.5634292 L11.6203499,27.3239197 Z M8.29765607,50.8704205 L53.9542181,50.8704205 L53.9542181,24.0143468 L8.29765607,24.0143468 L8.29765607,50.8704205 Z" id="Fill-1" fill="#279EEE"></path>
                    <path d="M41.5012495,24.0143468 L46.1727339,28.6740808 C46.1416079,28.847046 46.0715746,28.9967771 46.0715746,29.177487 C46.0715746,30.6618898 47.2777046,31.8623199 48.766562,31.8623199 C48.9481299,31.8623199 49.1011658,31.7900359 49.2723584,31.7590571 L53.9542181,36.4084649 L53.9542181,24.0143468 L41.5012495,24.0143468 Z" id="Fill-2" fill="#279EEE"></path>
                    <path d="M47.3062367,37.4488376 C47.3062367,38.9203326 46.1001067,40.1207627 44.6112493,40.1207627 C43.122392,40.1207627 41.916262,38.9203326 41.916262,37.4488376 C41.916262,35.9644348 43.122392,34.7665863 44.6112493,34.7665863 C46.1001067,34.7665863 47.3062367,35.9644348 47.3062367,37.4488376 L47.3062367,37.4488376 Z" id="Fill-3" fill="#279EEE"></path>
                    <path d="M39.2731511,37.4488376 C39.2731511,41.3392637 35.623635,44.496524 31.1259371,44.496524 C26.6282392,44.496524 22.9787231,41.3392637 22.9787231,37.4488376 C22.9787231,33.5455036 26.6282392,30.3882434 31.1259371,30.3882434 C35.623635,30.3882434 39.2731511,33.5455036 39.2731511,37.4488376 L39.2731511,37.4488376 Z" id="Fill-4" fill="#279EEE"></path>
                    <path d="M20.3252369,37.4488376 C20.3252369,38.9203326 19.1294822,40.1207627 17.6406249,40.1207627 C16.1517675,40.1207627 14.9456375,38.9203326 14.9456375,37.4488376 C14.9456375,35.9644348 16.1517675,34.7665863 17.6406249,34.7665863 C19.1294822,34.7665863 20.3252369,35.9644348 20.3252369,37.4488376 L20.3252369,37.4488376 Z" id="Fill-5" fill="#279EEE"></path>
                    <path d="M8.29765607,36.4084649 L12.9691405,31.7590571 C13.1403331,31.7900359 13.3037443,31.8623199 13.4853122,31.8623199 C14.9741696,31.8623199 16.1802996,30.6618898 16.1802996,29.177487 C16.1802996,28.9967771 16.1102663,28.847046 16.0791403,28.6740808 L20.7506247,24.0143468 L8.29765607,24.0143468 L8.29765607,36.4084649 Z" id="Fill-6" fill="#279EEE"></path>
                    <path d="M16.1802996,45.7072803 C16.1802996,44.2254591 14.9741696,43.025029 13.4853122,43.025029 C13.3037443,43.025029 13.1507084,43.0947314 12.9795158,43.1257102 L8.29765607,38.4763025 L8.29765607,50.8704205 L20.7506247,50.8704205 L16.0791403,46.2210128 C16.1102663,46.0506292 16.1802996,45.8879903 16.1802996,45.7072803 L16.1802996,45.7072803 Z" id="Fill-7" fill="#279EEE"></path>
                    <path d="M48.766562,43.025029 C47.2777046,43.025029 46.0715746,44.2254591 46.0715746,45.7072803 C46.0715746,45.8879903 46.1416079,46.0403029 46.1727339,46.2106865 L41.5012495,50.8704205 L53.9542181,50.8704205 L53.9542181,38.4763025 L49.2827337,43.1257102 C49.1115411,43.0947314 48.9481299,43.025029 48.766562,43.025029 L48.766562,43.025029 Z" id="Fill-8" fill="#279EEE"></path>
                    <path d="M41.5012495,16.5432829 C41.5012495,18.0147779 40.2951194,19.215208 38.8062621,19.215208 C37.3174048,19.215208 36.12165,18.0147779 36.12165,16.5432829 C36.12165,15.0614617 37.3174048,13.8610316 38.8062621,13.8610316 C40.2951194,13.8610316 41.5012495,15.0614617 41.5012495,16.5432829 L41.5012495,16.5432829 Z" id="Fill-9" fill="#1C82C6"></path>
                    <path d="M5.18765618,24.0143468 C5.18765618,22.3105105 6.58572952,20.9190443 8.29765607,20.9190443 L9.99920729,20.9190443 L10.0822098,20.6583057 L34.1036517,7.56716372 L35.9374882,8.10154873 C35.9893648,8.26418765 36.0101154,8.43457127 36.1008994,8.59721019 C36.8090144,9.89832152 38.4509076,10.3707488 39.758197,9.65565393 C39.9112328,9.57562526 40.0227675,9.44396518 40.1524589,9.32263139 L41.9888891,9.8570164 L46.1727339,17.4700666 L45.6358114,19.2952367 C45.4724003,19.3468681 45.3012076,19.3675206 45.1377965,19.4475493 C44.5308407,19.7805719 44.1262035,20.3252831 43.9135096,20.9190443 L51.8661865,20.9190443 L46.4969624,11.168454 L40.5181886,0.297462324 L29.5955785,6.25830768 L0.477264369,22.1194744 L5.18765618,30.6902871 L5.18765618,24.0143468 Z" id="Fill-10" fill="#1C82C6"></path>
                    <path d="M23.5778974,16.8040215 C21.7648115,17.7824366 20.4678975,19.2771657 19.7364379,20.9190443 L34.7443273,20.9190443 C34.6224174,20.2943043 34.4382556,19.6798906 34.1244024,19.0938742 C32.2412832,15.6758754 27.5179222,14.6561552 23.5778974,16.8040215 L23.5778974,16.8040215 Z" id="Fill-11" fill="#1C82C6"></path>
                </g>
            </g>
        </g>
    </g>
</svg>