<?xml version="1.0" encoding="UTF-8" standalone="no"?>
<svg width="153px" height="152px" viewBox="0 0 153 152" version="1.1" xmlns="http://www.w3.org/2000/svg" xmlns:xlink="http://www.w3.org/1999/xlink" xmlns:sketch="http://www.bohemiancoding.com/sketch/ns">
    <!-- Generator: Sketch 3.5.2 (25235) - http://www.bohemiancoding.com/sketch -->
    <title>Group</title>
    <desc>Created with Sketch.</desc>
    <defs>
        <linearGradient x1="91.4062108%" y1="-32.8762273%" x2="16.3354027%" y2="123.196752%" id="linearGradient-1">
            <stop stop-color="#FFFFFF" offset="0%"></stop>
            <stop stop-color="#D5DCE9" offset="100%"></stop>
        </linearGradient>
    </defs>
    <g id="Page-1" stroke="none" stroke-width="1" fill="none" fill-rule="evenodd" sketch:type="MSPage">
        <g id="17-Transition-to-Retirement-Overview-Copy" sketch:type="MSArtboardGroup" transform="translate(-172.000000, -340.000000)">
            <g id="Group" sketch:type="MSLayerGroup" transform="translate(172.000000, 340.000000)">
                <path d="M76.4420629,151.458825 C106.888243,151.458825 133.177116,133.825216 145.470312,108.304647 C150.22331,98.4374626 152.884126,87.391274 152.884126,75.7294124 C152.884126,33.9052128 118.659848,0 76.4420629,0 C34.2242773,0 0,33.9052128 0,75.7294124 C0,117.553612 34.2242773,151.458825 76.4420629,151.458825 Z" id="Oval-298" fill="url(#linearGradient-1)" sketch:type="MSShapeGroup"></path>
                <g id="Group-4" transform="translate(18.000000, 5.000000)" sketch:type="MSShapeGroup">
                    <g id="Group-Copy-3">
                        <path d="M92.3509903,37.7514793 C92.2172181,37.6786797 92.0823272,37.6070578 91.9463785,37.5366133 C88.6609003,23.4613098 76.2176771,12.9876834 61.3564767,12.972545 L58.5734471,12.972545 C43.6182375,12.972545 31.1559858,23.4547593 27.9646118,37.565441 C27.8459232,37.6269965 27.7284204,37.6889818 27.6120765,37.7514793 L22.9473684,37.7514793 C26.4607378,21.2427057 40.9445841,8.92307692 58.3583758,8.92307692 L61.5688924,8.92307692 C78.885271,8.94071633 93.3558687,21.2672252 96.9686975,37.7514793 L92.3509903,37.7514793 Z" id="Path" fill="#4D73AE"></path>
                        <g id="Rectangle-193-+-Rectangle-193-Copy-3-+-Group-Copy" transform="translate(68.120250, 43.906556) rotate(-15.000000) translate(-68.120250, -43.906556) translate(35.338295, 10.547976)">
                            <path d="M19.0818861,46.6290126 L45.8527562,18.7676099 L60.6772428,33.1554141 L33.9063727,61.0168169 L19.0818861,46.6290126 L19.0818861,46.6290126 Z" id="Rectangle-193" fill="#FFFFFF"></path>
                            <path d="M15.9391462,48.5089917 L27.619773,10.1113283 L47.3277429,16.1669479 L35.6471161,54.5646113 L15.9391462,48.5089917 L15.9391462,48.5089917 Z" id="Rectangle-193-Copy-3" fill="#FFFFFF"></path>
                            <g id="Group-Copy" transform="translate(32.742234, 33.301341) rotate(-45.000000) translate(-32.742234, -33.301341) translate(8.975317, 10.650453)">
                                <path d="M7.83231397,23.2110916 L43.3941913,23.2110916 L43.3941913,41.9454621 L7.83231397,41.9454621 L7.83231397,23.2110916 Z M4.80340672,45.0065244 L46.4230986,45.0065244 L46.4230986,20.1476397 L4.80340672,20.1476397 L4.80340672,45.0065244 Z" id="Fill-1" fill="#279EEE"></path>
                                <path d="M35.0711988,20.1476397 L39.329639,24.4608462 C39.3012651,24.6209486 39.237424,24.7595447 39.237424,24.9268158 C39.237424,26.300829 40.3369102,27.4119874 41.6941255,27.4119874 C41.8596396,27.4119874 41.9991443,27.345079 42.1552004,27.3164039 L46.4230986,31.620052 L46.4230986,20.1476397 L35.0711988,20.1476397 Z" id="Fill-2" fill="#279EEE"></path>
                                <path d="M40.3629196,32.583056 C40.3629196,33.9451212 39.2634334,35.0562797 37.9062181,35.0562797 C36.5490028,35.0562797 35.4495166,33.9451212 35.4495166,32.583056 C35.4495166,31.2090429 36.5490028,30.100274 37.9062181,30.100274 C39.2634334,30.100274 40.3629196,31.2090429 40.3629196,32.583056 L40.3629196,32.583056 Z" id="Fill-3" fill="#279EEE"></path>
                                <path d="M33.0401048,32.583056 C33.0401048,36.1841653 29.7132723,39.1066315 25.6132526,39.1066315 C21.513233,39.1066315 18.1864005,36.1841653 18.1864005,32.583056 C18.1864005,28.9699989 21.513233,26.0475326 25.6132526,26.0475326 C29.7132723,26.0475326 33.0401048,28.9699989 33.0401048,32.583056 L33.0401048,32.583056 Z" id="Fill-4" fill="#279EEE"></path>
                                <path d="M15.7675307,32.583056 C15.7675307,33.9451212 14.6775025,35.0562797 13.3202872,35.0562797 C11.9630719,35.0562797 10.8635857,33.9451212 10.8635857,32.583056 C10.8635857,31.2090429 11.9630719,30.100274 13.3202872,30.100274 C14.6775025,30.100274 15.7675307,31.2090429 15.7675307,32.583056 L15.7675307,32.583056 Z" id="Fill-5" fill="#279EEE"></path>
                                <path d="M4.80340672,31.620052 L9.06184696,27.3164039 C9.21790307,27.345079 9.36686572,27.4119874 9.53237978,27.4119874 C10.889595,27.4119874 11.9890813,26.300829 11.9890813,24.9268158 C11.9890813,24.7595447 11.9252401,24.6209486 11.8968663,24.4608462 L16.1553065,20.1476397 L4.80340672,20.1476397 L4.80340672,31.620052 Z" id="Fill-6" fill="#279EEE"></path>
                                <path d="M11.9890813,40.2273483 C11.9890813,38.8557247 10.889595,37.7445663 9.53237978,37.7445663 C9.36686572,37.7445663 9.22736102,37.8090851 9.07130491,37.8377602 L4.80340672,33.5341121 L4.80340672,45.0065244 L16.1553065,45.0065244 L11.8968663,40.7028763 C11.9252401,40.5451635 11.9890813,40.3946194 11.9890813,40.2273483 L11.9890813,40.2273483 Z" id="Fill-7" fill="#279EEE"></path>
                                <path d="M41.6941255,37.7445663 C40.3369102,37.7445663 39.237424,38.8557247 39.237424,40.2273483 C39.237424,40.3946194 39.3012651,40.5356051 39.329639,40.693318 L35.0711988,45.0065244 L46.4230986,45.0065244 L46.4230986,33.5341121 L42.1646583,37.8377602 C42.0086022,37.8090851 41.8596396,37.7445663 41.6941255,37.7445663 L41.6941255,37.7445663 Z" id="Fill-8" fill="#279EEE"></path>
                                <path d="M37.3408267,14.9678645 C37.3408267,16.3299297 36.2413405,17.4410882 34.8841252,17.4410882 C33.52691,17.4410882 32.4368817,16.3299297 32.4368817,14.9678645 C32.4368817,13.596241 33.52691,12.4850825 34.8841252,12.4850825 C36.2413405,12.4850825 37.3408267,13.596241 37.3408267,14.9678645 L37.3408267,14.9678645 Z" id="Fill-9" fill="#1C82C6"></path>
                                <path d="M4.29390753,21.9531456 C4.29390753,20.3760175 5.56836577,19.0880295 7.12892688,19.0880295 L8.68003004,19.0880295 L8.75569361,18.8466811 L30.6532033,6.72908002 L32.3248953,7.22372475 C32.372185,7.3742688 32.3911009,7.53198161 32.473858,7.68252566 C33.1193628,8.88687805 34.6160828,9.32417267 35.807784,8.66225677 C35.9472887,8.58817954 36.0489616,8.46631055 36.1671859,8.35399991 L37.8412424,8.84864464 L41.6551591,15.8955399 L41.1657104,17.5849786 C41.0167478,17.6327704 40.8606917,17.6518871 40.711729,17.7259643 C40.1584392,18.0342212 39.7895793,18.5384243 39.5956914,19.0880295 L46.8452071,19.0880295 L41.95072,10.0625554 L36.5005785,-4.12114787e-13 L26.5437257,5.51755887 L-9.59232693e-14,20.199188 L4.29390753,28.1326204 L4.29390753,21.9531456 Z" id="Fill-10" fill="#1C82C6"></path>
                                <path d="M20.755465,14.9130175 C19.1026889,15.8186714 17.9204457,17.2022429 17.2536605,18.7220209 L30.9345795,18.7220209 C30.8234486,18.1437406 30.6555701,17.5750186 30.3694672,17.0325822 C28.65285,13.8687675 24.34712,12.9248803 20.755465,14.9130175 L20.755465,14.9130175 Z" id="Fill-11" fill="#1C82C6"></path>
                            </g>
                        </g>
                        <g id="Rectangle-193-+-Rectangle-193-Copy-3-+-Group-Copy-Copy" transform="translate(45.508909, 46.424067) rotate(-56.000000) translate(-45.508909, -46.424067) translate(12.726954, 13.477321)">
                            <path d="M19.0818861,45.805344 L45.8527562,17.9439413 L60.6772428,32.3317455 L33.9063727,60.1931482 L19.0818861,45.805344 L19.0818861,45.805344 Z" id="Rectangle-193" fill="#FFFFFF"></path>
                            <path d="M15.9391462,47.6853231 L27.619773,9.28765967 L47.3277429,15.3432793 L35.6471161,53.7409427 L15.9391462,47.6853231 L15.9391462,47.6853231 Z" id="Rectangle-193-Copy-3" fill="#FFFFFF"></path>
                            <g id="Group-Copy" transform="translate(32.452480, 32.615614) rotate(-45.000000) translate(-32.452480, -32.615614) translate(8.987501, 10.073104)">
                                <path d="M7.83231397,23.2110916 L43.3941913,23.2110916 L43.3941913,41.9454621 L7.83231397,41.9454621 L7.83231397,23.2110916 Z M4.80340672,45.0065244 L46.4230986,45.0065244 L46.4230986,20.1476397 L4.80340672,20.1476397 L4.80340672,45.0065244 Z" id="Fill-1" fill="#279EEE"></path>
                                <path d="M35.0711988,20.1476397 L39.329639,24.4608462 C39.3012651,24.6209486 39.237424,24.7595447 39.237424,24.9268158 C39.237424,26.300829 40.3369102,27.4119874 41.6941255,27.4119874 C41.8596396,27.4119874 41.9991443,27.345079 42.1552004,27.3164039 L46.4230986,31.620052 L46.4230986,20.1476397 L35.0711988,20.1476397 Z" id="Fill-2" fill="#279EEE"></path>
                                <path d="M40.3629196,32.583056 C40.3629196,33.9451212 39.2634334,35.0562797 37.9062181,35.0562797 C36.5490028,35.0562797 35.4495166,33.9451212 35.4495166,32.583056 C35.4495166,31.2090429 36.5490028,30.100274 37.9062181,30.100274 C39.2634334,30.100274 40.3629196,31.2090429 40.3629196,32.583056 L40.3629196,32.583056 Z" id="Fill-3" fill="#279EEE"></path>
                                <path d="M33.0401048,32.583056 C33.0401048,36.1841653 29.7132723,39.1066315 25.6132526,39.1066315 C21.513233,39.1066315 18.1864005,36.1841653 18.1864005,32.583056 C18.1864005,28.9699989 21.513233,26.0475326 25.6132526,26.0475326 C29.7132723,26.0475326 33.0401048,28.9699989 33.0401048,32.583056 L33.0401048,32.583056 Z" id="Fill-4" fill="#279EEE"></path>
                                <path d="M15.7675307,32.583056 C15.7675307,33.9451212 14.6775025,35.0562797 13.3202872,35.0562797 C11.9630719,35.0562797 10.8635857,33.9451212 10.8635857,32.583056 C10.8635857,31.2090429 11.9630719,30.100274 13.3202872,30.100274 C14.6775025,30.100274 15.7675307,31.2090429 15.7675307,32.583056 L15.7675307,32.583056 Z" id="Fill-5" fill="#279EEE"></path>
                                <path d="M4.80340672,31.620052 L9.06184696,27.3164039 C9.21790307,27.345079 9.36686572,27.4119874 9.53237978,27.4119874 C10.889595,27.4119874 11.9890813,26.300829 11.9890813,24.9268158 C11.9890813,24.7595447 11.9252401,24.6209486 11.8968663,24.4608462 L16.1553065,20.1476397 L4.80340672,20.1476397 L4.80340672,31.620052 Z" id="Fill-6" fill="#279EEE"></path>
                                <path d="M11.9890813,40.2273483 C11.9890813,38.8557247 10.889595,37.7445663 9.53237978,37.7445663 C9.36686572,37.7445663 9.22736102,37.8090851 9.07130491,37.8377602 L4.80340672,33.5341121 L4.80340672,45.0065244 L16.1553065,45.0065244 L11.8968663,40.7028763 C11.9252401,40.5451635 11.9890813,40.3946194 11.9890813,40.2273483 L11.9890813,40.2273483 Z" id="Fill-7" fill="#279EEE"></path>
                                <path d="M41.6941255,37.7445663 C40.3369102,37.7445663 39.237424,38.8557247 39.237424,40.2273483 C39.237424,40.3946194 39.3012651,40.5356051 39.329639,40.693318 L35.0711988,45.0065244 L46.4230986,45.0065244 L46.4230986,33.5341121 L42.1646583,37.8377602 C42.0086022,37.8090851 41.8596396,37.7445663 41.6941255,37.7445663 L41.6941255,37.7445663 Z" id="Fill-8" fill="#279EEE"></path>
                                <path d="M37.3408267,14.9678645 C37.3408267,16.3299297 36.2413405,17.4410882 34.8841252,17.4410882 C33.52691,17.4410882 32.4368817,16.3299297 32.4368817,14.9678645 C32.4368817,13.596241 33.52691,12.4850825 34.8841252,12.4850825 C36.2413405,12.4850825 37.3408267,13.596241 37.3408267,14.9678645 L37.3408267,14.9678645 Z" id="Fill-9" fill="#1C82C6"></path>
                                <path d="M4.29390753,21.9531456 C4.29390753,20.3760175 5.56836577,19.0880295 7.12892688,19.0880295 L8.68003004,19.0880295 L8.75569361,18.8466811 L30.6532033,6.72908002 L32.3248953,7.22372475 C32.372185,7.3742688 32.3911009,7.53198161 32.473858,7.68252566 C33.1193628,8.88687805 34.6160828,9.32417267 35.807784,8.66225677 C35.9472887,8.58817954 36.0489616,8.46631055 36.1671859,8.35399991 L37.8412424,8.84864464 L41.6551591,15.8955399 L41.1657104,17.5849786 C41.0167478,17.6327704 40.8606917,17.6518871 40.711729,17.7259643 C40.1584392,18.0342212 39.7895793,18.5384243 39.5956914,19.0880295 L46.8452071,19.0880295 L41.95072,10.0625554 L36.5005785,-1.58095759e-13 L26.5437257,5.51755887 L3.90798505e-14,20.199188 L4.29390753,28.1326204 L4.29390753,21.9531456 Z" id="Fill-10" fill="#1C82C6"></path>
                                <path d="M20.755465,14.9130175 C19.1026889,15.8186714 17.9204457,17.2022429 17.2536605,18.7220209 L30.9345795,18.7220209 C30.8234486,18.1437406 30.6555701,17.5750186 30.3694672,17.0325822 C28.65285,13.8687675 24.34712,12.9248803 20.755465,14.9130175 L20.755465,14.9130175 Z" id="Fill-11" fill="#1C82C6"></path>
                            </g>
                        </g>
                        <g id="pail1-copy" transform="translate(22.947368, 41.869822)" fill="#204581">
                            <path d="M71.1015917,0.400322683 C72.2147957,1.61400684 72.8078471,2.9110306 72.7890844,4.2613112 L64.4604692,64.2416814 C64.4604692,69.5551492 52.0858734,73.883949 36.8312983,73.883949 C21.5757503,73.883949 9.20091128,69.5349786 9.20091128,64.2416814 L0.736578802,4.2613112 C0.736578802,3.21357124 1.11553939,2.19347497 1.82871667,1.2170889 L4.52011412,4.46300102 C4.14189607,4.71926067 3.78869165,4.98015478 3.46162639,5.24524116 C4.29757681,5.97359531 5.36823546,6.6817789 6.5549105,7.29181547 L14.8825528,66.6619032 C15.9532114,67.1346815 17.1598306,67.6266465 18.4632517,67.9803693 L10.251869,8.96474238 C16.9260953,11.4831111 26.3243962,13.057891 36.8113542,13.057891 C51.8129795,13.057891 64.5584872,9.8101842 69.8894041,5.24524116 C69.6189298,5.01842037 69.3303643,4.79516403 69.0243578,4.57567449 L71.1015917,0.400322683 Z" id="Path"></path>
                        </g>
                    </g>
                    <g id="Group-Copy-4" transform="translate(59.268750, 41.869822)" fill="#4D73AE">
                        <path d="M1.20325865e-07,73.4820046 C0.16960441,73.4830842 0.339581048,73.4836264 0.509916819,73.4836264 C15.7644919,73.4836264 28.1390877,69.1548265 28.1390877,63.8413588 L36.4677029,3.86098852 C36.4864656,2.51070792 35.8934142,1.21368416 34.7802102,-1.99423811e-13 L32.7029763,4.17535181 C33.0089829,4.39484134 33.2975483,4.61809769 33.5680227,4.84491847 C28.2371058,9.40986151 15.491598,12.6575683 0.489972701,12.6575683 C0.32638148,12.6575683 0.163055177,12.6571851 2.03920214e-13,12.6564211 L1.20325865e-07,73.4820046 Z" id="Path"></path>
                    </g>
                </g>
                <path d="M127,102.386772 C127,102.895379 126.583264,103.30705 126.068399,103.30705 L121.469242,103.30705 C120.954223,103.30705 120.537642,102.895379 120.537642,102.386772 L120.537642,100.823068 C120.537642,100.377194 120.857802,100.005862 121.284164,99.9213496 L121.284164,98.1610125 C121.284164,97.8464311 121.02518,97.5912075 120.707348,97.5912075 L120.518234,97.5912075 C119.661161,99.1148799 118.044834,100.068747 116.242342,100.068747 C114.439074,100.068747 112.823368,99.1148799 111.966451,97.5912075 L104.892652,97.5912075 C104.378408,97.5912075 103.961051,97.1790767 103.961051,96.6709302 L103.961051,93.6321747 C103.961051,93.1234147 104.378408,92.7118974 104.892652,92.7118974 L112.06225,92.7118974 C112.651798,91.75803 113.555451,91.0451218 114.602259,90.6759373 L114.602259,89.5327995 C114.602259,89.4699139 114.608936,89.4082553 114.621046,89.3488974 L112.120475,89.3488974 C111.606076,89.3488974 111.188875,88.9372267 111.188875,88.4286201 L111.188875,87.1104763 C111.188875,86.6024833 111.606076,86.190199 112.120475,86.190199 L114.602259,86.190199 L114.602259,86.0757779 C114.602259,85.5677848 115.019616,85.1555006 115.53386,85.1555006 L116.950048,85.1555006 C117.464447,85.1555006 117.881649,85.5677848 117.881649,86.0757779 L117.881649,86.190199 L120.363588,86.190199 C120.878452,86.190199 121.295188,86.6024833 121.295188,87.1104763 L121.295188,88.4286201 C121.295188,88.9372267 120.878452,89.3488974 120.363588,89.3488974 L117.862861,89.3488974 C117.874972,89.4082553 117.881649,89.4699139 117.881649,89.5327995 L117.881649,90.6759373 C118.929078,91.0451218 119.832265,91.75803 120.422434,92.7118974 L122.215144,92.7118974 C124.408908,92.7118974 126.193389,94.4745351 126.193389,96.6416347 L126.193389,99.9123002 C126.648787,99.9728851 127,100.356948 127,100.823068 L127,102.386772 Z" id="tap" fill="#4D73AE" sketch:type="MSShapeGroup"></path>
                <g id="Group-Copy-5" transform="translate(135.538949, 127.974349) rotate(-296.000000) translate(-135.538949, -127.974349) translate(121.038949, 114.420001)" sketch:type="MSShapeGroup">
                    <g id="money146-copy-2" fill="#A6B7C2">
                        <path d="M6.18214405,14.5366026 L26.9364848,14.5366026 L26.9364848,25.3042271 L6.18214405,25.3042271 L6.18214405,14.5366026 Z M4.41443724,27.06358 L28.7041916,27.06358 L28.7041916,12.7758762 L4.41443724,12.7758762 L4.41443724,27.06358 Z" id="Fill-1"></path>
                        <path d="M22.0790859,12.7758762 L24.564363,15.254902 C24.5478037,15.3469213 24.5105452,15.4265797 24.5105452,15.5227192 C24.5105452,16.3124366 25.1522187,16.9510776 25.9443059,16.9510776 C26.0409019,16.9510776 26.1223185,16.9126218 26.2133947,16.8961407 L28.7041916,19.3696728 L28.7041916,12.7758762 L22.0790859,12.7758762 Z" id="Fill-2"></path>
                        <path d="M25.167398,19.9231617 C25.167398,20.7060119 24.5257246,21.3446529 23.7336374,21.3446529 C22.9415502,21.3446529 22.2998768,20.7060119 22.2998768,19.9231617 C22.2998768,19.1334443 22.9415502,18.4961767 23.7336374,18.4961767 C24.5257246,18.4961767 25.167398,19.1334443 25.167398,19.9231617 L25.167398,19.9231617 Z" id="Fill-3"></path>
                        <path d="M20.893715,19.9231617 C20.893715,21.9929078 18.9521354,23.6726023 16.5593144,23.6726023 C14.1664935,23.6726023 12.2249139,21.9929078 12.2249139,19.9231617 C12.2249139,17.8465484 14.1664935,16.1668539 16.5593144,16.1668539 C18.9521354,16.1668539 20.893715,17.8465484 20.893715,19.9231617 L20.893715,19.9231617 Z" id="Fill-4"></path>
                        <path d="M10.8132323,19.9231617 C10.8132323,20.7060119 10.1770787,21.3446529 9.38499145,21.3446529 C8.59290424,21.3446529 7.95123081,20.7060119 7.95123081,19.9231617 C7.95123081,19.1334443 8.59290424,18.4961767 9.38499145,18.4961767 C10.1770787,18.4961767 10.8132323,19.1334443 10.8132323,19.9231617 L10.8132323,19.9231617 Z" id="Fill-5"></path>
                        <path d="M4.41443724,19.3696728 L6.89971434,16.8961407 C6.99079057,16.9126218 7.07772697,16.9510776 7.17432297,16.9510776 C7.96641018,16.9510776 8.60808362,16.3124366 8.60808362,15.5227192 C8.60808362,15.4265797 8.57082516,15.3469213 8.55426584,15.254902 L11.0395429,12.7758762 L4.41443724,12.7758762 L4.41443724,19.3696728 Z" id="Fill-6"></path>
                        <path d="M8.60808362,24.316737 C8.60808362,23.5283931 7.96641018,22.8897521 7.17432297,22.8897521 C7.07772697,22.8897521 6.99631034,22.9268345 6.90523412,22.9433155 L4.41443724,20.4697834 L4.41443724,27.06358 L11.0395429,27.06358 L8.55426584,24.5900479 C8.57082516,24.4994021 8.60808362,24.4128765 8.60808362,24.316737 L8.60808362,24.316737 Z" id="Fill-7"></path>
                        <path d="M25.9443059,22.8897521 C25.1522187,22.8897521 24.5105452,23.5283931 24.5105452,24.316737 C24.5105452,24.4128765 24.5478037,24.4939084 24.564363,24.5845542 L22.0790859,27.06358 L28.7041916,27.06358 L28.7041916,20.4697834 L26.2189145,22.9433155 C26.1278383,22.9268345 26.0409019,22.8897521 25.9443059,22.8897521 L25.9443059,22.8897521 Z" id="Fill-8"></path>
                        <path d="M22.0790859,8.80119442 C22.0790859,9.58404467 21.4374125,10.2226857 20.6453253,10.2226857 C19.8532381,10.2226857 19.2170844,9.58404467 19.2170844,8.80119442 C19.2170844,8.01285049 19.8532381,7.37420949 20.6453253,7.37420949 C21.4374125,7.37420949 22.0790859,8.01285049 22.0790859,8.80119442 L22.0790859,8.80119442 Z" id="Fill-9"></path>
                        <path d="M2.75988574,12.7758762 C2.75988574,11.869418 3.50367494,11.1291439 4.41443724,11.1291439 L5.31967976,11.1291439 L5.36383793,10.9904283 L18.1434888,4.0258079 L19.1191084,4.31010614 C19.1467073,4.3966317 19.1577468,4.48727752 19.2060448,4.57380307 C19.5827692,5.2660075 20.4562731,5.51734364 21.1517643,5.13690588 C21.2331809,5.09432982 21.2925185,5.02428532 21.3615156,4.95973451 L22.3385152,5.24403276 L24.564363,9.29425274 L24.2787148,10.2652617 C24.1917784,10.2927302 24.1007022,10.3037175 24.0137658,10.3462936 C23.6908592,10.523465 23.4755881,10.8132569 23.3624328,11.1291439 L27.5933376,11.1291439 L24.7368559,5.94173088 L21.5560876,0.158252975 L15.7451481,3.3294832 L0.253909488,11.7677848 L2.75988574,16.3275442 L2.75988574,12.7758762 Z" id="Fill-10"></path>
                        <path d="M12.5436807,8.93990999 C11.5791006,9.46043674 10.8891292,10.2556478 10.4999853,11.1291439 L18.4843347,11.1291439 C18.4194774,10.7967758 18.3215015,10.4699015 18.1545284,10.1581349 C17.1526899,8.3397248 14.6398139,7.79722331 12.5436807,8.93990999 L12.5436807,8.93990999 Z" id="Fill-11"></path>
                    </g>
                    <path d="M6.18214405,14.5366026 L26.9364848,14.5366026 L26.9364848,25.3042271 L6.18214405,25.3042271 L6.18214405,14.5366026 Z M4.41443724,27.06358 L28.7041916,27.06358 L28.7041916,12.7758762 L4.41443724,12.7758762 L4.41443724,27.06358 Z" id="Fill-1" fill="#279EEE"></path>
                    <path d="M22.0790859,12.7758762 L24.564363,15.254902 C24.5478037,15.3469213 24.5105452,15.4265797 24.5105452,15.5227192 C24.5105452,16.3124366 25.1522187,16.9510776 25.9443059,16.9510776 C26.0409019,16.9510776 26.1223185,16.9126218 26.2133947,16.8961407 L28.7041916,19.3696728 L28.7041916,12.7758762 L22.0790859,12.7758762 Z" id="Fill-2" fill="#279EEE"></path>
                    <path d="M25.167398,19.9231617 C25.167398,20.7060119 24.5257246,21.3446529 23.7336374,21.3446529 C22.9415502,21.3446529 22.2998768,20.7060119 22.2998768,19.9231617 C22.2998768,19.1334443 22.9415502,18.4961767 23.7336374,18.4961767 C24.5257246,18.4961767 25.167398,19.1334443 25.167398,19.9231617 L25.167398,19.9231617 Z" id="Fill-3" fill="#279EEE"></path>
                    <path d="M20.893715,19.9231617 C20.893715,21.9929078 18.9521354,23.6726023 16.5593144,23.6726023 C14.1664935,23.6726023 12.2249139,21.9929078 12.2249139,19.9231617 C12.2249139,17.8465484 14.1664935,16.1668539 16.5593144,16.1668539 C18.9521354,16.1668539 20.893715,17.8465484 20.893715,19.9231617 L20.893715,19.9231617 Z" id="Fill-4" fill="#279EEE"></path>
                    <path d="M10.8132323,19.9231617 C10.8132323,20.7060119 10.1770787,21.3446529 9.38499145,21.3446529 C8.59290424,21.3446529 7.95123081,20.7060119 7.95123081,19.9231617 C7.95123081,19.1334443 8.59290424,18.4961767 9.38499145,18.4961767 C10.1770787,18.4961767 10.8132323,19.1334443 10.8132323,19.9231617 L10.8132323,19.9231617 Z" id="Fill-5" fill="#279EEE"></path>
                    <path d="M4.41443724,19.3696728 L6.89971434,16.8961407 C6.99079057,16.9126218 7.07772697,16.9510776 7.17432297,16.9510776 C7.96641018,16.9510776 8.60808362,16.3124366 8.60808362,15.5227192 C8.60808362,15.4265797 8.57082516,15.3469213 8.55426584,15.254902 L11.0395429,12.7758762 L4.41443724,12.7758762 L4.41443724,19.3696728 Z" id="Fill-6" fill="#279EEE"></path>
                    <path d="M8.60808362,24.316737 C8.60808362,23.5283931 7.96641018,22.8897521 7.17432297,22.8897521 C7.07772697,22.8897521 6.99631034,22.9268345 6.90523412,22.9433155 L4.41443724,20.4697834 L4.41443724,27.06358 L11.0395429,27.06358 L8.55426584,24.5900479 C8.57082516,24.4994021 8.60808362,24.4128765 8.60808362,24.316737 L8.60808362,24.316737 Z" id="Fill-7" fill="#279EEE"></path>
                    <path d="M25.9443059,22.8897521 C25.1522187,22.8897521 24.5105452,23.5283931 24.5105452,24.316737 C24.5105452,24.4128765 24.5478037,24.4939084 24.564363,24.5845542 L22.0790859,27.06358 L28.7041916,27.06358 L28.7041916,20.4697834 L26.2189145,22.9433155 C26.1278383,22.9268345 26.0409019,22.8897521 25.9443059,22.8897521 L25.9443059,22.8897521 Z" id="Fill-8" fill="#279EEE"></path>
                    <path d="M22.0790859,8.80119442 C22.0790859,9.58404467 21.4374125,10.2226857 20.6453253,10.2226857 C19.8532381,10.2226857 19.2170844,9.58404467 19.2170844,8.80119442 C19.2170844,8.01285049 19.8532381,7.37420949 20.6453253,7.37420949 C21.4374125,7.37420949 22.0790859,8.01285049 22.0790859,8.80119442 L22.0790859,8.80119442 Z" id="Fill-9" fill="#1C82C6"></path>
                    <path d="M2.75988574,12.7758762 C2.75988574,11.869418 3.50367494,11.1291439 4.41443724,11.1291439 L5.31967976,11.1291439 L5.36383793,10.9904283 L18.1434888,4.0258079 L19.1191084,4.31010614 C19.1467073,4.3966317 19.1577468,4.48727752 19.2060448,4.57380307 C19.5827692,5.2660075 20.4562731,5.51734364 21.1517643,5.13690588 C21.2331809,5.09432982 21.2925185,5.02428532 21.3615156,4.95973451 L22.3385152,5.24403276 L24.564363,9.29425274 L24.2787148,10.2652617 C24.1917784,10.2927302 24.1007022,10.3037175 24.0137658,10.3462936 C23.6908592,10.523465 23.4755881,10.8132569 23.3624328,11.1291439 L27.5933376,11.1291439 L24.7368559,5.94173088 L21.5560876,0.158252975 L15.7451481,3.3294832 L0.253909488,11.7677848 L2.75988574,16.3275442 L2.75988574,12.7758762 Z" id="Fill-10" fill="#1C82C6"></path>
                    <path d="M12.5436807,8.93990999 C11.5791006,9.46043674 10.8891292,10.2556478 10.4999853,11.1291439 L18.4843347,11.1291439 C18.4194774,10.7967758 18.3215015,10.4699015 18.1545284,10.1581349 C17.1526899,8.3397248 14.6398139,7.79722331 12.5436807,8.93990999 L12.5436807,8.93990999 Z" id="Fill-11" fill="#1C82C6"></path>
                </g>
                <g id="Group-Copy-5" transform="translate(121.093683, 112.277677) rotate(-240.000000) translate(-121.093683, -112.277677) translate(113.385907, 105.072582)" sketch:type="MSShapeGroup">
                    <g id="money146-copy-2" fill="#A6B7C2">
                        <path d="M3.28624686,7.72723251 L14.318647,7.72723251 L14.318647,13.4509866 L3.28624686,13.4509866 L3.28624686,7.72723251 Z M2.34658565,14.3862071 L15.2583082,14.3862071 L15.2583082,6.79128191 L2.34658565,6.79128191 L2.34658565,14.3862071 Z" id="Fill-1"></path>
                        <path d="M11.7365959,6.79128191 L13.0576965,8.10905947 C13.048894,8.1579742 13.0290885,8.2003183 13.0290885,8.25142325 C13.0290885,8.67121389 13.3701834,9.01069675 13.7912337,9.01069675 C13.8425813,9.01069675 13.88586,8.99025477 13.9342735,8.98149392 L15.2583082,10.2963512 L15.2583082,6.79128191 L11.7365959,6.79128191 Z" id="Fill-2"></path>
                        <path d="M13.3782523,10.5905697 C13.3782523,11.00671 13.0371574,11.3461928 12.6161071,11.3461928 C12.1950567,11.3461928 11.8539619,11.00671 11.8539619,10.5905697 C11.8539619,10.170779 12.1950567,9.83202625 12.6161071,9.83202625 C13.0371574,9.83202625 13.3782523,10.170779 13.3782523,10.5905697 L13.3782523,10.5905697 Z" id="Fill-3"></path>
                        <path d="M11.1064874,10.5905697 C11.1064874,11.6907862 10.0744005,12.5836626 8.80244693,12.5836626 C7.53049335,12.5836626 6.49840645,11.6907862 6.49840645,10.5905697 C6.49840645,9.48670283 7.53049335,8.5938264 8.80244693,8.5938264 C10.0744005,8.5938264 11.1064874,9.48670283 11.1064874,10.5905697 L11.1064874,10.5905697 Z" id="Fill-4"></path>
                        <path d="M5.74799785,10.5905697 C5.74799785,11.00671 5.40983718,11.3461928 4.9887868,11.3461928 C4.56773642,11.3461928 4.2266416,11.00671 4.2266416,10.5905697 C4.2266416,10.170779 4.56773642,9.83202625 4.9887868,9.83202625 C5.40983718,9.83202625 5.74799785,10.170779 5.74799785,10.5905697 L5.74799785,10.5905697 Z" id="Fill-5"></path>
                        <path d="M2.34658565,10.2963512 L3.66768622,8.98149392 C3.71609968,8.99025477 3.76231253,9.01069675 3.81366013,9.01069675 C4.23471051,9.01069675 4.57580533,8.67121389 4.57580533,8.25142325 C4.57580533,8.2003183 4.55599983,8.1579742 4.54719738,8.10905947 L5.86829796,6.79128191 L2.34658565,6.79128191 L2.34658565,10.2963512 Z" id="Fill-6"></path>
                        <path d="M4.57580533,12.9260658 C4.57580533,12.5070052 4.23471051,12.1675223 3.81366013,12.1675223 C3.76231253,12.1675223 3.71903383,12.1872342 3.67062037,12.1959951 L2.34658565,10.8811378 L2.34658565,14.3862071 L5.86829796,14.3862071 L4.54719738,13.0713498 C4.55599983,13.0231652 4.57580533,12.9771707 4.57580533,12.9260658 L4.57580533,12.9260658 Z" id="Fill-7"></path>
                        <path d="M13.7912337,12.1675223 C13.3701834,12.1675223 13.0290885,12.5070052 13.0290885,12.9260658 C13.0290885,12.9771707 13.048894,13.0202449 13.0576965,13.0684295 L11.7365959,14.3862071 L15.2583082,14.3862071 L15.2583082,10.8811378 L13.9372076,12.1959951 C13.8887942,12.1872342 13.8425813,12.1675223 13.7912337,12.1675223 L13.7912337,12.1675223 Z" id="Fill-8"></path>
                        <path d="M11.7365959,4.67845739 C11.7365959,5.09459767 11.3955011,5.43408053 10.9744507,5.43408053 C10.5534003,5.43408053 10.2152397,5.09459767 10.2152397,4.67845739 C10.2152397,4.25939682 10.5534003,3.91991396 10.9744507,3.91991396 C11.3955011,3.91991396 11.7365959,4.25939682 11.7365959,4.67845739 L11.7365959,4.67845739 Z" id="Fill-9"></path>
                        <path d="M1.46707449,6.79128191 C1.46707449,6.30943526 1.86245106,5.91592717 2.34658565,5.91592717 L2.82778608,5.91592717 L2.85125927,5.84219004 L9.64454769,2.14000166 L10.1631585,2.29112629 C10.1778293,2.33712074 10.1836976,2.38530541 10.2093714,2.43129986 C10.409627,2.79925548 10.8739561,2.93285841 11.2436589,2.73062883 C11.2869376,2.70799664 11.3184797,2.67076304 11.3551565,2.63644972 L11.8745009,2.78757435 L13.0576965,4.94055276 L12.9058543,5.45671272 C12.8596414,5.47131413 12.811228,5.4771547 12.7650151,5.49978689 C12.5933674,5.59396601 12.4789356,5.74801092 12.4187856,5.91592717 L14.6678107,5.91592717 L13.1493886,3.15845025 L11.4585853,0.0841226502 L8.36965996,1.76985583 L0.134970853,6.25541004 L1.46707449,8.67924466 L1.46707449,6.79128191 Z" id="Fill-10"></path>
                        <path d="M6.66785355,4.75219452 C6.15511102,5.02889131 5.7883424,5.45160223 5.58148489,5.91592717 L9.82573139,5.91592717 C9.79125514,5.73925007 9.739174,5.56549325 9.65041599,5.39976721 C9.11786795,4.43315364 7.78209663,4.14477572 6.66785355,4.75219452 L6.66785355,4.75219452 Z" id="Fill-11"></path>
                    </g>
                    <path d="M3.28624686,7.72723251 L14.318647,7.72723251 L14.318647,13.4509866 L3.28624686,13.4509866 L3.28624686,7.72723251 Z M2.34658565,14.3862071 L15.2583082,14.3862071 L15.2583082,6.79128191 L2.34658565,6.79128191 L2.34658565,14.3862071 Z" id="Fill-1" fill="#279EEE"></path>
                    <path d="M11.7365959,6.79128191 L13.0576965,8.10905947 C13.048894,8.1579742 13.0290885,8.2003183 13.0290885,8.25142325 C13.0290885,8.67121389 13.3701834,9.01069675 13.7912337,9.01069675 C13.8425813,9.01069675 13.88586,8.99025477 13.9342735,8.98149392 L15.2583082,10.2963512 L15.2583082,6.79128191 L11.7365959,6.79128191 Z" id="Fill-2" fill="#279EEE"></path>
                    <path d="M13.3782523,10.5905697 C13.3782523,11.00671 13.0371574,11.3461928 12.6161071,11.3461928 C12.1950567,11.3461928 11.8539619,11.00671 11.8539619,10.5905697 C11.8539619,10.170779 12.1950567,9.83202625 12.6161071,9.83202625 C13.0371574,9.83202625 13.3782523,10.170779 13.3782523,10.5905697 L13.3782523,10.5905697 Z" id="Fill-3" fill="#279EEE"></path>
                    <path d="M11.1064874,10.5905697 C11.1064874,11.6907862 10.0744005,12.5836626 8.80244693,12.5836626 C7.53049335,12.5836626 6.49840645,11.6907862 6.49840645,10.5905697 C6.49840645,9.48670283 7.53049335,8.5938264 8.80244693,8.5938264 C10.0744005,8.5938264 11.1064874,9.48670283 11.1064874,10.5905697 L11.1064874,10.5905697 Z" id="Fill-4" fill="#279EEE"></path>
                    <path d="M5.74799785,10.5905697 C5.74799785,11.00671 5.40983718,11.3461928 4.9887868,11.3461928 C4.56773642,11.3461928 4.2266416,11.00671 4.2266416,10.5905697 C4.2266416,10.170779 4.56773642,9.83202625 4.9887868,9.83202625 C5.40983718,9.83202625 5.74799785,10.170779 5.74799785,10.5905697 L5.74799785,10.5905697 Z" id="Fill-5" fill="#279EEE"></path>
                    <path d="M2.34658565,10.2963512 L3.66768622,8.98149392 C3.71609968,8.99025477 3.76231253,9.01069675 3.81366013,9.01069675 C4.23471051,9.01069675 4.57580533,8.67121389 4.57580533,8.25142325 C4.57580533,8.2003183 4.55599983,8.1579742 4.54719738,8.10905947 L5.86829796,6.79128191 L2.34658565,6.79128191 L2.34658565,10.2963512 Z" id="Fill-6" fill="#279EEE"></path>
                    <path d="M4.57580533,12.9260658 C4.57580533,12.5070052 4.23471051,12.1675223 3.81366013,12.1675223 C3.76231253,12.1675223 3.71903383,12.1872342 3.67062037,12.1959951 L2.34658565,10.8811378 L2.34658565,14.3862071 L5.86829796,14.3862071 L4.54719738,13.0713498 C4.55599983,13.0231652 4.57580533,12.9771707 4.57580533,12.9260658 L4.57580533,12.9260658 Z" id="Fill-7" fill="#279EEE"></path>
                    <path d="M13.7912337,12.1675223 C13.3701834,12.1675223 13.0290885,12.5070052 13.0290885,12.9260658 C13.0290885,12.9771707 13.048894,13.0202449 13.0576965,13.0684295 L11.7365959,14.3862071 L15.2583082,14.3862071 L15.2583082,10.8811378 L13.9372076,12.1959951 C13.8887942,12.1872342 13.8425813,12.1675223 13.7912337,12.1675223 L13.7912337,12.1675223 Z" id="Fill-8" fill="#279EEE"></path>
                    <path d="M11.7365959,4.67845739 C11.7365959,5.09459767 11.3955011,5.43408053 10.9744507,5.43408053 C10.5534003,5.43408053 10.2152397,5.09459767 10.2152397,4.67845739 C10.2152397,4.25939682 10.5534003,3.91991396 10.9744507,3.91991396 C11.3955011,3.91991396 11.7365959,4.25939682 11.7365959,4.67845739 L11.7365959,4.67845739 Z" id="Fill-9" fill="#1C82C6"></path>
                    <path d="M1.46707449,6.79128191 C1.46707449,6.30943526 1.86245106,5.91592717 2.34658565,5.91592717 L2.82778608,5.91592717 L2.85125927,5.84219004 L9.64454769,2.14000166 L10.1631585,2.29112629 C10.1778293,2.33712074 10.1836976,2.38530541 10.2093714,2.43129986 C10.409627,2.79925548 10.8739561,2.93285841 11.2436589,2.73062883 C11.2869376,2.70799664 11.3184797,2.67076304 11.3551565,2.63644972 L11.8745009,2.78757435 L13.0576965,4.94055276 L12.9058543,5.45671272 C12.8596414,5.47131413 12.811228,5.4771547 12.7650151,5.49978689 C12.5933674,5.59396601 12.4789356,5.74801092 12.4187856,5.91592717 L14.6678107,5.91592717 L13.1493886,3.15845025 L11.4585853,0.0841226502 L8.36965996,1.76985583 L0.134970853,6.25541004 L1.46707449,8.67924466 L1.46707449,6.79128191 Z" id="Fill-10" fill="#1C82C6"></path>
                    <path d="M6.66785355,4.75219452 C6.15511102,5.02889131 5.7883424,5.45160223 5.58148489,5.91592717 L9.82573139,5.91592717 C9.79125514,5.73925007 9.739174,5.56549325 9.65041599,5.39976721 C9.11786795,4.43315364 7.78209663,4.14477572 6.66785355,4.75219452 L6.66785355,4.75219452 Z" id="Fill-11" fill="#1C82C6"></path>
                </g>
            </g>
        </g>
    </g>
</svg>