<?xml version="1.0" encoding="UTF-8" standalone="no"?>
<svg width="153px" height="152px" viewBox="0 0 153 152" version="1.1" xmlns="http://www.w3.org/2000/svg" xmlns:xlink="http://www.w3.org/1999/xlink" xmlns:sketch="http://www.bohemiancoding.com/sketch/ns">
    <!-- Generator: Sketch 3.5.2 (25235) - http://www.bohemiancoding.com/sketch -->
    <title>Group 3</title>
    <desc>Created with Sketch.</desc>
    <defs>
        <linearGradient x1="91.4062108%" y1="-32.8762273%" x2="16.3354027%" y2="123.196752%" id="linearGradient-1">
            <stop stop-color="#FFFFFF" offset="0%"></stop>
            <stop stop-color="#D5DCE9" offset="100%"></stop>
        </linearGradient>
    </defs>
    <g id="Page-1" stroke="none" stroke-width="1" fill="none" fill-rule="evenodd" sketch:type="MSPage">
        <g id="17-Transition-to-Retirement-Overview-Copy" sketch:type="MSArtboardGroup" transform="translate(-715.000000, -339.000000)">
            <g id="Group-3" sketch:type="MSLayerGroup" transform="translate(715.000000, 339.000000)">
                <ellipse id="Oval-298-Copy-2" fill="url(#linearGradient-1)" sketch:type="MSShapeGroup" cx="76.4420629" cy="75.7294124" rx="76.4420629" ry="75.7294124"></ellipse>
                <path d="M43.12,120.659 L105.928889,120.659 C109.835556,120.659 113.048889,117.438364 113.048889,113.522818 L113.048889,35.1361818 C113.048889,31.2028182 109.835556,28 105.928889,28 L43.12,28 C39.1955556,28 36,31.2028182 36,35.1361818 L36,113.522818 C36,117.438364 39.1955556,120.659 43.12,120.659 L43.12,120.659 Z" id="Path" fill="#204581" sketch:type="MSShapeGroup"></path>
                <path d="M105.928889,120.659 C109.835556,120.659 113.048889,117.438364 113.048889,113.522818 L113.048889,35.1361818 C113.048889,31.2028182 109.835556,28 105.928889,28 L74.5244446,28 L74.5244446,40.5679588 L74.5244446,113.52282 L74.5244446,120.658997 L105.928889,120.659 Z" id="Path" fill="#4D73AE" sketch:type="MSShapeGroup"></path>
                <path d="M94.8888889,45.836 C93.2755556,45.836 92.1466667,46.4106364 91.5022222,47.5420909 C90.8444444,48.6913636 90.5333333,50.2905455 90.5333333,52.3975455 C90.5333333,54.4822727 90.8622222,56.1037273 91.5022222,57.2351818 C92.1466667,58.3621818 93.2755556,58.919 94.8888889,58.919 C96.5022222,58.919 97.6311111,58.3621818 98.2755556,57.2351818 C98.9333333,56.1037273 99.2444444,54.4822727 99.2444444,52.3975455 C99.2444444,50.2905455 98.9155556,48.6735455 98.2755556,47.5420909 C97.6311111,46.4106364 96.5022222,45.836 94.8888889,45.836 L94.8888889,45.836 Z M96.3466667,55.7384545 C96.12,56.5001818 95.6355556,56.9010909 94.9066667,56.9010909 C94.16,56.9010909 93.6755556,56.5001818 93.4311111,55.7384545 C93.1866667,54.9722727 93.0666667,53.8408182 93.0666667,52.3975455 C93.0666667,50.8651818 93.1866667,49.7337273 93.4311111,48.9853636 C93.6755556,48.2548182 94.16,47.8895455 94.9066667,47.8895455 C95.6355556,47.8895455 96.12,48.2548182 96.3466667,48.9853636 C96.5733333,49.7337273 96.6933333,50.8651818 96.6933333,52.3975455 C96.6933333,53.8408182 96.5733333,54.9722727 96.3466667,55.7384545 L96.3466667,55.7384545 Z M61.5022222,105.883273 C61.5022222,106.912273 60.6888889,107.745273 59.6444444,107.745273 L46.4,107.745273 C45.3733333,107.745273 44.5422222,106.912273 44.5422222,105.883273 L44.5422222,101.5 C44.5422222,100.475455 45.3733333,99.638 46.4,99.638 L59.6444444,99.638 C60.6888889,99.638 61.5022222,100.475455 61.5022222,101.5 L61.5022222,105.883273 Z M61.5022222,92.1231818 C61.5022222,93.1477273 60.6888889,93.9851818 59.6444444,93.9851818 L46.4,93.9851818 C45.3733333,93.9851818 44.5422222,93.1477273 44.5422222,92.1231818 L44.5422222,87.7354545 C44.5422222,86.7109091 45.3733333,85.8734545 46.4,85.8734545 L59.6444444,85.8734545 C60.6888889,85.8734545 61.5022222,86.7109091 61.5022222,87.7354545 L61.5022222,92.1231818 Z M61.5022222,78.3408182 C61.5022222,79.3653636 60.6888889,80.2028182 59.6444444,80.2028182 L46.4,80.2028182 C45.3733333,80.2028182 44.5422222,79.3653636 44.5422222,78.3408182 L44.5422222,73.9530909 C44.5422222,72.9285455 45.3733333,72.0910909 46.4,72.0910909 L59.6444444,72.0910909 C60.6888889,72.0910909 61.5022222,72.9285455 61.5022222,73.9530909 L61.5022222,78.3408182 Z M83.1333333,105.883273 C83.1333333,106.912273 82.3022222,107.745273 81.28,107.745273 L68.0133333,107.745273 C67.0088889,107.745273 66.1733333,106.912273 66.1733333,105.883273 L66.1733333,101.5 C66.1733333,100.475455 67.0088889,99.638 68.0133333,99.638 L81.28,99.638 C82.3022222,99.638 83.1333333,100.475455 83.1333333,101.5 L83.1333333,105.883273 Z M83.1333333,92.1231818 C83.1333333,93.1477273 82.3022222,93.9851818 81.28,93.9851818 L68.0133333,93.9851818 C67.0088889,93.9851818 66.1733333,93.1477273 66.1733333,92.1231818 L66.1733333,87.7354545 C66.1733333,86.7109091 67.0088889,85.8734545 68.0133333,85.8734545 L81.28,85.8734545 C82.3022222,85.8734545 83.1333333,86.7109091 83.1333333,87.7354545 L83.1333333,92.1231818 Z M83.1333333,78.3408182 C83.1333333,79.3653636 82.3022222,80.2028182 81.28,80.2028182 L68.0133333,80.2028182 C67.0088889,80.2028182 66.1733333,79.3653636 66.1733333,78.3408182 L66.1733333,73.9530909 C66.1733333,72.9285455 67.0088889,72.0910909 68.0133333,72.0910909 L81.28,72.0910909 C82.3022222,72.0910909 83.1333333,72.9285455 83.1333333,73.9530909 L83.1333333,78.3408182 Z M104.751111,105.883273 C104.751111,106.912273 103.915556,107.745273 102.911111,107.745273 L89.6444444,107.745273 C88.6222222,107.745273 87.7866667,106.912273 87.7866667,105.883273 L87.7866667,101.5 C87.7866667,100.475455 88.6222222,99.638 89.6444444,99.638 L102.911111,99.638 C103.915556,99.638 104.751111,100.475455 104.751111,101.5 L104.751111,105.883273 Z M104.751111,92.1231818 C104.751111,93.1477273 103.915556,93.9851818 102.911111,93.9851818 L89.6444444,93.9851818 C88.6222222,93.9851818 87.7866667,93.1477273 87.7866667,92.1231818 L87.7866667,87.7354545 C87.7866667,86.7109091 88.6222222,85.8734545 89.6444444,85.8734545 L102.911111,85.8734545 C103.915556,85.8734545 104.751111,86.7109091 104.751111,87.7354545 L104.751111,92.1231818 Z M104.751111,78.3408182 C104.751111,79.3653636 103.915556,80.2028182 102.911111,80.2028182 L89.6444444,80.2028182 C88.6222222,80.2028182 87.7866667,79.3653636 87.7866667,78.3408182 L87.7866667,73.9530909 C87.7866667,72.9285455 88.6222222,72.0910909 89.6444444,72.0910909 L102.911111,72.0910909 C103.915556,72.0910909 104.751111,72.9285455 104.751111,73.9530909 L104.751111,78.3408182 Z M44.28,40.8959091 L104.577778,40.8959091 L104.577778,62.8345455 L44.28,62.8345455 L44.28,40.8959091 Z" id="calculator-with-a-zero" fill="#FFFFFF" sketch:type="MSShapeGroup"></path>
            </g>
        </g>
    </g>
</svg>