<?xml version="1.0" encoding="UTF-8" standalone="no"?>
<svg width="97px" height="114px" viewBox="0 0 97 114" version="1.1" xmlns="http://www.w3.org/2000/svg" xmlns:xlink="http://www.w3.org/1999/xlink" xmlns:sketch="http://www.bohemiancoding.com/sketch/ns">
    <!-- Generator: Sketch 3.3.3 (12081) - http://www.bohemiancoding.com/sketch -->
    <title>banking2 + dollar103</title>
    <desc>Created with Sketch.</desc>
    <defs>
        <path id="path-1" d="M0.145388223,1.00764308 L92.0792079,1.00764308 L92.0792079,92.8312328 L0.145388223,92.8312328 L0.145388223,1.00764308 Z"></path>
        <path id="path-3" d="M0.00570731707,0.0379562044 L39,0.0379562044 L39,38.9430657 L0.00570731707,38.9430657 L0.00570731707,0.0379562044 Z"></path>
    </defs>
    <g id="Page-1" stroke="none" stroke-width="1" fill="none" fill-rule="evenodd" sketch:type="MSPage">
        <g id="Cash-Example" sketch:type="MSArtboardGroup" transform="translate(-261.000000, -447.000000)">
            <g id="banking2-+-dollar103" sketch:type="MSLayerGroup" transform="translate(261.000000, 447.000000)">
                <g id="banking2" transform="translate(5.000000, 22.000000)">
                    <mask id="mask-2" sketch:name="Clip 2" fill="white">
                        <use xlink:href="#path-1"></use>
                    </mask>
                    <g id="Clip-2"></g>
                    <path d="M86.9300417,83.5618831 L4.13629495,83.5618831 C1.85612298,83.5618831 0,85.4128533 0,87.696361 C0,89.9726195 1.85612298,91.8211733 4.13629495,91.8211733 L86.9300417,91.8211733 C89.2199062,91.8211733 91.0760292,89.9726195 91.0760292,87.696361 C91.0663366,85.4128533 89.2199062,83.5618831 86.9300417,83.5618831 L86.9300417,83.5618831 Z" id="Fill-1" fill="#505050" sketch:type="MSShapeGroup" mask="url(#mask-2)"></path>
                    <path d="M9.31453882,72.8306051 C7.02225117,72.8306051 5.17824388,74.679159 5.17824388,76.9554174 C5.17824388,79.2389251 7.02225117,81.0898954 9.31453882,81.0898954 L81.7517978,81.0898954 C84.0440855,81.0898954 85.8977853,79.2389251 85.8977853,76.9554174 C85.8977853,74.679159 84.0440855,72.8306051 81.7517978,72.8306051 L80.7195414,72.8306051 L80.7195414,35.6782974 L81.7517978,35.6782974 C82.8979416,35.6782974 83.8260031,34.7528123 83.8260031,33.6098503 C83.8260031,32.4789703 82.8979416,31.5534851 81.7517978,31.5534851 L9.31453882,31.5534851 C8.168395,31.5534851 7.25002606,32.4789703 7.25002606,33.6098503 C7.25002606,34.7528123 8.168395,35.6782974 9.31453882,35.6782974 L10.3467952,35.6782974 L10.3467952,72.8306051 L9.31453882,72.8306051 Z M60.0211047,35.6782974 L72.4396821,35.6782974 L72.4396821,72.8306051 L60.0211047,72.8306051 L60.0211047,35.6782974 Z M39.3275143,35.6782974 L51.7460917,35.6782974 L51.7460917,72.8306051 L39.3275143,72.8306051 L39.3275143,35.6782974 Z M18.6290776,35.6782974 L31.0452319,35.6782974 L31.0452319,72.8306051 L18.6290776,72.8306051 L18.6290776,35.6782974 Z" id="Fill-3" fill="#505050" sketch:type="MSShapeGroup" mask="url(#mask-2)"></path>
                    <path d="M4.13629495,27.8442954 L86.9688119,27.8442954 C89.2586764,27.8442954 91.1147994,25.9933251 91.1147994,23.7098174 C91.1147994,21.8975097 89.9395779,20.3582564 88.3112298,19.8024821 L47.2317874,1.36768821 C46.1534914,0.884406154 44.9225378,0.884406154 43.8442418,1.36768821 L2.44252215,19.9426338 C0.661516415,20.7448821 -0.322277228,22.6804267 0.094502345,24.5773087 C0.501589369,26.4838564 2.18566962,27.8442954 4.13629495,27.8442954 L4.13629495,27.8442954 Z" id="Fill-4" fill="#505050" sketch:type="MSShapeGroup" mask="url(#mask-2)"></path>
                </g>
                <g id="dollar103">
                    <mask id="mask-4" sketch:name="Clip 2" fill="white">
                        <use xlink:href="#path-3"></use>
                    </mask>
                    <g id="Clip-2"></g>
                    <path d="M19.4810707,0.0379562044 C8.7225878,0.0379562044 0,8.73932117 0,19.4716277 C0,30.2034599 8.7225878,38.9052993 19.4810707,38.9052993 C30.2417415,38.9052993 38.9621415,30.2034599 38.9621415,19.4716277 C38.9621415,8.73932117 30.2417415,0.0379562044 19.4810707,0.0379562044 L19.4810707,0.0379562044 Z M24.7937268,26.975 C23.8350878,28.0473577 22.4513488,28.6781898 20.6414634,28.8679708 L20.6414634,31.6176131 L18.3347561,31.6176131 L18.3347561,28.8824891 C15.316822,28.5740949 13.4500537,26.8229854 12.7296,23.6349489 L16.2966732,22.7071095 C16.6274122,24.7116715 17.7213146,25.7128613 19.5783805,25.7128613 C20.4463683,25.7128613 21.0884415,25.4993577 21.497561,25.0701679 C21.9066805,24.6405036 22.1110024,24.1234453 22.1110024,23.5163358 C22.1110024,22.8876861 21.9066805,22.4105766 21.497561,22.0881387 C21.0884415,21.7630438 20.1777439,21.3527372 18.7676561,20.854562 C17.5002512,20.4156934 16.5085098,19.9838467 15.7950951,19.552 C15.0816805,19.1249927 14.5012463,18.5249051 14.0564561,17.7539197 C13.611761,16.9803723 13.3884146,16.0789124 13.3884146,15.0543796 C13.3884146,13.7092117 13.7878317,12.4967956 14.5822902,11.4199781 C15.3766537,10.345438 16.6274122,9.68822628 18.3347561,9.44843796 L18.3347561,7.32564234 L20.6414634,7.32564234 L20.6414634,9.44881752 C23.2194585,9.75721168 24.8888488,11.2113139 25.6472561,13.813781 L22.4703732,15.1136861 C21.8494171,13.3296496 20.8937268,12.4378686 19.595122,12.4378686 C18.9437268,12.4378686 18.4205561,12.636854 18.028178,13.0357737 C17.6332317,13.434219 17.4359488,13.9178759 17.4359488,14.4850365 C17.4359488,15.0640584 17.6261927,15.5076715 18.0066805,15.8183431 C18.3848854,16.1267372 19.2005561,16.5084818 20.4467488,16.9666131 C21.8164098,17.4647883 22.8912878,17.9366788 23.6690049,18.3803869 C24.4489098,18.8240949 25.0694854,19.4386058 25.5357732,20.2188905 C25.9994927,21.0017372 26.2324463,21.9150584 26.2324463,22.9610365 C26.2320659,24.5671533 25.7520805,25.9052993 24.7937268,26.975 L24.7937268,26.975 Z" id="Fill-1" fill="#7EBE32" sketch:type="MSShapeGroup" mask="url(#mask-4)"></path>
                </g>
            </g>
        </g>
    </g>
</svg>