<?xml version="1.0" encoding="UTF-8" standalone="no"?>
<svg width="93px" height="96px" viewBox="0 0 93 96" version="1.1" xmlns="http://www.w3.org/2000/svg" xmlns:xlink="http://www.w3.org/1999/xlink" xmlns:sketch="http://www.bohemiancoding.com/sketch/ns">
    <!-- Generator: Sketch 3.3.3 (12081) - http://www.bohemiancoding.com/sketch -->
    <title>earth77 copy</title>
    <desc>Created with Sketch.</desc>
    <defs></defs>
    <g id="Page-1" stroke="none" stroke-width="1" fill="none" fill-rule="evenodd" sketch:type="MSPage">
        <path d="M82.2314865,34.0820526 L83.0556757,34.6734474 L83.8182432,34.6734474 L83.8182432,33.1780263 L86.2343243,32.9435526 L88.5297297,34.6734474 L92.3014865,34.6734474 L92.5736486,34.4285526 C92.1910811,33.1467632 91.7597297,31.8753947 91.2898649,30.6326842 L88.8327027,30.6743684 L87.5874324,29.2987895 L87.3563514,27.0921316 L86.0931081,27.7825263 L85.4127027,30.492 L83.5871622,28.5172105 L83.5152703,26.6544474 L81.7513514,25.1173421 L81.0991892,24.4556053 L79.0528378,24.4556053 L79.6947297,26.3079474 L82.1621622,27.7017632 L82.5832432,28.1602895 L82.0517568,28.4338421 L82.0825676,29.9006053 L80.8783784,30.4086316 L79.8564865,30.1741579 L79.2145946,29.2597105 L80.8783784,29.3508947 L81.3302703,28.7308421 L77.6381081,26.2063421 L77.3582432,25.1381842 L75.8639189,26.5111579 L74.3387838,26.1959211 L72.0331081,29.2388684 L71.5709459,30.4398947 L70.0971622,30.5727632 L67.9095946,30.5831842 L66.5975676,29.9605263 L66.215,27.3266053 L66.6874324,26.0734737 L68.9135135,25.5758684 L71.3398649,26.0734737 L71.63,24.7109211 L70.6081081,24.4660263 L70.9598649,22.3401316 L73.3964865,21.9519474 L75.1116216,19.5003947 L76.8755405,19.2033947 L78.47,19.4378684 L79.0528378,19.4378684 L78.7318919,17.1400263 L76.7959459,17.9320263 L76.1155405,16.2125526 L74.9909459,16.0510263 L74.7804054,14.8786579 L75.6918919,13.8626053 L77.8691892,12.9976579 L78.4314865,11.979 C70.1074324,4.53055263 59.1952703,0 47.2381081,0 C36.877973,0 27.2906757,3.41028947 19.4878378,9.18094737 L21.8756757,9.16010526 L22.9283784,9.75931579 L24.9336486,10.197 L25.0851351,10.9916053 L28.2740541,11.1140526 L27.8427027,10.0771579 L25.0132432,9.99378947 L25.6756757,9.36331579 L25.4445946,8.59997368 L22.8872973,8.59997368 L25.6756757,6.49492105 L28.3433784,6.49492105 L29.6066216,8.24305263 L31.6837838,8.3655 L32.9367568,7.12539474 L33.8790541,7.60215789 L32.1536486,9.32423684 C32.1536486,9.32423684 29.7581081,9.36331579 29.8787838,9.36331579 C29.9994595,9.36331579 30.0790541,11.0332895 30.0790541,11.0332895 L32.9778378,10.9525263 L33.2885135,10.1579211 L35.2937838,10.0354737 L35.5248649,8.84486842 L34.3514865,8.64165789 L34.7417568,7.56307895 L35.6455405,7.28692105 L38.7831081,7.45105263 L37.0602703,9.03765789 L37.3298649,10.2699474 L39.1348649,10.5539211 L39.0244595,8.32642105 L40.7498649,7.40936842 L43.8078378,7.04463158 L48.2522973,9.03765789 L48.2522973,10.7571316 L49.6567568,11.1140526 L48.9532432,12.4687895 L46.947973,12.4687895 L46.3574324,14.0137105 L41.782027,12.9247105 L45.3843243,10.9811842 L44.0106757,9.801 L40.9116216,10.197 L40.6394595,10.4835789 L40.6291892,10.4835789 L40.5804054,10.5435 L39.6868919,11.4918158 L38.2131081,11.6116579 L38.3337838,12.3567632 L38.8447297,12.5808158 L38.8241892,12.8231053 L37.62,12.9976579 L37.5301351,13.6984737 L36.3875676,13.761 L36.177027,12.3567632 L34.1204054,12.9976579 L29.907027,15.4908947 L30.3794595,17.2494474 L31.5528378,18.0336316 L33.9098649,18.3592895 L33.9098649,21.0765789 L35.0036486,20.9046316 L36.005,18.7761316 L38.5032432,17.9737105 L38.5032432,14.7171316 L39.8974324,13.6489737 L43.2686486,14.4513947 L43.0272973,16.6085526 L43.9285135,16.6085526 L46.4062162,15.3788684 L46.5268919,18.2081842 L48.3318919,19.3154211 L48.2522973,20.9958158 L46.5268919,21.5872105 L46.6475676,22.1447368 L48.7247297,23.1034737 L48.6836486,24.2628158 L48.0828378,24.3123158 C48.0828378,24.2940789 48.0725676,24.2836579 48.0725676,24.2836579 L45.4433784,23.4577895 L45.332973,22.6032632 L46.1058108,22.0639737 L46.1058108,21.2902105 L45.2739189,21.0765789 L45.0736486,21.8008421 L43.6281081,22.0248947 L43.4791892,21.9727895 L43.4791892,22.0535526 L42.9759459,22.1265 L42.5651351,21.2902105 L42.0952703,21.0765789 L41.0708108,21.0765789 L40.5983784,21.4751842 L40.5983784,22.3401316 L41.4816216,22.6345263 L42.3545946,22.7569737 L42.1543243,22.8481579 L41.3609459,23.7443684 L41.0117568,23.2962632 L40.2389189,23.0930526 L38.1514865,25.0860789 L38.4236486,25.3101316 L35.3348649,27.0504474 L32.4258108,30.1142368 L32.2255405,31.4872105 L29.3164865,33.4229211 L27.8709459,34.8975 L28.0327027,37.8492632 L26.0274324,36.9009474 L26.047973,35.1710526 L20.4712162,35.1814737 L17.5827027,36.6586579 L16.3271622,39.0086053 L15.8367568,40.8609474 L16.6481081,42.6611842 L18.9152703,42.9477632 L22.5355405,40.4936053 L22.8462162,41.7154737 L21.7447297,43.8231316 L24.492027,44.2998947 L24.7718919,48.6168158 L28.5436486,49.2681316 L30.9314865,46.4570526 L33.8405405,47.0588684 L34.8624324,48.4943684 L37.6508108,48.3302368 L37.7304054,47.4965526 L39.2658108,48.2494737 L40.9912162,50.9980263 L43.9695946,51.0371053 L45.0736486,52.9910526 L45.2225676,55.3826842 L48.5218919,56.6540526 L52.6864865,56.6957368 L53.9086486,58.7200263 L55.7547297,59.3218421 L55.3927027,60.9996316 L53.3771622,63.6048947 L52.7866216,69.3755526 L50.9610811,70.8423158 L48.2522973,70.7615526 L47.3485135,72.3481579 L48.0212162,75.339 L45.0736486,79.1661316 L44.1313514,80.9168684 L41.3224324,82.2898421 L39.4763514,82.5764211 L39.407027,83.3684211 L40.7010811,83.7461842 L40.5393243,84.6007105 L39.3864865,85.7313947 L40.0874324,86.6354211 L41.4816216,86.6771053 L41.402027,87.7661053 L41.0297297,88.8446842 L40.9116216,89.7200526 L42.9759459,91.4812105 L42.7063514,92.3956579 L39.8974324,92.3461579 L37.0987838,89.8711579 L34.9137838,85.9841053 L35.2244595,82.2299211 L33.5683784,79.9998158 L34.2410811,76.2143684 L33.2577027,75.9303947 L33.2577027,67.7264211 C33.2577027,67.7264211 30.5104054,65.6213684 30.3486486,65.6213684 C30.1997297,65.6213684 28.8954054,65.2540263 28.8954054,65.2540263 L28.6232432,63.7091053 L25.0543243,59.1681316 L25.4060811,57.5294211 L25.5241892,54.8642368 L27.9916216,53.1135 L27.6424324,50.1226579 L24.0298649,49.8465 L21.202973,46.5795 L19.1977027,46.0193684 L17.9036486,45.7770789 L18.0628378,44.5864737 L16.4195946,44.352 L16.4195946,45.0241579 L12.2858108,43.9742368 L10.6322973,41.4002368 L11.3024324,40.1575263 L8.69635135,36.2913158 L8.24445946,33.462 L7.19175676,33.462 L7.54351351,36.2105526 L9.34851351,39.0398684 L9.14567568,40.1497105 L7.61283784,39.9152368 L5.73594595,36.6586579 L5.73594595,32.8627895 L3.77175676,31.9040526 L3.77175676,29.1789474 C1.34283784,34.947 0,41.2882105 0,47.9446579 C0,74.3724474 21.1927027,95.8762895 47.2483784,95.8762895 C62.0118919,95.8762895 75.222027,88.9567105 83.8875676,78.1578947 L82.3316216,78.1578947 L82.3316216,74.9742632 L80.5266216,72.5096842 L80.5266216,68.6747368 L79.152973,67.2809211 L79.0322973,65.6917105 L80.7782432,62.3022632 L77.4583784,56.3700789 L77.8486486,52.3397368 L74.8702703,52.0245 L73.7662162,50.9042368 L71.7712162,50.9042368 L70.7493243,51.8629737 L67.2189189,51.8629737 L67.0982432,52.1886316 L65.1314865,52.1886316 L60.6177027,46.9676842 L60.6587838,42.9060789 L61.4008108,42.6221053 L61.6806757,41.0745789 L60.6177027,41.0745789 L60.1863514,39.4358684 L65.4036486,35.6191579 L65.4036486,32.9018684 L67.9609459,31.4689737 L68.9931081,31.5705789 L71.0985135,31.5705789 L72.7443243,30.6743684 L78.0412162,30.2575263 L78.0412162,33.0034737 L82.2314865,34.0820526 Z M68.9828378,16.9863158 L69.4141892,16.3141579 L70.9598649,15.9885 L71.3501351,17.9007632 L72.182027,19.2555 L72.7237838,19.8963947 L73.7277027,20.2923947 L72.7854054,21.4335 L70.9598649,21.6054474 L69.5862162,21.6054474 L69.7454054,19.9589211 L70.887973,19.7140263 L70.7878378,18.9402632 L69.7248649,18.2576842 L68.9828378,17.7496579 L68.9828378,16.9863158 Z M66.4255405,19.9771579 L67.3678378,18.4426579 L68.6413514,18.1456579 L69.5554054,18.5442632 L69.4655405,19.5707368 L67.5295946,20.9645526 L66.4255405,20.9645526 L66.4255405,19.9771579 Z M40.7601351,25.8702632 L39.7767568,25.9510263 L39.8281081,25.2606316 L40.2697297,24.7005 L40.8602703,25.1772632 L40.7601351,25.8702632 Z M44.2109459,24.6483947 L43.5382432,24.7005 L43.4072973,25.3622368 L42.8860811,25.6878947 L42.0541892,25.7582368 C42.0233784,25.5654474 42.0131081,25.4117368 42.0131081,25.4117368 L41.6921622,25.4117368 L41.6921622,24.7005 L43.0478378,24.7005 L43.3174324,23.9788421 L43.8591892,23.9684211 L44.4702703,24.0882632 L44.2109459,24.6483947 Z" id="earth77-copy" fill="#505050" sketch:type="MSShapeGroup"></path>
    </g>
</svg>