<?xml version="1.0" encoding="UTF-8" standalone="no"?>
<svg width="154px" height="158px" viewBox="0 0 154 158" version="1.1" xmlns="http://www.w3.org/2000/svg" xmlns:xlink="http://www.w3.org/1999/xlink" xmlns:sketch="http://www.bohemiancoding.com/sketch/ns">
    <!-- Generator: Sketch 3.4.3 (16618) - http://www.bohemiancoding.com/sketch -->
    <title>Group</title>
    <desc>Created with Sketch.</desc>
    <defs>
        <linearGradient x1="91.4062108%" y1="-32.8762273%" x2="16.3354027%" y2="123.196752%" id="linearGradient-1">
            <stop stop-color="#FFFFFF" offset="0%"></stop>
            <stop stop-color="#D5DCE9" offset="100%"></stop>
        </linearGradient>
        <path d="M81.2891149,105.488873 L78.406931,105.488873 L78.406931,77.4694283 L81.2891149,77.4694283 C82.8627874,77.4694283 84.1712989,76.1177732 84.1712989,74.4251601 C84.1712989,72.7629897 82.8627874,71.3808919 81.2891149,71.3808919 L2.88218391,71.3808919 C1.28545402,71.3808919 0,72.7629897 0,74.4251601 C0,76.1177732 1.28545402,77.4694283 2.88218391,77.4694283 L5.76436782,77.4694283 L5.76436782,105.488873 L2.88218391,105.488873 C1.28545402,105.488873 0,106.864882 0,108.533141 C0,110.219666 1.28545402,111.577409 2.88218391,111.577409 L81.2891149,111.577409 C82.8627874,111.577409 84.1712989,110.219666 84.1712989,108.533141 C84.1712989,106.864882 82.8627874,105.488873 81.2891149,105.488873 Z M10.9407701,54.7104792 L13.8460115,54.7104792 C13.8460115,54.7591875 13.822954,54.8078958 13.822954,54.8505155 L13.822954,67.9834886 L19.5873218,67.9834886 L19.5873218,54.8505155 C19.5873218,54.8078958 19.5700287,54.7591875 19.5700287,54.7104792 L22.3138678,54.7104792 C22.3138678,54.7591875 22.2908103,54.8078958 22.2908103,54.8505155 L22.2908103,67.9834886 L28.0551782,67.9834886 L28.0551782,54.8505155 C28.0551782,54.8078958 28.0321207,54.7591875 28.0321207,54.7104792 L30.7817241,54.7104792 C30.7817241,54.7591875 30.7586667,54.8078958 30.7586667,54.8505155 L30.7586667,67.9834886 L36.5230345,67.9834886 L36.5230345,54.8505155 C36.5230345,54.8078958 36.499977,54.7591875 36.499977,54.7104792 L39.226523,54.7104792 C39.226523,54.7591875 39.2034655,54.8078958 39.2034655,54.8505155 L39.2034655,67.9834886 L44.9678333,67.9834886 L44.9678333,54.8505155 C44.9678333,54.8078958 44.9447759,54.7591875 44.9447759,54.7104792 L47.6886149,54.7104792 C47.6886149,54.7591875 47.6713218,54.8078958 47.6713218,54.8505155 L47.6713218,67.9834886 L53.4356897,67.9834886 L53.4356897,54.8505155 C53.4356897,54.8078958 53.4126322,54.7591875 53.4126322,54.7104792 L56.1334138,54.7104792 C56.1334138,54.7591875 56.1103563,54.8078958 56.1103563,54.8505155 L56.1103563,67.9834886 L61.8747241,67.9834886 L61.8747241,54.8505155 C61.8747241,54.8078958 61.8516667,54.7591875 61.8516667,54.7104792 L64.6012701,54.7104792 C64.6012701,54.7591875 64.5782126,54.8078958 64.5782126,54.8505155 L64.5782126,67.9834886 L70.3425805,67.9834886 L70.3425805,54.8505155 C70.3425805,54.8078958 70.319523,54.7591875 70.319523,54.7104792 L73.2247644,54.7104792 C74.8214943,54.7104792 76.1069483,53.3527356 76.1069483,51.666211 C76.1069483,50.0040406 74.8214943,48.6219428 73.2247644,48.6219428 L10.9638276,48.6219428 C9.39015517,48.6219428 8.08164368,50.0040406 8.08164368,51.666211 C8.08164368,53.3527356 9.3670977,54.7104792 10.9407701,54.7104792 Z M14.4109195,44.3660559 L69.7603793,44.3660559 C71.0170115,44.3660559 72.0545977,43.2701193 72.0545977,41.9367298 C72.0545977,40.5850747 71.0170115,39.4891382 69.7603793,39.4891382 L69.6220345,39.4891382 C68.5844483,26.1248008 59.0155977,15.3237372 46.702908,13.1379526 L46.702908,9.66748685 L42.6447931,9.66748685 L42.6447931,1.14962442 C42.6447931,0.814754915 42.3969253,0.53468224 42.0856494,0.53468224 C41.7686092,0.53468224 41.4976839,0.814754915 41.4976839,1.14962442 L41.4976839,9.66748685 L37.4683908,9.66748685 L37.4683908,13.1379526 C25.1268793,15.3237372 15.5810862,26.1248008 14.5262069,39.4891382 L14.4109195,39.4891382 C13.1254655,39.4891382 12.1167011,40.5850747 12.1167011,41.9367298 C12.1167011,43.2701193 13.1254655,44.3660559 14.4109195,44.3660559 Z" id="path-2"></path>
        <path id="path-4" d="M0.00731707317,0.0486618005 L50,0.0486618005 L50,49.9270073 L0.00731707317,49.9270073 L0.00731707317,0.0486618005 Z"></path>
        <rect id="path-6" x="0.968937126" y="0" width="28" height="72"></rect>
    </defs>
    <g id="Page-1" stroke="none" stroke-width="1" fill="none" fill-rule="evenodd" sketch:type="MSPage">
        <g id="4-Fixed-Income" sketch:type="MSArtboardGroup" transform="translate(-163.000000, -436.000000)">
            <g id="Group" sketch:type="MSLayerGroup" transform="translate(163.000000, 423.000000)">
                <ellipse id="Oval-298" fill="url(#linearGradient-1)" sketch:type="MSShapeGroup" cx="77.2293048" cy="95.1519627" rx="76.4420629" ry="75.7294124"></ellipse>
                <g transform="translate(35.000000, 33.000000)">
                    <g id="government1-copy">
                        <g id="Rectangle-265">
                            <mask id="mask-3" sketch:name="Mask" fill="white">
                                <use xlink:href="#path-2"></use>
                            </mask>
                            <use id="Mask" fill="#204581" sketch:type="MSShapeGroup" xlink:href="#path-2"></use>
                            <rect fill="#4D73AE" sketch:type="MSShapeGroup" mask="url(#mask-3)" x="42.0114943" y="-5.89473684" width="46.8965517" height="127.719298"></rect>
                        </g>
                    </g>
                    <path d="M65.4597701,76.6315789 L70.3018391,76.6315789 L70.3018391,104.651024 L65.4597701,104.651024 L65.4597701,76.6315789 Z" id="Path-Copy-31" fill="#FFFFFF" sketch:type="MSShapeGroup"></path>
                    <path d="M40.0574713,76.6315789 L44.8995402,76.6315789 L44.8995402,104.651024 L40.0574713,104.651024 L40.0574713,76.6315789 Z" id="Path-Copy-27" fill="#FFFFFF" sketch:type="MSShapeGroup"></path>
                    <path d="M26.3793103,76.6315789 L31.2156149,76.6315789 L31.2156149,104.651024 L26.3793103,104.651024 L26.3793103,76.6315789 Z" id="Path-Copy-28" fill="#FFFFFF" sketch:type="MSShapeGroup"></path>
                    <path d="M52.7586207,76.6315789 L57.6006897,76.6315789 L57.6006897,104.651024 L52.7586207,104.651024 L52.7586207,76.6315789 Z" id="Path-Copy-29" fill="#FFFFFF" sketch:type="MSShapeGroup"></path>
                    <path d="M13.6781609,76.6315789 L18.5202299,76.6315789 L18.5202299,104.651024 L13.6781609,104.651024 L13.6781609,76.6315789 Z" id="Path-Copy-30" fill="#FFFFFF" sketch:type="MSShapeGroup"></path>
                </g>
                <circle id="Oval-303" fill="#FFFFFF" sketch:type="MSShapeGroup" cx="40.5625" cy="38.8813751" r="19"></circle>
                <g id="dollar103" transform="translate(15.562500, 13.881375)">
                    <mask id="mask-5" sketch:name="Clip 2" fill="white">
                        <use xlink:href="#path-4"></use>
                    </mask>
                    <g id="Clip-2"></g>
                    <path d="M24.9757317,0.0486618005 C11.1828049,0.0486618005 0,11.2042579 0,24.9636253 C0,38.7223844 11.1828049,49.8785888 24.9757317,49.8785888 C38.7714634,49.8785888 49.9514634,38.7223844 49.9514634,24.9636253 C49.9514634,11.2042579 38.7714634,0.0486618005 24.9757317,0.0486618005 L24.9757317,0.0486618005 Z M31.7868293,34.5833333 C30.5578049,35.9581509 28.7837805,36.76691 26.4634146,37.010219 L26.4634146,40.5354015 L23.5060976,40.5354015 L23.5060976,37.0288321 C19.6369512,36.633455 17.2436585,34.3884428 16.32,30.3012165 L20.8931707,29.1116788 C21.3171951,31.6816302 22.7196341,32.9652068 25.1004878,32.9652068 C26.2132927,32.9652068 27.0364634,32.6914842 27.5609756,32.1412409 C28.0854878,31.5903893 28.347439,30.9274939 28.347439,30.1491484 C28.347439,29.3431873 28.0854878,28.7315085 27.5609756,28.3181265 C27.0364634,27.9013382 25.8689024,27.3753041 24.0610976,26.736618 C22.4362195,26.1739659 21.1647561,25.6203163 20.250122,25.0666667 C19.3354878,24.5192214 18.5913415,23.7498783 18.0210976,22.7614355 C17.4509756,21.769708 17.1646341,20.6139903 17.1646341,19.3004866 C17.1646341,17.5759124 17.6767073,16.0215328 18.6952439,14.6409976 C19.7136585,13.263382 21.3171951,12.4208029 23.5060976,12.113382 L23.5060976,9.39184915 L26.4634146,9.39184915 L26.4634146,12.1138686 C29.7685366,12.5092457 31.9087805,14.3734793 32.8810976,17.7099757 L28.8081707,19.3765207 C28.0120732,17.0892944 26.7868293,15.9459854 25.1219512,15.9459854 C24.2868293,15.9459854 23.6160976,16.2010949 23.1130488,16.7125304 C22.6067073,17.2233577 22.3537805,17.8434307 22.3537805,18.5705596 C22.3537805,19.3128954 22.5976829,19.8816302 23.0854878,20.279927 C23.5703659,20.6753041 24.6160976,21.1647202 26.2137805,21.7520681 C27.9697561,22.3907543 29.3478049,22.9957421 30.344878,23.5645985 C31.3447561,24.133455 32.1403659,24.9212895 32.7381707,25.9216545 C33.3326829,26.9253041 33.6313415,28.0962287 33.6313415,29.4372263 C33.6308537,31.4963504 33.0154878,33.2119221 31.7868293,34.5833333 L31.7868293,34.5833333 Z" id="Fill-1" fill="#F58C23" sketch:type="MSShapeGroup" mask="url(#mask-5)"></path>
                </g>
                <g id="dollar103-copy-2" transform="translate(11.562500, 0.881375)">
                    <mask id="mask-7" sketch:name="Mask" fill="white">
                        <use xlink:href="#path-6"></use>
                    </mask>
                    <use id="Mask" sketch:type="MSShapeGroup" xlink:href="#path-6"></use>
                    <g id="dollar103-copy" mask="url(#mask-7)" fill="#EB7626" sketch:type="MSShapeGroup">
                        <g transform="translate(3.968937, 13.000000)" id="Fill-1">
                            <path d="M24.9757317,0.0486618005 C11.1828049,0.0486618005 0,11.2042579 0,24.9636253 C0,38.7223844 11.1828049,49.8785888 24.9757317,49.8785888 C38.7714634,49.8785888 49.9514634,38.7223844 49.9514634,24.9636253 C49.9514634,11.2042579 38.7714634,0.0486618005 24.9757317,0.0486618005 L24.9757317,0.0486618005 Z M31.7868293,34.5833333 C30.5578049,35.9581509 28.7837805,36.76691 26.4634146,37.010219 L26.4634146,40.5354015 L23.5060976,40.5354015 L23.5060976,37.0288321 C19.6369512,36.633455 17.2436585,34.3884428 16.32,30.3012165 L20.8931707,29.1116788 C21.3171951,31.6816302 22.7196341,32.9652068 25.1004878,32.9652068 C26.2132927,32.9652068 27.0364634,32.6914842 27.5609756,32.1412409 C28.0854878,31.5903893 28.347439,30.9274939 28.347439,30.1491484 C28.347439,29.3431873 28.0854878,28.7315085 27.5609756,28.3181265 C27.0364634,27.9013382 25.8689024,27.3753041 24.0610976,26.736618 C22.4362195,26.1739659 21.1647561,25.6203163 20.250122,25.0666667 C19.3354878,24.5192214 18.5913415,23.7498783 18.0210976,22.7614355 C17.4509756,21.769708 17.1646341,20.6139903 17.1646341,19.3004866 C17.1646341,17.5759124 17.6767073,16.0215328 18.6952439,14.6409976 C19.7136585,13.263382 21.3171951,12.4208029 23.5060976,12.113382 L23.5060976,9.39184915 L26.4634146,9.39184915 L26.4634146,12.1138686 C29.7685366,12.5092457 31.9087805,14.3734793 32.8810976,17.7099757 L28.8081707,19.3765207 C28.0120732,17.0892944 26.7868293,15.9459854 25.1219512,15.9459854 C24.2868293,15.9459854 23.6160976,16.2010949 23.1130488,16.7125304 C22.6067073,17.2233577 22.3537805,17.8434307 22.3537805,18.5705596 C22.3537805,19.3128954 22.5976829,19.8816302 23.0854878,20.279927 C23.5703659,20.6753041 24.6160976,21.1647202 26.2137805,21.7520681 C27.9697561,22.3907543 29.3478049,22.9957421 30.344878,23.5645985 C31.3447561,24.133455 32.1403659,24.9212895 32.7381707,25.9216545 C33.3326829,26.9253041 33.6313415,28.0962287 33.6313415,29.4372263 C33.6308537,31.4963504 33.0154878,33.2119221 31.7868293,34.5833333 L31.7868293,34.5833333 Z"></path>
                        </g>
                    </g>
                </g>
            </g>
        </g>
    </g>
</svg>