<?xml version="1.0" encoding="UTF-8" standalone="no"?>
<svg width="154px" height="154px" viewBox="0 0 154 154" version="1.1" xmlns="http://www.w3.org/2000/svg" xmlns:xlink="http://www.w3.org/1999/xlink" xmlns:sketch="http://www.bohemiancoding.com/sketch/ns">
    <!-- Generator: Sketch 3.4.3 (16618) - http://www.bohemiancoding.com/sketch -->
    <title>Oval 298 Copy + road24 copy + Group</title>
    <desc>Created with Sketch.</desc>
    <defs>
        <linearGradient x1="91.4062108%" y1="-32.8762273%" x2="16.3354027%" y2="123.196752%" id="linearGradient-1">
            <stop stop-color="#FFFFFF" offset="0%"></stop>
            <stop stop-color="#D5DCE9" offset="100%"></stop>
        </linearGradient>
        <path id="path-2" d="M108.782809,35.719883 L74.1607418,30.7254574 C73.7648316,29.0988511 73.2399422,27.5455213 72.6046914,26.082 L81.6567912,26.082 C82.9957079,26.082 84.0813767,25.0007234 84.0813767,23.668117 C84.0813767,22.3348404 82.9957079,21.2544574 81.6567912,21.2544574 L69.8656208,21.2544574 C66.9013414,17.168617 62.8785348,14.3820957 58.3660558,13.6403936 L58.3660558,2.58188298 C58.3660558,1.2492766 57.280387,0.168 55.9416946,0.168 C54.6036751,0.168 53.5180064,1.2492766 53.5180064,2.58188298 L53.5180064,13.6403936 C49.0064246,14.3820957 44.983618,17.168617 42.0184413,21.2544574 L30.2396081,21.2544574 C28.9006914,21.2544574 27.8150226,22.3348404 27.8150226,23.668117 C27.8150226,25.0007234 28.9006914,26.082 30.2396081,26.082 L39.2793707,26.082 C38.6423254,27.5490957 38.1158658,29.1075638 37.7197313,30.7395319 L3.11448794,35.7189894 C1.85609914,35.9003936 0.951898564,37.0183085 1.04296913,38.2812128 C1.134264,39.5447872 2.19009931,40.5230745 3.46060094,40.5230745 L18.5769683,40.5230745 L18.5769683,42.074617 C15.6497003,43.0799362 13.5371324,45.8445638 13.5371324,49.098 C13.5371324,53.1959043 16.8858822,56.5313298 21.0006566,56.5313298 C25.1163282,56.5313298 28.4641807,53.1959043 28.4641807,49.098 C28.4641807,45.8445638 26.3525101,43.0799362 23.4243448,42.074617 L23.4243448,40.5230745 L36.9415939,40.5230745 C37.8846004,52.9961809 46.0446125,62.7761489 55.9416946,62.7761489 C65.8385524,62.7761489 73.9994617,52.9961809 74.9424682,40.5230745 L86.5111213,40.5230745 L86.5111213,42.074617 C83.5836289,43.0799362 81.4710611,45.8445638 81.4710611,49.098 C81.4710611,53.1959043 84.8191379,56.5313298 88.9345852,56.5313298 C93.0502568,56.5313298 96.3983337,53.1959043 96.3983337,49.098 C96.3983337,45.8445638 94.2866631,43.0799362 91.3582735,42.074617 L91.3582735,40.5230745 L108.434901,40.5230745 C109.7063,40.5230745 110.761238,39.5447872 110.852309,38.281883 C110.944501,37.0192021 110.040973,35.9003936 108.782809,35.719883 L108.782809,35.719883 Z"></path>
    </defs>
    <g id="Page-1" stroke="none" stroke-width="1" fill="none" fill-rule="evenodd" sketch:type="MSPage">
        <g id="4-Fixed-Income" sketch:type="MSArtboardGroup" transform="translate(-434.000000, -441.000000)">
            <g id="Oval-298-Copy-+-road24-copy-+-Group" sketch:type="MSLayerGroup" transform="translate(434.000000, 441.000000)">
                <ellipse id="Oval-298-Copy" fill="url(#linearGradient-1)" sketch:type="MSShapeGroup" cx="76.9939273" cy="76.4163645" rx="76.4420629" ry="75.7294124"></ellipse>
                <g id="road24-copy" transform="translate(37.675562, 97.000000)" sketch:type="MSShapeGroup">
                    <path d="M19.16618,0.197761566 L0,56.9372974 L9.68742007,56.9372974 L23.5862375,0.197761566 L19.16618,0.197761566 Z" id="Fill-1" fill="#1D82C6"></path>
                    <path d="M60.5992943,0.197761566 L56.1784327,0.197761566 L70.0778532,56.9372974 L79.7654743,56.9372974 L60.5992943,0.197761566 Z" id="Fill-2" fill="#1D82C6"></path>
                    <path d="M27.3672482,0.197761566 L13.4975788,56.9372974 L34.021256,56.9372974 L34.5867291,48.5871395 L45.1787452,48.5871395 L45.7442183,56.9372974 L66.2678955,56.9372974 L52.3982261,0.197761566 L27.3672482,0.197761566 Z M38.0573627,0.848389012 L41.7079105,0.848389012 L42.2858469,8.8046448 L37.4786223,8.8046448 L38.0573627,0.848389012 Z M36.9006859,16.7615085 L42.8645874,16.7615085 L43.4433279,24.7177642 L36.3221464,24.7177642 L36.9006859,16.7615085 Z M35.1654695,40.6308837 L35.7434059,32.6746279 L44.0220683,32.6746279 L44.6008088,40.6308837 L35.1654695,40.6308837 Z" id="Fill-3" fill="#279EEE"></path>
                </g>
                <g id="Group" transform="translate(20.000000, 23.000000)">
                    <g id="airplane123-copy-2" transform="translate(0.982313, 0.000000)">
                        <g id="Rectangle-266" transform="translate(1.085714, 0.000000)">
                            <mask id="mask-3" sketch:name="Mask" fill="white">
                                <use xlink:href="#path-2"></use>
                            </mask>
                            <use id="Mask" fill="#204581" sketch:type="MSShapeGroup" xlink:href="#path-2"></use>
                            <rect fill="#4D73AE" sketch:type="MSShapeGroup" mask="url(#mask-3)" x="55.3714286" y="-6.51724138" width="61.8857143" height="90.1551724"></rect>
                        </g>
                    </g>
                    <path d="M25.5753527,49.4021415 C25.5753527,50.8444898 24.3972343,52.0180664 22.9479009,52.0180664 C21.4994684,52.0180664 20.32135,50.8444898 20.32135,49.4021415 C20.32135,47.9586715 21.4994684,46.7850949 22.9479009,46.7850949 C24.3972343,46.7850949 25.5753527,47.9586715 25.5753527,49.4021415 L25.5753527,49.4021415 Z" id="Path-Copy-35" fill="#FFFFFF" sketch:type="MSShapeGroup"></path>
                    <path d="M46.2784003,28.2413793 L55.0487374,28.7293413 L55.0487374,33.8517081 L45.3985283,30.0386498 L46.2784003,28.2413793 Z" id="Path-Copy-32" fill="#FFFFFF" sketch:type="MSShapeGroup"></path>
                    <path d="M60.6628977,33.8517081 L60.6628977,28.7293413 L69.4339106,28.2413793 L70.3131068,30.0395472 L60.6628977,33.8517081 Z" id="Path-Copy-33" fill="#FFFFFF" sketch:type="MSShapeGroup"></path>
                    <path d="M93.1749282,49.4021415 C93.1749282,50.8444898 91.9965845,52.0180664 90.5481521,52.0180664 C89.0990439,52.0180664 87.9207002,50.8444898 87.9207002,49.4021415 C87.9207002,47.9586715 89.0990439,46.7850949 90.5481521,46.7850949 C91.9965845,46.7850949 93.1749282,47.9586715 93.1749282,49.4021415 L93.1749282,49.4021415 Z" id="Path-Copy-34" fill="#FFFFFF" sketch:type="MSShapeGroup"></path>
                </g>
            </g>
        </g>
    </g>
</svg>