<?xml version="1.0" encoding="UTF-8" standalone="no"?>
<svg width="154px" height="153px" viewBox="0 0 154 153" version="1.1" xmlns="http://www.w3.org/2000/svg" xmlns:xlink="http://www.w3.org/1999/xlink" xmlns:sketch="http://www.bohemiancoding.com/sketch/ns">
    <!-- Generator: Sketch 3.4.3 (16618) - http://www.bohemiancoding.com/sketch -->
    <title>Oval 298 Copy + Fill 1 + Fill 2 + Fill 3 + Rectangle 267 + Path 1096 Copy</title>
    <desc>Created with Sketch.</desc>
    <defs>
        <linearGradient x1="91.4062108%" y1="-32.8762273%" x2="16.3354027%" y2="123.196752%" id="linearGradient-1">
            <stop stop-color="#FFFFFF" offset="0%"></stop>
            <stop stop-color="#D5DCE9" offset="100%"></stop>
        </linearGradient>
        <path d="M61.9528267,17.9503825 L61.9528267,10.1306181 L64.5530413,10.5697983 L64.5530413,6.06599131 L32.8127168,0.0677929058 L0.216584081,6.1809445 L0.216584081,10.7201217 L4.00706084,10.0864054 L4.00706084,71.5215156 L32.6848374,74.6547269 L37.8098506,74.0210106 L37.8098506,60.3209486 L45.8269057,59.9053486 L45.8269057,73.1455979 L50.8109235,72.6062021 L50.8109235,59.560489 L58.0082388,59.1802593 L58.0082388,71.8339525 L61.9528267,71.4065625 L82.1643308,69.2430845 L82.1643308,24.2138575 L84.1644959,24.4437638 L84.1644959,20.9096902 L61.9528267,17.9503825 Z M25.9105079,21.5876192 L30.8551782,21.0570661 L30.8551782,24.7768333 L25.9105079,25.224856 L25.9105079,21.5876192 Z M6.10887365,23.7304646 L10.2698728,23.2794944 L10.2698728,26.6868248 L6.10887365,27.0552645 L6.10887365,23.7304646 Z M10.2698728,55.7611388 L6.10887365,55.6108154 L6.10887365,52.2712779 L10.2698728,52.362651 L10.2698728,55.7611388 Z M10.2698728,49.8778936 L6.10887365,49.8307333 L6.10887365,46.4911958 L10.2698728,46.4676157 L10.2698728,49.8778936 Z M10.3092203,44.1096016 L6.14822116,44.1656044 L6.14822116,40.8142768 L10.3092203,40.6993236 L10.3092203,44.1096016 Z M10.3092203,38.4091024 L6.14822116,38.5712159 L6.14822116,35.2316784 L10.3092203,35.001772 L10.3092203,38.4091024 Z M10.3092203,32.4226941 L6.14822116,32.6997608 L6.14822116,29.3484332 L10.3092203,29.0153637 L10.3092203,32.4226941 Z M10.3485678,20.9892731 L6.17117387,21.472666 L6.17117387,18.1331286 L10.3485678,17.5937328 L10.3485678,20.9892731 Z M10.3485678,15.4744676 L6.17117387,16.0610236 L6.17117387,12.7214862 L10.3485678,12.0759798 L10.3485678,15.4744676 Z M12.499565,22.9582149 L16.9196019,22.4866121 L16.9196019,25.9853156 L12.499565,26.3891255 L12.499565,22.9582149 Z M16.9064861,55.9114622 L12.499565,55.7611388 L12.499565,52.3184382 L16.9064861,52.4098112 L16.9064861,55.9114622 Z M16.9064861,49.8543134 L12.499565,49.8071532 L12.499565,46.3762426 L16.9064861,46.3526625 L16.9064861,49.8543134 Z M16.9458336,43.9121179 L12.5389125,43.9828583 L12.5389125,40.5401577 L16.9458336,40.4134144 L16.9458336,43.9121179 Z M16.9458336,38.0524528 L12.5389125,38.2263563 L12.5389125,34.7924983 L16.9458336,34.5508018 L16.9458336,38.0524528 Z M16.9458336,31.8921409 L12.5389125,32.1809976 L12.5389125,28.7500871 L16.9458336,28.3934375 L16.9458336,31.8921409 Z M16.9819021,20.1256505 L12.57826,20.6444136 L12.57826,17.201713 L16.9819021,16.6239995 L16.9819021,20.1256505 Z M16.9819021,14.4487315 L12.57826,15.0706577 L12.57826,11.6397472 L16.9819021,10.9500281 L16.9819021,14.4487315 Z M18.9558355,22.3009185 L23.6185154,21.8175256 L23.6185154,25.4105496 L18.9558355,25.8349922 L18.9558355,22.3009185 Z M23.6185154,56.1973714 L18.9558355,56.0264154 L18.9558355,52.4893942 L23.6185154,52.5955049 L23.6185154,56.1973714 Z M23.6185154,49.9574766 L18.9558355,49.9103163 L18.9558355,46.3762426 L23.6185154,46.3526625 L23.6185154,49.9574766 Z M23.6676998,43.856115 L18.9951831,43.9239079 L18.9951831,40.3898343 L23.6676998,40.251301 L23.6676998,43.856115 Z M23.6676998,37.8225464 L18.9951831,38.0052925 L18.9951831,34.4712189 L23.6676998,34.2177323 L23.6676998,37.8225464 Z M23.6676998,31.488331 L18.9951831,31.7889778 L18.9951831,28.2549041 L23.6676998,27.8864644 L23.6676998,31.488331 Z M23.7070473,19.3887711 L19.0312516,19.9311143 L19.0312516,16.3940931 L23.7070473,15.783957 L23.7070473,19.3887711 Z M23.7070473,13.5497386 L19.0312516,14.195245 L19.0312516,10.6729614 L23.7070473,9.94787205 L23.7070473,13.5497386 Z M30.8551782,56.4744381 L25.9105079,56.2887445 L25.9105079,52.6632978 L30.8551782,52.7664609 L30.8551782,56.4744381 Z M30.8551782,50.0606397 L25.9105079,50.0046368 L25.9105079,46.3644526 L30.8551782,46.3526625 L30.8551782,50.0606397 Z M30.9043626,43.7617945 L25.9498554,43.8325349 L25.9498554,40.1952981 L30.9043626,40.0567648 L30.9043626,43.7617945 Z M30.9043626,37.5572698 L25.9498554,37.751806 L25.9498554,34.1145692 L30.9043626,33.8375026 L30.9043626,37.5572698 Z M30.9043626,31.0285182 L25.9498554,31.3527452 L25.9498554,27.7125609 L30.9043626,27.308751 L30.9043626,31.0285182 Z M30.9437101,18.5723087 L25.9990398,19.1352845 L25.9990398,15.4980478 L30.9437101,14.8525414 L30.9437101,18.5723087 Z M30.9437101,12.5505301 L25.9990398,13.2402493 L25.9990398,9.60301249 L30.9437101,8.84255293 L30.9437101,12.5505301 Z M55.6637831,17.372669 L59.7887137,17.9032222 L59.7887137,21.4137157 L55.6637831,20.9303228 L55.6637831,17.372669 Z M55.6637831,29.0035736 L59.7887137,29.3366431 L59.7887137,32.826504 L55.6637831,32.5612274 L55.6637831,29.0035736 Z M49.3353919,16.4530435 L53.7029655,17.0278094 L53.7029655,20.6208334 L49.3353919,20.1138604 L49.3353919,16.4530435 Z M49.3353919,28.4052275 L53.7029655,28.7618772 L53.7029655,32.3519537 L49.3353919,32.0660445 L49.3353919,28.4052275 Z M42.7774737,15.5894208 L47.3909692,16.1877669 L47.3909692,19.883954 L42.7774737,19.3534009 L42.7774737,15.5894208 Z M42.7774737,27.8746744 L47.3909692,28.2431141 L47.3909692,31.9393012 L42.7774737,31.6386544 L42.7774737,27.8746744 Z M35.3637471,14.5636847 L40.2428382,15.209191 L40.2428382,19.0085413 L35.3637471,18.4455654 L35.3637471,14.5636847 Z M40.3313701,21.4962462 L40.3313701,25.2955964 L35.4391631,24.8564163 L35.4391631,20.9774831 L40.3313701,21.4962462 Z M35.3637471,27.2173779 L40.2428382,27.6211878 L40.2428382,31.4205381 L35.3637471,31.1081012 L35.3637471,27.2173779 Z M40.2166066,56.3948551 L35.3243995,56.5658111 L35.3243995,52.6868779 L40.2166066,52.5837148 L40.2166066,56.3948551 Z M40.2821858,50.1520127 L35.3998156,50.2109631 L35.3998156,46.3320299 L40.2821858,46.3526625 L40.2821858,50.1520127 Z M40.2953016,43.7853746 L35.3998156,43.7057916 L35.3998156,39.8268584 L40.2953016,39.9742343 L40.2953016,43.7853746 Z M40.3707177,37.7311734 L35.4916265,37.5336897 L35.4916265,33.6547565 L40.3707177,33.9200331 L40.3707177,37.7311734 Z M40.423181,12.9749727 L35.530974,12.2970436 L35.530974,8.41516288 L40.423181,9.17562243 L40.423181,12.9749727 Z M47.2762056,56.1531587 L42.6627101,56.3241147 L42.6627101,52.5601346 L47.2762056,52.4569715 L47.2762056,56.1531587 Z M47.3516217,50.11959 L42.7414051,50.1755929 L42.7414051,46.3998228 L47.3516217,46.4234029 L47.3516217,50.11959 Z M47.3516217,43.9239079 L42.7414051,43.8679051 L42.7414051,40.0891875 L47.3516217,40.2395109 L47.3516217,43.9239079 Z M47.4270377,37.9846599 L42.829937,37.7989663 L42.829937,34.0231962 L47.4270377,34.2884728 L47.4270377,37.9846599 Z M47.4663852,25.9853156 L42.8692845,25.5726631 L42.8692845,21.8057355 L47.4663852,22.3009185 L47.4663852,25.9853156 Z M47.4663852,13.9417585 L42.8692845,13.2991996 L42.8692845,9.53227206 L47.4663852,10.2455713 L47.4663852,13.9417585 Z M53.4472067,55.9320948 L49.0796331,56.0942083 L49.0796331,52.4216013 L53.4472067,52.3302283 L53.4472067,55.9320948 Z M53.666897,50.0488496 L49.2993234,50.1078 L49.2993234,46.435193 L53.666897,46.4587731 L53.666897,50.0488496 Z M53.666897,44.0270711 L49.2993234,43.9710682 L49.2993234,40.2984612 L53.666897,40.4369946 L53.666897,44.0270711 Z M53.742313,38.2351989 L49.3747394,38.0642429 L49.3747394,34.4034259 L53.742313,34.6451224 L53.742313,38.2351989 Z M53.7816605,26.5718716 L49.414087,26.1710092 L49.414087,22.5101923 L53.7816605,22.970005 L53.7816605,26.5718716 Z M53.7816605,14.8407513 L49.414087,14.2306152 L49.414087,10.5697983 L53.7816605,11.2477273 L53.7816605,14.8407513 Z M59.7231345,55.7375587 L55.588367,55.8878821 L55.588367,52.3302283 L59.7231345,52.2359077 L59.7231345,55.7375587 Z M59.7493661,50.0606397 L55.6244356,50.1078 L55.6244356,46.5383561 L59.7493661,46.5501462 L59.7493661,50.0606397 Z M59.7493661,44.1891845 L55.6244356,44.1302342 L55.6244356,40.5725804 L59.7493661,40.6875336 L59.7493661,44.1891845 Z M59.8280612,38.5594258 L55.7031306,38.3973124 L55.7031306,34.8278685 L59.8280612,35.0577749 L59.8280612,38.5594258 Z M59.8641297,27.1937978 L55.7424781,26.8253581 L55.7424781,23.2559142 L59.8641297,23.6950943 L59.8641297,27.1937978 Z M59.8641297,15.783957 L55.7424781,15.197401 L55.7424781,11.6397472 L59.8641297,12.2852535 L59.8641297,15.783957 Z M76.4130365,30.6954488 L79.8461067,31.0049381 L79.8461067,34.1941522 L76.4130365,33.9406657 L76.4130365,30.6954488 Z M71.2913023,30.2238459 L74.8883205,30.5451254 L74.8883205,33.8139224 L71.2913023,33.5515934 L71.2913023,30.2238459 Z M65.5924713,24.1666972 L69.3829481,24.6029298 L69.3829481,27.9660474 L65.5924713,27.5858176 L65.5924713,24.1666972 Z M65.5268921,29.6697126 L69.3173689,30.0027821 L69.3173689,33.3658997 L65.5268921,33.0888331 L65.5268921,29.6697126 Z M69.2911372,55.369119 L65.5006605,55.4840721 L65.5006605,52.0649517 L69.2911372,52.0177914 L69.2911372,55.369119 Z M69.3436006,49.8778936 L65.5531238,49.8896837 L65.5531238,46.4676157 L69.3436006,46.526566 L69.3436006,49.8778936 Z M69.3436006,44.2569774 L65.5531238,44.1656044 L65.5531238,40.758274 L69.3436006,40.9085974 L69.3436006,44.2569774 Z M69.4091798,38.9278655 L65.6285399,38.7421719 L65.6285399,35.3230515 L69.4091798,35.5647479 L69.4091798,38.9278655 Z M74.7997886,55.2423757 L71.1994914,55.3455388 L71.1994914,52.0177914 L74.7997886,51.9735786 L74.7997886,55.2423757 Z M74.8522519,49.8985262 L71.2650706,49.9103163 L71.2650706,46.5825689 L74.8522519,46.6415192 L74.8522519,49.8985262 Z M74.8522519,44.430881 L71.2650706,44.3395079 L71.2650706,41.0235506 L74.8522519,41.1620839 L74.8522519,44.430881 Z M74.9145521,39.169562 L71.3306498,38.9838684 L71.3306498,35.667911 L74.9145521,35.8978174 L74.9145521,39.169562 Z M74.9538997,28.5526034 L71.3536025,28.1959538 L71.3536025,24.8799964 L74.9538997,25.2838064 L74.9538997,28.5526034 Z M79.6559271,55.1156324 L76.2228568,55.2070055 L76.2228568,51.9617886 L79.6559271,51.9146283 L79.6559271,55.1156324 Z M79.8067592,49.8985262 L76.3769679,49.9103163 L76.3769679,46.6650994 L79.8067592,46.7093121 L79.8067592,49.8985262 Z M79.8067592,44.5458342 L76.3868048,44.4780413 L76.3868048,41.2298768 L79.8067592,41.3566201 L79.8067592,44.5458342 Z M79.8723384,39.4112584 L76.4392681,39.249145 L76.4392681,36.003928 L79.8723384,36.2220443 L79.8723384,39.4112584 Z M79.89857,29.0595765 L76.4786157,28.7147169 L76.4786157,25.4665525 L79.89857,25.8585723 L79.89857,29.0595765 Z" id="path-2"></path>
    </defs>
    <g id="Page-1" stroke="none" stroke-width="1" fill="none" fill-rule="evenodd" sketch:type="MSPage">
        <g id="4-Fixed-Income" sketch:type="MSArtboardGroup" transform="translate(-435.000000, -442.000000)">
            <g id="Oval-298-Copy-+-Fill-1-+-Fill-2-+-Fill-3-+-Rectangle-267-+-Path-1096-Copy" sketch:type="MSLayerGroup" transform="translate(435.000000, 442.000000)">
                <ellipse id="Oval-298-Copy" fill="url(#linearGradient-1)" sketch:type="MSShapeGroup" cx="77.4420629" cy="76.6107874" rx="76.4420629" ry="75.7294124"></ellipse>
                <g id="Fill-1-+-Fill-2-+-Fill-3" transform="translate(78.000000, 73.000000)" sketch:type="MSShapeGroup">
                    <path d="M15.332944,0.760705116 L0,55.9491109 L7.74993606,55.9491109 L18.86899,0.760705116 L15.332944,0.760705116 Z" id="Fill-1" fill="#1D82C6"></path>
                    <path d="M48.4794354,0.760705116 L44.9427462,0.760705116 L56.0622826,55.9491109 L63.8123794,55.9491109 L48.4794354,0.760705116 Z" id="Fill-2" fill="#1D82C6"></path>
                    <path d="M21.8937985,0.760705116 L10.7980631,55.9491109 L27.2170048,55.9491109 L27.6693832,47.8272273 L36.1429962,47.8272273 L36.5953746,55.9491109 L53.0143164,55.9491109 L41.9185809,0.760705116 L21.8937985,0.760705116 Z M30.4458902,1.39354589 L33.3663284,1.39354589 L33.8286775,9.13229571 L29.9828978,9.13229571 L30.4458902,1.39354589 Z M29.5205487,16.8716368 L34.2916699,16.8716368 L34.7546623,24.6103866 L29.0577171,24.6103866 L29.5205487,16.8716368 Z M28.1323756,40.0884775 L28.5947247,32.3497277 L35.2176547,32.3497277 L35.6806471,40.0884775 L28.1323756,40.0884775 Z" id="Fill-3" fill="#279EEE"></path>
                </g>
                <g id="Rectangle-267-+-Path-1096-Copy" transform="translate(0.000000, 34.881375)">
                    <path d="M4.3814433,7.10526316 L32.4226804,7.10526316 L32.4226804,60 L4.3814433,60 L4.3814433,7.10526316 Z M32.4226804,3.94736842 L61.3402062,7.10526316 L60.4639175,56.8421053 L33.2989691,60 L32.4226804,3.94736842 Z M63.9690722,22.1052632 L80.6185567,24.2401779 L80.1140269,57.8650852 L64.473602,60 L63.9690722,22.1052632 Z" id="Rectangle-267" fill="#FFFFFF" sketch:type="MSShapeGroup"></path>
                    <g id="Path-1096-Copy">
                        <g id="Path-1096">
                            <g>
                                <mask id="mask-3" sketch:name="Mask" fill="white">
                                    <use xlink:href="#path-2"></use>
                                </mask>
                                <use id="Mask" fill="#204581" sketch:type="MSShapeGroup" xlink:href="#path-2"></use>
                                <path d="M70.3574992,5.52631579 C70.3574992,5.52631579 69.2698939,1.38051034 66.5979381,5.52631579 C66.5562258,5.59103665 32.4226804,-5.52631579 32.4226804,-5.52631579 L32.4226804,81.3157895 L83.0212837,80.5263158 L87.5440639,62.7843803 L90.257732,8.75212224 L70.3574992,5.52631579 Z" fill="#4D73AE" sketch:type="MSShapeGroup" mask="url(#mask-3)"></path>
                            </g>
                        </g>
                    </g>
                </g>
            </g>
        </g>
    </g>
</svg>