<?xml version="1.0" encoding="UTF-8" standalone="no"?>
<svg width="154px" height="153px" viewBox="0 0 154 153" version="1.1" xmlns="http://www.w3.org/2000/svg" xmlns:xlink="http://www.w3.org/1999/xlink" xmlns:sketch="http://www.bohemiancoding.com/sketch/ns">
    <!-- Generator: Sketch 3.4.3 (16618) - http://www.bohemiancoding.com/sketch -->
    <title>Group</title>
    <desc>Created with Sketch.</desc>
    <defs>
        <linearGradient x1="91.4062108%" y1="-32.8762273%" x2="16.3354027%" y2="123.196752%" id="linearGradient-1">
            <stop stop-color="#FFFFFF" offset="0%"></stop>
            <stop stop-color="#D5DCE9" offset="100%"></stop>
        </linearGradient>
        <path d="M21.03498,33.4237633 C15.2600858,33.4237633 9.79754594,32.6373087 5.66747409,31.1970445 C3.5410069,30.4548973 1.83995128,29.5690282 0.601874824,28.5608987 C0.422306483,28.4169 0.26175821,28.2616859 0.100619251,28.1178257 L0.100619251,38.3638887 C0.100619251,38.6739013 0.15744318,38.9843294 0.270972901,39.2834036 C1.56587329,42.872018 10.364722,45.6412242 21.03498,45.6412242 C31.6954326,45.6412242 40.503496,42.872018 41.7983964,39.2834036 C41.9119261,38.9843294 41.96875,38.6739013 41.96875,38.3638887 L41.96875,28.1178257 C41.8080836,28.2730397 41.6378481,28.4169 41.4676126,28.5608987 C40.2391052,29.5690282 38.5381677,30.4548973 36.4020133,31.1970445 C32.2718233,32.6373087 26.8092835,33.4237633 21.03498,33.4237633 L21.03498,33.4237633 Z M21.03498,18.4237633 C15.2600858,18.4237633 9.79754594,17.6373087 5.66747409,16.1970445 C3.5410069,15.4548973 1.83995128,14.5690282 0.601874824,13.5608987 C0.422306483,13.4169 0.26175821,13.2616859 0.100619251,13.1178257 L0.100619251,23.3638887 C0.100619251,23.6739013 0.15744318,23.9843294 0.270972901,24.2834036 C1.56587329,27.872018 10.364722,30.6412242 21.03498,30.6412242 C31.6954326,30.6412242 40.503496,27.872018 41.7983964,24.2834036 C41.9119261,23.9843294 41.96875,23.6739013 41.96875,23.3638887 L41.96875,13.1178257 C41.8080836,13.2730397 41.6378481,13.4169 41.4676126,13.5608987 C40.2391052,14.5690282 38.5381677,15.4548973 36.4020133,16.1970445 C32.2718233,17.6373087 26.8092835,18.4237633 21.03498,18.4237633 L21.03498,18.4237633 Z M21.03498,77.6957039 C15.2600858,77.6957039 9.79754594,76.9093878 5.66747409,75.4689852 C3.5410069,74.7269764 1.83995128,73.8411073 0.601874824,72.8328394 C0.422306483,72.6889791 0.26175821,72.5337651 0.100619251,72.3899048 L0.100619251,82.6359678 C0.100619251,82.945842 0.15744318,83.2564085 0.270972901,83.5554828 C1.57508798,87.1440971 10.3739367,89.9133033 21.03498,89.9133033 C31.6954326,89.9133033 40.503496,87.1440971 41.7983964,83.5554828 C41.9119261,83.2564085 41.96875,82.945842 41.96875,82.6359678 L41.96875,72.3785511 C41.8080836,72.5337651 41.6378481,72.6776254 41.4676126,72.8220395 C40.2391052,73.8297536 38.5381677,74.7161765 36.4020133,75.4581853 C32.2718233,76.8980341 26.8092835,77.6957039 21.03498,77.6957039 L21.03498,77.6957039 Z M21.03498,48.0477288 C15.2600858,48.0477288 9.79754594,47.2614127 5.66747409,45.8210101 C3.5410069,45.0790013 1.83995128,44.1931322 0.601874824,43.1848642 C0.422306483,43.041004 0.26175821,42.88579 0.100619251,42.7419297 L0.100619251,52.9879927 C0.100619251,53.2978669 0.15744318,53.6084334 0.270972901,53.9075077 C1.57508798,57.496122 10.3739367,60.2653282 21.03498,60.2653282 C31.6954326,60.2653282 40.503496,57.496122 41.7983964,53.9075077 C41.9119261,53.6084334 41.96875,53.2978669 41.96875,52.9879927 L41.96875,42.730576 C41.8080836,42.88579 41.6378481,43.0296502 41.4676126,43.1740643 C40.2391052,44.1817785 38.5381677,45.0682014 36.4020133,45.8102102 C32.2718233,47.250059 26.8092835,48.0477288 21.03498,48.0477288 L21.03498,48.0477288 Z M21.03498,92.446672 C15.2600858,92.446672 9.79754594,91.6603559 5.66747409,90.2205071 C3.5410069,89.4784983 1.83995128,88.591937 0.601874824,87.5843613 C0.422306483,87.4399472 0.26175821,87.285287 0.100619251,87.1414267 L0.100619251,97.3874897 C0.100619251,97.6973639 0.15744318,98.0072381 0.270972901,98.3064508 C1.57508798,101.895481 10.3739367,104.664687 21.03498,104.664687 C31.6954326,104.664687 40.503496,101.895481 41.7983964,98.3064508 C41.9119261,98.0072381 41.96875,97.6973639 41.96875,97.3874897 L41.96875,87.1414267 C41.8080836,87.2960869 41.6378481,87.4399472 41.4676126,87.5843613 C40.2391052,88.591937 38.5381677,89.4784983 36.4020133,90.2205071 C32.2718233,91.6603559 26.8092835,92.446672 21.03498,92.446672 L21.03498,92.446672 Z M21.03498,107.331194 C15.2600858,107.331194 9.79754594,106.544878 5.66747409,105.105029 C3.5410069,104.36302 1.83995128,103.476459 0.601874824,102.468883 C0.422306483,102.324469 0.26175821,102.169809 0.100619251,102.025949 L0.100619251,112.272012 C0.100619251,112.581886 0.15744318,112.89176 0.270972901,113.190973 C1.57508798,116.780003 10.3739367,119.549209 21.03498,119.549209 C31.6954326,119.549209 40.503496,116.780003 41.7983964,113.190973 C41.9119261,112.89176 41.96875,112.581886 41.96875,112.272012 L41.96875,102.025949 C41.8080836,102.180609 41.6378481,102.324469 41.4676126,102.468883 C40.2391052,103.476459 38.5381677,104.36302 36.4020133,105.105029 C32.2718233,106.544878 26.8092835,107.331194 21.03498,107.331194 L21.03498,107.331194 Z M21.03498,62.7986969 C15.2600858,62.7986969 9.79754594,62.0123808 5.66747409,60.572532 C3.5410069,59.8305232 1.83995128,58.9439618 0.601874824,57.9363861 C0.422306483,57.791972 0.26175821,57.6373119 0.100619251,57.4934516 L0.100619251,67.7395146 C0.100619251,68.0493888 0.15744318,68.359263 0.270972901,68.6584757 C1.57508798,72.2475054 10.3739367,75.0167117 21.03498,75.0167117 C31.6954326,75.0167117 40.503496,72.2475054 41.7983964,68.6584757 C41.9119261,68.359263 41.96875,68.0493888 41.96875,67.7395146 L41.96875,57.4934516 C41.8080836,57.6481118 41.6378481,57.791972 41.4676126,57.9363861 C40.2391052,58.9439618 38.5381677,59.8305232 36.4020133,60.572532 C32.2718233,62.0123808 26.8092835,62.7986969 21.03498,62.7986969 L21.03498,62.7986969 Z M41.96875,8.26325019 C41.96875,7.86476141 41.8741222,7.47693408 41.7038867,7.09990665 C41.5151037,6.70127942 41.2410257,6.31345209 40.8723199,5.93711696 C38.0748342,3.05700403 30.2496711,0.996853064 21.03498,0.996853064 C11.8202888,0.996853064 3.9945351,3.06835778 1.1971675,5.93711696 C0.828461717,6.31345209 0.554265586,6.70127942 0.365600691,7.09990665 C0.18603235,7.47693408 0.100619251,7.86476141 0.100619251,8.26325019 C0.100619251,12.2841376 9.47644939,15.5405857 21.03498,15.5405857 C32.5933924,15.5297858 41.96875,12.2731993 41.96875,8.26325019 L41.96875,8.26325019 Z" id="path-2"></path>
    </defs>
    <g id="Page-1" stroke="none" stroke-width="1" fill="none" fill-rule="evenodd" sketch:type="MSPage">
        <g id="4-Fixed-Income" sketch:type="MSArtboardGroup" transform="translate(-706.000000, -441.000000)">
            <g id="Group" sketch:type="MSLayerGroup" transform="translate(706.000000, 441.000000)">
                <ellipse id="Oval-298-Copy-2" fill="url(#linearGradient-1)" sketch:type="MSShapeGroup" cx="76.8956952" cy="76.4163645" rx="76.4420629" ry="75.7294124"></ellipse>
                <g transform="translate(95.000000, 1.000000)">
                    <mask id="mask-3" sketch:name="Mask Copy" fill="white">
                        <use xlink:href="#path-2"></use>
                    </mask>
                    <use id="Mask-Copy" fill="#4D73AE" sketch:type="MSShapeGroup" xlink:href="#path-2"></use>
                    <path d="M21,127 L21,14.9955358 L38,-5 L52,3 L52,127 L21,127 Z" id="Path-910-Copy-4" fill="#204581" sketch:type="MSShapeGroup" mask="url(#mask-3)"></path>
                    <path d="M21,127 L21,14.9955358 L38,-5 L52,3 L52,127 L21,127 Z" id="Path-910-Copy-5" fill="#204581" sketch:type="MSShapeGroup" mask="url(#mask-3)"></path>
                    <path d="M-2,12 L-1,40 C-1,40 3,43 5,44 C7,45 17,47 17,47 L31,46 L40,43 L45,38 L45,1 C45,1 27,-10 24,-10 C21,-10 0,-10 0,-7 C0,-4 -2,12 -2,12 Z" id="Path-924-Copy" fill="#63BFFD" sketch:type="MSShapeGroup" mask="url(#mask-3)"></path>
                    <path d="M21,48 L21,14.9955358 L38,-5 L52,3 L54,39 L21,48 Z" id="Path-910-Copy-6" fill="#279EEE" sketch:type="MSShapeGroup" mask="url(#mask-3)"></path>
                </g>
                <g id="calendar146" transform="translate(0.000000, 49.468354)" sketch:type="MSShapeGroup">
                    <path d="M17.3483376,16.2852542 L18.3639304,16.2852542 C19.9072655,16.2852542 21.1589149,15.0439613 21.1589149,13.5133964 L21.1589149,3.00414649 C21.1589149,1.47358158 19.9072655,0.232470198 18.3639304,0.232470198 L17.3483376,0.232470198 C15.8050026,0.232470198 14.5533531,1.47358158 14.5533531,3.00414649 L14.5533531,13.5133964 C14.5533531,15.0439613 15.8050026,16.2852542 17.3483376,16.2852542 L17.3483376,16.2852542 Z" id="Fill-1" fill="#4D73AE"></path>
                    <g id="Group-5">
                        <path d="M53.1949201,16.2164749 L54.2106959,16.2164749 C55.7540309,16.2164749 57.0049485,14.9751821 57.0049485,13.4446172 L57.0049485,2.93464135 C57.0049485,1.40480234 55.7540309,0.163690959 54.2106959,0.163690959 L53.1949201,0.163690959 C51.6510361,0.163690959 50.4001186,1.40480234 50.4001186,2.93464135 L50.4001186,13.4446172 C50.4001186,14.9751821 51.651768,16.2164749 53.1949201,16.2164749 L53.1949201,16.2164749 Z" id="Fill-2" fill="#4D73AE"></path>
                        <path d="M66.4495954,5.86456433 L59.2773144,5.86456433 L59.2773144,14.1705194 C59.2773144,16.9409254 57.0042165,18.4693126 54.2106959,18.4693126 L53.1949201,18.4693126 C50.4015825,18.4693126 48.1284845,16.2150231 48.1284845,13.4446172 L48.1284845,5.86456433 L23.430549,5.86456433 L23.430549,13.5133964 C23.430549,16.2838024 21.157451,18.5380918 18.3639304,18.5380918 L17.3483376,18.5380918 C14.554817,18.5380918 12.2817191,16.2838024 12.2817191,13.5133964 L12.2817191,5.86456433 L4.54326804,5.86456433 C2.03795619,5.86456433 0,7.88620212 0,10.3709655 L0,64.8178088 C0,67.3025722 2.03795619,69.3234841 4.54326804,69.3234841 L66.4495954,69.3234841 C68.9549072,69.3234841 70.9928634,67.3025722 70.9928634,64.8178088 L70.9928634,10.3709655 C70.9928634,7.88620212 68.9549072,5.86456433 66.4495954,5.86456433 L66.4495954,5.86456433 Z M66.4495954,64.8178088 L4.54326804,64.8178088 L4.54326804,23.7008902 L66.4503273,23.7008902 L66.4523402,64.8178088 L66.4495954,64.8178088 L66.4495954,64.8178088 Z" id="Fill-4" fill="#204581"></path>
                    </g>
                    <rect id="Rectangle-267" fill="#FFFFFF" x="4.55128205" y="19.1153846" width="62.8076923" height="45.5128205"></rect>
                    <path d="M37.8417191,37.4923071 L45.9997655,37.4923071 C46.3229253,37.4923071 46.5851495,37.2327971 46.5851495,36.9117668 L46.5851495,29.9064471 C46.5851495,29.5854168 46.3229253,29.3251809 45.9997655,29.3251809 L37.8417191,29.3251809 C37.5185593,29.3251809 37.2563351,29.5854168 37.2563351,29.9064471 L37.2563351,36.9117668 C37.2563351,37.2327971 37.5185593,37.4923071 37.8417191,37.4923071 L37.8417191,37.4923071 Z" id="Fill-6" fill="#F58C23"></path>
                    <path d="M51.155683,37.4923071 L59.3137294,37.4923071 C59.6367062,37.4923071 59.8991134,37.2327971 59.8991134,36.9117668 L59.8991134,29.9064471 C59.8991134,29.5854168 59.6367062,29.3251809 59.3137294,29.3251809 L51.155683,29.3251809 C50.8325232,29.3251809 50.570116,29.5854168 50.570116,29.9064471 L50.570116,36.9117668 C50.570116,37.2327971 50.8325232,37.4923071 51.155683,37.4923071 L51.155683,37.4923071 Z" id="Fill-7" fill="#F58C23"></path>
                    <path d="M11.2152552,48.9621072 L19.3733015,48.9621072 C19.6964613,48.9621072 19.9586856,48.7018713 19.9586856,48.380841 L19.9586856,41.3755213 C19.9586856,41.054491 19.6964613,40.7949809 19.3733015,40.7949809 L11.2152552,40.7949809 C10.8920954,40.7949809 10.6298711,41.054491 10.6298711,41.3755213 L10.6298711,48.380841 C10.6298711,48.7018713 10.8920954,48.9621072 11.2152552,48.9621072 L11.2152552,48.9621072 Z" id="Fill-8" fill="#F58C23"></path>
                    <path d="M24.5284871,48.9621072 L32.6865335,48.9621072 C33.0096933,48.9621072 33.2719175,48.7018713 33.2719175,48.380841 L33.2719175,41.3755213 C33.2719175,41.054491 33.0096933,40.7949809 32.6865335,40.7949809 L24.5284871,40.7949809 C24.2053273,40.7949809 23.9431031,41.054491 23.9431031,41.3755213 L23.9431031,48.380841 C23.9431031,48.7018713 24.2053273,48.9621072 24.5284871,48.9621072 L24.5284871,48.9621072 Z" id="Fill-9" fill="#F58C23"></path>
                    <path d="M37.842451,48.9621072 L45.9997655,48.9621072 C46.3234742,48.9621072 46.5851495,48.7018713 46.5851495,48.380841 L46.5851495,41.3755213 C46.5851495,41.054491 46.3234742,40.7949809 45.9997655,40.7949809 L37.842451,40.7949809 C37.5185593,40.7949809 37.2563351,41.054491 37.2563351,41.3755213 L37.2563351,48.380841 C37.2563351,48.7018713 37.5185593,48.9621072 37.842451,48.9621072 L37.842451,48.9621072 Z" id="Fill-10" fill="#F58C23"></path>
                    <path d="M51.155683,48.9621072 L59.3137294,48.9621072 C59.6367062,48.9621072 59.8991134,48.7018713 59.8991134,48.380841 L59.8991134,41.3755213 C59.8991134,41.054491 59.6367062,40.7949809 59.3137294,40.7949809 L51.155683,40.7949809 C50.8325232,40.7949809 50.570116,41.054491 50.570116,41.3755213 L50.570116,48.380841 C50.570116,48.7018713 50.8325232,48.9621072 51.155683,48.9621072 L51.155683,48.9621072 Z" id="Fill-11" fill="#F58C23"></path>
                    <path d="M19.3733015,52.2640551 L11.2152552,52.2640551 C10.8920954,52.2640551 10.6298711,52.5242911 10.6298711,52.8447769 L10.6298711,59.8506411 C10.6298711,60.1711269 10.8920954,60.4311814 11.2152552,60.4311814 L19.3733015,60.4311814 C19.6964613,60.4311814 19.9586856,60.1711269 19.9586856,59.8506411 L19.9586856,52.8447769 C19.9586856,52.5242911 19.6964613,52.2640551 19.3733015,52.2640551 L19.3733015,52.2640551 Z" id="Fill-12" fill="#F58C23"></path>
                    <path d="M32.6865335,52.2640551 L24.5284871,52.2640551 C24.2053273,52.2640551 23.9431031,52.5242911 23.9431031,52.8447769 L23.9431031,59.8506411 C23.9431031,60.1711269 24.2053273,60.4311814 24.5284871,60.4311814 L32.6865335,60.4311814 C33.0104253,60.4311814 33.2719175,60.1711269 33.2719175,59.8506411 L33.2719175,52.8447769 C33.2719175,52.5242911 33.0104253,52.2640551 32.6865335,52.2640551 L32.6865335,52.2640551 Z" id="Fill-13" fill="#F58C23"></path>
                    <path d="M45.9997655,52.2640551 L37.842451,52.2640551 C37.5185593,52.2640551 37.257067,52.5242911 37.257067,52.8447769 L37.257067,59.8506411 C37.257067,60.1711269 37.5185593,60.4311814 37.842451,60.4311814 L45.9997655,60.4311814 C46.3234742,60.4311814 46.5858814,60.1711269 46.5858814,59.8506411 L46.5858814,52.8447769 C46.5858814,52.5242911 46.3234742,52.2640551 45.9997655,52.2640551 L45.9997655,52.2640551 Z" id="Fill-14" fill="#F58C23"></path>
                    <path d="M59.3137294,52.2640551 L51.155683,52.2640551 C50.8325232,52.2640551 50.570116,52.5242911 50.570116,52.8447769 L50.570116,59.8506411 C50.570116,60.1711269 50.8325232,60.4311814 51.155683,60.4311814 L59.3137294,60.4311814 C59.6367062,60.4311814 59.8991134,60.1711269 59.8991134,59.8506411 L59.8991134,52.8447769 C59.8991134,52.5242911 59.6367062,52.2640551 59.3137294,52.2640551 L59.3137294,52.2640551 Z" id="Fill-15" fill="#F58C23"></path>
                </g>
                <ellipse id="Oval-77-Copy-9" fill="#F58C23" sketch:type="MSShapeGroup" cx="87.5034179" cy="85.6346135" rx="3.00011854" ry="3.01300565"></ellipse>
                <ellipse id="Oval-77-Copy-8" fill="#F58C23" sketch:type="MSShapeGroup" cx="78.9998815" cy="85.6346135" rx="3.00011854" ry="3.01300565"></ellipse>
            </g>
        </g>
    </g>
</svg>