<?xml version="1.0" encoding="UTF-8" standalone="no"?>
<svg width="96px" height="71px" viewBox="0 0 96 71" version="1.1" xmlns="http://www.w3.org/2000/svg" xmlns:xlink="http://www.w3.org/1999/xlink" xmlns:sketch="http://www.bohemiancoding.com/sketch/ns">
    <!-- Generator: Sketch 3.3.3 (12081) - http://www.bohemiancoding.com/sketch -->
    <title>money148 copy</title>
    <desc>Created with Sketch.</desc>
    <defs></defs>
    <g id="Page-1" stroke="none" stroke-width="1" fill="none" fill-rule="evenodd" sketch:type="MSPage">
        <g id="+-Cash-Example" sketch:type="MSArtboardGroup" transform="translate(-744.000000, -507.000000)">
            <rect id="Rectangle-1-Copy" fill="#F8FAFB" sketch:type="MSShapeGroup" x="0" y="75" width="1024" height="696"></rect>
            <g id="money148-copy" sketch:type="MSLayerGroup" transform="translate(744.000000, 507.000000)">
                <path d="M22.4821347,45.325 C16.2829696,45.325 10.4192338,44.615125 5.98560634,43.31475 C3.70291149,42.644875 1.87700925,41.845125 0.547846764,40.934875 C0.355212682,40.805 0.182742404,40.664875 0.00989167768,40.535 L0.00989167768,49.785 C0.00989167768,50.06475 0.0708903567,50.345125 0.192760898,50.615125 C1.59268692,53.854875 11.0379709,56.354875 22.4821347,56.354875 C33.9259181,56.354875 43.3810938,53.854875 44.7711281,50.615125 C44.8929987,50.345125 44.9538705,50.06475 44.9538705,49.785 L44.9538705,40.52475 C44.7815271,40.664875 44.5987847,40.79475 44.4159155,40.925125 C43.0972787,41.834875 41.2712497,42.635125 38.9781559,43.305 C34.5346367,44.604875 28.6807926,45.325 22.4821347,45.325 L22.4821347,45.325 Z" id="Fill-1" fill="#505050" sketch:type="MSShapeGroup"></path>
                <path d="M22.4821347,59.845125 C16.2829696,59.845125 10.4192338,59.135125 5.98560634,57.834875 C3.70291149,57.164875 1.87700925,56.365125 0.547846764,55.455 C0.355212682,55.325 0.182742404,55.184875 0.00989167768,55.055 L0.00989167768,64.305 C0.00989167768,64.584875 0.0708903567,64.865125 0.192760898,65.135125 C1.59268692,68.374875 11.0379709,70.874875 22.4821347,70.874875 C33.9259181,70.874875 43.3810938,68.374875 44.7711281,65.135125 C44.8929987,64.865125 44.9538705,64.584875 44.9538705,64.305 L44.9538705,55.055 C44.7815271,55.195125 44.5987847,55.325 44.4159155,55.455 C43.0972787,56.365125 41.2712497,57.164875 38.9781559,57.834875 C34.5346367,59.124875 28.6807926,59.845125 22.4821347,59.845125 L22.4821347,59.845125 Z" id="Fill-2" fill="#505050" sketch:type="MSShapeGroup"></path>
                <path d="M44.9434716,35.31475 C44.9434716,34.955 44.8425258,34.604875 44.6596565,34.265 C44.4566235,33.905125 44.1622827,33.555 43.766996,33.21525 C40.7639841,30.615125 32.3634135,28.75525 22.4717358,28.75525 C12.5800581,28.75525 4.17999472,30.624875 1.17698283,33.21525 C0.781188904,33.555 0.486974901,33.905125 0.283815059,34.265 C0.0911809775,34.604875 0,34.955 0,35.31475 C0,38.945125 10.0640211,41.885125 22.4717358,41.885125 C34.8898494,41.885125 44.9434716,38.945125 44.9434716,35.31475 L44.9434716,35.31475 Z" id="Fill-3" fill="#505050" sketch:type="MSShapeGroup"></path>
                <path d="M73.5030277,16.575 C67.3038626,16.575 61.44,15.865125 57.0064993,14.56475 C54.7238045,13.894875 52.8977754,13.095125 51.5687398,12.184875 C51.3759789,12.055 51.2036354,11.914875 51.0306579,11.785 L51.0306579,21.035 C51.0306579,21.31475 51.0916565,21.595125 51.2135271,21.865125 C52.6134531,25.104875 62.0587371,27.604875 73.5030277,27.604875 C84.9466843,27.604875 94.40186,25.104875 95.7918943,21.865125 C95.9137649,21.595125 95.9747635,21.31475 95.9747635,21.035 L95.9747635,11.785 C95.8022933,11.925125 95.6195509,12.055 95.4368085,12.184875 C94.1180449,13.095125 92.2921427,13.894875 89.9990489,14.56475 C85.5654214,15.865125 79.7015588,16.575 73.5030277,16.575 L73.5030277,16.575 Z" id="Fill-4" fill="#7EBE32" sketch:type="MSShapeGroup"></path>
                <path d="M73.5030277,31.095125 C67.3038626,31.095125 61.44,30.385125 57.0064993,29.084875 C54.7238045,28.414875 52.8977754,27.615125 51.5687398,26.705 C51.3759789,26.575 51.2036354,26.434875 51.0306579,26.305 L51.0306579,35.555 C51.0306579,35.834875 51.0916565,36.115125 51.2135271,36.385125 C52.6035614,39.624875 62.0488454,42.124875 73.5030277,42.124875 C84.9466843,42.124875 94.40186,39.624875 95.7918943,36.385125 C95.9137649,36.115125 95.9747635,35.834875 95.9747635,35.555 L95.9747635,26.305 C95.8022933,26.445125 95.6195509,26.575 95.4368085,26.705 C94.1180449,27.615125 92.2921427,28.414875 89.9990489,29.084875 C85.5654214,30.385125 79.7015588,31.095125 73.5030277,31.095125 L73.5030277,31.095125 Z" id="Fill-5" fill="#7EBE32" sketch:type="MSShapeGroup"></path>
                <path d="M73.5030277,45.325 C67.3038626,45.325 61.44,44.615125 57.0064993,43.31475 C54.7238045,42.644875 52.8977754,41.845125 51.5687398,40.934875 C51.3759789,40.805 51.2036354,40.664875 51.0306579,40.535 L51.0306579,49.785 C51.0306579,50.06475 51.0916565,50.345125 51.2135271,50.615125 C52.6134531,53.854875 62.0587371,56.354875 73.5030277,56.354875 C84.9466843,56.354875 94.40186,53.854875 95.7918943,50.615125 C95.9137649,50.345125 95.9747635,50.06475 95.9747635,49.785 L95.9747635,40.52475 C95.8022933,40.664875 95.6195509,40.79475 95.4368085,40.925125 C94.1180449,41.834875 92.2921427,42.635125 89.9990489,43.305 C85.5654214,44.604875 79.7015588,45.325 73.5030277,45.325 L73.5030277,45.325 Z" id="Fill-6" fill="#505050" sketch:type="MSShapeGroup"></path>
                <path d="M73.5030277,59.54475 C67.3038626,59.54475 61.44,58.834875 57.0064993,57.535 C54.7238045,56.865125 52.8977754,56.06475 51.5687398,55.155125 C51.3759789,55.02475 51.2036354,54.885125 51.0306579,54.75525 L51.0306579,64.00525 C51.0306579,64.285 51.0916565,64.56475 51.2135271,64.834875 C52.6134531,68.075 62.0587371,70.575 73.5030277,70.575 C84.9466843,70.575 94.40186,68.075 95.7918943,64.834875 C95.9137649,64.56475 95.9747635,64.285 95.9747635,64.00525 L95.9747635,54.75525 C95.8022933,54.894875 95.6195509,55.02475 95.4368085,55.155125 C94.1180449,56.06475 92.2921427,56.865125 89.9990489,57.535 C85.5654214,58.834875 79.7015588,59.54475 73.5030277,59.54475 L73.5030277,59.54475 Z" id="Fill-7" fill="#505050" sketch:type="MSShapeGroup"></path>
                <path d="M95.9747635,6.575 C95.9747635,6.21525 95.8731836,5.865125 95.6904412,5.52475 C95.4877886,5.164875 95.1935746,4.81475 94.7977807,4.475 C91.7947688,1.874875 83.3947054,0.015 73.5030277,0.015 C63.6113501,0.015 55.2106526,1.885125 52.2077675,4.475 C51.8119736,4.81475 51.5176328,5.164875 51.315107,5.52475 C51.1223461,5.865125 51.0306579,6.21525 51.0306579,6.575 C51.0306579,10.205 61.0953131,13.144875 73.5030277,13.144875 C85.9106156,13.135125 95.9747635,10.195125 95.9747635,6.575 L95.9747635,6.575 Z" id="Fill-8" fill="#7EBE32" sketch:type="MSShapeGroup"></path>
            </g>
        </g>
    </g>
</svg>