<?xml version="1.0" encoding="UTF-8" standalone="no"?>
<svg width="216px" height="152px" viewBox="0 0 216 152" version="1.1" xmlns="http://www.w3.org/2000/svg" xmlns:xlink="http://www.w3.org/1999/xlink" xmlns:sketch="http://www.bohemiancoding.com/sketch/ns">
    <!-- Generator: Sketch 3.4.3 (16618) - http://www.bohemiancoding.com/sketch -->
    <title>Group</title>
    <desc>Created with Sketch.</desc>
    <defs>
        <linearGradient x1="91.4062108%" y1="-32.8762273%" x2="16.3354027%" y2="123.196752%" id="linearGradient-1">
            <stop stop-color="#FFFFFF" offset="0%"></stop>
            <stop stop-color="#D5DCE9" offset="100%"></stop>
        </linearGradient>
    </defs>
    <g id="Page-1" stroke="none" stroke-width="1" fill="none" fill-rule="evenodd" sketch:type="MSPage">
        <g id="6-Shares" sketch:type="MSArtboardGroup" transform="translate(-134.000000, -426.000000)">
            <g id="Group" sketch:type="MSLayerGroup" transform="translate(134.000000, 426.000000)">
                <ellipse id="Oval-298" fill="url(#linearGradient-1)" sketch:type="MSShapeGroup" cx="107.276842" cy="75.7591282" rx="76.4420629" ry="75.7294124"></ellipse>
                <g id="city8" transform="translate(161.000000, 7.000000)" sketch:type="MSShapeGroup">
                    <path d="M0.678903545,0.101556379 L24.2266527,15.6778626 L24.2266527,108.657196 L0.678903545,108.657196 L0.678903545,0.101556379 Z" id="Fill-1" fill="#4D73AF"></path>
                    <path d="M26.0622452,67.1170564 L26.0622452,108.171215 L54.8977804,108.171215 L54.8977804,76.4453947 L26.0622452,67.1170564 Z M38.2421154,99.2441227 L29.4283184,96.6447487 L29.4283184,88.9438229 L38.2421154,92.1861868 L38.2421154,99.2441227 Z M38.2421154,85.7712408 L29.4283184,83.1818357 L29.4283184,75.4809099 L38.2421154,78.7232738 L38.2421154,85.7712408 Z M49.2950401,102.486487 L40.4812431,99.8871126 L40.4812431,92.1861868 L49.2950401,95.4285507 L49.2950401,102.486487 Z M49.2950401,89.0210814 L40.4812431,86.4217074 L40.4812431,78.7232738 L49.2950401,81.9631455 L49.2950401,89.0210814 Z" id="Fill-2" fill="#4D73AE"></path>
                </g>
                <ellipse id="Oval-77" fill="#FCA63A" sketch:type="MSShapeGroup" cx="85.5034179" cy="83.6346135" rx="3.00011854" ry="3.01300565"></ellipse>
                <ellipse id="Oval-77-Copy" fill="#FCA63A" sketch:type="MSShapeGroup" cx="94.0037537" cy="83.6346135" rx="3.00011854" ry="3.01300565"></ellipse>
                <ellipse id="Oval-77-Copy-3" fill="#FCA63A" sketch:type="MSShapeGroup" cx="76.9998815" cy="83.6346135" rx="3.00011854" ry="3.01300565"></ellipse>
                <rect id="Rectangle-193" fill="#FFFFFF" sketch:type="MSShapeGroup" x="14" y="79" width="56" height="28"></rect>
                <path d="M13,72 L59.0108683,72 L64,70 L52,48 L17,67 L13,72 Z" id="Path-604" fill="#FFFFFF" sketch:type="MSShapeGroup"></path>
                <g id="Group-Copy" transform="translate(0.000000, 44.000000)" sketch:type="MSShapeGroup">
                    <g id="money146-copy-2" fill="#A6B7C2">
                        <path d="M15.3487714,36.4639077 L66.8767898,36.4639077 L66.8767898,63.4736345 L15.3487714,63.4736345 L15.3487714,36.4639077 Z M10.9599821,67.886831 L71.2655792,67.886831 L71.2655792,32.0472661 L10.9599821,32.0472661 L10.9599821,67.886831 Z" id="Fill-1"></path>
                        <path d="M54.8170409,32.0472661 L60.987384,38.2657045 C60.9462712,38.4965274 60.8537675,38.6963443 60.8537675,38.9375025 C60.8537675,40.9184455 62.4468877,42.5204255 64.4134491,42.5204255 C64.6532736,42.5204255 64.8554115,42.4239622 65.0815318,42.3826208 L71.2655792,48.5872787 L71.2655792,32.0472661 L54.8170409,32.0472661 Z" id="Fill-2"></path>
                        <path d="M62.4845744,49.9756613 C62.4845744,51.9393787 60.8914542,53.5413587 58.9248929,53.5413587 C56.9583315,53.5413587 55.3652113,51.9393787 55.3652113,49.9756613 C55.3652113,47.9947183 56.9583315,46.3961835 58.9248929,46.3961835 C60.8914542,46.3961835 62.4845744,47.9947183 62.4845744,49.9756613 L62.4845744,49.9756613 Z" id="Fill-3"></path>
                        <path d="M51.874051,49.9756613 C51.874051,55.1674545 47.0535774,59.3808341 41.1127806,59.3808341 C35.1719838,59.3808341 30.3515103,55.1674545 30.3515103,49.9756613 C30.3515103,44.7666426 35.1719838,40.553263 41.1127806,40.553263 C47.0535774,40.553263 51.874051,44.7666426 51.874051,49.9756613 L51.874051,49.9756613 Z" id="Fill-4"></path>
                        <path d="M26.8466458,49.9756613 C26.8466458,51.9393787 25.2672298,53.5413587 23.3006684,53.5413587 C21.3341071,53.5413587 19.7409868,51.9393787 19.7409868,49.9756613 C19.7409868,47.9947183 21.3341071,46.3961835 23.3006684,46.3961835 C25.2672298,46.3961835 26.8466458,47.9947183 26.8466458,49.9756613 L26.8466458,49.9756613 Z" id="Fill-5"></path>
                        <path d="M10.9599821,48.5872787 L17.1303253,42.3826208 C17.3564456,42.4239622 17.5722877,42.5204255 17.8121122,42.5204255 C19.7786736,42.5204255 21.3717938,40.9184455 21.3717938,38.9375025 C21.3717938,38.6963443 21.27929,38.4965274 21.2381773,38.2657045 L27.4085204,32.0472661 L10.9599821,32.0472661 L10.9599821,48.5872787 Z" id="Fill-6"></path>
                        <path d="M21.3717938,60.9965945 C21.3717938,59.0190967 19.7786736,57.4171167 17.8121122,57.4171167 C17.5722877,57.4171167 17.3701498,57.5101349 17.1440295,57.5514763 L10.9599821,51.3468184 L10.9599821,67.886831 L27.4085204,67.886831 L21.2381773,61.6821731 C21.27929,61.4547953 21.3717938,61.2377528 21.3717938,60.9965945 L21.3717938,60.9965945 Z" id="Fill-7"></path>
                        <path d="M64.4134491,57.4171167 C62.4468877,57.4171167 60.8537675,59.0190967 60.8537675,60.9965945 C60.8537675,61.2377528 60.9462712,61.4410148 60.987384,61.6683926 L54.8170409,67.886831 L71.2655792,67.886831 L71.2655792,51.3468184 L65.095236,57.5514763 C64.8691157,57.5101349 64.6532736,57.4171167 64.4134491,57.4171167 L64.4134491,57.4171167 Z" id="Fill-8"></path>
                        <path d="M54.8170409,22.0770939 C54.8170409,24.0408113 53.2239206,25.6427913 51.2573593,25.6427913 C49.2907979,25.6427913 47.7113819,24.0408113 47.7113819,22.0770939 C47.7113819,20.0995961 49.2907979,18.4976161 51.2573593,18.4976161 C53.2239206,18.4976161 54.8170409,20.0995961 54.8170409,22.0770939 L54.8170409,22.0770939 Z" id="Fill-9"></path>
                        <path d="M6.85213011,32.0472661 C6.85213011,29.7734881 8.69877917,27.9165693 10.9599821,27.9165693 L13.2074808,27.9165693 L13.3171149,27.5686124 L45.0459033,10.0984179 L47.4681313,10.8115574 C47.5366526,11.0285998 47.5640611,11.2559776 47.6839734,11.4730201 C48.6192892,13.2093596 50.7879884,13.8398163 52.5147251,12.8855185 C52.716863,12.7787199 52.8641838,12.6030188 53.035487,12.4410983 L55.4611411,13.1542377 L60.987384,23.3138914 L60.2781885,25.74959 C60.0623465,25.8184923 59.8362262,25.8460533 59.6203841,25.9528519 C58.8186848,26.3972722 58.2842187,27.1241921 58.0032814,27.9165693 L68.5075968,27.9165693 L61.4156421,14.9043578 L53.5185622,0.39696496 L39.0914023,8.35174294 L0.63039597,29.5185493 L6.85213011,40.9563418 L6.85213011,32.0472661 Z" id="Fill-10"></path>
                        <path d="M31.1429313,22.4250509 C28.7481119,23.7307507 27.0350793,25.7254741 26.068929,27.9165693 L45.8921414,27.9165693 C45.7311163,27.0828507 45.4878657,26.2629126 45.0733118,25.4808708 C42.5859886,20.9195342 36.3471242,19.5587125 31.1429313,22.4250509 L31.1429313,22.4250509 Z" id="Fill-11"></path>
                    </g>
                    <path d="M15.3487714,36.4639077 L66.8767898,36.4639077 L66.8767898,63.4736345 L15.3487714,63.4736345 L15.3487714,36.4639077 Z M10.9599821,67.886831 L71.2655792,67.886831 L71.2655792,32.0472661 L10.9599821,32.0472661 L10.9599821,67.886831 Z" id="Fill-1" fill="#279EEE"></path>
                    <path d="M54.8170409,32.0472661 L60.987384,38.2657045 C60.9462712,38.4965274 60.8537675,38.6963443 60.8537675,38.9375025 C60.8537675,40.9184455 62.4468877,42.5204255 64.4134491,42.5204255 C64.6532736,42.5204255 64.8554115,42.4239622 65.0815318,42.3826208 L71.2655792,48.5872787 L71.2655792,32.0472661 L54.8170409,32.0472661 Z" id="Fill-2" fill="#279EEE"></path>
                    <path d="M62.4845744,49.9756613 C62.4845744,51.9393787 60.8914542,53.5413587 58.9248929,53.5413587 C56.9583315,53.5413587 55.3652113,51.9393787 55.3652113,49.9756613 C55.3652113,47.9947183 56.9583315,46.3961835 58.9248929,46.3961835 C60.8914542,46.3961835 62.4845744,47.9947183 62.4845744,49.9756613 L62.4845744,49.9756613 Z" id="Fill-3" fill="#279EEE"></path>
                    <path d="M51.874051,49.9756613 C51.874051,55.1674545 47.0535774,59.3808341 41.1127806,59.3808341 C35.1719838,59.3808341 30.3515103,55.1674545 30.3515103,49.9756613 C30.3515103,44.7666426 35.1719838,40.553263 41.1127806,40.553263 C47.0535774,40.553263 51.874051,44.7666426 51.874051,49.9756613 L51.874051,49.9756613 Z" id="Fill-4" fill="#279EEE"></path>
                    <path d="M26.8466458,49.9756613 C26.8466458,51.9393787 25.2672298,53.5413587 23.3006684,53.5413587 C21.3341071,53.5413587 19.7409868,51.9393787 19.7409868,49.9756613 C19.7409868,47.9947183 21.3341071,46.3961835 23.3006684,46.3961835 C25.2672298,46.3961835 26.8466458,47.9947183 26.8466458,49.9756613 L26.8466458,49.9756613 Z" id="Fill-5" fill="#279EEE"></path>
                    <path d="M10.9599821,48.5872787 L17.1303253,42.3826208 C17.3564456,42.4239622 17.5722877,42.5204255 17.8121122,42.5204255 C19.7786736,42.5204255 21.3717938,40.9184455 21.3717938,38.9375025 C21.3717938,38.6963443 21.27929,38.4965274 21.2381773,38.2657045 L27.4085204,32.0472661 L10.9599821,32.0472661 L10.9599821,48.5872787 Z" id="Fill-6" fill="#279EEE"></path>
                    <path d="M21.3717938,60.9965945 C21.3717938,59.0190967 19.7786736,57.4171167 17.8121122,57.4171167 C17.5722877,57.4171167 17.3701498,57.5101349 17.1440295,57.5514763 L10.9599821,51.3468184 L10.9599821,67.886831 L27.4085204,67.886831 L21.2381773,61.6821731 C21.27929,61.4547953 21.3717938,61.2377528 21.3717938,60.9965945 L21.3717938,60.9965945 Z" id="Fill-7" fill="#279EEE"></path>
                    <path d="M64.4134491,57.4171167 C62.4468877,57.4171167 60.8537675,59.0190967 60.8537675,60.9965945 C60.8537675,61.2377528 60.9462712,61.4410148 60.987384,61.6683926 L54.8170409,67.886831 L71.2655792,67.886831 L71.2655792,51.3468184 L65.095236,57.5514763 C64.8691157,57.5101349 64.6532736,57.4171167 64.4134491,57.4171167 L64.4134491,57.4171167 Z" id="Fill-8" fill="#279EEE"></path>
                    <path d="M54.8170409,22.0770939 C54.8170409,24.0408113 53.2239206,25.6427913 51.2573593,25.6427913 C49.2907979,25.6427913 47.7113819,24.0408113 47.7113819,22.0770939 C47.7113819,20.0995961 49.2907979,18.4976161 51.2573593,18.4976161 C53.2239206,18.4976161 54.8170409,20.0995961 54.8170409,22.0770939 L54.8170409,22.0770939 Z" id="Fill-9" fill="#1C82C6"></path>
                    <path d="M6.85213011,32.0472661 C6.85213011,29.7734881 8.69877917,27.9165693 10.9599821,27.9165693 L13.2074808,27.9165693 L13.3171149,27.5686124 L45.0459033,10.0984179 L47.4681313,10.8115574 C47.5366526,11.0285998 47.5640611,11.2559776 47.6839734,11.4730201 C48.6192892,13.2093596 50.7879884,13.8398163 52.5147251,12.8855185 C52.716863,12.7787199 52.8641838,12.6030188 53.035487,12.4410983 L55.4611411,13.1542377 L60.987384,23.3138914 L60.2781885,25.74959 C60.0623465,25.8184923 59.8362262,25.8460533 59.6203841,25.9528519 C58.8186848,26.3972722 58.2842187,27.1241921 58.0032814,27.9165693 L68.5075968,27.9165693 L61.4156421,14.9043578 L53.5185622,0.39696496 L39.0914023,8.35174294 L0.63039597,29.5185493 L6.85213011,40.9563418 L6.85213011,32.0472661 Z" id="Fill-10" fill="#1C82C6"></path>
                    <path d="M31.1429313,22.4250509 C28.7481119,23.7307507 27.0350793,25.7254741 26.068929,27.9165693 L45.8921414,27.9165693 C45.7311163,27.0828507 45.4878657,26.2629126 45.0733118,25.4808708 C42.5859886,20.9195342 36.3471242,19.5587125 31.1429313,22.4250509 L31.1429313,22.4250509 Z" id="Fill-11" fill="#1C82C6"></path>
                </g>
                <path d="M131,99 L131,27 L158,10 L157,82 L131,99 Z" id="Path-605" fill="#FFFFFF" sketch:type="MSShapeGroup"></path>
                <path d="M123,107 L123,78 L123,72 L122,54 L105,61 L105,109 L123,107 Z" id="Path-606" fill="#FFFFFF" sketch:type="MSShapeGroup"></path>
                <path d="M129.873448,25.5987316 L129.873448,87.2509979 L125.712608,90.0048888 L125.712608,69.4167503 L123.067485,70.5158144 L123.067485,49.9849967 L103.835593,58.5806255 L103.835593,78.5855872 L102,79.3556798 L102,115.657196 L158.987029,115.657196 L158.987029,6.78006142 L129.873448,25.5987316 Z M105.604749,62.4933937 L112.093299,59.4578831 L112.093299,67.3606778 L105.604749,70.2815468 L105.604749,62.4933937 Z M106.084563,75.315809 L112.573112,72.2678374 L112.573112,80.1830932 L106.084563,83.1039621 L106.084563,75.315809 Z M112.765037,103.722007 L106.28633,106.652845 L106.28633,98.854723 L112.765037,95.8167202 L112.765037,103.722007 Z M112.765037,91.6796533 L106.28633,94.6005222 L106.28633,86.8123691 L112.765037,83.7743663 L112.765037,91.6796533 Z M113.697597,58.6877905 L120.186146,55.6398189 L120.186146,63.5550747 L113.697597,66.4759436 L113.697597,58.6877905 Z M114.17741,71.500237 L120.665959,68.4522654 L120.665959,76.3675212 L114.17741,79.2958668 L114.17741,71.500237 Z M121.426278,99.9562794 L114.937729,102.884625 L114.937729,95.086503 L121.426278,92.0509924 L121.426278,99.9562794 Z M121.426278,87.9114333 L114.937729,90.8323022 L114.937729,83.0441491 L121.426278,79.9986697 L121.426278,87.9114333 Z M142.205875,89.2746716 L133.237061,94.9718614 L133.237061,86.5307495 L142.205875,80.6491362 L142.205875,89.2746716 Z M142.205875,75.0242205 L133.237061,80.7089493 L133.237061,72.2678374 L142.205875,66.3887163 L142.205875,75.0242205 Z M142.205875,60.7613084 L133.237061,66.456006 L133.237061,58.0148941 L142.205875,52.1258042 L142.205875,60.7613084 Z M142.205875,46.5083651 L133.237061,52.1930939 L133.237061,43.7544742 L142.205875,37.8728609 L142.205875,46.5083651 Z M142.205875,32.2479452 L133.237061,37.9326739 L133.237061,29.4915621 L142.205875,23.612441 L142.205875,32.2479452 Z M155.507769,80.8534974 L145.089674,87.455359 L145.089674,78.762534 L155.507769,71.9264047 L155.507769,80.8534974 Z M155.507769,66.5930775 L145.089674,73.1924469 L145.089674,64.4996219 L155.507769,57.6759537 L155.507769,66.5930775 Z M155.507769,52.3301653 L145.089674,58.9395036 L145.089674,50.2367098 L155.507769,43.4130415 L155.507769,52.3301653 Z M155.507769,38.0772221 L145.089674,44.6790837 L145.089674,35.9862587 L155.507769,29.1501294 L155.507769,38.0772221 Z M155.507769,23.8168022 L145.089674,30.4161716 L145.089674,21.7233466 L155.507769,14.8897095 L155.507769,23.8168022 Z" id="Fill-3-Copy" fill="#1F4581" sketch:type="MSShapeGroup"></path>
            </g>
        </g>
    </g>
</svg>