<?xml version="1.0" encoding="UTF-8" standalone="no"?>
<svg width="162px" height="152px" viewBox="0 0 162 152" version="1.1" xmlns="http://www.w3.org/2000/svg" xmlns:xlink="http://www.w3.org/1999/xlink" xmlns:sketch="http://www.bohemiancoding.com/sketch/ns">
    <!-- Generator: Sketch 3.4.4 (17249) - http://www.bohemiancoding.com/sketch -->
    <title>Group</title>
    <desc>Created with Sketch.</desc>
    <defs>
        <linearGradient x1="91.4062108%" y1="-32.8762273%" x2="16.3354027%" y2="123.196752%" id="linearGradient-1">
            <stop stop-color="#FFFFFF" offset="0%"></stop>
            <stop stop-color="#D5DCE9" offset="100%"></stop>
        </linearGradient>
        <path d="M51.8296653,15.7099765 L32.2251918,0 L12.596197,15.7099765 L0.835964912,15.7099765 L0.835964912,96 L24.3809501,96 L40.0694332,96 L63.6144184,96 L63.6144184,15.7099765 L51.8296653,15.7099765 Z M20.4526991,64.7606118 L28.3092011,64.7606118 L28.3092011,73.6941176 L20.4526991,73.6941176 L20.4526991,64.7606118 Z M20.4526991,46.9214824 L28.3092011,46.9214824 L28.3092011,55.8549882 L20.4526991,55.8549882 L20.4526991,46.9214824 Z M20.4526991,29.0823529 L28.3092011,29.0823529 L28.3092011,38.0158588 L20.4526991,38.0158588 L20.4526991,29.0823529 Z M36.1411822,64.7606118 L43.9976842,64.7606118 L43.9976842,73.6941176 L36.1411822,73.6941176 L36.1411822,64.7606118 Z M36.1411822,46.9214824 L43.9976842,46.9214824 L43.9976842,55.8549882 L36.1411822,55.8549882 L36.1411822,46.9214824 Z M36.1411822,29.0823529 L43.9976842,29.0823529 L43.9976842,38.0158588 L36.1411822,38.0158588 L36.1411822,29.0823529 Z" id="path-2"></path>
    </defs>
    <g id="Page-1" stroke="none" stroke-width="1" fill="none" fill-rule="evenodd" sketch:type="MSPage">
        <g id="6-Shares" sketch:type="MSArtboardGroup" transform="translate(-432.000000, -425.000000)">
            <g id="Group" sketch:type="MSLayerGroup" transform="translate(432.000000, 425.000000)">
                <ellipse id="Oval-298-Copy" fill="url(#linearGradient-1)" sketch:type="MSShapeGroup" cx="80.0414642" cy="76.02353" rx="76.4420629" ry="75.7294124"></ellipse>
                <rect id="Rectangle-194" fill="#FFFFFF" sketch:type="MSShapeGroup" x="63" y="39" width="39" height="50"></rect>
                <g id="Rectangle-195" transform="translate(48.000000, 17.000000)">
                    <mask id="mask-3" sketch:name="Mask" fill="white">
                        <use xlink:href="#path-2"></use>
                    </mask>
                    <use id="Mask" fill="#4D73AE" sketch:type="MSShapeGroup" xlink:href="#path-2"></use>
                    <rect fill="#204581" sketch:type="MSShapeGroup" mask="url(#mask-3)" x="32" y="-3" width="37" height="96"></rect>
                </g>
                <path d="M34.8333333,66.4878049 L2.75,76.5487805 L16.5,122.280488 L51.3333333,115.878049 L34.8333333,66.4878049 Z" id="Path-722" fill="#FFFFFF" sketch:type="MSShapeGroup"></path>
                <path d="M32.5306748,61.1629279 L4.30337205,68.7264109 C1.60530881,69.4493548 0.00213489081,72.2051421 0.71310351,74.8585131 L15.8852871,131.481873 C16.5994911,134.147319 19.3625387,135.720239 22.0606019,134.997295 L50.2879046,127.433812 C52.9859679,126.710868 54.5923772,123.967155 53.8781732,121.30171 L38.7059896,64.6783499 C37.995021,62.0249789 35.228738,60.4399841 32.5306748,61.1629279 L32.5306748,61.1629279 Z M12.1463216,69.7477053 L26.0735836,66.0159067 C26.4310846,65.9201146 26.8574278,66.3623568 27.0280926,66.9992866 C27.2019928,67.6482909 27.0538899,68.2444555 26.6963888,68.3402476 L12.7691269,72.0720462 C12.4085703,72.168657 11.9944494,71.7231399 11.8205492,71.0741356 C11.6498844,70.4372058 11.7857651,69.8443161 12.1463216,69.7477053 L12.1463216,69.7477053 Z M34.9861392,126.447483 C33.2658565,126.908431 31.4876024,125.906357 31.0330355,124.20989 C30.5776597,122.510405 31.6166358,120.753456 33.3369185,120.292508 C35.0419234,119.835653 36.8079552,120.841002 37.263331,122.540488 C37.717898,124.236955 36.6911441,125.990628 34.9861392,126.447483 L34.9861392,126.447483 Z M5.25631074,77.203368 L35.9188982,68.9873524 L47.3874124,111.78843 L16.724825,120.004446 L5.25631074,77.203368 Z" id="iphone26" fill="#279EEE" sketch:type="MSShapeGroup"></path>
                <g id="Oval-146-+-camera44-+-Path-Copy-26" transform="translate(133.000000, 109.500000) rotate(7.000000) translate(-133.000000, -109.500000) translate(102.000000, 82.000000)" sketch:type="MSShapeGroup">
                    <ellipse id="Oval-146" fill="#FFFFFF" cx="31" cy="28.4322034" rx="17.119403" ry="17.2457627"></ellipse>
                    <g id="camera44-+-Path-Copy-26" transform="translate(31.000000, 27.500000) rotate(13.000000) translate(-31.000000, -27.500000) translate(4.626866, 5.593220)">
                        <g id="camera44" fill="#279EEE">
                            <path d="M49.3794544,6.71021911 L37.8573246,6.71021911 C37.0345908,3.36849109 36.2118571,0.02611031 32.9196363,0.02611031 L19.752039,0.02611031 C16.4598181,0.02611031 15.6370844,3.36849109 14.8137077,6.71021911 L3.29222081,6.71021911 C1.48138363,6.71021911 0,8.21417297 0,10.0525999 L0,40.1314159 C0,41.9698428 1.48138363,43.4737967 3.29222081,43.4737967 L49.3794544,43.4737967 C51.1897773,43.4737967 52.6716753,41.9698428 52.6716753,40.1314159 L52.6716753,10.0525999 C52.6716753,8.21417297 51.1897773,6.71021911 49.3794544,6.71021911 L49.3794544,6.71021911 Z M26.3358376,39.9229251 C18.2676977,39.9229251 11.7274918,33.2830732 11.7274918,25.0920079 C11.7274918,16.9014648 18.2676977,10.2610907 26.3358376,10.2610907 C34.4034632,10.2610907 40.9435405,16.9014648 40.9435405,25.0920079 C40.9435405,33.2830732 34.4039776,39.9229251 26.3358376,39.9229251 L26.3358376,39.9229251 Z M42.7956558,13.3943279 L49.3794544,13.3943279 L49.3794544,16.7367087 L42.7956558,16.7367087 L42.7956558,13.3943279 Z" id="Fill-1"></path>
                        </g>
                        <path d="M15.6882642,25.3529804 C15.6882642,31.3516936 20.4778141,36.2147388 26.3870174,36.2147388 C32.2957063,36.2147388 37.0857706,31.3516936 37.0857706,25.3529804 C37.0857706,19.3542673 32.2957063,14.491222 26.3870174,14.491222 C20.4778141,14.491222 15.6882642,19.3542673 15.6882642,25.3529804 L15.6882642,25.3529804 Z" id="Path-Copy-26" fill="#1D82C6"></path>
                    </g>
                </g>
                <rect id="Rectangle-285" fill="#F58C23" sketch:type="MSShapeGroup" transform="translate(23.538582, 84.288406) rotate(-15.000000) translate(-23.538582, -84.288406) " x="11.2376629" y="78.1851352" width="24.6018381" height="12.2065408"></rect>
                <rect id="Rectangle-285-Copy" fill="#EB7626" sketch:type="MSShapeGroup" transform="translate(27.461418, 99.079019) rotate(-15.000000) translate(-27.461418, -99.079019) " x="15.160499" y="92.9757482" width="24.6018381" height="12.2065408"></rect>
            </g>
        </g>
    </g>
</svg>