<?xml version="1.0" encoding="UTF-8" standalone="no"?>
<svg width="162px" height="152px" viewBox="0 0 162 152" version="1.1" xmlns="http://www.w3.org/2000/svg" xmlns:xlink="http://www.w3.org/1999/xlink" xmlns:sketch="http://www.bohemiancoding.com/sketch/ns">
    <!-- Generator: Sketch 3.4.3 (16618) - http://www.bohemiancoding.com/sketch -->
    <title>Group</title>
    <desc>Created with Sketch.</desc>
    <defs>
        <linearGradient x1="91.4062108%" y1="-32.8762273%" x2="16.3354027%" y2="123.196752%" id="linearGradient-1">
            <stop stop-color="#FFFFFF" offset="0%"></stop>
            <stop stop-color="#D5DCE9" offset="100%"></stop>
        </linearGradient>
        <path d="M51.8296653,15.7099765 L32.2251918,0 L12.596197,15.7099765 L0.835964912,15.7099765 L0.835964912,96 L24.3809501,96 L40.0694332,96 L63.6144184,96 L63.6144184,15.7099765 L51.8296653,15.7099765 Z M20.4526991,64.7606118 L28.3092011,64.7606118 L28.3092011,73.6941176 L20.4526991,73.6941176 L20.4526991,64.7606118 Z M20.4526991,46.9214824 L28.3092011,46.9214824 L28.3092011,55.8549882 L20.4526991,55.8549882 L20.4526991,46.9214824 Z M20.4526991,29.0823529 L28.3092011,29.0823529 L28.3092011,38.0158588 L20.4526991,38.0158588 L20.4526991,29.0823529 Z M36.1411822,64.7606118 L43.9976842,64.7606118 L43.9976842,73.6941176 L36.1411822,73.6941176 L36.1411822,64.7606118 Z M36.1411822,46.9214824 L43.9976842,46.9214824 L43.9976842,55.8549882 L36.1411822,55.8549882 L36.1411822,46.9214824 Z M36.1411822,29.0823529 L43.9976842,29.0823529 L43.9976842,38.0158588 L36.1411822,38.0158588 L36.1411822,29.0823529 Z" id="path-2"></path>
    </defs>
    <g id="Page-1" stroke="none" stroke-width="1" fill="none" fill-rule="evenodd" sketch:type="MSPage">
        <g id="6-Shares" sketch:type="MSArtboardGroup" transform="translate(-432.000000, -425.000000)">
            <g id="Group" sketch:type="MSLayerGroup" transform="translate(432.000000, 425.000000)">
                <ellipse id="Oval-298-Copy" fill="url(#linearGradient-1)" sketch:type="MSShapeGroup" cx="80.0414642" cy="76.02353" rx="76.4420629" ry="75.7294124"></ellipse>
                <rect id="Rectangle-194" fill="#FFFFFF" sketch:type="MSShapeGroup" x="63" y="39" width="39" height="50"></rect>
                <g id="Rectangle-195" transform="translate(48.000000, 17.000000)">
                    <mask id="mask-3" sketch:name="Mask" fill="white">
                        <use xlink:href="#path-2"></use>
                    </mask>
                    <use id="Mask" fill="#4D73AE" sketch:type="MSShapeGroup" xlink:href="#path-2"></use>
                    <rect fill="#204581" sketch:type="MSShapeGroup" mask="url(#mask-3)" x="32" y="-3" width="37" height="96"></rect>
                </g>
                <g transform="translate(0.000000, 61.000000)" sketch:type="MSShapeGroup">
                    <path d="M34.8333333,5.48780488 L2.75,15.5487805 L16.5,61.2804878 L51.3333333,54.8780488 L34.8333333,5.48780488 Z" id="Path-722" fill="#FFFFFF"></path>
                    <path d="M32.5306748,0.162927921 L4.30337205,7.72641088 C1.60530881,8.44935475 0.00213489081,11.2051421 0.71310351,13.8585131 L15.8852871,70.4818731 C16.5994911,73.1473186 19.3625387,74.7202389 22.0606019,73.997295 L50.2879046,66.4338121 C52.9859679,65.7108682 54.5923772,62.9671554 53.8781732,60.3017099 L38.7059896,3.67834992 C37.995021,1.02497891 35.228738,-0.560015947 32.5306748,0.162927921 L32.5306748,0.162927921 Z M12.1463216,8.74770526 L26.0735836,5.01590668 C26.4310846,4.92011457 26.8574278,5.36235682 27.0280926,5.9992866 C27.2019928,6.64829089 27.0538899,7.2444555 26.6963888,7.34024761 L12.7691269,11.0720462 C12.4085703,11.168657 11.9944494,10.7231399 11.8205492,10.0741356 C11.6498844,9.43720578 11.7857651,8.84431611 12.1463216,8.74770526 L12.1463216,8.74770526 Z M34.9861392,65.4474831 C33.2658565,65.9084315 31.4876024,64.9063573 31.0330355,63.2098903 C30.5776597,61.5104047 31.6166358,59.753456 33.3369185,59.2925076 C35.0419234,58.8356529 36.8079552,59.841002 37.263331,61.5404877 C37.717898,63.2369547 36.6911441,64.9906285 34.9861392,65.4474831 L34.9861392,65.4474831 Z M5.25631074,16.203368 L35.9188982,7.98735244 L47.3874124,50.7884304 L16.724825,59.004446 L5.25631074,16.203368 Z" id="iphone26" fill="#279EEE"></path>
                    <rect id="Rectangle-169" fill="#F58C23" x="13.2934868" y="19.2451451" width="21.0833333" height="11.8902439"></rect>
                    <rect id="Rectangle-169-Copy" fill="#EB7626" x="17.8768202" y="34.7939256" width="21.0833333" height="11.8902439"></rect>
                </g>
                <g id="Oval-146-+-camera44-+-Path-Copy-26" transform="translate(133.000000, 109.500000) rotate(7.000000) translate(-133.000000, -109.500000) translate(102.000000, 82.000000)" sketch:type="MSShapeGroup">
                    <ellipse id="Oval-146" fill="#FFFFFF" cx="31" cy="28.4322034" rx="17.119403" ry="17.2457627"></ellipse>
                    <g id="camera44-+-Path-Copy-26" transform="translate(31.000000, 27.500000) rotate(13.000000) translate(-31.000000, -27.500000) translate(4.626866, 5.593220)">
                        <g id="camera44" fill="#279EEE">
                            <path d="M49.3794544,6.71021911 L37.8573246,6.71021911 C37.0345908,3.36849109 36.2118571,0.02611031 32.9196363,0.02611031 L19.752039,0.02611031 C16.4598181,0.02611031 15.6370844,3.36849109 14.8137077,6.71021911 L3.29222081,6.71021911 C1.48138363,6.71021911 0,8.21417297 0,10.0525999 L0,40.1314159 C0,41.9698428 1.48138363,43.4737967 3.29222081,43.4737967 L49.3794544,43.4737967 C51.1897773,43.4737967 52.6716753,41.9698428 52.6716753,40.1314159 L52.6716753,10.0525999 C52.6716753,8.21417297 51.1897773,6.71021911 49.3794544,6.71021911 L49.3794544,6.71021911 Z M26.3358376,39.9229251 C18.2676977,39.9229251 11.7274918,33.2830732 11.7274918,25.0920079 C11.7274918,16.9014648 18.2676977,10.2610907 26.3358376,10.2610907 C34.4034632,10.2610907 40.9435405,16.9014648 40.9435405,25.0920079 C40.9435405,33.2830732 34.4039776,39.9229251 26.3358376,39.9229251 L26.3358376,39.9229251 Z M42.7956558,13.3943279 L49.3794544,13.3943279 L49.3794544,16.7367087 L42.7956558,16.7367087 L42.7956558,13.3943279 Z" id="Fill-1"></path>
                        </g>
                        <path d="M15.6882642,25.3529804 C15.6882642,31.3516936 20.4778141,36.2147388 26.3870174,36.2147388 C32.2957063,36.2147388 37.0857706,31.3516936 37.0857706,25.3529804 C37.0857706,19.3542673 32.2957063,14.491222 26.3870174,14.491222 C20.4778141,14.491222 15.6882642,19.3542673 15.6882642,25.3529804 L15.6882642,25.3529804 Z" id="Path-Copy-26" fill="#1D82C6"></path>
                    </g>
                </g>
            </g>
        </g>
    </g>
</svg>