<?xml version="1.0" encoding="UTF-8" standalone="no"?>
<svg width="153px" height="152px" viewBox="0 0 153 152" version="1.1" xmlns="http://www.w3.org/2000/svg" xmlns:xlink="http://www.w3.org/1999/xlink" xmlns:sketch="http://www.bohemiancoding.com/sketch/ns">
    <!-- Generator: Sketch 3.5.2 (25235) - http://www.bohemiancoding.com/sketch -->
    <title>Group 5</title>
    <desc>Created with Sketch.</desc>
    <defs>
        <linearGradient x1="91.4062108%" y1="-32.8762273%" x2="16.3354027%" y2="123.196752%" id="linearGradient-1">
            <stop stop-color="#FFFFFF" offset="0%"></stop>
            <stop stop-color="#D5DCE9" offset="100%"></stop>
        </linearGradient>
        <path id="path-2" d="M0.0076168087,0.0253298153 L94.8292683,0.0253298153 L94.8292683,95.8986807 L0.0076168087,95.8986807 L0.0076168087,0.0253298153 Z"></path>
    </defs>
    <g id="Page-1" stroke="none" stroke-width="1" fill="none" fill-rule="evenodd" sketch:type="MSPage">
        <g id="17-Transition-to-Retirement-Overview-Copy" sketch:type="MSArtboardGroup" transform="translate(-443.000000, -362.000000)">
            <g id="Group-5" sketch:type="MSLayerGroup" transform="translate(443.000000, 362.000000)">
                <ellipse id="Oval-298-Copy" fill="url(#linearGradient-1)" sketch:type="MSShapeGroup" cx="76.4420629" cy="75.7294124" rx="76.4420629" ry="75.7294124"></ellipse>
                <g id="calculator-and-dollar-sign" transform="translate(34.500000, 30.000000)">
                    <g id="Group-3">
                        <mask id="mask-3" sketch:name="Clip 2" fill="white">
                            <use xlink:href="#path-2"></use>
                        </mask>
                        <g id="Clip-2"></g>
                        <path d="M40.378988,54.5957573 L40.378988,44.6463325 L50.3622122,44.6463325 L50.3622122,48.4660686 C52.4240823,46.6929815 54.7190267,45.2341108 57.1970285,44.1090871 L57.1970285,3.58138259 C57.1970285,1.61591557 55.6027035,0.0253298153 53.632489,0.0253298153 L3.56441258,0.0253298153 C1.59432501,0.0253298153 0,1.61591557 0,3.58138259 L0,76.1567493 C0,78.122343 1.59432501,79.7128021 3.56441258,79.7128021 L41.9533823,79.7128021 C40.8867752,76.6732243 40.3388728,73.4916728 40.3388728,70.2294459 C40.3388728,69.7431135 40.3487746,69.2569077 40.378988,68.7705752 L40.378988,54.5957573 Z M40.378988,28.475905 L50.3622122,28.475905 L50.3622122,38.4355884 L40.378988,38.4355884 L40.378988,28.475905 Z M6.83481634,60.8070079 L16.8179136,60.8070079 L16.8179136,70.7663113 L6.83481634,70.7663113 L6.83481634,60.8070079 Z M6.83481634,44.6359472 L16.8179136,44.6359472 L16.8179136,54.5957573 L6.83481634,54.5957573 L6.83481634,44.6359472 Z M6.83481634,28.475905 L16.8179136,28.475905 L16.8179136,38.4355884 L6.83481634,38.4355884 L6.83481634,28.475905 Z M23.6022051,60.8070079 L33.5849215,60.8070079 L33.5849215,70.7663113 L23.6022051,70.7663113 L23.6022051,60.8070079 Z M23.6022051,44.6359472 L33.5849215,44.6359472 L33.5849215,54.5957573 L23.6022051,54.5957573 L23.6022051,44.6359472 Z M23.6022051,28.475905 L33.5849215,28.475905 L33.5849215,38.4355884 L23.6022051,38.4355884 L23.6022051,28.475905 Z M6.83481634,7.39124011 L50.3622122,7.39124011 L50.3622122,20.2590396 L6.83481634,20.2590396 L6.83481634,7.39124011 Z" id="Fill-1" fill="#204581" sketch:type="MSShapeGroup" mask="url(#mask-3)"></path>
                    </g>
                    <path d="M45.2133764,79.7128021 C48.9915674,89.1764011 58.2636356,95.8734776 69.0996885,95.8734776 C83.2974199,95.8734776 94.8040059,84.3938786 94.8040059,70.2294459 C94.8040059,56.0650132 83.2974199,44.5756623 69.0996885,44.5756623 C64.8038084,44.5756623 60.7515392,45.628876 57.1970285,47.4831451 C54.6376538,48.8208127 52.3223979,50.5736359 50.3622122,52.6609393 C46.0460206,57.2504485 43.3954981,63.4206649 43.3954981,70.2190607 C43.3954981,70.4016887 43.3954981,70.5738047 43.4059077,70.7563061 C43.4663344,73.9175937 44.0961175,76.9369077 45.2133764,79.7128021 L45.2133764,79.7128021 Z M73.8929462,73.8162744 C72.857568,72.5497836 71.0803127,72.0124116 69.4854799,71.6479156 C67.5054904,71.2021108 65.7178254,70.7459208 63.9306682,69.7531187 C62.7826882,69.114934 61.8790808,68.2129393 61.2593265,67.0785435 C60.639953,65.9536464 60.3249979,64.6568865 60.3249979,63.2281583 C60.3249979,60.6852982 61.238888,58.5979947 63.0469915,57.0272929 C64.1130908,56.0952823 65.5755181,55.447219 67.2312853,55.1428813 L67.2312853,53.7546807 C67.2312853,52.8226702 67.9929662,52.0627757 68.9271678,52.0627757 L69.8509597,52.0627757 C70.7857961,52.0627757 71.5474769,52.8226702 71.5474769,53.7546807 L71.5474769,55.1532665 C73.0807405,55.447219 74.4413565,56.0447493 75.4673406,56.8957045 C76.5538783,57.7975726 77.3462803,58.9324749 77.8337561,60.2900264 C78.199236,61.2933404 77.5392395,62.3668179 76.4829151,62.5291821 L75.5893365,62.6607704 C74.776623,62.7824802 73.9946306,62.306533 73.7308351,61.5263747 C73.5175645,60.8980686 73.2230479,60.3710818 72.8674699,59.9659314 C72.0552642,59.0640633 70.7753864,58.5372032 69.363484,58.5372032 C67.8605607,58.5372032 66.4387564,59.1249815 65.5550796,60.1073984 C64.8341487,60.9079472 64.4889803,61.8399578 64.4889803,62.9447177 C64.4889803,64.0285805 64.7933988,64.9404538 65.3929686,65.6596939 C66.6421252,67.159219 68.6935857,67.5747546 70.673702,67.9700264 C71.8315839,68.2030607 73.0300887,68.4459736 74.0659747,68.9021636 C75.172824,69.388496 76.0867141,69.9964116 76.7978701,70.6955145 C77.5085184,71.4050026 78.0569286,72.2558311 78.4328181,73.2186174 C78.8087076,74.1808971 79.0015398,75.2450026 79.0015398,76.3591346 C79.0015398,78.8213193 78.199236,80.9086227 76.6253494,82.56 C75.3354428,83.9174248 73.5682163,84.8094142 71.5474769,85.1740369 L71.5474769,86.1971082 C71.5474769,87.129752 70.7857961,87.8896464 69.8509597,87.8896464 L68.9271678,87.8896464 C67.9929662,87.8896464 67.2312853,87.129752 67.2312853,86.1971082 L67.2312853,85.1433879 C66.1140264,84.9306174 65.0472924,84.5765066 64.0927793,84.0797889 C62.9656186,83.5023958 61.9802574,82.56 61.1581499,81.2732454 C60.6096127,80.4222902 60.2233135,79.4293615 59.9798296,78.314723 C59.7765877,77.3827124 60.4063708,76.4605805 61.3509821,76.2982164 L62.2648722,76.1364855 C63.1381393,75.9846332 63.9811931,76.5312507 64.2048733,77.392591 C64.4686688,78.4057836 64.8138372,79.1963272 65.2506612,79.7534565 C66.2256127,80.9995567 67.8302204,81.7495726 69.5569509,81.7495726 C69.8509597,81.7495726 70.1456033,81.7293087 70.430218,81.688781 C71.6589362,81.506153 72.7657855,80.9185013 73.5274664,80.0472823 C74.3403068,79.1251504 74.7464096,77.9703641 74.7464096,76.6025541 C74.736,75.4373826 74.4517661,74.5048654 73.8929462,73.8162744 L73.8929462,73.8162744 Z" id="Fill-4" fill="#4D73AE" sketch:type="MSShapeGroup"></path>
                </g>
            </g>
        </g>
    </g>
</svg>