<?xml version="1.0" encoding="UTF-8" standalone="no"?>
<svg width="153px" height="152px" viewBox="0 0 153 152" version="1.1" xmlns="http://www.w3.org/2000/svg" xmlns:xlink="http://www.w3.org/1999/xlink" xmlns:sketch="http://www.bohemiancoding.com/sketch/ns">
    <!-- Generator: Sketch 3.5.2 (25235) - http://www.bohemiancoding.com/sketch -->
    <title>Group 6</title>
    <desc>Created with Sketch.</desc>
    <defs>
        <linearGradient x1="91.4062108%" y1="-32.8762273%" x2="16.3354027%" y2="123.196752%" id="linearGradient-1">
            <stop stop-color="#FFFFFF" offset="0%"></stop>
            <stop stop-color="#D5DCE9" offset="100%"></stop>
        </linearGradient>
        <path id="path-2" d="M0,52.0935168 L11.8394356,59.1971782 C11.8394356,59.1971782 46.173799,76.9563316 71.0366138,28.4146455 C95.8994286,-20.1270406 40.2540812,8.28760494 40.2540812,8.28760494 L0,52.0935168 Z"></path>
        <path id="path-4" d="M0.173928049,0.454477161 L60.8748171,0.454477161 L60.8748171,51.4208827 L0.173928049,51.4208827 L0.173928049,0.454477161 Z"></path>
        <path id="path-6" d="M3.55183069,68.6687267 L0,47.3577425 C0,47.3577425 36.7022505,65.116896 61.5650653,16.5752099 C86.4278801,-31.9664762 71.0366138,46.173799 71.0366138,46.173799 L3.55183069,68.6687267 Z"></path>
        <path d="M16.594262,26.638488 C12.0385121,26.638488 7.72917513,26.0116896 4.47100734,24.8638099 C2.793461,24.2723241 1.45151712,23.5662932 0.474812361,22.7628215 C0.333152892,22.6480556 0.206498143,22.5243512 0.0793774094,22.4096957 L0.0793774094,30.5757308 C0.0793774094,30.8228086 0.124205176,31.0702174 0.213767511,31.3085773 C1.23530004,34.168676 8.17661402,36.3757125 16.594262,36.3757125 C25.0041746,36.3757125 31.9527579,34.168676 32.9742905,31.3085773 C33.0638528,31.0702174 33.1086806,30.8228086 33.1086806,30.5757308 L33.1086806,22.4096957 C32.9819326,22.5334001 32.8476357,22.6480556 32.7133388,22.7628215 C31.744183,23.5662932 30.4023323,24.2723241 28.7171438,24.8638099 C25.4588828,26.0116896 21.1495459,26.638488 16.594262,26.638488 L16.594262,26.638488 Z M16.594262,14.6836008 C12.0385121,14.6836008 7.72917513,14.0568024 4.47100734,12.9089227 C2.793461,12.3174369 1.45151712,11.6114059 0.474812361,10.8079343 C0.333152892,10.6931684 0.206498143,10.569464 0.0793774094,10.4548084 L0.0793774094,18.6208436 C0.0793774094,18.8679214 0.124205176,19.1153302 0.213767511,19.3536901 C1.23530004,22.2137888 8.17661402,24.4208253 16.594262,24.4208253 C25.0041746,24.4208253 31.9527579,22.2137888 32.9742905,19.3536901 C33.0638528,19.1153302 33.1086806,18.8679214 33.1086806,18.6208436 L33.1086806,10.4548084 C32.9819326,10.5785128 32.8476357,10.6931684 32.7133388,10.8079343 C31.744183,11.6114059 30.4023323,12.3174369 28.7171438,12.9089227 C25.4588828,14.0568024 21.1495459,14.6836008 16.594262,14.6836008 L16.594262,14.6836008 Z M16.594262,61.9228919 C12.0385121,61.9228919 7.72917513,61.2962038 4.47100734,60.1482138 C2.793461,59.5568383 1.45151712,58.8508074 0.474812361,58.0472254 C0.333152892,57.9325698 0.206498143,57.8088654 0.0793774094,57.6942099 L0.0793774094,65.860245 C0.0793774094,66.1072124 0.124205176,66.3547316 0.213767511,66.5930915 C1.2425694,69.4531902 8.18388338,71.6602267 16.594262,71.6602267 C25.0041746,71.6602267 31.9527579,69.4531902 32.9742905,66.5930915 C33.0638528,66.3547316 33.1086806,66.1072124 33.1086806,65.860245 L33.1086806,57.685161 C32.9819326,57.8088654 32.8476357,57.923521 32.7133388,58.0386179 C31.744183,58.8417585 30.4023323,59.5482309 28.7171438,60.1396063 C25.4588828,61.287155 21.1495459,61.9228919 16.594262,61.9228919 L16.594262,61.9228919 Z M16.594262,38.2936786 C12.0385121,38.2936786 7.72917513,37.6669906 4.47100734,36.5190005 C2.793461,35.9276251 1.45151712,35.2215941 0.474812361,34.4180121 C0.333152892,34.3033566 0.206498143,34.1796522 0.0793774094,34.0649966 L0.0793774094,42.2310318 C0.0793774094,42.4779992 0.124205176,42.7255183 0.213767511,42.9638783 C1.2425694,45.8239769 8.18388338,48.0310135 16.594262,48.0310135 C25.0041746,48.0310135 31.9527579,45.8239769 32.9742905,42.9638783 C33.0638528,42.7255183 33.1086806,42.4779992 33.1086806,42.2310318 L33.1086806,34.0559478 C32.9819326,34.1796522 32.8476357,34.2943077 32.7133388,34.4094047 C31.744183,35.2125453 30.4023323,35.9190177 28.7171438,36.5103931 C25.4588828,37.6579417 21.1495459,38.2936786 16.594262,38.2936786 L16.594262,38.2936786 Z M16.594262,73.6793025 C12.0385121,73.6793025 7.72917513,73.0526145 4.47100734,71.9050658 C2.793461,71.3136904 1.45151712,70.6071076 0.474812361,69.8040774 C0.333152892,69.6889804 0.206498143,69.5657175 0.0793774094,69.4510619 L0.0793774094,77.6170971 C0.0793774094,77.8640645 0.124205176,78.1110319 0.213767511,78.3495022 C1.2425694,81.2099319 8.18388338,83.4169684 16.594262,83.4169684 C25.0041746,83.4169684 31.9527579,81.2099319 32.9742905,78.3495022 C33.0638528,78.1110319 33.1086806,77.8640645 33.1086806,77.6170971 L33.1086806,69.4510619 C32.9819326,69.5743249 32.8476357,69.6889804 32.7133388,69.8040774 C31.744183,70.6071076 30.4023323,71.3136904 28.7171438,71.9050658 C25.4588828,73.0526145 21.1495459,73.6793025 16.594262,73.6793025 L16.594262,73.6793025 Z M16.594262,85.5421546 C12.0385121,85.5421546 7.72917513,84.9154666 4.47100734,83.767918 C2.793461,83.1765425 1.45151712,82.4699598 0.474812361,81.6669295 C0.333152892,81.5518326 0.206498143,81.4285696 0.0793774094,81.313914 L0.0793774094,89.4799492 C0.0793774094,89.7269166 0.124205176,89.973884 0.213767511,90.2123543 C1.2425694,93.072784 8.18388338,95.2798205 16.594262,95.2798205 C25.0041746,95.2798205 31.9527579,93.072784 32.9742905,90.2123543 C33.0638528,89.973884 33.1086806,89.7269166 33.1086806,89.4799492 L33.1086806,81.313914 C32.9819326,81.437177 32.8476357,81.5518326 32.7133388,81.6669295 C31.744183,82.4699598 30.4023323,83.1765425 28.7171438,83.767918 C25.4588828,84.9154666 21.1495459,85.5421546 16.594262,85.5421546 L16.594262,85.5421546 Z M16.594262,50.0500893 C12.0385121,50.0500893 7.72917513,49.4234012 4.47100734,48.2758526 C2.793461,47.6844771 1.45151712,46.9778944 0.474812361,46.1748641 C0.333152892,46.0597672 0.206498143,45.9365042 0.0793774094,45.8218487 L0.0793774094,53.9878838 C0.0793774094,54.2348512 0.124205176,54.4818186 0.213767511,54.7202889 C1.2425694,57.5807186 8.18388338,59.7877552 16.594262,59.7877552 C25.0041746,59.7877552 31.9527579,57.5807186 32.9742905,54.7202889 C33.0638528,54.4818186 33.1086806,54.2348512 33.1086806,53.9878838 L33.1086806,45.8218487 C32.9819326,45.9451116 32.8476357,46.0597672 32.7133388,46.1748641 C31.744183,46.9778944 30.4023323,47.6844771 28.7171438,48.2758526 C25.4588828,49.4234012 21.1495459,50.0500893 16.594262,50.0500893 L16.594262,50.0500893 Z M33.1086806,6.58574827 C33.1086806,6.26815571 33.0340297,5.95906024 32.8997328,5.65857222 C32.750804,5.34086931 32.5345869,5.03177384 32.243719,4.73183758 C30.0368136,2.43640923 23.8636295,0.794484397 16.594262,0.794484397 C9.32489449,0.794484397 3.15124435,2.44545808 0.94443214,4.73183758 C0.653564244,5.03177384 0.437253963,5.34086931 0.288418323,5.65857222 C0.146758854,5.95906024 0.0793774094,6.26815571 0.0793774094,6.58574827 C0.0793774094,9.79036532 7.47586563,12.3857299 16.594262,12.3857299 C25.7125651,12.3771225 33.1086806,9.78164753 33.1086806,6.58574827 L33.1086806,6.58574827 Z" id="path-8"></path>
        <path d="M16.594262,26.638488 C12.0385121,26.638488 7.72917513,26.0116896 4.47100734,24.8638099 C2.793461,24.2723241 1.45151712,23.5662932 0.474812361,22.7628215 C0.333152892,22.6480556 0.206498143,22.5243512 0.0793774094,22.4096957 L0.0793774094,30.5757308 C0.0793774094,30.8228086 0.124205176,31.0702174 0.213767511,31.3085773 C1.23530004,34.168676 8.17661402,36.3757125 16.594262,36.3757125 C25.0041746,36.3757125 31.9527579,34.168676 32.9742905,31.3085773 C33.0638528,31.0702174 33.1086806,30.8228086 33.1086806,30.5757308 L33.1086806,22.4096957 C32.9819326,22.5334001 32.8476357,22.6480556 32.7133388,22.7628215 C31.744183,23.5662932 30.4023323,24.2723241 28.7171438,24.8638099 C25.4588828,26.0116896 21.1495459,26.638488 16.594262,26.638488 L16.594262,26.638488 Z M16.594262,14.6836008 C12.0385121,14.6836008 7.72917513,14.0568024 4.47100734,12.9089227 C2.793461,12.3174369 1.45151712,11.6114059 0.474812361,10.8079343 C0.333152892,10.6931684 0.206498143,10.569464 0.0793774094,10.4548084 L0.0793774094,18.6208436 C0.0793774094,18.8679214 0.124205176,19.1153302 0.213767511,19.3536901 C1.23530004,22.2137888 8.17661402,24.4208253 16.594262,24.4208253 C25.0041746,24.4208253 31.9527579,22.2137888 32.9742905,19.3536901 C33.0638528,19.1153302 33.1086806,18.8679214 33.1086806,18.6208436 L33.1086806,10.4548084 C32.9819326,10.5785128 32.8476357,10.6931684 32.7133388,10.8079343 C31.744183,11.6114059 30.4023323,12.3174369 28.7171438,12.9089227 C25.4588828,14.0568024 21.1495459,14.6836008 16.594262,14.6836008 L16.594262,14.6836008 Z M16.594262,38.2936786 C12.0385121,38.2936786 7.72917513,37.6669906 4.47100734,36.5190005 C2.793461,35.9276251 1.45151712,35.2215941 0.474812361,34.4180121 C0.333152892,34.3033566 0.206498143,34.1796522 0.0793774094,34.0649966 L0.0793774094,42.2310318 C0.0793774094,42.4779992 0.124205176,42.7255183 0.213767511,42.9638783 C1.2425694,45.8239769 8.18388338,48.0310135 16.594262,48.0310135 C25.0041746,48.0310135 31.9527579,45.8239769 32.9742905,42.9638783 C33.0638528,42.7255183 33.1086806,42.4779992 33.1086806,42.2310318 L33.1086806,34.0559478 C32.9819326,34.1796522 32.8476357,34.2943077 32.7133388,34.4094047 C31.744183,35.2125453 30.4023323,35.9190177 28.7171438,36.5103931 C25.4588828,37.6579417 21.1495459,38.2936786 16.594262,38.2936786 L16.594262,38.2936786 Z M16.594262,50.0500893 C12.0385121,50.0500893 7.72917513,49.4234012 4.47100734,48.2758526 C2.793461,47.6844771 1.45151712,46.9778944 0.474812361,46.1748641 C0.333152892,46.0597672 0.206498143,45.9365042 0.0793774094,45.8218487 L0.0793774094,53.9878838 C0.0793774094,54.2348512 0.124205176,54.4818186 0.213767511,54.7202889 C1.2425694,57.5807186 8.18388338,59.7877552 16.594262,59.7877552 C25.0041746,59.7877552 31.9527579,57.5807186 32.9742905,54.7202889 C33.0638528,54.4818186 33.1086806,54.2348512 33.1086806,53.9878838 L33.1086806,45.8218487 C32.9819326,45.9451116 32.8476357,46.0597672 32.7133388,46.1748641 C31.744183,46.9778944 30.4023323,47.6844771 28.7171438,48.2758526 C25.4588828,49.4234012 21.1495459,50.0500893 16.594262,50.0500893 L16.594262,50.0500893 Z M33.1086806,6.58574827 C33.1086806,6.26815571 33.0340297,5.95906024 32.8997328,5.65857222 C32.750804,5.34086931 32.5345869,5.03177384 32.243719,4.73183758 C30.0368136,2.43640923 23.8636295,0.794484397 16.594262,0.794484397 C9.32489449,0.794484397 3.15124435,2.44545808 0.94443214,4.73183758 C0.653564244,5.03177384 0.437253963,5.34086931 0.288418323,5.65857222 C0.146758854,5.95906024 0.0793774094,6.26815571 0.0793774094,6.58574827 C0.0793774094,9.79036532 7.47586563,12.3857299 16.594262,12.3857299 C25.7125651,12.3771225 33.1086806,9.78164753 33.1086806,6.58574827 L33.1086806,6.58574827 Z" id="path-10"></path>
    </defs>
    <g id="Page-1" stroke="none" stroke-width="1" fill="none" fill-rule="evenodd" sketch:type="MSPage">
        <g id="17-Transition-to-Retirement-Overview-Copy" sketch:type="MSArtboardGroup" transform="translate(-172.000000, -363.000000)">
            <g id="Group-6" sketch:type="MSLayerGroup" transform="translate(172.000000, 363.000000)">
                <path d="M76.4420629,151.458825 C106.888243,151.458825 133.177116,133.825216 145.470312,108.304647 C150.22331,98.4374626 152.884126,87.391274 152.884126,75.7294124 C152.884126,33.9052128 118.659848,0 76.4420629,0 C34.2242773,0 0,33.9052128 0,75.7294124 C0,117.553612 34.2242773,151.458825 76.4420629,151.458825 Z" id="Oval-298" fill="url(#linearGradient-1)" sketch:type="MSShapeGroup"></path>
                <g id="Group-3">
                    <g id="right-arrow40-copy-3">
                        <mask id="mask-3" sketch:name="Mask" fill="white">
                            <use xlink:href="#path-2"></use>
                        </mask>
                        <use id="Mask" fill-opacity="0" fill="#FFFFFF" sketch:type="MSShapeGroup" xlink:href="#path-2"></use>
                        <g id="right-arrow40-copy" mask="url(#mask-3)">
                            <g transform="translate(46.582921, 47.972675) scale(-1, 1) rotate(-125.000000) translate(-46.582921, -47.972675) translate(16.145513, 22.088793)">
                                <mask id="mask-5" sketch:name="Clip 2" fill="white">
                                    <use xlink:href="#path-4"></use>
                                </mask>
                                <g id="Clip-2"></g>
                                <path d="M42.6442588,11.1517594 L42.6442588,0.454477161 L60.2979558,17.698111 L42.6442588,34.9417449 L42.6442588,24.1142152 C21.8424641,25.6517018 5.03811582,36.2243995 0.950806667,49.9513514 C0.327564492,47.8588973 6.03961325e-14,45.692825 6.03961325e-14,43.4701234 C6.03961325e-14,26.7135019 18.6624796,12.9101004 42.6442588,11.1517594 L42.6442588,11.1517594 Z" id="Fill-1" stroke="none" fill="#F58C23" fill-rule="evenodd" sketch:type="MSShapeGroup" mask="url(#mask-5)"></path>
                            </g>
                        </g>
                    </g>
                    <g id="right-arrow40-copy-4" transform="translate(9.000000, 11.000000)">
                        <mask id="mask-7" sketch:name="Mask" fill="white">
                            <use xlink:href="#path-6"></use>
                        </mask>
                        <use id="Mask" fill-opacity="0" fill="#FFFFFF" sketch:type="MSShapeGroup" xlink:href="#path-6"></use>
                        <g id="right-arrow40-copy-2" mask="url(#mask-7)" fill="#EB7626" sketch:type="MSShapeGroup">
                            <g transform="translate(37.752479, 37.951065) scale(-1, 1) rotate(-125.000000) translate(-37.752479, -37.951065) translate(7.252479, 12.451065)" id="Fill-1">
                                <path d="M42.8583726,0.959338595 L60.5120695,18.2029725 L42.8583726,35.4466063 L42.8583726,24.6190766 C22.0565779,26.1565632 5.25222959,36.7292609 1.16492044,50.4562128 C0.541678265,48.3637587 0.214113773,46.1976865 0.214113773,43.9749849 C0.214113773,27.2183633 18.8765934,13.4149618 42.8583726,11.6566208 L42.8583726,0.959338595 Z"></path>
                            </g>
                        </g>
                    </g>
                </g>
                <g id="Group-+-Group-Copy-2" transform="translate(44.000000, 26.000000)">
                    <g id="Group" transform="translate(37.866667, 0.000000)">
                        <mask id="mask-9" sketch:name="Mask Copy" fill="white">
                            <use xlink:href="#path-8"></use>
                        </mask>
                        <use id="Mask-Copy" fill="#4D73AE" sketch:type="MSShapeGroup" xlink:href="#path-8"></use>
                        <path d="M16.5666667,101.218045 L16.5666667,11.9513293 L29.9777778,-3.98496241 L41.0222222,2.39097744 L41.0222222,101.218045 L16.5666667,101.218045 Z" id="Path-910-Copy-4" fill="#204581" sketch:type="MSShapeGroup" mask="url(#mask-9)"></path>
                        <path d="M16.5666667,101.218045 L16.5666667,11.9513293 L29.9777778,-3.98496241 L41.0222222,2.39097744 L41.0222222,101.218045 L16.5666667,101.218045 Z" id="Path-910-Copy-5" fill="#204581" sketch:type="MSShapeGroup" mask="url(#mask-9)"></path>
                        <path d="M-1.57777778,9.56390977 L-0.788888889,31.8796992 C-0.788888889,31.8796992 2.36666667,34.2706767 3.94444444,35.0676692 C5.52222222,35.8646617 13.4111111,37.4586466 13.4111111,37.4586466 L24.4555556,36.6616541 L31.5555556,34.2706767 L35.5,30.2857143 L35.5,0.796992481 C35.5,0.796992481 21.3,-7.96992481 18.9333333,-7.96992481 C16.5666667,-7.96992481 -1.55431223e-15,-7.96992481 -1.55431223e-15,-5.57894737 C-1.55431223e-15,-3.18796992 -1.57777778,9.56390977 -1.57777778,9.56390977 Z" id="Path-924-Copy" fill="#63BFFD" sketch:type="MSShapeGroup" mask="url(#mask-9)"></path>
                        <path d="M16.5666667,38.2556391 L16.5666667,11.9513293 L29.9777778,-3.98496241 L41.0222222,2.39097744 L42.6,31.0827068 L16.5666667,38.2556391 Z" id="Path-910-Copy-6" fill="#279EEE" sketch:type="MSShapeGroup" mask="url(#mask-9)"></path>
                    </g>
                    <g id="Group-Copy-2" transform="translate(0.000000, 45.428571)">
                        <mask id="mask-11" sketch:name="Mask Copy" fill="white">
                            <use xlink:href="#path-10"></use>
                        </mask>
                        <use id="Mask-Copy" fill="#4D73AE" sketch:type="MSShapeGroup" xlink:href="#path-10"></use>
                        <path d="M16.5666667,101.218045 L16.5666667,11.9513293 L29.9777778,-3.98496241 L41.0222222,2.39097744 L41.0222222,101.218045 L16.5666667,101.218045 Z" id="Path-910-Copy-4" fill="#204581" sketch:type="MSShapeGroup" mask="url(#mask-11)"></path>
                        <path d="M16.5666667,101.218045 L16.5666667,11.9513293 L29.9777778,-3.98496241 L41.0222222,2.39097744 L41.0222222,101.218045 L16.5666667,101.218045 Z" id="Path-910-Copy-5" fill="#204581" sketch:type="MSShapeGroup" mask="url(#mask-11)"></path>
                        <path d="M-1.57777778,9.56390977 L-0.788888889,31.8796992 C-0.788888889,31.8796992 2.36666667,34.2706767 3.94444444,35.0676692 C5.52222222,35.8646617 13.4111111,37.4586466 13.4111111,37.4586466 L24.4555556,36.6616541 L31.5555556,34.2706767 L35.5,30.2857143 L35.5,0.796992481 C35.5,0.796992481 21.3,-7.96992481 18.9333333,-7.96992481 C16.5666667,-7.96992481 -1.55431223e-15,-7.96992481 -1.55431223e-15,-5.57894737 C-1.55431223e-15,-3.18796992 -1.57777778,9.56390977 -1.57777778,9.56390977 Z" id="Path-924-Copy" fill="#4D73AE" sketch:type="MSShapeGroup" mask="url(#mask-11)"></path>
                        <path d="M16.5666667,38.2556391 L16.5666667,11.9513293 L29.9777778,-3.98496241 L41.0222222,2.39097744 L42.6,31.0827068 L16.5666667,38.2556391 Z" id="Path-910-Copy-6" fill="#204581" sketch:type="MSShapeGroup" mask="url(#mask-11)"></path>
                    </g>
                </g>
            </g>
        </g>
    </g>
</svg>