<?xml version="1.0" encoding="UTF-8" standalone="no"?>
<svg width="153px" height="152px" viewBox="0 0 153 152" version="1.1" xmlns="http://www.w3.org/2000/svg" xmlns:xlink="http://www.w3.org/1999/xlink" xmlns:sketch="http://www.bohemiancoding.com/sketch/ns">
    <!-- Generator: Sketch 3.5.2 (25235) - http://www.bohemiancoding.com/sketch -->
    <title>Group 4</title>
    <desc>Created with Sketch.</desc>
    <defs>
        <linearGradient x1="91.4062108%" y1="-32.8762273%" x2="16.3354027%" y2="123.196752%" id="linearGradient-1">
            <stop stop-color="#FFFFFF" offset="0%"></stop>
            <stop stop-color="#D5DCE9" offset="100%"></stop>
        </linearGradient>
        <path id="path-2" d="M21.076,35.4585333 L94.4666667,35.4585333 L94.4666667,110.191867 L21.076,110.191867 L21.076,35.4585333 Z"></path>
    </defs>
    <g id="Page-1" stroke="none" stroke-width="1" fill="none" fill-rule="evenodd" sketch:type="MSPage">
        <g id="17-Transition-to-Retirement-Overview-Copy" sketch:type="MSArtboardGroup" transform="translate(-715.000000, -362.000000)">
            <g id="Group-4" sketch:type="MSLayerGroup" transform="translate(715.000000, 362.000000)">
                <ellipse id="Oval-298-Copy-2" fill="url(#linearGradient-1)" sketch:type="MSShapeGroup" cx="76.4420629" cy="75.7294124" rx="76.4420629" ry="75.7294124"></ellipse>
                <g id="piggy-bank-(1)" transform="translate(31.000000, 22.000000)">
                    <g id="make-a-donation" transform="translate(42.000000, 20.555556) scale(-1, 1) translate(-42.000000, -20.555556) translate(0.000000, 0.555556)" fill="#4D73AE" sketch:type="MSShapeGroup">
                        <path d="M83.3830984,0.261103366 C78.8093101,2.27672374 70.2041578,5.15970618 66.1994968,5.38935784 C62.1945662,5.6181961 43.3747907,2.6473658 38.2761105,3.92983612 C34.1732684,4.96259076 11.6425664,22.0058893 4.92146852,26.7062921 C-5.80752706,34.2091502 3.68772978,35.412449 8.19300703,33.6763692 C12.7257966,31.9299863 27.3353779,23.7270566 27.3353779,23.7270566 C27.2889846,25.3888453 27.5387533,27.7412158 29.0179451,30.2820254 C29.0179451,30.2820254 30.6899929,32.638463 32.6940766,34.9452828 C28.3700569,36.9270112 46.477802,38.1438663 38.2761112,38.1438663 C38.2761112,38.1438663 49.2106393,40.3530778 47.2963752,38.1438668 C50.3591438,36.5170545 53.6433595,33.7113457 61.5960384,30.4419953 C74.9899528,24.9344225 79.5267883,18.6804139 83.3830984,16.5113309 L83.3830984,0.261103366 Z M46.4817948,29.2609296 C43.9711607,31.0425602 42.2589234,32.7816225 41.2590394,34.290762 C40.6953065,34.1307921 40.1167386,34.0101368 39.5246843,33.9296096 C39.0062659,32.2455878 38.1169706,30.0298695 36.7621237,27.0961848 C36.7621237,27.0961848 36.1403992,25.6260888 36.3459324,23.868047 C36.8570682,21.9034001 38.6219026,19.7955937 43.6097244,19.1494781 C52.0079949,18.059785 53.1996559,22.3279981 49.4045742,26.7710935 C48.5943094,27.6151379 47.6165431,28.4559287 46.4817948,29.2609296 L46.4817948,29.2609296 Z" id="Fill-3"></path>
                    </g>
                    <mask id="mask-3" sketch:name="Clip 2" fill="white">
                        <use xlink:href="#path-2"></use>
                    </mask>
                    <g id="Clip-2"></g>
                    <path d="M81.0083333,57.1996 C83.6404667,54.5168 86.6880667,48.7534667 83.2098,47.3728 C79.7315333,45.9921333 67.1548,51.4945333 67.1548,51.4945333 C67.1548,51.4945333 63.6410667,50.4102667 58.9797333,49.8668667 C58.2729333,53.6668667 55.9764667,56.9019333 52.8098,58.8766667 C53.3544667,58.8766667 53.8991333,58.8868 54.4628,58.9058 C55.7396,58.9058 56.7732,59.9457333 56.7732,61.2212667 C56.7732,62.4980667 55.7396,63.5329333 54.4628,63.5329333 C54.4628,63.5329333 47.1351333,62.7602667 39.4262,65.8484 C38.1494,65.8484 37.1892667,64.8135333 37.1892667,63.5329333 C37.1892667,62.2561333 37.6794667,61.7266667 39.4262,61.2212667 C39.4262,61.2212667 40.361,60.8463333 41.9544667,60.4004667 C38.8270667,59.51 36.1556667,57.5213333 34.3886667,54.8790667 C26.0375333,60.0888667 21,68.6388667 21,78.3263333 C21,87.8668667 23.2268,94.7334667 31.7616,100.206733 C33.6172667,101.087067 33.6223333,108.785867 33.6223333,108.785867 L42.2014667,109.444533 C42.2014667,109.444533 40.9550667,105.8168 43.192,106.168933 C46.783,107.2076 49.2669333,107.3368 53.4482,107.3368 C54.9378,107.3368 56.4020667,107.267133 57.8422667,107.129067 C58.2476,107.088533 59.2128,109.7308 59.2128,109.7308 L65.1104,109.691533 C65.1104,109.691533 66.4708,105.787667 67.2776667,105.164467 C67.7577333,105.0112 68.2327333,104.842733 68.7026667,104.674267 C69.4892667,104.882 69.4994,106.901067 69.4994,106.901067 L78.6042,106.034667 C78.6042,106.034667 77.1880667,100.5386 77.8619333,99.8647333 C80.4839333,97.9951333 82.7702667,95.838 84.6550667,93.4427333 C88.4449333,89.2766667 93.7839333,89.5730667 93.7839333,89.5730667 L93.7839333,78.1388667 C93.7839333,78.1388667 91.5913333,78.6835333 90.3892667,75.4966 C89.8902,68.4805333 86.4309333,62.113 81.0083333,57.1996 Z M78.8904667,69.8612 C77.2919333,69.8612 76.0012,68.5692 76.0012,66.9719333 C76.0012,65.3734 77.2919333,64.0763333 78.8904667,64.0763333 C80.489,64.0763333 81.7797333,65.3734 81.7797333,66.9719333 C81.7797333,68.5641333 80.489,69.8612 78.8904667,69.8612 L78.8904667,69.8612 Z M46.0369333,58.9602667 C52.5134,58.9602667 57.7827333,53.6909333 57.7827333,47.2094 C57.7827333,40.7278667 52.5134,35.4585333 46.0369333,35.4585333 C39.5541333,35.4585333 34.2848,40.7278667 34.2848,47.2094 C34.2848,53.6909333 39.5541333,58.9602667 46.0369333,58.9602667 L46.0369333,58.9602667 Z" id="Fill-1" fill="#204581" sketch:type="MSShapeGroup" mask="url(#mask-3)"></path>
                </g>
            </g>
        </g>
    </g>
</svg>