<?xml version="1.0" encoding="UTF-8" standalone="no"?>
<svg width="44px" height="47px" viewBox="0 0 44 47" version="1.1" xmlns="http://www.w3.org/2000/svg" xmlns:xlink="http://www.w3.org/1999/xlink" xmlns:sketch="http://www.bohemiancoding.com/sketch/ns">
    <!-- Generator: Sketch 3.4.3 (16618) - http://www.bohemiancoding.com/sketch -->
    <title>savings1 copy</title>
    <desc>Created with Sketch.</desc>
    <defs></defs>
    <g id="Page-1" stroke="none" stroke-width="1" fill="none" fill-rule="evenodd" sketch:type="MSPage">
        <g id="2-Homepage" sketch:type="MSArtboardGroup" transform="translate(-486.000000, -238.000000)" fill="#6D95C6">
            <g id="savings1-copy" sketch:type="MSLayerGroup" transform="translate(486.000000, 238.522727)">
                <path d="M38.3485252,13.9644317 C36.6148105,12.3490266 34.605216,11.0877255 32.4479849,10.1702457 C32.1673029,10.5991342 31.8472183,11.0030322 31.482621,11.3718439 C31.0000006,11.8604352 30.4581532,12.2791032 29.8672373,12.6133894 C30.4927537,12.8227233 31.0935203,13.0620334 31.6697218,13.3361182 C32.2560819,13.6153756 32.4826468,14.3432769 32.1574522,14.9117006 C31.8717833,15.4151242 31.2462669,15.6147362 30.7291693,15.3654549 C26.7987593,13.4858739 22.4102324,13.839791 20.4843685,14.1338807 C19.9180176,14.2186363 19.3761702,13.8546856 19.2431864,13.2913722 L19.2431864,13.2862619 C19.0904397,12.6481641 19.5142024,12.0149896 20.1543716,11.9152148 C20.5040698,11.8604352 20.9278325,11.8056557 21.4006638,11.7605981 C21.2577678,11.6359574 21.1197355,11.5064558 20.9867517,11.3718439 C20.3071183,10.6838898 19.7703194,9.88126637 19.3958715,8.98372906 C19.3564073,8.88900217 19.317251,8.78916501 19.282589,8.69450043 C18.6965368,8.79427527 18.1152252,8.91891592 17.5488743,9.06356139 C14.2490291,7.1192296 10.2890672,7.11411933 7.93463831,7.34850607 C6.91010898,7.44809395 6.3042939,8.55502755 6.75262169,9.4922629 L8.74725551,13.6302078 C6.53085889,15.5847601 4.85630968,17.9777982 3.91575715,20.6451704 L1.48239994,20.6351369 C0.664980551,20.6300266 0,21.3031484 0,22.1308247 L0,27.6549605 C0,28.2131637 0.305431767,28.7216975 0.792915889,28.98095 L3.9501113,30.6463361 C5.27022175,34.3305267 8.00365444,37.4916005 11.6089314,39.6703813 L11.6089314,44.5610311 C11.6089314,45.5233815 12.3823307,46.3060002 13.3327954,46.3060002 L17.7556764,46.3060002 C18.4404198,46.3060002 19.061134,45.8924425 19.336706,45.259268 L20.4449043,42.6814501 C21.4006638,42.8012298 22.3707683,42.8611196 23.3657456,42.8611196 C24.9320608,42.8611196 26.4539249,42.7114262 27.9168083,42.4273078 L27.9168083,44.5610311 C27.9168083,45.5233815 28.6900228,46.3060002 29.6406723,46.3060002 L34.0439136,46.3060002 C34.6792806,46.3060002 35.2653944,45.9520831 35.5657777,45.3839087 C37.9103559,40.9265098 40.4566878,36.454528 42.3381007,31.7880444 C43.2887501,29.4247954 43.6333998,26.9170879 43.4265361,24.4690832 C43.0917986,20.5205298 41.3186198,16.7265308 38.3485252,13.9644317 L38.3485252,13.9644317 Z M11.8897981,23.2426192 C10.6632688,23.2426192 9.67340146,22.2403838 9.67340146,20.9990876 C9.67340146,19.7575421 10.6632688,18.7555559 11.8897981,18.7555559 C13.1160811,18.7555559 14.1061947,19.7575421 14.1061947,20.9990876 C14.1061947,22.2403838 13.1160811,23.2426192 11.8897981,23.2426192 L11.8897981,23.2426192 Z" id="Fill-1" sketch:type="MSShapeGroup"></path>
                <path d="M24.0504275,11.6558999 C24.7252587,11.925186 25.4640576,12.0748795 26.2372106,12.0748795 C26.6164607,12.0748795 26.9858601,12.0398554 27.3403604,11.9701813 C28.8475717,11.685876 30.1529677,10.8233627 31.0247504,9.62201382 C31.7486502,8.62488863 32.1772151,7.39331438 32.1772151,6.05710431 C32.1820173,2.73169181 29.5175391,0.039516129 26.2372106,0.039516129 C22.9520798,0.039516129 20.2924655,2.73169181 20.2924655,6.05710431 C20.2924655,6.91955528 20.4696541,7.73732257 20.7948487,8.48024316 C21.4203651,9.92607468 22.5973332,11.072644 24.0504275,11.6558999 L24.0504275,11.6558999 Z" id="Fill-3" sketch:type="MSShapeGroup"></path>
            </g>
        </g>
    </g>
</svg>
