<?xml version="1.0" encoding="UTF-8" standalone="no"?>
<svg width="30px" height="30px" viewBox="0 0 30 30" version="1.1" xmlns="http://www.w3.org/2000/svg" xmlns:xlink="http://www.w3.org/1999/xlink" xmlns:sketch="http://www.bohemiancoding.com/sketch/ns">
    <!-- Generator: Sketch 3.4.4 (17249) - http://www.bohemiancoding.com/sketch -->
    <title>Oval 300 + home5 (1)</title>
    <desc>Created with Sketch.</desc>
    <defs></defs>
    <g id="Page-1" stroke="none" stroke-width="1" fill="none" fill-rule="evenodd" sketch:type="MSPage">
        <g id="8-Managed-Funds_All-Assets" sketch:type="MSArtboardGroup" transform="translate(-24.000000, -12.000000)">
            <g id="Oval-300-+-home5-(1)" sketch:type="MSLayerGroup" transform="translate(24.000000, 12.000000)">
                <circle id="Oval-300" fill="#1651BA" sketch:type="MSShapeGroup" cx="14.5" cy="13.5" r="12.5"></circle>
                <g id="home5-(1)" fill="#FFFFFF" sketch:type="MSShapeGroup">
                    <path d="M22.4516939,11.3021181 C22.4516939,11.122668 22.3815918,10.9829939 22.2416939,10.8835234 L15.3475102,5.55849287 C15.147551,5.3990835 14.9277551,5.3990835 14.6878776,5.55849287 L8.03332653,10.8835234 C7.9135102,10.9829939 7.85344898,11.122668 7.85344898,11.3021181 L7.85344898,20.9048065 C7.85344898,21.0644603 7.90346939,21.1938697 8.00344898,21.2935845 C8.10336735,21.3933605 8.22318367,21.443279 8.36314286,21.443279 L12.3200204,21.443279 C12.4797551,21.443279 12.6096122,21.3933605 12.7095918,21.2935845 C12.8095714,21.1938697 12.8595306,21.0644603 12.8595306,20.9048065 L12.8595306,15.0115479 L17.4157347,15.0115479 L17.4157347,20.9045621 C17.4157347,21.064277 17.4656939,21.1938697 17.5656735,21.2935845 C17.6656531,21.3933605 17.7955102,21.443279 17.9553061,21.443279 L21.9121224,21.443279 C22.0719184,21.443279 22.2017755,21.3933605 22.3017551,21.2935845 C22.4017347,21.1938697 22.4516939,21.064277 22.4516939,20.9045621 L22.4516939,11.3021181 Z M14.9878163,0.0244399185 C17.046,0.0244399185 18.9893878,0.418228106 20.8179796,1.20610998 C22.6466327,1.99368635 24.235102,3.0607943 25.5841837,4.40694501 C26.9330204,5.75303462 28.0020612,7.33851324 28.791551,9.16338086 C29.5807347,10.9880041 29.9756327,12.9274949 29.9756327,14.9817312 C29.9756327,16.3576375 29.7957551,17.6839308 29.4360612,18.9603666 C29.0761224,20.236558 28.5717551,21.4282485 27.9221633,22.5351935 C27.2726327,23.6418941 26.4934898,24.6490631 25.5841837,25.5565173 C24.6748776,26.4639715 23.6656531,27.2417719 22.5566939,27.8897352 C21.4474898,28.5380041 20.2533673,29.0413442 18.9743265,29.4005499 C17.6955306,29.7595112 16.3665306,29.9390224 14.9878163,29.9390224 C13.6087959,29.9390224 12.2800408,29.7595112 11.0010612,29.4005499 C9.72202041,29.0413442 8.52814286,28.5380041 7.41893878,27.8897352 C6.30991837,27.2415275 5.30069388,26.4639715 4.39144898,25.5565173 C3.48214286,24.6490631 2.7027551,23.6418941 2.05340816,22.5351935 C1.40387755,21.4282485 0.899265306,20.236558 0.539510204,18.9603666 C0.179877551,17.6839308 0,16.3576375 0,14.9817312 C0,13.6055193 0.179877551,12.2794705 0.539510204,11.0030957 C0.899265306,9.72665988 1.40387755,8.53521385 2.05340816,7.42826884 C2.7027551,6.32150713 3.48214286,5.31433809 4.39144898,4.40694501 C5.30069388,3.49949084 6.30991837,2.72169043 7.41893878,2.07366599 C8.52814286,1.42545825 9.72202041,0.921812627 11.0010612,0.562851324 C12.2800408,0.20389002 13.6087959,0.0244399185 14.9878163,0.0244399185 L14.9878163,0.0244399185 Z" id="Fill-1"></path>
                </g>
            </g>
        </g>
    </g>
</svg>