<?xml version="1.0" encoding="UTF-8" standalone="no"?>
<svg width="40px" height="40px" viewBox="0 0 40 40" version="1.1" xmlns="http://www.w3.org/2000/svg" xmlns:xlink="http://www.w3.org/1999/xlink" xmlns:sketch="http://www.bohemiancoding.com/sketch/ns">
    <!-- Generator: Sketch 3.4.3 (16618) - http://www.bohemiancoding.com/sketch -->
    <title>pie30</title>
    <desc>Created with Sketch.</desc>
    <defs></defs>
    <g id="Page-1" stroke="none" stroke-width="1" fill="none" fill-rule="evenodd" sketch:type="MSPage">
        <g id="2-Homepage" sketch:type="MSArtboardGroup" transform="translate(-807.000000, -247.000000)" fill="#F5BD23">
            <g id="pie30" sketch:type="MSLayerGroup" transform="translate(807.000000, 247.000000)">
                <g sketch:type="MSShapeGroup">
                    <path d="M18.9744165,20.5588784 L28.6939933,37.3539302 C26.080864,38.6523224 23.1464366,39.4005693 20.028655,39.4005693 C9.26140835,39.4005693 0.531715213,30.6917882 0.531715213,19.951183 C0.531715213,9.62093121 8.6117674,1.19515253 18.810007,0.563430426 L18.810007,19.951183 C18.810007,20.160016 18.8646515,20.3689439 18.9744165,20.5588784 L18.9744165,20.5588784 Z M39.4634296,18.7355073 L21.2469222,18.7355073 L21.2469222,0.563430426 C31.0382795,1.1688466 38.8565332,8.96803142 39.4634296,18.7355073 L39.4634296,18.7355073 Z M23.684123,16.3042509 L36.669231,16.3042509 C35.2531393,9.84866266 30.1554951,4.76345171 23.684123,3.35081397 L23.684123,16.3042509 Z M30.8099912,36.1501255 C35.7436068,32.8760348 39.0755871,27.4202617 39.4634296,21.1664788 L22.1394169,21.1664788 L30.8099912,36.1501255 Z"></path>
                </g>
            </g>
        </g>
    </g>
</svg>