<?xml version="1.0" encoding="UTF-8" standalone="no"?>
<svg width="39px" height="39px" viewBox="0 0 39 39" version="1.1" xmlns="http://www.w3.org/2000/svg" xmlns:xlink="http://www.w3.org/1999/xlink" xmlns:sketch="http://www.bohemiancoding.com/sketch/ns">
    <!-- Generator: Sketch 3.4.4 (17249) - http://www.bohemiancoding.com/sketch -->
    <title>Shape</title>
    <desc>Created with Sketch.</desc>
    <defs></defs>
    <g id="Page-1" stroke="none" stroke-width="1" fill="none" fill-rule="evenodd" sketch:type="MSPage">
        <g id="2-Homepage" sketch:type="MSArtboardGroup" transform="translate(-172.000000, -248.000000)" fill="#6D95C6">
            <path d="M191.5,248 C180.73,248 172,256.73 172,267.5 C172,278.27 180.73,287 191.5,287 C202.27,287 211,278.27 211,267.5 C211,256.73 202.27,248 191.5,248 L191.5,248 Z M191.5,278.5625 C190.2565,278.5625 189.25,277.5545 189.25,276.3125 C189.25,275.0705 190.2565,274.0625 191.5,274.0625 C192.742,274.0625 193.75,275.0705 193.75,276.3125 C193.75,277.5545 192.742,278.5625 191.5,278.5625 L191.5,278.5625 Z M193.75,268.8125 C193.75,270.0545 192.742,271.0625 191.5,271.0625 C190.2565,271.0625 189.25,270.0545 189.25,268.8125 L189.25,258.3125 C189.25,257.069 190.2565,256.0625 191.5,256.0625 C192.742,256.0625 193.75,257.069 193.75,258.3125 L193.75,268.8125 L193.75,268.8125 Z" id="Shape" sketch:type="MSShapeGroup"></path>
        </g>
    </g>
</svg>