<?xml version="1.0" encoding="UTF-8" standalone="no"?>
<svg width="194px" height="152px" viewBox="0 0 194 152" version="1.1" xmlns="http://www.w3.org/2000/svg" xmlns:xlink="http://www.w3.org/1999/xlink" xmlns:sketch="http://www.bohemiancoding.com/sketch/ns">
    <!-- Generator: Sketch 3.5.2 (25235) - http://www.bohemiancoding.com/sketch -->
    <title>Group</title>
    <desc>Created with Sketch.</desc>
    <defs>
        <linearGradient x1="91.4062108%" y1="-32.8762273%" x2="16.3354027%" y2="123.196752%" id="linearGradient-1">
            <stop stop-color="#FFFFFF" offset="0%"></stop>
            <stop stop-color="#D5DCE9" offset="100%"></stop>
        </linearGradient>
        <path id="path-2" d="M0.0136082474,0.20489295 L88,0.20489295 L88,86.9777389 L0.0136082474,86.9777389 L0.0136082474,0.20489295 Z"></path>
        <path id="path-4" d="M0.0425,45.5076923 L22.6666667,45.5076923 L22.6666667,68.2615385 L0.0425,68.2615385 L0.0425,45.5076923 Z"></path>
    </defs>
    <g id="Page-1" stroke="none" stroke-width="1" fill="none" fill-rule="evenodd" sketch:type="MSPage">
        <g id="17-Transition-to-Retirement-Overview-Copy" sketch:type="MSArtboardGroup" transform="translate(-443.000000, -339.000000)">
            <g id="Group" sketch:type="MSLayerGroup" transform="translate(443.000000, 339.000000)">
                <ellipse id="Oval-298-Copy" fill="url(#linearGradient-1)" sketch:type="MSShapeGroup" cx="76.4420629" cy="75.7294124" rx="76.4420629" ry="75.7294124"></ellipse>
                <g id="Group-2" transform="translate(32.000000, 32.000000)">
                    <g id="Group-5">
                        <mask id="mask-3" sketch:name="Clip 3" fill="white">
                            <use xlink:href="#path-2"></use>
                        </mask>
                        <g id="Clip-3"></g>
                    </g>
                    <path d="M82.3600619,7.34071018 L73.4704742,7.34071018 L73.4704742,17.7373238 C73.4704742,21.2050574 70.6531134,23.1181488 67.1907216,23.1181488 L65.931732,23.1181488 C62.469567,23.1181488 59.6522062,20.2964413 59.6522062,16.8287076 L59.6522062,7.34071018 L29.0406804,7.34071018 L29.0406804,16.914799 C29.0406804,20.3825326 26.2233196,23.2042402 22.7609278,23.2042402 L21.5021649,23.2042402 C18.0397732,23.2042402 15.2224124,20.3825326 15.2224124,16.914799 L15.2224124,7.34071018 L5.63109278,7.34071018 C2.52591753,7.34071018 0,9.87120627 0,12.9813995 L0,81.1328381 C0,84.2430313 2.52591753,86.7726188 5.63109278,86.7726188 L82.3600619,86.7726188 C85.4652371,86.7726188 87.9911546,84.2430313 87.9911546,81.1328381 L87.9911546,12.9813995 C87.9911546,9.87120627 85.4652371,7.34071018 82.3600619,7.34071018 L82.3600619,7.34071018 Z M82.3600619,81.1328381 L5.63109278,81.1328381 L5.63109278,29.6665457 L82.3609691,29.6665457 L82.3634639,81.1328381 L82.3600619,81.1328381 L82.3600619,81.1328381 Z" id="Fill-4" fill="#204581" sketch:type="MSShapeGroup"></path>
                    <path d="M73.6858058,7.34071018 L73.6858058,17.7373238 C73.6858058,21.2050574 70.9102244,23.1181488 67.4991775,23.1181488 L66.2588578,23.1181488 C62.8480343,23.1181488 60.072453,20.2964413 60.072453,16.8287076 L60.072453,7.34071018 L44.0068042,7.34071018 L44.0068041,86.7726207 L82.443567,86.7726188 C85.5026947,86.7726188 87.9911546,84.2430313 87.9911546,81.1328381 L87.9911546,12.9813995 C87.9911546,9.87120627 85.5026947,7.34071018 82.443567,7.34071018 L73.6858058,7.34071018 Z" id="Fill-4" fill="#4D73AE" sketch:type="MSShapeGroup"></path>
                    <g id="calendar" transform="translate(5.333333, 0.000000)" sketch:type="MSShapeGroup">
                        <path d="M77.0267285,81.1328381 L0.29775945,81.1328381 L0.29775945,29.6665457 L77.0276357,29.6665457 L77.0301306,81.1328381 L77.0267285,81.1328381 L77.0267285,81.1328381 Z" id="Path" stroke="#FFFFFF" fill="#FFFFFF"></path>
                        <path d="M16.1688316,20.3843499 L17.4275945,20.3843499 C19.3404605,20.3843499 20.8918007,18.8306162 20.8918007,16.914799 L20.8918007,3.76030809 C20.8918007,1.84449086 19.3404605,0.290984334 17.4275945,0.290984334 L16.1688316,0.290984334 C14.2559656,0.290984334 12.7046254,1.84449086 12.7046254,3.76030809 L12.7046254,16.914799 C12.7046254,18.8306162 14.2559656,20.3843499 16.1688316,20.3843499 L16.1688316,20.3843499 Z" id="Fill-1" fill="#204581"></path>
                        <path d="M41.569079,46.9293446 L51.6804605,46.9293446 C52.0809966,46.9293446 52.4060069,46.6045144 52.4060069,46.2026789 L52.4060069,37.4340783 C52.4060069,37.0322428 52.0809966,36.7065039 51.6804605,36.7065039 L41.569079,36.7065039 C41.168543,36.7065039 40.8435326,37.0322428 40.8435326,37.4340783 L40.8435326,46.2026789 C40.8435326,46.6045144 41.168543,46.9293446 41.569079,46.9293446 L41.569079,46.9293446 Z" id="Fill-6" fill="#4D73AE"></path>
                        <path d="M58.0708935,46.9293446 L68.1822749,46.9293446 C68.5825842,46.9293446 68.9078213,46.6045144 68.9078213,46.2026789 L68.9078213,37.4340783 C68.9078213,37.0322428 68.5825842,36.7065039 68.1822749,36.7065039 L58.0708935,36.7065039 C57.6703574,36.7065039 57.3451203,37.0322428 57.3451203,37.4340783 L57.3451203,46.2026789 C57.3451203,46.6045144 57.6703574,46.9293446 58.0708935,46.9293446 L58.0708935,46.9293446 Z" id="Fill-7" fill="#4D73AE"></path>
                        <path d="M8.5672646,61.2861619 L18.678646,61.2861619 C19.0791821,61.2861619 19.4041924,60.960423 19.4041924,60.5585875 L19.4041924,51.7899869 C19.4041924,51.3881514 19.0791821,51.0633211 18.678646,51.0633211 L8.5672646,51.0633211 C8.16672852,51.0633211 7.84171821,51.3881514 7.84171821,51.7899869 L7.84171821,60.5585875 C7.84171821,60.960423 8.16672852,61.2861619 8.5672646,61.2861619 L8.5672646,61.2861619 Z" id="Fill-8" fill="#204581"></path>
                        <path d="M25.0681718,61.2861619 L35.1795533,61.2861619 C35.5800893,61.2861619 35.9050997,60.960423 35.9050997,60.5585875 L35.9050997,51.7899869 C35.9050997,51.3881514 35.5800893,51.0633211 35.1795533,51.0633211 L25.0681718,51.0633211 C24.6676357,51.0633211 24.3426254,51.3881514 24.3426254,51.7899869 L24.3426254,60.5585875 C24.3426254,60.960423 24.6676357,61.2861619 25.0681718,61.2861619 L25.0681718,61.2861619 Z" id="Fill-9" fill="#204581"></path>
                        <path d="M58.0708935,61.2861619 L68.1822749,61.2861619 C68.5825842,61.2861619 68.9078213,60.960423 68.9078213,60.5585875 L68.9078213,51.7899869 C68.9078213,51.3881514 68.5825842,51.0633211 68.1822749,51.0633211 L58.0708935,51.0633211 C57.6703574,51.0633211 57.3451203,51.3881514 57.3451203,51.7899869 L57.3451203,60.5585875 C57.3451203,60.960423 57.6703574,61.2861619 58.0708935,61.2861619 L58.0708935,61.2861619 Z" id="Fill-11" fill="#4D73AE"></path>
                        <path d="M41.5699863,61.2861619 L51.6804605,61.2861619 C52.081677,61.2861619 52.4060069,60.960423 52.4060069,60.5585875 L52.4060069,51.7899869 C52.4060069,51.3881514 52.081677,51.0633211 51.6804605,51.0633211 L41.5699863,51.0633211 C41.168543,51.0633211 40.8435326,51.3881514 40.8435326,51.7899869 L40.8435326,60.5585875 C40.8435326,60.960423 41.168543,61.2861619 41.5699863,61.2861619 L41.5699863,61.2861619 Z" id="Fill-10" fill="#4D73AE"></path>
                        <path d="M18.678646,65.4192298 L8.5672646,65.4192298 C8.16672852,65.4192298 7.84171821,65.7449687 7.84171821,66.1461227 L7.84171821,74.9154047 C7.84171821,75.3165587 8.16672852,75.6420705 8.5672646,75.6420705 L18.678646,75.6420705 C19.0791821,75.6420705 19.4041924,75.3165587 19.4041924,74.9154047 L19.4041924,66.1461227 C19.4041924,65.7449687 19.0791821,65.4192298 18.678646,65.4192298 L18.678646,65.4192298 Z" id="Fill-12" fill="#204581"></path>
                        <path d="M35.1795533,65.4192298 L25.0681718,65.4192298 C24.6676357,65.4192298 24.3426254,65.7449687 24.3426254,66.1461227 L24.3426254,74.9154047 C24.3426254,75.3165587 24.6676357,75.6420705 25.0681718,75.6420705 L35.1795533,75.6420705 C35.5809966,75.6420705 35.9050997,75.3165587 35.9050997,74.9154047 L35.9050997,66.1461227 C35.9050997,65.7449687 35.5809966,65.4192298 35.1795533,65.4192298 L35.1795533,65.4192298 Z" id="Fill-13" fill="#204581"></path>
                        <path d="M51.6804605,65.4192298 L41.5699863,65.4192298 C41.168543,65.4192298 40.8444399,65.7449687 40.8444399,66.1461227 L40.8444399,74.9154047 C40.8444399,75.3165587 41.168543,75.6420705 41.5699863,75.6420705 L51.6804605,75.6420705 C52.081677,75.6420705 52.4069141,75.3165587 52.4069141,74.9154047 L52.4069141,66.1461227 C52.4069141,65.7449687 52.081677,65.4192298 51.6804605,65.4192298 L51.6804605,65.4192298 Z" id="Fill-14" fill="#4D73AE"></path>
                        <path d="M68.1822749,65.4192298 L58.0708935,65.4192298 C57.6703574,65.4192298 57.3451203,65.7449687 57.3451203,66.1461227 L57.3451203,74.9154047 C57.3451203,75.3165587 57.6703574,75.6420705 58.0708935,75.6420705 L68.1822749,75.6420705 C68.5825842,75.6420705 68.9078213,75.3165587 68.9078213,74.9154047 L68.9078213,66.1461227 C68.9078213,65.7449687 68.5825842,65.4192298 68.1822749,65.4192298 L68.1822749,65.4192298 Z" id="Fill-15" fill="#4D73AE"></path>
                    </g>
                    <g id="up-arrow" transform="translate(57.333333, 0.000000)">
                        <path d="M8.59839863,20.2982585 L9.85738832,20.2982585 C11.7702543,20.2982585 13.3206873,18.7445248 13.3206873,16.8287076 L13.3206873,3.67330809 C13.3206873,1.75839948 11.7702543,0.20489295 9.85738832,0.20489295 L8.59839863,0.20489295 C6.68485223,0.20489295 5.13441924,1.75839948 5.13441924,3.67330809 L5.13441924,16.8287076 C5.13441924,18.7445248 6.68575945,20.2982585 8.59839863,20.2982585 L8.59839863,20.2982585 Z" id="Fill-2" fill="#4D73AE" sketch:type="MSShapeGroup"></path>
                        <mask id="mask-5" sketch:name="Clip 2" fill="white">
                            <use xlink:href="#path-4"></use>
                        </mask>
                        <g id="Clip-2"></g>
                        <path d="M21.150125,51.02743 C18.0207083,45.7506062 11.0896667,43.9406412 5.6695,46.9868985 C0.249333333,50.0331558 -1.61004167,56.782774 1.5215,62.0595978 C4.64808333,67.3357321 11.5826667,69.1429391 17.0028333,66.0966817 C22.423,63.0504244 24.2795417,56.3035642 21.150125,51.02743 L21.150125,51.02743 Z M4.29195873,60.1864879 C2.04444327,56.398236 3.3776936,51.5535316 7.26999619,49.3657403 C11.161663,47.1773302 16.1411654,48.4757704 18.3861377,52.2640222 C20.6336532,56.0547497 19.2997671,60.8969785 15.4081003,63.0853887 C11.5164335,65.27318 6.53947419,63.9747398 4.29195873,60.1864879 Z" id="Fill-1" fill="#F58C23" sketch:type="MSShapeGroup" mask="url(#mask-5)"></path>
                    </g>
                </g>
                <g id="Group-Copy" transform="translate(129.500000, 77.426152) rotate(-22.000000) translate(-129.500000, -77.426152) translate(113.000000, 73.926152)" sketch:type="MSShapeGroup">
                    <ellipse id="Oval-77" fill="#FCA63A" cx="12.5034179" cy="3.63461346" rx="3.00011854" ry="3.01300565"></ellipse>
                    <ellipse id="Oval-77-Copy" fill="#FCA63A" cx="21.0037537" cy="3.63461346" rx="3.00011854" ry="3.01300565"></ellipse>
                    <ellipse id="Oval-77-Copy-3" fill="#FCA63A" cx="3.99988146" cy="3.63461346" rx="3.00011854" ry="3.01300565"></ellipse>
                    <ellipse id="Oval-77-Copy-2" fill="#FCA63B" cx="29.5040896" cy="3.63461346" rx="3.00011854" ry="3.01300565"></ellipse>
                </g>
                <g id="Group-Copy-5" transform="translate(139.890343, 30.000000)" sketch:type="MSShapeGroup">
                    <g id="money146-copy-2" fill="#A6B7C2">
                        <path d="M11.6203499,27.3239197 L50.6315243,27.3239197 L50.6315243,47.5634292 L11.6203499,47.5634292 L11.6203499,27.3239197 Z M8.29765607,50.8704205 L53.9542181,50.8704205 L53.9542181,24.0143468 L8.29765607,24.0143468 L8.29765607,50.8704205 Z" id="Fill-1"></path>
                        <path d="M41.5012495,24.0143468 L46.1727339,28.6740808 C46.1416079,28.847046 46.0715746,28.9967771 46.0715746,29.177487 C46.0715746,30.6618898 47.2777046,31.8623199 48.766562,31.8623199 C48.9481299,31.8623199 49.1011658,31.7900359 49.2723584,31.7590571 L53.9542181,36.4084649 L53.9542181,24.0143468 L41.5012495,24.0143468 Z" id="Fill-2"></path>
                        <path d="M47.3062367,37.4488376 C47.3062367,38.9203326 46.1001067,40.1207627 44.6112493,40.1207627 C43.122392,40.1207627 41.916262,38.9203326 41.916262,37.4488376 C41.916262,35.9644348 43.122392,34.7665863 44.6112493,34.7665863 C46.1001067,34.7665863 47.3062367,35.9644348 47.3062367,37.4488376 L47.3062367,37.4488376 Z" id="Fill-3"></path>
                        <path d="M39.2731511,37.4488376 C39.2731511,41.3392637 35.623635,44.496524 31.1259371,44.496524 C26.6282392,44.496524 22.9787231,41.3392637 22.9787231,37.4488376 C22.9787231,33.5455036 26.6282392,30.3882434 31.1259371,30.3882434 C35.623635,30.3882434 39.2731511,33.5455036 39.2731511,37.4488376 L39.2731511,37.4488376 Z" id="Fill-4"></path>
                        <path d="M20.3252369,37.4488376 C20.3252369,38.9203326 19.1294822,40.1207627 17.6406249,40.1207627 C16.1517675,40.1207627 14.9456375,38.9203326 14.9456375,37.4488376 C14.9456375,35.9644348 16.1517675,34.7665863 17.6406249,34.7665863 C19.1294822,34.7665863 20.3252369,35.9644348 20.3252369,37.4488376 L20.3252369,37.4488376 Z" id="Fill-5"></path>
                        <path d="M8.29765607,36.4084649 L12.9691405,31.7590571 C13.1403331,31.7900359 13.3037443,31.8623199 13.4853122,31.8623199 C14.9741696,31.8623199 16.1802996,30.6618898 16.1802996,29.177487 C16.1802996,28.9967771 16.1102663,28.847046 16.0791403,28.6740808 L20.7506247,24.0143468 L8.29765607,24.0143468 L8.29765607,36.4084649 Z" id="Fill-6"></path>
                        <path d="M16.1802996,45.7072803 C16.1802996,44.2254591 14.9741696,43.025029 13.4853122,43.025029 C13.3037443,43.025029 13.1507084,43.0947314 12.9795158,43.1257102 L8.29765607,38.4763025 L8.29765607,50.8704205 L20.7506247,50.8704205 L16.0791403,46.2210128 C16.1102663,46.0506292 16.1802996,45.8879903 16.1802996,45.7072803 L16.1802996,45.7072803 Z" id="Fill-7"></path>
                        <path d="M48.766562,43.025029 C47.2777046,43.025029 46.0715746,44.2254591 46.0715746,45.7072803 C46.0715746,45.8879903 46.1416079,46.0403029 46.1727339,46.2106865 L41.5012495,50.8704205 L53.9542181,50.8704205 L53.9542181,38.4763025 L49.2827337,43.1257102 C49.1115411,43.0947314 48.9481299,43.025029 48.766562,43.025029 L48.766562,43.025029 Z" id="Fill-8"></path>
                        <path d="M41.5012495,16.5432829 C41.5012495,18.0147779 40.2951194,19.215208 38.8062621,19.215208 C37.3174048,19.215208 36.12165,18.0147779 36.12165,16.5432829 C36.12165,15.0614617 37.3174048,13.8610316 38.8062621,13.8610316 C40.2951194,13.8610316 41.5012495,15.0614617 41.5012495,16.5432829 L41.5012495,16.5432829 Z" id="Fill-9"></path>
                        <path d="M5.18765618,24.0143468 C5.18765618,22.3105105 6.58572952,20.9190443 8.29765607,20.9190443 L9.99920729,20.9190443 L10.0822098,20.6583057 L34.1036517,7.56716372 L35.9374882,8.10154873 C35.9893648,8.26418765 36.0101154,8.43457127 36.1008994,8.59721019 C36.8090144,9.89832152 38.4509076,10.3707488 39.758197,9.65565393 C39.9112328,9.57562526 40.0227675,9.44396518 40.1524589,9.32263139 L41.9888891,9.8570164 L46.1727339,17.4700666 L45.6358114,19.2952367 C45.4724003,19.3468681 45.3012076,19.3675206 45.1377965,19.4475493 C44.5308407,19.7805719 44.1262035,20.3252831 43.9135096,20.9190443 L51.8661865,20.9190443 L46.4969624,11.168454 L40.5181886,0.297462324 L29.5955785,6.25830768 L0.477264369,22.1194744 L5.18765618,30.6902871 L5.18765618,24.0143468 Z" id="Fill-10"></path>
                        <path d="M23.5778974,16.8040215 C21.7648115,17.7824366 20.4678975,19.2771657 19.7364379,20.9190443 L34.7443273,20.9190443 C34.6224174,20.2943043 34.4382556,19.6798906 34.1244024,19.0938742 C32.2412832,15.6758754 27.5179222,14.6561552 23.5778974,16.8040215 L23.5778974,16.8040215 Z" id="Fill-11"></path>
                    </g>
                    <path d="M11.6203499,27.3239197 L50.6315243,27.3239197 L50.6315243,47.5634292 L11.6203499,47.5634292 L11.6203499,27.3239197 Z M8.29765607,50.8704205 L53.9542181,50.8704205 L53.9542181,24.0143468 L8.29765607,24.0143468 L8.29765607,50.8704205 Z" id="Fill-1" fill="#279EEE"></path>
                    <path d="M41.5012495,24.0143468 L46.1727339,28.6740808 C46.1416079,28.847046 46.0715746,28.9967771 46.0715746,29.177487 C46.0715746,30.6618898 47.2777046,31.8623199 48.766562,31.8623199 C48.9481299,31.8623199 49.1011658,31.7900359 49.2723584,31.7590571 L53.9542181,36.4084649 L53.9542181,24.0143468 L41.5012495,24.0143468 Z" id="Fill-2" fill="#279EEE"></path>
                    <path d="M47.3062367,37.4488376 C47.3062367,38.9203326 46.1001067,40.1207627 44.6112493,40.1207627 C43.122392,40.1207627 41.916262,38.9203326 41.916262,37.4488376 C41.916262,35.9644348 43.122392,34.7665863 44.6112493,34.7665863 C46.1001067,34.7665863 47.3062367,35.9644348 47.3062367,37.4488376 L47.3062367,37.4488376 Z" id="Fill-3" fill="#279EEE"></path>
                    <path d="M39.2731511,37.4488376 C39.2731511,41.3392637 35.623635,44.496524 31.1259371,44.496524 C26.6282392,44.496524 22.9787231,41.3392637 22.9787231,37.4488376 C22.9787231,33.5455036 26.6282392,30.3882434 31.1259371,30.3882434 C35.623635,30.3882434 39.2731511,33.5455036 39.2731511,37.4488376 L39.2731511,37.4488376 Z" id="Fill-4" fill="#279EEE"></path>
                    <path d="M20.3252369,37.4488376 C20.3252369,38.9203326 19.1294822,40.1207627 17.6406249,40.1207627 C16.1517675,40.1207627 14.9456375,38.9203326 14.9456375,37.4488376 C14.9456375,35.9644348 16.1517675,34.7665863 17.6406249,34.7665863 C19.1294822,34.7665863 20.3252369,35.9644348 20.3252369,37.4488376 L20.3252369,37.4488376 Z" id="Fill-5" fill="#279EEE"></path>
                    <path d="M8.29765607,36.4084649 L12.9691405,31.7590571 C13.1403331,31.7900359 13.3037443,31.8623199 13.4853122,31.8623199 C14.9741696,31.8623199 16.1802996,30.6618898 16.1802996,29.177487 C16.1802996,28.9967771 16.1102663,28.847046 16.0791403,28.6740808 L20.7506247,24.0143468 L8.29765607,24.0143468 L8.29765607,36.4084649 Z" id="Fill-6" fill="#279EEE"></path>
                    <path d="M16.1802996,45.7072803 C16.1802996,44.2254591 14.9741696,43.025029 13.4853122,43.025029 C13.3037443,43.025029 13.1507084,43.0947314 12.9795158,43.1257102 L8.29765607,38.4763025 L8.29765607,50.8704205 L20.7506247,50.8704205 L16.0791403,46.2210128 C16.1102663,46.0506292 16.1802996,45.8879903 16.1802996,45.7072803 L16.1802996,45.7072803 Z" id="Fill-7" fill="#279EEE"></path>
                    <path d="M48.766562,43.025029 C47.2777046,43.025029 46.0715746,44.2254591 46.0715746,45.7072803 C46.0715746,45.8879903 46.1416079,46.0403029 46.1727339,46.2106865 L41.5012495,50.8704205 L53.9542181,50.8704205 L53.9542181,38.4763025 L49.2827337,43.1257102 C49.1115411,43.0947314 48.9481299,43.025029 48.766562,43.025029 L48.766562,43.025029 Z" id="Fill-8" fill="#279EEE"></path>
                    <path d="M41.5012495,16.5432829 C41.5012495,18.0147779 40.2951194,19.215208 38.8062621,19.215208 C37.3174048,19.215208 36.12165,18.0147779 36.12165,16.5432829 C36.12165,15.0614617 37.3174048,13.8610316 38.8062621,13.8610316 C40.2951194,13.8610316 41.5012495,15.0614617 41.5012495,16.5432829 L41.5012495,16.5432829 Z" id="Fill-9" fill="#1C82C6"></path>
                    <path d="M5.18765618,24.0143468 C5.18765618,22.3105105 6.58572952,20.9190443 8.29765607,20.9190443 L9.99920729,20.9190443 L10.0822098,20.6583057 L34.1036517,7.56716372 L35.9374882,8.10154873 C35.9893648,8.26418765 36.0101154,8.43457127 36.1008994,8.59721019 C36.8090144,9.89832152 38.4509076,10.3707488 39.758197,9.65565393 C39.9112328,9.57562526 40.0227675,9.44396518 40.1524589,9.32263139 L41.9888891,9.8570164 L46.1727339,17.4700666 L45.6358114,19.2952367 C45.4724003,19.3468681 45.3012076,19.3675206 45.1377965,19.4475493 C44.5308407,19.7805719 44.1262035,20.3252831 43.9135096,20.9190443 L51.8661865,20.9190443 L46.4969624,11.168454 L40.5181886,0.297462324 L29.5955785,6.25830768 L0.477264369,22.1194744 L5.18765618,30.6902871 L5.18765618,24.0143468 Z" id="Fill-10" fill="#1C82C6"></path>
                    <path d="M23.5778974,16.8040215 C21.7648115,17.7824366 20.4678975,19.2771657 19.7364379,20.9190443 L34.7443273,20.9190443 C34.6224174,20.2943043 34.4382556,19.6798906 34.1244024,19.0938742 C32.2412832,15.6758754 27.5179222,14.6561552 23.5778974,16.8040215 L23.5778974,16.8040215 Z" id="Fill-11" fill="#1C82C6"></path>
                </g>
            </g>
        </g>
    </g>
</svg>