<?xml version="1.0" encoding="UTF-8" standalone="no"?>
<svg width="153px" height="159px" viewBox="0 0 153 159" version="1.1" xmlns="http://www.w3.org/2000/svg" xmlns:xlink="http://www.w3.org/1999/xlink" xmlns:sketch="http://www.bohemiancoding.com/sketch/ns">
    <!-- Generator: Sketch 3.5.2 (25235) - http://www.bohemiancoding.com/sketch -->
    <title>Group 6</title>
    <desc>Created with Sketch.</desc>
    <defs>
        <linearGradient x1="91.4062108%" y1="-32.8762273%" x2="16.3354027%" y2="123.196752%" id="linearGradient-1">
            <stop stop-color="#FFFFFF" offset="0%"></stop>
            <stop stop-color="#D5DCE9" offset="100%"></stop>
        </linearGradient>
    </defs>
    <g id="Page-1" stroke="none" stroke-width="1" fill="none" fill-rule="evenodd" sketch:type="MSPage">
        <g id="17-Transition-to-Retirement-Overview-Copy" sketch:type="MSArtboardGroup" transform="translate(-172.000000, -333.000000)">
            <g id="Group-6" sketch:type="MSLayerGroup" transform="translate(152.000000, 325.000000)">
                <path d="M96.4420629,166.458825 C126.888243,166.458825 153.177116,148.825216 165.470312,123.304647 C170.22331,113.437463 172.884126,102.391274 172.884126,90.7294124 C172.884126,48.9052128 138.659848,15 96.4420629,15 C54.2242773,15 20,48.9052128 20,90.7294124 C20,132.553612 54.2242773,166.458825 96.4420629,166.458825 Z" id="Oval-298" fill="url(#linearGradient-1)" sketch:type="MSShapeGroup"></path>
                <g id="Group-4" sketch:type="MSShapeGroup">
                    <g id="Group-Copy-3">
                        <path d="M92.3509903,37.7514793 C92.2172181,37.6786797 92.0823272,37.6070578 91.9463785,37.5366133 C88.6609003,23.4613098 76.2176771,12.9876834 61.3564767,12.972545 L58.5734471,12.972545 C43.6182375,12.972545 31.1559858,23.4547593 27.9646118,37.565441 C27.8459232,37.6269965 27.7284204,37.6889818 27.6120765,37.7514793 L22.9473684,37.7514793 C26.4607378,21.2427057 40.9445841,8.92307692 58.3583758,8.92307692 L61.5688924,8.92307692 C78.885271,8.94071633 93.3558687,21.2672252 96.9686975,37.7514793 L92.3509903,37.7514793 Z" id="Path" fill="#4D73AE"></path>
                        <g id="Rectangle-193-+-Rectangle-193-Copy-3-+-Group-Copy" transform="translate(68.120250, 43.906556) rotate(-15.000000) translate(-68.120250, -43.906556) translate(35.338295, 10.547976)">
                            <path d="M19.0818861,46.6290126 L45.8527562,18.7676099 L60.6772428,33.1554141 L33.9063727,61.0168169 L19.0818861,46.6290126 L19.0818861,46.6290126 Z" id="Rectangle-193" fill="#FFFFFF"></path>
                            <path d="M15.9391462,48.5089917 L27.619773,10.1113283 L47.3277429,16.1669479 L35.6471161,54.5646113 L15.9391462,48.5089917 L15.9391462,48.5089917 Z" id="Rectangle-193-Copy-3" fill="#FFFFFF"></path>
                            <g id="Group-Copy" transform="translate(32.742234, 33.301341) rotate(-45.000000) translate(-32.742234, -33.301341) translate(8.975317, 10.650453)">
                                <path d="M7.83231397,23.2110916 L43.3941913,23.2110916 L43.3941913,41.9454621 L7.83231397,41.9454621 L7.83231397,23.2110916 Z M4.80340672,45.0065244 L46.4230986,45.0065244 L46.4230986,20.1476397 L4.80340672,20.1476397 L4.80340672,45.0065244 Z" id="Fill-1" fill="#279EEE"></path>
                                <path d="M35.0711988,20.1476397 L39.329639,24.4608462 C39.3012651,24.6209486 39.237424,24.7595447 39.237424,24.9268158 C39.237424,26.300829 40.3369102,27.4119874 41.6941255,27.4119874 C41.8596396,27.4119874 41.9991443,27.345079 42.1552004,27.3164039 L46.4230986,31.620052 L46.4230986,20.1476397 L35.0711988,20.1476397 Z" id="Fill-2" fill="#279EEE"></path>
                                <path d="M40.3629196,32.583056 C40.3629196,33.9451212 39.2634334,35.0562797 37.9062181,35.0562797 C36.5490028,35.0562797 35.4495166,33.9451212 35.4495166,32.583056 C35.4495166,31.2090429 36.5490028,30.100274 37.9062181,30.100274 C39.2634334,30.100274 40.3629196,31.2090429 40.3629196,32.583056 L40.3629196,32.583056 Z" id="Fill-3" fill="#279EEE"></path>
                                <path d="M33.0401048,32.583056 C33.0401048,36.1841653 29.7132723,39.1066315 25.6132526,39.1066315 C21.513233,39.1066315 18.1864005,36.1841653 18.1864005,32.583056 C18.1864005,28.9699989 21.513233,26.0475326 25.6132526,26.0475326 C29.7132723,26.0475326 33.0401048,28.9699989 33.0401048,32.583056 L33.0401048,32.583056 Z" id="Fill-4" fill="#279EEE"></path>
                                <path d="M15.7675307,32.583056 C15.7675307,33.9451212 14.6775025,35.0562797 13.3202872,35.0562797 C11.9630719,35.0562797 10.8635857,33.9451212 10.8635857,32.583056 C10.8635857,31.2090429 11.9630719,30.100274 13.3202872,30.100274 C14.6775025,30.100274 15.7675307,31.2090429 15.7675307,32.583056 L15.7675307,32.583056 Z" id="Fill-5" fill="#279EEE"></path>
                                <path d="M4.80340672,31.620052 L9.06184696,27.3164039 C9.21790307,27.345079 9.36686572,27.4119874 9.53237978,27.4119874 C10.889595,27.4119874 11.9890813,26.300829 11.9890813,24.9268158 C11.9890813,24.7595447 11.9252401,24.6209486 11.8968663,24.4608462 L16.1553065,20.1476397 L4.80340672,20.1476397 L4.80340672,31.620052 Z" id="Fill-6" fill="#279EEE"></path>
                                <path d="M11.9890813,40.2273483 C11.9890813,38.8557247 10.889595,37.7445663 9.53237978,37.7445663 C9.36686572,37.7445663 9.22736102,37.8090851 9.07130491,37.8377602 L4.80340672,33.5341121 L4.80340672,45.0065244 L16.1553065,45.0065244 L11.8968663,40.7028763 C11.9252401,40.5451635 11.9890813,40.3946194 11.9890813,40.2273483 L11.9890813,40.2273483 Z" id="Fill-7" fill="#279EEE"></path>
                                <path d="M41.6941255,37.7445663 C40.3369102,37.7445663 39.237424,38.8557247 39.237424,40.2273483 C39.237424,40.3946194 39.3012651,40.5356051 39.329639,40.693318 L35.0711988,45.0065244 L46.4230986,45.0065244 L46.4230986,33.5341121 L42.1646583,37.8377602 C42.0086022,37.8090851 41.8596396,37.7445663 41.6941255,37.7445663 L41.6941255,37.7445663 Z" id="Fill-8" fill="#279EEE"></path>
                                <path d="M37.3408267,14.9678645 C37.3408267,16.3299297 36.2413405,17.4410882 34.8841252,17.4410882 C33.52691,17.4410882 32.4368817,16.3299297 32.4368817,14.9678645 C32.4368817,13.596241 33.52691,12.4850825 34.8841252,12.4850825 C36.2413405,12.4850825 37.3408267,13.596241 37.3408267,14.9678645 L37.3408267,14.9678645 Z" id="Fill-9" fill="#1C82C6"></path>
                                <path d="M4.29390753,21.9531456 C4.29390753,20.3760175 5.56836577,19.0880295 7.12892688,19.0880295 L8.68003004,19.0880295 L8.75569361,18.8466811 L30.6532033,6.72908002 L32.3248953,7.22372475 C32.372185,7.3742688 32.3911009,7.53198161 32.473858,7.68252566 C33.1193628,8.88687805 34.6160828,9.32417267 35.807784,8.66225677 C35.9472887,8.58817954 36.0489616,8.46631055 36.1671859,8.35399991 L37.8412424,8.84864464 L41.6551591,15.8955399 L41.1657104,17.5849786 C41.0167478,17.6327704 40.8606917,17.6518871 40.711729,17.7259643 C40.1584392,18.0342212 39.7895793,18.5384243 39.5956914,19.0880295 L46.8452071,19.0880295 L41.95072,10.0625554 L36.5005785,-4.12114787e-13 L26.5437257,5.51755887 L-9.59232693e-14,20.199188 L4.29390753,28.1326204 L4.29390753,21.9531456 Z" id="Fill-10" fill="#1C82C6"></path>
                                <path d="M20.755465,14.9130175 C19.1026889,15.8186714 17.9204457,17.2022429 17.2536605,18.7220209 L30.9345795,18.7220209 C30.8234486,18.1437406 30.6555701,17.5750186 30.3694672,17.0325822 C28.65285,13.8687675 24.34712,12.9248803 20.755465,14.9130175 L20.755465,14.9130175 Z" id="Fill-11" fill="#1C82C6"></path>
                            </g>
                        </g>
                        <g id="Rectangle-193-+-Rectangle-193-Copy-3-+-Group-Copy-Copy" transform="translate(45.508909, 46.424067) rotate(-56.000000) translate(-45.508909, -46.424067) translate(12.726954, 13.477321)">
                            <path d="M19.0818861,45.805344 L45.8527562,17.9439413 L60.6772428,32.3317455 L33.9063727,60.1931482 L19.0818861,45.805344 L19.0818861,45.805344 Z" id="Rectangle-193" fill="#FFFFFF"></path>
                            <path d="M15.9391462,47.6853231 L27.619773,9.28765967 L47.3277429,15.3432793 L35.6471161,53.7409427 L15.9391462,47.6853231 L15.9391462,47.6853231 Z" id="Rectangle-193-Copy-3" fill="#FFFFFF"></path>
                            <g id="Group-Copy" transform="translate(32.452480, 32.615614) rotate(-45.000000) translate(-32.452480, -32.615614) translate(8.987501, 10.073104)">
                                <path d="M7.83231397,23.2110916 L43.3941913,23.2110916 L43.3941913,41.9454621 L7.83231397,41.9454621 L7.83231397,23.2110916 Z M4.80340672,45.0065244 L46.4230986,45.0065244 L46.4230986,20.1476397 L4.80340672,20.1476397 L4.80340672,45.0065244 Z" id="Fill-1" fill="#279EEE"></path>
                                <path d="M35.0711988,20.1476397 L39.329639,24.4608462 C39.3012651,24.6209486 39.237424,24.7595447 39.237424,24.9268158 C39.237424,26.300829 40.3369102,27.4119874 41.6941255,27.4119874 C41.8596396,27.4119874 41.9991443,27.345079 42.1552004,27.3164039 L46.4230986,31.620052 L46.4230986,20.1476397 L35.0711988,20.1476397 Z" id="Fill-2" fill="#279EEE"></path>
                                <path d="M40.3629196,32.583056 C40.3629196,33.9451212 39.2634334,35.0562797 37.9062181,35.0562797 C36.5490028,35.0562797 35.4495166,33.9451212 35.4495166,32.583056 C35.4495166,31.2090429 36.5490028,30.100274 37.9062181,30.100274 C39.2634334,30.100274 40.3629196,31.2090429 40.3629196,32.583056 L40.3629196,32.583056 Z" id="Fill-3" fill="#279EEE"></path>
                                <path d="M33.0401048,32.583056 C33.0401048,36.1841653 29.7132723,39.1066315 25.6132526,39.1066315 C21.513233,39.1066315 18.1864005,36.1841653 18.1864005,32.583056 C18.1864005,28.9699989 21.513233,26.0475326 25.6132526,26.0475326 C29.7132723,26.0475326 33.0401048,28.9699989 33.0401048,32.583056 L33.0401048,32.583056 Z" id="Fill-4" fill="#279EEE"></path>
                                <path d="M15.7675307,32.583056 C15.7675307,33.9451212 14.6775025,35.0562797 13.3202872,35.0562797 C11.9630719,35.0562797 10.8635857,33.9451212 10.8635857,32.583056 C10.8635857,31.2090429 11.9630719,30.100274 13.3202872,30.100274 C14.6775025,30.100274 15.7675307,31.2090429 15.7675307,32.583056 L15.7675307,32.583056 Z" id="Fill-5" fill="#279EEE"></path>
                                <path d="M4.80340672,31.620052 L9.06184696,27.3164039 C9.21790307,27.345079 9.36686572,27.4119874 9.53237978,27.4119874 C10.889595,27.4119874 11.9890813,26.300829 11.9890813,24.9268158 C11.9890813,24.7595447 11.9252401,24.6209486 11.8968663,24.4608462 L16.1553065,20.1476397 L4.80340672,20.1476397 L4.80340672,31.620052 Z" id="Fill-6" fill="#279EEE"></path>
                                <path d="M11.9890813,40.2273483 C11.9890813,38.8557247 10.889595,37.7445663 9.53237978,37.7445663 C9.36686572,37.7445663 9.22736102,37.8090851 9.07130491,37.8377602 L4.80340672,33.5341121 L4.80340672,45.0065244 L16.1553065,45.0065244 L11.8968663,40.7028763 C11.9252401,40.5451635 11.9890813,40.3946194 11.9890813,40.2273483 L11.9890813,40.2273483 Z" id="Fill-7" fill="#279EEE"></path>
                                <path d="M41.6941255,37.7445663 C40.3369102,37.7445663 39.237424,38.8557247 39.237424,40.2273483 C39.237424,40.3946194 39.3012651,40.5356051 39.329639,40.693318 L35.0711988,45.0065244 L46.4230986,45.0065244 L46.4230986,33.5341121 L42.1646583,37.8377602 C42.0086022,37.8090851 41.8596396,37.7445663 41.6941255,37.7445663 L41.6941255,37.7445663 Z" id="Fill-8" fill="#279EEE"></path>
                                <path d="M37.3408267,14.9678645 C37.3408267,16.3299297 36.2413405,17.4410882 34.8841252,17.4410882 C33.52691,17.4410882 32.4368817,16.3299297 32.4368817,14.9678645 C32.4368817,13.596241 33.52691,12.4850825 34.8841252,12.4850825 C36.2413405,12.4850825 37.3408267,13.596241 37.3408267,14.9678645 L37.3408267,14.9678645 Z" id="Fill-9" fill="#1C82C6"></path>
                                <path d="M4.29390753,21.9531456 C4.29390753,20.3760175 5.56836577,19.0880295 7.12892688,19.0880295 L8.68003004,19.0880295 L8.75569361,18.8466811 L30.6532033,6.72908002 L32.3248953,7.22372475 C32.372185,7.3742688 32.3911009,7.53198161 32.473858,7.68252566 C33.1193628,8.88687805 34.6160828,9.32417267 35.807784,8.66225677 C35.9472887,8.58817954 36.0489616,8.46631055 36.1671859,8.35399991 L37.8412424,8.84864464 L41.6551591,15.8955399 L41.1657104,17.5849786 C41.0167478,17.6327704 40.8606917,17.6518871 40.711729,17.7259643 C40.1584392,18.0342212 39.7895793,18.5384243 39.5956914,19.0880295 L46.8452071,19.0880295 L41.95072,10.0625554 L36.5005785,-1.58095759e-13 L26.5437257,5.51755887 L3.90798505e-14,20.199188 L4.29390753,28.1326204 L4.29390753,21.9531456 Z" id="Fill-10" fill="#1C82C6"></path>
                                <path d="M20.755465,14.9130175 C19.1026889,15.8186714 17.9204457,17.2022429 17.2536605,18.7220209 L30.9345795,18.7220209 C30.8234486,18.1437406 30.6555701,17.5750186 30.3694672,17.0325822 C28.65285,13.8687675 24.34712,12.9248803 20.755465,14.9130175 L20.755465,14.9130175 Z" id="Fill-11" fill="#1C82C6"></path>
                            </g>
                        </g>
                        <g id="pail1-copy" transform="translate(22.947368, 41.869822)" fill="#204581">
                            <path d="M71.1015917,0.400322683 C72.2147957,1.61400684 72.8078471,2.9110306 72.7890844,4.2613112 L64.4604692,64.2416814 C64.4604692,69.5551492 52.0858734,73.883949 36.8312983,73.883949 C21.5757503,73.883949 9.20091128,69.5349786 9.20091128,64.2416814 L0.736578802,4.2613112 C0.736578802,3.21357124 1.11553939,2.19347497 1.82871667,1.2170889 L4.52011412,4.46300102 C4.14189607,4.71926067 3.78869165,4.98015478 3.46162639,5.24524116 C4.29757681,5.97359531 5.36823546,6.6817789 6.5549105,7.29181547 L14.8825528,66.6619032 C15.9532114,67.1346815 17.1598306,67.6266465 18.4632517,67.9803693 L10.251869,8.96474238 C16.9260953,11.4831111 26.3243962,13.057891 36.8113542,13.057891 C51.8129795,13.057891 64.5584872,9.8101842 69.8894041,5.24524116 C69.6189298,5.01842037 69.3303643,4.79516403 69.0243578,4.57567449 L71.1015917,0.400322683 Z" id="Path"></path>
                        </g>
                    </g>
                    <g id="Group-Copy-4" transform="translate(59.268750, 41.869822)" fill="#4D73AE">
                        <path d="M1.20325865e-07,73.4820046 C0.16960441,73.4830842 0.339581048,73.4836264 0.509916819,73.4836264 C15.7644919,73.4836264 28.1390877,69.1548265 28.1390877,63.8413588 L36.4677029,3.86098852 C36.4864656,2.51070792 35.8934142,1.21368416 34.7802102,-1.99423811e-13 L32.7029763,4.17535181 C33.0089829,4.39484134 33.2975483,4.61809769 33.5680227,4.84491847 C28.2371058,9.40986151 15.491598,12.6575683 0.489972701,12.6575683 C0.32638148,12.6575683 0.163055177,12.6571851 2.03920214e-13,12.6564211 L1.20325865e-07,73.4820046 Z" id="Path"></path>
                    </g>
                </g>
                <path d="M115.038949,75.3588253 C115.038949,75.8674319 114.622213,76.2791026 114.107348,76.2791026 L109.508191,76.2791026 C108.993171,76.2791026 108.576591,75.8674319 108.576591,75.3588253 L108.576591,73.7951209 C108.576591,73.3492465 108.896751,72.9779146 109.323113,72.8934025 L109.323113,71.1330654 C109.323113,70.818484 109.064128,70.5632604 108.746297,70.5632604 L108.557182,70.5632604 C107.70011,72.0869328 106.083783,73.0408002 104.281291,73.0408002 C102.478023,73.0408002 100.862317,72.0869328 100.005399,70.5632604 L92.9316006,70.5632604 C92.4173571,70.5632604 92,70.1511296 92,69.6429831 L92,66.6042276 C92,66.0954676 92.4173571,65.6839503 92.9316006,65.6839503 L100.101199,65.6839503 C100.690747,64.7300829 101.594399,64.0171747 102.641208,63.6479902 L102.641208,62.5048524 C102.641208,62.4419668 102.647884,62.3803082 102.659995,62.3209503 L100.159424,62.3209503 C99.6450251,62.3209503 99.2278233,61.9092796 99.2278233,61.400673 L99.2278233,60.0825292 C99.2278233,59.5745361 99.6450251,59.1622519 100.159424,59.1622519 L102.641208,59.1622519 L102.641208,59.0478308 C102.641208,58.5398377 103.058565,58.1275535 103.572809,58.1275535 L104.988997,58.1275535 C105.503395,58.1275535 105.920597,58.5398377 105.920597,59.0478308 L105.920597,59.1622519 L108.402537,59.1622519 C108.917401,59.1622519 109.334137,59.5745361 109.334137,60.0825292 L109.334137,61.400673 C109.334137,61.9092796 108.917401,62.3209503 108.402537,62.3209503 L105.90181,62.3209503 C105.913921,62.3803082 105.920597,62.4419668 105.920597,62.5048524 L105.920597,63.6479902 C106.968027,64.0171747 107.871214,64.7300829 108.461383,65.6839503 L110.254093,65.6839503 C112.447857,65.6839503 114.232338,67.446588 114.232338,69.6136876 L114.232338,72.8843531 C114.687735,72.944938 115.038949,73.3290004 115.038949,73.7951209 L115.038949,75.3588253 Z" id="tap" fill="#4D73AE" sketch:type="MSShapeGroup"></path>
                <g id="Group-Copy-5" transform="translate(135.538949, 96.974349) rotate(-296.000000) translate(-135.538949, -96.974349) translate(121.038949, 83.420001)" sketch:type="MSShapeGroup">
                    <g id="money146-copy-2" fill="#A6B7C2">
                        <path d="M6.18214405,14.5366026 L26.9364848,14.5366026 L26.9364848,25.3042271 L6.18214405,25.3042271 L6.18214405,14.5366026 Z M4.41443724,27.06358 L28.7041916,27.06358 L28.7041916,12.7758762 L4.41443724,12.7758762 L4.41443724,27.06358 Z" id="Fill-1"></path>
                        <path d="M22.0790859,12.7758762 L24.564363,15.254902 C24.5478037,15.3469213 24.5105452,15.4265797 24.5105452,15.5227192 C24.5105452,16.3124366 25.1522187,16.9510776 25.9443059,16.9510776 C26.0409019,16.9510776 26.1223185,16.9126218 26.2133947,16.8961407 L28.7041916,19.3696728 L28.7041916,12.7758762 L22.0790859,12.7758762 Z" id="Fill-2"></path>
                        <path d="M25.167398,19.9231617 C25.167398,20.7060119 24.5257246,21.3446529 23.7336374,21.3446529 C22.9415502,21.3446529 22.2998768,20.7060119 22.2998768,19.9231617 C22.2998768,19.1334443 22.9415502,18.4961767 23.7336374,18.4961767 C24.5257246,18.4961767 25.167398,19.1334443 25.167398,19.9231617 L25.167398,19.9231617 Z" id="Fill-3"></path>
                        <path d="M20.893715,19.9231617 C20.893715,21.9929078 18.9521354,23.6726023 16.5593144,23.6726023 C14.1664935,23.6726023 12.2249139,21.9929078 12.2249139,19.9231617 C12.2249139,17.8465484 14.1664935,16.1668539 16.5593144,16.1668539 C18.9521354,16.1668539 20.893715,17.8465484 20.893715,19.9231617 L20.893715,19.9231617 Z" id="Fill-4"></path>
                        <path d="M10.8132323,19.9231617 C10.8132323,20.7060119 10.1770787,21.3446529 9.38499145,21.3446529 C8.59290424,21.3446529 7.95123081,20.7060119 7.95123081,19.9231617 C7.95123081,19.1334443 8.59290424,18.4961767 9.38499145,18.4961767 C10.1770787,18.4961767 10.8132323,19.1334443 10.8132323,19.9231617 L10.8132323,19.9231617 Z" id="Fill-5"></path>
                        <path d="M4.41443724,19.3696728 L6.89971434,16.8961407 C6.99079057,16.9126218 7.07772697,16.9510776 7.17432297,16.9510776 C7.96641018,16.9510776 8.60808362,16.3124366 8.60808362,15.5227192 C8.60808362,15.4265797 8.57082516,15.3469213 8.55426584,15.254902 L11.0395429,12.7758762 L4.41443724,12.7758762 L4.41443724,19.3696728 Z" id="Fill-6"></path>
                        <path d="M8.60808362,24.316737 C8.60808362,23.5283931 7.96641018,22.8897521 7.17432297,22.8897521 C7.07772697,22.8897521 6.99631034,22.9268345 6.90523412,22.9433155 L4.41443724,20.4697834 L4.41443724,27.06358 L11.0395429,27.06358 L8.55426584,24.5900479 C8.57082516,24.4994021 8.60808362,24.4128765 8.60808362,24.316737 L8.60808362,24.316737 Z" id="Fill-7"></path>
                        <path d="M25.9443059,22.8897521 C25.1522187,22.8897521 24.5105452,23.5283931 24.5105452,24.316737 C24.5105452,24.4128765 24.5478037,24.4939084 24.564363,24.5845542 L22.0790859,27.06358 L28.7041916,27.06358 L28.7041916,20.4697834 L26.2189145,22.9433155 C26.1278383,22.9268345 26.0409019,22.8897521 25.9443059,22.8897521 L25.9443059,22.8897521 Z" id="Fill-8"></path>
                        <path d="M22.0790859,8.80119442 C22.0790859,9.58404467 21.4374125,10.2226857 20.6453253,10.2226857 C19.8532381,10.2226857 19.2170844,9.58404467 19.2170844,8.80119442 C19.2170844,8.01285049 19.8532381,7.37420949 20.6453253,7.37420949 C21.4374125,7.37420949 22.0790859,8.01285049 22.0790859,8.80119442 L22.0790859,8.80119442 Z" id="Fill-9"></path>
                        <path d="M2.75988574,12.7758762 C2.75988574,11.869418 3.50367494,11.1291439 4.41443724,11.1291439 L5.31967976,11.1291439 L5.36383793,10.9904283 L18.1434888,4.0258079 L19.1191084,4.31010614 C19.1467073,4.3966317 19.1577468,4.48727752 19.2060448,4.57380307 C19.5827692,5.2660075 20.4562731,5.51734364 21.1517643,5.13690588 C21.2331809,5.09432982 21.2925185,5.02428532 21.3615156,4.95973451 L22.3385152,5.24403276 L24.564363,9.29425274 L24.2787148,10.2652617 C24.1917784,10.2927302 24.1007022,10.3037175 24.0137658,10.3462936 C23.6908592,10.523465 23.4755881,10.8132569 23.3624328,11.1291439 L27.5933376,11.1291439 L24.7368559,5.94173088 L21.5560876,0.158252975 L15.7451481,3.3294832 L0.253909488,11.7677848 L2.75988574,16.3275442 L2.75988574,12.7758762 Z" id="Fill-10"></path>
                        <path d="M12.5436807,8.93990999 C11.5791006,9.46043674 10.8891292,10.2556478 10.4999853,11.1291439 L18.4843347,11.1291439 C18.4194774,10.7967758 18.3215015,10.4699015 18.1545284,10.1581349 C17.1526899,8.3397248 14.6398139,7.79722331 12.5436807,8.93990999 L12.5436807,8.93990999 Z" id="Fill-11"></path>
                    </g>
                    <path d="M6.18214405,14.5366026 L26.9364848,14.5366026 L26.9364848,25.3042271 L6.18214405,25.3042271 L6.18214405,14.5366026 Z M4.41443724,27.06358 L28.7041916,27.06358 L28.7041916,12.7758762 L4.41443724,12.7758762 L4.41443724,27.06358 Z" id="Fill-1" fill="#279EEE"></path>
                    <path d="M22.0790859,12.7758762 L24.564363,15.254902 C24.5478037,15.3469213 24.5105452,15.4265797 24.5105452,15.5227192 C24.5105452,16.3124366 25.1522187,16.9510776 25.9443059,16.9510776 C26.0409019,16.9510776 26.1223185,16.9126218 26.2133947,16.8961407 L28.7041916,19.3696728 L28.7041916,12.7758762 L22.0790859,12.7758762 Z" id="Fill-2" fill="#279EEE"></path>
                    <path d="M25.167398,19.9231617 C25.167398,20.7060119 24.5257246,21.3446529 23.7336374,21.3446529 C22.9415502,21.3446529 22.2998768,20.7060119 22.2998768,19.9231617 C22.2998768,19.1334443 22.9415502,18.4961767 23.7336374,18.4961767 C24.5257246,18.4961767 25.167398,19.1334443 25.167398,19.9231617 L25.167398,19.9231617 Z" id="Fill-3" fill="#279EEE"></path>
                    <path d="M20.893715,19.9231617 C20.893715,21.9929078 18.9521354,23.6726023 16.5593144,23.6726023 C14.1664935,23.6726023 12.2249139,21.9929078 12.2249139,19.9231617 C12.2249139,17.8465484 14.1664935,16.1668539 16.5593144,16.1668539 C18.9521354,16.1668539 20.893715,17.8465484 20.893715,19.9231617 L20.893715,19.9231617 Z" id="Fill-4" fill="#279EEE"></path>
                    <path d="M10.8132323,19.9231617 C10.8132323,20.7060119 10.1770787,21.3446529 9.38499145,21.3446529 C8.59290424,21.3446529 7.95123081,20.7060119 7.95123081,19.9231617 C7.95123081,19.1334443 8.59290424,18.4961767 9.38499145,18.4961767 C10.1770787,18.4961767 10.8132323,19.1334443 10.8132323,19.9231617 L10.8132323,19.9231617 Z" id="Fill-5" fill="#279EEE"></path>
                    <path d="M4.41443724,19.3696728 L6.89971434,16.8961407 C6.99079057,16.9126218 7.07772697,16.9510776 7.17432297,16.9510776 C7.96641018,16.9510776 8.60808362,16.3124366 8.60808362,15.5227192 C8.60808362,15.4265797 8.57082516,15.3469213 8.55426584,15.254902 L11.0395429,12.7758762 L4.41443724,12.7758762 L4.41443724,19.3696728 Z" id="Fill-6" fill="#279EEE"></path>
                    <path d="M8.60808362,24.316737 C8.60808362,23.5283931 7.96641018,22.8897521 7.17432297,22.8897521 C7.07772697,22.8897521 6.99631034,22.9268345 6.90523412,22.9433155 L4.41443724,20.4697834 L4.41443724,27.06358 L11.0395429,27.06358 L8.55426584,24.5900479 C8.57082516,24.4994021 8.60808362,24.4128765 8.60808362,24.316737 L8.60808362,24.316737 Z" id="Fill-7" fill="#279EEE"></path>
                    <path d="M25.9443059,22.8897521 C25.1522187,22.8897521 24.5105452,23.5283931 24.5105452,24.316737 C24.5105452,24.4128765 24.5478037,24.4939084 24.564363,24.5845542 L22.0790859,27.06358 L28.7041916,27.06358 L28.7041916,20.4697834 L26.2189145,22.9433155 C26.1278383,22.9268345 26.0409019,22.8897521 25.9443059,22.8897521 L25.9443059,22.8897521 Z" id="Fill-8" fill="#279EEE"></path>
                    <path d="M22.0790859,8.80119442 C22.0790859,9.58404467 21.4374125,10.2226857 20.6453253,10.2226857 C19.8532381,10.2226857 19.2170844,9.58404467 19.2170844,8.80119442 C19.2170844,8.01285049 19.8532381,7.37420949 20.6453253,7.37420949 C21.4374125,7.37420949 22.0790859,8.01285049 22.0790859,8.80119442 L22.0790859,8.80119442 Z" id="Fill-9" fill="#1C82C6"></path>
                    <path d="M2.75988574,12.7758762 C2.75988574,11.869418 3.50367494,11.1291439 4.41443724,11.1291439 L5.31967976,11.1291439 L5.36383793,10.9904283 L18.1434888,4.0258079 L19.1191084,4.31010614 C19.1467073,4.3966317 19.1577468,4.48727752 19.2060448,4.57380307 C19.5827692,5.2660075 20.4562731,5.51734364 21.1517643,5.13690588 C21.2331809,5.09432982 21.2925185,5.02428532 21.3615156,4.95973451 L22.3385152,5.24403276 L24.564363,9.29425274 L24.2787148,10.2652617 C24.1917784,10.2927302 24.1007022,10.3037175 24.0137658,10.3462936 C23.6908592,10.523465 23.4755881,10.8132569 23.3624328,11.1291439 L27.5933376,11.1291439 L24.7368559,5.94173088 L21.5560876,0.158252975 L15.7451481,3.3294832 L0.253909488,11.7677848 L2.75988574,16.3275442 L2.75988574,12.7758762 Z" id="Fill-10" fill="#1C82C6"></path>
                    <path d="M12.5436807,8.93990999 C11.5791006,9.46043674 10.8891292,10.2556478 10.4999853,11.1291439 L18.4843347,11.1291439 C18.4194774,10.7967758 18.3215015,10.4699015 18.1545284,10.1581349 C17.1526899,8.3397248 14.6398139,7.79722331 12.5436807,8.93990999 L12.5436807,8.93990999 Z" id="Fill-11" fill="#1C82C6"></path>
                </g>
                <g id="Group-Copy-5" transform="translate(108.093683, 87.277677) rotate(-240.000000) translate(-108.093683, -87.277677) translate(100.385907, 80.072582)" sketch:type="MSShapeGroup">
                    <g id="money146-copy-2" fill="#A6B7C2">
                        <path d="M3.28624686,7.72723251 L14.318647,7.72723251 L14.318647,13.4509866 L3.28624686,13.4509866 L3.28624686,7.72723251 Z M2.34658565,14.3862071 L15.2583082,14.3862071 L15.2583082,6.79128191 L2.34658565,6.79128191 L2.34658565,14.3862071 Z" id="Fill-1"></path>
                        <path d="M11.7365959,6.79128191 L13.0576965,8.10905947 C13.048894,8.1579742 13.0290885,8.2003183 13.0290885,8.25142325 C13.0290885,8.67121389 13.3701834,9.01069675 13.7912337,9.01069675 C13.8425813,9.01069675 13.88586,8.99025477 13.9342735,8.98149392 L15.2583082,10.2963512 L15.2583082,6.79128191 L11.7365959,6.79128191 Z" id="Fill-2"></path>
                        <path d="M13.3782523,10.5905697 C13.3782523,11.00671 13.0371574,11.3461928 12.6161071,11.3461928 C12.1950567,11.3461928 11.8539619,11.00671 11.8539619,10.5905697 C11.8539619,10.170779 12.1950567,9.83202625 12.6161071,9.83202625 C13.0371574,9.83202625 13.3782523,10.170779 13.3782523,10.5905697 L13.3782523,10.5905697 Z" id="Fill-3"></path>
                        <path d="M11.1064874,10.5905697 C11.1064874,11.6907862 10.0744005,12.5836626 8.80244693,12.5836626 C7.53049335,12.5836626 6.49840645,11.6907862 6.49840645,10.5905697 C6.49840645,9.48670283 7.53049335,8.5938264 8.80244693,8.5938264 C10.0744005,8.5938264 11.1064874,9.48670283 11.1064874,10.5905697 L11.1064874,10.5905697 Z" id="Fill-4"></path>
                        <path d="M5.74799785,10.5905697 C5.74799785,11.00671 5.40983718,11.3461928 4.9887868,11.3461928 C4.56773642,11.3461928 4.2266416,11.00671 4.2266416,10.5905697 C4.2266416,10.170779 4.56773642,9.83202625 4.9887868,9.83202625 C5.40983718,9.83202625 5.74799785,10.170779 5.74799785,10.5905697 L5.74799785,10.5905697 Z" id="Fill-5"></path>
                        <path d="M2.34658565,10.2963512 L3.66768622,8.98149392 C3.71609968,8.99025477 3.76231253,9.01069675 3.81366013,9.01069675 C4.23471051,9.01069675 4.57580533,8.67121389 4.57580533,8.25142325 C4.57580533,8.2003183 4.55599983,8.1579742 4.54719738,8.10905947 L5.86829796,6.79128191 L2.34658565,6.79128191 L2.34658565,10.2963512 Z" id="Fill-6"></path>
                        <path d="M4.57580533,12.9260658 C4.57580533,12.5070052 4.23471051,12.1675223 3.81366013,12.1675223 C3.76231253,12.1675223 3.71903383,12.1872342 3.67062037,12.1959951 L2.34658565,10.8811378 L2.34658565,14.3862071 L5.86829796,14.3862071 L4.54719738,13.0713498 C4.55599983,13.0231652 4.57580533,12.9771707 4.57580533,12.9260658 L4.57580533,12.9260658 Z" id="Fill-7"></path>
                        <path d="M13.7912337,12.1675223 C13.3701834,12.1675223 13.0290885,12.5070052 13.0290885,12.9260658 C13.0290885,12.9771707 13.048894,13.0202449 13.0576965,13.0684295 L11.7365959,14.3862071 L15.2583082,14.3862071 L15.2583082,10.8811378 L13.9372076,12.1959951 C13.8887942,12.1872342 13.8425813,12.1675223 13.7912337,12.1675223 L13.7912337,12.1675223 Z" id="Fill-8"></path>
                        <path d="M11.7365959,4.67845739 C11.7365959,5.09459767 11.3955011,5.43408053 10.9744507,5.43408053 C10.5534003,5.43408053 10.2152397,5.09459767 10.2152397,4.67845739 C10.2152397,4.25939682 10.5534003,3.91991396 10.9744507,3.91991396 C11.3955011,3.91991396 11.7365959,4.25939682 11.7365959,4.67845739 L11.7365959,4.67845739 Z" id="Fill-9"></path>
                        <path d="M1.46707449,6.79128191 C1.46707449,6.30943526 1.86245106,5.91592717 2.34658565,5.91592717 L2.82778608,5.91592717 L2.85125927,5.84219004 L9.64454769,2.14000166 L10.1631585,2.29112629 C10.1778293,2.33712074 10.1836976,2.38530541 10.2093714,2.43129986 C10.409627,2.79925548 10.8739561,2.93285841 11.2436589,2.73062883 C11.2869376,2.70799664 11.3184797,2.67076304 11.3551565,2.63644972 L11.8745009,2.78757435 L13.0576965,4.94055276 L12.9058543,5.45671272 C12.8596414,5.47131413 12.811228,5.4771547 12.7650151,5.49978689 C12.5933674,5.59396601 12.4789356,5.74801092 12.4187856,5.91592717 L14.6678107,5.91592717 L13.1493886,3.15845025 L11.4585853,0.0841226502 L8.36965996,1.76985583 L0.134970853,6.25541004 L1.46707449,8.67924466 L1.46707449,6.79128191 Z" id="Fill-10"></path>
                        <path d="M6.66785355,4.75219452 C6.15511102,5.02889131 5.7883424,5.45160223 5.58148489,5.91592717 L9.82573139,5.91592717 C9.79125514,5.73925007 9.739174,5.56549325 9.65041599,5.39976721 C9.11786795,4.43315364 7.78209663,4.14477572 6.66785355,4.75219452 L6.66785355,4.75219452 Z" id="Fill-11"></path>
                    </g>
                    <path d="M3.28624686,7.72723251 L14.318647,7.72723251 L14.318647,13.4509866 L3.28624686,13.4509866 L3.28624686,7.72723251 Z M2.34658565,14.3862071 L15.2583082,14.3862071 L15.2583082,6.79128191 L2.34658565,6.79128191 L2.34658565,14.3862071 Z" id="Fill-1" fill="#279EEE"></path>
                    <path d="M11.7365959,6.79128191 L13.0576965,8.10905947 C13.048894,8.1579742 13.0290885,8.2003183 13.0290885,8.25142325 C13.0290885,8.67121389 13.3701834,9.01069675 13.7912337,9.01069675 C13.8425813,9.01069675 13.88586,8.99025477 13.9342735,8.98149392 L15.2583082,10.2963512 L15.2583082,6.79128191 L11.7365959,6.79128191 Z" id="Fill-2" fill="#279EEE"></path>
                    <path d="M13.3782523,10.5905697 C13.3782523,11.00671 13.0371574,11.3461928 12.6161071,11.3461928 C12.1950567,11.3461928 11.8539619,11.00671 11.8539619,10.5905697 C11.8539619,10.170779 12.1950567,9.83202625 12.6161071,9.83202625 C13.0371574,9.83202625 13.3782523,10.170779 13.3782523,10.5905697 L13.3782523,10.5905697 Z" id="Fill-3" fill="#279EEE"></path>
                    <path d="M11.1064874,10.5905697 C11.1064874,11.6907862 10.0744005,12.5836626 8.80244693,12.5836626 C7.53049335,12.5836626 6.49840645,11.6907862 6.49840645,10.5905697 C6.49840645,9.48670283 7.53049335,8.5938264 8.80244693,8.5938264 C10.0744005,8.5938264 11.1064874,9.48670283 11.1064874,10.5905697 L11.1064874,10.5905697 Z" id="Fill-4" fill="#279EEE"></path>
                    <path d="M5.74799785,10.5905697 C5.74799785,11.00671 5.40983718,11.3461928 4.9887868,11.3461928 C4.56773642,11.3461928 4.2266416,11.00671 4.2266416,10.5905697 C4.2266416,10.170779 4.56773642,9.83202625 4.9887868,9.83202625 C5.40983718,9.83202625 5.74799785,10.170779 5.74799785,10.5905697 L5.74799785,10.5905697 Z" id="Fill-5" fill="#279EEE"></path>
                    <path d="M2.34658565,10.2963512 L3.66768622,8.98149392 C3.71609968,8.99025477 3.76231253,9.01069675 3.81366013,9.01069675 C4.23471051,9.01069675 4.57580533,8.67121389 4.57580533,8.25142325 C4.57580533,8.2003183 4.55599983,8.1579742 4.54719738,8.10905947 L5.86829796,6.79128191 L2.34658565,6.79128191 L2.34658565,10.2963512 Z" id="Fill-6" fill="#279EEE"></path>
                    <path d="M4.57580533,12.9260658 C4.57580533,12.5070052 4.23471051,12.1675223 3.81366013,12.1675223 C3.76231253,12.1675223 3.71903383,12.1872342 3.67062037,12.1959951 L2.34658565,10.8811378 L2.34658565,14.3862071 L5.86829796,14.3862071 L4.54719738,13.0713498 C4.55599983,13.0231652 4.57580533,12.9771707 4.57580533,12.9260658 L4.57580533,12.9260658 Z" id="Fill-7" fill="#279EEE"></path>
                    <path d="M13.7912337,12.1675223 C13.3701834,12.1675223 13.0290885,12.5070052 13.0290885,12.9260658 C13.0290885,12.9771707 13.048894,13.0202449 13.0576965,13.0684295 L11.7365959,14.3862071 L15.2583082,14.3862071 L15.2583082,10.8811378 L13.9372076,12.1959951 C13.8887942,12.1872342 13.8425813,12.1675223 13.7912337,12.1675223 L13.7912337,12.1675223 Z" id="Fill-8" fill="#279EEE"></path>
                    <path d="M11.7365959,4.67845739 C11.7365959,5.09459767 11.3955011,5.43408053 10.9744507,5.43408053 C10.5534003,5.43408053 10.2152397,5.09459767 10.2152397,4.67845739 C10.2152397,4.25939682 10.5534003,3.91991396 10.9744507,3.91991396 C11.3955011,3.91991396 11.7365959,4.25939682 11.7365959,4.67845739 L11.7365959,4.67845739 Z" id="Fill-9" fill="#1C82C6"></path>
                    <path d="M1.46707449,6.79128191 C1.46707449,6.30943526 1.86245106,5.91592717 2.34658565,5.91592717 L2.82778608,5.91592717 L2.85125927,5.84219004 L9.64454769,2.14000166 L10.1631585,2.29112629 C10.1778293,2.33712074 10.1836976,2.38530541 10.2093714,2.43129986 C10.409627,2.79925548 10.8739561,2.93285841 11.2436589,2.73062883 C11.2869376,2.70799664 11.3184797,2.67076304 11.3551565,2.63644972 L11.8745009,2.78757435 L13.0576965,4.94055276 L12.9058543,5.45671272 C12.8596414,5.47131413 12.811228,5.4771547 12.7650151,5.49978689 C12.5933674,5.59396601 12.4789356,5.74801092 12.4187856,5.91592717 L14.6678107,5.91592717 L13.1493886,3.15845025 L11.4585853,0.0841226502 L8.36965996,1.76985583 L0.134970853,6.25541004 L1.46707449,8.67924466 L1.46707449,6.79128191 Z" id="Fill-10" fill="#1C82C6"></path>
                    <path d="M6.66785355,4.75219452 C6.15511102,5.02889131 5.7883424,5.45160223 5.58148489,5.91592717 L9.82573139,5.91592717 C9.79125514,5.73925007 9.739174,5.56549325 9.65041599,5.39976721 C9.11786795,4.43315364 7.78209663,4.14477572 6.66785355,4.75219452 L6.66785355,4.75219452 Z" id="Fill-11" fill="#1C82C6"></path>
                </g>
                <g id="Group-Copy-5" transform="translate(110.146336, 130.641176) rotate(-240.000000) translate(-110.146336, -130.641176) translate(89.416750, 111.263520)" sketch:type="MSShapeGroup">
                    <g id="money146-copy-2" fill="#A6B7C2">
                        <path d="M8.83815773,20.7819141 L38.5091158,20.7819141 L38.5091158,36.1755967 L8.83815773,36.1755967 L8.83815773,20.7819141 Z M6.310997,38.6908145 L41.0362765,38.6908145 L41.0362765,18.2647328 L6.310997,18.2647328 L6.310997,38.6908145 Z" id="Fill-1"></path>
                        <path d="M31.564849,18.2647328 L35.1178674,21.8088141 C35.0941937,21.9403672 35.040928,22.0542491 35.040928,22.1916926 C35.040928,23.3206936 35.9582815,24.2337118 37.0906704,24.2337118 C37.2287666,24.2337118 37.345162,24.1787343 37.475367,24.1551726 L41.0362765,27.6913999 L41.0362765,18.2647328 L31.564849,18.2647328 Z" id="Fill-2"></path>
                        <path d="M35.9799823,28.4826823 C35.9799823,29.6018659 35.0626289,30.5148841 33.9302399,30.5148841 C32.7978509,30.5148841 31.8804975,29.6018659 31.8804975,28.4826823 C31.8804975,27.3536814 32.7978509,26.4426267 33.9302399,26.4426267 C35.0626289,26.4426267 35.9799823,27.3536814 35.9799823,28.4826823 L35.9799823,28.4826823 Z" id="Fill-3"></path>
                        <path d="M29.8702112,28.4826823 C29.8702112,31.4416466 27.0944773,33.8429826 23.6736368,33.8429826 C20.2527963,33.8429826 17.4770623,31.4416466 17.4770623,28.4826823 C17.4770623,25.5139007 20.2527963,23.1125647 23.6736368,23.1125647 C27.0944773,23.1125647 29.8702112,25.5139007 29.8702112,28.4826823 L29.8702112,28.4826823 Z" id="Fill-4"></path>
                        <path d="M15.4588848,28.4826823 C15.4588848,29.6018659 14.5494226,30.5148841 13.4170336,30.5148841 C12.2846447,30.5148841 11.3672913,29.6018659 11.3672913,28.4826823 C11.3672913,27.3536814 12.2846447,26.4426267 13.4170336,26.4426267 C14.5494226,26.4426267 15.4588848,27.3536814 15.4588848,28.4826823 L15.4588848,28.4826823 Z" id="Fill-5"></path>
                        <path d="M6.310997,27.6913999 L9.86401532,24.1551726 C9.99422032,24.1787343 10.1185069,24.2337118 10.2566031,24.2337118 C11.3889921,24.2337118 12.3063455,23.3206936 12.3063455,22.1916926 C12.3063455,22.0542491 12.2530798,21.9403672 12.2294062,21.8088141 L15.7824245,18.2647328 L6.310997,18.2647328 L6.310997,27.6913999 Z" id="Fill-6"></path>
                        <path d="M12.3063455,34.7638546 C12.3063455,33.6368172 11.3889921,32.723799 10.2566031,32.723799 C10.1185069,32.723799 10.0021115,32.7768129 9.87190653,32.8003747 L6.310997,29.2641474 L6.310997,38.6908145 L15.7824245,38.6908145 L12.2294062,35.1545871 C12.2530798,35.0249975 12.3063455,34.9012982 12.3063455,34.7638546 L12.3063455,34.7638546 Z" id="Fill-7"></path>
                        <path d="M37.0906704,32.723799 C35.9582815,32.723799 35.040928,33.6368172 35.040928,34.7638546 C35.040928,34.9012982 35.0941937,35.0171436 35.1178674,35.1467332 L31.564849,38.6908145 L41.0362765,38.6908145 L41.0362765,29.2641474 L37.4832582,32.8003747 C37.3530532,32.7768129 37.2287666,32.723799 37.0906704,32.723799 L37.0906704,32.723799 Z" id="Fill-8"></path>
                        <path d="M31.564849,12.5824219 C31.564849,13.7016054 30.6474956,14.6146236 29.5151066,14.6146236 C28.3827177,14.6146236 27.4732555,13.7016054 27.4732555,12.5824219 C27.4732555,11.4553844 28.3827177,10.5423662 29.5151066,10.5423662 C30.6474956,10.5423662 31.564849,11.4553844 31.564849,12.5824219 L31.564849,12.5824219 Z" id="Fill-9"></path>
                        <path d="M3.94560613,18.2647328 C3.94560613,16.968836 5.00894698,15.9105203 6.310997,15.9105203 L7.60515581,15.9105203 L7.66828551,15.7122089 L25.9384147,5.75540215 L27.3331865,6.1618425 C27.3726425,6.28554173 27.3884249,6.41513141 27.4574731,6.53883064 C27.9960483,7.52842453 29.2448326,7.88774135 30.2391254,7.34385741 C30.3555208,7.28298954 30.4403513,7.18285206 30.5389914,7.0905685 L31.935736,7.49700885 L35.1178674,13.2873112 L34.7094971,14.6754915 C34.5852105,14.7147611 34.4550055,14.7304689 34.3307189,14.7913368 C33.869083,15.0446257 33.5613257,15.45892 33.3995559,15.9105203 L39.4481701,15.9105203 L35.3644677,8.49445665 L30.8171567,0.226242666 L22.509683,4.75991783 L0.362995764,16.8235385 L3.94560613,23.3422919 L3.94560613,18.2647328 Z" id="Fill-10"></path>
                        <path d="M17.9327799,12.7807333 C16.5537905,13.5248922 15.567389,14.6617471 15.0110585,15.9105203 L26.425697,15.9105203 C26.3329753,15.4353582 26.1929063,14.96805 25.9541971,14.52234 C24.5219421,11.9226926 20.9294677,11.147118 17.9327799,12.7807333 L17.9327799,12.7807333 Z" id="Fill-11"></path>
                    </g>
                    <path d="M8.83815773,20.7819141 L38.5091158,20.7819141 L38.5091158,36.1755967 L8.83815773,36.1755967 L8.83815773,20.7819141 Z M6.310997,38.6908145 L41.0362765,38.6908145 L41.0362765,18.2647328 L6.310997,18.2647328 L6.310997,38.6908145 Z" id="Fill-1" fill="#279EEE"></path>
                    <path d="M31.564849,18.2647328 L35.1178674,21.8088141 C35.0941937,21.9403672 35.040928,22.0542491 35.040928,22.1916926 C35.040928,23.3206936 35.9582815,24.2337118 37.0906704,24.2337118 C37.2287666,24.2337118 37.345162,24.1787343 37.475367,24.1551726 L41.0362765,27.6913999 L41.0362765,18.2647328 L31.564849,18.2647328 Z" id="Fill-2" fill="#279EEE"></path>
                    <path d="M35.9799823,28.4826823 C35.9799823,29.6018659 35.0626289,30.5148841 33.9302399,30.5148841 C32.7978509,30.5148841 31.8804975,29.6018659 31.8804975,28.4826823 C31.8804975,27.3536814 32.7978509,26.4426267 33.9302399,26.4426267 C35.0626289,26.4426267 35.9799823,27.3536814 35.9799823,28.4826823 L35.9799823,28.4826823 Z" id="Fill-3" fill="#279EEE"></path>
                    <path d="M29.8702112,28.4826823 C29.8702112,31.4416466 27.0944773,33.8429826 23.6736368,33.8429826 C20.2527963,33.8429826 17.4770623,31.4416466 17.4770623,28.4826823 C17.4770623,25.5139007 20.2527963,23.1125647 23.6736368,23.1125647 C27.0944773,23.1125647 29.8702112,25.5139007 29.8702112,28.4826823 L29.8702112,28.4826823 Z" id="Fill-4" fill="#279EEE"></path>
                    <path d="M15.4588848,28.4826823 C15.4588848,29.6018659 14.5494226,30.5148841 13.4170336,30.5148841 C12.2846447,30.5148841 11.3672913,29.6018659 11.3672913,28.4826823 C11.3672913,27.3536814 12.2846447,26.4426267 13.4170336,26.4426267 C14.5494226,26.4426267 15.4588848,27.3536814 15.4588848,28.4826823 L15.4588848,28.4826823 Z" id="Fill-5" fill="#279EEE"></path>
                    <path d="M6.310997,27.6913999 L9.86401532,24.1551726 C9.99422032,24.1787343 10.1185069,24.2337118 10.2566031,24.2337118 C11.3889921,24.2337118 12.3063455,23.3206936 12.3063455,22.1916926 C12.3063455,22.0542491 12.2530798,21.9403672 12.2294062,21.8088141 L15.7824245,18.2647328 L6.310997,18.2647328 L6.310997,27.6913999 Z" id="Fill-6" fill="#279EEE"></path>
                    <path d="M12.3063455,34.7638546 C12.3063455,33.6368172 11.3889921,32.723799 10.2566031,32.723799 C10.1185069,32.723799 10.0021115,32.7768129 9.87190653,32.8003747 L6.310997,29.2641474 L6.310997,38.6908145 L15.7824245,38.6908145 L12.2294062,35.1545871 C12.2530798,35.0249975 12.3063455,34.9012982 12.3063455,34.7638546 L12.3063455,34.7638546 Z" id="Fill-7" fill="#279EEE"></path>
                    <path d="M37.0906704,32.723799 C35.9582815,32.723799 35.040928,33.6368172 35.040928,34.7638546 C35.040928,34.9012982 35.0941937,35.0171436 35.1178674,35.1467332 L31.564849,38.6908145 L41.0362765,38.6908145 L41.0362765,29.2641474 L37.4832582,32.8003747 C37.3530532,32.7768129 37.2287666,32.723799 37.0906704,32.723799 L37.0906704,32.723799 Z" id="Fill-8" fill="#279EEE"></path>
                    <path d="M31.564849,12.5824219 C31.564849,13.7016054 30.6474956,14.6146236 29.5151066,14.6146236 C28.3827177,14.6146236 27.4732555,13.7016054 27.4732555,12.5824219 C27.4732555,11.4553844 28.3827177,10.5423662 29.5151066,10.5423662 C30.6474956,10.5423662 31.564849,11.4553844 31.564849,12.5824219 L31.564849,12.5824219 Z" id="Fill-9" fill="#1C82C6"></path>
                    <path d="M3.94560613,18.2647328 C3.94560613,16.968836 5.00894698,15.9105203 6.310997,15.9105203 L7.60515581,15.9105203 L7.66828551,15.7122089 L25.9384147,5.75540215 L27.3331865,6.1618425 C27.3726425,6.28554173 27.3884249,6.41513141 27.4574731,6.53883064 C27.9960483,7.52842453 29.2448326,7.88774135 30.2391254,7.34385741 C30.3555208,7.28298954 30.4403513,7.18285206 30.5389914,7.0905685 L31.935736,7.49700885 L35.1178674,13.2873112 L34.7094971,14.6754915 C34.5852105,14.7147611 34.4550055,14.7304689 34.3307189,14.7913368 C33.869083,15.0446257 33.5613257,15.45892 33.3995559,15.9105203 L39.4481701,15.9105203 L35.3644677,8.49445665 L30.8171567,0.226242666 L22.509683,4.75991783 L0.362995764,16.8235385 L3.94560613,23.3422919 L3.94560613,18.2647328 Z" id="Fill-10" fill="#1C82C6"></path>
                    <path d="M17.9327799,12.7807333 C16.5537905,13.5248922 15.567389,14.6617471 15.0110585,15.9105203 L26.425697,15.9105203 C26.3329753,15.4353582 26.1929063,14.96805 25.9541971,14.52234 C24.5219421,11.9226926 20.9294677,11.147118 17.9327799,12.7807333 L17.9327799,12.7807333 Z" id="Fill-11" fill="#1C82C6"></path>
                </g>
            </g>
        </g>
    </g>
</svg>