<?xml version="1.0" encoding="UTF-8" standalone="no"?>
<svg width="180px" height="156px" viewBox="0 0 180 156" version="1.1" xmlns="http://www.w3.org/2000/svg" xmlns:xlink="http://www.w3.org/1999/xlink" xmlns:sketch="http://www.bohemiancoding.com/sketch/ns">
    <!-- Generator: Sketch 3.5.2 (25235) - http://www.bohemiancoding.com/sketch -->
    <title>Group 8</title>
    <desc>Created with Sketch.</desc>
    <defs>
        <linearGradient x1="91.4062108%" y1="-32.8762273%" x2="16.3354027%" y2="123.196752%" id="linearGradient-1">
            <stop stop-color="#FFFFFF" offset="0%"></stop>
            <stop stop-color="#D5DCE9" offset="100%"></stop>
        </linearGradient>
        <path id="path-2" d="M0.00612607887,23.9096792 L80.5579371,23.9096792 L80.5579371,83.115651 L0.00612607887,83.115651 L0.00612607887,23.9096792 Z"></path>
        <path id="path-4" d="M0,37.5888702 L8.79418754,42.7146252 C8.79418754,42.7146252 34.2973314,55.5290128 52.7651253,20.5030201 C71.2329191,-14.5229726 29.9002377,5.98004753 29.9002377,5.98004753 L0,37.5888702 Z"></path>
        <path id="path-6" d="M0.129191621,0.327934915 L45.2170674,0.327934915 L45.2170674,37.1035208 L0.129191621,37.1035208 L0.129191621,0.327934915 Z"></path>
        <path id="path-8" d="M2.63825626,49.5489652 L0,34.1717002 C0,34.1717002 27.2619814,46.9860877 45.7297752,11.9600951 C64.1975691,-23.0658976 52.7651253,33.3174077 52.7651253,33.3174077 L2.63825626,49.5489652 Z"></path>
    </defs>
    <g id="Page-1" stroke="none" stroke-width="1" fill="none" fill-rule="evenodd" sketch:type="MSPage">
        <g id="16-Income-in-Retirement-Copy" sketch:type="MSArtboardGroup" transform="translate(-679.000000, -381.000000)">
            <g id="Group-7" sketch:type="MSLayerGroup" transform="translate(666.000000, 364.000000)">
                <g id="Group-8">
                    <ellipse id="Oval-298-Copy-2" fill="url(#linearGradient-1)" sketch:type="MSShapeGroup" cx="116.442063" cy="96.7294124" rx="76.4420629" ry="75.7294124"></ellipse>
                    <g id="Group-Copy-5" transform="translate(0.000000, 12.000000)" sketch:type="MSShapeGroup">
                        <path d="M60.8496407,24.9564063 C60.7614988,24.9082806 60.6726198,24.8609334 60.5830439,24.8143646 C58.4182575,15.5095903 50.2194752,8.58578023 40.4274989,8.57577266 L38.5937736,8.57577266 C28.7398551,8.57577266 20.5285351,15.50526 18.4257535,24.8334218 C18.3475501,24.8741143 18.2701281,24.915091 18.1934696,24.9564063 L15.119915,24.9564063 C17.4348578,14.0429356 26.9781972,5.89878694 38.4520641,5.89878694 L40.5674587,5.89878694 C51.9771405,5.91044783 61.5117504,14.0591448 63.8922266,24.9564063 L60.8496407,24.9564063 Z" id="Path" fill="#92A1BD"></path>
                        <g id="Rectangle-193-+-Rectangle-193-Copy-3-+-Group-Copy" transform="translate(44.884118, 29.025348) rotate(-15.000000) translate(-44.884118, -29.025348) translate(23.284239, 6.972960)">
                            <path d="M12.5729665,30.8250856 L30.2121691,12.4067217 L39.9799549,21.9180811 L22.3407523,40.3364451 L12.5729665,30.8250856 L12.5729665,30.8250856 Z" id="Rectangle-193" fill="#FFFFFF"></path>
                            <path d="M10.5022298,32.0678852 L18.1985408,6.68430541 L31.1840311,10.6874996 L23.4877201,36.0710794 L10.5022298,32.0678852 L10.5022298,32.0678852 Z" id="Rectangle-193-Copy-3" fill="#FFFFFF"></path>
                            <g id="Group-Copy" transform="translate(21.573707, 22.014549) rotate(-45.000000) translate(-21.573707, -22.014549) translate(5.913795, 7.040705)">
                                <path d="M5.16067547,15.3441784 L28.5922321,15.3441784 L28.5922321,27.7289265 L5.16067547,27.7289265 L5.16067547,15.3441784 Z M3.16494249,29.7525059 L30.5879651,29.7525059 L30.5879651,13.3190193 L3.16494249,13.3190193 L3.16494249,29.7525059 Z" id="Fill-1" fill="#279EEE"></path>
                                <path d="M23.1082508,13.3190193 L25.9141174,16.1703548 C25.895422,16.2761938 25.8533573,16.3678157 25.8533573,16.4783938 C25.8533573,17.386714 26.5778037,18.1212686 27.4720666,18.1212686 C27.5811231,18.1212686 27.6730421,18.0770373 27.7758667,18.0580811 L30.5879651,20.9030978 L30.5879651,13.3190193 L23.1082508,13.3190193 Z" id="Fill-2" fill="#279EEE"></path>
                                <path d="M26.5949412,21.5397118 C26.5949412,22.4401335 25.8704948,23.1746881 24.9762319,23.1746881 C24.0819691,23.1746881 23.3575227,22.4401335 23.3575227,21.5397118 C23.3575227,20.6313916 24.0819691,19.8984167 24.9762319,19.8984167 C25.8704948,19.8984167 26.5949412,20.6313916 26.5949412,21.5397118 L26.5949412,21.5397118 Z" id="Fill-3" fill="#279EEE"></path>
                                <path d="M21.7699724,21.5397118 C21.7699724,23.9203005 19.5779378,25.852258 16.8764538,25.852258 C14.1749698,25.852258 11.9829352,23.9203005 11.9829352,21.5397118 C11.9829352,19.1512247 14.1749698,17.2192671 16.8764538,17.2192671 C19.5779378,17.2192671 21.7699724,19.1512247 21.7699724,21.5397118 L21.7699724,21.5397118 Z" id="Fill-4" fill="#279EEE"></path>
                                <path d="M10.3891531,21.5397118 C10.3891531,22.4401335 9.67093854,23.1746881 8.77667567,23.1746881 C7.8824128,23.1746881 7.15796641,22.4401335 7.15796641,21.5397118 C7.15796641,20.6313916 7.8824128,19.8984167 8.77667567,19.8984167 C9.67093854,19.8984167 10.3891531,20.6313916 10.3891531,21.5397118 L10.3891531,21.5397118 Z" id="Fill-5" fill="#279EEE"></path>
                                <path d="M3.16494249,20.9030978 L5.97080908,18.0580811 C6.07363373,18.0770373 6.17178453,18.1212686 6.28084098,18.1212686 C7.17510385,18.1212686 7.89955025,17.386714 7.89955025,16.4783938 C7.89955025,16.3678157 7.85748562,16.2761938 7.83879023,16.1703548 L10.6446568,13.3190193 L3.16494249,13.3190193 L3.16494249,20.9030978 Z" id="Fill-6" fill="#279EEE"></path>
                                <path d="M7.89955025,26.5931313 C7.89955025,25.6863908 7.17510385,24.9518363 6.28084098,24.9518363 C6.17178453,24.9518363 6.07986553,24.9944878 5.97704088,25.0134441 L3.16494249,22.1684273 L3.16494249,29.7525059 L10.6446568,29.7525059 L7.83879023,26.9074891 C7.85748562,26.8032297 7.89955025,26.7037094 7.89955025,26.5931313 L7.89955025,26.5931313 Z" id="Fill-7" fill="#279EEE"></path>
                                <path d="M27.4720666,24.9518363 C26.5778037,24.9518363 25.8533573,25.6863908 25.8533573,26.5931313 C25.8533573,26.7037094 25.895422,26.796911 25.9141174,26.9011703 L23.1082508,29.7525059 L30.5879651,29.7525059 L30.5879651,22.1684273 L27.7820985,25.0134441 C27.6792739,24.9944878 27.5811231,24.9518363 27.4720666,24.9518363 L27.4720666,24.9518363 Z" id="Fill-8" fill="#279EEE"></path>
                                <path d="M24.6036982,9.89482043 C24.6036982,10.7952422 23.8792518,11.5297967 22.9849889,11.5297967 C22.090726,11.5297967 21.3725114,10.7952422 21.3725114,9.89482043 C21.3725114,8.98807994 22.090726,8.25352536 22.9849889,8.25352536 C23.8792518,8.25352536 24.6036982,8.98807994 24.6036982,9.89482043 L24.6036982,9.89482043 Z" id="Fill-9" fill="#1C82C6"></path>
                                <path d="M2.82923583,14.5125868 C2.82923583,13.4699933 3.66897047,12.6185418 4.69721697,12.6185418 L5.71923168,12.6185418 L5.76908605,12.4589934 L20.197254,4.44839932 L21.2987241,4.77539458 C21.3298831,4.87491488 21.3423467,4.97917424 21.3968749,5.07869454 C21.8221951,5.87485691 22.8083769,6.16393968 23.5935834,5.72636631 C23.6855024,5.67739601 23.7524942,5.59683196 23.8303916,5.52258666 L24.9334197,5.84958192 L27.4463918,10.5080796 L27.1238964,11.6249185 C27.0257455,11.6565123 26.9229209,11.6691498 26.8247701,11.7181201 C26.46021,11.9218997 26.2171699,12.2552138 26.0894181,12.6185418 L30.8660904,12.6185418 L27.6411355,6.65206304 L24.0500625,-2.73558953e-13 L17.4895382,3.64749788 L-6.39488462e-14,13.3530964 L2.82923583,18.5976581 L2.82923583,14.5125868 Z" id="Fill-10" fill="#1C82C6"></path>
                                <path d="M13.67568,9.85856266 C12.5866735,10.4572641 11.8076988,11.3719031 11.3683571,12.3765842 L20.3826515,12.3765842 C20.3094279,11.9942998 20.1988135,11.6183343 20.0103016,11.2597453 C18.8792305,9.16823933 16.0422049,8.54426286 13.67568,9.85856266 L13.67568,9.85856266 Z" id="Fill-11" fill="#1C82C6"></path>
                            </g>
                        </g>
                        <g id="Rectangle-193-+-Rectangle-193-Copy-3-+-Group-Copy-Copy" transform="translate(29.985610, 30.689602) rotate(-56.000000) translate(-29.985610, -30.689602) translate(8.385731, 8.909466)">
                            <path d="M12.5729665,30.2805822 L30.2121691,11.8622183 L39.9799549,21.3735777 L22.3407523,39.7919417 L12.5729665,30.2805822 L12.5729665,30.2805822 Z" id="Rectangle-193" fill="#FFFFFF"></path>
                            <path d="M10.5022298,31.5233818 L18.1985408,6.139802 L31.1840311,10.1429962 L23.4877201,35.526576 L10.5022298,31.5233818 L10.5022298,31.5233818 Z" id="Rectangle-193-Copy-3" fill="#FFFFFF"></path>
                            <g id="Group-Copy" transform="translate(21.382789, 21.561235) rotate(-45.000000) translate(-21.382789, -21.561235) translate(5.921823, 6.659036)">
                                <path d="M5.16067547,15.3441784 L28.5922321,15.3441784 L28.5922321,27.7289265 L5.16067547,27.7289265 L5.16067547,15.3441784 Z M3.16494249,29.7525059 L30.5879651,29.7525059 L30.5879651,13.3190193 L3.16494249,13.3190193 L3.16494249,29.7525059 Z" id="Fill-1" fill="#279EEE"></path>
                                <path d="M23.1082508,13.3190193 L25.9141174,16.1703548 C25.895422,16.2761938 25.8533573,16.3678157 25.8533573,16.4783938 C25.8533573,17.386714 26.5778037,18.1212686 27.4720666,18.1212686 C27.5811231,18.1212686 27.6730421,18.0770373 27.7758667,18.0580811 L30.5879651,20.9030978 L30.5879651,13.3190193 L23.1082508,13.3190193 Z" id="Fill-2" fill="#279EEE"></path>
                                <path d="M26.5949412,21.5397118 C26.5949412,22.4401335 25.8704948,23.1746881 24.9762319,23.1746881 C24.0819691,23.1746881 23.3575227,22.4401335 23.3575227,21.5397118 C23.3575227,20.6313916 24.0819691,19.8984167 24.9762319,19.8984167 C25.8704948,19.8984167 26.5949412,20.6313916 26.5949412,21.5397118 L26.5949412,21.5397118 Z" id="Fill-3" fill="#279EEE"></path>
                                <path d="M21.7699724,21.5397118 C21.7699724,23.9203005 19.5779378,25.852258 16.8764538,25.852258 C14.1749698,25.852258 11.9829352,23.9203005 11.9829352,21.5397118 C11.9829352,19.1512247 14.1749698,17.2192671 16.8764538,17.2192671 C19.5779378,17.2192671 21.7699724,19.1512247 21.7699724,21.5397118 L21.7699724,21.5397118 Z" id="Fill-4" fill="#279EEE"></path>
                                <path d="M10.3891531,21.5397118 C10.3891531,22.4401335 9.67093854,23.1746881 8.77667567,23.1746881 C7.8824128,23.1746881 7.15796641,22.4401335 7.15796641,21.5397118 C7.15796641,20.6313916 7.8824128,19.8984167 8.77667567,19.8984167 C9.67093854,19.8984167 10.3891531,20.6313916 10.3891531,21.5397118 L10.3891531,21.5397118 Z" id="Fill-5" fill="#279EEE"></path>
                                <path d="M3.16494249,20.9030978 L5.97080908,18.0580811 C6.07363373,18.0770373 6.17178453,18.1212686 6.28084098,18.1212686 C7.17510385,18.1212686 7.89955025,17.386714 7.89955025,16.4783938 C7.89955025,16.3678157 7.85748562,16.2761938 7.83879023,16.1703548 L10.6446568,13.3190193 L3.16494249,13.3190193 L3.16494249,20.9030978 Z" id="Fill-6" fill="#279EEE"></path>
                                <path d="M7.89955025,26.5931313 C7.89955025,25.6863908 7.17510385,24.9518363 6.28084098,24.9518363 C6.17178453,24.9518363 6.07986553,24.9944878 5.97704088,25.0134441 L3.16494249,22.1684273 L3.16494249,29.7525059 L10.6446568,29.7525059 L7.83879023,26.9074891 C7.85748562,26.8032297 7.89955025,26.7037094 7.89955025,26.5931313 L7.89955025,26.5931313 Z" id="Fill-7" fill="#279EEE"></path>
                                <path d="M27.4720666,24.9518363 C26.5778037,24.9518363 25.8533573,25.6863908 25.8533573,26.5931313 C25.8533573,26.7037094 25.895422,26.796911 25.9141174,26.9011703 L23.1082508,29.7525059 L30.5879651,29.7525059 L30.5879651,22.1684273 L27.7820985,25.0134441 C27.6792739,24.9944878 27.5811231,24.9518363 27.4720666,24.9518363 L27.4720666,24.9518363 Z" id="Fill-8" fill="#279EEE"></path>
                                <path d="M24.6036982,9.89482043 C24.6036982,10.7952422 23.8792518,11.5297967 22.9849889,11.5297967 C22.090726,11.5297967 21.3725114,10.7952422 21.3725114,9.89482043 C21.3725114,8.98807994 22.090726,8.25352536 22.9849889,8.25352536 C23.8792518,8.25352536 24.6036982,8.98807994 24.6036982,9.89482043 L24.6036982,9.89482043 Z" id="Fill-9" fill="#1C82C6"></path>
                                <path d="M2.82923583,14.5125868 C2.82923583,13.4699933 3.66897047,12.6185418 4.69721697,12.6185418 L5.71923168,12.6185418 L5.76908605,12.4589934 L20.197254,4.44839932 L21.2987241,4.77539458 C21.3298831,4.87491488 21.3423467,4.97917424 21.3968749,5.07869454 C21.8221951,5.87485691 22.8083769,6.16393968 23.5935834,5.72636631 C23.6855024,5.67739601 23.7524942,5.59683196 23.8303916,5.52258666 L24.9334197,5.84958192 L27.4463918,10.5080796 L27.1238964,11.6249185 C27.0257455,11.6565123 26.9229209,11.6691498 26.8247701,11.7181201 C26.46021,11.9218997 26.2171699,12.2552138 26.0894181,12.6185418 L30.8660904,12.6185418 L27.6411355,6.65206304 L24.0500625,-1.04805054e-13 L17.4895382,3.64749788 L2.66453526e-14,13.3530964 L2.82923583,18.5976581 L2.82923583,14.5125868 Z" id="Fill-10" fill="#1C82C6"></path>
                                <path d="M13.67568,9.85856266 C12.5866735,10.4572641 11.8076988,11.3719031 11.3683571,12.3765842 L20.3826515,12.3765842 C20.3094279,11.9942998 20.1988135,11.6183343 20.0103016,11.2597453 C18.8792305,9.16823933 16.0422049,8.54426286 13.67568,9.85856266 L13.67568,9.85856266 Z" id="Fill-11" fill="#1C82C6"></path>
                            </g>
                        </g>
                        <g id="pail1-copy" transform="translate(15.119915, 27.678923)" fill="#92A1BD">
                            <path d="M46.8485102,0.264641696 C47.5819951,1.06697303 47.9727539,1.92439777 47.9603913,2.81702904 L42.4727052,42.4683094 C42.4727052,45.9808885 34.3191413,48.8425324 24.2679722,48.8425324 C14.2161621,48.8425324 6.06243792,45.9675544 6.06243792,42.4683094 L0.485328368,2.81702904 C0.485328368,2.12439859 0.735023751,1.45004258 1.20493296,0.804582118 L2.9782823,2.95036032 C2.72907618,3.11976613 2.49635142,3.29223565 2.28084963,3.46747655 C2.8316535,3.94897032 3.53710553,4.41712992 4.31900024,4.82040738 L9.80604526,44.0682476 C10.5114973,44.3807877 11.3065331,44.7060114 12.1653512,44.9398473 L6.75490912,5.92633076 C11.1525259,7.59115117 17.345023,8.63219241 24.2548311,8.63219241 C34.1393327,8.63219241 42.5372889,6.48522778 46.0498054,3.46747655 C45.8715911,3.31753192 45.6814566,3.16994364 45.4798303,3.02484548 L46.8485114,0.26463929 Z" id="Path"></path>
                        </g>
                    </g>
                    <g id="wallet-filled-commercial-tool" transform="translate(77.442063, 46.815174)">
                        <g id="Group-3">
                            <g id="Group" transform="translate(5.422169, 0.000000)" sketch:type="MSShapeGroup">
                                <path d="M11.608175,24.7379712 L52.6929603,24.7379712 L57.1479383,22.9709733 L46.4326999,3.53399589 L15.1799211,20.3204764 L11.608175,24.7379712 Z" id="Path-604" fill="#FFFFFF"></path>
                                <g id="Group-Copy-2">
                                    <g id="money146-copy-2" transform="translate(-0.000000, 0.000000)" fill="#A6B7C2">
                                        <path d="M48.9481386,19.5050898 C48.9481386,21.2400321 47.5255833,22.6553798 45.7695688,22.6553798 C44.0135544,22.6553798 42.6032361,21.2400321 42.6032361,19.5050898 C42.6032361,17.7579725 44.0135544,16.3426248 45.7695688,16.3426248 C47.5255833,16.3426248 48.9481386,17.7579725 48.9481386,19.5050898 L48.9481386,19.5050898 Z" id="Fill-9"></path>
                                        <path d="M6.11851732,28.3137267 C6.11851732,26.3048461 7.76745774,24.6642603 9.78656846,24.6642603 L11.7934421,24.6642603 L11.8913384,24.3568407 L40.2231329,8.92194183 L42.3860287,9.55199982 C42.4472139,9.7437566 42.471688,9.94464465 42.578762,10.1364014 C43.4139397,11.6704557 45.3504504,12.2274635 46.8923168,11.3843424 C47.072813,11.2899859 47.2043611,11.1347542 47.3573241,10.9916975 L49.5232792,11.6217555 L54.4578634,20.5977991 L53.8245969,22.7497363 C53.6318636,22.8106115 53.4299525,22.8349615 53.2372192,22.929318 C52.5213527,23.3219629 52.0441083,23.9641959 51.7932491,24.6642603 L61.1729362,24.6642603 L54.8402708,13.1679848 L47.7886795,0.350718135 L34.9061413,7.37875631 L0.562903594,26.079608 L6.11851732,36.1848859 L6.11851732,28.3137267 Z" id="Fill-10"></path>
                                        <path d="M27.8086612,19.8125094 C25.6702394,20.9660939 24.1406101,22.72843 23.2778992,24.6642603 L40.9787698,24.6642603 C40.8349846,23.9276708 40.6177772,23.2032563 40.2476069,22.5123231 C38.0265852,18.482387 32.4556751,17.2801024 27.8086612,19.8125094 L27.8086612,19.8125094 Z" id="Fill-11"></path>
                                    </g>
                                    <path d="M48.9481386,19.5050898 C48.9481386,21.2400321 47.5255833,22.6553798 45.7695688,22.6553798 C44.0135544,22.6553798 42.6032361,21.2400321 42.6032361,19.5050898 C42.6032361,17.7579725 44.0135544,16.3426248 45.7695688,16.3426248 C47.5255833,16.3426248 48.9481386,17.7579725 48.9481386,19.5050898 L48.9481386,19.5050898 Z" id="Fill-9" fill="#279EEE"></path>
                                    <path d="M6.11851732,28.3137267 C6.11851732,26.3048461 7.76745774,24.6642603 9.78656846,24.6642603 L11.7934421,24.6642603 L11.8913384,24.3568407 L40.2231329,8.92194183 L42.3860287,9.55199982 C42.4472139,9.7437566 42.471688,9.94464465 42.578762,10.1364014 C43.4139397,11.6704557 45.3504504,12.2274635 46.8923168,11.3843424 C47.072813,11.2899859 47.2043611,11.1347542 47.3573241,10.9916975 L49.5232792,11.6217555 L54.4578634,20.5977991 L53.8245969,22.7497363 C53.6318636,22.8106115 53.4299525,22.8349615 53.2372192,22.929318 C52.5213527,23.3219629 52.0441083,23.9641959 51.7932491,24.6642603 L61.1729362,24.6642603 L54.8402708,13.1679848 L47.7886795,0.350718135 L34.9061413,7.37875631 L0.562903594,26.079608 L6.11851732,36.1848859 L6.11851732,28.3137267 Z" id="Fill-10" fill="#279EEE"></path>
                                    <path d="M27.8086612,19.8125094 C25.6702394,20.9660939 24.1406101,22.72843 23.2778992,24.6642603 L40.9787698,24.6642603 C40.8349846,23.9276708 40.6177772,23.2032563 40.2476069,22.5123231 C38.0265852,18.482387 32.4556751,17.2801024 27.8086612,19.8125094 L27.8086612,19.8125094 Z" id="Fill-11" fill="#279EEE"></path>
                                </g>
                            </g>
                            <mask id="mask-3" sketch:name="Clip 2" fill="white">
                                <use xlink:href="#path-2"></use>
                            </mask>
                            <g id="Clip-2"></g>
                            <path d="M4.9008631,83.0830979 L70.2293682,83.0830979 C72.933011,83.0830979 75.1302312,80.8939011 75.1302312,78.2001312 L75.1302312,67.1808011 L51.6796013,67.1808011 C49.9235608,67.1808011 48.2081566,66.8390952 46.5988357,66.1555816 C45.0469978,65.5043159 43.650354,64.5605808 42.4578106,63.3723923 C41.2652673,62.1837968 40.317665,60.792253 39.6643187,59.2459802 C38.9863659,57.6430446 38.6349332,55.9339045 38.6349332,54.1842765 L38.6349332,52.8085006 C38.6349332,51.0588726 38.978402,49.3497325 39.6643187,47.7466952 C40.317665,46.2005241 41.2652673,44.8088786 42.4578106,43.6207918 C43.650354,42.4321963 45.0469978,41.4884612 46.5988357,40.8370938 C48.2081566,40.1620237 49.9235608,39.8118742 51.6796013,39.8118742 L75.1302312,39.8118742 L75.1302312,28.792646 C75.1302312,26.098876 72.933011,23.9096792 70.2293682,23.9096792 L4.9008631,23.9096792 C2.19722029,23.9096792 0,26.098876 0,28.792646 L0,78.2001312 C0,80.8939011 2.19722029,83.0830979 4.9008631,83.0830979 L4.9008631,83.0830979 Z" id="Fill-1" fill="#204581" sketch:type="MSShapeGroup" mask="url(#mask-3)"></path>
                        </g>
                        <path d="M80.537619,48.3570661 C80.537619,46.3304314 78.8956256,44.694841 76.8619716,44.694841 L51.6796013,44.694841 C47.1787712,44.694841 43.5357963,48.3245129 43.5357963,52.8085006 L43.5357963,54.1842765 C43.5357963,58.6682642 47.1787712,62.2978344 51.6796013,62.2978344 L76.8619716,62.2978344 C78.8956256,62.2978344 80.537619,60.662244 80.537619,58.6356093 L80.537619,48.3570661 Z M53.0109004,57.805505 C50.6179519,57.805505 48.6820088,55.8766314 48.6820088,53.4924211 C48.6820088,51.1077023 50.6179519,49.1788287 53.0109004,49.1788287 C55.4043594,49.1788287 57.3403024,51.1077023 57.3403024,53.4924211 C57.3403024,55.8766314 55.4043594,57.805505 53.0109004,57.805505 L53.0109004,57.805505 Z" id="Fill-4" fill="#204581" sketch:type="MSShapeGroup"></path>
                    </g>
                    <g id="Group-3" transform="translate(98.055576, 37.553479) scale(1, -1) rotate(-344.000000) translate(-98.055576, -37.553479) translate(66.055576, 8.553479)">
                        <g id="right-arrow40-copy-3" transform="translate(-0.000000, -0.000000)">
                            <mask id="mask-5" sketch:name="Mask" fill="white">
                                <use xlink:href="#path-4"></use>
                            </mask>
                            <use id="Mask" fill-opacity="0" fill="#FFFFFF" sketch:type="MSShapeGroup" xlink:href="#path-4"></use>
                            <g id="right-arrow40-copy" mask="url(#mask-5)">
                                <g transform="translate(34.601222, 34.615414) scale(-1, 1) rotate(-125.000000) translate(-34.601222, -34.615414) translate(11.992689, 15.938505)">
                                    <mask id="mask-7" sketch:name="Clip 2" fill="white">
                                        <use xlink:href="#path-6"></use>
                                    </mask>
                                    <g id="Clip-2"></g>
                                    <path d="M31.6756323,8.04672178 L31.6756323,0.327934915 L44.7885818,12.7703415 L31.6756323,25.212748 L31.6756323,17.3999791 C16.2243144,18.509376 3.74225062,26.138267 0.706247528,36.0431581 C0.243310886,34.533316 4.26325641e-14,32.9703536 4.26325641e-14,31.3665294 C4.26325641e-14,19.275534 13.8622609,9.31547949 31.6756323,8.04672178 L31.6756323,8.04672178 Z" id="Fill-1" stroke="none" fill="#F58C23" fill-rule="evenodd" sketch:type="MSShapeGroup" mask="url(#mask-7)"></path>
                                </g>
                            </g>
                        </g>
                        <g id="right-arrow40-copy-4" transform="translate(6.685090, 7.937217)">
                            <mask id="mask-9" sketch:name="Mask" fill="white">
                                <use xlink:href="#path-8"></use>
                            </mask>
                            <use id="Mask" fill-opacity="0" fill="#FFFFFF" sketch:type="MSShapeGroup" xlink:href="#path-8"></use>
                            <g id="right-arrow40-copy-2" mask="url(#mask-9)" fill="#EB7626" sketch:type="MSShapeGroup">
                                <g transform="translate(28.042078, 27.384169) scale(-1, 1) rotate(-125.000000) translate(-28.042078, -27.384169) translate(5.387053, 8.984255)" id="Fill-1">
                                    <path d="M31.8346734,0.69222537 L44.9476229,13.1346319 L31.8346734,25.5770385 L31.8346734,17.7642696 C16.3833555,18.8736664 3.90129171,26.5025574 0.865288612,36.4074486 C0.40235197,34.8976064 0.159041084,33.334644 0.159041084,31.7308199 C0.159041084,19.6398245 14.021302,9.67976995 31.8346734,8.41101223 L31.8346734,0.69222537 Z"></path>
                                </g>
                            </g>
                        </g>
                    </g>
                </g>
            </g>
        </g>
    </g>
</svg>