<?xml version="1.0" encoding="UTF-8" standalone="no"?>
<svg width="153px" height="236px" viewBox="0 0 153 236" version="1.1" xmlns="http://www.w3.org/2000/svg" xmlns:xlink="http://www.w3.org/1999/xlink" xmlns:sketch="http://www.bohemiancoding.com/sketch/ns">
    <!-- Generator: Sketch 3.4.4 (17249) - http://www.bohemiancoding.com/sketch -->
    <title>Group</title>
    <desc>Created with Sketch.</desc>
    <defs>
        <linearGradient x1="91.4062108%" y1="-32.8762273%" x2="16.3354027%" y2="123.196752%" id="linearGradient-1">
            <stop stop-color="#FFFFFF" offset="0%"></stop>
            <stop stop-color="#D5DCE9" offset="100%"></stop>
        </linearGradient>
    </defs>
    <g id="Page-1" stroke="none" stroke-width="1" fill="none" fill-rule="evenodd" sketch:type="MSPage">
        <g id="Super" sketch:type="MSArtboardGroup" transform="translate(-122.000000, -296.000000)">
            <g id="Group" sketch:type="MSLayerGroup" transform="translate(122.000000, 296.000000)">
                <ellipse id="Oval-298" fill="url(#linearGradient-1)" sketch:type="MSShapeGroup" cx="76.4420629" cy="159.729412" rx="76.4420629" ry="75.7294124"></ellipse>
                <path d="M114.418179,147.966046 L103.658924,215.211388 L63.3117187,221.48762 L50.7592548,217.901202 L40,148.86265 L57.9320913,140.793209 L79.450601,139 L96.4860877,140.793209 L114.418179,147.966046 Z" id="Path-756" fill="#FFFFFF" sketch:type="MSShapeGroup"></path>
                <g id="pail1" transform="translate(36.000000, 108.000000)" sketch:type="MSShapeGroup">
                    <path d="M41.1690391,26.8792556 L41.1690391,26.8792556 C19.4141266,26.8792556 1.70243805,33.0482764 1.70243805,40.5028334 L10.9626047,105.794471 C10.9626047,111.55649 24.5009519,116.290562 41.1908584,116.290562 C57.8797005,116.290562 71.4177816,111.578446 71.4177816,105.794471 L80.5294705,40.5028334 C80.635374,32.9194818 62.9247498,26.8792556 41.1690391,26.8792556 L41.1690391,26.8792556 Z M41.1690391,50.0783511 C29.6960754,50.0783511 19.4141266,48.3641243 12.1123757,45.6227538 L21.0958097,109.864219 C19.6698383,109.479174 18.3497702,108.943646 17.178446,108.429003 L8.06782143,43.801689 C6.76957273,43.1376337 5.59824852,42.3667404 4.68370029,41.5738904 C10.6861382,36.7332481 24.7359086,33.1768032 41.0202953,33.1768032 C57.3046819,33.1768032 71.3752073,36.5824968 77.3571563,41.5738904 C71.5250155,46.5430595 57.5811485,50.0783511 41.1690391,50.0783511 L41.1690391,50.0783511 Z" id="Fill-1" fill="#204581"></path>
                    <path d="M76.2123517,31.2222415 C77.6435292,31.9601259 78.9675596,32.8166725 80.1250151,33.7923851 C81.0398294,34.4344838 81.8066982,35.3561284 82.4668652,36.2764342 C80.5076512,15.9691927 63.5849168,0.0958596051 42.978711,0.0749739928 L39.4663349,0.0749739928 C18.7539596,0.0749739928 1.8304269,15.9263504 0,36.2555486 C0.638081656,35.3341717 1.42597147,34.5632784 2.34185015,33.7704285 C3.50084679,32.7933526 4.77848146,31.9948578 6.21488584,31.2536219 C9.70631949,15.8934381 23.3402981,4.48302284 39.7016277,4.48302284 L42.7463235,4.48302284 C59.004805,4.49950177 72.617966,15.9005686 76.2123517,31.2222415 Z" id="Path" fill="#4D73AE"></path>
                </g>
                <ellipse id="Oval-77" fill="#FCA63A" sketch:type="MSShapeGroup" transform="translate(78.013006, 111.000119) rotate(-90.000000) translate(-78.013006, -111.000119) " cx="78.0130056" cy="111.000119" rx="3.00011854" ry="3.01300565"></ellipse>
                <ellipse id="Oval-77-Copy-2" fill="#FCA63A" sketch:type="MSShapeGroup" transform="translate(78.013006, 124.000119) rotate(-90.000000) translate(-78.013006, -124.000119) " cx="78.0130056" cy="124.000119" rx="3.00011854" ry="3.01300565"></ellipse>
                <ellipse id="Oval-77-Copy" fill="#FCA63A" sketch:type="MSShapeGroup" transform="translate(78.013006, 99.000119) rotate(-90.000000) translate(-78.013006, -99.000119) " cx="78.0130056" cy="99.0001185" rx="3.00011854" ry="3.01300565"></ellipse>
                <ellipse id="Oval-77" fill="#FCA63A" sketch:type="MSShapeGroup" transform="translate(78.013006, 87.000119) rotate(-90.000000) translate(-78.013006, -87.000119) " cx="78.0130056" cy="87.0001185" rx="3.00011854" ry="3.01300565"></ellipse>
                <ellipse id="Oval-77-Copy" fill="#FCA63A" sketch:type="MSShapeGroup" transform="translate(78.013006, 75.000119) rotate(-90.000000) translate(-78.013006, -75.000119) " cx="78.0130056" cy="75.0001185" rx="3.00011854" ry="3.01300565"></ellipse>
                <g id="Rectangle-193-+-Path-604-+-Group-Copy" transform="translate(37.000000, 0.000000)" sketch:type="MSShapeGroup">
                    <rect id="Rectangle-193" fill="#FFFFFF" x="14" y="35" width="56" height="28"></rect>
                    <path d="M13,28 L59.0108683,28 L64,26 L52,4 L17,23 L13,28 Z" id="Path-604" fill="#FFFFFF"></path>
                    <g id="Group-Copy">
                        <g id="money146-copy-2" fill="#A6B7C2">
                            <path d="M15.3487714,36.4639077 L66.8767898,36.4639077 L66.8767898,63.4736345 L15.3487714,63.4736345 L15.3487714,36.4639077 Z M10.9599821,67.886831 L71.2655792,67.886831 L71.2655792,32.0472661 L10.9599821,32.0472661 L10.9599821,67.886831 Z" id="Fill-1"></path>
                            <path d="M54.8170409,32.0472661 L60.987384,38.2657045 C60.9462712,38.4965274 60.8537675,38.6963443 60.8537675,38.9375025 C60.8537675,40.9184455 62.4468877,42.5204255 64.4134491,42.5204255 C64.6532736,42.5204255 64.8554115,42.4239622 65.0815318,42.3826208 L71.2655792,48.5872787 L71.2655792,32.0472661 L54.8170409,32.0472661 Z" id="Fill-2"></path>
                            <path d="M62.4845744,49.9756613 C62.4845744,51.9393787 60.8914542,53.5413587 58.9248929,53.5413587 C56.9583315,53.5413587 55.3652113,51.9393787 55.3652113,49.9756613 C55.3652113,47.9947183 56.9583315,46.3961835 58.9248929,46.3961835 C60.8914542,46.3961835 62.4845744,47.9947183 62.4845744,49.9756613 L62.4845744,49.9756613 Z" id="Fill-3"></path>
                            <path d="M51.874051,49.9756613 C51.874051,55.1674545 47.0535774,59.3808341 41.1127806,59.3808341 C35.1719838,59.3808341 30.3515103,55.1674545 30.3515103,49.9756613 C30.3515103,44.7666426 35.1719838,40.553263 41.1127806,40.553263 C47.0535774,40.553263 51.874051,44.7666426 51.874051,49.9756613 L51.874051,49.9756613 Z" id="Fill-4"></path>
                            <path d="M26.8466458,49.9756613 C26.8466458,51.9393787 25.2672298,53.5413587 23.3006684,53.5413587 C21.3341071,53.5413587 19.7409868,51.9393787 19.7409868,49.9756613 C19.7409868,47.9947183 21.3341071,46.3961835 23.3006684,46.3961835 C25.2672298,46.3961835 26.8466458,47.9947183 26.8466458,49.9756613 L26.8466458,49.9756613 Z" id="Fill-5"></path>
                            <path d="M10.9599821,48.5872787 L17.1303253,42.3826208 C17.3564456,42.4239622 17.5722877,42.5204255 17.8121122,42.5204255 C19.7786736,42.5204255 21.3717938,40.9184455 21.3717938,38.9375025 C21.3717938,38.6963443 21.27929,38.4965274 21.2381773,38.2657045 L27.4085204,32.0472661 L10.9599821,32.0472661 L10.9599821,48.5872787 Z" id="Fill-6"></path>
                            <path d="M21.3717938,60.9965945 C21.3717938,59.0190967 19.7786736,57.4171167 17.8121122,57.4171167 C17.5722877,57.4171167 17.3701498,57.5101349 17.1440295,57.5514763 L10.9599821,51.3468184 L10.9599821,67.886831 L27.4085204,67.886831 L21.2381773,61.6821731 C21.27929,61.4547953 21.3717938,61.2377528 21.3717938,60.9965945 L21.3717938,60.9965945 Z" id="Fill-7"></path>
                            <path d="M64.4134491,57.4171167 C62.4468877,57.4171167 60.8537675,59.0190967 60.8537675,60.9965945 C60.8537675,61.2377528 60.9462712,61.4410148 60.987384,61.6683926 L54.8170409,67.886831 L71.2655792,67.886831 L71.2655792,51.3468184 L65.095236,57.5514763 C64.8691157,57.5101349 64.6532736,57.4171167 64.4134491,57.4171167 L64.4134491,57.4171167 Z" id="Fill-8"></path>
                            <path d="M54.8170409,22.0770939 C54.8170409,24.0408113 53.2239206,25.6427913 51.2573593,25.6427913 C49.2907979,25.6427913 47.7113819,24.0408113 47.7113819,22.0770939 C47.7113819,20.0995961 49.2907979,18.4976161 51.2573593,18.4976161 C53.2239206,18.4976161 54.8170409,20.0995961 54.8170409,22.0770939 L54.8170409,22.0770939 Z" id="Fill-9"></path>
                            <path d="M6.85213011,32.0472661 C6.85213011,29.7734881 8.69877917,27.9165693 10.9599821,27.9165693 L13.2074808,27.9165693 L13.3171149,27.5686124 L45.0459033,10.0984179 L47.4681313,10.8115574 C47.5366526,11.0285998 47.5640611,11.2559776 47.6839734,11.4730201 C48.6192892,13.2093596 50.7879884,13.8398163 52.5147251,12.8855185 C52.716863,12.7787199 52.8641838,12.6030188 53.035487,12.4410983 L55.4611411,13.1542377 L60.987384,23.3138914 L60.2781885,25.74959 C60.0623465,25.8184923 59.8362262,25.8460533 59.6203841,25.9528519 C58.8186848,26.3972722 58.2842187,27.1241921 58.0032814,27.9165693 L68.5075968,27.9165693 L61.4156421,14.9043578 L53.5185622,0.39696496 L39.0914023,8.35174294 L0.63039597,29.5185493 L6.85213011,40.9563418 L6.85213011,32.0472661 Z" id="Fill-10"></path>
                            <path d="M31.1429313,22.4250509 C28.7481119,23.7307507 27.0350793,25.7254741 26.068929,27.9165693 L45.8921414,27.9165693 C45.7311163,27.0828507 45.4878657,26.2629126 45.0733118,25.4808708 C42.5859886,20.9195342 36.3471242,19.5587125 31.1429313,22.4250509 L31.1429313,22.4250509 Z" id="Fill-11"></path>
                        </g>
                        <path d="M15.3487714,36.4639077 L66.8767898,36.4639077 L66.8767898,63.4736345 L15.3487714,63.4736345 L15.3487714,36.4639077 Z M10.9599821,67.886831 L71.2655792,67.886831 L71.2655792,32.0472661 L10.9599821,32.0472661 L10.9599821,67.886831 Z" id="Fill-1" fill="#279EEE"></path>
                        <path d="M54.8170409,32.0472661 L60.987384,38.2657045 C60.9462712,38.4965274 60.8537675,38.6963443 60.8537675,38.9375025 C60.8537675,40.9184455 62.4468877,42.5204255 64.4134491,42.5204255 C64.6532736,42.5204255 64.8554115,42.4239622 65.0815318,42.3826208 L71.2655792,48.5872787 L71.2655792,32.0472661 L54.8170409,32.0472661 Z" id="Fill-2" fill="#279EEE"></path>
                        <path d="M62.4845744,49.9756613 C62.4845744,51.9393787 60.8914542,53.5413587 58.9248929,53.5413587 C56.9583315,53.5413587 55.3652113,51.9393787 55.3652113,49.9756613 C55.3652113,47.9947183 56.9583315,46.3961835 58.9248929,46.3961835 C60.8914542,46.3961835 62.4845744,47.9947183 62.4845744,49.9756613 L62.4845744,49.9756613 Z" id="Fill-3" fill="#279EEE"></path>
                        <path d="M51.874051,49.9756613 C51.874051,55.1674545 47.0535774,59.3808341 41.1127806,59.3808341 C35.1719838,59.3808341 30.3515103,55.1674545 30.3515103,49.9756613 C30.3515103,44.7666426 35.1719838,40.553263 41.1127806,40.553263 C47.0535774,40.553263 51.874051,44.7666426 51.874051,49.9756613 L51.874051,49.9756613 Z" id="Fill-4" fill="#279EEE"></path>
                        <path d="M26.8466458,49.9756613 C26.8466458,51.9393787 25.2672298,53.5413587 23.3006684,53.5413587 C21.3341071,53.5413587 19.7409868,51.9393787 19.7409868,49.9756613 C19.7409868,47.9947183 21.3341071,46.3961835 23.3006684,46.3961835 C25.2672298,46.3961835 26.8466458,47.9947183 26.8466458,49.9756613 L26.8466458,49.9756613 Z" id="Fill-5" fill="#279EEE"></path>
                        <path d="M10.9599821,48.5872787 L17.1303253,42.3826208 C17.3564456,42.4239622 17.5722877,42.5204255 17.8121122,42.5204255 C19.7786736,42.5204255 21.3717938,40.9184455 21.3717938,38.9375025 C21.3717938,38.6963443 21.27929,38.4965274 21.2381773,38.2657045 L27.4085204,32.0472661 L10.9599821,32.0472661 L10.9599821,48.5872787 Z" id="Fill-6" fill="#279EEE"></path>
                        <path d="M21.3717938,60.9965945 C21.3717938,59.0190967 19.7786736,57.4171167 17.8121122,57.4171167 C17.5722877,57.4171167 17.3701498,57.5101349 17.1440295,57.5514763 L10.9599821,51.3468184 L10.9599821,67.886831 L27.4085204,67.886831 L21.2381773,61.6821731 C21.27929,61.4547953 21.3717938,61.2377528 21.3717938,60.9965945 L21.3717938,60.9965945 Z" id="Fill-7" fill="#279EEE"></path>
                        <path d="M64.4134491,57.4171167 C62.4468877,57.4171167 60.8537675,59.0190967 60.8537675,60.9965945 C60.8537675,61.2377528 60.9462712,61.4410148 60.987384,61.6683926 L54.8170409,67.886831 L71.2655792,67.886831 L71.2655792,51.3468184 L65.095236,57.5514763 C64.8691157,57.5101349 64.6532736,57.4171167 64.4134491,57.4171167 L64.4134491,57.4171167 Z" id="Fill-8" fill="#279EEE"></path>
                        <path d="M54.8170409,22.0770939 C54.8170409,24.0408113 53.2239206,25.6427913 51.2573593,25.6427913 C49.2907979,25.6427913 47.7113819,24.0408113 47.7113819,22.0770939 C47.7113819,20.0995961 49.2907979,18.4976161 51.2573593,18.4976161 C53.2239206,18.4976161 54.8170409,20.0995961 54.8170409,22.0770939 L54.8170409,22.0770939 Z" id="Fill-9" fill="#1C82C6"></path>
                        <path d="M6.85213011,32.0472661 C6.85213011,29.7734881 8.69877917,27.9165693 10.9599821,27.9165693 L13.2074808,27.9165693 L13.3171149,27.5686124 L45.0459033,10.0984179 L47.4681313,10.8115574 C47.5366526,11.0285998 47.5640611,11.2559776 47.6839734,11.4730201 C48.6192892,13.2093596 50.7879884,13.8398163 52.5147251,12.8855185 C52.716863,12.7787199 52.8641838,12.6030188 53.035487,12.4410983 L55.4611411,13.1542377 L60.987384,23.3138914 L60.2781885,25.74959 C60.0623465,25.8184923 59.8362262,25.8460533 59.6203841,25.9528519 C58.8186848,26.3972722 58.2842187,27.1241921 58.0032814,27.9165693 L68.5075968,27.9165693 L61.4156421,14.9043578 L53.5185622,0.39696496 L39.0914023,8.35174294 L0.63039597,29.5185493 L6.85213011,40.9563418 L6.85213011,32.0472661 Z" id="Fill-10" fill="#1C82C6"></path>
                        <path d="M31.1429313,22.4250509 C28.7481119,23.7307507 27.0350793,25.7254741 26.068929,27.9165693 L45.8921414,27.9165693 C45.7311163,27.0828507 45.4878657,26.2629126 45.0733118,25.4808708 C42.5859886,20.9195342 36.3471242,19.5587125 31.1429313,22.4250509 L31.1429313,22.4250509 Z" id="Fill-11" fill="#1C82C6"></path>
                    </g>
                </g>
                <g id="Group-Copy-2" transform="translate(77.000000, 145.000000)" fill="#4D73AE" sketch:type="MSShapeGroup">
                    <path d="M1.30833207e-07,79.300503 C0.18441526,79.3016681 0.369235254,79.3022532 0.554445743,79.3022532 C17.1411397,79.3022532 30.5963577,74.6306876 30.5963577,68.8964855 L39.6522763,4.16671175 C39.6726775,2.70951238 39.0278374,1.30978686 37.8174219,-1.14734611e-14 L35.5587918,4.50596715 C35.8915206,4.74283644 36.2052853,4.98377081 36.499379,5.22855187 C30.7029352,10.1549591 16.8444151,13.6598279 0.532759987,13.6598279 C0.354883022,13.6598279 0.17729411,13.6594143 3.27515792e-15,13.6585898 L1.30833207e-07,79.300503 Z" id="Path"></path>
                </g>
            </g>
        </g>
    </g>
</svg>