<?xml version="1.0" encoding="UTF-8" standalone="no"?>
<svg width="291px" height="156px" viewBox="0 0 291 156" version="1.1" xmlns="http://www.w3.org/2000/svg" xmlns:xlink="http://www.w3.org/1999/xlink" xmlns:sketch="http://www.bohemiancoding.com/sketch/ns">
    <!-- Generator: Sketch 3.4.4 (17249) - http://www.bohemiancoding.com/sketch -->
    <title>Group</title>
    <desc>Created with Sketch.</desc>
    <defs>
        <linearGradient x1="91.4062108%" y1="-32.8762273%" x2="16.3354027%" y2="123.196752%" id="linearGradient-1">
            <stop stop-color="#FFFFFF" offset="0%"></stop>
            <stop stop-color="#D5DCE9" offset="100%"></stop>
        </linearGradient>
    </defs>
    <g id="Page-1" stroke="none" stroke-width="1" fill="none" fill-rule="evenodd" sketch:type="MSPage">
        <g id="Super" sketch:type="MSArtboardGroup" transform="translate(-395.000000, -378.000000)">
            <g id="Group" sketch:type="MSLayerGroup" transform="translate(365.000000, 365.000000)">
                <ellipse id="Oval-298-Copy-2" fill="url(#linearGradient-1)" sketch:type="MSShapeGroup" cx="269.479935" cy="102" rx="51.4799347" ry="51"></ellipse>
                <ellipse id="Oval-77-Copy-6" fill="#FCA63A" sketch:type="MSShapeGroup" cx="138.000119" cy="52.0130056" rx="3.00011854" ry="3.01300565"></ellipse>
                <ellipse id="Oval-77-Copy-7" fill="#FCA63A" sketch:type="MSShapeGroup" cx="153.000119" cy="43.0130056" rx="3.00011854" ry="3.01300565"></ellipse>
                <ellipse id="Oval-77-Copy-8" fill="#FCA63A" sketch:type="MSShapeGroup" cx="170.000119" cy="38.0130056" rx="3.00011854" ry="3.01300565"></ellipse>
                <ellipse id="Oval-77-Copy-9" fill="#FCA63A" sketch:type="MSShapeGroup" cx="187.000119" cy="37.0130056" rx="3.00011854" ry="3.01300565"></ellipse>
                <ellipse id="Oval-77-Copy-10" fill="#FCA63A" sketch:type="MSShapeGroup" cx="204.000119" cy="40.0130056" rx="3.00011854" ry="3.01300565"></ellipse>
                <ellipse id="Oval-77-Copy-11" fill="#FCA63A" sketch:type="MSShapeGroup" cx="220.000119" cy="46.0130056" rx="3.00011854" ry="3.01300565"></ellipse>
                <ellipse id="Oval-77-Copy-12" fill="#FCA63A" sketch:type="MSShapeGroup" cx="233.000119" cy="57.0130056" rx="3.00011854" ry="3.01300565"></ellipse>
                <g id="Rectangle-193-+-Path-604-+-Group-Copy-2" transform="translate(263.605842, 103.977091) rotate(-74.000000) translate(-263.605842, -103.977091) translate(227.605842, 69.977091)" sketch:type="MSShapeGroup">
                    <rect id="Rectangle-193" fill="#FFFFFF" x="14" y="35" width="56" height="28"></rect>
                    <path d="M13,28 L59.0108683,28 L64,26 L52,4 L17,23 L13,28 Z" id="Path-604" fill="#FFFFFF"></path>
                    <g id="Group-Copy">
                        <g id="money146-copy-2" fill="#A6B7C2">
                            <path d="M15.3487714,36.4639077 L66.8767898,36.4639077 L66.8767898,63.4736345 L15.3487714,63.4736345 L15.3487714,36.4639077 Z M10.9599821,67.886831 L71.2655792,67.886831 L71.2655792,32.0472661 L10.9599821,32.0472661 L10.9599821,67.886831 Z" id="Fill-1"></path>
                            <path d="M54.8170409,32.0472661 L60.987384,38.2657045 C60.9462712,38.4965274 60.8537675,38.6963443 60.8537675,38.9375025 C60.8537675,40.9184455 62.4468877,42.5204255 64.4134491,42.5204255 C64.6532736,42.5204255 64.8554115,42.4239622 65.0815318,42.3826208 L71.2655792,48.5872787 L71.2655792,32.0472661 L54.8170409,32.0472661 Z" id="Fill-2"></path>
                            <path d="M62.4845744,49.9756613 C62.4845744,51.9393787 60.8914542,53.5413587 58.9248929,53.5413587 C56.9583315,53.5413587 55.3652113,51.9393787 55.3652113,49.9756613 C55.3652113,47.9947183 56.9583315,46.3961835 58.9248929,46.3961835 C60.8914542,46.3961835 62.4845744,47.9947183 62.4845744,49.9756613 L62.4845744,49.9756613 Z" id="Fill-3"></path>
                            <path d="M51.874051,49.9756613 C51.874051,55.1674545 47.0535774,59.3808341 41.1127806,59.3808341 C35.1719838,59.3808341 30.3515103,55.1674545 30.3515103,49.9756613 C30.3515103,44.7666426 35.1719838,40.553263 41.1127806,40.553263 C47.0535774,40.553263 51.874051,44.7666426 51.874051,49.9756613 L51.874051,49.9756613 Z" id="Fill-4"></path>
                            <path d="M26.8466458,49.9756613 C26.8466458,51.9393787 25.2672298,53.5413587 23.3006684,53.5413587 C21.3341071,53.5413587 19.7409868,51.9393787 19.7409868,49.9756613 C19.7409868,47.9947183 21.3341071,46.3961835 23.3006684,46.3961835 C25.2672298,46.3961835 26.8466458,47.9947183 26.8466458,49.9756613 L26.8466458,49.9756613 Z" id="Fill-5"></path>
                            <path d="M10.9599821,48.5872787 L17.1303253,42.3826208 C17.3564456,42.4239622 17.5722877,42.5204255 17.8121122,42.5204255 C19.7786736,42.5204255 21.3717938,40.9184455 21.3717938,38.9375025 C21.3717938,38.6963443 21.27929,38.4965274 21.2381773,38.2657045 L27.4085204,32.0472661 L10.9599821,32.0472661 L10.9599821,48.5872787 Z" id="Fill-6"></path>
                            <path d="M21.3717938,60.9965945 C21.3717938,59.0190967 19.7786736,57.4171167 17.8121122,57.4171167 C17.5722877,57.4171167 17.3701498,57.5101349 17.1440295,57.5514763 L10.9599821,51.3468184 L10.9599821,67.886831 L27.4085204,67.886831 L21.2381773,61.6821731 C21.27929,61.4547953 21.3717938,61.2377528 21.3717938,60.9965945 L21.3717938,60.9965945 Z" id="Fill-7"></path>
                            <path d="M64.4134491,57.4171167 C62.4468877,57.4171167 60.8537675,59.0190967 60.8537675,60.9965945 C60.8537675,61.2377528 60.9462712,61.4410148 60.987384,61.6683926 L54.8170409,67.886831 L71.2655792,67.886831 L71.2655792,51.3468184 L65.095236,57.5514763 C64.8691157,57.5101349 64.6532736,57.4171167 64.4134491,57.4171167 L64.4134491,57.4171167 Z" id="Fill-8"></path>
                            <path d="M54.8170409,22.0770939 C54.8170409,24.0408113 53.2239206,25.6427913 51.2573593,25.6427913 C49.2907979,25.6427913 47.7113819,24.0408113 47.7113819,22.0770939 C47.7113819,20.0995961 49.2907979,18.4976161 51.2573593,18.4976161 C53.2239206,18.4976161 54.8170409,20.0995961 54.8170409,22.0770939 L54.8170409,22.0770939 Z" id="Fill-9"></path>
                            <path d="M6.85213011,32.0472661 C6.85213011,29.7734881 8.69877917,27.9165693 10.9599821,27.9165693 L13.2074808,27.9165693 L13.3171149,27.5686124 L45.0459033,10.0984179 L47.4681313,10.8115574 C47.5366526,11.0285998 47.5640611,11.2559776 47.6839734,11.4730201 C48.6192892,13.2093596 50.7879884,13.8398163 52.5147251,12.8855185 C52.716863,12.7787199 52.8641838,12.6030188 53.035487,12.4410983 L55.4611411,13.1542377 L60.987384,23.3138914 L60.2781885,25.74959 C60.0623465,25.8184923 59.8362262,25.8460533 59.6203841,25.9528519 C58.8186848,26.3972722 58.2842187,27.1241921 58.0032814,27.9165693 L68.5075968,27.9165693 L61.4156421,14.9043578 L53.5185622,0.39696496 L39.0914023,8.35174294 L0.63039597,29.5185493 L6.85213011,40.9563418 L6.85213011,32.0472661 Z" id="Fill-10"></path>
                            <path d="M31.1429313,22.4250509 C28.7481119,23.7307507 27.0350793,25.7254741 26.068929,27.9165693 L45.8921414,27.9165693 C45.7311163,27.0828507 45.4878657,26.2629126 45.0733118,25.4808708 C42.5859886,20.9195342 36.3471242,19.5587125 31.1429313,22.4250509 L31.1429313,22.4250509 Z" id="Fill-11"></path>
                        </g>
                        <path d="M15.3487714,36.4639077 L66.8767898,36.4639077 L66.8767898,63.4736345 L15.3487714,63.4736345 L15.3487714,36.4639077 Z M10.9599821,67.886831 L71.2655792,67.886831 L71.2655792,32.0472661 L10.9599821,32.0472661 L10.9599821,67.886831 Z" id="Fill-1" fill="#279EEE"></path>
                        <path d="M54.8170409,32.0472661 L60.987384,38.2657045 C60.9462712,38.4965274 60.8537675,38.6963443 60.8537675,38.9375025 C60.8537675,40.9184455 62.4468877,42.5204255 64.4134491,42.5204255 C64.6532736,42.5204255 64.8554115,42.4239622 65.0815318,42.3826208 L71.2655792,48.5872787 L71.2655792,32.0472661 L54.8170409,32.0472661 Z" id="Fill-2" fill="#279EEE"></path>
                        <path d="M62.4845744,49.9756613 C62.4845744,51.9393787 60.8914542,53.5413587 58.9248929,53.5413587 C56.9583315,53.5413587 55.3652113,51.9393787 55.3652113,49.9756613 C55.3652113,47.9947183 56.9583315,46.3961835 58.9248929,46.3961835 C60.8914542,46.3961835 62.4845744,47.9947183 62.4845744,49.9756613 L62.4845744,49.9756613 Z" id="Fill-3" fill="#279EEE"></path>
                        <path d="M51.874051,49.9756613 C51.874051,55.1674545 47.0535774,59.3808341 41.1127806,59.3808341 C35.1719838,59.3808341 30.3515103,55.1674545 30.3515103,49.9756613 C30.3515103,44.7666426 35.1719838,40.553263 41.1127806,40.553263 C47.0535774,40.553263 51.874051,44.7666426 51.874051,49.9756613 L51.874051,49.9756613 Z" id="Fill-4" fill="#279EEE"></path>
                        <path d="M26.8466458,49.9756613 C26.8466458,51.9393787 25.2672298,53.5413587 23.3006684,53.5413587 C21.3341071,53.5413587 19.7409868,51.9393787 19.7409868,49.9756613 C19.7409868,47.9947183 21.3341071,46.3961835 23.3006684,46.3961835 C25.2672298,46.3961835 26.8466458,47.9947183 26.8466458,49.9756613 L26.8466458,49.9756613 Z" id="Fill-5" fill="#279EEE"></path>
                        <path d="M10.9599821,48.5872787 L17.1303253,42.3826208 C17.3564456,42.4239622 17.5722877,42.5204255 17.8121122,42.5204255 C19.7786736,42.5204255 21.3717938,40.9184455 21.3717938,38.9375025 C21.3717938,38.6963443 21.27929,38.4965274 21.2381773,38.2657045 L27.4085204,32.0472661 L10.9599821,32.0472661 L10.9599821,48.5872787 Z" id="Fill-6" fill="#279EEE"></path>
                        <path d="M21.3717938,60.9965945 C21.3717938,59.0190967 19.7786736,57.4171167 17.8121122,57.4171167 C17.5722877,57.4171167 17.3701498,57.5101349 17.1440295,57.5514763 L10.9599821,51.3468184 L10.9599821,67.886831 L27.4085204,67.886831 L21.2381773,61.6821731 C21.27929,61.4547953 21.3717938,61.2377528 21.3717938,60.9965945 L21.3717938,60.9965945 Z" id="Fill-7" fill="#279EEE"></path>
                        <path d="M64.4134491,57.4171167 C62.4468877,57.4171167 60.8537675,59.0190967 60.8537675,60.9965945 C60.8537675,61.2377528 60.9462712,61.4410148 60.987384,61.6683926 L54.8170409,67.886831 L71.2655792,67.886831 L71.2655792,51.3468184 L65.095236,57.5514763 C64.8691157,57.5101349 64.6532736,57.4171167 64.4134491,57.4171167 L64.4134491,57.4171167 Z" id="Fill-8" fill="#279EEE"></path>
                        <path d="M54.8170409,22.0770939 C54.8170409,24.0408113 53.2239206,25.6427913 51.2573593,25.6427913 C49.2907979,25.6427913 47.7113819,24.0408113 47.7113819,22.0770939 C47.7113819,20.0995961 49.2907979,18.4976161 51.2573593,18.4976161 C53.2239206,18.4976161 54.8170409,20.0995961 54.8170409,22.0770939 L54.8170409,22.0770939 Z" id="Fill-9" fill="#1C82C6"></path>
                        <path d="M6.85213011,32.0472661 C6.85213011,29.7734881 8.69877917,27.9165693 10.9599821,27.9165693 L13.2074808,27.9165693 L13.3171149,27.5686124 L45.0459033,10.0984179 L47.4681313,10.8115574 C47.5366526,11.0285998 47.5640611,11.2559776 47.6839734,11.4730201 C48.6192892,13.2093596 50.7879884,13.8398163 52.5147251,12.8855185 C52.716863,12.7787199 52.8641838,12.6030188 53.035487,12.4410983 L55.4611411,13.1542377 L60.987384,23.3138914 L60.2781885,25.74959 C60.0623465,25.8184923 59.8362262,25.8460533 59.6203841,25.9528519 C58.8186848,26.3972722 58.2842187,27.1241921 58.0032814,27.9165693 L68.5075968,27.9165693 L61.4156421,14.9043578 L53.5185622,0.39696496 L39.0914023,8.35174294 L0.63039597,29.5185493 L6.85213011,40.9563418 L6.85213011,32.0472661 Z" id="Fill-10" fill="#1C82C6"></path>
                        <path d="M31.1429313,22.4250509 C28.7481119,23.7307507 27.0350793,25.7254741 26.068929,27.9165693 L45.8921414,27.9165693 C45.7311163,27.0828507 45.4878657,26.2629126 45.0733118,25.4808708 C42.5859886,20.9195342 36.3471242,19.5587125 31.1429313,22.4250509 L31.1429313,22.4250509 Z" id="Fill-11" fill="#1C82C6"></path>
                    </g>
                </g>
                <g sketch:type="MSShapeGroup">
                    <path d="M135.561087,55 C135.364724,54.8939385 135.166719,54.7895929 134.967161,54.6869625 C130.144441,34.1807013 111.879159,18.9217112 90.064553,18.8996561 L85.9793719,18.8996561 C64.0267707,18.8996561 45.7335572,34.1711579 41.0489715,54.7289615 C40.8747496,54.8186414 40.7022685,54.9089476 40.5314885,55 L33.6842105,55 C38.84145,30.9484246 60.1021418,13 85.6636709,13 L90.3763559,13 C115.794893,13.0256988 137.036138,30.9841471 142.339372,55 L135.561087,55 Z" id="Path" fill="#4D73AE"></path>
                    <g id="Rectangle-193-+-Rectangle-193-Copy-3-+-Group-Copy" transform="translate(99.993028, 63.967309) rotate(-15.000000) translate(-99.993028, -63.967309) translate(51.872727, 15.367309)">
                        <path d="M28.010108,67.9336477 L67.3067981,27.3424661 L89.0675124,48.3040085 L49.7708223,88.8951901 L28.010108,67.9336477 L28.010108,67.9336477 Z" id="Rectangle-193" fill="#FFFFFF"></path>
                        <path d="M23.3969119,70.6725827 L40.5427861,14.7311594 L69.4719162,23.5535707 L52.326042,79.4949941 L23.3969119,70.6725827 L23.3969119,70.6725827 Z" id="Rectangle-193-Copy-3" fill="#FFFFFF"></path>
                        <g id="Group-Copy" transform="translate(48.061995, 48.516609) rotate(-45.000000) translate(-48.061995, -48.516609) translate(13.174777, 15.516609)">
                            <path d="M11.4969746,33.8161593 L63.6978955,33.8161593 L63.6978955,61.1101991 L11.4969746,61.1101991 L11.4969746,33.8161593 Z M7.05087226,65.5698502 L68.1439979,65.5698502 L68.1439979,29.3530268 L7.05087226,29.3530268 L7.05087226,65.5698502 Z" id="Fill-1" fill="#279EEE"></path>
                            <path d="M51.4806587,29.3530268 L57.7315802,35.6369224 C57.6899305,35.8701751 57.5962187,36.0720953 57.5962187,36.315792 C57.5962187,38.317587 59.2101435,39.93643 61.2023861,39.93643 C61.4453425,39.93643 61.65012,39.8389513 61.8791932,39.7971747 L68.1439979,46.0671448 L68.1439979,29.3530268 L51.4806587,29.3530268 Z" id="Fill-2" fill="#279EEE"></path>
                            <path d="M59.2483223,47.470142 C59.2483223,49.4545301 57.6343976,51.073373 55.642155,51.073373 C53.6499124,51.073373 52.0359877,49.4545301 52.0359877,47.470142 C52.0359877,45.468347 53.6499124,43.8529854 55.642155,43.8529854 C57.6343976,43.8529854 59.2483223,45.468347 59.2483223,47.470142 L59.2483223,47.470142 Z" id="Fill-3" fill="#279EEE"></path>
                            <path d="M48.4992364,47.470142 C48.4992364,52.7165856 43.6158125,56.9743165 37.5974351,56.9743165 C31.5790576,56.9743165 26.6956337,52.7165856 26.6956337,47.470142 C26.6956337,42.2062914 31.5790576,37.9485605 37.5974351,37.9485605 C43.6158125,37.9485605 48.4992364,42.2062914 48.4992364,47.470142 L48.4992364,47.470142 Z" id="Fill-4" fill="#279EEE"></path>
                            <path d="M23.1449993,47.470142 C23.1449993,49.4545301 21.5449577,51.073373 19.5527151,51.073373 C17.5604726,51.073373 15.9465478,49.4545301 15.9465478,47.470142 C15.9465478,45.468347 17.5604726,43.8529854 19.5527151,43.8529854 C21.5449577,43.8529854 23.1449993,45.468347 23.1449993,47.470142 L23.1449993,47.470142 Z" id="Fill-5" fill="#279EEE"></path>
                            <path d="M7.05087226,46.0671448 L13.3017937,39.7971747 C13.5308669,39.8389513 13.7495277,39.93643 13.9924841,39.93643 C15.9847267,39.93643 17.5986514,38.317587 17.5986514,36.315792 C17.5986514,36.0720953 17.5049397,35.8701751 17.46329,35.6369224 L23.7142114,29.3530268 L7.05087226,29.3530268 L7.05087226,46.0671448 Z" id="Fill-6" fill="#279EEE"></path>
                            <path d="M17.5986514,58.607085 C17.5986514,56.6087714 15.9847267,54.9899284 13.9924841,54.9899284 C13.7495277,54.9899284 13.5447501,55.0839258 13.3156769,55.1257024 L7.05087226,48.8557323 L7.05087226,65.5698502 L23.7142114,65.5698502 L17.46329,59.2998801 C17.5049397,59.0701089 17.5986514,58.8507818 17.5986514,58.607085 L17.5986514,58.607085 Z" id="Fill-7" fill="#279EEE"></path>
                            <path d="M61.2023861,54.9899284 C59.2101435,54.9899284 57.5962187,56.6087714 57.5962187,58.607085 C57.5962187,58.8507818 57.6899305,59.0561834 57.7315802,59.2859546 L51.4806587,65.5698502 L68.1439979,65.5698502 L68.1439979,48.8557323 L61.8930765,55.1257024 C61.6640033,55.0839258 61.4453425,54.9899284 61.2023861,54.9899284 L61.2023861,54.9899284 Z" id="Fill-8" fill="#279EEE"></path>
                            <path d="M54.8122227,21.8066302 C54.8122227,23.7910183 53.198298,25.4098613 51.2060554,25.4098613 C49.2138128,25.4098613 47.6137713,23.7910183 47.6137713,21.8066302 C47.6137713,19.8083166 49.2138128,18.1894737 51.2060554,18.1894737 C53.198298,18.1894737 54.8122227,19.8083166 54.8122227,21.8066302 L54.8122227,21.8066302 Z" id="Fill-9" fill="#1C82C6"></path>
                            <path d="M6.30298353,31.9834622 C6.30298353,29.6857497 8.17374792,27.8092844 10.4644798,27.8092844 L12.7413285,27.8092844 L12.8523943,27.4576648 L44.9955278,9.80357348 L47.4493876,10.5242197 C47.5188037,10.7435468 47.5465702,10.973318 47.6680484,11.1926451 C48.6155784,12.947262 50.8125985,13.584355 52.5618847,12.620012 C52.7666623,12.5120892 52.9159069,12.3345386 53.0894472,12.1709137 L55.5467778,12.8915599 L61.1451877,23.1581572 L60.4267309,25.6194948 C60.2080701,25.6891224 59.9789969,25.7169735 59.7603362,25.8248963 C58.9481676,26.2739947 58.4067219,27.0085664 58.1221158,27.8092844 L68.7636067,27.8092844 L61.5790385,14.6601022 L53.5788308,-6.00408612e-13 L38.9632672,8.03851249 L-1.42108547e-13,29.4281273 L6.30298353,40.9863177 L6.30298353,31.9834622 Z" id="Fill-10" fill="#1C82C6"></path>
                            <path d="M30.4667376,21.7267238 C28.0406443,23.0461678 26.3052413,25.0618884 25.3264741,27.2760477 L45.4085571,27.2760477 C45.2454292,26.4335531 44.999002,25.6049841 44.5790345,24.8147102 C42.0592294,20.2053596 35.7388918,18.8302135 30.4667376,21.7267238 L30.4667376,21.7267238 Z" id="Fill-11" fill="#1C82C6"></path>
                        </g>
                    </g>
                    <g id="Rectangle-193-+-Rectangle-193-Copy-3-+-Group-Copy-Copy" transform="translate(66.802068, 67.635063) rotate(-56.000000) translate(-66.802068, -67.635063) translate(18.681767, 19.635063)">
                        <path d="M28.010108,66.7336477 L67.3067981,26.1424661 L89.0675124,47.1040085 L49.7708223,87.6951901 L28.010108,66.7336477 L28.010108,66.7336477 Z" id="Rectangle-193" fill="#FFFFFF"></path>
                        <path d="M23.3969119,69.4725827 L40.5427861,13.5311594 L69.4719162,22.3535707 L52.326042,78.2949941 L23.3969119,69.4725827 L23.3969119,69.4725827 Z" id="Rectangle-193-Copy-3" fill="#FFFFFF"></path>
                        <g id="Group-Copy" transform="translate(47.636667, 47.517576) rotate(-45.000000) translate(-47.636667, -47.517576) translate(13.192663, 14.675470)">
                            <path d="M11.4969746,33.8161593 L63.6978955,33.8161593 L63.6978955,61.1101991 L11.4969746,61.1101991 L11.4969746,33.8161593 Z M7.05087226,65.5698502 L68.1439979,65.5698502 L68.1439979,29.3530268 L7.05087226,29.3530268 L7.05087226,65.5698502 Z" id="Fill-1" fill="#279EEE"></path>
                            <path d="M51.4806587,29.3530268 L57.7315802,35.6369224 C57.6899305,35.8701751 57.5962187,36.0720953 57.5962187,36.315792 C57.5962187,38.317587 59.2101435,39.93643 61.2023861,39.93643 C61.4453425,39.93643 61.65012,39.8389513 61.8791932,39.7971747 L68.1439979,46.0671448 L68.1439979,29.3530268 L51.4806587,29.3530268 Z" id="Fill-2" fill="#279EEE"></path>
                            <path d="M59.2483223,47.470142 C59.2483223,49.4545301 57.6343976,51.073373 55.642155,51.073373 C53.6499124,51.073373 52.0359877,49.4545301 52.0359877,47.470142 C52.0359877,45.468347 53.6499124,43.8529854 55.642155,43.8529854 C57.6343976,43.8529854 59.2483223,45.468347 59.2483223,47.470142 L59.2483223,47.470142 Z" id="Fill-3" fill="#279EEE"></path>
                            <path d="M48.4992364,47.470142 C48.4992364,52.7165856 43.6158125,56.9743165 37.5974351,56.9743165 C31.5790576,56.9743165 26.6956337,52.7165856 26.6956337,47.470142 C26.6956337,42.2062914 31.5790576,37.9485605 37.5974351,37.9485605 C43.6158125,37.9485605 48.4992364,42.2062914 48.4992364,47.470142 L48.4992364,47.470142 Z" id="Fill-4" fill="#279EEE"></path>
                            <path d="M23.1449993,47.470142 C23.1449993,49.4545301 21.5449577,51.073373 19.5527151,51.073373 C17.5604726,51.073373 15.9465478,49.4545301 15.9465478,47.470142 C15.9465478,45.468347 17.5604726,43.8529854 19.5527151,43.8529854 C21.5449577,43.8529854 23.1449993,45.468347 23.1449993,47.470142 L23.1449993,47.470142 Z" id="Fill-5" fill="#279EEE"></path>
                            <path d="M7.05087226,46.0671448 L13.3017937,39.7971747 C13.5308669,39.8389513 13.7495277,39.93643 13.9924841,39.93643 C15.9847267,39.93643 17.5986514,38.317587 17.5986514,36.315792 C17.5986514,36.0720953 17.5049397,35.8701751 17.46329,35.6369224 L23.7142114,29.3530268 L7.05087226,29.3530268 L7.05087226,46.0671448 Z" id="Fill-6" fill="#279EEE"></path>
                            <path d="M17.5986514,58.607085 C17.5986514,56.6087714 15.9847267,54.9899284 13.9924841,54.9899284 C13.7495277,54.9899284 13.5447501,55.0839258 13.3156769,55.1257024 L7.05087226,48.8557323 L7.05087226,65.5698502 L23.7142114,65.5698502 L17.46329,59.2998801 C17.5049397,59.0701089 17.5986514,58.8507818 17.5986514,58.607085 L17.5986514,58.607085 Z" id="Fill-7" fill="#279EEE"></path>
                            <path d="M61.2023861,54.9899284 C59.2101435,54.9899284 57.5962187,56.6087714 57.5962187,58.607085 C57.5962187,58.8507818 57.6899305,59.0561834 57.7315802,59.2859546 L51.4806587,65.5698502 L68.1439979,65.5698502 L68.1439979,48.8557323 L61.8930765,55.1257024 C61.6640033,55.0839258 61.4453425,54.9899284 61.2023861,54.9899284 L61.2023861,54.9899284 Z" id="Fill-8" fill="#279EEE"></path>
                            <path d="M54.8122227,21.8066302 C54.8122227,23.7910183 53.198298,25.4098613 51.2060554,25.4098613 C49.2138128,25.4098613 47.6137713,23.7910183 47.6137713,21.8066302 C47.6137713,19.8083166 49.2138128,18.1894737 51.2060554,18.1894737 C53.198298,18.1894737 54.8122227,19.8083166 54.8122227,21.8066302 L54.8122227,21.8066302 Z" id="Fill-9" fill="#1C82C6"></path>
                            <path d="M6.30298353,31.9834622 C6.30298353,29.6857497 8.17374792,27.8092844 10.4644798,27.8092844 L12.7413285,27.8092844 L12.8523943,27.4576648 L44.9955278,9.80357348 L47.4493876,10.5242197 C47.5188037,10.7435468 47.5465702,10.973318 47.6680484,11.1926451 C48.6155784,12.947262 50.8125985,13.584355 52.5618847,12.620012 C52.7666623,12.5120892 52.9159069,12.3345386 53.0894472,12.1709137 L55.5467778,12.8915599 L61.1451877,23.1581572 L60.4267309,25.6194948 C60.2080701,25.6891224 59.9789969,25.7169735 59.7603362,25.8248963 C58.9481676,26.2739947 58.4067219,27.0085664 58.1221158,27.8092844 L68.7636067,27.8092844 L61.5790385,14.6601022 L53.5788308,-2.30926389e-13 L38.9632672,8.03851249 L5.68434189e-14,29.4281273 L6.30298353,40.9863177 L6.30298353,31.9834622 Z" id="Fill-10" fill="#1C82C6"></path>
                            <path d="M30.4667376,21.7267238 C28.0406443,23.0461678 26.3052413,25.0618884 25.3264741,27.2760477 L45.4085571,27.2760477 C45.2454292,26.4335531 44.999002,25.6049841 44.5790345,24.8147102 C42.0592294,20.2053596 35.7388918,18.8302135 30.4667376,21.7267238 L30.4667376,21.7267238 Z" id="Fill-11" fill="#1C82C6"></path>
                        </g>
                    </g>
                    <g id="pail1-copy" transform="translate(33.684211, 61.000000)" fill="#204581">
                        <path d="M104.369309,0.583228736 C106.00337,2.351441 106.873904,4.24107045 106.846362,6.20828959 L94.6208722,93.5934842 C94.6208722,101.334657 76.4563279,107.641271 54.0642911,107.641271 C31.6708261,107.641271 13.5059248,101.305271 13.5059248,93.5934842 L1.08121659,6.20828959 C1.08121659,4.68184085 1.63748902,3.19566612 2.68435474,1.77317263 L6.6350299,6.50213079 C6.07984744,6.8754746 5.56138224,7.25557033 5.08128644,7.64177376 C6.30836963,8.70291041 7.87997866,9.73466063 9.62188698,10.6234208 L21.8459491,97.1194968 C23.4175581,97.808286 25.1887422,98.5250281 27.1020209,99.0403656 L15.0486151,13.0607023 C24.8456444,16.729705 38.6413155,19.0239964 54.0350153,19.0239964 C76.0557497,19.0239964 94.7647519,14.2924235 102.589951,7.64177376 C102.192924,7.31131933 101.769342,6.98605793 101.320158,6.66628439 L104.369309,0.583228736 Z" id="Path"></path>
                    </g>
                </g>
                <g transform="translate(87.000000, 61.000000)" id="Path" fill="#4D73AE" sketch:type="MSShapeGroup">
                    <path d="M1.76624823e-07,107.055679 C0.248960601,107.057252 0.498467593,107.058042 0.748501753,107.058042 C23.1405386,107.058042 41.3050829,100.751428 41.3050829,93.0102554 L53.5305731,5.62506086 C53.5581146,3.65784171 52.6875805,1.76821226 51.0535196,-1.94705363e-14 L48.0043689,6.08305565 C48.4535529,6.4028292 48.8771352,6.7280906 49.2741617,7.05854502 C41.4489626,13.7091948 22.7399604,18.4407676 0.719225983,18.4407676 C0.47909208,18.4407676 0.239347048,18.4402093 -9.99200722e-16,18.4390962 L1.76624823e-07,107.055679 Z"></path>
                </g>
            </g>
        </g>
    </g>
</svg>