<?xml version="1.0" encoding="UTF-8" standalone="no"?>
<svg width="153px" height="154px" viewBox="0 0 153 154" version="1.1" xmlns="http://www.w3.org/2000/svg" xmlns:xlink="http://www.w3.org/1999/xlink" xmlns:sketch="http://www.bohemiancoding.com/sketch/ns">
    <!-- Generator: Sketch 3.4.4 (17249) - http://www.bohemiancoding.com/sketch -->
    <title>Group</title>
    <desc>Created with Sketch.</desc>
    <defs>
        <linearGradient x1="91.4062108%" y1="-32.8762273%" x2="16.3354027%" y2="123.196752%" id="linearGradient-1">
            <stop stop-color="#FFFFFF" offset="0%"></stop>
            <stop stop-color="#D5DCE9" offset="100%"></stop>
        </linearGradient>
        <path id="path-2" d="M0.00718403548,0.0493284005 L49.0909091,0.0493284005 L49.0909091,50.6109389 L0.00718403548,50.6109389 L0.00718403548,0.0493284005 Z"></path>
        <rect id="path-4" x="0.951320087" y="0" width="27.4909091" height="72.9863014"></rect>
    </defs>
    <g id="Page-1" stroke="none" stroke-width="1" fill="none" fill-rule="evenodd" sketch:type="MSPage">
        <g id="Super" sketch:type="MSArtboardGroup" transform="translate(-770.000000, -378.000000)">
            <g id="Group" sketch:type="MSLayerGroup" transform="translate(770.000000, 364.000000)">
                <ellipse id="Oval-298-Copy" fill="url(#linearGradient-1)" sketch:type="MSShapeGroup" cx="76.4420629" cy="91.7294124" rx="76.4420629" ry="75.7294124"></ellipse>
                <path d="M57,65 L96.0128184,65 C96.0128184,65 100,74 100,75 C100,76 98,84 98,84 L93,92 L83,99 L85,103 L90,104 L98,113 L99,122 L97,134 L57.9871816,134 L55,131 L54,120 L56,112 L65,104 L69,101 L66,97 L58,92 L54,83 L53,75 L57,65 Z" id="Path-733" fill="#FFFFFF" sketch:type="MSShapeGroup"></path>
                <g id="Page-1-+-Page-1" transform="translate(44.000000, 58.000000)" sketch:type="MSShapeGroup">
                    <path d="M20.529039,32.872478 C23.137039,34.9829268 26.1922078,36.2378049 29.3400519,36.6987805 L29.3400519,58.1853659 C27.0641039,58.6416293 24.8822857,59.6707317 23.0543377,61.3097561 C19.4796883,64.5165073 18.1134545,69.2336195 19.0225455,73.6335805 L45.7277922,73.6335805 L45.7282078,73.632761 L44.987013,73.632761 C45.8902857,69.2336195 44.5186494,64.5156878 40.9552208,61.3097561 C39.1160519,59.6707317 36.9342338,58.6416293 34.6589091,58.1853659 L34.6589091,36.6987805 C37.8075844,36.2378049 40.8619221,34.9829268 43.4699221,32.872478 C45.6824935,31.0902439 47.3034805,28.8566634 48.425974,26.4292683 L15.5844156,26.4292683 C16.7012987,28.8566634 18.3270649,31.0902439 20.529039,32.872478" id="Page-1" fill="#279EEE"></path>
                    <path d="M44.3424416,35.1726439 C42.1818182,36.8067512 39.7606234,37.902439 37.2361558,38.5730049 L37.2361558,45.3444293 C39.7614545,46.0160195 42.1818182,47.1067902 44.3424416,48.7458146 C51.6575584,54.2879707 54.2857143,64.0243902 50.7426494,72.419678 L50.3172987,73.4278829 L45.6455065,73.4278829 L45.6450909,73.4287024 L18.9398442,73.4287024 L16.8311688,73.4287024 L13.5218701,73.4287024 L13.0956883,72.419678 C9.54784416,64.0243902 12.1762078,54.2879707 19.4958961,48.7458146 C21.6517403,47.1067902 24.0827013,46.0160195 26.5974026,45.3397171 L26.5974026,38.5738244 C24.0827013,37.902439 21.6567273,36.8067512 19.4958961,35.1726439 C12.1762078,29.6304878 9.54784416,19.8940683 13.0956883,11.4987805 L13.5218701,10.4895512 L50.3172987,10.4895512 L50.7426494,11.4987805 C54.2857143,19.8940683 51.6575584,29.6304878 44.3424416,35.1726439 L44.3424416,35.1726439 Z M58.5147013,5.2452878 L63.8335584,5.2452878 L63.8335584,0 L0,0 L0,5.2452878 L5.3198961,5.2452878 L5.3198961,10.4895512 L7.85475325,10.4895512 C3.9894026,20.8416293 7.31407792,32.5604488 16.254961,39.3318732 C17.6411429,40.3818732 19.1322597,41.2212585 20.6599481,41.9592293 C19.1322597,42.6961756 17.6411429,43.5365854 16.254961,44.5865854 C7.31407792,51.3530927 3.9894026,63.0768293 7.85475325,73.4278829 L5.3198961,73.4278829 L5.3198961,78.6731707 L0,78.6731707 L0,83.9184585 L63.8335584,83.9184585 L63.8335584,78.6731707 L58.5147013,78.6731707 L58.5147013,73.4278829 L55.9788052,73.4278829 C59.8441558,63.0768293 56.5194805,51.3522732 47.5844156,44.5865854 C46.2021818,43.5365854 44.7060779,42.6961756 43.1794286,41.9592293 C44.7069091,41.2212585 46.203013,40.3818732 47.5844156,39.3318732 C56.5194805,32.565161 59.8441558,20.8463415 55.9788052,10.4895512 L58.5147013,10.4895512 L58.5147013,5.2452878 Z" id="Page-1" fill="#204581"></path>
                </g>
                <g id="Oval-303-+-dollar103-+-dollar103-copy-2" transform="translate(82.000000, 0.000000)">
                    <ellipse id="Oval-303" fill="#FFFFFF" sketch:type="MSShapeGroup" cx="29.025" cy="39.4139966" rx="18.6545455" ry="19.260274"></ellipse>
                    <g id="dollar103" transform="translate(4.479545, 14.071531)">
                        <mask id="mask-3" sketch:name="Clip 2" fill="white">
                            <use xlink:href="#path-2"></use>
                        </mask>
                        <g id="Clip-2"></g>
                        <path d="M24.5216275,0.0493284005 C10.9794812,0.0493284005 0,11.3577409 0,25.3055928 C0,39.2528281 10.9794812,50.5618571 24.5216275,50.5618571 C38.0665277,50.5618571 49.043255,39.2528281 49.043255,25.3055928 C49.043255,11.3577409 38.0665277,0.0493284005 24.5216275,0.0493284005 L24.5216275,0.0493284005 Z M31.2088869,35.0570776 C30.0022084,36.4507283 28.260439,37.2705663 25.9822616,37.5172083 L25.9822616,41.0906809 L23.078714,41.0906809 L23.078714,37.5360764 C19.2799157,37.1352831 16.9301375,34.8595174 16.0232727,30.7163017 L20.5132949,29.510469 C20.9296098,32.1156251 22.3065499,33.416785 24.6441153,33.416785 C25.7366874,33.416785 26.5448914,33.1393127 27.059867,32.5815318 C27.5748426,32.0231344 27.832031,31.3511582 27.832031,30.5621505 C27.832031,29.7451488 27.5748426,29.1250908 27.059867,28.7060461 C26.5448914,28.2835483 25.3985588,27.7503083 23.6236231,27.102873 C22.0282882,26.5325134 20.7799424,25.9712795 19.8819379,25.4100457 C18.9839335,24.8551012 18.2533171,24.0752191 17.6934412,23.073236 C17.1336851,22.0679232 16.8525499,20.8963737 16.8525499,19.5648768 C16.8525499,17.8166783 17.3553126,16.2410059 18.3553304,14.8415592 C19.3552284,13.4450722 20.9296098,12.5909509 23.078714,12.2793187 L23.078714,9.52050462 L25.9822616,9.52050462 L25.9822616,12.279812 C29.2272905,12.6806053 31.3286208,14.5703763 32.2832594,17.9525781 L28.2843858,19.6419525 C27.5027627,17.3233943 26.299796,16.1644236 24.6651885,16.1644236 C23.8452506,16.1644236 23.186714,16.4230277 22.6928115,16.9414692 C22.1956763,17.4592941 21.9473481,18.0878612 21.9473481,18.8249508 C21.9473481,19.5774556 22.186816,20.1539813 22.6657517,20.5577342 C23.1418137,20.9585275 24.1685322,21.4546479 25.7371663,22.0500417 C27.4612151,22.6974769 28.8142084,23.3107523 29.793153,23.8874013 C30.7748514,24.4640503 31.5559956,25.2626771 32.1429313,26.2767457 C32.7266341,27.2941439 33.0198625,28.4811086 33.0198625,29.840476 C33.0193836,31.9278072 32.4152062,33.66688 31.2088869,35.0570776 L31.2088869,35.0570776 Z" id="Fill-1" fill="#F58C23" sketch:type="MSShapeGroup" mask="url(#mask-3)"></path>
                    </g>
                    <g id="dollar103-copy-2" transform="translate(0.552273, 0.893449)">
                        <mask id="mask-5" sketch:name="Mask" fill="white">
                            <use xlink:href="#path-4"></use>
                        </mask>
                        <use id="Mask" sketch:type="MSShapeGroup" xlink:href="#path-4"></use>
                        <g id="dollar103-copy" mask="url(#mask-5)" fill="#EB7626" sketch:type="MSShapeGroup">
                            <g transform="translate(3.896775, 13.178082)" id="Fill-1">
                                <path d="M24.5216275,0.0493284005 C10.9794812,0.0493284005 0,11.3577409 0,25.3055928 C0,39.2528281 10.9794812,50.5618571 24.5216275,50.5618571 C38.0665277,50.5618571 49.043255,39.2528281 49.043255,25.3055928 C49.043255,11.3577409 38.0665277,0.0493284005 24.5216275,0.0493284005 L24.5216275,0.0493284005 Z M31.2088869,35.0570776 C30.0022084,36.4507283 28.260439,37.2705663 25.9822616,37.5172083 L25.9822616,41.0906809 L23.078714,41.0906809 L23.078714,37.5360764 C19.2799157,37.1352831 16.9301375,34.8595174 16.0232727,30.7163017 L20.5132949,29.510469 C20.9296098,32.1156251 22.3065499,33.416785 24.6441153,33.416785 C25.7366874,33.416785 26.5448914,33.1393127 27.059867,32.5815318 C27.5748426,32.0231344 27.832031,31.3511582 27.832031,30.5621505 C27.832031,29.7451488 27.5748426,29.1250908 27.059867,28.7060461 C26.5448914,28.2835483 25.3985588,27.7503083 23.6236231,27.102873 C22.0282882,26.5325134 20.7799424,25.9712795 19.8819379,25.4100457 C18.9839335,24.8551012 18.2533171,24.0752191 17.6934412,23.073236 C17.1336851,22.0679232 16.8525499,20.8963737 16.8525499,19.5648768 C16.8525499,17.8166783 17.3553126,16.2410059 18.3553304,14.8415592 C19.3552284,13.4450722 20.9296098,12.5909509 23.078714,12.2793187 L23.078714,9.52050462 L25.9822616,9.52050462 L25.9822616,12.279812 C29.2272905,12.6806053 31.3286208,14.5703763 32.2832594,17.9525781 L28.2843858,19.6419525 C27.5027627,17.3233943 26.299796,16.1644236 24.6651885,16.1644236 C23.8452506,16.1644236 23.186714,16.4230277 22.6928115,16.9414692 C22.1956763,17.4592941 21.9473481,18.0878612 21.9473481,18.8249508 C21.9473481,19.5774556 22.186816,20.1539813 22.6657517,20.5577342 C23.1418137,20.9585275 24.1685322,21.4546479 25.7371663,22.0500417 C27.4612151,22.6974769 28.8142084,23.3107523 29.793153,23.8874013 C30.7748514,24.4640503 31.5559956,25.2626771 32.1429313,26.2767457 C32.7266341,27.2941439 33.0198625,28.4811086 33.0198625,29.840476 C33.0193836,31.9278072 32.4152062,33.66688 31.2088869,35.0570776 L31.2088869,35.0570776 Z"></path>
                            </g>
                        </g>
                    </g>
                </g>
            </g>
        </g>
    </g>
</svg>