<?xml version="1.0" encoding="UTF-8" standalone="no"?>
<svg width="810px" height="258px" viewBox="0 0 810 258" version="1.1" xmlns="http://www.w3.org/2000/svg" xmlns:xlink="http://www.w3.org/1999/xlink" xmlns:sketch="http://www.bohemiancoding.com/sketch/ns">
    <!-- Generator: Sketch 3.4.3 (16618) - http://www.bohemiancoding.com/sketch -->
    <title>Group + savings1 copy</title>
    <desc>Created with Sketch.</desc>
    <defs>
        <linearGradient x1="77.0083539%" y1="100%" x2="9.38635608%" y2="100%" id="linearGradient-1">
            <stop stop-color="#D5DCE9" offset="0%"></stop>
            <stop stop-color="#FFFFFF" offset="100%"></stop>
        </linearGradient>
        <linearGradient x1="16.3354024%" y1="-78.9365091%" x2="16.3354027%" y2="123.196752%" id="linearGradient-2">
            <stop stop-color="#FFFFFF" offset="0%"></stop>
            <stop stop-color="#D5DCE9" offset="100%"></stop>
        </linearGradient>
        <path id="path-3" d="M0,0.175102041 L22.8171467,0.175102041 L22.8171467,24.1251701 L0,24.1251701"></path>
        <path id="path-5" d="M0,0.175102041 L22.8171467,0.175102041 L22.8171467,24.1251701 L0,24.1251701"></path>
    </defs>
    <g id="Page-1" stroke="none" stroke-width="1" fill="none" fill-rule="evenodd" sketch:type="MSPage">
        <g id="8-Managed-Funds_All-Assets" sketch:type="MSArtboardGroup" transform="translate(-141.000000, -311.000000)">
            <g id="Group-+-savings1-copy" sketch:type="MSLayerGroup" transform="translate(141.000000, 257.000000)">
                <g id="Group">
                    <path d="M523,145.960814 L523,231.733176 L587.271538,211.328582 L587.271538,231.389898 L628.699109,188.84857 L587.271538,146.304093 L587.271538,166.362259 L523,145.960814 Z" id="Page-1" fill="url(#linearGradient-1)" sketch:type="MSShapeGroup"></path>
                    <path d="M471.589286,187.160814 C480.19901,187.160814 487.178571,180.176456 487.178571,171.560814 C487.178571,162.945172 480.19901,155.960814 471.589286,155.960814 C462.979561,155.960814 456,162.945172 456,171.560814 C456,180.176456 462.979561,187.160814 471.589286,187.160814 Z" id="Oval-3" fill="#EEF0F4" sketch:type="MSShapeGroup" transform="translate(471.589286, 171.560814) scale(-1, 1) translate(-471.589286, -171.560814) "></path>
                    <path d="M475.839767,178.392574 L468,170.676519 L475.839767,162.960814 L476.245575,163.384335 L468.837153,170.676519 L476.245575,177.969053 L475.839767,178.392574 Z" id="arrow395" fill="#313131" sketch:type="MSShapeGroup" transform="translate(472.140904, 171.004564) scale(-1, 1) translate(-472.140904, -171.004564) "></path>
                    <path d="M254.585864,118.503106 C254.585864,189.364573 311.991668,246.809393 382.805008,246.809393 L382.805008,118.503106 L254.585864,118.503106" id="Fill-2-Copy-2" fill="#F58C23" sketch:type="MSShapeGroup" transform="translate(318.695436, 182.656250) rotate(-315.000000) translate(-318.695436, -182.656250) "></path>
                    <path d="M473.804518,27.5026166 C402.99172,27.5026166 345.586354,84.9478751 345.586354,155.809883 L473.804518,155.809883 L473.804518,27.5026166" id="Fill-2-Copy-4" fill="#ADBAD2" sketch:type="MSShapeGroup" transform="translate(409.695436, 91.656250) rotate(-315.000000) translate(-409.695436, -91.656250) "></path>
                    <path d="M564.805008,246.809393 C564.805008,175.947926 507.399203,118.503106 436.585864,118.503106 L436.585864,246.809393 L564.805008,246.809393" id="Fill-2-Copy-5" fill="#279EEE" sketch:type="MSShapeGroup" transform="translate(500.695436, 182.656250) rotate(-315.000000) translate(-500.695436, -182.656250) "></path>
                    <path d="M345.586354,337.809883 C416.399152,337.809883 473.804518,280.364625 473.804518,209.502617 L345.586354,209.502617 L345.586354,337.809883" id="Fill-2-Copy-3" fill="#204581" sketch:type="MSShapeGroup" transform="translate(409.695436, 273.656250) rotate(-315.000000) translate(-409.695436, -273.656250) "></path>
                    <text id="PROPERTY" sketch:type="MSTextLayer" font-family="Open Sans, sans-serif" font-size="8.90816327" font-weight="bold" sketch:alignment="middle" letter-spacing="0.599999964" fill="#FFFFFF">
                        <tspan x="461.741699" y="200.960814">PROPERTY</tspan>
                    </text>
                    <text id="FIXED" sketch:type="MSTextLayer" font-family="Open Sans, sans-serif" font-size="8.90816327" font-weight="bold" sketch:alignment="middle" letter-spacing="0.599999964" fill="#FFFFFF">
                        <tspan x="395.83302" y="116.960814">FIXED</tspan>
                    </text>
                    <text id="CASH" sketch:type="MSTextLayer" font-family="Open Sans, sans-serif" font-size="8.90816327" font-weight="bold" sketch:alignment="middle" letter-spacing="0.599999964" fill="#FFFFFF">
                        <tspan x="314.876289" y="199.960814">CASH</tspan>
                    </text>
                    <text id="SHARES" sketch:type="MSTextLayer" font-family="Open Sans, sans-serif" font-size="8.90816327" font-weight="bold" sketch:alignment="middle" letter-spacing="0.599999964" fill="#FFFFFF">
                        <tspan x="391.2263" y="274.960814">SHARES</tspan>
                    </text>
                    <path d="M319.318137,176.39034 L334.794152,176.39034 L334.794152,185.132526 L319.318137,185.132526 L319.318137,176.39034 Z M318,186.560937 L336.112289,186.560937 L336.112289,174.960814 L318,174.960814 L318,186.560937 Z" id="Fill-1" fill="#F5BC23" sketch:type="MSShapeGroup"></path>
                    <path d="M331,174.960814 L332.853212,176.973524 C332.840864,177.048234 332.813081,177.112908 332.813081,177.190964 C332.813081,177.832132 333.291562,178.350642 333.882202,178.350642 C333.954231,178.350642 334.014942,178.319419 334.082855,178.306039 L335.940183,180.314288 L335.940183,174.960814 L331,174.960814 Z" id="Fill-2" fill="#F5BC23" sketch:type="MSShapeGroup"></path>
                    <path d="M333.138242,180.119377 C333.138242,180.754969 332.659762,181.273479 332.069121,181.273479 C331.478481,181.273479 331,180.754969 331,180.119377 C331,179.478209 331.478481,178.960814 332.069121,178.960814 C332.659762,178.960814 333.138242,179.478209 333.138242,180.119377 L333.138242,180.119377 Z" id="Fill-3" fill="#F5BC23" sketch:type="MSShapeGroup"></path>
                    <path d="M330.464118,180.010544 C330.464118,181.690961 329.016328,183.054698 327.232059,183.054698 C325.447789,183.054698 324,181.690961 324,180.010544 C324,178.324551 325.447789,176.960814 327.232059,176.960814 C329.016328,176.960814 330.464118,178.324551 330.464118,180.010544 L330.464118,180.010544 Z" id="Fill-4" fill="#F5BC23" sketch:type="MSShapeGroup"></path>
                    <path d="M323.134126,180.119377 C323.134126,180.754969 322.659762,181.273479 322.069121,181.273479 C321.478481,181.273479 321,180.754969 321,180.119377 C321,179.478209 321.478481,178.960814 322.069121,178.960814 C322.659762,178.960814 323.134126,179.478209 323.134126,180.119377 L323.134126,180.119377 Z" id="Fill-5" fill="#F5BC23" sketch:type="MSShapeGroup"></path>
                    <path d="M318,180.314288 L319.853212,178.306039 C319.921125,178.319419 319.985951,178.350642 320.057981,178.350642 C320.648621,178.350642 321.127102,177.832132 321.127102,177.190964 C321.127102,177.112908 321.099319,177.048234 321.086971,176.973524 L322.940183,174.960814 L318,174.960814 L318,180.314288 Z" id="Fill-6" fill="#F5BC23" sketch:type="MSShapeGroup"></path>
                    <path d="M321.127102,184.084139 C321.127102,183.444086 320.648621,182.925576 320.057981,182.925576 C319.985951,182.925576 319.925241,182.955683 319.857328,182.969064 L318,180.960814 L318,186.314288 L322.940183,186.314288 L321.086971,184.306039 C321.099319,184.232444 321.127102,184.162194 321.127102,184.084139 L321.127102,184.084139 Z" id="Fill-7" fill="#F5BC23" sketch:type="MSShapeGroup"></path>
                    <path d="M333.882202,182.925576 C333.291562,182.925576 332.813081,183.444086 332.813081,184.084139 C332.813081,184.162194 332.840864,184.227983 332.853212,184.301578 L331,186.314288 L335.940183,186.314288 L335.940183,180.960814 L334.086971,182.969064 C334.019058,182.955683 333.954231,182.925576 333.882202,182.925576 L333.882202,182.925576 Z" id="Fill-8" fill="#F5BC23" sketch:type="MSShapeGroup"></path>
                    <path d="M331.134126,171.119377 C331.134126,171.754969 330.655646,172.273479 330.065005,172.273479 C329.474365,172.273479 329,171.754969 329,171.119377 C329,170.479324 329.474365,169.960814 330.065005,169.960814 C330.655646,169.960814 331.134126,170.479324 331.134126,171.119377 L331.134126,171.119377 Z" id="Fill-9" fill="#F5BC23" sketch:type="MSShapeGroup"></path>
                    <path d="M316.868647,174.205006 C316.868647,173.469057 317.423272,172.868032 318.102406,172.868032 L318.777424,172.868032 L318.810351,172.755409 L328.339831,167.100865 L329.067328,167.331685 C329.087907,167.401935 329.096139,167.47553 329.132154,167.54578 C329.413068,168.107777 330.064419,168.311836 330.58303,168.00296 C330.643741,167.968393 330.687987,167.911524 330.739437,167.859116 L331.467962,168.089936 L333.127724,171.378292 L332.914723,172.16665 C332.849896,172.188951 332.781983,172.197872 332.717157,172.232439 C332.476373,172.376284 332.31585,172.611564 332.231473,172.868032 L335.386358,172.868032 L333.256348,168.656394 L330.884525,163.960814 L326.551446,166.535522 L315,173.386541 L316.868647,177.08859 L316.868647,174.205006 Z" id="Fill-10" fill="#F5BC23" sketch:type="MSShapeGroup"></path>
                    <path d="M323.523935,171.446447 C322.80467,171.86906 322.290175,172.514689 322,173.223876 L327.953738,173.223876 C327.905376,172.954028 327.832318,172.68864 327.70781,172.435518 C326.960763,170.959159 325.086971,170.518705 323.523935,171.446447 L323.523935,171.446447 Z" id="Fill-11" fill="#F5BC23" sketch:type="MSShapeGroup"></path>
                    <path d="M477.000111,184.593961 C477.000111,184.593961 476.981002,185.064586 477.443638,185.064586 C478.021933,185.064586 482.795128,185.056626 482.795128,185.056626 L482.803174,180.71852 C482.803174,180.71852 482.727744,180.004126 483.431755,180.004126 L485.651402,180.004126 C486.480123,180.004126 486.428831,180.71852 486.428831,180.71852 L486.420785,185.044686 L491.657622,185.044686 C492.24698,185.044686 492.223848,184.457649 492.223848,184.457649 L492.223848,176.459018 L484.837766,169.960814 L477.000111,176.459018 L477.000111,184.593961 Z" id="Fill-1-Copy" fill="#60BFFF" sketch:type="MSShapeGroup"></path>
                    <path d="M475,175.362365 C475,175.362365 475.663782,176.575243 477.117062,175.362365 L485.791484,168.102008 L493.923818,175.319581 C495.601376,176.516539 496.23398,175.319581 496.23398,175.319581 L485.791484,165.960814 L475,175.362365 Z" id="Fill-3-Copy" fill="#60BFFF" sketch:type="MSShapeGroup"></path>
                    <path d="M493.089907,167.960814 L491,167.960814 L491.008046,170.472139 L493.089907,172.221311 L493.089907,167.960814 Z" id="Fill-5-Copy" fill="#60BFFF" sketch:type="MSShapeGroup"></path>
                    <path d="M404.170205,86.9608141 L399,102.451448 L401.613246,102.451448 L405.362545,86.9608141 L404.170205,86.9608141 Z" id="Fill-1" fill="#D6E1F5" sketch:type="MSShapeGroup"></path>
                    <path d="M415.192557,86.9608141 L414,86.9608141 L417.749462,102.451448 L420.362762,102.451448 L415.192557,86.9608141 Z" id="Fill-2" fill="#D6E1F5" sketch:type="MSShapeGroup"></path>
                    <path d="M405.741436,86.9608141 L402,102.451448 L407.536399,102.451448 L407.688939,100.171746 L410.546206,100.171746 L410.698747,102.451448 L416.235146,102.451448 L412.49371,86.9608141 L405.741436,86.9608141 Z M408.625166,87.1384439 L409.609926,87.1384439 L409.765828,89.3106056 L408.469047,89.3106056 L408.625166,87.1384439 Z M408.313145,91.4829332 L409.921947,91.4829332 L410.078066,93.6550949 L408.15708,93.6550949 L408.313145,91.4829332 Z M407.845058,97.9995843 L408.000961,95.8274226 L410.234185,95.8274226 L410.390304,97.9995843 L407.845058,97.9995843 Z" id="Fill-3" fill="#D6E1F5" sketch:type="MSShapeGroup"></path>
                    <path d="M422.381966,259.960814 C422.588043,259.960814 422.755102,260.133108 422.755102,260.332243 L422.755102,260.332243 C422.755102,260.537377 422.590723,260.703671 422.381966,260.703671 L399.373136,260.703671 C399.167059,260.703671 399,260.531378 399,260.332243 L399,260.332243 C399,260.127108 399.164379,259.960814 399.373136,259.960814 L422.381966,259.960814 L422.381966,259.960814 Z" id="Rectangle-266-Copy-4" fill="#6D95C6" sketch:type="MSShapeGroup"></path>
                    <rect id="Rectangle-266" fill="#6D95C6" sketch:type="MSShapeGroup" x="417" y="238.960814" width="4.45408163" height="18.5714286" rx="1"></rect>
                    <rect id="Rectangle-266-Copy" fill="#6D95C6" sketch:type="MSShapeGroup" x="411" y="244.960814" width="4.45408163" height="12.6285714" rx="1"></rect>
                    <rect id="Rectangle-266-Copy-2" fill="#6D95C6" sketch:type="MSShapeGroup" x="405" y="240.960814" width="4.45408163" height="16.3428571" rx="1"></rect>
                    <rect id="Rectangle-266-Copy-3" fill="#6D95C6" sketch:type="MSShapeGroup" x="399" y="243.960814" width="4.45408163" height="14.1142857" rx="1"></rect>
                    <rect id="Rectangle-278" fill="url(#linearGradient-2)" sketch:type="MSShapeGroup" x="635" y="104.960814" width="174.451531" height="47.5428571" rx="77"></rect>
                    <rect id="Rectangle-278-Copy" fill="url(#linearGradient-2)" sketch:type="MSShapeGroup" x="635" y="164.960814" width="174.451531" height="47.5428571" rx="77"></rect>
                    <rect id="Rectangle-278-Copy-2" fill="url(#linearGradient-2)" sketch:type="MSShapeGroup" x="635" y="224.960814" width="174.451531" height="47.5428571" rx="77"></rect>
                    <text id="LIFE" sketch:type="MSTextLayer" font-family="Open Sans" font-size="10.3928571" font-weight="260" fill="#1651BA">
                        <tspan x="687" y="132.960814">LIFE</tspan>
                    </text>
                    <text id="INSURANCE" sketch:type="MSTextLayer" font-family="Open Sans" font-size="10.3928571" font-weight="bold" sketch:alignment="middle" fill="#1651BA">
                        <tspan x="692.549544" y="89.9608141">INSURANCE</tspan>
                    </text>
                    <text id="TRAUMA" sketch:type="MSTextLayer" font-family="Open Sans" font-size="10.3928571" font-weight="260" fill="#1651BA">
                        <tspan x="687" y="192.960814">TRAUMA</tspan>
                    </text>
                    <text id="INCOME-PROTECTION" sketch:type="MSTextLayer" font-family="Open Sans" font-size="10.3928571" font-weight="260" fill="#1651BA">
                        <tspan x="687" y="252.960814">INCOME PROTECTION</tspan>
                    </text>
                    <path d="M667.900469,194.972695 C666.283439,196.850956 663.83143,197.968885 661.133952,197.712458 C657.250166,197.343187 654.151115,194.071503 653.930576,190.120423 C653.756446,186.998937 655.337039,184.230379 657.761433,182.733451 C658.248919,182.432665 658.354778,181.76183 657.984656,181.320962 L657.984656,181.320962 C657.667847,180.943519 657.123596,180.84663 656.707832,181.107337 C653.674367,183.010502 651.723269,186.526551 652.032024,190.468292 C652.410967,195.307334 656.254864,199.237013 661.021573,199.655702 C664.392558,199.951819 667.453254,198.521041 669.443858,196.141209 C669.727682,195.802679 669.723079,195.302665 669.439255,194.964134 L669.439255,194.964134 C669.034614,194.482409 668.310863,194.496028 667.900469,194.972695" id="Fill-1" fill="#1651BA" sketch:type="MSShapeGroup"></path>
                    <path d="M661.327836,189.9167 L661.327836,189.9167 C660.597565,189.9167 660,189.310458 660,188.569581 L660,182.307932 C660,181.567056 660.597565,180.960814 661.327836,180.960814 L661.327836,180.960814 C662.058107,180.960814 662.655672,181.567056 662.655672,182.307932 L662.655672,188.569581 C662.655672,189.310458 662.058107,189.9167 661.327836,189.9167" id="Fill-3" fill="#1651BA" sketch:type="MSShapeGroup"></path>
                    <path d="M660,189.307932 L660,189.307932 C660,188.567056 660.597565,187.960814 661.327836,187.960814 L667.499857,187.960814 C668.230128,187.960814 668.827693,188.567056 668.827693,189.307932 L668.827693,189.307932 C668.827693,190.048809 668.230128,190.655051 667.499857,190.655051 L661.327836,190.655051 C660.597565,190.655051 660,190.048809 660,189.307932" id="Fill-5" fill="#1651BA" sketch:type="MSShapeGroup"></path>
                    <path d="M667.37461,188.366935 L667.37461,188.366935 C667.883959,187.835792 668.728911,187.824119 669.252451,188.340864 L673.675503,192.707909 C674.199043,193.224655 674.210549,194.081877 673.7012,194.61263 L673.7012,194.613019 C673.191851,195.143773 672.3469,195.155447 671.823743,194.638701 L667.400308,190.272045 C666.876768,189.7553 666.865261,188.898078 667.37461,188.366935" id="Fill-7" fill="#1651BA" sketch:type="MSShapeGroup"></path>
                    <g id="Group-11" transform="translate(652.000000, 175.960814)">
                        <mask id="mask-4" sketch:name="Clip 10" fill="white">
                            <use xlink:href="#path-3"></use>
                        </mask>
                        <g id="Clip-10"></g>
                        <path d="M19.0487697,18.2241146 L19.0487697,18.2241146 C18.5252295,17.707369 18.5137231,16.8501472 19.0230721,16.3190044 L20.5392291,14.7384166 C21.0485781,14.2072737 21.8935298,14.1956003 22.4170699,14.7123459 L22.4170699,14.7123459 C22.9406101,15.2290914 22.9521165,16.0863132 22.4427675,16.6174561 L20.9266105,18.1980438 C20.4172615,18.7291867 19.5723099,18.7408601 19.0487697,18.2241146" id="Fill-9" fill="#1651BA" sketch:type="MSShapeGroup" mask="url(#mask-4)"></path>
                    </g>
                    <path d="M660,184.307932 L660,184.307932 C660,183.567056 660.597565,182.960814 661.327836,182.960814 L667.499857,182.960814 C668.230128,182.960814 668.827693,183.567056 668.827693,184.307932 L668.827693,184.307932 C668.827693,185.048809 668.230128,185.655051 667.499857,185.655051 L661.327836,185.655051 C660.597565,185.655051 660,185.048809 660,184.307932" id="Fill-12" fill="#1651BA" sketch:type="MSShapeGroup"></path>
                    <g id="Group-16" transform="translate(652.000000, 175.960814)">
                        <mask id="mask-6" sketch:name="Clip 15" fill="white">
                            <use xlink:href="#path-5"></use>
                        </mask>
                        <g id="Clip-15"></g>
                        <path d="M11.1865003,2.05227374 C11.1865003,3.08926694 10.3580411,3.92975673 9.3358912,3.92975673 C8.31412487,3.92975673 7.48566569,3.08926694 7.48566569,2.05227374 C7.48566569,1.01528054 8.31412487,0.174790748 9.3358912,0.174790748 C10.3580411,0.174790748 11.1865003,1.01528054 11.1865003,2.05227374" id="Fill-14" fill="#1651BA" sketch:type="MSShapeGroup" mask="url(#mask-6)"></path>
                    </g>
                    <path d="M660.504873,137.560814 C669.340455,130.602505 669.00812,128.143378 669.00812,126.21536 C669.00812,124.287341 667.413761,121.960814 664.756497,121.960814 C662.099232,121.960814 660.504873,124.797178 660.504873,124.797178 C660.504873,124.797178 658.910515,121.960814 656.25325,121.960814 C653.595986,121.960814 652.001627,124.287341 652.001627,126.21536 C652.001627,128.143378 651.669292,130.603214 660.504873,137.560814 L660.504873,137.560814 Z" id="Shape" fill="#1651BA" sketch:type="MSShapeGroup"></path>
                    <path d="M672.160431,255.483671 L661.722868,255.483671 C662.028852,254.954868 662.263241,254.381643 662.418365,253.7751 L672.160431,253.7751 C672.631766,253.7751 673.012755,254.156966 673.012755,254.629386 C673.012755,255.100951 672.631766,255.483671 672.160431,255.483671 L672.160431,255.483671 Z M672.160431,252.920814 L662.583715,252.920814 C662.618661,252.640608 662.642526,252.356131 662.642526,252.066528 C662.642526,251.776071 662.618661,251.492448 662.583715,251.212243 L672.160431,251.212243 C672.631766,251.212243 673.012755,251.594108 673.012755,252.066528 C673.012755,252.538094 672.631766,252.920814 672.160431,252.920814 L672.160431,252.920814 Z M672.160431,250.357957 L662.418365,250.357957 C662.262389,249.751414 662.028852,249.178188 661.722868,248.649386 L672.160431,248.649386 C672.631766,248.649386 673.012755,249.031251 673.012755,249.503671 C673.012755,249.975237 672.631766,250.357957 672.160431,250.357957 L672.160431,250.357957 Z M672.160431,247.7951 L661.141583,247.7951 C660.587572,247.102274 659.903156,246.519651 659.122427,246.086528 L672.160431,246.086528 C672.631766,246.086528 673.012755,246.468394 673.012755,246.940814 C673.012755,247.41238 672.631766,247.7951 672.160431,247.7951 L672.160431,247.7951 Z M672.160431,245.232243 L658.523243,245.232243 C658.051907,245.232243 657.670918,244.849523 657.670918,244.377957 C657.670918,243.905537 658.051907,243.523671 658.523243,243.523671 L672.160431,243.523671 C672.631766,243.523671 673.012755,243.905537 673.012755,244.377957 C673.012755,244.849523 672.631766,245.232243 672.160431,245.232243 L672.160431,245.232243 Z M672.160431,242.669386 L658.523243,242.669386 C658.051907,242.669386 657.670918,242.286666 657.670918,241.8151 C657.670918,241.34268 658.051907,240.960814 658.523243,240.960814 L672.160431,240.960814 C672.631766,240.960814 673.012755,241.34268 673.012755,241.8151 C673.012755,242.286666 672.631766,242.669386 672.160431,242.669386 L672.160431,242.669386 Z M661.93254,252.066528 C661.93254,255.369197 659.260503,258.046528 655.96627,258.046528 C652.672037,258.046528 650,255.369197 650,252.066528 C650,248.76386 652.671184,246.086528 655.96627,246.086528 C659.260503,246.086528 661.93254,248.76386 661.93254,252.066528 L661.93254,252.066528 Z M658.078329,252.71664 C657.992245,252.512466 657.881442,252.334774 657.742514,252.183566 C657.603585,252.032357 657.445905,251.902506 657.268621,251.794011 C657.091338,251.685517 656.910645,251.588983 656.725691,251.5027 C656.540736,251.417271 656.360044,251.336968 656.18276,251.260083 C656.005477,251.184051 655.846092,251.10204 655.706311,251.014903 C655.56653,250.927766 655.454023,250.827814 655.370495,250.715903 C655.286967,250.603991 655.245204,250.471577 655.245204,250.317806 C655.245204,250.215291 655.263955,250.117903 655.300605,250.02564 C655.338107,249.934231 655.39436,249.854783 655.471069,249.789003 C655.546926,249.724077 655.642387,249.671966 655.755746,249.635231 C655.869105,249.597643 656.00292,249.579703 656.155486,249.579703 C656.350668,249.579703 656.529656,249.602768 656.693302,249.650608 C656.856096,249.699303 657.000139,249.751414 657.124579,249.81036 C657.249018,249.868451 657.353854,249.922271 657.439086,249.97182 C657.524319,250.021368 657.586538,250.045288 657.625745,250.045288 C657.664952,250.045288 657.695636,250.035037 657.718649,250.01368 C657.740809,249.992323 657.75956,249.959006 657.771493,249.91202 C657.784277,249.865888 657.791948,249.806943 657.797915,249.736037 C657.803029,249.664277 657.805586,249.576286 657.805586,249.472917 C657.805586,249.380654 657.803881,249.302914 657.800472,249.241406 C657.797062,249.179897 657.790244,249.126931 657.782573,249.085926 C657.773197,249.04492 657.762969,249.011603 657.751037,248.986828 C657.7374,248.962054 657.714387,248.932154 657.678589,248.897128 C657.642792,248.862103 657.570344,248.816826 657.460394,248.764714 C657.350444,248.711748 657.2243,248.663908 657.082815,248.622048 C656.940476,248.579334 656.78791,248.546017 656.625116,248.521243 C656.591876,248.516117 656.557783,248.517826 656.524542,248.513554 L656.524542,247.630223 L655.685855,247.630223 L655.685855,248.513554 C655.531584,248.534057 655.382428,248.564811 655.237533,248.606671 C654.955413,248.688683 654.710796,248.8117 654.502829,248.977431 C654.294862,249.143163 654.129511,249.351608 654.007629,249.60106 C653.884894,249.85222 653.824379,250.142677 653.824379,250.473286 C653.824379,250.76118 653.866995,251.008923 653.951375,251.214806 C654.035755,251.420688 654.14741,251.600088 654.284634,251.751297 C654.421858,251.902506 654.576129,252.031503 654.750003,252.139997 C654.923877,252.249346 655.103718,252.34588 655.28782,252.431308 C655.471922,252.516737 655.651762,252.59704 655.825636,252.673926 C655.99951,252.750811 656.154634,252.832823 656.291005,252.919106 C656.42823,253.007097 656.539032,253.106194 656.624264,253.218106 C656.709497,253.330871 656.752113,253.464994 656.752113,253.621328 C656.752113,253.75716 656.727395,253.880177 656.677961,253.991234 C656.628526,254.102291 656.556078,254.1937 656.462323,254.268877 C656.368567,254.344054 656.254355,254.401291 656.119688,254.442297 C655.984169,254.483303 655.832455,254.503806 655.661138,254.503806 C655.402031,254.503806 655.173608,254.47476 654.976721,254.415814 C654.779834,254.356868 654.610222,254.291943 654.467884,254.220183 C654.325546,254.149277 654.20963,254.085206 654.119283,254.025406 C654.028937,253.967314 653.959046,253.937414 653.908759,253.937414 C653.872961,253.937414 653.841425,253.947666 653.815856,253.96646 C653.788581,253.986108 653.767273,254.019426 653.751931,254.065557 C653.735737,254.112543 653.724657,254.172343 653.716986,254.24752 C653.709315,254.322697 653.705906,254.41496 653.705906,254.525163 C653.705906,254.689186 653.716134,254.814766 653.734885,254.901903 C653.754488,254.989894 653.787729,255.056528 653.833755,255.101806 C653.87978,255.147083 653.954785,255.200048 654.05962,255.260703 C654.164456,255.321357 654.294862,255.37774 654.450837,255.432414 C654.606813,255.486234 654.787505,255.53322 654.991211,255.572517 C655.194916,255.61096 655.416521,255.629754 655.654319,255.629754 C655.664547,255.629754 655.673923,255.628046 655.685003,255.628046 L655.685003,256.450723 L656.522838,256.450723 L656.522838,255.517843 C656.562897,255.507591 656.605513,255.502466 656.64472,255.49136 C656.953261,255.399097 657.223448,255.260703 657.454428,255.077886 C657.685408,254.895068 657.867805,254.666974 658.003325,254.392748 C658.137992,254.118523 658.204473,253.800728 658.204473,253.437657 C658.205326,253.161723 658.162709,252.921668 658.078329,252.71664 L658.078329,252.71664 Z M661.141583,256.337957 L672.160431,256.337957 C672.631766,256.337957 673.012755,256.719823 673.012755,257.192243 C673.012755,257.663808 672.631766,258.046528 672.160431,258.046528 L659.122427,258.046528 C659.903156,257.613406 660.587572,257.030783 661.141583,256.337957 L661.141583,256.337957 Z" id="Shape" fill="#1651BA" sketch:type="MSShapeGroup"></path>
                    <path d="M176,145.960814 L176,231.733176 L240.271538,211.328582 L240.271538,231.389898 L281.699109,188.84857 L240.271538,146.304093 L240.271538,166.362259 L176,145.960814 Z" id="Page-1" fill="url(#linearGradient-1)" sketch:type="MSShapeGroup"></path>
                    <rect id="Rectangle-278" fill="url(#linearGradient-2)" sketch:type="MSShapeGroup" x="0.618881537" y="165" width="174.451531" height="47.5428571" rx="77"></rect>
                    <text id="EMPLOYER-SG-CONTRIBU" sketch:type="MSTextLayer" font-family="Open Sans" font-size="10.3928571" font-weight="260" fill="#1651BA">
                        <tspan x="56" y="185.960814">EMPLOYER SG </tspan>
                        <tspan x="56" y="199.960814">CONTRIBUTION</tspan>
                    </text>
                </g>
                <g id="savings1-copy" transform="translate(20.000000, 174.960814)" fill="#1651BA" sketch:type="MSShapeGroup">
                    <path d="M20.9173774,7.72500476 C19.9717148,6.8313764 18.8755724,6.1336354 17.6989008,5.62609337 C17.5458016,5.86335082 17.37121,6.08678377 17.1723387,6.29080725 C16.9090913,6.56109183 16.6135381,6.79269537 16.2912203,6.97761966 C16.6324111,7.09342143 16.960102,7.22580571 17.2743937,7.37742708 C17.5942265,7.53190988 17.7178074,7.93457873 17.5404285,8.24902587 C17.3846091,8.52751551 17.0434183,8.63793917 16.7613651,8.50003888 C14.6175051,7.46027068 12.2237631,7.65605462 11.1732919,7.81874249 C10.8643732,7.86562859 10.5688201,7.66429416 10.4962835,7.35267398 L10.4962835,7.34984702 C10.4129671,6.99685675 10.6441104,6.64659001 10.9932936,6.59139541 C11.1840381,6.56109183 11.4151814,6.53078824 11.6730893,6.50586276 C11.5951461,6.43691261 11.5198557,6.36527341 11.4473191,6.29080725 C11.07661,5.91023692 10.7838106,5.46623246 10.5795663,4.96972246 C10.5580403,4.91732035 10.5366823,4.86209128 10.5177758,4.80972364 C10.198111,4.86491824 9.88103192,4.93386838 9.57211325,5.01388503 C7.77219771,3.93829722 5.61221846,3.93547027 4.32798453,4.06513102 C3.76915035,4.12022218 3.43870577,4.73256843 3.68324819,5.25103905 L4.77123028,7.54011495 C3.56228667,8.62135666 2.64889619,9.94516499 2.13586754,11.4207326 L0.808581783,11.4151821 C0.362716664,11.4123551 0,11.7847204 0,12.2425838 L0,15.2984888 C0,15.607282 0.166599146,15.8885986 0.432499576,16.0320149 L2.15460616,16.9532923 C2.87466641,18.9913552 4.3656297,20.7400343 6.33214438,21.9453173 L6.33214438,24.6507832 C6.33214438,25.1831472 6.75399854,25.6160852 7.27243386,25.6160852 L9.68491441,25.6160852 C10.0584108,25.6160852 10.3969822,25.3873086 10.5472942,25.0370419 L11.151766,23.611015 C11.6730893,23.677276 12.2022372,23.7104066 12.7449522,23.7104066 C13.5993059,23.7104066 14.4294136,23.6275975 15.22735,23.4704256 L15.22735,24.6507832 C15.22735,25.1831472 15.6491034,25.6160852 16.1676394,25.6160852 L18.5694074,25.6160852 C18.9159712,25.6160852 19.2356697,25.4203013 19.3995151,25.105992 C20.6783759,22.6401969 22.0672842,20.1663346 23.0935095,17.5848756 C23.6120455,16.2775464 23.8000362,14.8903039 23.6872015,13.5360886 C23.5046174,11.3517824 22.537429,9.25297447 20.9173774,7.72500476 L20.9173774,7.72500476 Z M6.4853444,12.8576192 C5.81632844,12.8576192 5.27640079,12.303191 5.27640079,11.6165165 C5.27640079,10.9297041 5.81632844,10.3754139 6.4853444,10.3754139 C7.15422604,10.3754139 7.69428801,10.9297041 7.69428801,11.6165165 C7.69428801,12.303191 7.15422604,12.8576192 6.4853444,12.8576192 L6.4853444,12.8576192 Z" id="Fill-1"></path>
                    <path d="M13.118415,6.44794464 C13.4865047,6.59691143 13.8894859,6.67972055 14.3112058,6.67972055 C14.5180695,6.67972055 14.7195601,6.66034556 14.9129239,6.62180243 C15.7350391,6.46452715 16.4470733,5.98739214 16.9225911,5.32281616 C17.3174455,4.77121499 17.5512082,4.0899186 17.5512082,3.35073856 C17.5538276,1.51114866 16.1004759,0.0218599863 14.3112058,0.0218599863 C12.5193163,0.0218599863 11.0686175,1.51114866 11.0686175,3.35073856 C11.0686175,3.82783909 11.1652659,4.280221 11.3426447,4.69119834 C11.6838355,5.49102004 12.3258181,6.12529243 13.118415,6.44794464 L13.118415,6.44794464 Z" id="Fill-3"></path>
                </g>
            </g>
        </g>
    </g>
</svg>