<?xml version="1.0" encoding="UTF-8" standalone="no"?>
<svg width="712px" height="346px" viewBox="0 0 712 346" version="1.1" xmlns="http://www.w3.org/2000/svg" xmlns:xlink="http://www.w3.org/1999/xlink" xmlns:sketch="http://www.bohemiancoding.com/sketch/ns">
    <!-- Generator: Sketch 3.4.4 (17249) - http://www.bohemiancoding.com/sketch -->
    <title>Group</title>
    <desc>Created with Sketch.</desc>
    <defs>
        <linearGradient x1="77.0083539%" y1="100%" x2="9.38635608%" y2="100%" id="linearGradient-1">
            <stop stop-color="#D5DCE9" offset="0%"></stop>
            <stop stop-color="#FFFFFF" offset="100%"></stop>
        </linearGradient>
        <linearGradient x1="16.3354024%" y1="-78.9365091%" x2="16.3354027%" y2="123.196752%" id="linearGradient-2">
            <stop stop-color="#FFFFFF" offset="0%"></stop>
            <stop stop-color="#D5DCE9" offset="100%"></stop>
        </linearGradient>
        <path id="path-3" d="M0,0.235714286 L30.7365,0.235714286 L30.7365,32.4761905 L0,32.4761905"></path>
        <path id="path-5" d="M0,0.235714286 L30.7365,0.235714286 L30.7365,32.4761905 L0,32.4761905"></path>
    </defs>
    <g id="Page-1" stroke="none" stroke-width="1" fill="none" fill-rule="evenodd" sketch:type="MSPage">
        <g id="8-Managed-Funds_All-Assets" sketch:type="MSArtboardGroup" transform="translate(-222.000000, -261.000000)">
            <g id="Group" sketch:type="MSLayerGroup" transform="translate(150.000000, 189.000000)">
                <g>
                    <path d="M398,195 L398,310.462795 L484.578841,282.995072 L484.578841,310.00069 L540.385054,252.733517 L484.578841,195.462106 L484.578841,222.463484 L398,195 Z" id="Page-1" fill="url(#linearGradient-1)" sketch:type="MSShapeGroup"></path>
                    <g id="Oval-3-+-arrow395" transform="translate(307.000000, 208.000660)" sketch:type="MSShapeGroup">
                        <path d="M21,42.5 C32.5979797,42.5 42,33.0979797 42,21.5 C42,9.90202025 32.5979797,0.5 21,0.5 C9.40202025,0.5 0,9.90202025 0,21.5 C0,33.0979797 9.40202025,42.5 21,42.5 Z" id="Oval-3" fill="#EEF0F4" transform="translate(21.000000, 21.500000) scale(-1, 1) translate(-21.000000, -21.500000) "></path>
                        <path d="M26.9670352,31.7735224 L16.40625,21.3865258 L26.9670352,11 L27.5136914,11.5701243 L17.5339609,21.3865258 L27.5136914,31.2033981 L26.9670352,31.7735224 Z" id="arrow395" fill="#313131" transform="translate(21.984375, 21.828125) scale(-1, 1) translate(-21.984375, -21.828125) "></path>
                    </g>
                    <g transform="translate(245.000000, 245.000000) rotate(-315.000000) translate(-245.000000, -245.000000) translate(72.000000, 72.000000)" sketch:type="MSShapeGroup">
                        <path d="M0.278679272,173.00066 C0.278679272,268.391096 77.608835,345.720661 173,345.720661 L173,173.00066 L0.278679272,173.00066" id="Fill-2-Copy-2" fill="#F58C23"></path>
                        <path d="M0.279998779,0.279339026 C0.279998779,95.6697753 77.6101545,172.99934 173.00132,172.99934 L173.00132,0.279339026 L0.279998779,0.279339026" id="Fill-2-Copy-4" fill="#ADBAD2" transform="translate(86.640659, 86.639340) rotate(-270.000000) translate(-86.640659, -86.639340) "></path>
                        <path d="M172.99934,0.279339026 C172.99934,95.6697753 250.329496,172.99934 345.720661,172.99934 L345.720661,0.279339026 L172.99934,0.279339026" id="Fill-2-Copy-5" fill="#279EEE" transform="translate(259.360001, 86.639340) rotate(-180.000000) translate(-259.360001, -86.639340) "></path>
                        <path d="M173,173.00066 C173,268.391096 250.330156,345.720661 345.721321,345.720661 L345.721321,173.00066 L173,173.00066" id="Fill-2-Copy-3" fill="#204581" transform="translate(259.360660, 259.360660) rotate(-90.000000) translate(-259.360660, -259.360660) "></path>
                    </g>
                    <text id="PROPERTY" sketch:type="MSTextLayer" font-family="Open Sans" font-size="12" font-weight="bold" sketch:alignment="middle" letter-spacing="0.599999964" fill="#FFFFFF">
                        <tspan x="315.979883" y="269.5">PROPERTY</tspan>
                    </text>
                    <text id="FIXED" sketch:type="MSTextLayer" font-family="Open Sans" font-size="12" font-weight="bold" sketch:alignment="middle" letter-spacing="0.599999964" fill="#FFFFFF">
                        <tspan x="226.608399" y="156">FIXED</tspan>
                    </text>
                    <text id="CASH" sketch:type="MSTextLayer" font-family="Open Sans" font-size="12" font-weight="bold" sketch:alignment="middle" letter-spacing="0.599999964" fill="#FFFFFF">
                        <tspan x="117.133008" y="268">CASH</tspan>
                    </text>
                    <text id="SHARES" sketch:type="MSTextLayer" font-family="Open Sans" font-size="12" font-weight="bold" sketch:alignment="middle" letter-spacing="0.599999964" fill="#FFFFFF">
                        <tspan x="220.538867" y="368.5">SHARES</tspan>
                    </text>
                    <g transform="translate(117.000000, 220.000000)" fill="#F5BC23" sketch:type="MSShapeGroup">
                        <path d="M6.12077769,16.0737872 L26.9681937,16.0737872 L26.9681937,27.8421152 L6.12077769,27.8421152 L6.12077769,16.0737872 Z M4.34514339,29.7649759 L28.743828,29.7649759 L28.743828,14.1494254 L4.34514339,14.1494254 L4.34514339,29.7649759 Z" id="Fill-1"></path>
                        <path d="M22.0890113,14.1494254 L24.5854339,16.8588428 C24.5688003,16.959414 24.5313748,17.0464756 24.5313748,17.1515499 C24.5313748,18.0146607 25.1759258,18.7126547 25.9715653,18.7126547 C26.0685945,18.7126547 26.1503762,18.6706249 26.2418609,18.6526122 L28.743828,21.3560253 L28.743828,14.1494254 L22.0890113,14.1494254 Z" id="Fill-2"></path>
                        <path d="M25.1911733,21.9609533 C25.1911733,22.8165588 24.5466222,23.5145528 23.7509828,23.5145528 C22.9553434,23.5145528 22.3107923,22.8165588 22.3107923,21.9609533 C22.3107923,21.0978426 22.9553434,20.4013497 23.7509828,20.4013497 C24.5466222,20.4013497 25.1911733,21.0978426 25.1911733,21.9609533 L25.1911733,21.9609533 Z" id="Fill-3"></path>
                        <path d="M20.8983244,21.9609533 C20.8983244,24.2230541 18.9480375,26.0588533 16.5444857,26.0588533 C14.1409339,26.0588533 12.190647,24.2230541 12.190647,21.9609533 C12.190647,19.6913472 14.1409339,17.8555481 16.5444857,17.8555481 C18.9480375,17.8555481 20.8983244,19.6913472 20.8983244,21.9609533 L20.8983244,21.9609533 Z" id="Fill-4"></path>
                        <path d="M10.7726346,21.9609533 C10.7726346,22.8165588 10.1336281,23.5145528 9.33798864,23.5145528 C8.54234922,23.5145528 7.89779813,22.8165588 7.89779813,21.9609533 C7.89779813,21.0978426 8.54234922,20.4013497 9.33798864,20.4013497 C10.1336281,20.4013497 10.7726346,21.0978426 10.7726346,21.9609533 L10.7726346,21.9609533 Z" id="Fill-5"></path>
                        <path d="M4.34514339,21.3560253 L6.84156601,18.6526122 C6.93305068,18.6706249 7.02037696,18.7126547 7.11740616,18.7126547 C7.91304557,18.7126547 8.55759667,18.0146607 8.55759667,17.1515499 C8.55759667,17.0464756 8.52017112,16.959414 8.50353754,16.8588428 L10.9999602,14.1494254 L4.34514339,14.1494254 L4.34514339,21.3560253 Z" id="Fill-6"></path>
                        <path d="M8.55759667,26.7628514 C8.55759667,25.9012417 7.91304557,25.2032478 7.11740616,25.2032478 C7.02037696,25.2032478 6.93859521,25.2437765 6.84711054,25.2617892 L4.34514339,22.5583761 L4.34514339,29.7649759 L10.9999602,29.7649759 L8.50353754,27.0615628 C8.52017112,26.9624927 8.55759667,26.8679258 8.55759667,26.7628514 L8.55759667,26.7628514 Z" id="Fill-7"></path>
                        <path d="M25.9715653,25.2032478 C25.1759258,25.2032478 24.5313748,25.9012417 24.5313748,26.7628514 C24.5313748,26.8679258 24.5688003,26.9564885 24.5854339,27.0555586 L22.0890113,29.7649759 L28.743828,29.7649759 L28.743828,22.5583761 L26.2474054,25.2617892 C26.1559207,25.2437765 26.0685945,25.2032478 25.9715653,25.2032478 L25.9715653,25.2032478 Z" id="Fill-8"></path>
                        <path d="M22.0890113,9.80535132 C22.0890113,10.6609568 21.4444602,11.3589507 20.6488207,11.3589507 C19.8531813,11.3589507 19.2141748,10.6609568 19.2141748,9.80535132 C19.2141748,8.94374159 19.8531813,8.24574765 20.6488207,8.24574765 C21.4444602,8.24574765 22.0890113,8.94374159 22.0890113,9.80535132 L22.0890113,9.80535132 Z" id="Fill-9"></path>
                        <path d="M2.68317186,14.1494254 C2.68317186,13.1587244 3.43029667,12.3496518 4.34514339,12.3496518 L5.25444558,12.3496518 L5.29880178,12.1980445 L18.1357645,4.58615791 L19.1157594,4.89687779 C19.1434821,4.99144471 19.1545711,5.09051482 19.2030857,5.18508174 C19.5814996,5.94161711 20.4589207,6.2163115 21.157531,5.80051726 C21.2393127,5.75398433 21.2989164,5.67743016 21.3682229,5.60688023 L22.349604,5.91760012 L24.5854339,10.3442327 L24.2985047,11.4054837 C24.2111784,11.4355049 24.1196937,11.4475134 24.0323675,11.4940463 C23.7080127,11.6876834 23.4917762,12.0044075 23.3781134,12.3496518 L27.6279923,12.3496518 L24.7587003,6.68013973 L21.5636675,0.359166639 L15.7266682,3.82511935 L0.165957261,13.0476458 L2.68317186,18.0311724 L2.68317186,14.1494254 Z" id="Fill-10"></path>
                        <path d="M12.5108434,9.95695861 C11.5419375,10.5258612 10.8488718,11.3949762 10.4579828,12.3496518 L18.478139,12.3496518 C18.4129908,11.9863948 18.3145755,11.6291419 18.1468536,11.2884008 C17.1405222,9.30099441 14.616377,8.70807482 12.5108434,9.95695861 L12.5108434,9.95695861 Z" id="Fill-11"></path>
                    </g>
                    <g id="Fill-1-Copy-+-Fill-3-Copy-+-Fill-5-Copy" transform="translate(332.382812, 222.594727)" fill="#60BFFF" sketch:type="MSShapeGroup">
                        <path d="M3.889625,24.8162909 C3.889625,24.8162909 3.86388384,25.4498242 4.48709091,25.4498242 C5.26609975,25.4498242 11.695971,25.4391091 11.695971,25.4391091 L11.7068093,19.5993515 C11.7068093,19.5993515 11.6051995,18.6376667 12.5535581,18.6376667 L15.5435972,18.6376667 C16.6599508,18.6376667 16.5908561,19.5993515 16.5908561,19.5993515 L16.5800177,25.4230364 L23.6344508,25.4230364 C24.4283624,25.4230364 24.397202,24.6327939 24.397202,24.6327939 L24.397202,13.8654061 L14.4475657,5.11782424 L3.889625,13.8654061 L3.889625,24.8162909 Z" id="Fill-1-Copy"></path>
                        <path d="M0,13.0497152 C0,13.0497152 0.894166667,14.6824364 2.85184975,13.0497152 L14.5369823,3.27615758 L25.4918788,12.9921212 C27.7516818,14.6034121 28.6038497,12.9921212 28.6038497,12.9921212 L14.5369823,0.393781818 L0,13.0497152 Z" id="Fill-3-Copy"></path>
                        <path d="M25.222274,3.25472727 L22.4070038,3.25472727 L22.4178422,6.63535758 L25.222274,8.99001212 L25.222274,3.25472727 Z" id="Fill-5-Copy"></path>
                    </g>
                    <path d="M236.964675,116.072681 L230,136.925457 L233.520249,136.925457 L238.570851,116.072681 L236.964675,116.072681 Z" id="Fill-1" fill="#D6E1F5" sketch:type="MSShapeGroup"></path>
                    <path d="M252.020788,116.072681 L250.41432,116.072681 L255.465141,136.925457 L258.985463,136.925457 L252.020788,116.072681 Z" id="Fill-2" fill="#D6E1F5" sketch:type="MSShapeGroup"></path>
                    <path d="M239.944809,116.072681 L234.904798,136.925457 L242.362766,136.925457 L242.568249,133.856628 L246.417214,133.856628 L246.622698,136.925457 L254.080665,136.925457 L249.040655,116.072681 L239.944809,116.072681 Z M243.829421,116.311798 L245.15597,116.311798 L245.365982,119.235862 L243.619116,119.235862 L243.829421,116.311798 Z M243.409103,122.160149 L245.576287,122.160149 L245.786592,125.084213 L243.198872,125.084213 L243.409103,122.160149 Z M242.778554,130.932564 L242.988567,128.0085 L245.996897,128.0085 L246.207202,130.932564 L242.778554,130.932564 Z" id="Fill-3" fill="#D6E1F5" sketch:type="MSShapeGroup"></path>
                    <rect id="Rectangle-266-Copy-4" fill="#6D95C6" sketch:type="MSShapeGroup" transform="translate(246.500000, 349.000000) rotate(-270.000000) translate(-246.500000, -349.000000) " x="246" y="333" width="1" height="32" rx="1"></rect>
                    <g transform="translate(231.000000, 321.000000)" fill="#6D95C6" sketch:type="MSShapeGroup">
                        <rect id="Rectangle-266" x="24" y="0" width="6" height="25" rx="1"></rect>
                        <rect id="Rectangle-266-Copy" x="16" y="8" width="6" height="17" rx="1"></rect>
                        <rect id="Rectangle-266-Copy-2" x="8" y="3" width="6" height="22" rx="1"></rect>
                        <rect id="Rectangle-266-Copy-3" x="0" y="6" width="6" height="19" rx="1"></rect>
                    </g>
                </g>
                <rect id="Rectangle-278" fill="url(#linearGradient-2)" sketch:type="MSShapeGroup" x="549" y="141" width="235" height="64" rx="77"></rect>
                <rect id="Rectangle-278-Copy" fill="url(#linearGradient-2)" sketch:type="MSShapeGroup" x="549" y="221" width="235" height="64" rx="77"></rect>
                <rect id="Rectangle-278-Copy-2" fill="url(#linearGradient-2)" sketch:type="MSShapeGroup" x="549" y="302" width="235" height="64" rx="77"></rect>
                <text id="LIFE" sketch:type="MSTextLayer" font-family="Open Sans" font-size="14" font-weight="260" fill="#1651BA">
                    <tspan x="619" y="179">LIFE</tspan>
                </text>
                <text id="INSURANCE" sketch:type="MSTextLayer" font-family="Open Sans" font-size="14" font-weight="bold" sketch:alignment="middle" fill="#1651BA">
                    <tspan x="625.822754" y="121">INSURANCE</tspan>
                </text>
                <text id="TRAUMA" sketch:type="MSTextLayer" font-family="Open Sans" font-size="14" font-weight="260" fill="#1651BA">
                    <tspan x="619" y="259">TRAUMA</tspan>
                </text>
                <text id="INCOME-PROTECTION" sketch:type="MSTextLayer" font-family="Open Sans" font-size="14" font-weight="260" fill="#1651BA">
                    <tspan x="619" y="340">INCOME PROTECTION</tspan>
                </text>
                <g id="Page-1" transform="translate(572.000000, 236.000000)">
                    <path d="M21.41945,26.1199714 C19.2411833,28.6484 15.9381333,30.1533048 12.3044167,29.8081143 C7.07265,29.311019 2.89798333,24.9068286 2.6009,19.5880667 C2.36633333,15.3860667 4.49551667,11.6591619 7.76136667,9.64406667 C8.41805,9.2391619 8.56065,8.33611429 8.06206667,7.7426381 L8.06206667,7.7426381 C7.6353,7.23454286 6.90215,7.10411429 6.34208333,7.45506667 C2.25576667,10.017019 -0.372516667,14.7501619 0.0434,20.0563524 C0.553866667,26.5704476 5.7319,31.8604 12.1530333,32.424019 C16.6940167,32.8226381 20.8170167,30.8965905 23.4985167,27.6929714 C23.88085,27.2372571 23.87465,26.5641619 23.4923167,26.1084476 L23.4923167,26.1084476 C22.9472333,25.4599714 21.9722833,25.4783048 21.41945,26.1199714" id="Fill-1" fill="#1651BA" sketch:type="MSShapeGroup"></path>
                    <path d="M12.5551033,19.1698571 L12.5551033,19.1698571 C11.57137,19.1698571 10.7664033,18.3537619 10.7664033,17.3564286 L10.7664033,8.92728571 C10.7664033,7.92995238 11.57137,7.11385714 12.5551033,7.11385714 L12.5551033,7.11385714 C13.5388367,7.11385714 14.3438033,7.92995238 14.3438033,8.92728571 L14.3438033,17.3564286 C14.3438033,18.3537619 13.5388367,19.1698571 12.5551033,19.1698571" id="Fill-3" fill="#1651BA" sketch:type="MSShapeGroup"></path>
                    <path d="M10.7664033,17.3564286 L10.7664033,17.3564286 C10.7664033,16.3590952 11.57137,15.543 12.5551033,15.543 L20.8693033,15.543 C21.8530367,15.543 22.6580033,16.3590952 22.6580033,17.3564286 L22.6580033,17.3564286 C22.6580033,18.3537619 21.8530367,19.1698571 20.8693033,19.1698571 L12.5551033,19.1698571 C11.57137,19.1698571 10.7664033,18.3537619 10.7664033,17.3564286" id="Fill-5" fill="#1651BA" sketch:type="MSShapeGroup"></path>
                    <path d="M19.6597867,16.0895429 L19.6597867,16.0895429 C20.34592,15.3745429 21.4841367,15.3588286 22.1893867,16.0544476 L28.1475867,21.9331619 C28.8528367,22.628781 28.8683367,23.7827333 28.1822033,24.4972095 L28.1822033,24.4977333 C27.49607,25.2122095 26.3578533,25.2279238 25.65312,24.5323048 L19.6944033,18.6541143 C18.9891533,17.9584952 18.9736533,16.8045429 19.6597867,16.0895429" id="Fill-7" fill="#1651BA" sketch:type="MSShapeGroup"></path>
                    <g id="Group-11">
                        <mask id="mask-4" sketch:name="Clip 10" fill="white">
                            <use xlink:href="#path-3"></use>
                        </mask>
                        <g id="Clip-10"></g>
                        <path d="M25.6601983,24.5324619 L25.6601983,24.5324619 C24.9549483,23.8368429 24.9394483,22.6828905 25.6255817,21.9678905 L27.667965,19.8401762 C28.3540983,19.1251762 29.492315,19.1094619 30.197565,19.805081 L30.197565,19.805081 C30.902815,20.5007 30.918315,21.6546524 30.2321817,22.3696524 L28.1897983,24.4973667 C27.503665,25.2123667 26.3654483,25.228081 25.6601983,24.5324619" id="Fill-9" fill="#1651BA" sketch:type="MSShapeGroup" mask="url(#mask-4)"></path>
                    </g>
                    <path d="M10.7664033,11.3283762 L10.7664033,11.3283762 C10.7664033,10.3310429 11.57137,9.51494762 12.5551033,9.51494762 L20.8693033,9.51494762 C21.8530367,9.51494762 22.6580033,10.3310429 22.6580033,11.3283762 L22.6580033,11.3283762 C22.6580033,12.3257095 21.8530367,13.1418048 20.8693033,13.1418048 L12.5551033,13.1418048 C11.57137,13.1418048 10.7664033,12.3257095 10.7664033,11.3283762" id="Fill-12" fill="#1651BA" sketch:type="MSShapeGroup"></path>
                    <g id="Group-16">
                        <mask id="mask-6" sketch:name="Clip 15" fill="white">
                            <use xlink:href="#path-5"></use>
                        </mask>
                        <g id="Clip-15"></g>
                        <path d="M15.0691,2.76267619 C15.0691,4.15862857 13.9531,5.29005714 12.5761833,5.29005714 C11.1997833,5.29005714 10.0837833,4.15862857 10.0837833,2.76267619 C10.0837833,1.36672381 11.1997833,0.235295238 12.5761833,0.235295238 C13.9531,0.235295238 15.0691,1.36672381 15.0691,2.76267619" id="Fill-14" fill="#1651BA" sketch:type="MSShapeGroup" mask="url(#mask-6)"></path>
                    </g>
                </g>
                <path d="M583.456737,185 C595.358964,175.633045 594.911282,172.322682 594.911282,169.727273 C594.911282,167.131864 592.763555,164 589.18401,164 C585.604464,164 583.456737,167.818182 583.456737,167.818182 C583.456737,167.818182 581.30901,164 577.729464,164 C574.149919,164 572.002191,167.131864 572.002191,169.727273 C572.002191,172.322682 571.55451,175.634 583.456737,185 L583.456737,185 Z" id="Shape" fill="#1651BA" sketch:type="MSShapeGroup"></path>
                <path d="M598.851852,342.55 L584.79163,342.55 C585.203815,341.83815 585.519556,341.0665 585.728519,340.25 L598.851852,340.25 C599.486778,340.25 600,340.76405 600,341.4 C600,342.0348 599.486778,342.55 598.851852,342.55 L598.851852,342.55 Z M598.851852,339.1 L585.951259,339.1 C585.998333,338.7228 586.030481,338.33985 586.030481,337.95 C586.030481,337.559 585.998333,337.1772 585.951259,336.8 L598.851852,336.8 C599.486778,336.8 600,337.31405 600,337.95 C600,338.5848 599.486778,339.1 598.851852,339.1 L598.851852,339.1 Z M598.851852,335.65 L585.728519,335.65 C585.518407,334.8335 585.203815,334.06185 584.79163,333.35 L598.851852,333.35 C599.486778,333.35 600,333.86405 600,334.5 C600,335.1348 599.486778,335.65 598.851852,335.65 L598.851852,335.65 Z M598.851852,332.2 L584.008593,332.2 C583.262296,331.26735 582.340333,330.48305 581.28863,329.9 L598.851852,329.9 C599.486778,329.9 600,330.41405 600,331.05 C600,331.6848 599.486778,332.2 598.851852,332.2 L598.851852,332.2 Z M598.851852,328.75 L580.481481,328.75 C579.846556,328.75 579.333333,328.2348 579.333333,327.6 C579.333333,326.96405 579.846556,326.45 580.481481,326.45 L598.851852,326.45 C599.486778,326.45 600,326.96405 600,327.6 C600,328.2348 599.486778,328.75 598.851852,328.75 L598.851852,328.75 Z M598.851852,325.3 L580.481481,325.3 C579.846556,325.3 579.333333,324.7848 579.333333,324.15 C579.333333,323.51405 579.846556,323 580.481481,323 L598.851852,323 C599.486778,323 600,323.51405 600,324.15 C600,324.7848 599.486778,325.3 598.851852,325.3 L598.851852,325.3 Z M585.074074,337.95 C585.074074,342.3959 581.47463,346 577.037037,346 C572.599444,346 569,342.3959 569,337.95 C569,333.5041 572.598296,329.9 577.037037,329.9 C581.47463,329.9 585.074074,333.5041 585.074074,337.95 L585.074074,337.95 Z M579.882148,338.82515 C579.766185,338.5503 579.616926,338.3111 579.429778,338.10755 C579.24263,337.904 579.030222,337.7292 578.791407,337.58315 C578.552593,337.4371 578.309185,337.30715 578.060037,337.191 C577.810889,337.076 577.567481,336.9679 577.328667,336.8644 C577.089852,336.76205 576.875148,336.65165 576.686852,336.53435 C576.498556,336.41705 576.347,336.2825 576.234481,336.13185 C576.121963,335.9812 576.065704,335.80295 576.065704,335.59595 C576.065704,335.45795 576.090963,335.32685 576.140333,335.20265 C576.190852,335.0796 576.26663,334.97265 576.369963,334.8841 C576.472148,334.7967 576.600741,334.72655 576.753444,334.6771 C576.906148,334.6265 577.086407,334.60235 577.291926,334.60235 C577.554852,334.60235 577.795963,334.6334 578.016407,334.6978 C578.235704,334.76335 578.429741,334.8335 578.59737,334.91285 C578.765,334.99105 578.906222,335.0635 579.021037,335.1302 C579.135852,335.1969 579.219667,335.2291 579.272481,335.2291 C579.325296,335.2291 579.36663,335.2153 579.39763,335.18655 C579.427481,335.1578 579.452741,335.11295 579.468815,335.0497 C579.486037,334.9876 579.49637,334.90825 579.504407,334.8128 C579.511296,334.7162 579.514741,334.59775 579.514741,334.4586 C579.514741,334.3344 579.512444,334.22975 579.507852,334.14695 C579.503259,334.06415 579.494074,333.99285 579.483741,333.93765 C579.471111,333.88245 579.457333,333.8376 579.441259,333.80425 C579.422889,333.7709 579.391889,333.73065 579.343667,333.6835 C579.295444,333.63635 579.197852,333.5754 579.049741,333.50525 C578.90163,333.43395 578.731704,333.36955 578.541111,333.3132 C578.34937,333.2557 578.143852,333.21085 577.924556,333.1775 C577.879778,333.1706 577.833852,333.1729 577.789074,333.16715 L577.789074,331.97805 L576.659296,331.97805 L576.659296,333.16715 C576.451481,333.19475 576.250556,333.23615 576.05537,333.2925 C575.675333,333.4029 575.345815,333.5685 575.065667,333.7916 C574.785519,334.0147 574.562778,334.2953 574.398593,334.6311 C574.233259,334.9692 574.151741,335.3602 574.151741,335.80525 C574.151741,336.1928 574.209148,336.5263 574.322815,336.80345 C574.436481,337.0806 574.586889,337.3221 574.771741,337.52565 C574.956593,337.7292 575.164407,337.90285 575.39863,338.0489 C575.632852,338.1961 575.875111,338.32605 576.123111,338.44105 C576.371111,338.55605 576.61337,338.66415 576.847593,338.76765 C577.081815,338.87115 577.290778,338.98155 577.474481,339.0977 C577.659333,339.21615 577.808593,339.34955 577.923407,339.5002 C578.038222,339.652 578.09563,339.83255 578.09563,340.043 C578.09563,340.22585 578.062333,340.39145 577.995741,340.54095 C577.929148,340.69045 577.831556,340.8135 577.705259,340.9147 C577.578963,341.0159 577.425111,341.09295 577.243704,341.14815 C577.061148,341.20335 576.856778,341.23095 576.626,341.23095 C576.276963,341.23095 575.969259,341.19185 575.704037,341.1125 C575.438815,341.03315 575.210333,340.94575 575.018593,340.84915 C574.826852,340.7537 574.670704,340.66745 574.549,340.58695 C574.427296,340.50875 574.333148,340.4685 574.265407,340.4685 C574.217185,340.4685 574.174704,340.4823 574.140259,340.5076 C574.103519,340.53405 574.074815,340.5789 574.054148,340.641 C574.032333,340.70425 574.017407,340.78475 574.007074,340.88595 C573.996741,340.98715 573.992148,341.11135 573.992148,341.2597 C573.992148,341.4805 574.005926,341.64955 574.031185,341.76685 C574.057593,341.8853 574.10237,341.975 574.16437,342.03595 C574.22637,342.0969 574.327407,342.1682 574.46863,342.24985 C574.609852,342.3315 574.785519,342.4074 574.99563,342.481 C575.205741,342.55345 575.449148,342.6167 575.723556,342.6696 C575.997963,342.72135 576.296481,342.74665 576.616815,342.74665 C576.630593,342.74665 576.643222,342.74435 576.658148,342.74435 L576.658148,343.8518 L577.786778,343.8518 L577.786778,342.596 C577.840741,342.5822 577.898148,342.5753 577.950963,342.56035 C578.366593,342.43615 578.730556,342.24985 579.041704,342.00375 C579.352852,341.75765 579.598556,341.4506 579.781111,341.08145 C579.962519,340.7123 580.052074,340.2845 580.052074,339.79575 C580.053222,339.4243 579.995815,339.10115 579.882148,338.82515 L579.882148,338.82515 Z M584.008593,343.7 L598.851852,343.7 C599.486778,343.7 600,344.21405 600,344.85 C600,345.4848 599.486778,346 598.851852,346 L581.28863,346 C582.340333,345.41695 583.262296,344.63265 584.008593,343.7 L584.008593,343.7 Z" id="Shape" fill="#1651BA" sketch:type="MSShapeGroup"></path>
            </g>
        </g>
    </g>
</svg>