<?xml version="1.0" encoding="UTF-8" standalone="no"?>
<svg width="811px" height="365px" viewBox="0 0 811 365" version="1.1" xmlns="http://www.w3.org/2000/svg" xmlns:xlink="http://www.w3.org/1999/xlink" xmlns:sketch="http://www.bohemiancoding.com/sketch/ns">
    <!-- Generator: Sketch 3.4.3 (16618) - http://www.bohemiancoding.com/sketch -->
    <title>Group</title>
    <desc>Created with Sketch.</desc>
    <defs>
        <linearGradient x1="91.4062108%" y1="-32.8762273%" x2="16.3354027%" y2="123.196752%" id="linearGradient-1">
            <stop stop-color="#FFFFFF" offset="0%"></stop>
            <stop stop-color="#D5DCE9" offset="100%"></stop>
        </linearGradient>
        <path id="path-2" d="M0.00718403548,0.0493284005 L49.0909091,0.0493284005 L49.0909091,50.6109389 L0.00718403548,50.6109389 L0.00718403548,0.0493284005 Z"></path>
        <rect id="path-4" x="0.951320087" y="0" width="27.4909091" height="72.9863014"></rect>
    </defs>
    <g id="Page-1" stroke="none" stroke-width="1" fill="none" fill-rule="evenodd" sketch:type="MSPage">
        <g id="Super" sketch:type="MSArtboardGroup" transform="translate(-100.000000, -299.000000)">
            <g id="Group" sketch:type="MSLayerGroup" transform="translate(95.000000, 299.000000)">
                <text id="Money-In" sketch:type="MSTextLayer" font-family="Open Sans" font-size="17" font-weight="526" sketch:alignment="middle" fill="#000000">
                    <tspan x="86.9160156" y="267">Money In</tspan>
                </text>
                <text id="9.5%-from-employer" sketch:type="MSTextLayer" font-family="Open Sans" font-size="15" font-weight="260" sketch:alignment="middle" line-spacing="23" fill="#000000">
                    <tspan x="60.7529297" y="292">9.5% from employer</tspan>
                    <tspan x="17.5803223" y="315">Rollovers from other super funds</tspan>
                    <tspan x="15.9763184" y="338">Additional contributions from you</tspan>
                    <tspan x="4.42236328" y="361">Government contributions (if eligible)</tspan>
                </text>
                <text id="Money-Out" sketch:type="MSTextLayer" font-family="Open Sans" font-size="17" font-weight="526" sketch:alignment="middle" fill="#000000">
                    <tspan x="497.478516" y="267">Money Out</tspan>
                </text>
                <text id="Your-investment-grow" sketch:type="MSTextLayer" font-family="Open Sans" font-size="15" font-weight="260" sketch:alignment="middle" fill="#000000">
                    <tspan x="284.397949" y="292">Your investment grows </tspan>
                    <tspan x="292.776855" y="312">due to contributions </tspan>
                    <tspan x="321.883301" y="332">and returns</tspan>
                </text>
                <text id="You-can-access-your-" sketch:type="MSTextLayer" font-family="Open Sans" font-size="15" font-weight="260" sketch:alignment="middle" fill="#000000">
                    <tspan x="674.534912" y="292">You can access your </tspan>
                    <tspan x="672.487793" y="312">investment once you </tspan>
                    <tspan x="724.222412" y="332">retire</tspan>
                </text>
                <text id="A-portion-of-your-in" sketch:type="MSTextLayer" font-family="Open Sans" font-size="15" font-weight="260" sketch:alignment="middle" fill="#000000">
                    <tspan x="486.028564" y="292">A portion of your </tspan>
                    <tspan x="468.549316" y="312">investment is used for </tspan>
                    <tspan x="508.162354" y="332">Insurance,</tspan>
                    <tspan x="491.503418" y="352">Taxes and Fees</tspan>
                </text>
                <g transform="translate(49.000000, 0.000000)">
                    <ellipse id="Oval-298" fill="url(#linearGradient-1)" sketch:type="MSShapeGroup" cx="76.4420629" cy="159.729412" rx="76.4420629" ry="75.7294124"></ellipse>
                    <ellipse id="Oval-298-Copy" fill="url(#linearGradient-1)" sketch:type="MSShapeGroup" cx="690.442063" cy="159.729412" rx="76.4420629" ry="75.7294124"></ellipse>
                    <path d="M114.418179,147.966046 L103.658924,215.211388 L63.3117187,221.48762 L50.7592548,217.901202 L40,148.86265 L57.9320913,140.793209 L79.450601,139 L96.4860877,140.793209 L114.418179,147.966046 Z" id="Path-756" fill="#FFFFFF" sketch:type="MSShapeGroup"></path>
                    <path d="M77.1690391,134.879256 L77.1690391,134.879256 C55.4141266,134.879256 37.702438,141.048276 37.702438,148.502833 L46.9626047,213.794471 C46.9626047,219.55649 60.5009519,224.290562 77.1908584,224.290562 C93.8797005,224.290562 107.417782,219.578446 107.417782,213.794471 L116.529471,148.502833 C116.635374,140.919482 98.9247498,134.879256 77.1690391,134.879256 L77.1690391,134.879256 Z M77.1690391,158.078351 C65.6960754,158.078351 55.4141266,156.364124 48.1123757,153.622754 L57.0958097,217.864219 C55.6698383,217.479174 54.3497702,216.943646 53.178446,216.429003 L44.0678214,151.801689 C42.7695727,151.137634 41.5982485,150.36674 40.6837003,149.57389 C46.6861382,144.733248 60.7359086,141.176803 77.0202953,141.176803 C93.3046819,141.176803 107.375207,144.582497 113.357156,149.57389 C107.525015,154.54306 93.5811485,158.078351 77.1690391,158.078351 L77.1690391,158.078351 Z" id="Fill-1" fill="#204581" sketch:type="MSShapeGroup"></path>
                    <path d="M112.212352,139.222241 C113.643529,139.960126 114.96756,140.816672 116.125015,141.792385 C117.039829,142.434484 117.806698,143.356128 118.466865,144.276434 C116.507651,123.969193 99.5849168,108.09586 78.978711,108.074974 L75.4663349,108.074974 C54.7539596,108.074974 37.8304269,123.92635 36,144.255549 C36.6380817,143.334172 37.4259715,142.563278 38.3418501,141.770428 C39.5008468,140.793353 40.7784815,139.994858 42.2148858,139.253622 C45.7063195,123.893438 59.3402981,112.483023 75.7016277,112.483023 L78.7463235,112.483023 C95.004805,112.499502 108.617966,123.900569 112.212352,139.222241 Z" id="Path" fill="#4D73AE" sketch:type="MSShapeGroup"></path>
                    <ellipse id="Oval-77" fill="#FCA63A" sketch:type="MSShapeGroup" transform="translate(78.013006, 111.000119) rotate(-90.000000) translate(-78.013006, -111.000119) " cx="78.0130056" cy="111.000119" rx="3.00011854" ry="3.01300565"></ellipse>
                    <ellipse id="Oval-77-Copy-2" fill="#FCA63A" sketch:type="MSShapeGroup" transform="translate(78.013006, 124.000119) rotate(-90.000000) translate(-78.013006, -124.000119) " cx="78.0130056" cy="124.000119" rx="3.00011854" ry="3.01300565"></ellipse>
                    <ellipse id="Oval-77-Copy" fill="#FCA63A" sketch:type="MSShapeGroup" transform="translate(78.013006, 99.000119) rotate(-90.000000) translate(-78.013006, -99.000119) " cx="78.0130056" cy="99.0001185" rx="3.00011854" ry="3.01300565"></ellipse>
                    <ellipse id="Oval-77" fill="#FCA63A" sketch:type="MSShapeGroup" transform="translate(78.013006, 87.000119) rotate(-90.000000) translate(-78.013006, -87.000119) " cx="78.0130056" cy="87.0001185" rx="3.00011854" ry="3.01300565"></ellipse>
                    <ellipse id="Oval-77-Copy" fill="#FCA63A" sketch:type="MSShapeGroup" transform="translate(78.013006, 75.000119) rotate(-90.000000) translate(-78.013006, -75.000119) " cx="78.0130056" cy="75.0001185" rx="3.00011854" ry="3.01300565"></ellipse>
                    <g id="Rectangle-193-+-Path-604-+-Group-Copy" transform="translate(37.000000, 0.000000)" sketch:type="MSShapeGroup">
                        <rect id="Rectangle-193" fill="#FFFFFF" x="14" y="35" width="56" height="28"></rect>
                        <path d="M13,28 L59.0108683,28 L64,26 L52,4 L17,23 L13,28 Z" id="Path-604" fill="#FFFFFF"></path>
                        <g id="Group-Copy">
                            <g id="money146-copy-2" fill="#A6B7C2">
                                <path d="M15.3487714,36.4639077 L66.8767898,36.4639077 L66.8767898,63.4736345 L15.3487714,63.4736345 L15.3487714,36.4639077 Z M10.9599821,67.886831 L71.2655792,67.886831 L71.2655792,32.0472661 L10.9599821,32.0472661 L10.9599821,67.886831 Z" id="Fill-1"></path>
                                <path d="M54.8170409,32.0472661 L60.987384,38.2657045 C60.9462712,38.4965274 60.8537675,38.6963443 60.8537675,38.9375025 C60.8537675,40.9184455 62.4468877,42.5204255 64.4134491,42.5204255 C64.6532736,42.5204255 64.8554115,42.4239622 65.0815318,42.3826208 L71.2655792,48.5872787 L71.2655792,32.0472661 L54.8170409,32.0472661 Z" id="Fill-2"></path>
                                <path d="M62.4845744,49.9756613 C62.4845744,51.9393787 60.8914542,53.5413587 58.9248929,53.5413587 C56.9583315,53.5413587 55.3652113,51.9393787 55.3652113,49.9756613 C55.3652113,47.9947183 56.9583315,46.3961835 58.9248929,46.3961835 C60.8914542,46.3961835 62.4845744,47.9947183 62.4845744,49.9756613 L62.4845744,49.9756613 Z" id="Fill-3"></path>
                                <path d="M51.874051,49.9756613 C51.874051,55.1674545 47.0535774,59.3808341 41.1127806,59.3808341 C35.1719838,59.3808341 30.3515103,55.1674545 30.3515103,49.9756613 C30.3515103,44.7666426 35.1719838,40.553263 41.1127806,40.553263 C47.0535774,40.553263 51.874051,44.7666426 51.874051,49.9756613 L51.874051,49.9756613 Z" id="Fill-4"></path>
                                <path d="M26.8466458,49.9756613 C26.8466458,51.9393787 25.2672298,53.5413587 23.3006684,53.5413587 C21.3341071,53.5413587 19.7409868,51.9393787 19.7409868,49.9756613 C19.7409868,47.9947183 21.3341071,46.3961835 23.3006684,46.3961835 C25.2672298,46.3961835 26.8466458,47.9947183 26.8466458,49.9756613 L26.8466458,49.9756613 Z" id="Fill-5"></path>
                                <path d="M10.9599821,48.5872787 L17.1303253,42.3826208 C17.3564456,42.4239622 17.5722877,42.5204255 17.8121122,42.5204255 C19.7786736,42.5204255 21.3717938,40.9184455 21.3717938,38.9375025 C21.3717938,38.6963443 21.27929,38.4965274 21.2381773,38.2657045 L27.4085204,32.0472661 L10.9599821,32.0472661 L10.9599821,48.5872787 Z" id="Fill-6"></path>
                                <path d="M21.3717938,60.9965945 C21.3717938,59.0190967 19.7786736,57.4171167 17.8121122,57.4171167 C17.5722877,57.4171167 17.3701498,57.5101349 17.1440295,57.5514763 L10.9599821,51.3468184 L10.9599821,67.886831 L27.4085204,67.886831 L21.2381773,61.6821731 C21.27929,61.4547953 21.3717938,61.2377528 21.3717938,60.9965945 L21.3717938,60.9965945 Z" id="Fill-7"></path>
                                <path d="M64.4134491,57.4171167 C62.4468877,57.4171167 60.8537675,59.0190967 60.8537675,60.9965945 C60.8537675,61.2377528 60.9462712,61.4410148 60.987384,61.6683926 L54.8170409,67.886831 L71.2655792,67.886831 L71.2655792,51.3468184 L65.095236,57.5514763 C64.8691157,57.5101349 64.6532736,57.4171167 64.4134491,57.4171167 L64.4134491,57.4171167 Z" id="Fill-8"></path>
                                <path d="M54.8170409,22.0770939 C54.8170409,24.0408113 53.2239206,25.6427913 51.2573593,25.6427913 C49.2907979,25.6427913 47.7113819,24.0408113 47.7113819,22.0770939 C47.7113819,20.0995961 49.2907979,18.4976161 51.2573593,18.4976161 C53.2239206,18.4976161 54.8170409,20.0995961 54.8170409,22.0770939 L54.8170409,22.0770939 Z" id="Fill-9"></path>
                                <path d="M6.85213011,32.0472661 C6.85213011,29.7734881 8.69877917,27.9165693 10.9599821,27.9165693 L13.2074808,27.9165693 L13.3171149,27.5686124 L45.0459033,10.0984179 L47.4681313,10.8115574 C47.5366526,11.0285998 47.5640611,11.2559776 47.6839734,11.4730201 C48.6192892,13.2093596 50.7879884,13.8398163 52.5147251,12.8855185 C52.716863,12.7787199 52.8641838,12.6030188 53.035487,12.4410983 L55.4611411,13.1542377 L60.987384,23.3138914 L60.2781885,25.74959 C60.0623465,25.8184923 59.8362262,25.8460533 59.6203841,25.9528519 C58.8186848,26.3972722 58.2842187,27.1241921 58.0032814,27.9165693 L68.5075968,27.9165693 L61.4156421,14.9043578 L53.5185622,0.39696496 L39.0914023,8.35174294 L0.63039597,29.5185493 L6.85213011,40.9563418 L6.85213011,32.0472661 Z" id="Fill-10"></path>
                                <path d="M31.1429313,22.4250509 C28.7481119,23.7307507 27.0350793,25.7254741 26.068929,27.9165693 L45.8921414,27.9165693 C45.7311163,27.0828507 45.4878657,26.2629126 45.0733118,25.4808708 C42.5859886,20.9195342 36.3471242,19.5587125 31.1429313,22.4250509 L31.1429313,22.4250509 Z" id="Fill-11"></path>
                            </g>
                            <path d="M15.3487714,36.4639077 L66.8767898,36.4639077 L66.8767898,63.4736345 L15.3487714,63.4736345 L15.3487714,36.4639077 Z M10.9599821,67.886831 L71.2655792,67.886831 L71.2655792,32.0472661 L10.9599821,32.0472661 L10.9599821,67.886831 Z" id="Fill-1" fill="#279EEE"></path>
                            <path d="M54.8170409,32.0472661 L60.987384,38.2657045 C60.9462712,38.4965274 60.8537675,38.6963443 60.8537675,38.9375025 C60.8537675,40.9184455 62.4468877,42.5204255 64.4134491,42.5204255 C64.6532736,42.5204255 64.8554115,42.4239622 65.0815318,42.3826208 L71.2655792,48.5872787 L71.2655792,32.0472661 L54.8170409,32.0472661 Z" id="Fill-2" fill="#279EEE"></path>
                            <path d="M62.4845744,49.9756613 C62.4845744,51.9393787 60.8914542,53.5413587 58.9248929,53.5413587 C56.9583315,53.5413587 55.3652113,51.9393787 55.3652113,49.9756613 C55.3652113,47.9947183 56.9583315,46.3961835 58.9248929,46.3961835 C60.8914542,46.3961835 62.4845744,47.9947183 62.4845744,49.9756613 L62.4845744,49.9756613 Z" id="Fill-3" fill="#279EEE"></path>
                            <path d="M51.874051,49.9756613 C51.874051,55.1674545 47.0535774,59.3808341 41.1127806,59.3808341 C35.1719838,59.3808341 30.3515103,55.1674545 30.3515103,49.9756613 C30.3515103,44.7666426 35.1719838,40.553263 41.1127806,40.553263 C47.0535774,40.553263 51.874051,44.7666426 51.874051,49.9756613 L51.874051,49.9756613 Z" id="Fill-4" fill="#279EEE"></path>
                            <path d="M26.8466458,49.9756613 C26.8466458,51.9393787 25.2672298,53.5413587 23.3006684,53.5413587 C21.3341071,53.5413587 19.7409868,51.9393787 19.7409868,49.9756613 C19.7409868,47.9947183 21.3341071,46.3961835 23.3006684,46.3961835 C25.2672298,46.3961835 26.8466458,47.9947183 26.8466458,49.9756613 L26.8466458,49.9756613 Z" id="Fill-5" fill="#279EEE"></path>
                            <path d="M10.9599821,48.5872787 L17.1303253,42.3826208 C17.3564456,42.4239622 17.5722877,42.5204255 17.8121122,42.5204255 C19.7786736,42.5204255 21.3717938,40.9184455 21.3717938,38.9375025 C21.3717938,38.6963443 21.27929,38.4965274 21.2381773,38.2657045 L27.4085204,32.0472661 L10.9599821,32.0472661 L10.9599821,48.5872787 Z" id="Fill-6" fill="#279EEE"></path>
                            <path d="M21.3717938,60.9965945 C21.3717938,59.0190967 19.7786736,57.4171167 17.8121122,57.4171167 C17.5722877,57.4171167 17.3701498,57.5101349 17.1440295,57.5514763 L10.9599821,51.3468184 L10.9599821,67.886831 L27.4085204,67.886831 L21.2381773,61.6821731 C21.27929,61.4547953 21.3717938,61.2377528 21.3717938,60.9965945 L21.3717938,60.9965945 Z" id="Fill-7" fill="#279EEE"></path>
                            <path d="M64.4134491,57.4171167 C62.4468877,57.4171167 60.8537675,59.0190967 60.8537675,60.9965945 C60.8537675,61.2377528 60.9462712,61.4410148 60.987384,61.6683926 L54.8170409,67.886831 L71.2655792,67.886831 L71.2655792,51.3468184 L65.095236,57.5514763 C64.8691157,57.5101349 64.6532736,57.4171167 64.4134491,57.4171167 L64.4134491,57.4171167 Z" id="Fill-8" fill="#279EEE"></path>
                            <path d="M54.8170409,22.0770939 C54.8170409,24.0408113 53.2239206,25.6427913 51.2573593,25.6427913 C49.2907979,25.6427913 47.7113819,24.0408113 47.7113819,22.0770939 C47.7113819,20.0995961 49.2907979,18.4976161 51.2573593,18.4976161 C53.2239206,18.4976161 54.8170409,20.0995961 54.8170409,22.0770939 L54.8170409,22.0770939 Z" id="Fill-9" fill="#1C82C6"></path>
                            <path d="M6.85213011,32.0472661 C6.85213011,29.7734881 8.69877917,27.9165693 10.9599821,27.9165693 L13.2074808,27.9165693 L13.3171149,27.5686124 L45.0459033,10.0984179 L47.4681313,10.8115574 C47.5366526,11.0285998 47.5640611,11.2559776 47.6839734,11.4730201 C48.6192892,13.2093596 50.7879884,13.8398163 52.5147251,12.8855185 C52.716863,12.7787199 52.8641838,12.6030188 53.035487,12.4410983 L55.4611411,13.1542377 L60.987384,23.3138914 L60.2781885,25.74959 C60.0623465,25.8184923 59.8362262,25.8460533 59.6203841,25.9528519 C58.8186848,26.3972722 58.2842187,27.1241921 58.0032814,27.9165693 L68.5075968,27.9165693 L61.4156421,14.9043578 L53.5185622,0.39696496 L39.0914023,8.35174294 L0.63039597,29.5185493 L6.85213011,40.9563418 L6.85213011,32.0472661 Z" id="Fill-10" fill="#1C82C6"></path>
                            <path d="M31.1429313,22.4250509 C28.7481119,23.7307507 27.0350793,25.7254741 26.068929,27.9165693 L45.8921414,27.9165693 C45.7311163,27.0828507 45.4878657,26.2629126 45.0733118,25.4808708 C42.5859886,20.9195342 36.3471242,19.5587125 31.1429313,22.4250509 L31.1429313,22.4250509 Z" id="Fill-11" fill="#1C82C6"></path>
                        </g>
                    </g>
                    <ellipse id="Oval-298-Copy-2" fill="url(#linearGradient-1)" sketch:type="MSShapeGroup" cx="492.479935" cy="171" rx="51.4799347" ry="51"></ellipse>
                    <ellipse id="Oval-77-Copy-6" fill="#FCA63A" sketch:type="MSShapeGroup" cx="361.000119" cy="121.013006" rx="3.00011854" ry="3.01300565"></ellipse>
                    <ellipse id="Oval-77-Copy-7" fill="#FCA63A" sketch:type="MSShapeGroup" cx="376.000119" cy="112.013006" rx="3.00011854" ry="3.01300565"></ellipse>
                    <ellipse id="Oval-77-Copy-8" fill="#FCA63A" sketch:type="MSShapeGroup" cx="393.000119" cy="107.013006" rx="3.00011854" ry="3.01300565"></ellipse>
                    <ellipse id="Oval-77-Copy-9" fill="#FCA63A" sketch:type="MSShapeGroup" cx="410.000119" cy="106.013006" rx="3.00011854" ry="3.01300565"></ellipse>
                    <ellipse id="Oval-77-Copy-10" fill="#FCA63A" sketch:type="MSShapeGroup" cx="427.000119" cy="109.013006" rx="3.00011854" ry="3.01300565"></ellipse>
                    <ellipse id="Oval-77-Copy-11" fill="#FCA63A" sketch:type="MSShapeGroup" cx="443.000119" cy="115.013006" rx="3.00011854" ry="3.01300565"></ellipse>
                    <ellipse id="Oval-77-Copy-12" fill="#FCA63A" sketch:type="MSShapeGroup" cx="456.000119" cy="126.013006" rx="3.00011854" ry="3.01300565"></ellipse>
                    <g id="Rectangle-193-+-Path-604-+-Group-Copy-2" transform="translate(486.605842, 172.977091) rotate(-74.000000) translate(-486.605842, -172.977091) translate(450.605842, 138.977091)" sketch:type="MSShapeGroup">
                        <rect id="Rectangle-193" fill="#FFFFFF" x="14" y="35" width="56" height="28"></rect>
                        <path d="M13,28 L59.0108683,28 L64,26 L52,4 L17,23 L13,28 Z" id="Path-604" fill="#FFFFFF"></path>
                        <g id="Group-Copy">
                            <g id="money146-copy-2" fill="#A6B7C2">
                                <path d="M15.3487714,36.4639077 L66.8767898,36.4639077 L66.8767898,63.4736345 L15.3487714,63.4736345 L15.3487714,36.4639077 Z M10.9599821,67.886831 L71.2655792,67.886831 L71.2655792,32.0472661 L10.9599821,32.0472661 L10.9599821,67.886831 Z" id="Fill-1"></path>
                                <path d="M54.8170409,32.0472661 L60.987384,38.2657045 C60.9462712,38.4965274 60.8537675,38.6963443 60.8537675,38.9375025 C60.8537675,40.9184455 62.4468877,42.5204255 64.4134491,42.5204255 C64.6532736,42.5204255 64.8554115,42.4239622 65.0815318,42.3826208 L71.2655792,48.5872787 L71.2655792,32.0472661 L54.8170409,32.0472661 Z" id="Fill-2"></path>
                                <path d="M62.4845744,49.9756613 C62.4845744,51.9393787 60.8914542,53.5413587 58.9248929,53.5413587 C56.9583315,53.5413587 55.3652113,51.9393787 55.3652113,49.9756613 C55.3652113,47.9947183 56.9583315,46.3961835 58.9248929,46.3961835 C60.8914542,46.3961835 62.4845744,47.9947183 62.4845744,49.9756613 L62.4845744,49.9756613 Z" id="Fill-3"></path>
                                <path d="M51.874051,49.9756613 C51.874051,55.1674545 47.0535774,59.3808341 41.1127806,59.3808341 C35.1719838,59.3808341 30.3515103,55.1674545 30.3515103,49.9756613 C30.3515103,44.7666426 35.1719838,40.553263 41.1127806,40.553263 C47.0535774,40.553263 51.874051,44.7666426 51.874051,49.9756613 L51.874051,49.9756613 Z" id="Fill-4"></path>
                                <path d="M26.8466458,49.9756613 C26.8466458,51.9393787 25.2672298,53.5413587 23.3006684,53.5413587 C21.3341071,53.5413587 19.7409868,51.9393787 19.7409868,49.9756613 C19.7409868,47.9947183 21.3341071,46.3961835 23.3006684,46.3961835 C25.2672298,46.3961835 26.8466458,47.9947183 26.8466458,49.9756613 L26.8466458,49.9756613 Z" id="Fill-5"></path>
                                <path d="M10.9599821,48.5872787 L17.1303253,42.3826208 C17.3564456,42.4239622 17.5722877,42.5204255 17.8121122,42.5204255 C19.7786736,42.5204255 21.3717938,40.9184455 21.3717938,38.9375025 C21.3717938,38.6963443 21.27929,38.4965274 21.2381773,38.2657045 L27.4085204,32.0472661 L10.9599821,32.0472661 L10.9599821,48.5872787 Z" id="Fill-6"></path>
                                <path d="M21.3717938,60.9965945 C21.3717938,59.0190967 19.7786736,57.4171167 17.8121122,57.4171167 C17.5722877,57.4171167 17.3701498,57.5101349 17.1440295,57.5514763 L10.9599821,51.3468184 L10.9599821,67.886831 L27.4085204,67.886831 L21.2381773,61.6821731 C21.27929,61.4547953 21.3717938,61.2377528 21.3717938,60.9965945 L21.3717938,60.9965945 Z" id="Fill-7"></path>
                                <path d="M64.4134491,57.4171167 C62.4468877,57.4171167 60.8537675,59.0190967 60.8537675,60.9965945 C60.8537675,61.2377528 60.9462712,61.4410148 60.987384,61.6683926 L54.8170409,67.886831 L71.2655792,67.886831 L71.2655792,51.3468184 L65.095236,57.5514763 C64.8691157,57.5101349 64.6532736,57.4171167 64.4134491,57.4171167 L64.4134491,57.4171167 Z" id="Fill-8"></path>
                                <path d="M54.8170409,22.0770939 C54.8170409,24.0408113 53.2239206,25.6427913 51.2573593,25.6427913 C49.2907979,25.6427913 47.7113819,24.0408113 47.7113819,22.0770939 C47.7113819,20.0995961 49.2907979,18.4976161 51.2573593,18.4976161 C53.2239206,18.4976161 54.8170409,20.0995961 54.8170409,22.0770939 L54.8170409,22.0770939 Z" id="Fill-9"></path>
                                <path d="M6.85213011,32.0472661 C6.85213011,29.7734881 8.69877917,27.9165693 10.9599821,27.9165693 L13.2074808,27.9165693 L13.3171149,27.5686124 L45.0459033,10.0984179 L47.4681313,10.8115574 C47.5366526,11.0285998 47.5640611,11.2559776 47.6839734,11.4730201 C48.6192892,13.2093596 50.7879884,13.8398163 52.5147251,12.8855185 C52.716863,12.7787199 52.8641838,12.6030188 53.035487,12.4410983 L55.4611411,13.1542377 L60.987384,23.3138914 L60.2781885,25.74959 C60.0623465,25.8184923 59.8362262,25.8460533 59.6203841,25.9528519 C58.8186848,26.3972722 58.2842187,27.1241921 58.0032814,27.9165693 L68.5075968,27.9165693 L61.4156421,14.9043578 L53.5185622,0.39696496 L39.0914023,8.35174294 L0.63039597,29.5185493 L6.85213011,40.9563418 L6.85213011,32.0472661 Z" id="Fill-10"></path>
                                <path d="M31.1429313,22.4250509 C28.7481119,23.7307507 27.0350793,25.7254741 26.068929,27.9165693 L45.8921414,27.9165693 C45.7311163,27.0828507 45.4878657,26.2629126 45.0733118,25.4808708 C42.5859886,20.9195342 36.3471242,19.5587125 31.1429313,22.4250509 L31.1429313,22.4250509 Z" id="Fill-11"></path>
                            </g>
                            <path d="M15.3487714,36.4639077 L66.8767898,36.4639077 L66.8767898,63.4736345 L15.3487714,63.4736345 L15.3487714,36.4639077 Z M10.9599821,67.886831 L71.2655792,67.886831 L71.2655792,32.0472661 L10.9599821,32.0472661 L10.9599821,67.886831 Z" id="Fill-1" fill="#279EEE"></path>
                            <path d="M54.8170409,32.0472661 L60.987384,38.2657045 C60.9462712,38.4965274 60.8537675,38.6963443 60.8537675,38.9375025 C60.8537675,40.9184455 62.4468877,42.5204255 64.4134491,42.5204255 C64.6532736,42.5204255 64.8554115,42.4239622 65.0815318,42.3826208 L71.2655792,48.5872787 L71.2655792,32.0472661 L54.8170409,32.0472661 Z" id="Fill-2" fill="#279EEE"></path>
                            <path d="M62.4845744,49.9756613 C62.4845744,51.9393787 60.8914542,53.5413587 58.9248929,53.5413587 C56.9583315,53.5413587 55.3652113,51.9393787 55.3652113,49.9756613 C55.3652113,47.9947183 56.9583315,46.3961835 58.9248929,46.3961835 C60.8914542,46.3961835 62.4845744,47.9947183 62.4845744,49.9756613 L62.4845744,49.9756613 Z" id="Fill-3" fill="#279EEE"></path>
                            <path d="M51.874051,49.9756613 C51.874051,55.1674545 47.0535774,59.3808341 41.1127806,59.3808341 C35.1719838,59.3808341 30.3515103,55.1674545 30.3515103,49.9756613 C30.3515103,44.7666426 35.1719838,40.553263 41.1127806,40.553263 C47.0535774,40.553263 51.874051,44.7666426 51.874051,49.9756613 L51.874051,49.9756613 Z" id="Fill-4" fill="#279EEE"></path>
                            <path d="M26.8466458,49.9756613 C26.8466458,51.9393787 25.2672298,53.5413587 23.3006684,53.5413587 C21.3341071,53.5413587 19.7409868,51.9393787 19.7409868,49.9756613 C19.7409868,47.9947183 21.3341071,46.3961835 23.3006684,46.3961835 C25.2672298,46.3961835 26.8466458,47.9947183 26.8466458,49.9756613 L26.8466458,49.9756613 Z" id="Fill-5" fill="#279EEE"></path>
                            <path d="M10.9599821,48.5872787 L17.1303253,42.3826208 C17.3564456,42.4239622 17.5722877,42.5204255 17.8121122,42.5204255 C19.7786736,42.5204255 21.3717938,40.9184455 21.3717938,38.9375025 C21.3717938,38.6963443 21.27929,38.4965274 21.2381773,38.2657045 L27.4085204,32.0472661 L10.9599821,32.0472661 L10.9599821,48.5872787 Z" id="Fill-6" fill="#279EEE"></path>
                            <path d="M21.3717938,60.9965945 C21.3717938,59.0190967 19.7786736,57.4171167 17.8121122,57.4171167 C17.5722877,57.4171167 17.3701498,57.5101349 17.1440295,57.5514763 L10.9599821,51.3468184 L10.9599821,67.886831 L27.4085204,67.886831 L21.2381773,61.6821731 C21.27929,61.4547953 21.3717938,61.2377528 21.3717938,60.9965945 L21.3717938,60.9965945 Z" id="Fill-7" fill="#279EEE"></path>
                            <path d="M64.4134491,57.4171167 C62.4468877,57.4171167 60.8537675,59.0190967 60.8537675,60.9965945 C60.8537675,61.2377528 60.9462712,61.4410148 60.987384,61.6683926 L54.8170409,67.886831 L71.2655792,67.886831 L71.2655792,51.3468184 L65.095236,57.5514763 C64.8691157,57.5101349 64.6532736,57.4171167 64.4134491,57.4171167 L64.4134491,57.4171167 Z" id="Fill-8" fill="#279EEE"></path>
                            <path d="M54.8170409,22.0770939 C54.8170409,24.0408113 53.2239206,25.6427913 51.2573593,25.6427913 C49.2907979,25.6427913 47.7113819,24.0408113 47.7113819,22.0770939 C47.7113819,20.0995961 49.2907979,18.4976161 51.2573593,18.4976161 C53.2239206,18.4976161 54.8170409,20.0995961 54.8170409,22.0770939 L54.8170409,22.0770939 Z" id="Fill-9" fill="#1C82C6"></path>
                            <path d="M6.85213011,32.0472661 C6.85213011,29.7734881 8.69877917,27.9165693 10.9599821,27.9165693 L13.2074808,27.9165693 L13.3171149,27.5686124 L45.0459033,10.0984179 L47.4681313,10.8115574 C47.5366526,11.0285998 47.5640611,11.2559776 47.6839734,11.4730201 C48.6192892,13.2093596 50.7879884,13.8398163 52.5147251,12.8855185 C52.716863,12.7787199 52.8641838,12.6030188 53.035487,12.4410983 L55.4611411,13.1542377 L60.987384,23.3138914 L60.2781885,25.74959 C60.0623465,25.8184923 59.8362262,25.8460533 59.6203841,25.9528519 C58.8186848,26.3972722 58.2842187,27.1241921 58.0032814,27.9165693 L68.5075968,27.9165693 L61.4156421,14.9043578 L53.5185622,0.39696496 L39.0914023,8.35174294 L0.63039597,29.5185493 L6.85213011,40.9563418 L6.85213011,32.0472661 Z" id="Fill-10" fill="#1C82C6"></path>
                            <path d="M31.1429313,22.4250509 C28.7481119,23.7307507 27.0350793,25.7254741 26.068929,27.9165693 L45.8921414,27.9165693 C45.7311163,27.0828507 45.4878657,26.2629126 45.0733118,25.4808708 C42.5859886,20.9195342 36.3471242,19.5587125 31.1429313,22.4250509 L31.1429313,22.4250509 Z" id="Fill-11" fill="#1C82C6"></path>
                        </g>
                    </g>
                    <g transform="translate(223.000000, 70.000000)" sketch:type="MSShapeGroup">
                        <path d="M135.561087,54 C135.364724,53.8939385 135.166719,53.7895929 134.967161,53.6869625 C130.144441,33.1807013 111.879159,17.9217112 90.064553,17.8996561 L85.9793719,17.8996561 C64.0267707,17.8996561 45.7335572,33.1711579 41.0489715,53.7289615 C40.8747496,53.8186414 40.7022685,53.9089476 40.5314885,54 L33.6842105,54 C38.84145,29.9484246 60.1021418,12 85.6636709,12 L90.3763559,12 C115.794893,12.0256988 137.036138,29.9841471 142.339372,54 L135.561087,54 Z" id="Path" fill="#4D73AE"></path>
                        <g id="Rectangle-193-+-Rectangle-193-Copy-3-+-Group-Copy" transform="translate(99.993028, 62.967309) rotate(-15.000000) translate(-99.993028, -62.967309) translate(51.872727, 14.367309)">
                            <path d="M28.010108,67.9336477 L67.3067981,27.3424661 L89.0675124,48.3040085 L49.7708223,88.8951901 L28.010108,67.9336477 L28.010108,67.9336477 Z" id="Rectangle-193" fill="#FFFFFF"></path>
                            <path d="M23.3969119,70.6725827 L40.5427861,14.7311594 L69.4719162,23.5535707 L52.326042,79.4949941 L23.3969119,70.6725827 L23.3969119,70.6725827 Z" id="Rectangle-193-Copy-3" fill="#FFFFFF"></path>
                            <g id="Group-Copy" transform="translate(48.061995, 48.516609) rotate(-45.000000) translate(-48.061995, -48.516609) translate(13.174777, 15.516609)">
                                <path d="M11.4969746,33.8161593 L63.6978955,33.8161593 L63.6978955,61.1101991 L11.4969746,61.1101991 L11.4969746,33.8161593 Z M7.05087226,65.5698502 L68.1439979,65.5698502 L68.1439979,29.3530268 L7.05087226,29.3530268 L7.05087226,65.5698502 Z" id="Fill-1" fill="#279EEE"></path>
                                <path d="M51.4806587,29.3530268 L57.7315802,35.6369224 C57.6899305,35.8701751 57.5962187,36.0720953 57.5962187,36.315792 C57.5962187,38.317587 59.2101435,39.93643 61.2023861,39.93643 C61.4453425,39.93643 61.65012,39.8389513 61.8791932,39.7971747 L68.1439979,46.0671448 L68.1439979,29.3530268 L51.4806587,29.3530268 Z" id="Fill-2" fill="#279EEE"></path>
                                <path d="M59.2483223,47.470142 C59.2483223,49.4545301 57.6343976,51.073373 55.642155,51.073373 C53.6499124,51.073373 52.0359877,49.4545301 52.0359877,47.470142 C52.0359877,45.468347 53.6499124,43.8529854 55.642155,43.8529854 C57.6343976,43.8529854 59.2483223,45.468347 59.2483223,47.470142 L59.2483223,47.470142 Z" id="Fill-3" fill="#279EEE"></path>
                                <path d="M48.4992364,47.470142 C48.4992364,52.7165856 43.6158125,56.9743165 37.5974351,56.9743165 C31.5790576,56.9743165 26.6956337,52.7165856 26.6956337,47.470142 C26.6956337,42.2062914 31.5790576,37.9485605 37.5974351,37.9485605 C43.6158125,37.9485605 48.4992364,42.2062914 48.4992364,47.470142 L48.4992364,47.470142 Z" id="Fill-4" fill="#279EEE"></path>
                                <path d="M23.1449993,47.470142 C23.1449993,49.4545301 21.5449577,51.073373 19.5527151,51.073373 C17.5604726,51.073373 15.9465478,49.4545301 15.9465478,47.470142 C15.9465478,45.468347 17.5604726,43.8529854 19.5527151,43.8529854 C21.5449577,43.8529854 23.1449993,45.468347 23.1449993,47.470142 L23.1449993,47.470142 Z" id="Fill-5" fill="#279EEE"></path>
                                <path d="M7.05087226,46.0671448 L13.3017937,39.7971747 C13.5308669,39.8389513 13.7495277,39.93643 13.9924841,39.93643 C15.9847267,39.93643 17.5986514,38.317587 17.5986514,36.315792 C17.5986514,36.0720953 17.5049397,35.8701751 17.46329,35.6369224 L23.7142114,29.3530268 L7.05087226,29.3530268 L7.05087226,46.0671448 Z" id="Fill-6" fill="#279EEE"></path>
                                <path d="M17.5986514,58.607085 C17.5986514,56.6087714 15.9847267,54.9899284 13.9924841,54.9899284 C13.7495277,54.9899284 13.5447501,55.0839258 13.3156769,55.1257024 L7.05087226,48.8557323 L7.05087226,65.5698502 L23.7142114,65.5698502 L17.46329,59.2998801 C17.5049397,59.0701089 17.5986514,58.8507818 17.5986514,58.607085 L17.5986514,58.607085 Z" id="Fill-7" fill="#279EEE"></path>
                                <path d="M61.2023861,54.9899284 C59.2101435,54.9899284 57.5962187,56.6087714 57.5962187,58.607085 C57.5962187,58.8507818 57.6899305,59.0561834 57.7315802,59.2859546 L51.4806587,65.5698502 L68.1439979,65.5698502 L68.1439979,48.8557323 L61.8930765,55.1257024 C61.6640033,55.0839258 61.4453425,54.9899284 61.2023861,54.9899284 L61.2023861,54.9899284 Z" id="Fill-8" fill="#279EEE"></path>
                                <path d="M54.8122227,21.8066302 C54.8122227,23.7910183 53.198298,25.4098613 51.2060554,25.4098613 C49.2138128,25.4098613 47.6137713,23.7910183 47.6137713,21.8066302 C47.6137713,19.8083166 49.2138128,18.1894737 51.2060554,18.1894737 C53.198298,18.1894737 54.8122227,19.8083166 54.8122227,21.8066302 L54.8122227,21.8066302 Z" id="Fill-9" fill="#1C82C6"></path>
                                <path d="M6.30298353,31.9834622 C6.30298353,29.6857497 8.17374792,27.8092844 10.4644798,27.8092844 L12.7413285,27.8092844 L12.8523943,27.4576648 L44.9955278,9.80357348 L47.4493876,10.5242197 C47.5188037,10.7435468 47.5465702,10.973318 47.6680484,11.1926451 C48.6155784,12.947262 50.8125985,13.584355 52.5618847,12.620012 C52.7666623,12.5120892 52.9159069,12.3345386 53.0894472,12.1709137 L55.5467778,12.8915599 L61.1451877,23.1581572 L60.4267309,25.6194948 C60.2080701,25.6891224 59.9789969,25.7169735 59.7603362,25.8248963 C58.9481676,26.2739947 58.4067219,27.0085664 58.1221158,27.8092844 L68.7636067,27.8092844 L61.5790385,14.6601022 L53.5788308,-6.00408612e-13 L38.9632672,8.03851249 L-1.42108547e-13,29.4281273 L6.30298353,40.9863177 L6.30298353,31.9834622 Z" id="Fill-10" fill="#1C82C6"></path>
                                <path d="M30.4667376,21.7267238 C28.0406443,23.0461678 26.3052413,25.0618884 25.3264741,27.2760477 L45.4085571,27.2760477 C45.2454292,26.4335531 44.999002,25.6049841 44.5790345,24.8147102 C42.0592294,20.2053596 35.7388918,18.8302135 30.4667376,21.7267238 L30.4667376,21.7267238 Z" id="Fill-11" fill="#1C82C6"></path>
                            </g>
                        </g>
                        <g id="Rectangle-193-+-Rectangle-193-Copy-3-+-Group-Copy-Copy" transform="translate(66.802068, 66.635063) rotate(-56.000000) translate(-66.802068, -66.635063) translate(18.681767, 18.635063)">
                            <path d="M28.010108,66.7336477 L67.3067981,26.1424661 L89.0675124,47.1040085 L49.7708223,87.6951901 L28.010108,66.7336477 L28.010108,66.7336477 Z" id="Rectangle-193" fill="#FFFFFF"></path>
                            <path d="M23.3969119,69.4725827 L40.5427861,13.5311594 L69.4719162,22.3535707 L52.326042,78.2949941 L23.3969119,69.4725827 L23.3969119,69.4725827 Z" id="Rectangle-193-Copy-3" fill="#FFFFFF"></path>
                            <g id="Group-Copy" transform="translate(47.636667, 47.517576) rotate(-45.000000) translate(-47.636667, -47.517576) translate(13.192663, 14.675470)">
                                <path d="M11.4969746,33.8161593 L63.6978955,33.8161593 L63.6978955,61.1101991 L11.4969746,61.1101991 L11.4969746,33.8161593 Z M7.05087226,65.5698502 L68.1439979,65.5698502 L68.1439979,29.3530268 L7.05087226,29.3530268 L7.05087226,65.5698502 Z" id="Fill-1" fill="#279EEE"></path>
                                <path d="M51.4806587,29.3530268 L57.7315802,35.6369224 C57.6899305,35.8701751 57.5962187,36.0720953 57.5962187,36.315792 C57.5962187,38.317587 59.2101435,39.93643 61.2023861,39.93643 C61.4453425,39.93643 61.65012,39.8389513 61.8791932,39.7971747 L68.1439979,46.0671448 L68.1439979,29.3530268 L51.4806587,29.3530268 Z" id="Fill-2" fill="#279EEE"></path>
                                <path d="M59.2483223,47.470142 C59.2483223,49.4545301 57.6343976,51.073373 55.642155,51.073373 C53.6499124,51.073373 52.0359877,49.4545301 52.0359877,47.470142 C52.0359877,45.468347 53.6499124,43.8529854 55.642155,43.8529854 C57.6343976,43.8529854 59.2483223,45.468347 59.2483223,47.470142 L59.2483223,47.470142 Z" id="Fill-3" fill="#279EEE"></path>
                                <path d="M48.4992364,47.470142 C48.4992364,52.7165856 43.6158125,56.9743165 37.5974351,56.9743165 C31.5790576,56.9743165 26.6956337,52.7165856 26.6956337,47.470142 C26.6956337,42.2062914 31.5790576,37.9485605 37.5974351,37.9485605 C43.6158125,37.9485605 48.4992364,42.2062914 48.4992364,47.470142 L48.4992364,47.470142 Z" id="Fill-4" fill="#279EEE"></path>
                                <path d="M23.1449993,47.470142 C23.1449993,49.4545301 21.5449577,51.073373 19.5527151,51.073373 C17.5604726,51.073373 15.9465478,49.4545301 15.9465478,47.470142 C15.9465478,45.468347 17.5604726,43.8529854 19.5527151,43.8529854 C21.5449577,43.8529854 23.1449993,45.468347 23.1449993,47.470142 L23.1449993,47.470142 Z" id="Fill-5" fill="#279EEE"></path>
                                <path d="M7.05087226,46.0671448 L13.3017937,39.7971747 C13.5308669,39.8389513 13.7495277,39.93643 13.9924841,39.93643 C15.9847267,39.93643 17.5986514,38.317587 17.5986514,36.315792 C17.5986514,36.0720953 17.5049397,35.8701751 17.46329,35.6369224 L23.7142114,29.3530268 L7.05087226,29.3530268 L7.05087226,46.0671448 Z" id="Fill-6" fill="#279EEE"></path>
                                <path d="M17.5986514,58.607085 C17.5986514,56.6087714 15.9847267,54.9899284 13.9924841,54.9899284 C13.7495277,54.9899284 13.5447501,55.0839258 13.3156769,55.1257024 L7.05087226,48.8557323 L7.05087226,65.5698502 L23.7142114,65.5698502 L17.46329,59.2998801 C17.5049397,59.0701089 17.5986514,58.8507818 17.5986514,58.607085 L17.5986514,58.607085 Z" id="Fill-7" fill="#279EEE"></path>
                                <path d="M61.2023861,54.9899284 C59.2101435,54.9899284 57.5962187,56.6087714 57.5962187,58.607085 C57.5962187,58.8507818 57.6899305,59.0561834 57.7315802,59.2859546 L51.4806587,65.5698502 L68.1439979,65.5698502 L68.1439979,48.8557323 L61.8930765,55.1257024 C61.6640033,55.0839258 61.4453425,54.9899284 61.2023861,54.9899284 L61.2023861,54.9899284 Z" id="Fill-8" fill="#279EEE"></path>
                                <path d="M54.8122227,21.8066302 C54.8122227,23.7910183 53.198298,25.4098613 51.2060554,25.4098613 C49.2138128,25.4098613 47.6137713,23.7910183 47.6137713,21.8066302 C47.6137713,19.8083166 49.2138128,18.1894737 51.2060554,18.1894737 C53.198298,18.1894737 54.8122227,19.8083166 54.8122227,21.8066302 L54.8122227,21.8066302 Z" id="Fill-9" fill="#1C82C6"></path>
                                <path d="M6.30298353,31.9834622 C6.30298353,29.6857497 8.17374792,27.8092844 10.4644798,27.8092844 L12.7413285,27.8092844 L12.8523943,27.4576648 L44.9955278,9.80357348 L47.4493876,10.5242197 C47.5188037,10.7435468 47.5465702,10.973318 47.6680484,11.1926451 C48.6155784,12.947262 50.8125985,13.584355 52.5618847,12.620012 C52.7666623,12.5120892 52.9159069,12.3345386 53.0894472,12.1709137 L55.5467778,12.8915599 L61.1451877,23.1581572 L60.4267309,25.6194948 C60.2080701,25.6891224 59.9789969,25.7169735 59.7603362,25.8248963 C58.9481676,26.2739947 58.4067219,27.0085664 58.1221158,27.8092844 L68.7636067,27.8092844 L61.5790385,14.6601022 L53.5788308,-2.30926389e-13 L38.9632672,8.03851249 L5.68434189e-14,29.4281273 L6.30298353,40.9863177 L6.30298353,31.9834622 Z" id="Fill-10" fill="#1C82C6"></path>
                                <path d="M30.4667376,21.7267238 C28.0406443,23.0461678 26.3052413,25.0618884 25.3264741,27.2760477 L45.4085571,27.2760477 C45.2454292,26.4335531 44.999002,25.6049841 44.5790345,24.8147102 C42.0592294,20.2053596 35.7388918,18.8302135 30.4667376,21.7267238 L30.4667376,21.7267238 Z" id="Fill-11" fill="#1C82C6"></path>
                            </g>
                        </g>
                        <g id="pail1-copy" transform="translate(33.684211, 60.000000)" fill="#204581">
                            <path d="M104.369309,0.583228736 C106.00337,2.351441 106.873904,4.24107045 106.846362,6.20828959 L94.6208722,93.5934842 C94.6208722,101.334657 76.4563279,107.641271 54.0642911,107.641271 C31.6708261,107.641271 13.5059248,101.305271 13.5059248,93.5934842 L1.08121659,6.20828959 C1.08121659,4.68184085 1.63748902,3.19566612 2.68435474,1.77317263 L6.6350299,6.50213079 C6.07984744,6.8754746 5.56138224,7.25557033 5.08128644,7.64177376 C6.30836963,8.70291041 7.87997866,9.73466063 9.62188698,10.6234208 L21.8459491,97.1194968 C23.4175581,97.808286 25.1887422,98.5250281 27.1020209,99.0403656 L15.0486151,13.0607023 C24.8456444,16.729705 38.6413155,19.0239964 54.0350153,19.0239964 C76.0557497,19.0239964 94.7647519,14.2924235 102.589951,7.64177376 C102.192924,7.31131933 101.769342,6.98605793 101.320158,6.66628439 L104.369309,0.583228736 Z" id="Path"></path>
                        </g>
                    </g>
                    <path d="M671,133 L710.012818,133 C710.012818,133 714,142 714,143 C714,144 712,152 712,152 L707,160 L697,167 L699,171 L704,172 L712,181 L713,190 L711,202 L671.987182,202 L669,199 L668,188 L670,180 L679,172 L683,169 L680,165 L672,160 L668,151 L667,143 L671,133 Z" id="Path-733" fill="#FFFFFF" sketch:type="MSShapeGroup"></path>
                    <g id="Page-1-+-Page-1" transform="translate(658.000000, 126.000000)" sketch:type="MSShapeGroup">
                        <path d="M20.529039,32.872478 C23.137039,34.9829268 26.1922078,36.2378049 29.3400519,36.6987805 L29.3400519,58.1853659 C27.0641039,58.6416293 24.8822857,59.6707317 23.0543377,61.3097561 C19.4796883,64.5165073 18.1134545,69.2336195 19.0225455,73.6335805 L45.7277922,73.6335805 L45.7282078,73.632761 L44.987013,73.632761 C45.8902857,69.2336195 44.5186494,64.5156878 40.9552208,61.3097561 C39.1160519,59.6707317 36.9342338,58.6416293 34.6589091,58.1853659 L34.6589091,36.6987805 C37.8075844,36.2378049 40.8619221,34.9829268 43.4699221,32.872478 C45.6824935,31.0902439 47.3034805,28.8566634 48.425974,26.4292683 L15.5844156,26.4292683 C16.7012987,28.8566634 18.3270649,31.0902439 20.529039,32.872478" id="Page-1" fill="#279EEE"></path>
                        <path d="M44.3424416,35.1726439 C42.1818182,36.8067512 39.7606234,37.902439 37.2361558,38.5730049 L37.2361558,45.3444293 C39.7614545,46.0160195 42.1818182,47.1067902 44.3424416,48.7458146 C51.6575584,54.2879707 54.2857143,64.0243902 50.7426494,72.419678 L50.3172987,73.4278829 L45.6455065,73.4278829 L45.6450909,73.4287024 L18.9398442,73.4287024 L16.8311688,73.4287024 L13.5218701,73.4287024 L13.0956883,72.419678 C9.54784416,64.0243902 12.1762078,54.2879707 19.4958961,48.7458146 C21.6517403,47.1067902 24.0827013,46.0160195 26.5974026,45.3397171 L26.5974026,38.5738244 C24.0827013,37.902439 21.6567273,36.8067512 19.4958961,35.1726439 C12.1762078,29.6304878 9.54784416,19.8940683 13.0956883,11.4987805 L13.5218701,10.4895512 L50.3172987,10.4895512 L50.7426494,11.4987805 C54.2857143,19.8940683 51.6575584,29.6304878 44.3424416,35.1726439 L44.3424416,35.1726439 Z M58.5147013,5.2452878 L63.8335584,5.2452878 L63.8335584,0 L0,0 L0,5.2452878 L5.3198961,5.2452878 L5.3198961,10.4895512 L7.85475325,10.4895512 C3.9894026,20.8416293 7.31407792,32.5604488 16.254961,39.3318732 C17.6411429,40.3818732 19.1322597,41.2212585 20.6599481,41.9592293 C19.1322597,42.6961756 17.6411429,43.5365854 16.254961,44.5865854 C7.31407792,51.3530927 3.9894026,63.0768293 7.85475325,73.4278829 L5.3198961,73.4278829 L5.3198961,78.6731707 L0,78.6731707 L0,83.9184585 L63.8335584,83.9184585 L63.8335584,78.6731707 L58.5147013,78.6731707 L58.5147013,73.4278829 L55.9788052,73.4278829 C59.8441558,63.0768293 56.5194805,51.3522732 47.5844156,44.5865854 C46.2021818,43.5365854 44.7060779,42.6961756 43.1794286,41.9592293 C44.7069091,41.2212585 46.203013,40.3818732 47.5844156,39.3318732 C56.5194805,32.565161 59.8441558,20.8463415 55.9788052,10.4895512 L58.5147013,10.4895512 L58.5147013,5.2452878 Z" id="Page-1" fill="#204581"></path>
                    </g>
                    <g id="Oval-303-+-dollar103-+-dollar103-copy-2" transform="translate(693.000000, 74.000000)">
                        <ellipse id="Oval-303" fill="#FFFFFF" sketch:type="MSShapeGroup" cx="29.025" cy="39.4139966" rx="18.6545455" ry="19.260274"></ellipse>
                        <g id="dollar103" transform="translate(4.479545, 14.071531)">
                            <mask id="mask-3" sketch:name="Clip 2" fill="white">
                                <use xlink:href="#path-2"></use>
                            </mask>
                            <g id="Clip-2"></g>
                            <path d="M24.5216275,0.0493284005 C10.9794812,0.0493284005 0,11.3577409 0,25.3055928 C0,39.2528281 10.9794812,50.5618571 24.5216275,50.5618571 C38.0665277,50.5618571 49.043255,39.2528281 49.043255,25.3055928 C49.043255,11.3577409 38.0665277,0.0493284005 24.5216275,0.0493284005 L24.5216275,0.0493284005 Z M31.2088869,35.0570776 C30.0022084,36.4507283 28.260439,37.2705663 25.9822616,37.5172083 L25.9822616,41.0906809 L23.078714,41.0906809 L23.078714,37.5360764 C19.2799157,37.1352831 16.9301375,34.8595174 16.0232727,30.7163017 L20.5132949,29.510469 C20.9296098,32.1156251 22.3065499,33.416785 24.6441153,33.416785 C25.7366874,33.416785 26.5448914,33.1393127 27.059867,32.5815318 C27.5748426,32.0231344 27.832031,31.3511582 27.832031,30.5621505 C27.832031,29.7451488 27.5748426,29.1250908 27.059867,28.7060461 C26.5448914,28.2835483 25.3985588,27.7503083 23.6236231,27.102873 C22.0282882,26.5325134 20.7799424,25.9712795 19.8819379,25.4100457 C18.9839335,24.8551012 18.2533171,24.0752191 17.6934412,23.073236 C17.1336851,22.0679232 16.8525499,20.8963737 16.8525499,19.5648768 C16.8525499,17.8166783 17.3553126,16.2410059 18.3553304,14.8415592 C19.3552284,13.4450722 20.9296098,12.5909509 23.078714,12.2793187 L23.078714,9.52050462 L25.9822616,9.52050462 L25.9822616,12.279812 C29.2272905,12.6806053 31.3286208,14.5703763 32.2832594,17.9525781 L28.2843858,19.6419525 C27.5027627,17.3233943 26.299796,16.1644236 24.6651885,16.1644236 C23.8452506,16.1644236 23.186714,16.4230277 22.6928115,16.9414692 C22.1956763,17.4592941 21.9473481,18.0878612 21.9473481,18.8249508 C21.9473481,19.5774556 22.186816,20.1539813 22.6657517,20.5577342 C23.1418137,20.9585275 24.1685322,21.4546479 25.7371663,22.0500417 C27.4612151,22.6974769 28.8142084,23.3107523 29.793153,23.8874013 C30.7748514,24.4640503 31.5559956,25.2626771 32.1429313,26.2767457 C32.7266341,27.2941439 33.0198625,28.4811086 33.0198625,29.840476 C33.0193836,31.9278072 32.4152062,33.66688 31.2088869,35.0570776 L31.2088869,35.0570776 Z" id="Fill-1" fill="#F58C23" sketch:type="MSShapeGroup" mask="url(#mask-3)"></path>
                        </g>
                        <g id="dollar103-copy-2" transform="translate(0.552273, 0.893449)">
                            <mask id="mask-5" sketch:name="Mask" fill="white">
                                <use xlink:href="#path-4"></use>
                            </mask>
                            <use id="Mask" sketch:type="MSShapeGroup" xlink:href="#path-4"></use>
                            <g id="dollar103-copy" mask="url(#mask-5)" fill="#EB7626" sketch:type="MSShapeGroup">
                                <g transform="translate(3.896775, 13.178082)" id="Fill-1">
                                    <path d="M24.5216275,0.0493284005 C10.9794812,0.0493284005 0,11.3577409 0,25.3055928 C0,39.2528281 10.9794812,50.5618571 24.5216275,50.5618571 C38.0665277,50.5618571 49.043255,39.2528281 49.043255,25.3055928 C49.043255,11.3577409 38.0665277,0.0493284005 24.5216275,0.0493284005 L24.5216275,0.0493284005 Z M31.2088869,35.0570776 C30.0022084,36.4507283 28.260439,37.2705663 25.9822616,37.5172083 L25.9822616,41.0906809 L23.078714,41.0906809 L23.078714,37.5360764 C19.2799157,37.1352831 16.9301375,34.8595174 16.0232727,30.7163017 L20.5132949,29.510469 C20.9296098,32.1156251 22.3065499,33.416785 24.6441153,33.416785 C25.7366874,33.416785 26.5448914,33.1393127 27.059867,32.5815318 C27.5748426,32.0231344 27.832031,31.3511582 27.832031,30.5621505 C27.832031,29.7451488 27.5748426,29.1250908 27.059867,28.7060461 C26.5448914,28.2835483 25.3985588,27.7503083 23.6236231,27.102873 C22.0282882,26.5325134 20.7799424,25.9712795 19.8819379,25.4100457 C18.9839335,24.8551012 18.2533171,24.0752191 17.6934412,23.073236 C17.1336851,22.0679232 16.8525499,20.8963737 16.8525499,19.5648768 C16.8525499,17.8166783 17.3553126,16.2410059 18.3553304,14.8415592 C19.3552284,13.4450722 20.9296098,12.5909509 23.078714,12.2793187 L23.078714,9.52050462 L25.9822616,9.52050462 L25.9822616,12.279812 C29.2272905,12.6806053 31.3286208,14.5703763 32.2832594,17.9525781 L28.2843858,19.6419525 C27.5027627,17.3233943 26.299796,16.1644236 24.6651885,16.1644236 C23.8452506,16.1644236 23.186714,16.4230277 22.6928115,16.9414692 C22.1956763,17.4592941 21.9473481,18.0878612 21.9473481,18.8249508 C21.9473481,19.5774556 22.186816,20.1539813 22.6657517,20.5577342 C23.1418137,20.9585275 24.1685322,21.4546479 25.7371663,22.0500417 C27.4612151,22.6974769 28.8142084,23.3107523 29.793153,23.8874013 C30.7748514,24.4640503 31.5559956,25.2626771 32.1429313,26.2767457 C32.7266341,27.2941439 33.0198625,28.4811086 33.0198625,29.840476 C33.0193836,31.9278072 32.4152062,33.66688 31.2088869,35.0570776 L31.2088869,35.0570776 Z"></path>
                                </g>
                            </g>
                        </g>
                    </g>
                </g>
            </g>
        </g>
    </g>
</svg>