<?xml version="1.0" encoding="UTF-8" standalone="no"?>
<svg width="173px" height="165px" viewBox="0 0 173 165" version="1.1" xmlns="http://www.w3.org/2000/svg" xmlns:xlink="http://www.w3.org/1999/xlink" xmlns:sketch="http://www.bohemiancoding.com/sketch/ns">
    <!-- Generator: Sketch 3.5.2 (25235) - http://www.bohemiancoding.com/sketch -->
    <title>Group 6</title>
    <desc>Created with Sketch.</desc>
    <defs>
        <linearGradient x1="91.4062108%" y1="-32.8762273%" x2="16.3354027%" y2="123.196752%" id="linearGradient-1">
            <stop stop-color="#FFFFFF" offset="0%"></stop>
            <stop stop-color="#D5DCE9" offset="100%"></stop>
        </linearGradient>
        <path id="path-2" d="M0,37.5888702 L8.79418754,42.7146252 C8.79418754,42.7146252 34.2973314,55.5290128 52.7651253,20.5030201 C71.2329191,-14.5229726 29.9002377,5.98004753 29.9002377,5.98004753 L0,37.5888702 Z"></path>
        <path id="path-4" d="M0.129191621,0.327934915 L45.2170674,0.327934915 L45.2170674,37.1035208 L0.129191621,37.1035208 L0.129191621,0.327934915 Z"></path>
        <path id="path-6" d="M2.63825626,49.5489652 L0,34.1717002 C0,34.1717002 27.2619814,46.9860877 45.7297752,11.9600951 C64.1975691,-23.0658976 52.7651253,33.3174077 52.7651253,33.3174077 L2.63825626,49.5489652 Z"></path>
    </defs>
    <g id="Page-1" stroke="none" stroke-width="1" fill="none" fill-rule="evenodd" sketch:type="MSPage">
        <g id="16-Income-in-Retirement-Copy" sketch:type="MSArtboardGroup" transform="translate(-434.000000, -372.000000)">
            <g id="Group-6" sketch:type="MSLayerGroup" transform="translate(434.000000, 350.000000)">
                <ellipse id="Oval-298-Copy" fill="url(#linearGradient-1)" sketch:type="MSShapeGroup" cx="76.4420629" cy="110.729412" rx="76.4420629" ry="75.7294124"></ellipse>
                <g id="Group-4" transform="translate(15.000000, 46.000000)" sketch:type="MSShapeGroup">
                    <g id="Group-Copy-3">
                        <path d="M93.1982471,37.7514793 C93.0632476,37.6786797 92.9271191,37.6070578 92.7899233,37.5366133 C89.4743031,23.4613098 76.9169219,12.9876834 61.9193802,12.972545 L59.1108182,12.972545 C44.0184048,12.972545 31.4418206,23.4547593 28.2211679,37.565441 C28.1013904,37.6269965 27.9828096,37.6889818 27.8653983,37.7514793 L23.1578947,37.7514793 C26.7034969,21.2427057 41.3202225,8.92307692 58.8937738,8.92307692 L62.1337447,8.92307692 C79.6089891,8.94071633 94.2123446,21.2672252 97.8583185,37.7514793 L93.1982471,37.7514793 Z" id="Path" fill="#4D73AE"></path>
                        <g id="Rectangle-193-+-Rectangle-193-Copy-3-+-Group-Copy" transform="translate(68.745207, 43.906556) rotate(-15.000000) translate(-68.745207, -43.906556) translate(35.662500, 10.547976)">
                            <path d="M19.2569492,46.6290126 L46.2734237,18.7676099 L61.2339148,33.1554141 L34.2174404,61.0168169 L19.2569492,46.6290126 L19.2569492,46.6290126 Z" id="Rectangle-193" fill="#FFFFFF"></path>
                            <path d="M16.0853769,48.5089917 L27.8731654,10.1113283 L47.7619424,16.1669479 L35.9741539,54.5646113 L16.0853769,48.5089917 L16.0853769,48.5089917 Z" id="Rectangle-193-Copy-3" fill="#FFFFFF"></path>
                            <g id="Group-Copy" transform="translate(33.042621, 33.301341) rotate(-45.000000) translate(-33.042621, -33.301341) translate(9.057659, 10.650453)">
                                <path d="M7.90417006,23.2110916 L43.7923032,23.2110916 L43.7923032,41.9454621 L7.90417006,41.9454621 L7.90417006,23.2110916 Z M4.84747468,45.0065244 L46.8489986,45.0065244 L46.8489986,20.1476397 L4.84747468,20.1476397 L4.84747468,45.0065244 Z" id="Fill-1" fill="#279EEE"></path>
                                <path d="M35.3929529,20.1476397 L39.6904614,24.4608462 C39.6618272,24.6209486 39.5974004,24.7595447 39.5974004,24.9268158 C39.5974004,26.300829 40.7069736,27.4119874 42.0766404,27.4119874 C42.243673,27.4119874 42.3844575,27.345079 42.5419453,27.3164039 L46.8489986,31.620052 L46.8489986,20.1476397 L35.3929529,20.1476397 Z" id="Fill-2" fill="#279EEE"></path>
                                <path d="M40.7332216,32.583056 C40.7332216,33.9451212 39.6236483,35.0562797 38.2539816,35.0562797 C36.8843148,35.0562797 35.7747415,33.9451212 35.7747415,32.583056 C35.7747415,31.2090429 36.8843148,30.100274 38.2539816,30.100274 C39.6236483,30.100274 40.7332216,31.2090429 40.7332216,32.583056 L40.7332216,32.583056 Z" id="Fill-3" fill="#279EEE"></path>
                                <path d="M33.3432251,32.583056 C33.3432251,36.1841653 29.9858711,39.1066315 25.8482366,39.1066315 C21.7106021,39.1066315 18.3532482,36.1841653 18.3532482,32.583056 C18.3532482,28.9699989 21.7106021,26.0475326 25.8482366,26.0475326 C29.9858711,26.0475326 33.3432251,28.9699989 33.3432251,32.583056 L33.3432251,32.583056 Z" id="Fill-4" fill="#279EEE"></path>
                                <path d="M15.912187,32.583056 C15.912187,33.9451212 14.8121584,35.0562797 13.4424917,35.0562797 C12.0728249,35.0562797 10.9632516,33.9451212 10.9632516,32.583056 C10.9632516,31.2090429 12.0728249,30.100274 13.4424917,30.100274 C14.8121584,30.100274 15.912187,31.2090429 15.912187,32.583056 L15.912187,32.583056 Z" id="Fill-5" fill="#279EEE"></path>
                                <path d="M4.84747468,31.620052 L9.14498317,27.3164039 C9.30247099,27.345079 9.45280027,27.4119874 9.6198328,27.4119874 C10.9894996,27.4119874 12.0990729,26.300829 12.0990729,24.9268158 C12.0990729,24.7595447 12.034646,24.6209486 12.0060119,24.4608462 L16.3035204,20.1476397 L4.84747468,20.1476397 L4.84747468,31.620052 Z" id="Fill-6" fill="#279EEE"></path>
                                <path d="M12.0990729,40.2273483 C12.0990729,38.8557247 10.9894996,37.7445663 9.6198328,37.7445663 C9.45280027,37.7445663 9.3120157,37.8090851 9.15452789,37.8377602 L4.84747468,33.5341121 L4.84747468,45.0065244 L16.3035204,45.0065244 L12.0060119,40.7028763 C12.034646,40.5451635 12.0990729,40.3946194 12.0990729,40.2273483 L12.0990729,40.2273483 Z" id="Fill-7" fill="#279EEE"></path>
                                <path d="M42.0766404,37.7445663 C40.7069736,37.7445663 39.5974004,38.8557247 39.5974004,40.2273483 C39.5974004,40.3946194 39.6618272,40.5356051 39.6904614,40.693318 L35.3929529,45.0065244 L46.8489986,45.0065244 L46.8489986,33.5341121 L42.5514901,37.8377602 C42.3940022,37.8090851 42.243673,37.7445663 42.0766404,37.7445663 L42.0766404,37.7445663 Z" id="Fill-8" fill="#279EEE"></path>
                                <path d="M37.6834031,14.9678645 C37.6834031,16.3299297 36.5738299,17.4410882 35.2041631,17.4410882 C33.8344963,17.4410882 32.7344677,16.3299297 32.7344677,14.9678645 C32.7344677,13.596241 33.8344963,12.4850825 35.2041631,12.4850825 C36.5738299,12.4850825 37.6834031,13.596241 37.6834031,14.9678645 L37.6834031,14.9678645 Z" id="Fill-9" fill="#1C82C6"></path>
                                <path d="M4.33330118,21.9531456 C4.33330118,20.3760175 5.61945169,19.0880295 7.19432988,19.0880295 L8.75966334,19.0880295 L8.83602107,18.8466811 L30.9344254,6.72908002 L32.621454,7.22372475 C32.6691776,7.3742688 32.688267,7.53198161 32.7717833,7.68252566 C33.4232101,8.88687805 34.9336615,9.32417267 36.1362957,8.66225677 C36.2770803,8.58817954 36.379686,8.46631055 36.498995,8.35399991 L38.1884097,8.84864464 L42.0373166,15.8955399 L41.5433775,17.5849786 C41.3930482,17.6327704 41.2355604,17.6518871 41.0852311,17.7259643 C40.5268652,18.0342212 40.1546213,18.5384243 39.9589546,19.0880295 L47.2749796,19.0880295 L42.3355889,10.0625554 L36.8354462,-4.12114787e-13 L26.7872462,5.51755887 L-9.59232693e-14,20.199188 L4.33330118,28.1326204 L4.33330118,21.9531456 Z" id="Fill-10" fill="#1C82C6"></path>
                                <path d="M20.9458821,14.9130175 C19.277943,15.8186714 18.0848534,17.2022429 17.4119509,18.7220209 L31.218383,18.7220209 C31.1062326,18.1437406 30.9368139,17.5750186 30.6480862,17.0325822 C28.9157202,13.8687675 24.5704881,12.9248803 20.9458821,14.9130175 L20.9458821,14.9130175 Z" id="Fill-11" fill="#1C82C6"></path>
                            </g>
                        </g>
                        <g id="Rectangle-193-+-Rectangle-193-Copy-3-+-Group-Copy-Copy" transform="translate(45.926422, 46.424067) rotate(-56.000000) translate(-45.926422, -46.424067) translate(12.843715, 13.477321)">
                            <path d="M19.2569492,45.805344 L46.2734237,17.9439413 L61.2339148,32.3317455 L34.2174404,60.1931482 L19.2569492,45.805344 L19.2569492,45.805344 Z" id="Rectangle-193" fill="#FFFFFF"></path>
                            <path d="M16.0853769,47.6853231 L27.8731654,9.28765967 L47.7619424,15.3432793 L35.9741539,53.7409427 L16.0853769,47.6853231 L16.0853769,47.6853231 Z" id="Rectangle-193-Copy-3" fill="#FFFFFF"></path>
                            <g id="Group-Copy" transform="translate(32.750209, 32.615614) rotate(-45.000000) translate(-32.750209, -32.615614) translate(9.069956, 10.073104)">
                                <path d="M7.90417006,23.2110916 L43.7923032,23.2110916 L43.7923032,41.9454621 L7.90417006,41.9454621 L7.90417006,23.2110916 Z M4.84747468,45.0065244 L46.8489986,45.0065244 L46.8489986,20.1476397 L4.84747468,20.1476397 L4.84747468,45.0065244 Z" id="Fill-1" fill="#279EEE"></path>
                                <path d="M35.3929529,20.1476397 L39.6904614,24.4608462 C39.6618272,24.6209486 39.5974004,24.7595447 39.5974004,24.9268158 C39.5974004,26.300829 40.7069736,27.4119874 42.0766404,27.4119874 C42.243673,27.4119874 42.3844575,27.345079 42.5419453,27.3164039 L46.8489986,31.620052 L46.8489986,20.1476397 L35.3929529,20.1476397 Z" id="Fill-2" fill="#279EEE"></path>
                                <path d="M40.7332216,32.583056 C40.7332216,33.9451212 39.6236483,35.0562797 38.2539816,35.0562797 C36.8843148,35.0562797 35.7747415,33.9451212 35.7747415,32.583056 C35.7747415,31.2090429 36.8843148,30.100274 38.2539816,30.100274 C39.6236483,30.100274 40.7332216,31.2090429 40.7332216,32.583056 L40.7332216,32.583056 Z" id="Fill-3" fill="#279EEE"></path>
                                <path d="M33.3432251,32.583056 C33.3432251,36.1841653 29.9858711,39.1066315 25.8482366,39.1066315 C21.7106021,39.1066315 18.3532482,36.1841653 18.3532482,32.583056 C18.3532482,28.9699989 21.7106021,26.0475326 25.8482366,26.0475326 C29.9858711,26.0475326 33.3432251,28.9699989 33.3432251,32.583056 L33.3432251,32.583056 Z" id="Fill-4" fill="#279EEE"></path>
                                <path d="M15.912187,32.583056 C15.912187,33.9451212 14.8121584,35.0562797 13.4424917,35.0562797 C12.0728249,35.0562797 10.9632516,33.9451212 10.9632516,32.583056 C10.9632516,31.2090429 12.0728249,30.100274 13.4424917,30.100274 C14.8121584,30.100274 15.912187,31.2090429 15.912187,32.583056 L15.912187,32.583056 Z" id="Fill-5" fill="#279EEE"></path>
                                <path d="M4.84747468,31.620052 L9.14498317,27.3164039 C9.30247099,27.345079 9.45280027,27.4119874 9.6198328,27.4119874 C10.9894996,27.4119874 12.0990729,26.300829 12.0990729,24.9268158 C12.0990729,24.7595447 12.034646,24.6209486 12.0060119,24.4608462 L16.3035204,20.1476397 L4.84747468,20.1476397 L4.84747468,31.620052 Z" id="Fill-6" fill="#279EEE"></path>
                                <path d="M12.0990729,40.2273483 C12.0990729,38.8557247 10.9894996,37.7445663 9.6198328,37.7445663 C9.45280027,37.7445663 9.3120157,37.8090851 9.15452789,37.8377602 L4.84747468,33.5341121 L4.84747468,45.0065244 L16.3035204,45.0065244 L12.0060119,40.7028763 C12.034646,40.5451635 12.0990729,40.3946194 12.0990729,40.2273483 L12.0990729,40.2273483 Z" id="Fill-7" fill="#279EEE"></path>
                                <path d="M42.0766404,37.7445663 C40.7069736,37.7445663 39.5974004,38.8557247 39.5974004,40.2273483 C39.5974004,40.3946194 39.6618272,40.5356051 39.6904614,40.693318 L35.3929529,45.0065244 L46.8489986,45.0065244 L46.8489986,33.5341121 L42.5514901,37.8377602 C42.3940022,37.8090851 42.243673,37.7445663 42.0766404,37.7445663 L42.0766404,37.7445663 Z" id="Fill-8" fill="#279EEE"></path>
                                <path d="M37.6834031,14.9678645 C37.6834031,16.3299297 36.5738299,17.4410882 35.2041631,17.4410882 C33.8344963,17.4410882 32.7344677,16.3299297 32.7344677,14.9678645 C32.7344677,13.596241 33.8344963,12.4850825 35.2041631,12.4850825 C36.5738299,12.4850825 37.6834031,13.596241 37.6834031,14.9678645 L37.6834031,14.9678645 Z" id="Fill-9" fill="#1C82C6"></path>
                                <path d="M4.33330118,21.9531456 C4.33330118,20.3760175 5.61945169,19.0880295 7.19432988,19.0880295 L8.75966334,19.0880295 L8.83602107,18.8466811 L30.9344254,6.72908002 L32.621454,7.22372475 C32.6691776,7.3742688 32.688267,7.53198161 32.7717833,7.68252566 C33.4232101,8.88687805 34.9336615,9.32417267 36.1362957,8.66225677 C36.2770803,8.58817954 36.379686,8.46631055 36.498995,8.35399991 L38.1884097,8.84864464 L42.0373166,15.8955399 L41.5433775,17.5849786 C41.3930482,17.6327704 41.2355604,17.6518871 41.0852311,17.7259643 C40.5268652,18.0342212 40.1546213,18.5384243 39.9589546,19.0880295 L47.2749796,19.0880295 L42.3355889,10.0625554 L36.8354462,-1.58095759e-13 L26.7872462,5.51755887 L3.90798505e-14,20.199188 L4.33330118,28.1326204 L4.33330118,21.9531456 Z" id="Fill-10" fill="#1C82C6"></path>
                                <path d="M20.9458821,14.9130175 C19.277943,15.8186714 18.0848534,17.2022429 17.4119509,18.7220209 L31.218383,18.7220209 C31.1062326,18.1437406 30.9368139,17.5750186 30.6480862,17.0325822 C28.9157202,13.8687675 24.5704881,12.9248803 20.9458821,14.9130175 L20.9458821,14.9130175 Z" id="Fill-11" fill="#1C82C6"></path>
                            </g>
                        </g>
                        <g id="pail1-copy" transform="translate(23.157895, 41.869822)" fill="#204581">
                            <path d="M71.7538999,0.400322683 C72.8773167,1.61400684 73.475809,2.9110306 73.4568741,4.2613112 L65.0518496,64.2416814 C65.0518496,69.5551492 52.5637254,73.883949 37.1692001,73.883949 C21.7736929,73.883949 9.28532331,69.5349786 9.28532331,64.2416814 L0.743336406,4.2613112 C0.743336406,3.21357124 1.1257737,2.19347497 1.84549389,1.2170889 L4.56158306,4.46300102 C4.17989511,4.71926067 3.82345029,4.98015478 3.49338443,5.24524116 C4.33700412,5.97359531 5.41748533,6.6817789 6.6150473,7.29181547 L15.01909,66.6619032 C16.0995712,67.1346815 17.3172602,67.6266465 18.6326393,67.9803693 L10.3459229,8.96474238 C17.0813805,11.4831111 26.5659044,13.057891 37.149073,13.057891 C52.2883279,13.057891 65.1507669,9.8101842 70.5305913,5.24524116 C70.2576356,5.01842037 69.9664227,4.79516403 69.6576088,4.57567449 L71.7538999,0.400322683 Z" id="Path"></path>
                        </g>
                    </g>
                    <g id="Group-Copy-4" transform="translate(59.812500, 41.869822)" fill="#4D73AE">
                        <path d="M1.21429565e-07,73.4820046 C0.171160413,73.4830842 0.34269647,73.4836264 0.514594955,73.4836264 C15.9091203,73.4836264 28.3972445,69.1548265 28.3972445,63.8413588 L36.802269,3.86098852 C36.8212038,2.51070792 36.2227116,1.21368416 35.0992947,-2.20309881e-15 L33.0030036,4.17535181 C33.3118176,4.39484134 33.6030304,4.61809769 33.8759862,4.84491847 C28.4961618,9.40986151 15.6337228,12.6575683 0.494467863,12.6575683 C0.329375805,12.6575683 0.164551096,12.6571851 -2.35922393e-15,12.6564211 L1.21429565e-07,73.4820046 Z" id="Path"></path>
                    </g>
                </g>
                <g id="Group-Copy-5" transform="translate(107.902913, 26.284314)" sketch:type="MSShapeGroup">
                    <path d="M60.8496407,24.9564063 C60.7614988,24.9082806 60.6726198,24.8609334 60.5830439,24.8143646 C58.4182575,15.5095903 50.2194752,8.58578023 40.4274989,8.57577266 L38.5937736,8.57577266 C28.7398551,8.57577266 20.5285351,15.50526 18.4257535,24.8334218 C18.3475501,24.8741143 18.2701281,24.915091 18.1934696,24.9564063 L15.119915,24.9564063 C17.4348578,14.0429356 26.9781972,5.89878694 38.4520641,5.89878694 L40.5674587,5.89878694 C51.9771405,5.91044783 61.5117504,14.0591448 63.8922266,24.9564063 L60.8496407,24.9564063 Z" id="Path" fill="#92A1BD"></path>
                    <g id="Rectangle-193-+-Rectangle-193-Copy-3-+-Group-Copy" transform="translate(44.884118, 29.025348) rotate(-15.000000) translate(-44.884118, -29.025348) translate(23.284239, 6.972960)">
                        <path d="M12.5729665,30.8250856 L30.2121691,12.4067217 L39.9799549,21.9180811 L22.3407523,40.3364451 L12.5729665,30.8250856 L12.5729665,30.8250856 Z" id="Rectangle-193" fill="#FFFFFF"></path>
                        <path d="M10.5022298,32.0678852 L18.1985408,6.68430541 L31.1840311,10.6874996 L23.4877201,36.0710794 L10.5022298,32.0678852 L10.5022298,32.0678852 Z" id="Rectangle-193-Copy-3" fill="#FFFFFF"></path>
                        <g id="Group-Copy" transform="translate(21.573707, 22.014549) rotate(-45.000000) translate(-21.573707, -22.014549) translate(5.913795, 7.040705)">
                            <path d="M5.16067547,15.3441784 L28.5922321,15.3441784 L28.5922321,27.7289265 L5.16067547,27.7289265 L5.16067547,15.3441784 Z M3.16494249,29.7525059 L30.5879651,29.7525059 L30.5879651,13.3190193 L3.16494249,13.3190193 L3.16494249,29.7525059 Z" id="Fill-1" fill="#279EEE"></path>
                            <path d="M23.1082508,13.3190193 L25.9141174,16.1703548 C25.895422,16.2761938 25.8533573,16.3678157 25.8533573,16.4783938 C25.8533573,17.386714 26.5778037,18.1212686 27.4720666,18.1212686 C27.5811231,18.1212686 27.6730421,18.0770373 27.7758667,18.0580811 L30.5879651,20.9030978 L30.5879651,13.3190193 L23.1082508,13.3190193 Z" id="Fill-2" fill="#279EEE"></path>
                            <path d="M26.5949412,21.5397118 C26.5949412,22.4401335 25.8704948,23.1746881 24.9762319,23.1746881 C24.0819691,23.1746881 23.3575227,22.4401335 23.3575227,21.5397118 C23.3575227,20.6313916 24.0819691,19.8984167 24.9762319,19.8984167 C25.8704948,19.8984167 26.5949412,20.6313916 26.5949412,21.5397118 L26.5949412,21.5397118 Z" id="Fill-3" fill="#279EEE"></path>
                            <path d="M21.7699724,21.5397118 C21.7699724,23.9203005 19.5779378,25.852258 16.8764538,25.852258 C14.1749698,25.852258 11.9829352,23.9203005 11.9829352,21.5397118 C11.9829352,19.1512247 14.1749698,17.2192671 16.8764538,17.2192671 C19.5779378,17.2192671 21.7699724,19.1512247 21.7699724,21.5397118 L21.7699724,21.5397118 Z" id="Fill-4" fill="#279EEE"></path>
                            <path d="M10.3891531,21.5397118 C10.3891531,22.4401335 9.67093854,23.1746881 8.77667567,23.1746881 C7.8824128,23.1746881 7.15796641,22.4401335 7.15796641,21.5397118 C7.15796641,20.6313916 7.8824128,19.8984167 8.77667567,19.8984167 C9.67093854,19.8984167 10.3891531,20.6313916 10.3891531,21.5397118 L10.3891531,21.5397118 Z" id="Fill-5" fill="#279EEE"></path>
                            <path d="M3.16494249,20.9030978 L5.97080908,18.0580811 C6.07363373,18.0770373 6.17178453,18.1212686 6.28084098,18.1212686 C7.17510385,18.1212686 7.89955025,17.386714 7.89955025,16.4783938 C7.89955025,16.3678157 7.85748562,16.2761938 7.83879023,16.1703548 L10.6446568,13.3190193 L3.16494249,13.3190193 L3.16494249,20.9030978 Z" id="Fill-6" fill="#279EEE"></path>
                            <path d="M7.89955025,26.5931313 C7.89955025,25.6863908 7.17510385,24.9518363 6.28084098,24.9518363 C6.17178453,24.9518363 6.07986553,24.9944878 5.97704088,25.0134441 L3.16494249,22.1684273 L3.16494249,29.7525059 L10.6446568,29.7525059 L7.83879023,26.9074891 C7.85748562,26.8032297 7.89955025,26.7037094 7.89955025,26.5931313 L7.89955025,26.5931313 Z" id="Fill-7" fill="#279EEE"></path>
                            <path d="M27.4720666,24.9518363 C26.5778037,24.9518363 25.8533573,25.6863908 25.8533573,26.5931313 C25.8533573,26.7037094 25.895422,26.796911 25.9141174,26.9011703 L23.1082508,29.7525059 L30.5879651,29.7525059 L30.5879651,22.1684273 L27.7820985,25.0134441 C27.6792739,24.9944878 27.5811231,24.9518363 27.4720666,24.9518363 L27.4720666,24.9518363 Z" id="Fill-8" fill="#279EEE"></path>
                            <path d="M24.6036982,9.89482043 C24.6036982,10.7952422 23.8792518,11.5297967 22.9849889,11.5297967 C22.090726,11.5297967 21.3725114,10.7952422 21.3725114,9.89482043 C21.3725114,8.98807994 22.090726,8.25352536 22.9849889,8.25352536 C23.8792518,8.25352536 24.6036982,8.98807994 24.6036982,9.89482043 L24.6036982,9.89482043 Z" id="Fill-9" fill="#1C82C6"></path>
                            <path d="M2.82923583,14.5125868 C2.82923583,13.4699933 3.66897047,12.6185418 4.69721697,12.6185418 L5.71923168,12.6185418 L5.76908605,12.4589934 L20.197254,4.44839932 L21.2987241,4.77539458 C21.3298831,4.87491488 21.3423467,4.97917424 21.3968749,5.07869454 C21.8221951,5.87485691 22.8083769,6.16393968 23.5935834,5.72636631 C23.6855024,5.67739601 23.7524942,5.59683196 23.8303916,5.52258666 L24.9334197,5.84958192 L27.4463918,10.5080796 L27.1238964,11.6249185 C27.0257455,11.6565123 26.9229209,11.6691498 26.8247701,11.7181201 C26.46021,11.9218997 26.2171699,12.2552138 26.0894181,12.6185418 L30.8660904,12.6185418 L27.6411355,6.65206304 L24.0500625,-2.73558953e-13 L17.4895382,3.64749788 L-6.39488462e-14,13.3530964 L2.82923583,18.5976581 L2.82923583,14.5125868 Z" id="Fill-10" fill="#1C82C6"></path>
                            <path d="M13.67568,9.85856266 C12.5866735,10.4572641 11.8076988,11.3719031 11.3683571,12.3765842 L20.3826515,12.3765842 C20.3094279,11.9942998 20.1988135,11.6183343 20.0103016,11.2597453 C18.8792305,9.16823933 16.0422049,8.54426286 13.67568,9.85856266 L13.67568,9.85856266 Z" id="Fill-11" fill="#1C82C6"></path>
                        </g>
                    </g>
                    <g id="Rectangle-193-+-Rectangle-193-Copy-3-+-Group-Copy-Copy" transform="translate(29.985610, 30.689602) rotate(-56.000000) translate(-29.985610, -30.689602) translate(8.385731, 8.909466)">
                        <path d="M12.5729665,30.2805822 L30.2121691,11.8622183 L39.9799549,21.3735777 L22.3407523,39.7919417 L12.5729665,30.2805822 L12.5729665,30.2805822 Z" id="Rectangle-193" fill="#FFFFFF"></path>
                        <path d="M10.5022298,31.5233818 L18.1985408,6.139802 L31.1840311,10.1429962 L23.4877201,35.526576 L10.5022298,31.5233818 L10.5022298,31.5233818 Z" id="Rectangle-193-Copy-3" fill="#FFFFFF"></path>
                        <g id="Group-Copy" transform="translate(21.382789, 21.561235) rotate(-45.000000) translate(-21.382789, -21.561235) translate(5.921823, 6.659036)">
                            <path d="M5.16067547,15.3441784 L28.5922321,15.3441784 L28.5922321,27.7289265 L5.16067547,27.7289265 L5.16067547,15.3441784 Z M3.16494249,29.7525059 L30.5879651,29.7525059 L30.5879651,13.3190193 L3.16494249,13.3190193 L3.16494249,29.7525059 Z" id="Fill-1" fill="#279EEE"></path>
                            <path d="M23.1082508,13.3190193 L25.9141174,16.1703548 C25.895422,16.2761938 25.8533573,16.3678157 25.8533573,16.4783938 C25.8533573,17.386714 26.5778037,18.1212686 27.4720666,18.1212686 C27.5811231,18.1212686 27.6730421,18.0770373 27.7758667,18.0580811 L30.5879651,20.9030978 L30.5879651,13.3190193 L23.1082508,13.3190193 Z" id="Fill-2" fill="#279EEE"></path>
                            <path d="M26.5949412,21.5397118 C26.5949412,22.4401335 25.8704948,23.1746881 24.9762319,23.1746881 C24.0819691,23.1746881 23.3575227,22.4401335 23.3575227,21.5397118 C23.3575227,20.6313916 24.0819691,19.8984167 24.9762319,19.8984167 C25.8704948,19.8984167 26.5949412,20.6313916 26.5949412,21.5397118 L26.5949412,21.5397118 Z" id="Fill-3" fill="#279EEE"></path>
                            <path d="M21.7699724,21.5397118 C21.7699724,23.9203005 19.5779378,25.852258 16.8764538,25.852258 C14.1749698,25.852258 11.9829352,23.9203005 11.9829352,21.5397118 C11.9829352,19.1512247 14.1749698,17.2192671 16.8764538,17.2192671 C19.5779378,17.2192671 21.7699724,19.1512247 21.7699724,21.5397118 L21.7699724,21.5397118 Z" id="Fill-4" fill="#279EEE"></path>
                            <path d="M10.3891531,21.5397118 C10.3891531,22.4401335 9.67093854,23.1746881 8.77667567,23.1746881 C7.8824128,23.1746881 7.15796641,22.4401335 7.15796641,21.5397118 C7.15796641,20.6313916 7.8824128,19.8984167 8.77667567,19.8984167 C9.67093854,19.8984167 10.3891531,20.6313916 10.3891531,21.5397118 L10.3891531,21.5397118 Z" id="Fill-5" fill="#279EEE"></path>
                            <path d="M3.16494249,20.9030978 L5.97080908,18.0580811 C6.07363373,18.0770373 6.17178453,18.1212686 6.28084098,18.1212686 C7.17510385,18.1212686 7.89955025,17.386714 7.89955025,16.4783938 C7.89955025,16.3678157 7.85748562,16.2761938 7.83879023,16.1703548 L10.6446568,13.3190193 L3.16494249,13.3190193 L3.16494249,20.9030978 Z" id="Fill-6" fill="#279EEE"></path>
                            <path d="M7.89955025,26.5931313 C7.89955025,25.6863908 7.17510385,24.9518363 6.28084098,24.9518363 C6.17178453,24.9518363 6.07986553,24.9944878 5.97704088,25.0134441 L3.16494249,22.1684273 L3.16494249,29.7525059 L10.6446568,29.7525059 L7.83879023,26.9074891 C7.85748562,26.8032297 7.89955025,26.7037094 7.89955025,26.5931313 L7.89955025,26.5931313 Z" id="Fill-7" fill="#279EEE"></path>
                            <path d="M27.4720666,24.9518363 C26.5778037,24.9518363 25.8533573,25.6863908 25.8533573,26.5931313 C25.8533573,26.7037094 25.895422,26.796911 25.9141174,26.9011703 L23.1082508,29.7525059 L30.5879651,29.7525059 L30.5879651,22.1684273 L27.7820985,25.0134441 C27.6792739,24.9944878 27.5811231,24.9518363 27.4720666,24.9518363 L27.4720666,24.9518363 Z" id="Fill-8" fill="#279EEE"></path>
                            <path d="M24.6036982,9.89482043 C24.6036982,10.7952422 23.8792518,11.5297967 22.9849889,11.5297967 C22.090726,11.5297967 21.3725114,10.7952422 21.3725114,9.89482043 C21.3725114,8.98807994 22.090726,8.25352536 22.9849889,8.25352536 C23.8792518,8.25352536 24.6036982,8.98807994 24.6036982,9.89482043 L24.6036982,9.89482043 Z" id="Fill-9" fill="#1C82C6"></path>
                            <path d="M2.82923583,14.5125868 C2.82923583,13.4699933 3.66897047,12.6185418 4.69721697,12.6185418 L5.71923168,12.6185418 L5.76908605,12.4589934 L20.197254,4.44839932 L21.2987241,4.77539458 C21.3298831,4.87491488 21.3423467,4.97917424 21.3968749,5.07869454 C21.8221951,5.87485691 22.8083769,6.16393968 23.5935834,5.72636631 C23.6855024,5.67739601 23.7524942,5.59683196 23.8303916,5.52258666 L24.9334197,5.84958192 L27.4463918,10.5080796 L27.1238964,11.6249185 C27.0257455,11.6565123 26.9229209,11.6691498 26.8247701,11.7181201 C26.46021,11.9218997 26.2171699,12.2552138 26.0894181,12.6185418 L30.8660904,12.6185418 L27.6411355,6.65206304 L24.0500625,-1.04805054e-13 L17.4895382,3.64749788 L2.66453526e-14,13.3530964 L2.82923583,18.5976581 L2.82923583,14.5125868 Z" id="Fill-10" fill="#1C82C6"></path>
                            <path d="M13.67568,9.85856266 C12.5866735,10.4572641 11.8076988,11.3719031 11.3683571,12.3765842 L20.3826515,12.3765842 C20.3094279,11.9942998 20.1988135,11.6183343 20.0103016,11.2597453 C18.8792305,9.16823933 16.0422049,8.54426286 13.67568,9.85856266 L13.67568,9.85856266 Z" id="Fill-11" fill="#1C82C6"></path>
                        </g>
                    </g>
                    <g id="pail1-copy" transform="translate(15.119915, 27.678923)" fill="#92A1BD">
                        <path d="M46.8485102,0.264641696 C47.5819951,1.06697303 47.9727539,1.92439777 47.9603913,2.81702904 L42.4727052,42.4683094 C42.4727052,45.9808885 34.3191413,48.8425324 24.2679722,48.8425324 C14.2161621,48.8425324 6.06243792,45.9675544 6.06243792,42.4683094 L0.485328368,2.81702904 C0.485328368,2.12439859 0.735023751,1.45004258 1.20493296,0.804582118 L2.9782823,2.95036032 C2.72907618,3.11976613 2.49635142,3.29223565 2.28084963,3.46747655 C2.8316535,3.94897032 3.53710553,4.41712992 4.31900024,4.82040738 L9.80604526,44.0682476 C10.5114973,44.3807877 11.3065331,44.7060114 12.1653512,44.9398473 L6.75490912,5.92633076 C11.1525259,7.59115117 17.345023,8.63219241 24.2548311,8.63219241 C34.1393327,8.63219241 42.5372889,6.48522778 46.0498054,3.46747655 C45.8715911,3.31753192 45.6814566,3.16994364 45.4798303,3.02484548 L46.8485114,0.26463929 Z" id="Path"></path>
                    </g>
                </g>
                <g id="Group-3" transform="translate(102.219632, 43.338333) scale(1, -1) rotate(-322.000000) translate(-102.219632, -43.338333) translate(70.219632, 14.338333)">
                    <g id="right-arrow40-copy-3" transform="translate(-0.000000, -0.000000)">
                        <mask id="mask-3" sketch:name="Mask" fill="white">
                            <use xlink:href="#path-2"></use>
                        </mask>
                        <use id="Mask" fill-opacity="0" fill="#FFFFFF" sketch:type="MSShapeGroup" xlink:href="#path-2"></use>
                        <g id="right-arrow40-copy" mask="url(#mask-3)">
                            <g transform="translate(34.601222, 34.615414) scale(-1, 1) rotate(-125.000000) translate(-34.601222, -34.615414) translate(11.992689, 15.938505)">
                                <mask id="mask-5" sketch:name="Clip 2" fill="white">
                                    <use xlink:href="#path-4"></use>
                                </mask>
                                <g id="Clip-2"></g>
                                <path d="M31.6756323,8.04672178 L31.6756323,0.327934915 L44.7885818,12.7703415 L31.6756323,25.212748 L31.6756323,17.3999791 C16.2243144,18.509376 3.74225062,26.138267 0.706247528,36.0431581 C0.243310886,34.533316 4.26325641e-14,32.9703536 4.26325641e-14,31.3665294 C4.26325641e-14,19.275534 13.8622609,9.31547949 31.6756323,8.04672178 L31.6756323,8.04672178 Z" id="Fill-1" stroke="none" fill="#F58C23" fill-rule="evenodd" sketch:type="MSShapeGroup" mask="url(#mask-5)"></path>
                            </g>
                        </g>
                    </g>
                    <g id="right-arrow40-copy-4" transform="translate(6.685090, 7.937217)">
                        <mask id="mask-7" sketch:name="Mask" fill="white">
                            <use xlink:href="#path-6"></use>
                        </mask>
                        <use id="Mask" fill-opacity="0" fill="#FFFFFF" sketch:type="MSShapeGroup" xlink:href="#path-6"></use>
                        <g id="right-arrow40-copy-2" mask="url(#mask-7)" fill="#EB7626" sketch:type="MSShapeGroup">
                            <g transform="translate(28.042078, 27.384169) scale(-1, 1) rotate(-125.000000) translate(-28.042078, -27.384169) translate(5.387053, 8.984255)" id="Fill-1">
                                <path d="M31.8346734,0.69222537 L44.9476229,13.1346319 L31.8346734,25.5770385 L31.8346734,17.7642696 C16.3833555,18.8736664 3.90129171,26.5025574 0.865288612,36.4074486 C0.40235197,34.8976064 0.159041084,33.334644 0.159041084,31.7308199 C0.159041084,19.6398245 14.021302,9.67976995 31.8346734,8.41101223 L31.8346734,0.69222537 Z"></path>
                            </g>
                        </g>
                    </g>
                </g>
            </g>
        </g>
    </g>
</svg>