<?xml version="1.0" encoding="UTF-8" standalone="no"?>
<svg width="153px" height="152px" viewBox="0 0 153 152" version="1.1" xmlns="http://www.w3.org/2000/svg" xmlns:xlink="http://www.w3.org/1999/xlink" xmlns:sketch="http://www.bohemiancoding.com/sketch/ns">
    <!-- Generator: Sketch 3.5.2 (25235) - http://www.bohemiancoding.com/sketch -->
    <title>Group 5</title>
    <desc>Created with Sketch.</desc>
    <defs>
        <linearGradient x1="91.4062108%" y1="-32.8762273%" x2="16.3354027%" y2="123.196752%" id="linearGradient-1">
            <stop stop-color="#FFFFFF" offset="0%"></stop>
            <stop stop-color="#D5DCE9" offset="100%"></stop>
        </linearGradient>
    </defs>
    <g id="Page-1" stroke="none" stroke-width="1" fill="none" fill-rule="evenodd" sketch:type="MSPage">
        <g id="16-Income-in-Retirement-Copy" sketch:type="MSArtboardGroup" transform="translate(-163.000000, -386.000000)">
            <g id="Group-5" sketch:type="MSLayerGroup" transform="translate(163.000000, 386.000000)">
                <path d="M76.4420629,151.458825 C106.888243,151.458825 133.177116,133.825216 145.470312,108.304647 C150.22331,98.4374626 152.884126,87.391274 152.884126,75.7294124 C152.884126,33.9052128 118.659848,0 76.4420629,0 C34.2242773,0 0,33.9052128 0,75.7294124 C0,117.553612 34.2242773,151.458825 76.4420629,151.458825 Z" id="Oval-298" fill="url(#linearGradient-1)" sketch:type="MSShapeGroup"></path>
                <g id="time-planning" transform="translate(29.869675, 31.000000)" fill="#204581" sketch:type="MSShapeGroup">
                    <path d="M14.2458496,45.0772818 L22.9865414,45.0772818 L22.9865414,53.8586151 L14.2458496,53.8586151 L14.2458496,45.0772818 Z" id="Fill-1"></path>
                    <path d="M14.2458496,58.9757568 L22.9865414,58.9757568 L22.9865414,67.7570902 L14.2458496,67.7570902 L14.2458496,58.9757568 Z" id="Fill-2"></path>
                    <path d="M28.9086767,31.1788068 L37.6493684,31.1788068 L37.6493684,39.9601401 L28.9086767,39.9601401 L28.9086767,31.1788068 Z" id="Fill-3"></path>
                    <path d="M28.9086767,45.0772818 L37.6493684,45.0772818 L37.6493684,53.8586151 L28.9086767,53.8586151 L28.9086767,45.0772818 Z" id="Fill-4"></path>
                    <path d="M28.9086767,58.9757568 L37.6493684,58.9757568 L37.6493684,67.7570902 L28.9086767,67.7570902 L28.9086767,58.9757568 Z" id="Fill-5"></path>
                    <path d="M81.4003308,32.4408583 L81.4003308,6.79681965 C81.4003308,3.3977649 78.6345564,0.624433172 75.2565113,0.624433172 L6.14381955,0.624433172 C2.76049624,0.624433172 0,3.3977649 0,6.79681965 L0,76.2308647 C0,79.6246167 2.76049624,82.4032512 6.14381955,82.4032512 L51.2565564,82.4032512 C56.2655639,86.4386345 62.6152331,88.8619855 69.5455038,88.8619855 C85.7495639,88.8619855 98.9028271,75.6687746 98.9028271,59.3893704 C98.9028271,47.3521562 91.6875338,37.0171208 81.4003308,32.4408583 L81.4003308,32.4408583 Z M26.6601654,6.6907649 L54.7190526,6.6907649 L54.7190526,13.982029 L26.6601654,13.982029 L26.6601654,6.6907649 Z M7.56893233,20.9445233 L73.8313985,20.9445233 L73.8313985,30.2667359 C72.4326767,30.0599291 71.0075639,29.9114525 69.5455038,29.9114525 C63.0902707,29.9114525 57.131188,32.0272448 52.2858045,35.5906844 L52.2858045,31.1788068 L43.5451128,31.1788068 L43.5451128,39.9601401 L47.5248722,39.9601401 C42.9909023,45.1356119 40.2251278,51.9337214 40.2251278,59.3893704 C40.2251278,64.7133188 41.6502406,69.6819839 44.0834887,73.9931095 L7.56893233,73.9931095 L7.56893233,20.9445233 Z M66.8641805,36.66843 C66.8641805,35.1571498 68.0623308,33.9587311 69.5455038,33.9587311 C71.0497895,33.9587311 72.2479398,35.1571498 72.2479398,36.66843 C72.2479398,38.1638019 71.0497895,39.3622206 69.5455038,39.3622206 C68.0781654,39.3622206 66.8641805,38.1638019 66.8641805,36.66843 L66.8641805,36.66843 Z M48.3482707,59.3893704 C48.3482707,60.8794396 47.1342857,62.104372 45.6458346,62.104372 C44.1626617,62.104372 42.9486767,60.8794396 42.9486767,59.3893704 C42.9486767,57.8993011 44.1626617,56.6955797 45.6458346,56.6955797 C47.1342857,56.6955797 48.3271579,57.8993011 48.3482707,59.3893704 L48.3482707,59.3893704 Z M69.5455038,86.1098647 C68.0623308,86.1098647 66.8641805,84.9061433 66.8641805,83.4160741 C66.8641805,81.9047939 68.0623308,80.7010725 69.5455038,80.7010725 C71.0497895,80.7010725 72.2479398,81.9047939 72.2479398,83.4160741 C72.2479398,84.9061433 71.0497895,86.1098647 69.5455038,86.1098647 L69.5455038,86.1098647 Z M85.834015,47.1877713 L74.5756241,58.4985105 C74.6600752,58.8484911 74.7814737,59.1613527 74.7814737,59.5325443 C74.7814737,62.4755636 72.4115639,64.8352818 69.5032782,64.8352818 C66.6794436,64.8352818 64.4309323,62.6187375 64.2673083,59.8029839 L52.3069173,50.4807713 C51.2776692,49.6535443 51.029594,48.2218052 51.7896541,47.2726151 C52.5338797,46.2969114 53.9801053,46.1749485 55.0304662,46.9809646 L65.9774436,55.5554911 C66.906406,54.6646312 68.1626165,54.0866329 69.5455038,54.0866329 C70.4744662,54.0866329 71.2978647,54.3941916 72.036812,54.8131079 L82.7198797,44.0803671 C83.7069023,43.0675443 85.2164662,42.9827005 86.0609774,43.8311385 C86.9054887,44.7007874 86.8210376,46.1961594 85.834015,47.1877713 L85.834015,47.1877713 Z M93.4398947,62.104372 C91.9567218,62.104372 90.7585714,60.8794396 90.7585714,59.3893704 C90.7585714,57.8780902 91.9567218,56.6743688 93.4398947,56.6743688 C94.9441805,56.6743688 96.1423308,57.8780902 96.1423308,59.3893704 C96.1423308,60.8794396 94.9441805,62.104372 93.4398947,62.104372 L93.4398947,62.104372 Z" id="Fill-6"></path>
                </g>
            </g>
        </g>
    </g>
</svg>