<?xml version="1.0" encoding="UTF-8" standalone="no"?>
<svg width="798px" height="278px" viewBox="0 0 798 278" version="1.1" xmlns="http://www.w3.org/2000/svg" xmlns:xlink="http://www.w3.org/1999/xlink" xmlns:sketch="http://www.bohemiancoding.com/sketch/ns">
    <!-- Generator: Sketch 3.5.2 (25235) - http://www.bohemiancoding.com/sketch -->
    <title>Group 5</title>
    <desc>Created with Sketch.</desc>
    <defs>
        <linearGradient x1="91.4062108%" y1="-32.8762273%" x2="16.3354027%" y2="123.196752%" id="linearGradient-1">
            <stop stop-color="#FFFFFF" offset="0%"></stop>
            <stop stop-color="#D5DCE9" offset="100%"></stop>
        </linearGradient>
        <path id="path-2" d="M0.00699619772,27.3056953 L92,27.3056953 L92,94.9209993 L0.00699619772,94.9209993 L0.00699619772,27.3056953 Z"></path>
        <path id="path-4" d="M0,37.5888702 L8.79418754,42.7146252 C8.79418754,42.7146252 34.2973314,55.5290128 52.7651253,20.5030201 C71.2329191,-14.5229726 29.9002377,5.98004753 29.9002377,5.98004753 L0,37.5888702 Z"></path>
        <path id="path-6" d="M0.129191621,0.327934915 L45.2170674,0.327934915 L45.2170674,37.1035208 L0.129191621,37.1035208 L0.129191621,0.327934915 Z"></path>
        <path id="path-8" d="M2.63825626,49.5489652 L0,34.1717002 C0,34.1717002 27.2619814,46.9860877 45.7297752,11.9600951 C64.1975691,-23.0658976 52.7651253,33.3174077 52.7651253,33.3174077 L2.63825626,49.5489652 Z"></path>
    </defs>
    <g id="Page-1" stroke="none" stroke-width="1" fill="none" fill-rule="evenodd" sketch:type="MSPage">
        <g id="16-Income-in-Retirement-Copy-2" sketch:type="MSArtboardGroup" transform="translate(-122.000000, -342.000000)">
            <g id="Group-5" sketch:type="MSLayerGroup" transform="translate(70.000000, 329.000000)">
                <ellipse id="Oval-298" fill="url(#linearGradient-1)" sketch:type="MSShapeGroup" cx="128.442063" cy="90.7294124" rx="76.4420629" ry="75.7294124"></ellipse>
                <ellipse id="Oval-298-Copy" fill="url(#linearGradient-1)" sketch:type="MSShapeGroup" cx="751.442063" cy="90.7294124" rx="76.4420629" ry="75.7294124"></ellipse>
                <ellipse id="Oval-298-Copy-2" fill="url(#linearGradient-1)" sketch:type="MSShapeGroup" cx="539.479935" cy="102" rx="51.4799347" ry="51"></ellipse>
                <text id="Top-up-your-reduced-" sketch:type="MSTextLayer" font-family="Open Sans" font-size="18" font-weight="260" sketch:alignment="middle" fill="#000000">
                    <tspan x="672.080078" y="214">Top up your reduced </tspan>
                    <tspan x="671.662598" y="238">income from work by</tspan>
                    <tspan x="682.503906" y="262">drawing from your</tspan>
                    <tspan x="662.412109" y="286">pre-retirement pension</tspan>
                </text>
                <text id="Transfer-some-of-you" sketch:type="MSTextLayer" font-family="Open Sans" font-size="18" font-weight="260" sketch:alignment="middle" fill="#000000">
                    <tspan x="374.375" y="214">Transfer some of</tspan>
                    <tspan x="362.320801" y="238">your super to a new</tspan>
                    <tspan x="348.412109" y="262">pre-retirement pension</tspan>
                </text>
                <ellipse id="Oval-77-Copy-6" fill="#FCA63A" sketch:type="MSShapeGroup" cx="408.000119" cy="52.0130056" rx="3.00011854" ry="3.01300565"></ellipse>
                <ellipse id="Oval-77-Copy-7" fill="#FCA63A" sketch:type="MSShapeGroup" cx="423.000119" cy="43.0130056" rx="3.00011854" ry="3.01300565"></ellipse>
                <ellipse id="Oval-77-Copy-7" fill="#FCA63A" sketch:type="MSShapeGroup" cx="578.000119" cy="66.0130056" rx="3.00011854" ry="3.01300565"></ellipse>
                <ellipse id="Oval-77-Copy-8" fill="#FCA63A" sketch:type="MSShapeGroup" cx="595.000119" cy="61.0130056" rx="3.00011854" ry="3.01300565"></ellipse>
                <ellipse id="Oval-77-Copy-9" fill="#FCA63A" sketch:type="MSShapeGroup" cx="612.000119" cy="60.0130056" rx="3.00011854" ry="3.01300565"></ellipse>
                <ellipse id="Oval-77-Copy-10" fill="#FCA63A" sketch:type="MSShapeGroup" cx="629.000119" cy="63.0130056" rx="3.00011854" ry="3.01300565"></ellipse>
                <ellipse id="Oval-77-Copy-11" fill="#FCA63A" sketch:type="MSShapeGroup" cx="645.000119" cy="69.0130056" rx="3.00011854" ry="3.01300565"></ellipse>
                <ellipse id="Oval-77-Copy-12" fill="#FCA63A" sketch:type="MSShapeGroup" cx="658.000119" cy="80.0130056" rx="3.00011854" ry="3.01300565"></ellipse>
                <ellipse id="Oval-77-Copy-8" fill="#FCA63A" sketch:type="MSShapeGroup" cx="440.000119" cy="38.0130056" rx="3.00011854" ry="3.01300565"></ellipse>
                <ellipse id="Oval-77-Copy-9" fill="#FCA63A" sketch:type="MSShapeGroup" cx="457.000119" cy="37.0130056" rx="3.00011854" ry="3.01300565"></ellipse>
                <ellipse id="Oval-77-Copy-10" fill="#FCA63A" sketch:type="MSShapeGroup" cx="474.000119" cy="40.0130056" rx="3.00011854" ry="3.01300565"></ellipse>
                <ellipse id="Oval-77-Copy-11" fill="#FCA63A" sketch:type="MSShapeGroup" cx="490.000119" cy="46.0130056" rx="3.00011854" ry="3.01300565"></ellipse>
                <ellipse id="Oval-77-Copy-12" fill="#FCA63A" sketch:type="MSShapeGroup" cx="503.000119" cy="57.0130056" rx="3.00011854" ry="3.01300565"></ellipse>
                <g id="Group-4" transform="translate(270.000000, 0.000000)" sketch:type="MSShapeGroup">
                    <g id="Group">
                        <path d="M135.561087,55 C135.364724,54.8939385 135.166719,54.7895929 134.967161,54.6869625 C130.144441,34.1807013 111.879159,18.9217112 90.064553,18.8996561 L85.9793719,18.8996561 C64.0267707,18.8996561 45.7335572,34.1711579 41.0489715,54.7289615 C40.8747496,54.8186414 40.7022685,54.9089476 40.5314885,55 L33.6842105,55 C38.84145,30.9484246 60.1021418,13 85.6636709,13 L90.3763559,13 C115.794893,13.0256988 137.036138,30.9841471 142.339372,55 L135.561087,55 Z" id="Path" fill="#4D73AE"></path>
                        <g id="Rectangle-193-+-Rectangle-193-Copy-3-+-Group-Copy" transform="translate(99.993028, 63.967309) rotate(-15.000000) translate(-99.993028, -63.967309) translate(51.872727, 15.367309)">
                            <path d="M28.010108,67.9336477 L67.3067981,27.3424661 L89.0675124,48.3040085 L49.7708223,88.8951901 L28.010108,67.9336477 L28.010108,67.9336477 Z" id="Rectangle-193" fill="#FFFFFF"></path>
                            <path d="M23.3969119,70.6725827 L40.5427861,14.7311594 L69.4719162,23.5535707 L52.326042,79.4949941 L23.3969119,70.6725827 L23.3969119,70.6725827 Z" id="Rectangle-193-Copy-3" fill="#FFFFFF"></path>
                            <g id="Group-Copy" transform="translate(48.061995, 48.516609) rotate(-45.000000) translate(-48.061995, -48.516609) translate(13.174777, 15.516609)">
                                <path d="M11.4969746,33.8161593 L63.6978955,33.8161593 L63.6978955,61.1101991 L11.4969746,61.1101991 L11.4969746,33.8161593 Z M7.05087226,65.5698502 L68.1439979,65.5698502 L68.1439979,29.3530268 L7.05087226,29.3530268 L7.05087226,65.5698502 Z" id="Fill-1" fill="#279EEE"></path>
                                <path d="M51.4806587,29.3530268 L57.7315802,35.6369224 C57.6899305,35.8701751 57.5962187,36.0720953 57.5962187,36.315792 C57.5962187,38.317587 59.2101435,39.93643 61.2023861,39.93643 C61.4453425,39.93643 61.65012,39.8389513 61.8791932,39.7971747 L68.1439979,46.0671448 L68.1439979,29.3530268 L51.4806587,29.3530268 Z" id="Fill-2" fill="#279EEE"></path>
                                <path d="M59.2483223,47.470142 C59.2483223,49.4545301 57.6343976,51.073373 55.642155,51.073373 C53.6499124,51.073373 52.0359877,49.4545301 52.0359877,47.470142 C52.0359877,45.468347 53.6499124,43.8529854 55.642155,43.8529854 C57.6343976,43.8529854 59.2483223,45.468347 59.2483223,47.470142 L59.2483223,47.470142 Z" id="Fill-3" fill="#279EEE"></path>
                                <path d="M48.4992364,47.470142 C48.4992364,52.7165856 43.6158125,56.9743165 37.5974351,56.9743165 C31.5790576,56.9743165 26.6956337,52.7165856 26.6956337,47.470142 C26.6956337,42.2062914 31.5790576,37.9485605 37.5974351,37.9485605 C43.6158125,37.9485605 48.4992364,42.2062914 48.4992364,47.470142 L48.4992364,47.470142 Z" id="Fill-4" fill="#279EEE"></path>
                                <path d="M23.1449993,47.470142 C23.1449993,49.4545301 21.5449577,51.073373 19.5527151,51.073373 C17.5604726,51.073373 15.9465478,49.4545301 15.9465478,47.470142 C15.9465478,45.468347 17.5604726,43.8529854 19.5527151,43.8529854 C21.5449577,43.8529854 23.1449993,45.468347 23.1449993,47.470142 L23.1449993,47.470142 Z" id="Fill-5" fill="#279EEE"></path>
                                <path d="M7.05087226,46.0671448 L13.3017937,39.7971747 C13.5308669,39.8389513 13.7495277,39.93643 13.9924841,39.93643 C15.9847267,39.93643 17.5986514,38.317587 17.5986514,36.315792 C17.5986514,36.0720953 17.5049397,35.8701751 17.46329,35.6369224 L23.7142114,29.3530268 L7.05087226,29.3530268 L7.05087226,46.0671448 Z" id="Fill-6" fill="#279EEE"></path>
                                <path d="M17.5986514,58.607085 C17.5986514,56.6087714 15.9847267,54.9899284 13.9924841,54.9899284 C13.7495277,54.9899284 13.5447501,55.0839258 13.3156769,55.1257024 L7.05087226,48.8557323 L7.05087226,65.5698502 L23.7142114,65.5698502 L17.46329,59.2998801 C17.5049397,59.0701089 17.5986514,58.8507818 17.5986514,58.607085 L17.5986514,58.607085 Z" id="Fill-7" fill="#279EEE"></path>
                                <path d="M61.2023861,54.9899284 C59.2101435,54.9899284 57.5962187,56.6087714 57.5962187,58.607085 C57.5962187,58.8507818 57.6899305,59.0561834 57.7315802,59.2859546 L51.4806587,65.5698502 L68.1439979,65.5698502 L68.1439979,48.8557323 L61.8930765,55.1257024 C61.6640033,55.0839258 61.4453425,54.9899284 61.2023861,54.9899284 L61.2023861,54.9899284 Z" id="Fill-8" fill="#279EEE"></path>
                                <path d="M54.8122227,21.8066302 C54.8122227,23.7910183 53.198298,25.4098613 51.2060554,25.4098613 C49.2138128,25.4098613 47.6137713,23.7910183 47.6137713,21.8066302 C47.6137713,19.8083166 49.2138128,18.1894737 51.2060554,18.1894737 C53.198298,18.1894737 54.8122227,19.8083166 54.8122227,21.8066302 L54.8122227,21.8066302 Z" id="Fill-9" fill="#1C82C6"></path>
                                <path d="M6.30298353,31.9834622 C6.30298353,29.6857497 8.17374792,27.8092844 10.4644798,27.8092844 L12.7413285,27.8092844 L12.8523943,27.4576648 L44.9955278,9.80357348 L47.4493876,10.5242197 C47.5188037,10.7435468 47.5465702,10.973318 47.6680484,11.1926451 C48.6155784,12.947262 50.8125985,13.584355 52.5618847,12.620012 C52.7666623,12.5120892 52.9159069,12.3345386 53.0894472,12.1709137 L55.5467778,12.8915599 L61.1451877,23.1581572 L60.4267309,25.6194948 C60.2080701,25.6891224 59.9789969,25.7169735 59.7603362,25.8248963 C58.9481676,26.2739947 58.4067219,27.0085664 58.1221158,27.8092844 L68.7636067,27.8092844 L61.5790385,14.6601022 L53.5788308,-6.00408612e-13 L38.9632672,8.03851249 L-1.42108547e-13,29.4281273 L6.30298353,40.9863177 L6.30298353,31.9834622 Z" id="Fill-10" fill="#1C82C6"></path>
                                <path d="M30.4667376,21.7267238 C28.0406443,23.0461678 26.3052413,25.0618884 25.3264741,27.2760477 L45.4085571,27.2760477 C45.2454292,26.4335531 44.999002,25.6049841 44.5790345,24.8147102 C42.0592294,20.2053596 35.7388918,18.8302135 30.4667376,21.7267238 L30.4667376,21.7267238 Z" id="Fill-11" fill="#1C82C6"></path>
                            </g>
                        </g>
                        <g id="Rectangle-193-+-Rectangle-193-Copy-3-+-Group-Copy-Copy" transform="translate(66.802068, 67.635063) rotate(-56.000000) translate(-66.802068, -67.635063) translate(18.681767, 19.635063)">
                            <path d="M28.010108,66.7336477 L67.3067981,26.1424661 L89.0675124,47.1040085 L49.7708223,87.6951901 L28.010108,66.7336477 L28.010108,66.7336477 Z" id="Rectangle-193" fill="#FFFFFF"></path>
                            <path d="M23.3969119,69.4725827 L40.5427861,13.5311594 L69.4719162,22.3535707 L52.326042,78.2949941 L23.3969119,69.4725827 L23.3969119,69.4725827 Z" id="Rectangle-193-Copy-3" fill="#FFFFFF"></path>
                            <g id="Group-Copy" transform="translate(47.636667, 47.517576) rotate(-45.000000) translate(-47.636667, -47.517576) translate(13.192663, 14.675470)">
                                <path d="M11.4969746,33.8161593 L63.6978955,33.8161593 L63.6978955,61.1101991 L11.4969746,61.1101991 L11.4969746,33.8161593 Z M7.05087226,65.5698502 L68.1439979,65.5698502 L68.1439979,29.3530268 L7.05087226,29.3530268 L7.05087226,65.5698502 Z" id="Fill-1" fill="#279EEE"></path>
                                <path d="M51.4806587,29.3530268 L57.7315802,35.6369224 C57.6899305,35.8701751 57.5962187,36.0720953 57.5962187,36.315792 C57.5962187,38.317587 59.2101435,39.93643 61.2023861,39.93643 C61.4453425,39.93643 61.65012,39.8389513 61.8791932,39.7971747 L68.1439979,46.0671448 L68.1439979,29.3530268 L51.4806587,29.3530268 Z" id="Fill-2" fill="#279EEE"></path>
                                <path d="M59.2483223,47.470142 C59.2483223,49.4545301 57.6343976,51.073373 55.642155,51.073373 C53.6499124,51.073373 52.0359877,49.4545301 52.0359877,47.470142 C52.0359877,45.468347 53.6499124,43.8529854 55.642155,43.8529854 C57.6343976,43.8529854 59.2483223,45.468347 59.2483223,47.470142 L59.2483223,47.470142 Z" id="Fill-3" fill="#279EEE"></path>
                                <path d="M48.4992364,47.470142 C48.4992364,52.7165856 43.6158125,56.9743165 37.5974351,56.9743165 C31.5790576,56.9743165 26.6956337,52.7165856 26.6956337,47.470142 C26.6956337,42.2062914 31.5790576,37.9485605 37.5974351,37.9485605 C43.6158125,37.9485605 48.4992364,42.2062914 48.4992364,47.470142 L48.4992364,47.470142 Z" id="Fill-4" fill="#279EEE"></path>
                                <path d="M23.1449993,47.470142 C23.1449993,49.4545301 21.5449577,51.073373 19.5527151,51.073373 C17.5604726,51.073373 15.9465478,49.4545301 15.9465478,47.470142 C15.9465478,45.468347 17.5604726,43.8529854 19.5527151,43.8529854 C21.5449577,43.8529854 23.1449993,45.468347 23.1449993,47.470142 L23.1449993,47.470142 Z" id="Fill-5" fill="#279EEE"></path>
                                <path d="M7.05087226,46.0671448 L13.3017937,39.7971747 C13.5308669,39.8389513 13.7495277,39.93643 13.9924841,39.93643 C15.9847267,39.93643 17.5986514,38.317587 17.5986514,36.315792 C17.5986514,36.0720953 17.5049397,35.8701751 17.46329,35.6369224 L23.7142114,29.3530268 L7.05087226,29.3530268 L7.05087226,46.0671448 Z" id="Fill-6" fill="#279EEE"></path>
                                <path d="M17.5986514,58.607085 C17.5986514,56.6087714 15.9847267,54.9899284 13.9924841,54.9899284 C13.7495277,54.9899284 13.5447501,55.0839258 13.3156769,55.1257024 L7.05087226,48.8557323 L7.05087226,65.5698502 L23.7142114,65.5698502 L17.46329,59.2998801 C17.5049397,59.0701089 17.5986514,58.8507818 17.5986514,58.607085 L17.5986514,58.607085 Z" id="Fill-7" fill="#279EEE"></path>
                                <path d="M61.2023861,54.9899284 C59.2101435,54.9899284 57.5962187,56.6087714 57.5962187,58.607085 C57.5962187,58.8507818 57.6899305,59.0561834 57.7315802,59.2859546 L51.4806587,65.5698502 L68.1439979,65.5698502 L68.1439979,48.8557323 L61.8930765,55.1257024 C61.6640033,55.0839258 61.4453425,54.9899284 61.2023861,54.9899284 L61.2023861,54.9899284 Z" id="Fill-8" fill="#279EEE"></path>
                                <path d="M54.8122227,21.8066302 C54.8122227,23.7910183 53.198298,25.4098613 51.2060554,25.4098613 C49.2138128,25.4098613 47.6137713,23.7910183 47.6137713,21.8066302 C47.6137713,19.8083166 49.2138128,18.1894737 51.2060554,18.1894737 C53.198298,18.1894737 54.8122227,19.8083166 54.8122227,21.8066302 L54.8122227,21.8066302 Z" id="Fill-9" fill="#1C82C6"></path>
                                <path d="M6.30298353,31.9834622 C6.30298353,29.6857497 8.17374792,27.8092844 10.4644798,27.8092844 L12.7413285,27.8092844 L12.8523943,27.4576648 L44.9955278,9.80357348 L47.4493876,10.5242197 C47.5188037,10.7435468 47.5465702,10.973318 47.6680484,11.1926451 C48.6155784,12.947262 50.8125985,13.584355 52.5618847,12.620012 C52.7666623,12.5120892 52.9159069,12.3345386 53.0894472,12.1709137 L55.5467778,12.8915599 L61.1451877,23.1581572 L60.4267309,25.6194948 C60.2080701,25.6891224 59.9789969,25.7169735 59.7603362,25.8248963 C58.9481676,26.2739947 58.4067219,27.0085664 58.1221158,27.8092844 L68.7636067,27.8092844 L61.5790385,14.6601022 L53.5788308,-2.30926389e-13 L38.9632672,8.03851249 L5.68434189e-14,29.4281273 L6.30298353,40.9863177 L6.30298353,31.9834622 Z" id="Fill-10" fill="#1C82C6"></path>
                                <path d="M30.4667376,21.7267238 C28.0406443,23.0461678 26.3052413,25.0618884 25.3264741,27.2760477 L45.4085571,27.2760477 C45.2454292,26.4335531 44.999002,25.6049841 44.5790345,24.8147102 C42.0592294,20.2053596 35.7388918,18.8302135 30.4667376,21.7267238 L30.4667376,21.7267238 Z" id="Fill-11" fill="#1C82C6"></path>
                            </g>
                        </g>
                        <g id="pail1-copy" transform="translate(33.684211, 61.000000)" fill="#204581">
                            <path d="M104.369309,0.583228736 C106.00337,2.351441 106.873904,4.24107045 106.846362,6.20828959 L94.6208722,93.5934842 C94.6208722,101.334657 76.4563279,107.641271 54.0642911,107.641271 C31.6708261,107.641271 13.5059248,101.305271 13.5059248,93.5934842 L1.08121659,6.20828959 C1.08121659,4.68184085 1.63748902,3.19566612 2.68435474,1.77317263 L6.6350299,6.50213079 C6.07984744,6.8754746 5.56138224,7.25557033 5.08128644,7.64177376 C6.30836963,8.70291041 7.87997866,9.73466063 9.62188698,10.6234208 L21.8459491,97.1194968 C23.4175581,97.808286 25.1887422,98.5250281 27.1020209,99.0403656 L15.0486151,13.0607023 C24.8456444,16.729705 38.6413155,19.0239964 54.0350153,19.0239964 C76.0557497,19.0239964 94.7647519,14.2924235 102.589951,7.64177376 C102.192924,7.31131933 101.769342,6.98605793 101.320158,6.66628439 L104.369309,0.583228736 Z" id="Path"></path>
                        </g>
                    </g>
                    <g id="Group" transform="translate(87.000000, 61.000000)" fill="#4D73AE">
                        <path d="M1.76624823e-07,107.055679 C0.248960601,107.057252 0.498467593,107.058042 0.748501753,107.058042 C23.1405386,107.058042 41.3050829,100.751428 41.3050829,93.0102554 L53.5305731,5.62506086 C53.5581146,3.65784171 52.6875805,1.76821226 51.0535196,-1.94705363e-14 L48.0043689,6.08305565 C48.4535529,6.4028292 48.8771352,6.7280906 49.2741617,7.05854502 C41.4489626,13.7091948 22.7399604,18.4407676 0.719225983,18.4407676 C0.47909208,18.4407676 0.239347048,18.4402093 -9.99200722e-16,18.4390962 L1.76624823e-07,107.055679 Z" id="Path"></path>
                    </g>
                </g>
                <text id="Reduce-your--working" sketch:type="MSTextLayer" font-family="Open Sans" font-size="18" font-weight="260" sketch:alignment="middle" line-spacing="24" fill="#000000">
                    <tspan x="78.2783203" y="214">Reduce your </tspan>
                    <tspan x="71.3876953" y="238">working hours</tspan>
                </text>
                <g id="time-planning" transform="translate(77.000000, 47.000000)" fill="#204581" sketch:type="MSShapeGroup">
                    <path d="M14.2458496,45.0772818 L22.9865414,45.0772818 L22.9865414,53.8586151 L14.2458496,53.8586151 L14.2458496,45.0772818 Z" id="Fill-1"></path>
                    <path d="M14.2458496,58.9757568 L22.9865414,58.9757568 L22.9865414,67.7570902 L14.2458496,67.7570902 L14.2458496,58.9757568 Z" id="Fill-2"></path>
                    <path d="M28.9086767,31.1788068 L37.6493684,31.1788068 L37.6493684,39.9601401 L28.9086767,39.9601401 L28.9086767,31.1788068 Z" id="Fill-3"></path>
                    <path d="M28.9086767,45.0772818 L37.6493684,45.0772818 L37.6493684,53.8586151 L28.9086767,53.8586151 L28.9086767,45.0772818 Z" id="Fill-4"></path>
                    <path d="M28.9086767,58.9757568 L37.6493684,58.9757568 L37.6493684,67.7570902 L28.9086767,67.7570902 L28.9086767,58.9757568 Z" id="Fill-5"></path>
                    <path d="M81.4003308,32.4408583 L81.4003308,6.79681965 C81.4003308,3.3977649 78.6345564,0.624433172 75.2565113,0.624433172 L6.14381955,0.624433172 C2.76049624,0.624433172 0,3.3977649 0,6.79681965 L0,76.2308647 C0,79.6246167 2.76049624,82.4032512 6.14381955,82.4032512 L51.2565564,82.4032512 C56.2655639,86.4386345 62.6152331,88.8619855 69.5455038,88.8619855 C85.7495639,88.8619855 98.9028271,75.6687746 98.9028271,59.3893704 C98.9028271,47.3521562 91.6875338,37.0171208 81.4003308,32.4408583 L81.4003308,32.4408583 Z M26.6601654,6.6907649 L54.7190526,6.6907649 L54.7190526,13.982029 L26.6601654,13.982029 L26.6601654,6.6907649 Z M7.56893233,20.9445233 L73.8313985,20.9445233 L73.8313985,30.2667359 C72.4326767,30.0599291 71.0075639,29.9114525 69.5455038,29.9114525 C63.0902707,29.9114525 57.131188,32.0272448 52.2858045,35.5906844 L52.2858045,31.1788068 L43.5451128,31.1788068 L43.5451128,39.9601401 L47.5248722,39.9601401 C42.9909023,45.1356119 40.2251278,51.9337214 40.2251278,59.3893704 C40.2251278,64.7133188 41.6502406,69.6819839 44.0834887,73.9931095 L7.56893233,73.9931095 L7.56893233,20.9445233 Z M66.8641805,36.66843 C66.8641805,35.1571498 68.0623308,33.9587311 69.5455038,33.9587311 C71.0497895,33.9587311 72.2479398,35.1571498 72.2479398,36.66843 C72.2479398,38.1638019 71.0497895,39.3622206 69.5455038,39.3622206 C68.0781654,39.3622206 66.8641805,38.1638019 66.8641805,36.66843 L66.8641805,36.66843 Z M48.3482707,59.3893704 C48.3482707,60.8794396 47.1342857,62.104372 45.6458346,62.104372 C44.1626617,62.104372 42.9486767,60.8794396 42.9486767,59.3893704 C42.9486767,57.8993011 44.1626617,56.6955797 45.6458346,56.6955797 C47.1342857,56.6955797 48.3271579,57.8993011 48.3482707,59.3893704 L48.3482707,59.3893704 Z M69.5455038,86.1098647 C68.0623308,86.1098647 66.8641805,84.9061433 66.8641805,83.4160741 C66.8641805,81.9047939 68.0623308,80.7010725 69.5455038,80.7010725 C71.0497895,80.7010725 72.2479398,81.9047939 72.2479398,83.4160741 C72.2479398,84.9061433 71.0497895,86.1098647 69.5455038,86.1098647 L69.5455038,86.1098647 Z M85.834015,47.1877713 L74.5756241,58.4985105 C74.6600752,58.8484911 74.7814737,59.1613527 74.7814737,59.5325443 C74.7814737,62.4755636 72.4115639,64.8352818 69.5032782,64.8352818 C66.6794436,64.8352818 64.4309323,62.6187375 64.2673083,59.8029839 L52.3069173,50.4807713 C51.2776692,49.6535443 51.029594,48.2218052 51.7896541,47.2726151 C52.5338797,46.2969114 53.9801053,46.1749485 55.0304662,46.9809646 L65.9774436,55.5554911 C66.906406,54.6646312 68.1626165,54.0866329 69.5455038,54.0866329 C70.4744662,54.0866329 71.2978647,54.3941916 72.036812,54.8131079 L82.7198797,44.0803671 C83.7069023,43.0675443 85.2164662,42.9827005 86.0609774,43.8311385 C86.9054887,44.7007874 86.8210376,46.1961594 85.834015,47.1877713 L85.834015,47.1877713 Z M93.4398947,62.104372 C91.9567218,62.104372 90.7585714,60.8794396 90.7585714,59.3893704 C90.7585714,57.8780902 91.9567218,56.6743688 93.4398947,56.6743688 C94.9441805,56.6743688 96.1423308,57.8780902 96.1423308,59.3893704 C96.1423308,60.8794396 94.9441805,62.104372 93.4398947,62.104372 L93.4398947,62.104372 Z" id="Fill-6"></path>
                </g>
                <g id="wallet-filled-commercial-tool" transform="translate(706.000000, 40.000000)">
                    <g id="Group-3">
                        <g id="Group" transform="translate(6.192308, 0.000000)" sketch:type="MSShapeGroup">
                            <path d="M13.2569444,28.251634 L60.1772156,28.251634 L65.2649573,26.2336601 L53.0277778,4.03594771 L17.3360043,23.2066993 L13.2569444,28.251634 Z" id="Path-604" fill="#FFFFFF"></path>
                            <g id="Group-Copy-2">
                                <g id="money146-copy-2" transform="translate(-0.000000, 0.000000)" fill="#A6B7C2">
                                    <path d="M55.9004973,22.2754992 C55.9004973,24.2568644 54.2758891,25.8732412 52.2704588,25.8732412 C50.2650284,25.8732412 48.6543954,24.2568644 48.6543954,22.2754992 C48.6543954,20.2802297 50.2650284,18.6638529 52.2704588,18.6638529 C54.2758891,18.6638529 55.9004973,20.2802297 55.9004973,22.2754992 L55.9004973,22.2754992 Z" id="Fill-9"></path>
                                    <path d="M6.98756217,32.3352726 C6.98756217,30.0410603 8.87071017,28.1674535 11.1766057,28.1674535 L13.4685261,28.1674535 L13.5803271,27.8163695 L45.9362337,10.1891716 L48.4063369,10.90872 C48.4762125,11.127713 48.5041628,11.3571343 48.6264451,11.5761273 C49.5802473,13.3280712 51.7918108,13.9641937 53.5526764,13.0013198 C53.7588095,12.8935613 53.9090421,12.7162813 54.0837312,12.5529055 L56.5573282,13.2724539 L62.1927971,23.5234117 L61.4695844,25.9809997 C61.2494762,26.0505213 61.0188866,26.0783299 60.7987784,26.1860884 C59.9812336,26.6345026 59.4362038,27.3679553 59.1497137,28.1674535 L69.8616465,28.1674535 L62.6295197,15.0383022 L54.5763543,0.400532456 L39.8640422,8.42679945 L0.642855719,29.7838304 L6.98756217,41.3244135 L6.98756217,32.3352726 Z" id="Fill-10"></path>
                                    <path d="M31.75847,22.6265832 C29.3163171,23.9440172 27.5694265,25.9566671 26.5841803,28.1674535 L46.7991976,28.1674535 C46.6349899,27.3262424 46.3869314,26.4989355 45.9641839,25.7098655 C43.4276989,21.1075366 37.0655235,19.7344853 31.75847,22.6265832 L31.75847,22.6265832 Z" id="Fill-11"></path>
                                </g>
                                <path d="M55.9004973,22.2754992 C55.9004973,24.2568644 54.2758891,25.8732412 52.2704588,25.8732412 C50.2650284,25.8732412 48.6543954,24.2568644 48.6543954,22.2754992 C48.6543954,20.2802297 50.2650284,18.6638529 52.2704588,18.6638529 C54.2758891,18.6638529 55.9004973,20.2802297 55.9004973,22.2754992 L55.9004973,22.2754992 Z" id="Fill-9" fill="#279EEE"></path>
                                <path d="M6.98756217,32.3352726 C6.98756217,30.0410603 8.87071017,28.1674535 11.1766057,28.1674535 L13.4685261,28.1674535 L13.5803271,27.8163695 L45.9362337,10.1891716 L48.4063369,10.90872 C48.4762125,11.127713 48.5041628,11.3571343 48.6264451,11.5761273 C49.5802473,13.3280712 51.7918108,13.9641937 53.5526764,13.0013198 C53.7588095,12.8935613 53.9090421,12.7162813 54.0837312,12.5529055 L56.5573282,13.2724539 L62.1927971,23.5234117 L61.4695844,25.9809997 C61.2494762,26.0505213 61.0188866,26.0783299 60.7987784,26.1860884 C59.9812336,26.6345026 59.4362038,27.3679553 59.1497137,28.1674535 L69.8616465,28.1674535 L62.6295197,15.0383022 L54.5763543,0.400532456 L39.8640422,8.42679945 L0.642855719,29.7838304 L6.98756217,41.3244135 L6.98756217,32.3352726 Z" id="Fill-10" fill="#279EEE"></path>
                                <path d="M31.75847,22.6265832 C29.3163171,23.9440172 27.5694265,25.9566671 26.5841803,28.1674535 L46.7991976,28.1674535 C46.6349899,27.3262424 46.3869314,26.4989355 45.9641839,25.7098655 C43.4276989,21.1075366 37.0655235,19.7344853 31.75847,22.6265832 L31.75847,22.6265832 Z" id="Fill-11" fill="#279EEE"></path>
                            </g>
                        </g>
                        <mask id="mask-3" sketch:name="Clip 2" fill="white">
                            <use xlink:href="#path-2"></use>
                        </mask>
                        <g id="Clip-2"></g>
                        <path d="M5.59695817,94.8838225 L80.2044106,94.8838225 C83.2920659,94.8838225 85.8013688,92.3836827 85.8013688,89.3073026 L85.8013688,76.7228398 L59.019924,76.7228398 C57.0144639,76.7228398 55.0554119,76.3325996 53.2175108,75.552003 C51.4452573,74.8082346 49.8502408,73.730456 48.4883143,72.3735028 C47.1263878,71.0160849 46.0441926,69.4268929 45.2980482,67.6609949 C44.5238023,65.8303861 44.1224537,63.8784879 44.1224537,61.8803512 L44.1224537,60.3091667 C44.1224537,58.3110299 44.5147072,56.3591317 45.2980482,54.5284067 C46.0441926,52.7626249 47.1263878,51.1733167 48.4883143,49.8164797 C49.8502408,48.4590618 51.4452573,47.3812832 53.2175108,46.6373987 C55.0554119,45.8664448 57.0144639,45.4665618 59.019924,45.4665618 L85.8013688,45.4665618 L85.8013688,32.8822152 C85.8013688,29.8058351 83.2920659,27.3056953 80.2044106,27.3056953 L5.59695817,27.3056953 C2.50930292,27.3056953 0,29.8058351 0,32.8822152 L0,89.3073026 C0,92.3836827 2.50930292,94.8838225 5.59695817,94.8838225 L5.59695817,94.8838225 Z" id="Fill-1" fill="#204581" sketch:type="MSShapeGroup" mask="url(#mask-3)"></path>
                    </g>
                    <path d="M91.9767959,55.2254717 C91.9767959,52.9109836 90.1015817,51.0430818 87.7790773,51.0430818 L59.019924,51.0430818 C53.8798175,51.0430818 49.7194119,55.1882949 49.7194119,60.3091667 L49.7194119,61.8803512 C49.7194119,67.0012229 53.8798175,71.1463199 59.019924,71.1463199 L87.7790773,71.1463199 C90.1015817,71.1463199 91.9767959,69.2784181 91.9767959,66.9639299 L91.9767959,55.2254717 Z M60.5403143,66.0159216 C57.8074829,66.0159216 55.5965678,63.81308 55.5965678,61.090228 C55.5965678,58.3667951 57.8074829,56.1639535 60.5403143,56.1639535 C63.2737288,56.1639535 65.4846439,58.3667951 65.4846439,61.090228 C65.4846439,63.81308 63.2737288,66.0159216 60.5403143,66.0159216 L60.5403143,66.0159216 Z" id="Fill-4" fill="#204581" sketch:type="MSShapeGroup"></path>
                </g>
                <g id="Group" transform="translate(494.000000, 56.000000)" sketch:type="MSShapeGroup">
                    <path d="M68.8825709,27.9766896 C68.7827931,27.9227396 68.682181,27.8696624 68.5807799,27.8174577 C66.130214,17.3865976 56.8490877,9.62485165 45.7644454,9.61363294 L43.6886449,9.61363294 C32.5338833,9.61363294 23.2385641,17.3817432 20.8581884,27.8388212 C20.7696612,27.8844384 20.6820185,27.9303742 20.5952401,27.9766896 L17.115937,27.9766896 C19.7364819,15.7424449 30.539664,6.61267208 43.528228,6.61267208 L45.9228817,6.61267208 C58.8387873,6.6257442 69.6320876,15.7606157 72.326817,27.9766896 L68.8825709,27.9766896 Z" id="Path" fill="#92A1BD"></path>
                    <g id="Rectangle-193-+-Rectangle-193-Copy-3-+-Group-Copy" transform="translate(50.809395, 32.538065) rotate(-15.000000) translate(-50.809395, -32.538065) translate(26.358057, 7.816844)">
                        <path d="M14.2327588,34.5556104 L34.2005616,13.9082125 L45.2578198,24.5706591 L25.2900171,45.218057 L14.2327588,34.5556104 L14.2327588,34.5556104 Z" id="Rectangle-193" fill="#FFFFFF"></path>
                        <path d="M11.8886583,35.9488165 L20.6009808,7.49325586 L35.3007217,11.9809261 L26.5883993,40.4364867 L11.8886583,35.9488165 L11.8886583,35.9488165 Z" id="Rectangle-193-Copy-3" fill="#FFFFFF"></path>
                        <g id="Group-Copy" transform="translate(24.421712, 24.678802) rotate(-45.000000) translate(-24.421712, -24.678802) translate(6.694491, 7.892788)">
                            <path d="M5.84195059,17.2011671 L32.3667721,17.2011671 L32.3667721,31.0847467 L5.84195059,31.0847467 L5.84195059,17.2011671 Z M3.58275535,33.3532244 L34.6259674,33.3532244 L34.6259674,14.9309185 L3.58275535,14.9309185 L3.58275535,33.3532244 Z" id="Fill-1" fill="#279EEE"></path>
                            <path d="M26.1588352,14.9309185 L29.335112,18.1273294 C29.3139486,18.2459773 29.2663309,18.3486875 29.2663309,18.472648 C29.2663309,19.4908952 30.0864135,20.3143473 31.0987305,20.3143473 C31.2221838,20.3143473 31.3262373,20.2647631 31.4426361,20.2435127 L34.6259674,23.4328401 L34.6259674,14.9309185 L26.1588352,14.9309185 Z" id="Fill-2" fill="#279EEE"></path>
                            <path d="M30.1058133,24.1464986 C30.1058133,25.1558915 29.2857307,25.9793437 28.2734137,25.9793437 C27.2610967,25.9793437 26.4410141,25.1558915 26.4410141,24.1464986 C26.4410141,23.1282514 27.2610967,22.3065702 28.2734137,22.3065702 C29.2857307,22.3065702 30.1058133,23.1282514 30.1058133,24.1464986 L30.1058133,24.1464986 Z" id="Fill-3" fill="#279EEE"></path>
                            <path d="M24.6438869,24.1464986 C24.6438869,26.8151918 22.1624758,28.9809594 19.1043614,28.9809594 C16.046247,28.9809594 13.5648358,26.8151918 13.5648358,24.1464986 C13.5648358,21.4689511 16.046247,19.3031836 19.1043614,19.3031836 C22.1624758,19.3031836 24.6438869,21.4689511 24.6438869,24.1464986 L24.6438869,24.1464986 Z" id="Fill-4" fill="#279EEE"></path>
                            <path d="M11.7606541,24.1464986 C11.7606541,25.1558915 10.947626,25.9793437 9.93530902,25.9793437 C8.92299203,25.9793437 8.10290945,25.1558915 8.10290945,24.1464986 C8.10290945,23.1282514 8.92299203,22.3065702 9.93530902,22.3065702 C10.947626,22.3065702 11.7606541,23.1282514 11.7606541,24.1464986 L11.7606541,24.1464986 Z" id="Fill-5" fill="#279EEE"></path>
                            <path d="M3.58275535,23.4328401 L6.75903218,20.2435127 C6.875431,20.2647631 6.98653896,20.3143473 7.10999226,20.3143473 C8.12230925,20.3143473 8.94239183,19.4908952 8.94239183,18.472648 C8.94239183,18.3486875 8.89477413,18.2459773 8.87361071,18.1273294 L12.0498875,14.9309185 L3.58275535,14.9309185 L3.58275535,23.4328401 Z" id="Fill-6" fill="#279EEE"></path>
                            <path d="M8.94239183,29.811495 C8.94239183,28.7950186 8.12230925,27.9715665 7.10999226,27.9715665 C6.98653896,27.9715665 6.88248548,28.0193798 6.76608666,28.0406302 L3.58275535,24.8513028 L3.58275535,33.3532244 L12.0498875,33.3532244 L8.87361071,30.163897 C8.89477413,30.04702 8.94239183,29.9354555 8.94239183,29.811495 L8.94239183,29.811495 Z" id="Fill-7" fill="#279EEE"></path>
                            <path d="M31.0987305,27.9715665 C30.0864135,27.9715665 29.2663309,28.7950186 29.2663309,29.811495 C29.2663309,29.9354555 29.3139486,30.0399365 29.335112,30.1568136 L26.1588352,33.3532244 L34.6259674,33.3532244 L34.6259674,24.8513028 L31.4496906,28.0406302 C31.3332917,28.0193798 31.2221838,27.9715665 31.0987305,27.9715665 L31.0987305,27.9715665 Z" id="Fill-8" fill="#279EEE"></path>
                            <path d="M27.8517007,11.092315 C27.8517007,12.1017079 27.0316182,12.92516 26.0193012,12.92516 C25.0069842,12.92516 24.1939561,12.1017079 24.1939561,11.092315 C24.1939561,10.0758386 25.0069842,9.25238652 26.0193012,9.25238652 C27.0316182,9.25238652 27.8517007,10.0758386 27.8517007,11.092315 L27.8517007,11.092315 Z" id="Fill-9" fill="#1C82C6"></path>
                            <path d="M3.20273111,16.2689344 C3.20273111,15.1001637 4.15332146,14.1456676 5.31730964,14.1456676 L6.47424335,14.1456676 L6.53067914,13.9668102 L22.8635496,4.98675512 L24.1104279,5.35332412 C24.1457003,5.4648886 24.1598092,5.58176568 24.2215359,5.69333016 C24.7030037,6.58584599 25.8193742,6.90991424 26.7082379,6.4193847 C26.8122914,6.36448789 26.888127,6.27417379 26.9763079,6.19094315 L28.2249498,6.55751215 L31.0696663,11.7797923 L30.7045973,13.0317937 C30.5934893,13.067211 30.4770905,13.0813779 30.3659826,13.1362747 C29.9532958,13.3647162 29.6781714,13.7383687 29.5335546,14.1456676 L34.9408088,14.1456676 L31.2901186,7.45711144 L27.2249781,-3.05533376e-13 L19.7983808,4.0889267 L-7.10542736e-14,14.9691197 L3.20273111,20.8483906 L3.20273111,16.2689344 Z" id="Fill-10" fill="#1C82C6"></path>
                            <path d="M15.4810445,11.0516692 C14.2482752,11.722827 13.366466,12.7481576 12.8691256,13.8744276 L23.0734219,13.8744276 C22.9905319,13.4458784 22.865315,13.0244125 22.6519171,12.6224263 C21.3715301,10.2778013 18.1599809,9.57830976 15.4810445,11.0516692 L15.4810445,11.0516692 Z" id="Fill-11" fill="#1C82C6"></path>
                        </g>
                    </g>
                    <g id="Rectangle-193-+-Rectangle-193-Copy-3-+-Group-Copy-Copy" transform="translate(33.944093, 34.403730) rotate(-56.000000) translate(-33.944093, -34.403730) translate(9.492755, 9.987710)">
                        <path d="M14.2327588,33.9452099 L34.2005616,13.297812 L45.2578198,23.9602586 L25.2900171,44.6076565 L14.2327588,33.9452099 L14.2327588,33.9452099 Z" id="Rectangle-193" fill="#FFFFFF"></path>
                        <path d="M11.8886583,35.338416 L20.6009808,6.88285536 L35.3007217,11.3705256 L26.5883993,39.8260862 L11.8886583,35.338416 L11.8886583,35.338416 Z" id="Rectangle-193-Copy-3" fill="#FFFFFF"></path>
                        <g id="Group-Copy" transform="translate(24.205590, 24.170627) rotate(-45.000000) translate(-24.205590, -24.170627) translate(6.703579, 7.464929)">
                            <path d="M5.84195059,17.2011671 L32.3667721,17.2011671 L32.3667721,31.0847467 L5.84195059,31.0847467 L5.84195059,17.2011671 Z M3.58275535,33.3532244 L34.6259674,33.3532244 L34.6259674,14.9309185 L3.58275535,14.9309185 L3.58275535,33.3532244 Z" id="Fill-1" fill="#279EEE"></path>
                            <path d="M26.1588352,14.9309185 L29.335112,18.1273294 C29.3139486,18.2459773 29.2663309,18.3486875 29.2663309,18.472648 C29.2663309,19.4908952 30.0864135,20.3143473 31.0987305,20.3143473 C31.2221838,20.3143473 31.3262373,20.2647631 31.4426361,20.2435127 L34.6259674,23.4328401 L34.6259674,14.9309185 L26.1588352,14.9309185 Z" id="Fill-2" fill="#279EEE"></path>
                            <path d="M30.1058133,24.1464986 C30.1058133,25.1558915 29.2857307,25.9793437 28.2734137,25.9793437 C27.2610967,25.9793437 26.4410141,25.1558915 26.4410141,24.1464986 C26.4410141,23.1282514 27.2610967,22.3065702 28.2734137,22.3065702 C29.2857307,22.3065702 30.1058133,23.1282514 30.1058133,24.1464986 L30.1058133,24.1464986 Z" id="Fill-3" fill="#279EEE"></path>
                            <path d="M24.6438869,24.1464986 C24.6438869,26.8151918 22.1624758,28.9809594 19.1043614,28.9809594 C16.046247,28.9809594 13.5648358,26.8151918 13.5648358,24.1464986 C13.5648358,21.4689511 16.046247,19.3031836 19.1043614,19.3031836 C22.1624758,19.3031836 24.6438869,21.4689511 24.6438869,24.1464986 L24.6438869,24.1464986 Z" id="Fill-4" fill="#279EEE"></path>
                            <path d="M11.7606541,24.1464986 C11.7606541,25.1558915 10.947626,25.9793437 9.93530902,25.9793437 C8.92299203,25.9793437 8.10290945,25.1558915 8.10290945,24.1464986 C8.10290945,23.1282514 8.92299203,22.3065702 9.93530902,22.3065702 C10.947626,22.3065702 11.7606541,23.1282514 11.7606541,24.1464986 L11.7606541,24.1464986 Z" id="Fill-5" fill="#279EEE"></path>
                            <path d="M3.58275535,23.4328401 L6.75903218,20.2435127 C6.875431,20.2647631 6.98653896,20.3143473 7.10999226,20.3143473 C8.12230925,20.3143473 8.94239183,19.4908952 8.94239183,18.472648 C8.94239183,18.3486875 8.89477413,18.2459773 8.87361071,18.1273294 L12.0498875,14.9309185 L3.58275535,14.9309185 L3.58275535,23.4328401 Z" id="Fill-6" fill="#279EEE"></path>
                            <path d="M8.94239183,29.811495 C8.94239183,28.7950186 8.12230925,27.9715665 7.10999226,27.9715665 C6.98653896,27.9715665 6.88248548,28.0193798 6.76608666,28.0406302 L3.58275535,24.8513028 L3.58275535,33.3532244 L12.0498875,33.3532244 L8.87361071,30.163897 C8.89477413,30.04702 8.94239183,29.9354555 8.94239183,29.811495 L8.94239183,29.811495 Z" id="Fill-7" fill="#279EEE"></path>
                            <path d="M31.0987305,27.9715665 C30.0864135,27.9715665 29.2663309,28.7950186 29.2663309,29.811495 C29.2663309,29.9354555 29.3139486,30.0399365 29.335112,30.1568136 L26.1588352,33.3532244 L34.6259674,33.3532244 L34.6259674,24.8513028 L31.4496906,28.0406302 C31.3332917,28.0193798 31.2221838,27.9715665 31.0987305,27.9715665 L31.0987305,27.9715665 Z" id="Fill-8" fill="#279EEE"></path>
                            <path d="M27.8517007,11.092315 C27.8517007,12.1017079 27.0316182,12.92516 26.0193012,12.92516 C25.0069842,12.92516 24.1939561,12.1017079 24.1939561,11.092315 C24.1939561,10.0758386 25.0069842,9.25238652 26.0193012,9.25238652 C27.0316182,9.25238652 27.8517007,10.0758386 27.8517007,11.092315 L27.8517007,11.092315 Z" id="Fill-9" fill="#1C82C6"></path>
                            <path d="M3.20273111,16.2689344 C3.20273111,15.1001637 4.15332146,14.1456676 5.31730964,14.1456676 L6.47424335,14.1456676 L6.53067914,13.9668102 L22.8635496,4.98675512 L24.1104279,5.35332412 C24.1457003,5.4648886 24.1598092,5.58176568 24.2215359,5.69333016 C24.7030037,6.58584599 25.8193742,6.90991424 26.7082379,6.4193847 C26.8122914,6.36448789 26.888127,6.27417379 26.9763079,6.19094315 L28.2249498,6.55751215 L31.0696663,11.7797923 L30.7045973,13.0317937 C30.5934893,13.067211 30.4770905,13.0813779 30.3659826,13.1362747 C29.9532958,13.3647162 29.6781714,13.7383687 29.5335546,14.1456676 L34.9408088,14.1456676 L31.2901186,7.45711144 L27.2249781,-1.17239551e-13 L19.7983808,4.0889267 L2.84217094e-14,14.9691197 L3.20273111,20.8483906 L3.20273111,16.2689344 Z" id="Fill-10" fill="#1C82C6"></path>
                            <path d="M15.4810445,11.0516692 C14.2482752,11.722827 13.366466,12.7481576 12.8691256,13.8744276 L23.0734219,13.8744276 C22.9905319,13.4458784 22.865315,13.0244125 22.6519171,12.6224263 C21.3715301,10.2778013 18.1599809,9.57830976 15.4810445,11.0516692 L15.4810445,11.0516692 Z" id="Fill-11" fill="#1C82C6"></path>
                        </g>
                    </g>
                    <g id="pail1-copy" transform="translate(17.115937, 31.028692)" fill="#92A1BD">
                        <path d="M53.0331122,0.29666926 C53.8634265,1.19610063 54.3057705,2.15729293 54.2917758,3.15795256 L48.0796451,47.6079246 C48.0796451,51.5456044 38.8497065,54.7535711 27.4716547,54.7535711 C16.0928772,54.7535711 6.8627572,51.5306565 6.8627572,47.6079246 L0.549397915,3.15795256 C0.549397915,2.38149833 0.832056279,1.62553016 1.36399951,0.901954548 L3.37145363,3.3074199 C3.08934911,3.49732761 2.82590171,3.69066979 2.58195093,3.88711876 C3.20546795,4.42688405 4.00404867,4.95170143 4.88916346,5.40378448 L11.1005686,49.4014911 C11.8991493,49.7518555 12.7991399,50.1164386 13.7713331,50.3785739 L7.64664345,6.64354932 C12.6248019,8.50985023 19.6347877,9.67688074 27.4567788,9.67688074 C38.6461609,9.67688074 48.1527546,7.27008538 52.1289682,3.88711876 C51.9272273,3.71902748 51.7119927,3.55357771 51.4837491,3.39091943 L53.0331122,0.29666926 Z" id="Path"></path>
                    </g>
                </g>
                <g id="Group-3" transform="translate(176.000000, 80.301183) rotate(-74.000000) translate(-176.000000, -80.301183) translate(144.431521, 51.438574)">
                    <g id="right-arrow40-copy-3">
                        <mask id="mask-5" sketch:name="Mask" fill="white">
                            <use xlink:href="#path-4"></use>
                        </mask>
                        <use id="Mask" fill-opacity="0" fill="#FFFFFF" sketch:type="MSShapeGroup" xlink:href="#path-4"></use>
                        <g id="right-arrow40-copy" mask="url(#mask-5)">
                            <g transform="translate(34.601222, 34.615414) scale(-1, 1) rotate(-125.000000) translate(-34.601222, -34.615414) translate(11.992689, 15.938505)">
                                <mask id="mask-7" sketch:name="Clip 2" fill="white">
                                    <use xlink:href="#path-6"></use>
                                </mask>
                                <g id="Clip-2"></g>
                                <path d="M31.6756323,8.04672178 L31.6756323,0.327934915 L44.7885818,12.7703415 L31.6756323,25.212748 L31.6756323,17.3999791 C16.2243144,18.509376 3.74225062,26.138267 0.706247528,36.0431581 C0.243310886,34.533316 4.26325641e-14,32.9703536 4.26325641e-14,31.3665294 C4.26325641e-14,19.275534 13.8622609,9.31547949 31.6756323,8.04672178 L31.6756323,8.04672178 Z" id="Fill-1" stroke="none" fill="#F58C23" fill-rule="evenodd" sketch:type="MSShapeGroup" mask="url(#mask-7)"></path>
                            </g>
                        </g>
                    </g>
                    <g id="right-arrow40-copy-4" transform="translate(6.685090, 7.937217)">
                        <mask id="mask-9" sketch:name="Mask" fill="white">
                            <use xlink:href="#path-8"></use>
                        </mask>
                        <use id="Mask" fill-opacity="0" fill="#FFFFFF" sketch:type="MSShapeGroup" xlink:href="#path-8"></use>
                        <g id="right-arrow40-copy-2" mask="url(#mask-9)" fill="#EB7626" sketch:type="MSShapeGroup">
                            <g transform="translate(28.042078, 27.384169) scale(-1, 1) rotate(-125.000000) translate(-28.042078, -27.384169) translate(5.387053, 8.984255)" id="Fill-1">
                                <path d="M31.8346734,0.69222537 L44.9476229,13.1346319 L31.8346734,25.5770385 L31.8346734,17.7642696 C16.3833555,18.8736664 3.90129171,26.5025574 0.865288612,36.4074486 C0.40235197,34.8976064 0.159041084,33.334644 0.159041084,31.7308199 C0.159041084,19.6398245 14.021302,9.67976995 31.8346734,8.41101223 L31.8346734,0.69222537 Z"></path>
                            </g>
                        </g>
                    </g>
                </g>
            </g>
        </g>
    </g>
</svg>