<?xml version="1.0" encoding="utf-8"?>
<!-- Generator: Adobe Illustrator 19.1.0, SVG Export Plug-In . SVG Version: 6.00 Build 0)  -->
<svg version="1.1" id="Layer_1" xmlns:sketch="http://www.bohemiancoding.com/sketch/ns"
	 xmlns="http://www.w3.org/2000/svg" xmlns:xlink="http://www.w3.org/1999/xlink" x="0px" y="0px" viewBox="-405 283.3 30 30"
	 style="enable-background:new -405 283.3 30 30;" xml:space="preserve">
<style type="text/css">
	.st0{fill:#FFFFFF;}
</style>
<title>home5 (1) copy</title>
<desc>Created with Sketch.</desc>
<g id="Page-1" sketch:type="MSPage">
	<g id="home5-_x28_1_x29_-copy" sketch:type="MSLayerGroup">
		<path id="Fill-1" sketch:type="MSShapeGroup" class="st0" d="M-382.5,294.6c0-0.2-0.1-0.3-0.2-0.4l-6.9-5.3
			c-0.2-0.2-0.4-0.2-0.7,0l-6.7,5.3c-0.1,0.1-0.2,0.2-0.2,0.4v9.6c0,0.2,0.1,0.3,0.1,0.4c0.1,0.1,0.2,0.1,0.4,0.1h4
			c0.2,0,0.3,0,0.4-0.1c0.1-0.1,0.1-0.2,0.1-0.4v-5.9h4.6v5.9c0,0.2,0,0.3,0.1,0.4c0.1,0.1,0.2,0.1,0.4,0.1h4c0.2,0,0.3,0,0.4-0.1
			c0.1-0.1,0.1-0.2,0.1-0.4V294.6z M-390,283.3c2.1,0,4,0.4,5.8,1.2c1.8,0.8,3.4,1.9,4.8,3.2c1.3,1.3,2.4,2.9,3.2,4.8
			c0.8,1.8,1.2,3.8,1.2,5.8c0,1.4-0.2,2.7-0.5,4c-0.4,1.3-0.9,2.5-1.5,3.6c-0.6,1.1-1.4,2.1-2.3,3c-0.9,0.9-1.9,1.7-3,2.3
			c-1.1,0.6-2.3,1.2-3.6,1.5c-1.3,0.4-2.6,0.5-4,0.5c-1.4,0-2.7-0.2-4-0.5c-1.3-0.4-2.5-0.9-3.6-1.5c-1.1-0.6-2.1-1.4-3-2.3
			c-0.9-0.9-1.7-1.9-2.3-3c-0.6-1.1-1.2-2.3-1.5-3.6c-0.4-1.3-0.5-2.6-0.5-4c0-1.4,0.2-2.7,0.5-4c0.4-1.3,0.9-2.5,1.5-3.6
			c0.6-1.1,1.4-2.1,2.3-3c0.9-0.9,1.9-1.7,3-2.3c1.1-0.6,2.3-1.2,3.6-1.5C-392.7,283.5-391.4,283.3-390,283.3L-390,283.3z"/>
	</g>
</g>
</svg>
