<?xml version="1.0" encoding="UTF-8" standalone="no"?>
<svg width="153px" height="152px" viewBox="0 0 153 152" version="1.1" xmlns="http://www.w3.org/2000/svg" xmlns:xlink="http://www.w3.org/1999/xlink" xmlns:sketch="http://www.bohemiancoding.com/sketch/ns">
    <!-- Generator: Sketch 3.4.4 (17249) - http://www.bohemiancoding.com/sketch -->
    <title>Oval 298 Copy 3 + road24 copy 2 + Path 780 + Page 1 Copy</title>
    <desc>Created with Sketch.</desc>
    <defs>
        <linearGradient x1="91.4062108%" y1="-32.8762273%" x2="16.3354027%" y2="123.196752%" id="linearGradient-1">
            <stop stop-color="#FFFFFF" offset="0%"></stop>
            <stop stop-color="#D5DCE9" offset="100%"></stop>
        </linearGradient>
    </defs>
    <g id="Page-1" stroke="none" stroke-width="1" fill="none" fill-rule="evenodd" sketch:type="MSPage">
        <g id="Oval-298-Copy-3-+-road24-copy-2-+-Path-780-+-Page-1-Copy" sketch:type="MSLayerGroup">
            <ellipse id="Oval-298-Copy-3" fill="url(#linearGradient-1)" sketch:type="MSShapeGroup" cx="76.4420629" cy="75.7294124" rx="76.4420629" ry="75.7294124"></ellipse>
            <g id="road24-copy-2" transform="translate(37.000000, 72.000000)" sketch:type="MSShapeGroup">
                <path d="M19.16618,0.197761566 L0,56.9372974 L9.68742007,56.9372974 L23.5862375,0.197761566 L19.16618,0.197761566 Z" id="Fill-1" fill="#1D82C6"></path>
                <path d="M60.5992943,0.197761566 L56.1784327,0.197761566 L70.0778532,56.9372974 L79.7654743,56.9372974 L60.5992943,0.197761566 Z" id="Fill-2" fill="#1D82C6"></path>
                <path d="M27.3672482,0.197761566 L13.4975788,56.9372974 L34.021256,56.9372974 L34.5867291,48.5871395 L45.1787452,48.5871395 L45.7442183,56.9372974 L66.2678955,56.9372974 L52.3982261,0.197761566 L27.3672482,0.197761566 Z M38.0573627,0.848389012 L41.7079105,0.848389012 L42.2858469,8.8046448 L37.4786223,8.8046448 L38.0573627,0.848389012 Z M36.9006859,16.7615085 L42.8645874,16.7615085 L43.4433279,24.7177642 L36.3221464,24.7177642 L36.9006859,16.7615085 Z M35.1654695,40.6308837 L35.7434059,32.6746279 L44.0220683,32.6746279 L44.6008088,40.6308837 L35.1654695,40.6308837 Z" id="Fill-3" fill="#279EEE"></path>
            </g>
            <g id="Path-780-+-Page-1-Copy" transform="translate(44.000000, 27.000000)" sketch:type="MSShapeGroup">
                <path d="M15,37 L6,34 L10,16 C10,16 15,5 16,5 C17,5 32,3 32,3 L48,5 L54,12 L59,28 L56,39 L15,37 Z" id="Path-780" fill="#FFFFFF"></path>
                <g id="Page-1">
                    <g>
                        <path d="M13.7513594,24.8332632 C16.4001094,24.8332632 18.5512031,27.0049474 18.5512031,29.6754211 C18.5512031,32.3541053 16.4001094,34.5257895 13.7513594,34.5257895 C11.1087031,34.5257895 8.95760938,32.3541053 8.95760938,29.6754211 C8.95760938,27.0049474 11.1087031,24.8332632 13.7513594,24.8332632 M16.2497969,8.61952632 C19.4754219,6.47452632 26.0079219,5.45231579 32.4185469,5.53236842 L32.4185469,0.624526316 C25.0613594,0.540368421 17.5965156,1.82531579 13.5685469,4.50605263 C11.3138594,6.00652632 9.33135938,9.99068421 7.79979688,14.0487368 L1.62682813,14.0487368 C1.13526563,14.0487368 0.674171875,14.2724737 0.365421875,14.6583684 C0.054640625,15.0422105 -0.063171875,15.5389474 0.032296875,16.0295263 L0.952453125,20.5022105 C1.10276563,21.2637368 1.76901563,21.8097368 2.53885938,21.8097368 L4.37104688,21.8097368 C2.60182813,23.8705789 1.74464063,26.4692105 1.73651563,29.0575789 C1.72229688,32.2658421 2.92682813,35.1600526 5.13276563,37.2126842 C5.15714063,37.2291053 5.18151563,37.2537368 5.20385938,37.2681053 L5.20385938,43.5388947 C5.20385938,44.8936316 6.29260938,46 7.64135938,46 L13.3369844,46 C14.6796406,46 15.7744844,44.8936316 15.7744844,43.5388947 L15.7744844,41.0203158 L32.4185469,41.0203158 L32.4185469,16.6309474 L12.0613594,16.6309474 C13.4812031,12.6611579 15.0351094,9.42210526 16.2497969,8.61952632" id="Fill-1" fill="#204581"></path>
                        <g id="Group-5" transform="translate(31.296296, 0.000000)" fill="#4D73AE">
                            <path d="M19.5322818,34.5257895 C16.8835318,34.5257895 14.7324381,32.3541053 14.7324381,29.6754211 C14.7324381,27.0049474 16.8835318,24.8332632 19.5322818,24.8332632 C22.1749381,24.8332632 24.3260318,27.0049474 24.3260318,29.6754211 C24.3260318,32.3541053 22.1749381,34.5257895 19.5322818,34.5257895 M32.9182193,14.6583684 C32.6094693,14.2724737 32.1483756,14.0487368 31.6568131,14.0487368 L25.4838443,14.0487368 C23.9522818,9.99068421 21.9697818,6.00652632 19.7150943,4.50605263 C15.6871256,1.82531579 8.22228183,0.540368421 0.865094329,0.624526316 L0.865094329,5.53236842 C7.27571933,5.45231579 13.8082193,6.47452632 17.0338443,8.61952632 C18.2485318,9.42210526 19.8024381,12.6611579 21.2222818,16.6309474 L0.865094329,16.6309474 L0.865094329,41.0203158 L17.5091568,41.0203158 L17.5091568,43.5388947 C17.5091568,44.8936316 18.6040006,46 19.9466568,46 L25.6422818,46 C26.9910318,46 28.0797818,44.8936316 28.0797818,43.5388947 L28.0797818,37.2681053 C28.1021256,37.2537368 28.1265006,37.2291053 28.1508756,37.2126842 C30.3568131,35.1600526 31.5613443,32.2658421 31.5471256,29.0575789 C31.5390006,26.4692105 30.6818131,23.8705789 28.9125943,21.8097368 L30.7447818,21.8097368 C31.5146256,21.8097368 32.1808756,21.2637368 32.3311881,20.5022105 L33.2513443,16.0295263 C33.3468131,15.5389474 33.2290006,15.0422105 32.9182193,14.6583684" id="Fill-3"></path>
                        </g>
                    </g>
                </g>
            </g>
        </g>
    </g>
</svg>