<?xml version="1.0" encoding="UTF-8" standalone="no"?>
<svg width="154px" height="158px" viewBox="0 0 154 158" version="1.1" xmlns="http://www.w3.org/2000/svg" xmlns:xlink="http://www.w3.org/1999/xlink" xmlns:sketch="http://www.bohemiancoding.com/sketch/ns">
    <!-- Generator: Sketch 3.4.3 (16618) - http://www.bohemiancoding.com/sketch -->
    <title>Group</title>
    <desc>Created with Sketch.</desc>
    <defs>
        <linearGradient x1="91.4062108%" y1="-32.8762273%" x2="16.3354027%" y2="123.196752%" id="linearGradient-1">
            <stop stop-color="#FFFFFF" offset="0%"></stop>
            <stop stop-color="#D5DCE9" offset="100%"></stop>
        </linearGradient>
        <path id="path-2" d="M0.145388223,0.00764307692 L92.0792079,0.00764307692 L92.0792079,91.8312328 L0.145388223,91.8312328 L0.145388223,0.00764307692 Z"></path>
        <path id="path-4" d="M5.13629495,26.8442954 L87.9688119,26.8442954 C90.2586764,26.8442954 92.1147994,24.9933251 92.1147994,22.7098174 C92.1147994,20.8975097 90.9395779,19.3582564 89.3112298,18.8024821 L48.2317874,0.367688205 C47.1534914,-0.115593846 45.9225378,-0.115593846 44.8442418,0.367688205 L3.44252215,18.9426338 C1.66151641,19.7448821 0.677722772,21.6804267 1.09450234,23.5773087 C1.50158937,25.4838564 3.18566962,26.8442954 5.13629495,26.8442954 L5.13629495,26.8442954 Z"></path>
        <path id="path-6" d="M0.00731707317,0.0486618005 L50,0.0486618005 L50,49.9270073 L0.00731707317,49.9270073 L0.00731707317,0.0486618005 Z"></path>
        <rect id="path-8" x="0.968937126" y="0" width="28" height="72"></rect>
    </defs>
    <g id="Page-1" stroke="none" stroke-width="1" fill="none" fill-rule="evenodd" sketch:type="MSPage">
        <g id="3-Cash" sketch:type="MSArtboardGroup" transform="translate(-163.000000, -436.000000)">
            <g id="Group" sketch:type="MSLayerGroup" transform="translate(163.000000, 423.000000)">
                <ellipse id="Oval-298" fill="url(#linearGradient-1)" sketch:type="MSShapeGroup" cx="77.2293048" cy="95.1519627" rx="76.4420629" ry="75.7294124"></ellipse>
                <g id="banking2" transform="translate(31.729305, 43.881375)">
                    <mask id="mask-3" sketch:name="Clip 2" fill="white">
                        <use xlink:href="#path-2"></use>
                    </mask>
                    <g id="Clip-2"></g>
                    <path d="M4.13629495,82.5618831 C1.85612298,82.5618831 -4.26325641e-13,84.4128533 -4.26325641e-13,86.696361 C-4.26325641e-13,88.9726195 1.85612298,90.8211733 4.13629495,90.8211733 L86.9300417,90.8211733 C89.2199062,90.8211733 91.0760292,88.9726195 91.0760292,86.696361 C91.0663366,84.4128533 89.2199062,82.5618831 86.9300417,82.5618831 L4.13629495,82.5618831 Z" id="Fill-1" fill="#4D73AE" sketch:type="MSShapeGroup" mask="url(#mask-3)"></path>
                    <path d="M9.31453882,71.8306051 C7.02225117,71.8306051 5.17824388,73.679159 5.17824388,75.9554174 C5.17824388,78.2389251 7.02225117,80.0898954 9.31453882,80.0898954 L81.7517978,80.0898954 C84.0440855,80.0898954 85.8977853,78.2389251 85.8977853,75.9554174 C85.8977853,73.679159 84.0440855,71.8306051 81.7517978,71.8306051 L80.7195414,71.8306051 L80.7195414,34.6782974 L81.7517978,34.6782974 C82.8979416,34.6782974 83.8260031,33.7528123 83.8260031,32.6098503 C83.8260031,31.4789703 82.8979416,30.5534851 81.7517978,30.5534851 L9.31453882,30.5534851 C8.168395,30.5534851 7.25002606,31.4789703 7.25002606,32.6098503 C7.25002606,33.7528123 8.168395,34.6782974 9.31453882,34.6782974 L10.3467952,34.6782974 L10.3467952,71.8306051 L9.31453882,71.8306051 Z M60.0211047,34.6782974 L72.4396821,34.6782974 L72.4396821,71.8306051 L60.0211047,71.8306051 L60.0211047,34.6782974 Z M39.3275143,34.6782974 L51.7460917,34.6782974 L51.7460917,71.8306051 L39.3275143,71.8306051 L39.3275143,34.6782974 Z M18.6290776,34.6782974 L31.0452319,34.6782974 L31.0452319,71.8306051 L18.6290776,71.8306051 L18.6290776,34.6782974 Z" id="Fill-3" fill="#204581" sketch:type="MSShapeGroup" mask="url(#mask-3)"></path>
                    <g id="Rectangle-196" mask="url(#mask-3)">
                        <g transform="translate(-1.000000, 0.000000)">
                            <mask id="mask-5" sketch:name="Mask" fill="white">
                                <use xlink:href="#path-4"></use>
                            </mask>
                            <use id="Mask" stroke="none" fill="#4D73AE" fill-rule="evenodd" sketch:type="MSShapeGroup" xlink:href="#path-4"></use>
                            <rect id="Rectangle-196" stroke="none" fill="#204581" fill-rule="evenodd" sketch:type="MSShapeGroup" mask="url(#mask-5)" x="47" y="-7" width="47" height="38"></rect>
                        </g>
                    </g>
                </g>
                <circle id="Oval-303" fill="#FFFFFF" sketch:type="MSShapeGroup" cx="40.5625" cy="38.8813751" r="19"></circle>
                <g id="dollar103" transform="translate(15.562500, 13.881375)">
                    <mask id="mask-7" sketch:name="Clip 2" fill="white">
                        <use xlink:href="#path-6"></use>
                    </mask>
                    <g id="Clip-2"></g>
                    <path d="M24.9757317,0.0486618005 C11.1828049,0.0486618005 0,11.2042579 0,24.9636253 C0,38.7223844 11.1828049,49.8785888 24.9757317,49.8785888 C38.7714634,49.8785888 49.9514634,38.7223844 49.9514634,24.9636253 C49.9514634,11.2042579 38.7714634,0.0486618005 24.9757317,0.0486618005 L24.9757317,0.0486618005 Z M31.7868293,34.5833333 C30.5578049,35.9581509 28.7837805,36.76691 26.4634146,37.010219 L26.4634146,40.5354015 L23.5060976,40.5354015 L23.5060976,37.0288321 C19.6369512,36.633455 17.2436585,34.3884428 16.32,30.3012165 L20.8931707,29.1116788 C21.3171951,31.6816302 22.7196341,32.9652068 25.1004878,32.9652068 C26.2132927,32.9652068 27.0364634,32.6914842 27.5609756,32.1412409 C28.0854878,31.5903893 28.347439,30.9274939 28.347439,30.1491484 C28.347439,29.3431873 28.0854878,28.7315085 27.5609756,28.3181265 C27.0364634,27.9013382 25.8689024,27.3753041 24.0610976,26.736618 C22.4362195,26.1739659 21.1647561,25.6203163 20.250122,25.0666667 C19.3354878,24.5192214 18.5913415,23.7498783 18.0210976,22.7614355 C17.4509756,21.769708 17.1646341,20.6139903 17.1646341,19.3004866 C17.1646341,17.5759124 17.6767073,16.0215328 18.6952439,14.6409976 C19.7136585,13.263382 21.3171951,12.4208029 23.5060976,12.113382 L23.5060976,9.39184915 L26.4634146,9.39184915 L26.4634146,12.1138686 C29.7685366,12.5092457 31.9087805,14.3734793 32.8810976,17.7099757 L28.8081707,19.3765207 C28.0120732,17.0892944 26.7868293,15.9459854 25.1219512,15.9459854 C24.2868293,15.9459854 23.6160976,16.2010949 23.1130488,16.7125304 C22.6067073,17.2233577 22.3537805,17.8434307 22.3537805,18.5705596 C22.3537805,19.3128954 22.5976829,19.8816302 23.0854878,20.279927 C23.5703659,20.6753041 24.6160976,21.1647202 26.2137805,21.7520681 C27.9697561,22.3907543 29.3478049,22.9957421 30.344878,23.5645985 C31.3447561,24.133455 32.1403659,24.9212895 32.7381707,25.9216545 C33.3326829,26.9253041 33.6313415,28.0962287 33.6313415,29.4372263 C33.6308537,31.4963504 33.0154878,33.2119221 31.7868293,34.5833333 L31.7868293,34.5833333 Z" id="Fill-1" fill="#F58C23" sketch:type="MSShapeGroup" mask="url(#mask-7)"></path>
                </g>
                <g id="dollar103-copy" transform="translate(11.562500, 0.881375)">
                    <mask id="mask-9" sketch:name="Mask" fill="white">
                        <use xlink:href="#path-8"></use>
                    </mask>
                    <use id="Mask" sketch:type="MSShapeGroup" xlink:href="#path-8"></use>
                    <g mask="url(#mask-9)" id="Fill-1" fill="#EB7626" sketch:type="MSShapeGroup">
                        <g transform="translate(3.968937, 13.000000)">
                            <path d="M24.9757317,0.0486618005 C11.1828049,0.0486618005 0,11.2042579 0,24.9636253 C0,38.7223844 11.1828049,49.8785888 24.9757317,49.8785888 C38.7714634,49.8785888 49.9514634,38.7223844 49.9514634,24.9636253 C49.9514634,11.2042579 38.7714634,0.0486618005 24.9757317,0.0486618005 L24.9757317,0.0486618005 Z M31.7868293,34.5833333 C30.5578049,35.9581509 28.7837805,36.76691 26.4634146,37.010219 L26.4634146,40.5354015 L23.5060976,40.5354015 L23.5060976,37.0288321 C19.6369512,36.633455 17.2436585,34.3884428 16.32,30.3012165 L20.8931707,29.1116788 C21.3171951,31.6816302 22.7196341,32.9652068 25.1004878,32.9652068 C26.2132927,32.9652068 27.0364634,32.6914842 27.5609756,32.1412409 C28.0854878,31.5903893 28.347439,30.9274939 28.347439,30.1491484 C28.347439,29.3431873 28.0854878,28.7315085 27.5609756,28.3181265 C27.0364634,27.9013382 25.8689024,27.3753041 24.0610976,26.736618 C22.4362195,26.1739659 21.1647561,25.6203163 20.250122,25.0666667 C19.3354878,24.5192214 18.5913415,23.7498783 18.0210976,22.7614355 C17.4509756,21.769708 17.1646341,20.6139903 17.1646341,19.3004866 C17.1646341,17.5759124 17.6767073,16.0215328 18.6952439,14.6409976 C19.7136585,13.263382 21.3171951,12.4208029 23.5060976,12.113382 L23.5060976,9.39184915 L26.4634146,9.39184915 L26.4634146,12.1138686 C29.7685366,12.5092457 31.9087805,14.3734793 32.8810976,17.7099757 L28.8081707,19.3765207 C28.0120732,17.0892944 26.7868293,15.9459854 25.1219512,15.9459854 C24.2868293,15.9459854 23.6160976,16.2010949 23.1130488,16.7125304 C22.6067073,17.2233577 22.3537805,17.8434307 22.3537805,18.5705596 C22.3537805,19.3128954 22.5976829,19.8816302 23.0854878,20.279927 C23.5703659,20.6753041 24.6160976,21.1647202 26.2137805,21.7520681 C27.9697561,22.3907543 29.3478049,22.9957421 30.344878,23.5645985 C31.3447561,24.133455 32.1403659,24.9212895 32.7381707,25.9216545 C33.3326829,26.9253041 33.6313415,28.0962287 33.6313415,29.4372263 C33.6308537,31.4963504 33.0154878,33.2119221 31.7868293,34.5833333 L31.7868293,34.5833333 Z"></path>
                        </g>
                    </g>
                </g>
            </g>
        </g>
    </g>
</svg>