<?xml version="1.0" encoding="UTF-8" standalone="no"?>
<svg width="253px" height="153px" viewBox="0 0 253 153" version="1.1" xmlns="http://www.w3.org/2000/svg" xmlns:xlink="http://www.w3.org/1999/xlink" xmlns:sketch="http://www.bohemiancoding.com/sketch/ns">
    <!-- Generator: Sketch 3.4.3 (16618) - http://www.bohemiancoding.com/sketch -->
    <title>Group</title>
    <desc>Created with Sketch.</desc>
    <defs>
        <linearGradient x1="91.4062108%" y1="-32.8762273%" x2="16.3354027%" y2="123.196752%" id="linearGradient-1">
            <stop stop-color="#FFFFFF" offset="0%"></stop>
            <stop stop-color="#D5DCE9" offset="100%"></stop>
        </linearGradient>
        <path d="M82.9614226,34.0820526 L83.7856118,34.6734474 L84.5481793,34.6734474 L84.5481793,33.1780263 L86.9642604,32.9435526 L89.2596658,34.6734474 L93.0314226,34.6734474 L93.3035847,34.4285526 C92.9210172,33.1467632 92.4896658,31.8753947 92.0198009,30.6326842 L89.5626388,30.6743684 L88.3173685,29.2987895 L88.0862874,27.0921316 L86.8230442,27.7825263 L86.1426388,30.492 L84.3170982,28.5172105 L84.2452063,26.6544474 L82.4812874,25.1173421 L81.8291253,24.4556053 L79.7827739,24.4556053 L80.4246658,26.3079474 L82.8920982,27.7017632 L83.3131793,28.1602895 L82.7816928,28.4338421 L82.8125036,29.9006053 L81.6083145,30.4086316 L80.5864226,30.1741579 L79.9445307,29.2597105 L81.6083145,29.3508947 L82.0602063,28.7308421 L78.3680442,26.2063421 L78.0881793,25.1381842 L76.593855,26.5111579 L75.0687199,26.1959211 L72.7630442,29.2388684 L72.300882,30.4398947 L70.8270982,30.5727632 L68.6395307,30.5831842 L67.3275036,29.9605263 L66.9449361,27.3266053 L67.4173685,26.0734737 L69.6434496,25.5758684 L72.0698009,26.0734737 L72.3599361,24.7109211 L71.3380442,24.4660263 L71.6898009,22.3401316 L74.1264226,21.9519474 L75.8415577,19.5003947 L77.6054766,19.2033947 L79.1999361,19.4378684 L79.7827739,19.4378684 L79.461828,17.1400263 L77.525882,17.9320263 L76.8454766,16.2125526 L75.720882,16.0510263 L75.5103415,14.8786579 L76.421828,13.8626053 L78.5991253,12.9976579 L79.1614226,11.979 C70.8373685,4.53055263 59.9252063,0 47.9680442,0 C37.6079091,0 28.0206118,3.41028947 20.2177739,9.18094737 L22.6056118,9.16010526 L23.6583145,9.75931579 L25.6635847,10.197 L25.8150712,10.9916053 L29.0039901,11.1140526 L28.5726388,10.0771579 L25.7431793,9.99378947 L26.4056118,9.36331579 L26.1745307,8.59997368 L23.6172334,8.59997368 L26.4056118,6.49492105 L29.0733145,6.49492105 L30.3365577,8.24305263 L32.4137199,8.3655 L33.6666928,7.12539474 L34.6089901,7.60215789 L32.8835847,9.32423684 C32.8835847,9.32423684 30.4880442,9.36331579 30.6087199,9.36331579 C30.7293955,9.36331579 30.8089901,11.0332895 30.8089901,11.0332895 L33.7077739,10.9525263 L34.0184496,10.1579211 L36.0237199,10.0354737 L36.2548009,8.84486842 L35.0814226,8.64165789 L35.4716928,7.56307895 L36.3754766,7.28692105 L39.5130442,7.45105263 L37.7902063,9.03765789 L38.0598009,10.2699474 L39.8648009,10.5539211 L39.7543955,8.32642105 L41.4798009,7.40936842 L44.5377739,7.04463158 L48.9822334,9.03765789 L48.9822334,10.7571316 L50.3866928,11.1140526 L49.6831793,12.4687895 L47.6779091,12.4687895 L47.0873685,14.0137105 L42.5119631,12.9247105 L46.1142604,10.9811842 L44.7406118,9.801 L41.6415577,10.197 L41.3693955,10.4835789 L41.3591253,10.4835789 L41.3103415,10.5435 L40.416828,11.4918158 L38.9430442,11.6116579 L39.0637199,12.3567632 L39.5746658,12.5808158 L39.5541253,12.8231053 L38.3499361,12.9976579 L38.2600712,13.6984737 L37.1175036,13.761 L36.9069631,12.3567632 L34.8503415,12.9976579 L30.6369631,15.4908947 L31.1093955,17.2494474 L32.2827739,18.0336316 L34.6398009,18.3592895 L34.6398009,21.0765789 L35.7335847,20.9046316 L36.7349361,18.7761316 L39.2331793,17.9737105 L39.2331793,14.7171316 L40.6273685,13.6489737 L43.9985847,14.4513947 L43.7572334,16.6085526 L44.6584496,16.6085526 L47.1361523,15.3788684 L47.256828,18.2081842 L49.061828,19.3154211 L48.9822334,20.9958158 L47.256828,21.5872105 L47.3775036,22.1447368 L49.4546658,23.1034737 L49.4135847,24.2628158 L48.8127739,24.3123158 C48.8127739,24.2940789 48.8025036,24.2836579 48.8025036,24.2836579 L46.1733145,23.4577895 L46.0629091,22.6032632 L46.8357469,22.0639737 L46.8357469,21.2902105 L46.003855,21.0765789 L45.8035847,21.8008421 L44.3580442,22.0248947 L44.2091253,21.9727895 L44.2091253,22.0535526 L43.705882,22.1265 L43.2950712,21.2902105 L42.8252063,21.0765789 L41.8007469,21.0765789 L41.3283145,21.4751842 L41.3283145,22.3401316 L42.2115577,22.6345263 L43.0845307,22.7569737 L42.8842604,22.8481579 L42.090882,23.7443684 L41.7416928,23.2962632 L40.968855,23.0930526 L38.8814226,25.0860789 L39.1535847,25.3101316 L36.0648009,27.0504474 L33.1557469,30.1142368 L32.9554766,31.4872105 L30.0464226,33.4229211 L28.600882,34.8975 L28.7626388,37.8492632 L26.7573685,36.9009474 L26.7779091,35.1710526 L21.2011523,35.1814737 L18.3126388,36.6586579 L17.0570982,39.0086053 L16.5666928,40.8609474 L17.3780442,42.6611842 L19.6452063,42.9477632 L23.2654766,40.4936053 L23.5761523,41.7154737 L22.4746658,43.8231316 L25.2219631,44.2998947 L25.501828,48.6168158 L29.2735847,49.2681316 L31.6614226,46.4570526 L34.5704766,47.0588684 L35.5923685,48.4943684 L38.3807469,48.3302368 L38.4603415,47.4965526 L39.9957469,48.2494737 L41.7211523,50.9980263 L44.6995307,51.0371053 L45.8035847,52.9910526 L45.9525036,55.3826842 L49.251828,56.6540526 L53.4164226,56.6957368 L54.6385847,58.7200263 L56.4846658,59.3218421 L56.1226388,60.9996316 L54.1070982,63.6048947 L53.5165577,69.3755526 L51.6910172,70.8423158 L48.9822334,70.7615526 L48.0784496,72.3481579 L48.7511523,75.339 L45.8035847,79.1661316 L44.8612874,80.9168684 L42.0523685,82.2898421 L40.2062874,82.5764211 L40.1369631,83.3684211 L41.4310172,83.7461842 L41.2692604,84.6007105 L40.1164226,85.7313947 L40.8173685,86.6354211 L42.2115577,86.6771053 L42.1319631,87.7661053 L41.7596658,88.8446842 L41.6415577,89.7200526 L43.705882,91.4812105 L43.4362874,92.3956579 L40.6273685,92.3461579 L37.8287199,89.8711579 L35.6437199,85.9841053 L35.9543955,82.2299211 L34.2983145,79.9998158 L34.9710172,76.2143684 L33.9876388,75.9303947 L33.9876388,67.7264211 C33.9876388,67.7264211 31.2403415,65.6213684 31.0785847,65.6213684 C30.9296658,65.6213684 29.6253415,65.2540263 29.6253415,65.2540263 L29.3531793,63.7091053 L25.7842604,59.1681316 L26.1360172,57.5294211 L26.2541253,54.8642368 L28.7215577,53.1135 L28.3723685,50.1226579 L24.7598009,49.8465 L21.9329091,46.5795 L19.9276388,46.0193684 L18.6335847,45.7770789 L18.7927739,44.5864737 L17.1495307,44.352 L17.1495307,45.0241579 L13.0157469,43.9742368 L11.3622334,41.4002368 L12.0323685,40.1575263 L9.42628743,36.2913158 L8.97439554,33.462 L7.92169284,33.462 L8.27344959,36.2105526 L10.0784496,39.0398684 L9.87561176,40.1497105 L8.34277392,39.9152368 L6.46588203,36.6586579 L6.46588203,32.8627895 L4.50169284,31.9040526 L4.50169284,29.1789474 C2.07277392,34.947 0.72993608,41.2882105 0.72993608,47.9446579 C0.72993608,74.3724474 21.9226388,95.8762895 47.9783145,95.8762895 C62.741828,95.8762895 75.9519631,88.9567105 84.6175036,78.1578947 L83.0615577,78.1578947 L83.0615577,74.9742632 L81.2565577,72.5096842 L81.2565577,68.6747368 L79.8829091,67.2809211 L79.7622334,65.6917105 L81.5081793,62.3022632 L78.1883145,56.3700789 L78.5785847,52.3397368 L75.6002063,52.0245 L74.4961523,50.9042368 L72.5011523,50.9042368 L71.4792604,51.8629737 L67.948855,51.8629737 L67.8281793,52.1886316 L65.8614226,52.1886316 L61.3476388,46.9676842 L61.3887199,42.9060789 L62.1307469,42.6221053 L62.4106118,41.0745789 L61.3476388,41.0745789 L60.9162874,39.4358684 L66.1335847,35.6191579 L66.1335847,32.9018684 L68.690882,31.4689737 L69.7230442,31.5705789 L71.8284496,31.5705789 L73.4742604,30.6743684 L78.7711523,30.2575263 L78.7711523,33.0034737 L82.9614226,34.0820526 Z M69.7127739,16.9863158 L70.1441253,16.3141579 L71.6898009,15.9885 L72.0800712,17.9007632 L72.9119631,19.2555 L73.4537199,19.8963947 L74.4576388,20.2923947 L73.5153415,21.4335 L71.6898009,21.6054474 L70.3161523,21.6054474 L70.4753415,19.9589211 L71.6179091,19.7140263 L71.5177739,18.9402632 L70.4548009,18.2576842 L69.7127739,17.7496579 L69.7127739,16.9863158 Z M67.1554766,19.9771579 L68.0977739,18.4426579 L69.3712874,18.1456579 L70.2853415,18.5442632 L70.1954766,19.5707368 L68.2595307,20.9645526 L67.1554766,20.9645526 L67.1554766,19.9771579 Z M41.4900712,25.8702632 L40.5066928,25.9510263 L40.5580442,25.2606316 L40.9996658,24.7005 L41.5902063,25.1772632 L41.4900712,25.8702632 Z M44.940882,24.6483947 L44.2681793,24.7005 L44.1372334,25.3622368 L43.6160172,25.6878947 L42.7841253,25.7582368 C42.7533145,25.5654474 42.7430442,25.4117368 42.7430442,25.4117368 L42.4220982,25.4117368 L42.4220982,24.7005 L43.7777739,24.7005 L44.0473685,23.9788421 L44.5891253,23.9684211 L45.2002063,24.0882632 L44.940882,24.6483947 Z" id="path-2"></path>
    </defs>
    <g id="Page-1" stroke="none" stroke-width="1" fill="none" fill-rule="evenodd" sketch:type="MSPage">
        <g id="3-Cash" sketch:type="MSArtboardGroup" transform="translate(-384.000000, -441.000000)">
            <g id="Group" sketch:type="MSLayerGroup" transform="translate(384.000000, 441.000000)">
                <ellipse id="Oval-298-Copy" fill="url(#linearGradient-1)" sketch:type="MSShapeGroup" cx="126.993927" cy="76.4163645" rx="76.4420629" ry="75.7294124"></ellipse>
                <g id="Path-728" transform="translate(79.562500, 27.881375)">
                    <mask id="mask-3" sketch:name="Mask" fill="white">
                        <use xlink:href="#path-2"></use>
                    </mask>
                    <use id="Mask" fill="#279EEE" sketch:type="MSShapeGroup" xlink:href="#path-2"></use>
                    <path d="M16,31 L15,42 L20,44 L25,49 L31,50 L40,84 L41,91 L48,96 L54,97 C54,97 111,91 109,89 C107,87 96,7 96,7 L21,-16 C21,-16 -26,1 -23,2 C-20,3 16,31 16,31 Z" fill="#204581" sketch:type="MSShapeGroup" mask="url(#mask-3)"></path>
                </g>
                <g id="Group-Copy" transform="translate(190.062500, 65.381375) rotate(-22.000000) translate(-190.062500, -65.381375) translate(173.562500, 61.881375)" sketch:type="MSShapeGroup">
                    <ellipse id="Oval-77" fill="#FCA63A" cx="12.5034179" cy="3.63461346" rx="3.00011854" ry="3.01300565"></ellipse>
                    <ellipse id="Oval-77-Copy" fill="#FCA63A" cx="21.0037537" cy="3.63461346" rx="3.00011854" ry="3.01300565"></ellipse>
                    <ellipse id="Oval-77-Copy-3" fill="#FCA63A" cx="3.99988146" cy="3.63461346" rx="3.00011854" ry="3.01300565"></ellipse>
                    <ellipse id="Oval-77-Copy-2" fill="#FCA63B" cx="29.5040896" cy="3.63461346" rx="3.00011854" ry="3.01300565"></ellipse>
                </g>
                <g id="Group-Copy-3" transform="translate(63.062500, 109.381375) scale(-1, -1) rotate(-22.000000) translate(-63.062500, -109.381375) translate(46.562500, 105.881375)" sketch:type="MSShapeGroup">
                    <ellipse id="Oval-77" fill="#FCA63A" cx="12.5034179" cy="3.63461346" rx="3.00011854" ry="3.01300565"></ellipse>
                    <ellipse id="Oval-77-Copy" fill="#FCA63A" cx="21.0037537" cy="3.63461346" rx="3.00011854" ry="3.01300565"></ellipse>
                    <ellipse id="Oval-77-Copy-3" fill="#FCA63A" cx="3.99988146" cy="3.63461346" rx="3.00011854" ry="3.01300565"></ellipse>
                    <ellipse id="Oval-77-Copy-2" fill="#FCA63B" cx="29.5040896" cy="3.63461346" rx="3.00011854" ry="3.01300565"></ellipse>
                </g>
                <g id="Group-Copy-4" transform="translate(0.296745, 95.926152)" sketch:type="MSShapeGroup">
                    <g id="money146-copy-2" fill="#A6B7C2">
                        <path d="M11.6203499,27.3239197 L50.6315243,27.3239197 L50.6315243,47.5634292 L11.6203499,47.5634292 L11.6203499,27.3239197 Z M8.29765607,50.8704205 L53.9542181,50.8704205 L53.9542181,24.0143468 L8.29765607,24.0143468 L8.29765607,50.8704205 Z" id="Fill-1"></path>
                        <path d="M41.5012495,24.0143468 L46.1727339,28.6740808 C46.1416079,28.847046 46.0715746,28.9967771 46.0715746,29.177487 C46.0715746,30.6618898 47.2777046,31.8623199 48.766562,31.8623199 C48.9481299,31.8623199 49.1011658,31.7900359 49.2723584,31.7590571 L53.9542181,36.4084649 L53.9542181,24.0143468 L41.5012495,24.0143468 Z" id="Fill-2"></path>
                        <path d="M47.3062367,37.4488376 C47.3062367,38.9203326 46.1001067,40.1207627 44.6112493,40.1207627 C43.122392,40.1207627 41.916262,38.9203326 41.916262,37.4488376 C41.916262,35.9644348 43.122392,34.7665863 44.6112493,34.7665863 C46.1001067,34.7665863 47.3062367,35.9644348 47.3062367,37.4488376 L47.3062367,37.4488376 Z" id="Fill-3"></path>
                        <path d="M39.2731511,37.4488376 C39.2731511,41.3392637 35.623635,44.496524 31.1259371,44.496524 C26.6282392,44.496524 22.9787231,41.3392637 22.9787231,37.4488376 C22.9787231,33.5455036 26.6282392,30.3882434 31.1259371,30.3882434 C35.623635,30.3882434 39.2731511,33.5455036 39.2731511,37.4488376 L39.2731511,37.4488376 Z" id="Fill-4"></path>
                        <path d="M20.3252369,37.4488376 C20.3252369,38.9203326 19.1294822,40.1207627 17.6406249,40.1207627 C16.1517675,40.1207627 14.9456375,38.9203326 14.9456375,37.4488376 C14.9456375,35.9644348 16.1517675,34.7665863 17.6406249,34.7665863 C19.1294822,34.7665863 20.3252369,35.9644348 20.3252369,37.4488376 L20.3252369,37.4488376 Z" id="Fill-5"></path>
                        <path d="M8.29765607,36.4084649 L12.9691405,31.7590571 C13.1403331,31.7900359 13.3037443,31.8623199 13.4853122,31.8623199 C14.9741696,31.8623199 16.1802996,30.6618898 16.1802996,29.177487 C16.1802996,28.9967771 16.1102663,28.847046 16.0791403,28.6740808 L20.7506247,24.0143468 L8.29765607,24.0143468 L8.29765607,36.4084649 Z" id="Fill-6"></path>
                        <path d="M16.1802996,45.7072803 C16.1802996,44.2254591 14.9741696,43.025029 13.4853122,43.025029 C13.3037443,43.025029 13.1507084,43.0947314 12.9795158,43.1257102 L8.29765607,38.4763025 L8.29765607,50.8704205 L20.7506247,50.8704205 L16.0791403,46.2210128 C16.1102663,46.0506292 16.1802996,45.8879903 16.1802996,45.7072803 L16.1802996,45.7072803 Z" id="Fill-7"></path>
                        <path d="M48.766562,43.025029 C47.2777046,43.025029 46.0715746,44.2254591 46.0715746,45.7072803 C46.0715746,45.8879903 46.1416079,46.0403029 46.1727339,46.2106865 L41.5012495,50.8704205 L53.9542181,50.8704205 L53.9542181,38.4763025 L49.2827337,43.1257102 C49.1115411,43.0947314 48.9481299,43.025029 48.766562,43.025029 L48.766562,43.025029 Z" id="Fill-8"></path>
                        <path d="M41.5012495,16.5432829 C41.5012495,18.0147779 40.2951194,19.215208 38.8062621,19.215208 C37.3174048,19.215208 36.12165,18.0147779 36.12165,16.5432829 C36.12165,15.0614617 37.3174048,13.8610316 38.8062621,13.8610316 C40.2951194,13.8610316 41.5012495,15.0614617 41.5012495,16.5432829 L41.5012495,16.5432829 Z" id="Fill-9"></path>
                        <path d="M5.18765618,24.0143468 C5.18765618,22.3105105 6.58572952,20.9190443 8.29765607,20.9190443 L9.99920729,20.9190443 L10.0822098,20.6583057 L34.1036517,7.56716372 L35.9374882,8.10154873 C35.9893648,8.26418765 36.0101154,8.43457127 36.1008994,8.59721019 C36.8090144,9.89832152 38.4509076,10.3707488 39.758197,9.65565393 C39.9112328,9.57562526 40.0227675,9.44396518 40.1524589,9.32263139 L41.9888891,9.8570164 L46.1727339,17.4700666 L45.6358114,19.2952367 C45.4724003,19.3468681 45.3012076,19.3675206 45.1377965,19.4475493 C44.5308407,19.7805719 44.1262035,20.3252831 43.9135096,20.9190443 L51.8661865,20.9190443 L46.4969624,11.168454 L40.5181886,0.297462324 L29.5955785,6.25830768 L0.477264369,22.1194744 L5.18765618,30.6902871 L5.18765618,24.0143468 Z" id="Fill-10"></path>
                        <path d="M23.5778974,16.8040215 C21.7648115,17.7824366 20.4678975,19.2771657 19.7364379,20.9190443 L34.7443273,20.9190443 C34.6224174,20.2943043 34.4382556,19.6798906 34.1244024,19.0938742 C32.2412832,15.6758754 27.5179222,14.6561552 23.5778974,16.8040215 L23.5778974,16.8040215 Z" id="Fill-11"></path>
                    </g>
                    <path d="M11.6203499,27.3239197 L50.6315243,27.3239197 L50.6315243,47.5634292 L11.6203499,47.5634292 L11.6203499,27.3239197 Z M8.29765607,50.8704205 L53.9542181,50.8704205 L53.9542181,24.0143468 L8.29765607,24.0143468 L8.29765607,50.8704205 Z" id="Fill-1" fill="#279EEE"></path>
                    <path d="M41.5012495,24.0143468 L46.1727339,28.6740808 C46.1416079,28.847046 46.0715746,28.9967771 46.0715746,29.177487 C46.0715746,30.6618898 47.2777046,31.8623199 48.766562,31.8623199 C48.9481299,31.8623199 49.1011658,31.7900359 49.2723584,31.7590571 L53.9542181,36.4084649 L53.9542181,24.0143468 L41.5012495,24.0143468 Z" id="Fill-2" fill="#279EEE"></path>
                    <path d="M47.3062367,37.4488376 C47.3062367,38.9203326 46.1001067,40.1207627 44.6112493,40.1207627 C43.122392,40.1207627 41.916262,38.9203326 41.916262,37.4488376 C41.916262,35.9644348 43.122392,34.7665863 44.6112493,34.7665863 C46.1001067,34.7665863 47.3062367,35.9644348 47.3062367,37.4488376 L47.3062367,37.4488376 Z" id="Fill-3" fill="#279EEE"></path>
                    <path d="M39.2731511,37.4488376 C39.2731511,41.3392637 35.623635,44.496524 31.1259371,44.496524 C26.6282392,44.496524 22.9787231,41.3392637 22.9787231,37.4488376 C22.9787231,33.5455036 26.6282392,30.3882434 31.1259371,30.3882434 C35.623635,30.3882434 39.2731511,33.5455036 39.2731511,37.4488376 L39.2731511,37.4488376 Z" id="Fill-4" fill="#279EEE"></path>
                    <path d="M20.3252369,37.4488376 C20.3252369,38.9203326 19.1294822,40.1207627 17.6406249,40.1207627 C16.1517675,40.1207627 14.9456375,38.9203326 14.9456375,37.4488376 C14.9456375,35.9644348 16.1517675,34.7665863 17.6406249,34.7665863 C19.1294822,34.7665863 20.3252369,35.9644348 20.3252369,37.4488376 L20.3252369,37.4488376 Z" id="Fill-5" fill="#279EEE"></path>
                    <path d="M8.29765607,36.4084649 L12.9691405,31.7590571 C13.1403331,31.7900359 13.3037443,31.8623199 13.4853122,31.8623199 C14.9741696,31.8623199 16.1802996,30.6618898 16.1802996,29.177487 C16.1802996,28.9967771 16.1102663,28.847046 16.0791403,28.6740808 L20.7506247,24.0143468 L8.29765607,24.0143468 L8.29765607,36.4084649 Z" id="Fill-6" fill="#279EEE"></path>
                    <path d="M16.1802996,45.7072803 C16.1802996,44.2254591 14.9741696,43.025029 13.4853122,43.025029 C13.3037443,43.025029 13.1507084,43.0947314 12.9795158,43.1257102 L8.29765607,38.4763025 L8.29765607,50.8704205 L20.7506247,50.8704205 L16.0791403,46.2210128 C16.1102663,46.0506292 16.1802996,45.8879903 16.1802996,45.7072803 L16.1802996,45.7072803 Z" id="Fill-7" fill="#279EEE"></path>
                    <path d="M48.766562,43.025029 C47.2777046,43.025029 46.0715746,44.2254591 46.0715746,45.7072803 C46.0715746,45.8879903 46.1416079,46.0403029 46.1727339,46.2106865 L41.5012495,50.8704205 L53.9542181,50.8704205 L53.9542181,38.4763025 L49.2827337,43.1257102 C49.1115411,43.0947314 48.9481299,43.025029 48.766562,43.025029 L48.766562,43.025029 Z" id="Fill-8" fill="#279EEE"></path>
                    <path d="M41.5012495,16.5432829 C41.5012495,18.0147779 40.2951194,19.215208 38.8062621,19.215208 C37.3174048,19.215208 36.12165,18.0147779 36.12165,16.5432829 C36.12165,15.0614617 37.3174048,13.8610316 38.8062621,13.8610316 C40.2951194,13.8610316 41.5012495,15.0614617 41.5012495,16.5432829 L41.5012495,16.5432829 Z" id="Fill-9" fill="#1C82C6"></path>
                    <path d="M5.18765618,24.0143468 C5.18765618,22.3105105 6.58572952,20.9190443 8.29765607,20.9190443 L9.99920729,20.9190443 L10.0822098,20.6583057 L34.1036517,7.56716372 L35.9374882,8.10154873 C35.9893648,8.26418765 36.0101154,8.43457127 36.1008994,8.59721019 C36.8090144,9.89832152 38.4509076,10.3707488 39.758197,9.65565393 C39.9112328,9.57562526 40.0227675,9.44396518 40.1524589,9.32263139 L41.9888891,9.8570164 L46.1727339,17.4700666 L45.6358114,19.2952367 C45.4724003,19.3468681 45.3012076,19.3675206 45.1377965,19.4475493 C44.5308407,19.7805719 44.1262035,20.3252831 43.9135096,20.9190443 L51.8661865,20.9190443 L46.4969624,11.168454 L40.5181886,0.297462324 L29.5955785,6.25830768 L0.477264369,22.1194744 L5.18765618,30.6902871 L5.18765618,24.0143468 Z" id="Fill-10" fill="#1C82C6"></path>
                    <path d="M23.5778974,16.8040215 C21.7648115,17.7824366 20.4678975,19.2771657 19.7364379,20.9190443 L34.7443273,20.9190443 C34.6224174,20.2943043 34.4382556,19.6798906 34.1244024,19.0938742 C32.2412832,15.6758754 27.5179222,14.6561552 23.5778974,16.8040215 L23.5778974,16.8040215 Z" id="Fill-11" fill="#1C82C6"></path>
                </g>
                <g id="Group-Copy-5" transform="translate(198.827652, 20.798048)" sketch:type="MSShapeGroup">
                    <g id="money146-copy-2" fill="#A6B7C2">
                        <path d="M11.6203499,27.3239197 L50.6315243,27.3239197 L50.6315243,47.5634292 L11.6203499,47.5634292 L11.6203499,27.3239197 Z M8.29765607,50.8704205 L53.9542181,50.8704205 L53.9542181,24.0143468 L8.29765607,24.0143468 L8.29765607,50.8704205 Z" id="Fill-1"></path>
                        <path d="M41.5012495,24.0143468 L46.1727339,28.6740808 C46.1416079,28.847046 46.0715746,28.9967771 46.0715746,29.177487 C46.0715746,30.6618898 47.2777046,31.8623199 48.766562,31.8623199 C48.9481299,31.8623199 49.1011658,31.7900359 49.2723584,31.7590571 L53.9542181,36.4084649 L53.9542181,24.0143468 L41.5012495,24.0143468 Z" id="Fill-2"></path>
                        <path d="M47.3062367,37.4488376 C47.3062367,38.9203326 46.1001067,40.1207627 44.6112493,40.1207627 C43.122392,40.1207627 41.916262,38.9203326 41.916262,37.4488376 C41.916262,35.9644348 43.122392,34.7665863 44.6112493,34.7665863 C46.1001067,34.7665863 47.3062367,35.9644348 47.3062367,37.4488376 L47.3062367,37.4488376 Z" id="Fill-3"></path>
                        <path d="M39.2731511,37.4488376 C39.2731511,41.3392637 35.623635,44.496524 31.1259371,44.496524 C26.6282392,44.496524 22.9787231,41.3392637 22.9787231,37.4488376 C22.9787231,33.5455036 26.6282392,30.3882434 31.1259371,30.3882434 C35.623635,30.3882434 39.2731511,33.5455036 39.2731511,37.4488376 L39.2731511,37.4488376 Z" id="Fill-4"></path>
                        <path d="M20.3252369,37.4488376 C20.3252369,38.9203326 19.1294822,40.1207627 17.6406249,40.1207627 C16.1517675,40.1207627 14.9456375,38.9203326 14.9456375,37.4488376 C14.9456375,35.9644348 16.1517675,34.7665863 17.6406249,34.7665863 C19.1294822,34.7665863 20.3252369,35.9644348 20.3252369,37.4488376 L20.3252369,37.4488376 Z" id="Fill-5"></path>
                        <path d="M8.29765607,36.4084649 L12.9691405,31.7590571 C13.1403331,31.7900359 13.3037443,31.8623199 13.4853122,31.8623199 C14.9741696,31.8623199 16.1802996,30.6618898 16.1802996,29.177487 C16.1802996,28.9967771 16.1102663,28.847046 16.0791403,28.6740808 L20.7506247,24.0143468 L8.29765607,24.0143468 L8.29765607,36.4084649 Z" id="Fill-6"></path>
                        <path d="M16.1802996,45.7072803 C16.1802996,44.2254591 14.9741696,43.025029 13.4853122,43.025029 C13.3037443,43.025029 13.1507084,43.0947314 12.9795158,43.1257102 L8.29765607,38.4763025 L8.29765607,50.8704205 L20.7506247,50.8704205 L16.0791403,46.2210128 C16.1102663,46.0506292 16.1802996,45.8879903 16.1802996,45.7072803 L16.1802996,45.7072803 Z" id="Fill-7"></path>
                        <path d="M48.766562,43.025029 C47.2777046,43.025029 46.0715746,44.2254591 46.0715746,45.7072803 C46.0715746,45.8879903 46.1416079,46.0403029 46.1727339,46.2106865 L41.5012495,50.8704205 L53.9542181,50.8704205 L53.9542181,38.4763025 L49.2827337,43.1257102 C49.1115411,43.0947314 48.9481299,43.025029 48.766562,43.025029 L48.766562,43.025029 Z" id="Fill-8"></path>
                        <path d="M41.5012495,16.5432829 C41.5012495,18.0147779 40.2951194,19.215208 38.8062621,19.215208 C37.3174048,19.215208 36.12165,18.0147779 36.12165,16.5432829 C36.12165,15.0614617 37.3174048,13.8610316 38.8062621,13.8610316 C40.2951194,13.8610316 41.5012495,15.0614617 41.5012495,16.5432829 L41.5012495,16.5432829 Z" id="Fill-9"></path>
                        <path d="M5.18765618,24.0143468 C5.18765618,22.3105105 6.58572952,20.9190443 8.29765607,20.9190443 L9.99920729,20.9190443 L10.0822098,20.6583057 L34.1036517,7.56716372 L35.9374882,8.10154873 C35.9893648,8.26418765 36.0101154,8.43457127 36.1008994,8.59721019 C36.8090144,9.89832152 38.4509076,10.3707488 39.758197,9.65565393 C39.9112328,9.57562526 40.0227675,9.44396518 40.1524589,9.32263139 L41.9888891,9.8570164 L46.1727339,17.4700666 L45.6358114,19.2952367 C45.4724003,19.3468681 45.3012076,19.3675206 45.1377965,19.4475493 C44.5308407,19.7805719 44.1262035,20.3252831 43.9135096,20.9190443 L51.8661865,20.9190443 L46.4969624,11.168454 L40.5181886,0.297462324 L29.5955785,6.25830768 L0.477264369,22.1194744 L5.18765618,30.6902871 L5.18765618,24.0143468 Z" id="Fill-10"></path>
                        <path d="M23.5778974,16.8040215 C21.7648115,17.7824366 20.4678975,19.2771657 19.7364379,20.9190443 L34.7443273,20.9190443 C34.6224174,20.2943043 34.4382556,19.6798906 34.1244024,19.0938742 C32.2412832,15.6758754 27.5179222,14.6561552 23.5778974,16.8040215 L23.5778974,16.8040215 Z" id="Fill-11"></path>
                    </g>
                    <path d="M11.6203499,27.3239197 L50.6315243,27.3239197 L50.6315243,47.5634292 L11.6203499,47.5634292 L11.6203499,27.3239197 Z M8.29765607,50.8704205 L53.9542181,50.8704205 L53.9542181,24.0143468 L8.29765607,24.0143468 L8.29765607,50.8704205 Z" id="Fill-1" fill="#279EEE"></path>
                    <path d="M41.5012495,24.0143468 L46.1727339,28.6740808 C46.1416079,28.847046 46.0715746,28.9967771 46.0715746,29.177487 C46.0715746,30.6618898 47.2777046,31.8623199 48.766562,31.8623199 C48.9481299,31.8623199 49.1011658,31.7900359 49.2723584,31.7590571 L53.9542181,36.4084649 L53.9542181,24.0143468 L41.5012495,24.0143468 Z" id="Fill-2" fill="#279EEE"></path>
                    <path d="M47.3062367,37.4488376 C47.3062367,38.9203326 46.1001067,40.1207627 44.6112493,40.1207627 C43.122392,40.1207627 41.916262,38.9203326 41.916262,37.4488376 C41.916262,35.9644348 43.122392,34.7665863 44.6112493,34.7665863 C46.1001067,34.7665863 47.3062367,35.9644348 47.3062367,37.4488376 L47.3062367,37.4488376 Z" id="Fill-3" fill="#279EEE"></path>
                    <path d="M39.2731511,37.4488376 C39.2731511,41.3392637 35.623635,44.496524 31.1259371,44.496524 C26.6282392,44.496524 22.9787231,41.3392637 22.9787231,37.4488376 C22.9787231,33.5455036 26.6282392,30.3882434 31.1259371,30.3882434 C35.623635,30.3882434 39.2731511,33.5455036 39.2731511,37.4488376 L39.2731511,37.4488376 Z" id="Fill-4" fill="#279EEE"></path>
                    <path d="M20.3252369,37.4488376 C20.3252369,38.9203326 19.1294822,40.1207627 17.6406249,40.1207627 C16.1517675,40.1207627 14.9456375,38.9203326 14.9456375,37.4488376 C14.9456375,35.9644348 16.1517675,34.7665863 17.6406249,34.7665863 C19.1294822,34.7665863 20.3252369,35.9644348 20.3252369,37.4488376 L20.3252369,37.4488376 Z" id="Fill-5" fill="#279EEE"></path>
                    <path d="M8.29765607,36.4084649 L12.9691405,31.7590571 C13.1403331,31.7900359 13.3037443,31.8623199 13.4853122,31.8623199 C14.9741696,31.8623199 16.1802996,30.6618898 16.1802996,29.177487 C16.1802996,28.9967771 16.1102663,28.847046 16.0791403,28.6740808 L20.7506247,24.0143468 L8.29765607,24.0143468 L8.29765607,36.4084649 Z" id="Fill-6" fill="#279EEE"></path>
                    <path d="M16.1802996,45.7072803 C16.1802996,44.2254591 14.9741696,43.025029 13.4853122,43.025029 C13.3037443,43.025029 13.1507084,43.0947314 12.9795158,43.1257102 L8.29765607,38.4763025 L8.29765607,50.8704205 L20.7506247,50.8704205 L16.0791403,46.2210128 C16.1102663,46.0506292 16.1802996,45.8879903 16.1802996,45.7072803 L16.1802996,45.7072803 Z" id="Fill-7" fill="#279EEE"></path>
                    <path d="M48.766562,43.025029 C47.2777046,43.025029 46.0715746,44.2254591 46.0715746,45.7072803 C46.0715746,45.8879903 46.1416079,46.0403029 46.1727339,46.2106865 L41.5012495,50.8704205 L53.9542181,50.8704205 L53.9542181,38.4763025 L49.2827337,43.1257102 C49.1115411,43.0947314 48.9481299,43.025029 48.766562,43.025029 L48.766562,43.025029 Z" id="Fill-8" fill="#279EEE"></path>
                    <path d="M41.5012495,16.5432829 C41.5012495,18.0147779 40.2951194,19.215208 38.8062621,19.215208 C37.3174048,19.215208 36.12165,18.0147779 36.12165,16.5432829 C36.12165,15.0614617 37.3174048,13.8610316 38.8062621,13.8610316 C40.2951194,13.8610316 41.5012495,15.0614617 41.5012495,16.5432829 L41.5012495,16.5432829 Z" id="Fill-9" fill="#1C82C6"></path>
                    <path d="M5.18765618,24.0143468 C5.18765618,22.3105105 6.58572952,20.9190443 8.29765607,20.9190443 L9.99920729,20.9190443 L10.0822098,20.6583057 L34.1036517,7.56716372 L35.9374882,8.10154873 C35.9893648,8.26418765 36.0101154,8.43457127 36.1008994,8.59721019 C36.8090144,9.89832152 38.4509076,10.3707488 39.758197,9.65565393 C39.9112328,9.57562526 40.0227675,9.44396518 40.1524589,9.32263139 L41.9888891,9.8570164 L46.1727339,17.4700666 L45.6358114,19.2952367 C45.4724003,19.3468681 45.3012076,19.3675206 45.1377965,19.4475493 C44.5308407,19.7805719 44.1262035,20.3252831 43.9135096,20.9190443 L51.8661865,20.9190443 L46.4969624,11.168454 L40.5181886,0.297462324 L29.5955785,6.25830768 L0.477264369,22.1194744 L5.18765618,30.6902871 L5.18765618,24.0143468 Z" id="Fill-10" fill="#1C82C6"></path>
                    <path d="M23.5778974,16.8040215 C21.7648115,17.7824366 20.4678975,19.2771657 19.7364379,20.9190443 L34.7443273,20.9190443 C34.6224174,20.2943043 34.4382556,19.6798906 34.1244024,19.0938742 C32.2412832,15.6758754 27.5179222,14.6561552 23.5778974,16.8040215 L23.5778974,16.8040215 Z" id="Fill-11" fill="#1C82C6"></path>
                </g>
            </g>
        </g>
    </g>
</svg>