<?xml version="1.0" encoding="UTF-8" standalone="no"?>
<svg width="154px" height="158px" viewBox="0 0 154 158" version="1.1" xmlns="http://www.w3.org/2000/svg" xmlns:xlink="http://www.w3.org/1999/xlink" xmlns:sketch="http://www.bohemiancoding.com/sketch/ns">
    <!-- Generator: Sketch 3.4.3 (16618) - http://www.bohemiancoding.com/sketch -->
    <title>Oval 298 Copy 2 + Group + Group Copy 2</title>
    <desc>Created with Sketch.</desc>
    <defs>
        <linearGradient x1="91.4062108%" y1="-32.8762273%" x2="16.3354027%" y2="123.196752%" id="linearGradient-1">
            <stop stop-color="#FFFFFF" offset="0%"></stop>
            <stop stop-color="#D5DCE9" offset="100%"></stop>
        </linearGradient>
        <path d="M21.03498,33.4237633 C15.2600858,33.4237633 9.79754594,32.6373087 5.66747409,31.1970445 C3.5410069,30.4548973 1.83995128,29.5690282 0.601874824,28.5608987 C0.422306483,28.4169 0.26175821,28.2616859 0.100619251,28.1178257 L0.100619251,38.3638887 C0.100619251,38.6739013 0.15744318,38.9843294 0.270972901,39.2834036 C1.56587329,42.872018 10.364722,45.6412242 21.03498,45.6412242 C31.6954326,45.6412242 40.503496,42.872018 41.7983964,39.2834036 C41.9119261,38.9843294 41.96875,38.6739013 41.96875,38.3638887 L41.96875,28.1178257 C41.8080836,28.2730397 41.6378481,28.4169 41.4676126,28.5608987 C40.2391052,29.5690282 38.5381677,30.4548973 36.4020133,31.1970445 C32.2718233,32.6373087 26.8092835,33.4237633 21.03498,33.4237633 L21.03498,33.4237633 Z M21.03498,18.4237633 C15.2600858,18.4237633 9.79754594,17.6373087 5.66747409,16.1970445 C3.5410069,15.4548973 1.83995128,14.5690282 0.601874824,13.5608987 C0.422306483,13.4169 0.26175821,13.2616859 0.100619251,13.1178257 L0.100619251,23.3638887 C0.100619251,23.6739013 0.15744318,23.9843294 0.270972901,24.2834036 C1.56587329,27.872018 10.364722,30.6412242 21.03498,30.6412242 C31.6954326,30.6412242 40.503496,27.872018 41.7983964,24.2834036 C41.9119261,23.9843294 41.96875,23.6739013 41.96875,23.3638887 L41.96875,13.1178257 C41.8080836,13.2730397 41.6378481,13.4169 41.4676126,13.5608987 C40.2391052,14.5690282 38.5381677,15.4548973 36.4020133,16.1970445 C32.2718233,17.6373087 26.8092835,18.4237633 21.03498,18.4237633 L21.03498,18.4237633 Z M21.03498,77.6957039 C15.2600858,77.6957039 9.79754594,76.9093878 5.66747409,75.4689852 C3.5410069,74.7269764 1.83995128,73.8411073 0.601874824,72.8328394 C0.422306483,72.6889791 0.26175821,72.5337651 0.100619251,72.3899048 L0.100619251,82.6359678 C0.100619251,82.945842 0.15744318,83.2564085 0.270972901,83.5554828 C1.57508798,87.1440971 10.3739367,89.9133033 21.03498,89.9133033 C31.6954326,89.9133033 40.503496,87.1440971 41.7983964,83.5554828 C41.9119261,83.2564085 41.96875,82.945842 41.96875,82.6359678 L41.96875,72.3785511 C41.8080836,72.5337651 41.6378481,72.6776254 41.4676126,72.8220395 C40.2391052,73.8297536 38.5381677,74.7161765 36.4020133,75.4581853 C32.2718233,76.8980341 26.8092835,77.6957039 21.03498,77.6957039 L21.03498,77.6957039 Z M21.03498,48.0477288 C15.2600858,48.0477288 9.79754594,47.2614127 5.66747409,45.8210101 C3.5410069,45.0790013 1.83995128,44.1931322 0.601874824,43.1848642 C0.422306483,43.041004 0.26175821,42.88579 0.100619251,42.7419297 L0.100619251,52.9879927 C0.100619251,53.2978669 0.15744318,53.6084334 0.270972901,53.9075077 C1.57508798,57.496122 10.3739367,60.2653282 21.03498,60.2653282 C31.6954326,60.2653282 40.503496,57.496122 41.7983964,53.9075077 C41.9119261,53.6084334 41.96875,53.2978669 41.96875,52.9879927 L41.96875,42.730576 C41.8080836,42.88579 41.6378481,43.0296502 41.4676126,43.1740643 C40.2391052,44.1817785 38.5381677,45.0682014 36.4020133,45.8102102 C32.2718233,47.250059 26.8092835,48.0477288 21.03498,48.0477288 L21.03498,48.0477288 Z M21.03498,92.446672 C15.2600858,92.446672 9.79754594,91.6603559 5.66747409,90.2205071 C3.5410069,89.4784983 1.83995128,88.591937 0.601874824,87.5843613 C0.422306483,87.4399472 0.26175821,87.285287 0.100619251,87.1414267 L0.100619251,97.3874897 C0.100619251,97.6973639 0.15744318,98.0072381 0.270972901,98.3064508 C1.57508798,101.895481 10.3739367,104.664687 21.03498,104.664687 C31.6954326,104.664687 40.503496,101.895481 41.7983964,98.3064508 C41.9119261,98.0072381 41.96875,97.6973639 41.96875,97.3874897 L41.96875,87.1414267 C41.8080836,87.2960869 41.6378481,87.4399472 41.4676126,87.5843613 C40.2391052,88.591937 38.5381677,89.4784983 36.4020133,90.2205071 C32.2718233,91.6603559 26.8092835,92.446672 21.03498,92.446672 L21.03498,92.446672 Z M21.03498,107.331194 C15.2600858,107.331194 9.79754594,106.544878 5.66747409,105.105029 C3.5410069,104.36302 1.83995128,103.476459 0.601874824,102.468883 C0.422306483,102.324469 0.26175821,102.169809 0.100619251,102.025949 L0.100619251,112.272012 C0.100619251,112.581886 0.15744318,112.89176 0.270972901,113.190973 C1.57508798,116.780003 10.3739367,119.549209 21.03498,119.549209 C31.6954326,119.549209 40.503496,116.780003 41.7983964,113.190973 C41.9119261,112.89176 41.96875,112.581886 41.96875,112.272012 L41.96875,102.025949 C41.8080836,102.180609 41.6378481,102.324469 41.4676126,102.468883 C40.2391052,103.476459 38.5381677,104.36302 36.4020133,105.105029 C32.2718233,106.544878 26.8092835,107.331194 21.03498,107.331194 L21.03498,107.331194 Z M21.03498,62.7986969 C15.2600858,62.7986969 9.79754594,62.0123808 5.66747409,60.572532 C3.5410069,59.8305232 1.83995128,58.9439618 0.601874824,57.9363861 C0.422306483,57.791972 0.26175821,57.6373119 0.100619251,57.4934516 L0.100619251,67.7395146 C0.100619251,68.0493888 0.15744318,68.359263 0.270972901,68.6584757 C1.57508798,72.2475054 10.3739367,75.0167117 21.03498,75.0167117 C31.6954326,75.0167117 40.503496,72.2475054 41.7983964,68.6584757 C41.9119261,68.359263 41.96875,68.0493888 41.96875,67.7395146 L41.96875,57.4934516 C41.8080836,57.6481118 41.6378481,57.791972 41.4676126,57.9363861 C40.2391052,58.9439618 38.5381677,59.8305232 36.4020133,60.572532 C32.2718233,62.0123808 26.8092835,62.7986969 21.03498,62.7986969 L21.03498,62.7986969 Z M41.96875,8.26325019 C41.96875,7.86476141 41.8741222,7.47693408 41.7038867,7.09990665 C41.5151037,6.70127942 41.2410257,6.31345209 40.8723199,5.93711696 C38.0748342,3.05700403 30.2496711,0.996853064 21.03498,0.996853064 C11.8202888,0.996853064 3.9945351,3.06835778 1.1971675,5.93711696 C0.828461717,6.31345209 0.554265586,6.70127942 0.365600691,7.09990665 C0.18603235,7.47693408 0.100619251,7.86476141 0.100619251,8.26325019 C0.100619251,12.2841376 9.47644939,15.5405857 21.03498,15.5405857 C32.5933924,15.5297858 41.96875,12.2731993 41.96875,8.26325019 L41.96875,8.26325019 Z" id="path-2"></path>
        <path d="M21.03498,33.4237633 C15.2600858,33.4237633 9.79754594,32.6373087 5.66747409,31.1970445 C3.5410069,30.4548973 1.83995128,29.5690282 0.601874824,28.5608987 C0.422306483,28.4169 0.26175821,28.2616859 0.100619251,28.1178257 L0.100619251,38.3638887 C0.100619251,38.6739013 0.15744318,38.9843294 0.270972901,39.2834036 C1.56587329,42.872018 10.364722,45.6412242 21.03498,45.6412242 C31.6954326,45.6412242 40.503496,42.872018 41.7983964,39.2834036 C41.9119261,38.9843294 41.96875,38.6739013 41.96875,38.3638887 L41.96875,28.1178257 C41.8080836,28.2730397 41.6378481,28.4169 41.4676126,28.5608987 C40.2391052,29.5690282 38.5381677,30.4548973 36.4020133,31.1970445 C32.2718233,32.6373087 26.8092835,33.4237633 21.03498,33.4237633 L21.03498,33.4237633 Z M21.03498,18.4237633 C15.2600858,18.4237633 9.79754594,17.6373087 5.66747409,16.1970445 C3.5410069,15.4548973 1.83995128,14.5690282 0.601874824,13.5608987 C0.422306483,13.4169 0.26175821,13.2616859 0.100619251,13.1178257 L0.100619251,23.3638887 C0.100619251,23.6739013 0.15744318,23.9843294 0.270972901,24.2834036 C1.56587329,27.872018 10.364722,30.6412242 21.03498,30.6412242 C31.6954326,30.6412242 40.503496,27.872018 41.7983964,24.2834036 C41.9119261,23.9843294 41.96875,23.6739013 41.96875,23.3638887 L41.96875,13.1178257 C41.8080836,13.2730397 41.6378481,13.4169 41.4676126,13.5608987 C40.2391052,14.5690282 38.5381677,15.4548973 36.4020133,16.1970445 C32.2718233,17.6373087 26.8092835,18.4237633 21.03498,18.4237633 L21.03498,18.4237633 Z M21.03498,48.0477288 C15.2600858,48.0477288 9.79754594,47.2614127 5.66747409,45.8210101 C3.5410069,45.0790013 1.83995128,44.1931322 0.601874824,43.1848642 C0.422306483,43.041004 0.26175821,42.88579 0.100619251,42.7419297 L0.100619251,52.9879927 C0.100619251,53.2978669 0.15744318,53.6084334 0.270972901,53.9075077 C1.57508798,57.496122 10.3739367,60.2653282 21.03498,60.2653282 C31.6954326,60.2653282 40.503496,57.496122 41.7983964,53.9075077 C41.9119261,53.6084334 41.96875,53.2978669 41.96875,52.9879927 L41.96875,42.730576 C41.8080836,42.88579 41.6378481,43.0296502 41.4676126,43.1740643 C40.2391052,44.1817785 38.5381677,45.0682014 36.4020133,45.8102102 C32.2718233,47.250059 26.8092835,48.0477288 21.03498,48.0477288 L21.03498,48.0477288 Z M21.03498,62.7986969 C15.2600858,62.7986969 9.79754594,62.0123808 5.66747409,60.572532 C3.5410069,59.8305232 1.83995128,58.9439618 0.601874824,57.9363861 C0.422306483,57.791972 0.26175821,57.6373119 0.100619251,57.4934516 L0.100619251,67.7395146 C0.100619251,68.0493888 0.15744318,68.359263 0.270972901,68.6584757 C1.57508798,72.2475054 10.3739367,75.0167117 21.03498,75.0167117 C31.6954326,75.0167117 40.503496,72.2475054 41.7983964,68.6584757 C41.9119261,68.359263 41.96875,68.0493888 41.96875,67.7395146 L41.96875,57.4934516 C41.8080836,57.6481118 41.6378481,57.791972 41.4676126,57.9363861 C40.2391052,58.9439618 38.5381677,59.8305232 36.4020133,60.572532 C32.2718233,62.0123808 26.8092835,62.7986969 21.03498,62.7986969 L21.03498,62.7986969 Z M41.96875,8.26325019 C41.96875,7.86476141 41.8741222,7.47693408 41.7038867,7.09990665 C41.5151037,6.70127942 41.2410257,6.31345209 40.8723199,5.93711696 C38.0748342,3.05700403 30.2496711,0.996853064 21.03498,0.996853064 C11.8202888,0.996853064 3.9945351,3.06835778 1.1971675,5.93711696 C0.828461717,6.31345209 0.554265586,6.70127942 0.365600691,7.09990665 C0.18603235,7.47693408 0.100619251,7.86476141 0.100619251,8.26325019 C0.100619251,12.2841376 9.47644939,15.5405857 21.03498,15.5405857 C32.5933924,15.5297858 41.96875,12.2731993 41.96875,8.26325019 L41.96875,8.26325019 Z" id="path-4"></path>
    </defs>
    <g id="Page-1" stroke="none" stroke-width="1" fill="none" fill-rule="evenodd" sketch:type="MSPage">
        <g id="3-Cash" sketch:type="MSArtboardGroup" transform="translate(-706.000000, -436.000000)">
            <g id="Oval-298-Copy-2-+-Group-+-Group-Copy-2" sketch:type="MSLayerGroup" transform="translate(706.000000, 435.000000)">
                <ellipse id="Oval-298-Copy-2" fill="url(#linearGradient-1)" sketch:type="MSShapeGroup" cx="76.8956952" cy="82.4163645" rx="76.4420629" ry="75.7294124"></ellipse>
                <g id="Group-+-Group-Copy-2" transform="translate(32.000000, 0.000000)">
                    <g id="Group" transform="translate(48.000000, 0.000000)">
                        <mask id="mask-3" sketch:name="Mask Copy" fill="white">
                            <use xlink:href="#path-2"></use>
                        </mask>
                        <use id="Mask-Copy" fill="#4D73AE" sketch:type="MSShapeGroup" xlink:href="#path-2"></use>
                        <path d="M21,127 L21,14.9955358 L38,-5 L52,3 L52,127 L21,127 Z" id="Path-910-Copy-4" fill="#204581" sketch:type="MSShapeGroup" mask="url(#mask-3)"></path>
                        <path d="M21,127 L21,14.9955358 L38,-5 L52,3 L52,127 L21,127 Z" id="Path-910-Copy-5" fill="#204581" sketch:type="MSShapeGroup" mask="url(#mask-3)"></path>
                        <path d="M-2,12 L-1,40 C-1,40 3,43 5,44 C7,45 17,47 17,47 L31,46 L40,43 L45,38 L45,1 C45,1 27,-10 24,-10 C21,-10 0,-10 0,-7 C0,-4 -2,12 -2,12 Z" id="Path-924-Copy" fill="#63BFFD" sketch:type="MSShapeGroup" mask="url(#mask-3)"></path>
                        <path d="M21,48 L21,14.9955358 L38,-5 L52,3 L54,39 L21,48 Z" id="Path-910-Copy-6" fill="#279EEE" sketch:type="MSShapeGroup" mask="url(#mask-3)"></path>
                    </g>
                    <g id="Group-Copy-2" transform="translate(0.000000, 57.000000)">
                        <mask id="mask-5" sketch:name="Mask Copy" fill="white">
                            <use xlink:href="#path-4"></use>
                        </mask>
                        <use id="Mask-Copy" fill="#4D73AE" sketch:type="MSShapeGroup" xlink:href="#path-4"></use>
                        <path d="M21,127 L21,14.9955358 L38,-5 L52,3 L52,127 L21,127 Z" id="Path-910-Copy-4" fill="#204581" sketch:type="MSShapeGroup" mask="url(#mask-5)"></path>
                        <path d="M21,127 L21,14.9955358 L38,-5 L52,3 L52,127 L21,127 Z" id="Path-910-Copy-5" fill="#204581" sketch:type="MSShapeGroup" mask="url(#mask-5)"></path>
                        <path d="M-2,12 L-1,40 C-1,40 3,43 5,44 C7,45 17,47 17,47 L31,46 L40,43 L45,38 L45,1 C45,1 27,-10 24,-10 C21,-10 0,-10 0,-7 C0,-4 -2,12 -2,12 Z" id="Path-924-Copy" fill="#4D73AE" sketch:type="MSShapeGroup" mask="url(#mask-5)"></path>
                        <path d="M21,48 L21,14.9955358 L38,-5 L52,3 L54,39 L21,48 Z" id="Path-910-Copy-6" fill="#204581" sketch:type="MSShapeGroup" mask="url(#mask-5)"></path>
                    </g>
                </g>
            </g>
        </g>
    </g>
</svg>