<?xml version="1.0" encoding="UTF-8" standalone="no"?>
<svg width="347px" height="347px" viewBox="0 0 347 347" version="1.1" xmlns="http://www.w3.org/2000/svg" xmlns:xlink="http://www.w3.org/1999/xlink" xmlns:sketch="http://www.bohemiancoding.com/sketch/ns">
    <!-- Generator: Sketch 3.4.3 (16618) - http://www.bohemiancoding.com/sketch -->
    <title>Group</title>
    <desc>Created with Sketch.</desc>
    <defs></defs>
    <g id="Page-1" stroke="none" stroke-width="1" fill="none" fill-rule="evenodd" sketch:type="MSPage">
        <g id="12-Managed-Funds_Cash" sketch:type="MSArtboardGroup" transform="translate(-410.000000, -249.000000)">
            <g id="Group" sketch:type="MSLayerGroup" transform="translate(339.000000, 178.000000)">
                <path d="M36.1658688,158.298946 C36.1658688,253.689382 113.496024,331.018947 208.88719,331.018947 L208.88719,158.298946 L36.1658688,158.298946" id="Fill-2-Copy-2" fill="#142C5A" sketch:type="MSShapeGroup" transform="translate(122.526529, 244.658946) rotate(-315.000000) translate(-122.526529, -244.658946) "></path>
                <path d="M158.299219,36.1674616 C158.299219,131.557898 235.629375,208.887463 331.02054,208.887463 L331.02054,36.1674616 L158.299219,36.1674616" id="Fill-2-Copy-4" fill="#061A40" sketch:type="MSShapeGroup" transform="translate(244.659879, 122.527462) rotate(-225.000000) translate(-244.659879, -122.527462) "></path>
                <path d="M280.430237,158.298479 C280.430237,253.688915 357.760392,331.01848 453.151557,331.01848 L453.151557,158.298479 L280.430237,158.298479" id="Fill-2-Copy-5" fill="#020F28" sketch:type="MSShapeGroup" transform="translate(366.790897, 244.658480) rotate(-135.000000) translate(-366.790897, -244.658480) "></path>
                <path d="M158.298286,280.431363 C158.298286,375.821799 235.628442,453.151364 331.019607,453.151364 L331.019607,280.431363 L158.298286,280.431363" id="Fill-2-Copy-3" fill="#2A4373" sketch:type="MSShapeGroup" transform="translate(244.658946, 366.791363) rotate(-45.000000) translate(-244.658946, -366.791363) "></path>
                <text id="BANK-THREE" sketch:type="MSTextLayer" font-family="Open Sans" font-size="12" font-weight="bold" sketch:alignment="middle" line-spacing="15" letter-spacing="0.599999964" fill="#FFFFFF">
                    <tspan x="96.5429689" y="273">BANK THREE</tspan>
                </text>
                <g id="banking2-(1)-copy-2" transform="translate(133.000000, 227.000000)" fill="#FFFFFF" sketch:type="MSShapeGroup">
                    <path d="M26.474359,24.5707105 L1.94348718,24.5707105 C1.26789744,24.5707105 0.717948718,25.1149737 0.717948718,25.7864211 C0.717948718,26.4557368 1.26789744,26.9992895 1.94348718,26.9992895 L26.474359,26.9992895 C27.1528205,26.9992895 27.7027692,26.4557368 27.7027692,25.7864211 C27.6998974,25.1149737 27.1528205,24.5707105 26.474359,24.5707105 L26.474359,24.5707105 Z" id="Fill-1"></path>
                    <path d="M3.47774359,21.4152632 C2.7985641,21.4152632 2.25220513,21.9588158 2.25220513,22.6281316 C2.25220513,23.2995789 2.7985641,23.8438421 3.47774359,23.8438421 L24.9401026,23.8438421 C25.6192821,23.8438421 26.1685128,23.2995789 26.1685128,22.6281316 C26.1685128,21.9588158 25.6192821,21.4152632 24.9401026,21.4152632 L24.6342564,21.4152632 L24.6342564,10.4909211 L24.9401026,10.4909211 C25.2796923,10.4909211 25.5546667,10.2187895 25.5546667,9.88271053 C25.5546667,9.55018421 25.2796923,9.27805263 24.9401026,9.27805263 L3.47774359,9.27805263 C3.13815385,9.27805263 2.86605128,9.55018421 2.86605128,9.88271053 C2.86605128,10.2187895 3.13815385,10.4909211 3.47774359,10.4909211 L3.78358974,10.4909211 L3.78358974,21.4152632 L3.47774359,21.4152632 Z M18.5015385,10.4909211 L22.1810256,10.4909211 L22.1810256,21.4152632 L18.5015385,21.4152632 L18.5015385,10.4909211 Z M12.3702564,10.4909211 L16.0497436,10.4909211 L16.0497436,21.4152632 L12.3702564,21.4152632 L12.3702564,10.4909211 Z M6.23753846,10.4909211 L9.91630769,10.4909211 L9.91630769,21.4152632 L6.23753846,21.4152632 L6.23753846,10.4909211 Z" id="Fill-3"></path>
                    <path d="M1.94348718,8.18739474 L26.4858462,8.18739474 C27.1643077,8.18739474 27.7142564,7.64313158 27.7142564,6.97168421 C27.7142564,6.43878947 27.3660513,5.98618421 26.8835897,5.82276316 L14.7122051,0.402157895 C14.3927179,0.260052632 14.028,0.260052632 13.7085128,0.402157895 L1.44164103,5.86397368 C0.913948718,6.09986842 0.622461538,6.669 0.745948718,7.22676316 C0.866564103,7.78736842 1.36553846,8.18739474 1.94348718,8.18739474 L1.94348718,8.18739474 Z" id="Fill-4"></path>
                </g>
                <text id="BANK-TWO" sketch:type="MSTextLayer" font-family="Open Sans" font-size="12" font-weight="bold" sketch:alignment="middle" line-spacing="15" letter-spacing="0.599999964" fill="#FFFFFF">
                    <tspan x="206.706445" y="169">BANK TWO</tspan>
                </text>
                <g id="banking2-(1)-copy" transform="translate(233.000000, 123.000000)" fill="#FFFFFF" sketch:type="MSShapeGroup">
                    <path d="M26.474359,24.5707105 L1.94348718,24.5707105 C1.26789744,24.5707105 0.717948718,25.1149737 0.717948718,25.7864211 C0.717948718,26.4557368 1.26789744,26.9992895 1.94348718,26.9992895 L26.474359,26.9992895 C27.1528205,26.9992895 27.7027692,26.4557368 27.7027692,25.7864211 C27.6998974,25.1149737 27.1528205,24.5707105 26.474359,24.5707105 L26.474359,24.5707105 Z" id="Fill-1"></path>
                    <path d="M3.47774359,21.4152632 C2.7985641,21.4152632 2.25220513,21.9588158 2.25220513,22.6281316 C2.25220513,23.2995789 2.7985641,23.8438421 3.47774359,23.8438421 L24.9401026,23.8438421 C25.6192821,23.8438421 26.1685128,23.2995789 26.1685128,22.6281316 C26.1685128,21.9588158 25.6192821,21.4152632 24.9401026,21.4152632 L24.6342564,21.4152632 L24.6342564,10.4909211 L24.9401026,10.4909211 C25.2796923,10.4909211 25.5546667,10.2187895 25.5546667,9.88271053 C25.5546667,9.55018421 25.2796923,9.27805263 24.9401026,9.27805263 L3.47774359,9.27805263 C3.13815385,9.27805263 2.86605128,9.55018421 2.86605128,9.88271053 C2.86605128,10.2187895 3.13815385,10.4909211 3.47774359,10.4909211 L3.78358974,10.4909211 L3.78358974,21.4152632 L3.47774359,21.4152632 Z M18.5015385,10.4909211 L22.1810256,10.4909211 L22.1810256,21.4152632 L18.5015385,21.4152632 L18.5015385,10.4909211 Z M12.3702564,10.4909211 L16.0497436,10.4909211 L16.0497436,21.4152632 L12.3702564,21.4152632 L12.3702564,10.4909211 Z M6.23753846,10.4909211 L9.91630769,10.4909211 L9.91630769,21.4152632 L6.23753846,21.4152632 L6.23753846,10.4909211 Z" id="Fill-3"></path>
                    <path d="M1.94348718,8.18739474 L26.4858462,8.18739474 C27.1643077,8.18739474 27.7142564,7.64313158 27.7142564,6.97168421 C27.7142564,6.43878947 27.3660513,5.98618421 26.8835897,5.82276316 L14.7122051,0.402157895 C14.3927179,0.260052632 14.028,0.260052632 13.7085128,0.402157895 L1.44164103,5.86397368 C0.913948718,6.09986842 0.622461538,6.669 0.745948718,7.22676316 C0.866564103,7.78736842 1.36553846,8.18739474 1.94348718,8.18739474 L1.94348718,8.18739474 Z" id="Fill-4"></path>
                </g>
                <text id="BANK-ONE" sketch:type="MSTextLayer" font-family="Open Sans" font-size="12" font-weight="bold" sketch:alignment="middle" letter-spacing="0.599999964" fill="#FFFFFF">
                    <tspan x="314.806055" y="271">BANK ONE</tspan>
                </text>
                <g id="banking2-(1)" transform="translate(334.500000, 230.000000)" fill="#FFFFFF" sketch:type="MSShapeGroup">
                    <path d="M26.474359,20.2347028 L1.94348718,20.2347028 C1.26789744,20.2347028 0.717948718,20.6829195 0.717948718,21.2358762 C0.717948718,21.7870774 1.26789744,22.234709 1.94348718,22.234709 L26.474359,22.234709 C27.1528205,22.234709 27.7027692,21.7870774 27.7027692,21.2358762 C27.6998974,20.6829195 27.1528205,20.2347028 26.474359,20.2347028 L26.474359,20.2347028 Z" id="Fill-1"></path>
                    <path d="M3.47774359,17.6360991 C2.7985641,17.6360991 2.25220513,18.0837307 2.25220513,18.6349319 C2.25220513,19.1878885 2.7985641,19.6361053 3.47774359,19.6361053 L24.9401026,19.6361053 C25.6192821,19.6361053 26.1685128,19.1878885 26.1685128,18.6349319 C26.1685128,18.0837307 25.6192821,17.6360991 24.9401026,17.6360991 L24.6342564,17.6360991 L24.6342564,8.63958204 L24.9401026,8.63958204 C25.2796923,8.63958204 25.5546667,8.41547368 25.5546667,8.13870279 C25.5546667,7.86485759 25.2796923,7.64074923 24.9401026,7.64074923 L3.47774359,7.64074923 C3.13815385,7.64074923 2.86605128,7.86485759 2.86605128,8.13870279 C2.86605128,8.41547368 3.13815385,8.63958204 3.47774359,8.63958204 L3.78358974,8.63958204 L3.78358974,17.6360991 L3.47774359,17.6360991 Z M18.5015385,8.63958204 L22.1810256,8.63958204 L22.1810256,17.6360991 L18.5015385,17.6360991 L18.5015385,8.63958204 Z M12.3702564,8.63958204 L16.0497436,8.63958204 L16.0497436,17.6360991 L12.3702564,17.6360991 L12.3702564,8.63958204 Z M6.23753846,8.63958204 L9.91630769,8.63958204 L9.91630769,17.6360991 L6.23753846,17.6360991 L6.23753846,8.63958204 Z" id="Fill-3"></path>
                    <path d="M1.94348718,6.74256037 L26.4858462,6.74256037 C27.1643077,6.74256037 27.7142564,6.29434365 27.7142564,5.741387 C27.7142564,5.30253251 27.3660513,4.92979876 26.8835897,4.79521672 L14.7122051,0.331188854 C14.3927179,0.214160991 14.028,0.214160991 13.7085128,0.331188854 L1.44164103,4.8291548 C0.913948718,5.02342105 0.622461538,5.49211765 0.745948718,5.95145201 C0.866564103,6.41312693 1.36553846,6.74256037 1.94348718,6.74256037 L1.94348718,6.74256037 Z" id="Fill-4"></path>
                </g>
                <text id="BANK-FOUR" sketch:type="MSTextLayer" font-family="Open Sans" font-size="12" font-weight="bold" sketch:alignment="middle" letter-spacing="0.599999964" fill="#FFFFFF">
                    <tspan x="206.455274" y="351">BANK FOUR</tspan>
                </text>
                <g id="banking2-(1)" transform="translate(230.000000, 304.000000)" fill="#FFFFFF" sketch:type="MSShapeGroup">
                    <path d="M26.474359,24.5707105 L1.94348718,24.5707105 C1.26789744,24.5707105 0.717948718,25.1149737 0.717948718,25.7864211 C0.717948718,26.4557368 1.26789744,26.9992895 1.94348718,26.9992895 L26.474359,26.9992895 C27.1528205,26.9992895 27.7027692,26.4557368 27.7027692,25.7864211 C27.6998974,25.1149737 27.1528205,24.5707105 26.474359,24.5707105 L26.474359,24.5707105 Z" id="Fill-1"></path>
                    <path d="M3.47774359,21.4152632 C2.7985641,21.4152632 2.25220513,21.9588158 2.25220513,22.6281316 C2.25220513,23.2995789 2.7985641,23.8438421 3.47774359,23.8438421 L24.9401026,23.8438421 C25.6192821,23.8438421 26.1685128,23.2995789 26.1685128,22.6281316 C26.1685128,21.9588158 25.6192821,21.4152632 24.9401026,21.4152632 L24.6342564,21.4152632 L24.6342564,10.4909211 L24.9401026,10.4909211 C25.2796923,10.4909211 25.5546667,10.2187895 25.5546667,9.88271053 C25.5546667,9.55018421 25.2796923,9.27805263 24.9401026,9.27805263 L3.47774359,9.27805263 C3.13815385,9.27805263 2.86605128,9.55018421 2.86605128,9.88271053 C2.86605128,10.2187895 3.13815385,10.4909211 3.47774359,10.4909211 L3.78358974,10.4909211 L3.78358974,21.4152632 L3.47774359,21.4152632 Z M18.5015385,10.4909211 L22.1810256,10.4909211 L22.1810256,21.4152632 L18.5015385,21.4152632 L18.5015385,10.4909211 Z M12.3702564,10.4909211 L16.0497436,10.4909211 L16.0497436,21.4152632 L12.3702564,21.4152632 L12.3702564,10.4909211 Z M6.23753846,10.4909211 L9.91630769,10.4909211 L9.91630769,21.4152632 L6.23753846,21.4152632 L6.23753846,10.4909211 Z" id="Fill-3"></path>
                    <path d="M1.94348718,8.18739474 L26.4858462,8.18739474 C27.1643077,8.18739474 27.7142564,7.64313158 27.7142564,6.97168421 C27.7142564,6.43878947 27.3660513,5.98618421 26.8835897,5.82276316 L14.7122051,0.402157895 C14.3927179,0.260052632 14.028,0.260052632 13.7085128,0.402157895 L1.44164103,5.86397368 C0.913948718,6.09986842 0.622461538,6.669 0.745948718,7.22676316 C0.866564103,7.78736842 1.36553846,8.18739474 1.94348718,8.18739474 L1.94348718,8.18739474 Z" id="Fill-4"></path>
                </g>
            </g>
        </g>
    </g>
</svg>