<?xml version="1.0" encoding="UTF-8" standalone="no"?>
<svg width="346px" height="346px" viewBox="0 0 346 346" version="1.1" xmlns="http://www.w3.org/2000/svg" xmlns:xlink="http://www.w3.org/1999/xlink" xmlns:sketch="http://www.bohemiancoding.com/sketch/ns">
    <!-- Generator: Sketch 3.4.4 (17249) - http://www.bohemiancoding.com/sketch -->
    <title>Group</title>
    <desc>Created with Sketch.</desc>
    <defs></defs>
    <g id="Page-1" stroke="none" stroke-width="1" fill="none" fill-rule="evenodd" sketch:type="MSPage">
        <g id="12-Managed-Funds_Cash" sketch:type="MSArtboardGroup" transform="translate(-340.000000, -264.000000)">
            <g id="Group" sketch:type="MSLayerGroup" transform="translate(340.000000, 264.000000)">
                <g id="Imported-Layers" sketch:type="MSShapeGroup">
                    <path d="M172.911885,172.965477 L8.98816838,119.536578 C32.5211827,46.8845937 96.7584327,0.0672211644 172.911885,0.0672211644 L172.911885,172.965477" id="Fill-1" fill="#E9780F"></path>
                    <path d="M172.911885,172.965477 L274.222847,312.842962 C197.211212,368.969382 89.4228074,351.844248 33.4701556,274.591951 C-0.100570785,228.24079 -8.66078177,174.025837 8.98816838,119.536578 L172.911885,172.965477" id="Fill-2" fill="#F87C09"></path>
                    <path d="M172.911885,172.965477 L172.911885,0.0672211644 C268.103161,0.0672211644 345.271517,77.4756446 345.271517,172.965477 C345.271517,230.258509 320.429612,279.166243 274.222847,312.842962 L172.911885,172.965477" id="Fill-3" fill="#F58C23"></path>
                </g>
                <text id="BANK-THREE" sketch:type="MSTextLayer" font-family="Open Sans, sans-serif" font-size="12" font-weight="bold" sketch:alignment="middle" line-spacing="15" letter-spacing="0.599999964" fill="#FFFFFF">
                    <tspan x="74.3515627" y="259.5">BANK THREE</tspan>
                </text>
                <text id="BANK-ONE" sketch:type="MSTextLayer" font-family="Open Sans, sans-serif" font-size="12" font-weight="bold" sketch:alignment="middle" letter-spacing="0.599999964" fill="#FFFFFF">
                    <tspan x="74.1146486" y="110">BANK ONE</tspan>
                </text>
                <text id="BANK-TWO" sketch:type="MSTextLayer" font-family="Open Sans, sans-serif" font-size="12" font-weight="bold" sketch:alignment="middle" line-spacing="15" letter-spacing="0.599999964" fill="#FFFFFF">
                    <tspan x="209.706445" y="168.65625">BANK TWO</tspan>
                </text>
                <g id="banking2-(1)" transform="translate(94.000000, 63.000000)" fill="#FFFFFF" sketch:type="MSShapeGroup">
                    <path d="M26.474359,24.5707105 L1.94348718,24.5707105 C1.26789744,24.5707105 0.717948718,25.1149737 0.717948718,25.7864211 C0.717948718,26.4557368 1.26789744,26.9992895 1.94348718,26.9992895 L26.474359,26.9992895 C27.1528205,26.9992895 27.7027692,26.4557368 27.7027692,25.7864211 C27.6998974,25.1149737 27.1528205,24.5707105 26.474359,24.5707105 L26.474359,24.5707105 Z" id="Fill-1"></path>
                    <path d="M3.47774359,21.4152632 C2.7985641,21.4152632 2.25220513,21.9588158 2.25220513,22.6281316 C2.25220513,23.2995789 2.7985641,23.8438421 3.47774359,23.8438421 L24.9401026,23.8438421 C25.6192821,23.8438421 26.1685128,23.2995789 26.1685128,22.6281316 C26.1685128,21.9588158 25.6192821,21.4152632 24.9401026,21.4152632 L24.6342564,21.4152632 L24.6342564,10.4909211 L24.9401026,10.4909211 C25.2796923,10.4909211 25.5546667,10.2187895 25.5546667,9.88271053 C25.5546667,9.55018421 25.2796923,9.27805263 24.9401026,9.27805263 L3.47774359,9.27805263 C3.13815385,9.27805263 2.86605128,9.55018421 2.86605128,9.88271053 C2.86605128,10.2187895 3.13815385,10.4909211 3.47774359,10.4909211 L3.78358974,10.4909211 L3.78358974,21.4152632 L3.47774359,21.4152632 Z M18.5015385,10.4909211 L22.1810256,10.4909211 L22.1810256,21.4152632 L18.5015385,21.4152632 L18.5015385,10.4909211 Z M12.3702564,10.4909211 L16.0497436,10.4909211 L16.0497436,21.4152632 L12.3702564,21.4152632 L12.3702564,10.4909211 Z M6.23753846,10.4909211 L9.91630769,10.4909211 L9.91630769,21.4152632 L6.23753846,21.4152632 L6.23753846,10.4909211 Z" id="Fill-3"></path>
                    <path d="M1.94348718,8.18739474 L26.4858462,8.18739474 C27.1643077,8.18739474 27.7142564,7.64313158 27.7142564,6.97168421 C27.7142564,6.43878947 27.3660513,5.98618421 26.8835897,5.82276316 L14.7122051,0.402157895 C14.3927179,0.260052632 14.028,0.260052632 13.7085128,0.402157895 L1.44164103,5.86397368 C0.913948718,6.09986842 0.622461538,6.669 0.745948718,7.22676316 C0.866564103,7.78736842 1.36553846,8.18739474 1.94348718,8.18739474 L1.94348718,8.18739474 Z" id="Fill-4"></path>
                </g>
                <g id="banking2-(1)-copy" transform="translate(236.000000, 123.000000)" fill="#FFFFFF" sketch:type="MSShapeGroup">
                    <path d="M26.474359,24.5707105 L1.94348718,24.5707105 C1.26789744,24.5707105 0.717948718,25.1149737 0.717948718,25.7864211 C0.717948718,26.4557368 1.26789744,26.9992895 1.94348718,26.9992895 L26.474359,26.9992895 C27.1528205,26.9992895 27.7027692,26.4557368 27.7027692,25.7864211 C27.6998974,25.1149737 27.1528205,24.5707105 26.474359,24.5707105 L26.474359,24.5707105 Z" id="Fill-1"></path>
                    <path d="M3.47774359,21.4152632 C2.7985641,21.4152632 2.25220513,21.9588158 2.25220513,22.6281316 C2.25220513,23.2995789 2.7985641,23.8438421 3.47774359,23.8438421 L24.9401026,23.8438421 C25.6192821,23.8438421 26.1685128,23.2995789 26.1685128,22.6281316 C26.1685128,21.9588158 25.6192821,21.4152632 24.9401026,21.4152632 L24.6342564,21.4152632 L24.6342564,10.4909211 L24.9401026,10.4909211 C25.2796923,10.4909211 25.5546667,10.2187895 25.5546667,9.88271053 C25.5546667,9.55018421 25.2796923,9.27805263 24.9401026,9.27805263 L3.47774359,9.27805263 C3.13815385,9.27805263 2.86605128,9.55018421 2.86605128,9.88271053 C2.86605128,10.2187895 3.13815385,10.4909211 3.47774359,10.4909211 L3.78358974,10.4909211 L3.78358974,21.4152632 L3.47774359,21.4152632 Z M18.5015385,10.4909211 L22.1810256,10.4909211 L22.1810256,21.4152632 L18.5015385,21.4152632 L18.5015385,10.4909211 Z M12.3702564,10.4909211 L16.0497436,10.4909211 L16.0497436,21.4152632 L12.3702564,21.4152632 L12.3702564,10.4909211 Z M6.23753846,10.4909211 L9.91630769,10.4909211 L9.91630769,21.4152632 L6.23753846,21.4152632 L6.23753846,10.4909211 Z" id="Fill-3"></path>
                    <path d="M1.94348718,8.18739474 L26.4858462,8.18739474 C27.1643077,8.18739474 27.7142564,7.64313158 27.7142564,6.97168421 C27.7142564,6.43878947 27.3660513,5.98618421 26.8835897,5.82276316 L14.7122051,0.402157895 C14.3927179,0.260052632 14.028,0.260052632 13.7085128,0.402157895 L1.44164103,5.86397368 C0.913948718,6.09986842 0.622461538,6.669 0.745948718,7.22676316 C0.866564103,7.78736842 1.36553846,8.18739474 1.94348718,8.18739474 L1.94348718,8.18739474 Z" id="Fill-4"></path>
                </g>
                <g id="banking2-(1)-copy-2" transform="translate(110.000000, 214.000000)" fill="#FFFFFF" sketch:type="MSShapeGroup">
                    <path d="M26.474359,24.5707105 L1.94348718,24.5707105 C1.26789744,24.5707105 0.717948718,25.1149737 0.717948718,25.7864211 C0.717948718,26.4557368 1.26789744,26.9992895 1.94348718,26.9992895 L26.474359,26.9992895 C27.1528205,26.9992895 27.7027692,26.4557368 27.7027692,25.7864211 C27.6998974,25.1149737 27.1528205,24.5707105 26.474359,24.5707105 L26.474359,24.5707105 Z" id="Fill-1"></path>
                    <path d="M3.47774359,21.4152632 C2.7985641,21.4152632 2.25220513,21.9588158 2.25220513,22.6281316 C2.25220513,23.2995789 2.7985641,23.8438421 3.47774359,23.8438421 L24.9401026,23.8438421 C25.6192821,23.8438421 26.1685128,23.2995789 26.1685128,22.6281316 C26.1685128,21.9588158 25.6192821,21.4152632 24.9401026,21.4152632 L24.6342564,21.4152632 L24.6342564,10.4909211 L24.9401026,10.4909211 C25.2796923,10.4909211 25.5546667,10.2187895 25.5546667,9.88271053 C25.5546667,9.55018421 25.2796923,9.27805263 24.9401026,9.27805263 L3.47774359,9.27805263 C3.13815385,9.27805263 2.86605128,9.55018421 2.86605128,9.88271053 C2.86605128,10.2187895 3.13815385,10.4909211 3.47774359,10.4909211 L3.78358974,10.4909211 L3.78358974,21.4152632 L3.47774359,21.4152632 Z M18.5015385,10.4909211 L22.1810256,10.4909211 L22.1810256,21.4152632 L18.5015385,21.4152632 L18.5015385,10.4909211 Z M12.3702564,10.4909211 L16.0497436,10.4909211 L16.0497436,21.4152632 L12.3702564,21.4152632 L12.3702564,10.4909211 Z M6.23753846,10.4909211 L9.91630769,10.4909211 L9.91630769,21.4152632 L6.23753846,21.4152632 L6.23753846,10.4909211 Z" id="Fill-3"></path>
                    <path d="M1.94348718,8.18739474 L26.4858462,8.18739474 C27.1643077,8.18739474 27.7142564,7.64313158 27.7142564,6.97168421 C27.7142564,6.43878947 27.3660513,5.98618421 26.8835897,5.82276316 L14.7122051,0.402157895 C14.3927179,0.260052632 14.028,0.260052632 13.7085128,0.402157895 L1.44164103,5.86397368 C0.913948718,6.09986842 0.622461538,6.669 0.745948718,7.22676316 C0.866564103,7.78736842 1.36553846,8.18739474 1.94348718,8.18739474 L1.94348718,8.18739474 Z" id="Fill-4"></path>
                </g>
            </g>
        </g>
    </g>
</svg>