<?xml version="1.0" encoding="UTF-8" standalone="no"?>
<svg width="346px" height="346px" viewBox="0 0 346 346" version="1.1" xmlns="http://www.w3.org/2000/svg" xmlns:xlink="http://www.w3.org/1999/xlink" xmlns:sketch="http://www.bohemiancoding.com/sketch/ns">
    <!-- Generator: Sketch 3.4.4 (17249) - http://www.bohemiancoding.com/sketch -->
    <title>Group</title>
    <desc>Created with Sketch.</desc>
    <defs></defs>
    <g id="Page-1" stroke="none" stroke-width="1" fill="none" fill-rule="evenodd" sketch:type="MSPage">
        <g id="11-Managed-Funds_Fixed" sketch:type="MSArtboardGroup" transform="translate(-340.000000, -264.000000)">
            <g id="Group" sketch:type="MSLayerGroup" transform="translate(340.000000, 264.000000)">
                <g id="Imported-Layers-Copy" transform="translate(173.000000, 173.000000) rotate(-90.000000) translate(-173.000000, -173.000000) " sketch:type="MSShapeGroup">
                    <path d="M172.865116,345.561239 L172.865116,173.039016 L0.0048865543,173.039016 C0.0048865543,268.320223 77.3965047,345.561239 172.865116,345.561239 Z" id="Fill-1" fill="#92A1BE"></path>
                    <path d="M172.658252,0.516794034 L172.658252,345.561239 C268.760486,345.561239 345.516852,268.320223 345.516852,173.039016 C345.516852,77.7578101 268.760486,0.516794034 172.658252,0.516794034" id="Fill-2" fill="#A6B4CE"></path>
                    <path d="M269.456006,30.2765238 C241.783449,11.4966484 208.492983,0.516794034 172.658252,0.516794034 C136.82352,0.516794034 103.257779,11.4966484 75.5852219,30.2765238 C30.1809882,61.5643944 0.00651540573,114.620143 0.00651540573,173 L172.63219,173 L269.456006,30.2765238 Z" id="Fill-3" fill="#B2C2DD"></path>
                </g>
                <text id="ASSET-BACKED-BONDS" sketch:type="MSTextLayer" font-family="Open Sans" font-size="12" font-weight="bold" sketch:alignment="middle" line-spacing="15" letter-spacing="0.599999964" fill="#FFFFFF">
                    <tspan x="195.895738" y="258.692392">ASSET-BACKED </tspan>
                    <tspan x="219.679527" y="273.692392">BONDS</tspan>
                </text>
                <text id="GOVERNMENT" sketch:type="MSTextLayer" font-family="Open Sans" font-size="12" font-weight="bold" sketch:alignment="middle" line-spacing="15" letter-spacing="0.599999964" fill="#FFFFFF">
                    <tspan x="46.8957377" y="230.692392">GOVERNMENT</tspan>
                    <tspan x="69.495347" y="245.692392">BONDS</tspan>
                </text>
                <text id="CORPORATE" sketch:type="MSTextLayer" font-family="Open Sans" font-size="12" font-weight="bold" sketch:alignment="middle" line-spacing="15" letter-spacing="0.599999964" fill="#FFFFFF">
                    <tspan x="144.371289" y="108.692392">CORPORATE</tspan>
                    <tspan x="159.639649" y="123.692392">BONDS</tspan>
                </text>
                <g id="file249-copy" transform="translate(84.000000, 181.000000)" fill="#FFFFFF" sketch:type="MSShapeGroup">
                    <path d="M21.5052875,24.8355707 L21.5052875,28.7838182 L20.4086188,27.6481313 C20.2401438,27.4764747 20.02955,27.3906465 19.8088938,27.3906465 C19.5882375,27.3906465 19.3529188,27.4764747 19.1844437,27.6481313 L18.0547125,28.7838182 L18.0547125,24.8127222 C18.6297125,25.0341768 19.1889,25.1566212 19.8088938,25.1566212 C20.4063188,25.1566212 21.0447125,25.0420859 21.5052875,24.8355707 L21.5052875,24.8355707 Z M16.8311125,20.3266566 C16.8311125,22.0206667 18.184375,23.3994848 19.8469875,23.3994848 C21.5103187,23.3994848 22.8630062,22.0206667 22.8630062,20.3266566 C22.8630062,18.6320606 21.5103187,17.2538283 19.8469875,17.2538283 C18.184375,17.2538283 16.8311125,18.6320606 16.8311125,20.3266566 L16.8311125,20.3266566 Z M16.3302875,23.603803 L16.3302875,28.8536818 L0.9007375,28.8536818 C0.42449375,28.8536818 0,28.4599848 0,27.9748939 L0,0.908080808 C0,0.422843434 0.42449375,0.0292929293 0.9007375,0.0292929293 L19.8757375,0.0292929293 C20.3518375,0.0292929293 20.7,0.422843434 20.7,0.908080808 L20.7,15.5825202 C20.4697125,15.5265707 20.1329063,15.4962525 19.8280125,15.4962525 C17.2134875,15.4962525 15.0775063,17.662904 15.0775063,20.3266566 C15.0775063,21.5905 15.6401438,22.7415657 16.3302875,23.603803 L16.3302875,23.603803 Z M6.6507375,6.76666667 C6.6507375,7.25175758 7.03699375,7.64545455 7.5132375,7.64545455 L13.2632375,7.64545455 C13.7399125,7.64545455 14.1257375,7.25175758 14.1257375,6.76666667 C14.1257375,6.28142929 13.7399125,5.88787879 13.2632375,5.88787879 L7.5132375,5.88787879 C7.03699375,5.88787879 6.6507375,6.28142929 6.6507375,6.76666667 L6.6507375,6.76666667 Z M4.6382375,11.5118283 L16.0230938,11.5118283 C16.4997688,11.5118283 16.8855938,11.1188636 16.8855938,10.6330404 C16.8855938,10.1479495 16.4997688,9.75425253 16.0230938,9.75425253 L4.6382375,9.75425253 C4.16199375,9.75425253 3.7757375,10.1479495 3.7757375,10.6330404 C3.7757375,11.1188636 4.16199375,11.5118283 4.6382375,11.5118283 L4.6382375,11.5118283 Z M15.1032375,15.3789343 C15.5794813,15.3789343 15.9657375,14.9852374 15.9657375,14.5001465 C15.9657375,14.0143232 15.5794813,13.6213586 15.1032375,13.6213586 L5.558525,13.6213586 C5.08185,13.6213586 4.696025,14.0143232 4.696025,14.5001465 C4.696025,14.9852374 5.08185,15.3789343 5.558525,15.3789343 L15.1032375,15.3789343 Z" id="Fill-1"></path>
                </g>
                <g id="file249-copy-2" transform="translate(179.000000, 59.000000)" fill="#FFFFFF" sketch:type="MSShapeGroup">
                    <path d="M21.5052875,24.8355707 L21.5052875,28.7838182 L20.4086188,27.6481313 C20.2401438,27.4764747 20.02955,27.3906465 19.8088938,27.3906465 C19.5882375,27.3906465 19.3529188,27.4764747 19.1844437,27.6481313 L18.0547125,28.7838182 L18.0547125,24.8127222 C18.6297125,25.0341768 19.1889,25.1566212 19.8088938,25.1566212 C20.4063188,25.1566212 21.0447125,25.0420859 21.5052875,24.8355707 L21.5052875,24.8355707 Z M16.8311125,20.3266566 C16.8311125,22.0206667 18.184375,23.3994848 19.8469875,23.3994848 C21.5103187,23.3994848 22.8630062,22.0206667 22.8630062,20.3266566 C22.8630062,18.6320606 21.5103187,17.2538283 19.8469875,17.2538283 C18.184375,17.2538283 16.8311125,18.6320606 16.8311125,20.3266566 L16.8311125,20.3266566 Z M16.3302875,23.603803 L16.3302875,28.8536818 L0.9007375,28.8536818 C0.42449375,28.8536818 0,28.4599848 0,27.9748939 L0,0.908080808 C0,0.422843434 0.42449375,0.0292929293 0.9007375,0.0292929293 L19.8757375,0.0292929293 C20.3518375,0.0292929293 20.7,0.422843434 20.7,0.908080808 L20.7,15.5825202 C20.4697125,15.5265707 20.1329063,15.4962525 19.8280125,15.4962525 C17.2134875,15.4962525 15.0775063,17.662904 15.0775063,20.3266566 C15.0775063,21.5905 15.6401438,22.7415657 16.3302875,23.603803 L16.3302875,23.603803 Z M6.6507375,6.76666667 C6.6507375,7.25175758 7.03699375,7.64545455 7.5132375,7.64545455 L13.2632375,7.64545455 C13.7399125,7.64545455 14.1257375,7.25175758 14.1257375,6.76666667 C14.1257375,6.28142929 13.7399125,5.88787879 13.2632375,5.88787879 L7.5132375,5.88787879 C7.03699375,5.88787879 6.6507375,6.28142929 6.6507375,6.76666667 L6.6507375,6.76666667 Z M4.6382375,11.5118283 L16.0230938,11.5118283 C16.4997688,11.5118283 16.8855938,11.1188636 16.8855938,10.6330404 C16.8855938,10.1479495 16.4997688,9.75425253 16.0230938,9.75425253 L4.6382375,9.75425253 C4.16199375,9.75425253 3.7757375,10.1479495 3.7757375,10.6330404 C3.7757375,11.1188636 4.16199375,11.5118283 4.6382375,11.5118283 L4.6382375,11.5118283 Z M15.1032375,15.3789343 C15.5794813,15.3789343 15.9657375,14.9852374 15.9657375,14.5001465 C15.9657375,14.0143232 15.5794813,13.6213586 15.1032375,13.6213586 L5.558525,13.6213586 C5.08185,13.6213586 4.696025,14.0143232 4.696025,14.5001465 C4.696025,14.9852374 5.08185,15.3789343 5.558525,15.3789343 L15.1032375,15.3789343 Z" id="Fill-1"></path>
                </g>
                <g id="file249-copy-3" transform="translate(235.000000, 210.000000)" fill="#FFFFFF" sketch:type="MSShapeGroup">
                    <path d="M21.5052875,24.8355707 L21.5052875,28.7838182 L20.4086188,27.6481313 C20.2401438,27.4764747 20.02955,27.3906465 19.8088938,27.3906465 C19.5882375,27.3906465 19.3529188,27.4764747 19.1844437,27.6481313 L18.0547125,28.7838182 L18.0547125,24.8127222 C18.6297125,25.0341768 19.1889,25.1566212 19.8088938,25.1566212 C20.4063188,25.1566212 21.0447125,25.0420859 21.5052875,24.8355707 L21.5052875,24.8355707 Z M16.8311125,20.3266566 C16.8311125,22.0206667 18.184375,23.3994848 19.8469875,23.3994848 C21.5103187,23.3994848 22.8630062,22.0206667 22.8630062,20.3266566 C22.8630062,18.6320606 21.5103187,17.2538283 19.8469875,17.2538283 C18.184375,17.2538283 16.8311125,18.6320606 16.8311125,20.3266566 L16.8311125,20.3266566 Z M16.3302875,23.603803 L16.3302875,28.8536818 L0.9007375,28.8536818 C0.42449375,28.8536818 0,28.4599848 0,27.9748939 L0,0.908080808 C0,0.422843434 0.42449375,0.0292929293 0.9007375,0.0292929293 L19.8757375,0.0292929293 C20.3518375,0.0292929293 20.7,0.422843434 20.7,0.908080808 L20.7,15.5825202 C20.4697125,15.5265707 20.1329063,15.4962525 19.8280125,15.4962525 C17.2134875,15.4962525 15.0775063,17.662904 15.0775063,20.3266566 C15.0775063,21.5905 15.6401438,22.7415657 16.3302875,23.603803 L16.3302875,23.603803 Z M6.6507375,6.76666667 C6.6507375,7.25175758 7.03699375,7.64545455 7.5132375,7.64545455 L13.2632375,7.64545455 C13.7399125,7.64545455 14.1257375,7.25175758 14.1257375,6.76666667 C14.1257375,6.28142929 13.7399125,5.88787879 13.2632375,5.88787879 L7.5132375,5.88787879 C7.03699375,5.88787879 6.6507375,6.28142929 6.6507375,6.76666667 L6.6507375,6.76666667 Z M4.6382375,11.5118283 L16.0230938,11.5118283 C16.4997688,11.5118283 16.8855938,11.1188636 16.8855938,10.6330404 C16.8855938,10.1479495 16.4997688,9.75425253 16.0230938,9.75425253 L4.6382375,9.75425253 C4.16199375,9.75425253 3.7757375,10.1479495 3.7757375,10.6330404 C3.7757375,11.1188636 4.16199375,11.5118283 4.6382375,11.5118283 L4.6382375,11.5118283 Z M15.1032375,15.3789343 C15.5794813,15.3789343 15.9657375,14.9852374 15.9657375,14.5001465 C15.9657375,14.0143232 15.5794813,13.6213586 15.1032375,13.6213586 L5.558525,13.6213586 C5.08185,13.6213586 4.696025,14.0143232 4.696025,14.5001465 C4.696025,14.9852374 5.08185,15.3789343 5.558525,15.3789343 L15.1032375,15.3789343 Z" id="Fill-1"></path>
                </g>
            </g>
        </g>
    </g>
</svg>