<?xml version="1.0" encoding="UTF-8" standalone="no"?>
<svg width="346px" height="346px" viewBox="0 0 346 346" version="1.1" xmlns="http://www.w3.org/2000/svg" xmlns:xlink="http://www.w3.org/1999/xlink" xmlns:sketch="http://www.bohemiancoding.com/sketch/ns">
    <!-- Generator: Sketch 3.4.4 (17249) - http://www.bohemiancoding.com/sketch -->
    <title>Group Copy</title>
    <desc>Created with Sketch.</desc>
    <defs></defs>
    <g id="Page-1" stroke="none" stroke-width="1" fill="none" fill-rule="evenodd" sketch:type="MSPage">
        <g id="Group-Copy" sketch:type="MSLayerGroup">
            <g>
                <path d="M345.730242,345.82611 L345.730242,173.303888 L172.870013,173.303888 C172.870013,268.585094 250.261631,345.82611 345.730242,345.82611 Z" id="Fill-1" fill="#FF9831" sketch:type="MSShapeGroup" transform="translate(259.300128, 259.564999) rotate(-90.000000) translate(-259.300128, -259.564999) "></path>
                <path d="M86.6097161,-85.6097745 L86.6097161,259.43467 C182.711951,259.43467 259.468317,182.193654 259.468317,86.9124478 C259.468317,-8.36875843 182.711951,-85.6097745 86.6097161,-85.6097745" id="Fill-2" fill="#F16A15" sketch:type="MSShapeGroup" transform="translate(173.039016, 86.912448) rotate(-90.000000) translate(-173.039016, -86.912448) "></path>
                <path d="M221.50265,154.767358 C193.830093,135.987483 160.539628,125.007628 124.704896,125.007628 C88.8701649,125.007628 55.3044234,135.987483 27.6318664,154.767358 C-17.7723673,186.055229 -47.9468401,239.110977 -47.9468401,297.490834 L124.678835,297.490834 L221.50265,154.767358 Z" id="Fill-3" fill="#FF7B00" sketch:type="MSShapeGroup" transform="translate(86.777905, 211.268739) rotate(-90.000000) translate(-86.777905, -211.268739) "></path>
                <text id="ASSET-BACKED-BONDS" sketch:type="MSTextLayer" font-family="Open Sans" font-size="11" font-weight="bold" sketch:alignment="middle" line-spacing="13" letter-spacing="0.549999952" fill="#FFFFFF">
                    <tspan x="197.895738" y="255.692392">ASSET-BACKED </tspan>
                    <tspan x="219.697544" y="268.692392">BONDS</tspan>
                </text>
                <text id="GOVERNMENT" sketch:type="MSTextLayer" font-family="Open Sans" font-size="11" font-weight="bold" sketch:alignment="middle" line-spacing="13" letter-spacing="0.549999952" fill="#FFFFFF">
                    <tspan x="47.8957377" y="227.692392">GOVERNMENT</tspan>
                    <tspan x="68.6120462" y="240.692392">BONDS</tspan>
                </text>
                <text id="CORPORATE" sketch:type="MSTextLayer" font-family="Open Sans" font-size="11" font-weight="bold" sketch:alignment="middle" line-spacing="13" letter-spacing="0.549999952" fill="#FFFFFF">
                    <tspan x="152.173682" y="99.6923924">CORPORATE</tspan>
                    <tspan x="166.169678" y="112.692392">BONDS</tspan>
                </text>
                <g id="file249-copy-2" transform="translate(184.500000, 58.000000)" fill="#FFFFFF" sketch:type="MSShapeGroup">
                    <path d="M17.7652375,20.5535758 L17.7652375,23.8210909 L16.8592938,22.8812121 C16.7201188,22.7391515 16.54615,22.6681212 16.3638688,22.6681212 C16.1815875,22.6681212 15.9871938,22.7391515 15.8480188,22.8812121 L14.9147625,23.8210909 L14.9147625,20.5346667 C15.3897625,20.7179394 15.8517,20.8192727 16.3638688,20.8192727 C16.8573937,20.8192727 17.3847625,20.7244848 17.7652375,20.5535758 L17.7652375,20.5535758 Z M13.9039625,16.8220606 C13.9039625,18.224 15.021875,19.3650909 16.3953375,19.3650909 C17.7693937,19.3650909 18.8868313,18.224 18.8868313,16.8220606 C18.8868313,15.4196364 17.7693937,14.2790303 16.3953375,14.2790303 C15.021875,14.2790303 13.9039625,15.4196364 13.9039625,16.8220606 L13.9039625,16.8220606 Z M13.4902375,19.5341818 L13.4902375,23.8789091 L0.7440875,23.8789091 C0.35066875,23.8789091 0,23.5530909 0,23.1516364 L0,0.751515152 C0,0.349939394 0.35066875,0.0242424242 0.7440875,0.0242424242 L16.4190875,0.0242424242 C16.8123875,0.0242424242 17.1,0.349939394 17.1,0.751515152 L17.1,12.8958788 C16.9097625,12.8495758 16.6315313,12.8244848 16.3796625,12.8244848 C14.2198375,12.8244848 12.4553313,14.6175758 12.4553313,16.8220606 C12.4553313,17.868 12.9201188,18.8206061 13.4902375,19.5341818 L13.4902375,19.5341818 Z M5.4940875,5.6 C5.4940875,6.00145455 5.81316875,6.32727273 6.2065875,6.32727273 L10.9565875,6.32727273 C11.3503625,6.32727273 11.6690875,6.00145455 11.6690875,5.6 C11.6690875,5.19842424 11.3503625,4.87272727 10.9565875,4.87272727 L6.2065875,4.87272727 C5.81316875,4.87272727 5.4940875,5.19842424 5.4940875,5.6 L5.4940875,5.6 Z M3.8315875,9.5270303 L13.2364688,9.5270303 C13.6302438,9.5270303 13.9489688,9.20181818 13.9489688,8.79975758 C13.9489688,8.39830303 13.6302438,8.07248485 13.2364688,8.07248485 L3.8315875,8.07248485 C3.43816875,8.07248485 3.1190875,8.39830303 3.1190875,8.79975758 C3.1190875,9.20181818 3.43816875,9.5270303 3.8315875,9.5270303 L3.8315875,9.5270303 Z M12.4765875,12.7273939 C12.8700063,12.7273939 13.1890875,12.4015758 13.1890875,12.0001212 C13.1890875,11.5980606 12.8700063,11.2728485 12.4765875,11.2728485 L4.591825,11.2728485 C4.19805,11.2728485 3.879325,11.5980606 3.879325,12.0001212 C3.879325,12.4015758 4.19805,12.7273939 4.591825,12.7273939 L12.4765875,12.7273939 Z" id="Fill-1"></path>
                </g>
                <g id="file249-copy-3" transform="translate(86.500000, 186.000000)" fill="#FFFFFF" sketch:type="MSShapeGroup">
                    <path d="M17.7652375,20.5535758 L17.7652375,23.8210909 L16.8592938,22.8812121 C16.7201188,22.7391515 16.54615,22.6681212 16.3638688,22.6681212 C16.1815875,22.6681212 15.9871938,22.7391515 15.8480188,22.8812121 L14.9147625,23.8210909 L14.9147625,20.5346667 C15.3897625,20.7179394 15.8517,20.8192727 16.3638688,20.8192727 C16.8573937,20.8192727 17.3847625,20.7244848 17.7652375,20.5535758 L17.7652375,20.5535758 Z M13.9039625,16.8220606 C13.9039625,18.224 15.021875,19.3650909 16.3953375,19.3650909 C17.7693937,19.3650909 18.8868313,18.224 18.8868313,16.8220606 C18.8868313,15.4196364 17.7693937,14.2790303 16.3953375,14.2790303 C15.021875,14.2790303 13.9039625,15.4196364 13.9039625,16.8220606 L13.9039625,16.8220606 Z M13.4902375,19.5341818 L13.4902375,23.8789091 L0.7440875,23.8789091 C0.35066875,23.8789091 0,23.5530909 0,23.1516364 L0,0.751515152 C0,0.349939394 0.35066875,0.0242424242 0.7440875,0.0242424242 L16.4190875,0.0242424242 C16.8123875,0.0242424242 17.1,0.349939394 17.1,0.751515152 L17.1,12.8958788 C16.9097625,12.8495758 16.6315313,12.8244848 16.3796625,12.8244848 C14.2198375,12.8244848 12.4553313,14.6175758 12.4553313,16.8220606 C12.4553313,17.868 12.9201188,18.8206061 13.4902375,19.5341818 L13.4902375,19.5341818 Z M5.4940875,5.6 C5.4940875,6.00145455 5.81316875,6.32727273 6.2065875,6.32727273 L10.9565875,6.32727273 C11.3503625,6.32727273 11.6690875,6.00145455 11.6690875,5.6 C11.6690875,5.19842424 11.3503625,4.87272727 10.9565875,4.87272727 L6.2065875,4.87272727 C5.81316875,4.87272727 5.4940875,5.19842424 5.4940875,5.6 L5.4940875,5.6 Z M3.8315875,9.5270303 L13.2364688,9.5270303 C13.6302438,9.5270303 13.9489688,9.20181818 13.9489688,8.79975758 C13.9489688,8.39830303 13.6302438,8.07248485 13.2364688,8.07248485 L3.8315875,8.07248485 C3.43816875,8.07248485 3.1190875,8.39830303 3.1190875,8.79975758 C3.1190875,9.20181818 3.43816875,9.5270303 3.8315875,9.5270303 L3.8315875,9.5270303 Z M12.4765875,12.7273939 C12.8700063,12.7273939 13.1890875,12.4015758 13.1890875,12.0001212 C13.1890875,11.5980606 12.8700063,11.2728485 12.4765875,11.2728485 L4.591825,11.2728485 C4.19805,11.2728485 3.879325,11.5980606 3.879325,12.0001212 C3.879325,12.4015758 4.19805,12.7273939 4.591825,12.7273939 L12.4765875,12.7273939 Z" id="Fill-1"></path>
                </g>
                <g id="file249-copy-4" transform="translate(236.500000, 213.000000)" fill="#FFFFFF" sketch:type="MSShapeGroup">
                    <path d="M17.7652375,20.5535758 L17.7652375,23.8210909 L16.8592938,22.8812121 C16.7201188,22.7391515 16.54615,22.6681212 16.3638688,22.6681212 C16.1815875,22.6681212 15.9871938,22.7391515 15.8480188,22.8812121 L14.9147625,23.8210909 L14.9147625,20.5346667 C15.3897625,20.7179394 15.8517,20.8192727 16.3638688,20.8192727 C16.8573937,20.8192727 17.3847625,20.7244848 17.7652375,20.5535758 L17.7652375,20.5535758 Z M13.9039625,16.8220606 C13.9039625,18.224 15.021875,19.3650909 16.3953375,19.3650909 C17.7693937,19.3650909 18.8868313,18.224 18.8868313,16.8220606 C18.8868313,15.4196364 17.7693937,14.2790303 16.3953375,14.2790303 C15.021875,14.2790303 13.9039625,15.4196364 13.9039625,16.8220606 L13.9039625,16.8220606 Z M13.4902375,19.5341818 L13.4902375,23.8789091 L0.7440875,23.8789091 C0.35066875,23.8789091 0,23.5530909 0,23.1516364 L0,0.751515152 C0,0.349939394 0.35066875,0.0242424242 0.7440875,0.0242424242 L16.4190875,0.0242424242 C16.8123875,0.0242424242 17.1,0.349939394 17.1,0.751515152 L17.1,12.8958788 C16.9097625,12.8495758 16.6315313,12.8244848 16.3796625,12.8244848 C14.2198375,12.8244848 12.4553313,14.6175758 12.4553313,16.8220606 C12.4553313,17.868 12.9201188,18.8206061 13.4902375,19.5341818 L13.4902375,19.5341818 Z M5.4940875,5.6 C5.4940875,6.00145455 5.81316875,6.32727273 6.2065875,6.32727273 L10.9565875,6.32727273 C11.3503625,6.32727273 11.6690875,6.00145455 11.6690875,5.6 C11.6690875,5.19842424 11.3503625,4.87272727 10.9565875,4.87272727 L6.2065875,4.87272727 C5.81316875,4.87272727 5.4940875,5.19842424 5.4940875,5.6 L5.4940875,5.6 Z M3.8315875,9.5270303 L13.2364688,9.5270303 C13.6302438,9.5270303 13.9489688,9.20181818 13.9489688,8.79975758 C13.9489688,8.39830303 13.6302438,8.07248485 13.2364688,8.07248485 L3.8315875,8.07248485 C3.43816875,8.07248485 3.1190875,8.39830303 3.1190875,8.79975758 C3.1190875,9.20181818 3.43816875,9.5270303 3.8315875,9.5270303 L3.8315875,9.5270303 Z M12.4765875,12.7273939 C12.8700063,12.7273939 13.1890875,12.4015758 13.1890875,12.0001212 C13.1890875,11.5980606 12.8700063,11.2728485 12.4765875,11.2728485 L4.591825,11.2728485 C4.19805,11.2728485 3.879325,11.5980606 3.879325,12.0001212 C3.879325,12.4015758 4.19805,12.7273939 4.591825,12.7273939 L12.4765875,12.7273939 Z" id="Fill-1"></path>
                </g>
            </g>
        </g>
    </g>
</svg>