<?xml version="1.0" encoding="UTF-8" standalone="no"?>
<svg width="346px" height="345px" viewBox="0 0 346 345" version="1.1" xmlns="http://www.w3.org/2000/svg" xmlns:xlink="http://www.w3.org/1999/xlink" xmlns:sketch="http://www.bohemiancoding.com/sketch/ns">
    <!-- Generator: Sketch 3.4.4 (17249) - http://www.bohemiancoding.com/sketch -->
    <title>Group</title>
    <desc>Created with Sketch.</desc>
    <defs>
        <path d="M15.3448822,4.74572206 L9.52480417,0 L3.69744634,4.74572206 L0.206127427,4.74572206 L0.206127427,29 L7.1960449,29 L11.8535633,29 L18.8434808,29 L18.8434808,4.74572206 L15.3448822,4.74572206 Z M6.02984538,19.5631015 L8.36224441,19.5631015 L8.36224441,22.2617647 L6.02984538,22.2617647 L6.02984538,19.5631015 Z M6.02984538,14.1741978 L8.36224441,14.1741978 L8.36224441,16.872861 L6.02984538,16.872861 L6.02984538,14.1741978 Z M6.02984538,8.78529412 L8.36224441,8.78529412 L8.36224441,11.4839574 L6.02984538,11.4839574 L6.02984538,8.78529412 Z M10.6873638,19.5631015 L13.0197628,19.5631015 L13.0197628,22.2617647 L10.6873638,22.2617647 L10.6873638,19.5631015 Z M10.6873638,14.1741978 L13.0197628,14.1741978 L13.0197628,16.872861 L10.6873638,16.872861 L10.6873638,14.1741978 Z M10.6873638,8.78529412 L13.0197628,8.78529412 L13.0197628,11.4839574 L10.6873638,11.4839574 L10.6873638,8.78529412 Z" id="path-1"></path>
    </defs>
    <g id="Page-1" stroke="none" stroke-width="1" fill="none" fill-rule="evenodd" sketch:type="MSPage">
        <g id="10-Managed-Funds_Property" sketch:type="MSArtboardGroup" transform="translate(-339.000000, -264.000000)">
            <g id="Group" sketch:type="MSLayerGroup" transform="translate(294.000000, 218.000000)">
                <g id="Imported-Layers-Copy-2" transform="translate(218.090833, 218.951255) rotate(72.000000) translate(-218.090833, -218.951255) translate(45.090833, 45.951255)" sketch:type="MSShapeGroup">
                    <g id="Imported-Layers-Copy" transform="translate(172.500000, 172.929691) rotate(-90.000000) translate(-172.500000, -172.929691) translate(0.000000, 0.429691)">
                        <path d="M172.580184,344.991653 L172.580184,172.753797 L0.00487849983,172.753797 C0.00487849983,267.877952 77.2689326,344.991653 172.580184,344.991653 Z" id="Fill-1" fill="#37AEFD"></path>
                        <path d="M172.373661,0.515942206 L172.373661,344.991653 C268.31749,344.991653 344.94734,267.877952 344.94734,172.753797 C344.94734,77.6296425 268.31749,0.515942206 172.373661,0.515942206" id="Fill-2" fill="#279EEE"></path>
                        <path d="M269.011864,30.2266192 C241.384919,11.4776986 208.149326,0.515942206 172.373661,0.515942206 C136.597995,0.515942206 103.08758,11.4776986 75.4606353,30.2266192 C30.1312411,61.4629182 0.00650466644,114.431216 0.00650466644,172.714845 L172.347642,172.714845 L269.011864,30.2266192 Z" id="Fill-3" fill="#0C8EE6"></path>
                    </g>
                </g>
                <text id="COMMERCIAL-BUSINESSE" sketch:type="MSTextLayer" font-family="Open Sans" font-size="12" font-weight="bold" sketch:alignment="middle" line-spacing="15" letter-spacing="0.599999964" fill="#FFFFFF">
                    <tspan x="124.008594" y="316.5">COMMERCIAL </tspan>
                    <tspan x="129.391602" y="331.5">BUSINESSES</tspan>
                </text>
                <text id="APARTMENTS" sketch:type="MSTextLayer" font-family="Open Sans" font-size="12" font-weight="bold" sketch:alignment="middle" letter-spacing="0.599999964" fill="#FFFFFF">
                    <tspan x="106.950195" y="176.5">APARTMENTS</tspan>
                </text>
                <text id="SHOPPING-CENTRES" sketch:type="MSTextLayer" font-family="Open Sans" font-size="12" font-weight="bold" sketch:alignment="middle" line-spacing="15" letter-spacing="0.599999964" fill="#FFFFFF">
                    <tspan x="262.838086" y="223.833984">SHOPPING </tspan>
                    <tspan x="268.691016" y="238.833984">CENTRES</tspan>
                </text>
                <g id="Mask-Copy" transform="translate(142.000000, 128.000000)">
                    <mask id="mask-2" sketch:name="Mask" fill="white">
                        <use xlink:href="#path-1"></use>
                    </mask>
                    <use id="Mask" fill="#FFFFFF" sketch:type="MSShapeGroup" xlink:href="#path-1"></use>
                </g>
                <g id="office17" transform="translate(164.000000, 272.000000)" fill="#FFFFFF" sketch:type="MSShapeGroup">
                    <path d="M0,24.9741484 L12.5,24.9741484 L12.5,0.0349756691 L0,0.0349756691 L0,24.9741484 Z M7.81246185,3.15229615 L10.9373856,3.15229615 L10.9373856,6.26961664 L7.81246185,6.26961664 L7.81246185,3.15229615 Z M7.81246185,9.38724156 L10.9373856,9.38724156 L10.9373856,12.504562 L7.81246185,12.504562 L7.81246185,9.38724156 Z M7.81246185,15.6218825 L10.9373856,15.6218825 L10.9373856,18.739203 L7.81246185,18.739203 L7.81246185,15.6218825 Z M1.56261444,3.15229615 L4.68753815,3.15229615 L4.68753815,6.26961664 L1.56261444,6.26961664 L1.56261444,3.15229615 Z M1.56261444,9.38724156 L4.68753815,9.38724156 L4.68753815,12.504562 L1.56261444,12.504562 L1.56261444,9.38724156 Z M1.56261444,15.6218825 L4.68753815,15.6218825 L4.68753815,18.739203 L1.56261444,18.739203 L1.56261444,15.6218825 Z M14.0623093,7.8284291 L25,7.8284291 L25,9.38724156 L14.0623093,9.38724156 L14.0623093,7.8284291 Z M14.0623093,24.9741484 L17.1875381,24.9741484 L17.1875381,18.739203 L21.8747711,18.739203 L21.8747711,24.9741484 L25,24.9741484 L25,10.9457496 L14.0623093,10.9457496 L14.0623093,24.9741484 Z" id="Fill-1"></path>
                </g>
                <g id="building78" transform="translate(288.574219, 185.183773)" fill="#FFFFFF" sketch:type="MSShapeGroup">
                    <path d="M7.868602,19.0972829 L13.0112829,19.0972829 L13.0112829,14.8370819 L16.1022217,14.8370819 L16.1022217,19.0972829 L21.2449026,19.0972829 L21.2449026,0.0240235755 L7.868602,0.0240235755 L7.868602,19.0972829 Z M15.4952352,2.27171796 L18.5861741,2.27171796 L18.5861741,4.77600845 L15.4952352,4.77600845 L15.4952352,2.27171796 Z M15.4952352,6.29624464 L18.5861741,6.29624464 L18.5861741,8.80053513 L15.4952352,8.80053513 L15.4952352,6.29624464 Z M15.4952352,10.3207713 L18.5861741,10.3207713 L18.5861741,12.8248185 L15.4952352,12.8248185 L15.4952352,10.3207713 Z M10.5273305,2.27171796 L13.6183444,2.27171796 L13.6183444,4.77600845 L10.5273305,4.77600845 L10.5273305,2.27171796 Z M10.5273305,6.29624464 L13.6183444,6.29624464 L13.6183444,8.80053513 L10.5273305,8.80053513 L10.5273305,6.29624464 Z M10.5273305,10.3207713 L13.6183444,10.3207713 L13.6183444,12.8248185 L10.5273305,12.8248185 L10.5273305,10.3207713 Z" id="Fill-1"></path>
                    <g id="Group-5" transform="translate(0.000000, 1.248972)">
                        <path d="M22.4458875,0.483705537 L22.4458875,13.9698718 L24.4315629,13.9698718 L24.4315629,17.8483108 L29.1135046,17.8483108 L29.1135046,0.483705537 L22.4458875,0.483705537 Z M23.8787059,9.85819125 L26.692916,9.85819125 L26.692916,12.1379373 L23.8787059,12.1379373 L23.8787059,9.85819125 Z M23.8787059,6.19407903 L26.692916,6.19407903 L26.692916,8.47382511 L23.8787059,8.47382511 L23.8787059,6.19407903 Z M23.8787059,2.53014925 L26.692916,2.53014925 L26.692916,4.80995616 L23.8787059,4.80995616 L23.8787059,2.53014925 Z" id="Fill-2"></path>
                        <path d="M0,17.8483108 L4.68194169,17.8483108 L4.68194169,13.9698718 L6.66791741,13.9698718 L6.66791741,0.483705537 L0,0.483705537 L0,17.8483108 Z M2.42058855,2.53014925 L5.23479865,2.53014925 L5.23479865,4.80995616 L2.42058855,4.80995616 L2.42058855,2.53014925 Z M2.42058855,6.19407903 L5.23479865,6.19407903 L5.23479865,8.47382511 L2.42058855,8.47382511 L2.42058855,6.19407903 Z M2.42058855,9.85794798 L5.23479865,9.85794798 L5.23479865,12.1376941 L2.42058855,12.1376941 L2.42058855,9.85794798 Z" id="Fill-4"></path>
                    </g>
                </g>
            </g>
        </g>
    </g>
</svg>