<?xml version="1.0" encoding="UTF-8" standalone="no"?>
<svg width="346px" height="344px" viewBox="0 0 346 344" version="1.1" xmlns="http://www.w3.org/2000/svg" xmlns:xlink="http://www.w3.org/1999/xlink" xmlns:sketch="http://www.bohemiancoding.com/sketch/ns">
    <!-- Generator: Sketch 3.4.3 (16618) - http://www.bohemiancoding.com/sketch -->
    <title>Group</title>
    <desc>Created with Sketch.</desc>
    <defs></defs>
    <g id="Page-1" stroke="none" stroke-width="1" fill="none" fill-rule="evenodd" sketch:type="MSPage">
        <g id="9-Managed-Funds_Shares" sketch:type="MSArtboardGroup" transform="translate(-342.000000, -264.000000)">
            <g id="Group" sketch:type="MSLayerGroup" transform="translate(336.000000, 264.000000)">
                <g id="Oval-3-+-arrow395" transform="translate(292.308594, 124.000000)" sketch:type="MSShapeGroup">
                    <path d="M21,42.5 C32.5979797,42.5 42,33.0979797 42,21.5 C42,9.90202025 32.5979797,0.5 21,0.5 C9.40202025,0.5 0,9.90202025 0,21.5 C0,33.0979797 9.40202025,42.5 21,42.5 Z" id="Oval-3" fill="#EEF0F4" transform="translate(21.000000, 21.500000) scale(-1, 1) translate(-21.000000, -21.500000) "></path>
                    <path d="M26.9670352,31.7735224 L16.40625,21.3865258 L26.9670352,11 L27.5136914,11.5701243 L17.5339609,21.3865258 L27.5136914,31.2033981 L26.9670352,31.7735224 Z" id="arrow395" fill="#313131" transform="translate(21.984375, 21.828125) scale(-1, 1) translate(-21.984375, -21.828125) "></path>
                </g>
                <g id="purse10-+-Fill-1-+-Fill-3" transform="translate(164.617188, 276.509880)">
                    <g id="purse10"></g>
                </g>
                <g id="Imported-Layers" transform="translate(6.308594, 0.000000)" sketch:type="MSShapeGroup">
                    <path d="M172.5,0.293389121 C117.304349,0.293389121 68.1693908,26.1193096 36.6047899,66.2937657 L172.5,172.022552 L172.5,0.293389121" id="Fill-1" fill="#46669A"></path>
                    <path d="M36.6047899,66.2937657 C13.7028782,95.4426569 0.0507352941,132.144017 0.0507352941,172.022552 C0.0507352941,186.352322 1.82357143,200.267803 5.14455882,213.574121 L172.5,172.022552 L36.6047899,66.2937657" id="Fill-2" fill="#5574A5"></path>
                    <path d="M342.351618,201.847008 C344.054874,192.159582 344.950714,182.195 344.950714,172.022552 C344.950714,127.835126 328.184874,87.5495188 300.651555,57.1173431 L172.5,172.022552 L342.351618,201.847008" id="Fill-3" fill="#2D518A"></path>
                    <path d="M300.651555,57.1173431 C269.086954,22.2319247 223.368655,0.293389121 172.5,0.293389121 L172.5,172.022552 L300.651555,57.1173431" id="Fill-4" fill="#385A91"></path>
                    <path d="M342.351618,201.847008 L172.5,172.022552 L253.47063,323.66954 C299.468697,299.264038 333.054013,254.720063 342.351618,201.847008" id="Fill-5" fill="#204681"></path>
                    <path d="M102.344685,328.935481 C123.778172,338.452573 147.516492,343.751715 172.5,343.751715 C201.767017,343.751715 229.326429,336.480732 253.47063,323.66954 L172.5,172.022552 L102.344685,328.935481" id="Fill-6" fill="#183C75"></path>
                    <path d="M5.14455882,213.574121 C18.0371218,265.236067 54.4143277,307.652301 102.344685,328.935481 L172.5,172.022552 L5.14455882,213.574121" id="Fill-7" fill="#11336A"></path>
                </g>
                <text id="RETAIL-STORES" sketch:type="MSTextLayer" font-family="Open Sans" font-size="12" font-weight="bold" sketch:alignment="middle" letter-spacing="0.599999964" fill="#FFFFFF">
                    <tspan x="137.472818" y="305.858887">RETAIL STORES</tspan>
                </text>
                <path d="M178.334977,271.35599 C178.878361,271.35599 179.320823,270.913528 179.320823,270.370144 L179.320823,266.531375 C179.320823,264.812605 180.71713,263.415682 182.433438,263.415682 C184.149746,263.415682 185.546669,264.812605 185.546669,266.531375 L185.546669,270.370144 C185.546669,270.913528 185.988515,271.35599 186.5319,271.35599 C187.075284,271.35599 187.517746,270.913528 187.517746,270.370144 L187.517746,266.531375 C187.517746,263.728298 185.236515,261.447067 182.433438,261.447067 C179.630361,261.447067 177.351592,263.728298 177.351592,266.531375 L177.351592,270.370144 C177.351592,270.913528 177.791592,271.35599 178.334977,271.35599 L178.334977,271.35599 Z" id="Fill-1" fill="#FFFFFF" sketch:type="MSShapeGroup"></path>
                <path d="M193.729438,269.141836 L188.50113,269.141836 L188.50113,270.370144 C188.50113,271.456913 187.618669,272.338759 186.5319,272.338759 C185.445746,272.338759 184.563284,271.456913 184.563284,270.370144 L184.563284,269.141836 L180.306054,269.141836 L180.306054,270.370144 C180.306054,271.456913 179.421746,272.338759 178.337438,272.338759 C177.250669,272.338759 176.366361,271.456913 176.366361,270.370144 L176.366361,269.141836 L171.082669,269.141836 C170.810669,269.141836 170.642669,269.35599 170.707284,269.61999 L174.152207,283.648913 C174.358977,284.437221 175.190977,285.076605 176.005746,285.076605 L188.806361,285.076605 C189.62113,285.076605 190.450054,284.437221 190.659284,283.648913 L194.104207,269.61999 C194.166977,269.35599 194.000823,269.141836 193.729438,269.141836 L193.729438,269.141836 Z" id="Fill-3" fill="#FFFFFF" sketch:type="MSShapeGroup"></path>
                <text id="SUPERMARKETS" sketch:type="MSTextLayer" font-family="Open Sans" font-size="12" font-weight="bold" sketch:alignment="middle" letter-spacing="0.599999964" fill="#FFFFFF">
                    <tspan x="225.898313" y="249.390526">SUPERMARKETS</tspan>
                </text>
                <g id="Fill-1-+-Fill-4" transform="translate(262.117453, 203.609474)" fill="#FFFFFF" sketch:type="MSShapeGroup">
                    <path d="M10.9534688,7.73150232 C11.4154688,7.02341899 12.145875,6.00660649 13.0685625,5.03208565 C13.8501563,4.20558565 15.3811875,3.14406482 15.3811875,3.14406482 C15.6115313,2.98335649 15.5859375,2.76162732 15.32475,2.64804399 L13.4760938,1.85296065 C13.2149063,1.74179399 12.8585625,1.82214815 12.684,2.03481482 C12.684,2.03481482 11.3176875,3.84248149 9.70790625,7.68679399 C4.72959375,5.61450232 0,8.51752315 0,13.5659398 C0,18.8378982 4.40671875,26.8479398 10.3641563,24.4288565 C16.6418438,26.928294 20.7335625,18.8378982 20.7335625,13.5659398 C20.7335625,8.47281482 16.4804063,5.48702315 10.9534688,7.73150232 L10.9534688,7.73150232 Z" id="Fill-1"></path>
                    <path d="M9.8385,6.02533565 C10.1285625,6.00177315 10.381875,5.76796065 10.4048437,5.50393982 C10.4048437,5.50393982 10.5899062,3.44131482 9.0286875,2.00400232 C7.46221875,0.564273155 5.22703125,0.736460655 5.22703125,0.736460655 C4.93959375,0.757606488 4.68628125,0.991418988 4.66265625,1.25604399 C4.66265625,1.25604399 4.473,3.32108565 6.03684375,4.75779399 C7.5980625,6.19510649 9.8385,6.02533565 9.8385,6.02533565 L9.8385,6.02533565 Z" id="Fill-4"></path>
                </g>
                <path d="M99.8065735,211.522006 L87.6144532,211.522006 C86.177761,211.522006 85.0020504,212.738121 85.0020504,214.224188 L85.0020504,237.644395 C85.0020504,239.130743 86.177761,240.34693 87.6144532,240.34693 L99.8065735,240.34693 C101.243266,240.34693 102.418976,239.130743 102.418976,237.644395 L102.418976,214.224188 C102.418976,212.738121 101.243266,211.522006 99.8065735,211.522006 L99.8065735,211.522006 Z M90.2271962,212.873097 L97.1938305,212.873097 L97.1938305,213.773942 L90.2271962,213.773942 L90.2271962,212.873097 Z M93.7105134,238.54524 C92.7487045,238.54524 91.9686847,237.738695 91.9686847,236.74355 C91.9686847,235.748757 92.7487045,234.942212 93.7105134,234.942212 C94.6723223,234.942212 95.452342,235.748757 95.452342,236.74355 C95.452342,237.738695 94.6723223,238.54524 93.7105134,238.54524 L93.7105134,238.54524 Z M86.7438791,215.125033 L100.677148,215.125033 L100.677148,233.140523 L86.7438791,233.140523 L86.7438791,215.125033 Z" id="Fill-1" fill="#FFFFFF" sketch:type="MSShapeGroup"></path>
                <text id="TELECO’S" sketch:type="MSTextLayer" font-family="Open Sans" font-size="12" font-weight="bold" sketch:alignment="middle" letter-spacing="0.599999964" fill="#FFFFFF">
                    <tspan x="63.4331053" y="261.35599">TELECO’S</tspan>
                </text>
                <text id="PHARMA" sketch:type="MSTextLayer" font-family="Open Sans" font-size="12" font-weight="bold" sketch:alignment="middle" letter-spacing="0.599999964" fill="#FFFFFF">
                    <tspan x="43.635547" y="170.833984">PHARMA</tspan>
                </text>
                <text id="MINING" sketch:type="MSTextLayer" font-family="Open Sans" font-size="12" font-weight="bold" sketch:alignment="middle" letter-spacing="0.599999964" fill="#FFFFFF">
                    <tspan x="266.778125" y="170.333984">MINING</tspan>
                </text>
                <text id="BANKING" sketch:type="MSTextLayer" font-family="Open Sans" font-size="12" font-weight="bold" sketch:alignment="middle" letter-spacing="0.599999964" fill="#FFFFFF">
                    <tspan x="188.703977" y="97.9052734">BANKING</tspan>
                </text>
                <text id="TECH" sketch:type="MSTextLayer" font-family="Open Sans" font-size="12" font-weight="bold" sketch:alignment="middle" letter-spacing="0.599999964" fill="#FFFFFF">
                    <tspan x="120.069914" y="97.4916741">TECH</tspan>
                </text>
                <path d="M224.747951,69.4170897 C224.747951,69.4170897 228.077951,67.1390897 228.077951,62.6460897 C228.077951,55.9580897 220.989951,53.4850897 217.178951,53.5510897 C213.366951,53.6180897 212.230951,54.6210897 212.230951,54.6210897 C212.230951,54.6210897 210.933951,53.6780897 209.558951,52.8880897 C208.506951,52.4780897 208.262951,52.4190897 207.531951,52.6540897 C206.946951,52.6540897 207.314951,53.6280897 207.549951,53.9790897 C207.782951,54.3300897 208.915951,56.2690897 208.915951,56.2690897 C208.915951,56.2690897 206.537951,58.7180897 206.361951,60.3280897 C206.361951,60.2990897 205.241951,60.3190897 204.627951,60.3190897 C204.013951,60.3190897 204.071951,60.9880897 204.071951,60.9880897 L204.088951,65.7020897 C204.088951,65.7020897 204.050951,66.3710897 204.607951,66.3710897 C205.163951,66.3710897 206.345951,66.3840897 206.345951,66.3840897 C206.345951,66.3840897 208.008951,68.7990897 209.062951,69.2380897 C209.062951,69.2670897 208.151951,71.7410897 208.151951,71.7410897 C208.151951,71.7410897 207.712951,72.5020897 208.502951,72.7950897 C209.292951,73.0870897 211.353951,73.9520897 212.231951,74.2160897 C213.109951,74.4800897 213.234951,73.8820897 213.234951,73.8820897 L214.103951,72.0050897 L219.788951,72.0140897 L220.657951,73.9490897 C220.657951,73.9490897 220.824951,74.8470897 221.994951,74.3500897 C223.165951,73.8530897 224.443951,73.2630897 225.409951,72.7660897 C226.374951,72.2690897 225.739951,71.3400897 225.739951,71.3400897 L224.747951,69.4170897 L224.747951,69.4170897 Z M209.395951,61.2720897 C208.862951,61.2720897 208.430951,60.8390897 208.430951,60.3060897 C208.430951,59.7730897 208.862951,59.3410897 209.395951,59.3410897 C209.928951,59.3410897 210.361951,59.7730897 210.361951,60.3060897 C210.361951,60.8390897 209.928951,61.2720897 209.395951,61.2720897 L209.395951,61.2720897 Z M222.998951,58.2640897 C222.690951,58.6290897 222.489951,58.3600897 222.241951,58.2870897 C222.241951,58.2870897 221.190951,57.3120897 219.646951,56.8570897 C218.047951,56.3870897 216.364951,56.6140897 216.364951,56.6140897 C216.116951,56.5410897 215.815951,56.5330897 215.813951,56.1500897 C215.826951,55.6770897 216.400951,55.6730897 216.393951,55.6570897 C216.393951,55.6570897 218.287951,55.4820897 219.872951,55.9480897 C221.431951,56.4060897 222.622951,57.4020897 222.622951,57.4020897 C222.622951,57.4020897 223.259951,57.8410897 222.998951,58.2640897 L222.998951,58.2640897 Z" id="Shape" fill="#FFFFFF" sketch:type="MSShapeGroup"></path>
                <path d="M61.7915312,142.98475 C59.8395312,144.93775 59.8395312,148.10375 61.7915312,150.05675 L62.4995312,150.76375 C64.4515312,152.71475 67.6175312,152.71475 69.5705312,150.76375 L75.2265312,145.10575 L67.4485312,137.32775 L61.7915312,142.98475 L61.7915312,142.98475 Z M68.8625312,150.05675 C67.3005312,151.61875 64.7675312,151.61875 63.2065312,150.05675 L62.4995312,149.34975 C60.9375312,147.78775 60.9375312,145.25375 62.4995312,143.69175 L67.4485312,138.74275 L73.8125312,145.10575 L68.8625312,150.05675 L68.8625312,150.05675 Z M81.5905313,131.67175 L80.8835313,130.96475 C78.9315313,129.01175 75.7655313,129.01175 73.8125313,130.96475 L68.1555313,136.62075 L75.9335313,144.39875 L81.5905313,138.74275 C83.5435313,136.78975 83.5435313,133.62375 81.5905313,131.67175 L81.5905313,131.67175 Z" id="Shape" fill="#FFFFFF" sketch:type="MSShapeGroup"></path>
                <path d="M119.874563,64.4930759 L131.011563,75.6300759 C131.011563,75.6300759 133.670563,69.3190759 129.928563,65.5770759 C126.227563,61.8760759 119.874563,64.4930759 119.874563,64.4930759 L119.874563,64.4930759 Z M149.749563,65.3780759 L144.093563,71.0340759 L144.800563,71.7410759 L150.456563,66.0850759 L149.749563,65.3780759 L149.749563,65.3780759 Z M152.577563,66.7920759 L146.214563,60.4270759 C145.433563,59.6480759 144.165563,59.6480759 143.386563,60.4270759 L142.828563,60.9850759 L141.268563,59.4250759 L144.065563,56.6280759 C144.846563,55.8470759 144.758563,54.4920759 143.977563,53.7110759 L140.530563,50.2640759 C139.749563,49.4830759 138.483563,49.4830759 137.702563,50.2640759 L135.159563,52.7180759 L133.819563,51.3780759 L133.910563,51.2880759 C134.691563,50.5070759 134.691563,49.2400759 133.910563,48.4590759 L127.546563,42.0940759 C126.765563,41.3130759 125.499563,41.3130759 124.717563,42.0940759 L120.475563,46.3370759 C119.694563,47.1180759 119.694563,48.3850759 120.475563,49.1660759 L126.839563,55.5300759 C127.620563,56.3110759 128.886563,56.3110759 129.668563,55.5300759 L131.059563,54.1390759 L132.437563,55.5290759 L129.878563,58.0880759 C129.097563,58.8690759 129.392563,63.2160759 129.392563,63.2160759 L131.115563,64.9390759 C131.115563,64.9390759 135.461563,65.2340759 136.242563,64.4530759 L138.456563,62.2400759 L140.016563,63.8000759 L139.142563,64.6740759 C138.361563,65.4550759 138.361563,66.7210759 139.142563,67.5020759 L145.507563,73.8650759 C146.288563,74.6460759 147.554563,74.6460759 148.335563,73.8650759 L152.577563,69.6230759 C153.358563,68.8390759 153.358563,67.5730759 152.577563,66.7920759 L152.577563,66.7920759 Z M121.182563,47.0440759 L125.425563,42.8010759 C125.815563,42.4100759 126.448563,42.4100759 126.839563,42.8010759 L121.182563,48.4580759 C120.791563,48.0680759 120.791563,47.4340759 121.182563,47.0440759 L121.182563,47.0440759 Z M121.889563,49.1650759 L127.546563,43.5080759 L128.253563,44.2150759 L122.596563,49.8720759 L121.889563,49.1650759 L121.889563,49.1650759 Z M123.303563,50.5790759 L128.960563,44.9220759 L129.667563,45.6300759 L124.011563,51.2860759 L123.303563,50.5790759 L123.303563,50.5790759 Z M124.718563,51.9940759 L130.374563,46.3370759 L131.082563,47.0440759 L125.425563,52.7010759 L124.718563,51.9940759 L124.718563,51.9940759 Z M126.132562,53.4080759 L131.789562,47.7510759 L132.496562,48.4580759 L126.839562,54.1150759 L126.132562,53.4080759 L126.132562,53.4080759 Z M128.960562,54.8220759 C128.570562,55.2130759 127.937562,55.2130759 127.546562,54.8220759 L133.203562,49.1650759 C133.594562,49.5560759 133.594562,50.1890759 133.203562,50.5790759 L128.960562,54.8220759 L128.960562,54.8220759 Z M131.782562,60.1280759 L131.252562,59.5970759 L138.562562,52.2870759 L139.093562,52.8170759 L131.782562,60.1280759 L131.782562,60.1280759 Z M139.849562,65.3780759 L144.093562,61.1340759 C144.484562,60.7450759 145.116562,60.7450759 145.507562,61.1340759 L139.849562,66.7920759 C139.458562,66.4010759 139.458562,65.7690759 139.849562,65.3780759 L139.849562,65.3780759 Z M151.870562,68.9130759 L147.628562,73.1550759 C147.237562,73.5460759 146.605562,73.5460759 146.214562,73.1550759 L141.971562,68.9120759 L147.627562,63.2560759 L146.920562,62.5490759 L141.262562,68.2050759 L140.555562,67.4980759 L146.213562,61.8400759 L151.869562,67.4980759 C152.261562,67.8900759 152.261562,68.5230759 151.870562,68.9130759 L151.870562,68.9130759 Z M151.163562,66.7920759 L145.507562,72.4480759 L146.214562,73.1550759 L151.870562,67.4990759 L151.163562,66.7920759 L151.163562,66.7920759 Z M148.335563,63.9640759 L142.679563,69.6200759 L143.386563,70.3270759 L149.042563,64.6710759 L148.335563,63.9640759 L148.335563,63.9640759 Z" id="Shape" fill="#FFFFFF" sketch:type="MSShapeGroup"></path>
                <path d="M279.256634,146.534983 C279.256634,146.534983 283.715831,147.94364 286.155721,147.521602 C288.595612,147.099565 294.005741,141.001187 294.005741,141.001187 L290.339369,137.27485 L300.282147,127.255508 C300.282147,127.255508 303.527311,127.255508 304.991785,127.255508 C306.456258,127.255508 306.942619,125.616741 305.82922,124.420761 C304.715821,123.224781 302.710211,121.509865 301.361517,120.139593 C300.012822,118.76932 298.644833,119.41939 298.644833,121.126006 C298.644833,122.832623 298.644832,125.66239 298.644832,125.66239 L288.727161,135.515116 L284.876329,131.864928 C284.876329,131.864928 279.815408,136.395294 278.590379,138.900337 C277.36535,141.405381 279.256634,146.534983 279.256634,146.534983 Z M300.56541,125.243184 L300.56541,121.805208 L304.003386,125.243184 L300.56541,125.243184 Z M287.928446,138.184025 L285.994584,134.531176 L291.581295,140.117886 L287.928446,138.184025 Z" id="Path-655" fill="#FFFFFF" sketch:type="MSShapeGroup"></path>
            </g>
        </g>
    </g>
</svg>